<?xml version="1.0" encoding="UTF-8" standalone="no"?>
<!DOCTYPE svg PUBLIC "-//W3C//DTD SVG 1.1//EN"
 "http://www.w3.org/Graphics/SVG/1.1/DTD/svg11.dtd">
<!-- Generated by graphviz version 2.50.0 (0)
 -->
<!-- Title: Tree Pages: 1 -->
<svg width="1274pt" height="790pt"
 viewBox="0.00 0.00 1273.50 790.00" xmlns="http://www.w3.org/2000/svg" xmlns:xlink="http://www.w3.org/1999/xlink">
<g id="graph0" class="graph" transform="scale(1 1) rotate(0) translate(4 786)">
<title>Tree</title>
<polygon fill="white" stroke="transparent" points="-4,4 -4,-786 1269.5,-786 1269.5,4 -4,4"/>
<!-- 0 -->
<g id="node1" class="node">
<title>0</title>
<path fill="#fbebe0" stroke="black" d="M709,-782C709,-782 596,-782 596,-782 590,-782 584,-776 584,-770 584,-770 584,-711 584,-711 584,-705 590,-699 596,-699 596,-699 709,-699 709,-699 715,-699 721,-705 721,-711 721,-711 721,-770 721,-770 721,-776 715,-782 709,-782"/>
<text text-anchor="start" x="628" y="-766.8" font-family="Helvetica,sans-Serif" font-size="14.00">cp ≤ 3.5</text>
<text text-anchor="start" x="605" y="-751.8" font-family="Helvetica,sans-Serif" font-size="14.00">entropy = 0.995</text>
<text text-anchor="start" x="608" y="-736.8" font-family="Helvetica,sans-Serif" font-size="14.00">samples = 118</text>
<text text-anchor="start" x="605.5" y="-721.8" font-family="Helvetica,sans-Serif" font-size="14.00">value = [64, 54]</text>
<text text-anchor="start" x="592" y="-706.8" font-family="Helvetica,sans-Serif" font-size="14.00">class = No Decease</text>
</g>
<!-- 1 -->
<g id="node2" class="node">
<title>1</title>
<path fill="#eca06a" stroke="black" d="M492,-663C492,-663 379,-663 379,-663 373,-663 367,-657 367,-651 367,-651 367,-592 367,-592 367,-586 373,-580 379,-580 379,-580 492,-580 492,-580 498,-580 504,-586 504,-592 504,-592 504,-651 504,-651 504,-657 498,-663 492,-663"/>
<text text-anchor="start" x="389" y="-647.8" font-family="Helvetica,sans-Serif" font-size="14.00">thalach ≤ 150.5</text>
<text text-anchor="start" x="388" y="-632.8" font-family="Helvetica,sans-Serif" font-size="14.00">entropy = 0.722</text>
<text text-anchor="start" x="394.5" y="-617.8" font-family="Helvetica,sans-Serif" font-size="14.00">samples = 65</text>
<text text-anchor="start" x="388.5" y="-602.8" font-family="Helvetica,sans-Serif" font-size="14.00">value = [52, 13]</text>
<text text-anchor="start" x="375" y="-587.8" font-family="Helvetica,sans-Serif" font-size="14.00">class = No Decease</text>
</g>
<!-- 0&#45;&gt;1 -->
<g id="edge1" class="edge">
<title>0&#45;&gt;1</title>
<path fill="none" stroke="black" d="M583.84,-702.48C561.37,-690.36 536.25,-676.82 513.16,-664.37"/>
<polygon fill="black" stroke="black" points="514.55,-661.14 504.09,-659.48 511.23,-667.31 514.55,-661.14"/>
<text text-anchor="middle" x="511.26" y="-679.73" font-family="Helvetica,sans-Serif" font-size="14.00">True</text>
</g>
<!-- 18 -->
<g id="node19" class="node">
<title>18</title>
<path fill="#73baed" stroke="black" d="M776.5,-663C776.5,-663 684.5,-663 684.5,-663 678.5,-663 672.5,-657 672.5,-651 672.5,-651 672.5,-592 672.5,-592 672.5,-586 678.5,-580 684.5,-580 684.5,-580 776.5,-580 776.5,-580 782.5,-580 788.5,-586 788.5,-592 788.5,-592 788.5,-651 788.5,-651 788.5,-657 782.5,-663 776.5,-663"/>
<text text-anchor="start" x="706" y="-647.8" font-family="Helvetica,sans-Serif" font-size="14.00">ca ≤ 0.5</text>
<text text-anchor="start" x="683" y="-632.8" font-family="Helvetica,sans-Serif" font-size="14.00">entropy = 0.772</text>
<text text-anchor="start" x="689.5" y="-617.8" font-family="Helvetica,sans-Serif" font-size="14.00">samples = 53</text>
<text text-anchor="start" x="683.5" y="-602.8" font-family="Helvetica,sans-Serif" font-size="14.00">value = [12, 41]</text>
<text text-anchor="start" x="680.5" y="-587.8" font-family="Helvetica,sans-Serif" font-size="14.00">class = Decease</text>
</g>
<!-- 0&#45;&gt;18 -->
<g id="edge18" class="edge">
<title>0&#45;&gt;18</title>
<path fill="none" stroke="black" d="M679.56,-698.91C685.43,-690.1 691.7,-680.7 697.76,-671.61"/>
<polygon fill="black" stroke="black" points="700.85,-673.28 703.49,-663.02 695.03,-669.4 700.85,-673.28"/>
<text text-anchor="middle" x="708.39" y="-683.84" font-family="Helvetica,sans-Serif" font-size="14.00">False</text>
</g>
<!-- 2 -->
<g id="node3" class="node">
<title>2</title>
<path fill="#c4e2f7" stroke="black" d="M259.5,-544C259.5,-544 167.5,-544 167.5,-544 161.5,-544 155.5,-538 155.5,-532 155.5,-532 155.5,-473 155.5,-473 155.5,-467 161.5,-461 167.5,-461 167.5,-461 259.5,-461 259.5,-461 265.5,-461 271.5,-467 271.5,-473 271.5,-473 271.5,-532 271.5,-532 271.5,-538 265.5,-544 259.5,-544"/>
<text text-anchor="start" x="186" y="-528.8" font-family="Helvetica,sans-Serif" font-size="14.00">sex ≤ 0.5</text>
<text text-anchor="start" x="166" y="-513.8" font-family="Helvetica,sans-Serif" font-size="14.00">entropy = 0.977</text>
<text text-anchor="start" x="172.5" y="-498.8" font-family="Helvetica,sans-Serif" font-size="14.00">samples = 17</text>
<text text-anchor="start" x="170.5" y="-483.8" font-family="Helvetica,sans-Serif" font-size="14.00">value = [7, 10]</text>
<text text-anchor="start" x="163.5" y="-468.8" font-family="Helvetica,sans-Serif" font-size="14.00">class = Decease</text>
</g>
<!-- 1&#45;&gt;2 -->
<g id="edge2" class="edge">
<title>1&#45;&gt;2</title>
<path fill="none" stroke="black" d="M366.78,-584.28C339.43,-569.87 308.07,-553.34 280.86,-539"/>
<polygon fill="black" stroke="black" points="282.28,-535.79 271.8,-534.23 279.02,-541.99 282.28,-535.79"/>
</g>
<!-- 11 -->
<g id="node12" class="node">
<title>11</title>
<path fill="#e78946" stroke="black" d="M492,-544C492,-544 379,-544 379,-544 373,-544 367,-538 367,-532 367,-532 367,-473 367,-473 367,-467 373,-461 379,-461 379,-461 492,-461 492,-461 498,-461 504,-467 504,-473 504,-473 504,-532 504,-532 504,-538 498,-544 492,-544"/>
<text text-anchor="start" x="394.5" y="-528.8" font-family="Helvetica,sans-Serif" font-size="14.00">oldpeak ≤ 1.3</text>
<text text-anchor="start" x="388" y="-513.8" font-family="Helvetica,sans-Serif" font-size="14.00">entropy = 0.337</text>
<text text-anchor="start" x="394.5" y="-498.8" font-family="Helvetica,sans-Serif" font-size="14.00">samples = 48</text>
<text text-anchor="start" x="392.5" y="-483.8" font-family="Helvetica,sans-Serif" font-size="14.00">value = [45, 3]</text>
<text text-anchor="start" x="375" y="-468.8" font-family="Helvetica,sans-Serif" font-size="14.00">class = No Decease</text>
</g>
<!-- 1&#45;&gt;11 -->
<g id="edge11" class="edge">
<title>1&#45;&gt;11</title>
<path fill="none" stroke="black" d="M435.5,-579.91C435.5,-571.65 435.5,-562.86 435.5,-554.3"/>
<polygon fill="black" stroke="black" points="439,-554.02 435.5,-544.02 432,-554.02 439,-554.02"/>
</g>
<!-- 3 -->
<g id="node4" class="node">
<title>3</title>
<path fill="#e58139" stroke="black" d="M125,-417.5C125,-417.5 12,-417.5 12,-417.5 6,-417.5 0,-411.5 0,-405.5 0,-405.5 0,-361.5 0,-361.5 0,-355.5 6,-349.5 12,-349.5 12,-349.5 125,-349.5 125,-349.5 131,-349.5 137,-355.5 137,-361.5 137,-361.5 137,-405.5 137,-405.5 137,-411.5 131,-417.5 125,-417.5"/>
<text text-anchor="start" x="28.5" y="-402.3" font-family="Helvetica,sans-Serif" font-size="14.00">entropy = 0.0</text>
<text text-anchor="start" x="31" y="-387.3" font-family="Helvetica,sans-Serif" font-size="14.00">samples = 4</text>
<text text-anchor="start" x="29" y="-372.3" font-family="Helvetica,sans-Serif" font-size="14.00">value = [4, 0]</text>
<text text-anchor="start" x="8" y="-357.3" font-family="Helvetica,sans-Serif" font-size="14.00">class = No Decease</text>
</g>
<!-- 2&#45;&gt;3 -->
<g id="edge3" class="edge">
<title>2&#45;&gt;3</title>
<path fill="none" stroke="black" d="M163.19,-460.91C148.42,-448.99 132.29,-435.98 117.6,-424.12"/>
<polygon fill="black" stroke="black" points="119.58,-421.22 109.6,-417.67 115.19,-426.67 119.58,-421.22"/>
</g>
<!-- 4 -->
<g id="node5" class="node">
<title>4</title>
<path fill="#74baed" stroke="black" d="M259.5,-425C259.5,-425 167.5,-425 167.5,-425 161.5,-425 155.5,-419 155.5,-413 155.5,-413 155.5,-354 155.5,-354 155.5,-348 161.5,-342 167.5,-342 167.5,-342 259.5,-342 259.5,-342 265.5,-342 271.5,-348 271.5,-354 271.5,-354 271.5,-413 271.5,-413 271.5,-419 265.5,-425 259.5,-425"/>
<text text-anchor="start" x="172.5" y="-409.8" font-family="Helvetica,sans-Serif" font-size="14.00">oldpeak ≤ 1.4</text>
<text text-anchor="start" x="166" y="-394.8" font-family="Helvetica,sans-Serif" font-size="14.00">entropy = 0.779</text>
<text text-anchor="start" x="172.5" y="-379.8" font-family="Helvetica,sans-Serif" font-size="14.00">samples = 13</text>
<text text-anchor="start" x="170.5" y="-364.8" font-family="Helvetica,sans-Serif" font-size="14.00">value = [3, 10]</text>
<text text-anchor="start" x="163.5" y="-349.8" font-family="Helvetica,sans-Serif" font-size="14.00">class = Decease</text>
</g>
<!-- 2&#45;&gt;4 -->
<g id="edge4" class="edge">
<title>2&#45;&gt;4</title>
<path fill="none" stroke="black" d="M213.5,-460.91C213.5,-452.65 213.5,-443.86 213.5,-435.3"/>
<polygon fill="black" stroke="black" points="217,-435.02 213.5,-425.02 210,-435.02 217,-435.02"/>
</g>
<!-- 5 -->
<g id="node6" class="node">
<title>5</title>
<path fill="#cee6f8" stroke="black" d="M130.5,-306C130.5,-306 38.5,-306 38.5,-306 32.5,-306 26.5,-300 26.5,-294 26.5,-294 26.5,-235 26.5,-235 26.5,-229 32.5,-223 38.5,-223 38.5,-223 130.5,-223 130.5,-223 136.5,-223 142.5,-229 142.5,-235 142.5,-235 142.5,-294 142.5,-294 142.5,-300 136.5,-306 130.5,-306"/>
<text text-anchor="start" x="38" y="-290.8" font-family="Helvetica,sans-Serif" font-size="14.00">thalach ≤ 128.5</text>
<text text-anchor="start" x="37" y="-275.8" font-family="Helvetica,sans-Serif" font-size="14.00">entropy = 0.985</text>
<text text-anchor="start" x="47" y="-260.8" font-family="Helvetica,sans-Serif" font-size="14.00">samples = 7</text>
<text text-anchor="start" x="45" y="-245.8" font-family="Helvetica,sans-Serif" font-size="14.00">value = [3, 4]</text>
<text text-anchor="start" x="34.5" y="-230.8" font-family="Helvetica,sans-Serif" font-size="14.00">class = Decease</text>
</g>
<!-- 4&#45;&gt;5 -->
<g id="edge5" class="edge">
<title>4&#45;&gt;5</title>
<path fill="none" stroke="black" d="M168.74,-341.91C158.44,-332.56 147.39,-322.54 136.79,-312.93"/>
<polygon fill="black" stroke="black" points="138.94,-310.15 129.18,-306.02 134.23,-315.33 138.94,-310.15"/>
</g>
<!-- 10 -->
<g id="node11" class="node">
<title>10</title>
<path fill="#399de5" stroke="black" d="M264.5,-298.5C264.5,-298.5 172.5,-298.5 172.5,-298.5 166.5,-298.5 160.5,-292.5 160.5,-286.5 160.5,-286.5 160.5,-242.5 160.5,-242.5 160.5,-236.5 166.5,-230.5 172.5,-230.5 172.5,-230.5 264.5,-230.5 264.5,-230.5 270.5,-230.5 276.5,-236.5 276.5,-242.5 276.5,-242.5 276.5,-286.5 276.5,-286.5 276.5,-292.5 270.5,-298.5 264.5,-298.5"/>
<text text-anchor="start" x="178.5" y="-283.3" font-family="Helvetica,sans-Serif" font-size="14.00">entropy = 0.0</text>
<text text-anchor="start" x="181" y="-268.3" font-family="Helvetica,sans-Serif" font-size="14.00">samples = 6</text>
<text text-anchor="start" x="179" y="-253.3" font-family="Helvetica,sans-Serif" font-size="14.00">value = [0, 6]</text>
<text text-anchor="start" x="168.5" y="-238.3" font-family="Helvetica,sans-Serif" font-size="14.00">class = Decease</text>
</g>
<!-- 4&#45;&gt;10 -->
<g id="edge10" class="edge">
<title>4&#45;&gt;10</title>
<path fill="none" stroke="black" d="M215.23,-341.91C215.69,-331.2 216.19,-319.62 216.65,-308.78"/>
<polygon fill="black" stroke="black" points="220.15,-308.81 217.08,-298.67 213.16,-308.51 220.15,-308.81"/>
</g>
<!-- 6 -->
<g id="node7" class="node">
<title>6</title>
<path fill="#399de5" stroke="black" d="M125.5,-179.5C125.5,-179.5 33.5,-179.5 33.5,-179.5 27.5,-179.5 21.5,-173.5 21.5,-167.5 21.5,-167.5 21.5,-123.5 21.5,-123.5 21.5,-117.5 27.5,-111.5 33.5,-111.5 33.5,-111.5 125.5,-111.5 125.5,-111.5 131.5,-111.5 137.5,-117.5 137.5,-123.5 137.5,-123.5 137.5,-167.5 137.5,-167.5 137.5,-173.5 131.5,-179.5 125.5,-179.5"/>
<text text-anchor="start" x="39.5" y="-164.3" font-family="Helvetica,sans-Serif" font-size="14.00">entropy = 0.0</text>
<text text-anchor="start" x="42" y="-149.3" font-family="Helvetica,sans-Serif" font-size="14.00">samples = 3</text>
<text text-anchor="start" x="40" y="-134.3" font-family="Helvetica,sans-Serif" font-size="14.00">value = [0, 3]</text>
<text text-anchor="start" x="29.5" y="-119.3" font-family="Helvetica,sans-Serif" font-size="14.00">class = Decease</text>
</g>
<!-- 5&#45;&gt;6 -->
<g id="edge6" class="edge">
<title>5&#45;&gt;6</title>
<path fill="none" stroke="black" d="M82.77,-222.91C82.31,-212.2 81.81,-200.62 81.35,-189.78"/>
<polygon fill="black" stroke="black" points="84.84,-189.51 80.92,-179.67 77.85,-189.81 84.84,-189.51"/>
</g>
<!-- 7 -->
<g id="node8" class="node">
<title>7</title>
<path fill="#eeab7b" stroke="black" d="M281,-187C281,-187 168,-187 168,-187 162,-187 156,-181 156,-175 156,-175 156,-116 156,-116 156,-110 162,-104 168,-104 168,-104 281,-104 281,-104 287,-104 293,-110 293,-116 293,-116 293,-175 293,-175 293,-181 287,-187 281,-187"/>
<text text-anchor="start" x="178" y="-171.8" font-family="Helvetica,sans-Serif" font-size="14.00">thalach ≤ 143.5</text>
<text text-anchor="start" x="177.5" y="-156.8" font-family="Helvetica,sans-Serif" font-size="14.00">entropy = 0.811</text>
<text text-anchor="start" x="187" y="-141.8" font-family="Helvetica,sans-Serif" font-size="14.00">samples = 4</text>
<text text-anchor="start" x="185" y="-126.8" font-family="Helvetica,sans-Serif" font-size="14.00">value = [3, 1]</text>
<text text-anchor="start" x="164" y="-111.8" font-family="Helvetica,sans-Serif" font-size="14.00">class = No Decease</text>
</g>
<!-- 5&#45;&gt;7 -->
<g id="edge7" class="edge">
<title>5&#45;&gt;7</title>
<path fill="none" stroke="black" d="M133.07,-222.91C144.37,-213.47 156.48,-203.34 168.08,-193.65"/>
<polygon fill="black" stroke="black" points="170.58,-196.12 176.01,-187.02 166.1,-190.75 170.58,-196.12"/>
</g>
<!-- 8 -->
<g id="node9" class="node">
<title>8</title>
<path fill="#e58139" stroke="black" d="M209,-68C209,-68 96,-68 96,-68 90,-68 84,-62 84,-56 84,-56 84,-12 84,-12 84,-6 90,0 96,0 96,0 209,0 209,0 215,0 221,-6 221,-12 221,-12 221,-56 221,-56 221,-62 215,-68 209,-68"/>
<text text-anchor="start" x="112.5" y="-52.8" font-family="Helvetica,sans-Serif" font-size="14.00">entropy = 0.0</text>
<text text-anchor="start" x="115" y="-37.8" font-family="Helvetica,sans-Serif" font-size="14.00">samples = 3</text>
<text text-anchor="start" x="113" y="-22.8" font-family="Helvetica,sans-Serif" font-size="14.00">value = [3, 0]</text>
<text text-anchor="start" x="92" y="-7.8" font-family="Helvetica,sans-Serif" font-size="14.00">class = No Decease</text>
</g>
<!-- 7&#45;&gt;8 -->
<g id="edge8" class="edge">
<title>7&#45;&gt;8</title>
<path fill="none" stroke="black" d="M197.69,-103.73C191.93,-94.97 185.84,-85.7 180.05,-76.91"/>
<polygon fill="black" stroke="black" points="182.81,-74.73 174.4,-68.3 176.97,-78.58 182.81,-74.73"/>
</g>
<!-- 9 -->
<g id="node10" class="node">
<title>9</title>
<path fill="#399de5" stroke="black" d="M343.5,-68C343.5,-68 251.5,-68 251.5,-68 245.5,-68 239.5,-62 239.5,-56 239.5,-56 239.5,-12 239.5,-12 239.5,-6 245.5,0 251.5,0 251.5,0 343.5,0 343.5,0 349.5,0 355.5,-6 355.5,-12 355.5,-12 355.5,-56 355.5,-56 355.5,-62 349.5,-68 343.5,-68"/>
<text text-anchor="start" x="257.5" y="-52.8" font-family="Helvetica,sans-Serif" font-size="14.00">entropy = 0.0</text>
<text text-anchor="start" x="260" y="-37.8" font-family="Helvetica,sans-Serif" font-size="14.00">samples = 1</text>
<text text-anchor="start" x="258" y="-22.8" font-family="Helvetica,sans-Serif" font-size="14.00">value = [0, 1]</text>
<text text-anchor="start" x="247.5" y="-7.8" font-family="Helvetica,sans-Serif" font-size="14.00">class = Decease</text>
</g>
<!-- 7&#45;&gt;9 -->
<g id="edge9" class="edge">
<title>7&#45;&gt;9</title>
<path fill="none" stroke="black" d="M251.68,-103.73C257.58,-94.88 263.83,-85.51 269.75,-76.63"/>
<polygon fill="black" stroke="black" points="272.67,-78.56 275.3,-68.3 266.84,-74.68 272.67,-78.56"/>
</g>
<!-- 12 -->
<g id="node13" class="node">
<title>12</title>
<path fill="#e58139" stroke="black" d="M415,-417.5C415,-417.5 302,-417.5 302,-417.5 296,-417.5 290,-411.5 290,-405.5 290,-405.5 290,-361.5 290,-361.5 290,-355.5 296,-349.5 302,-349.5 302,-349.5 415,-349.5 415,-349.5 421,-349.5 427,-355.5 427,-361.5 427,-361.5 427,-405.5 427,-405.5 427,-411.5 421,-417.5 415,-417.5"/>
<text text-anchor="start" x="318.5" y="-402.3" font-family="Helvetica,sans-Serif" font-size="14.00">entropy = 0.0</text>
<text text-anchor="start" x="317.5" y="-387.3" font-family="Helvetica,sans-Serif" font-size="14.00">samples = 37</text>
<text text-anchor="start" x="315.5" y="-372.3" font-family="Helvetica,sans-Serif" font-size="14.00">value = [37, 0]</text>
<text text-anchor="start" x="298" y="-357.3" font-family="Helvetica,sans-Serif" font-size="14.00">class = No Decease</text>
</g>
<!-- 11&#45;&gt;12 -->
<g id="edge12" class="edge">
<title>11&#45;&gt;12</title>
<path fill="none" stroke="black" d="M408.79,-460.91C401.38,-449.65 393.33,-437.42 385.88,-426.11"/>
<polygon fill="black" stroke="black" points="388.75,-424.1 380.33,-417.67 382.9,-427.94 388.75,-424.1"/>
</g>
<!-- 13 -->
<g id="node14" class="node">
<title>13</title>
<path fill="#efb083" stroke="black" d="M570,-425C570,-425 457,-425 457,-425 451,-425 445,-419 445,-413 445,-413 445,-354 445,-354 445,-348 451,-342 457,-342 457,-342 570,-342 570,-342 576,-342 582,-348 582,-354 582,-354 582,-413 582,-413 582,-419 576,-425 570,-425"/>
<text text-anchor="start" x="481.5" y="-409.8" font-family="Helvetica,sans-Serif" font-size="14.00">age ≤ 57.0</text>
<text text-anchor="start" x="466" y="-394.8" font-family="Helvetica,sans-Serif" font-size="14.00">entropy = 0.845</text>
<text text-anchor="start" x="472.5" y="-379.8" font-family="Helvetica,sans-Serif" font-size="14.00">samples = 11</text>
<text text-anchor="start" x="474" y="-364.8" font-family="Helvetica,sans-Serif" font-size="14.00">value = [8, 3]</text>
<text text-anchor="start" x="453" y="-349.8" font-family="Helvetica,sans-Serif" font-size="14.00">class = No Decease</text>
</g>
<!-- 11&#45;&gt;13 -->
<g id="edge13" class="edge">
<title>11&#45;&gt;13</title>
<path fill="none" stroke="black" d="M462.56,-460.91C468.43,-452.1 474.7,-442.7 480.76,-433.61"/>
<polygon fill="black" stroke="black" points="483.85,-435.28 486.49,-425.02 478.03,-431.4 483.85,-435.28"/>
</g>
<!-- 14 -->
<g id="node15" class="node">
<title>14</title>
<path fill="#e58139" stroke="black" d="M425,-298.5C425,-298.5 312,-298.5 312,-298.5 306,-298.5 300,-292.5 300,-286.5 300,-286.5 300,-242.5 300,-242.5 300,-236.5 306,-230.5 312,-230.5 312,-230.5 425,-230.5 425,-230.5 431,-230.5 437,-236.5 437,-242.5 437,-242.5 437,-286.5 437,-286.5 437,-292.5 431,-298.5 425,-298.5"/>
<text text-anchor="start" x="328.5" y="-283.3" font-family="Helvetica,sans-Serif" font-size="14.00">entropy = 0.0</text>
<text text-anchor="start" x="331" y="-268.3" font-family="Helvetica,sans-Serif" font-size="14.00">samples = 6</text>
<text text-anchor="start" x="329" y="-253.3" font-family="Helvetica,sans-Serif" font-size="14.00">value = [6, 0]</text>
<text text-anchor="start" x="308" y="-238.3" font-family="Helvetica,sans-Serif" font-size="14.00">class = No Decease</text>
</g>
<!-- 13&#45;&gt;14 -->
<g id="edge14" class="edge">
<title>13&#45;&gt;14</title>
<path fill="none" stroke="black" d="M463.19,-341.91C448.42,-329.99 432.29,-316.98 417.6,-305.12"/>
<polygon fill="black" stroke="black" points="419.58,-302.22 409.6,-298.67 415.19,-307.67 419.58,-302.22"/>
</g>
<!-- 15 -->
<g id="node16" class="node">
<title>15</title>
<path fill="#bddef6" stroke="black" d="M559.5,-306C559.5,-306 467.5,-306 467.5,-306 461.5,-306 455.5,-300 455.5,-294 455.5,-294 455.5,-235 455.5,-235 455.5,-229 461.5,-223 467.5,-223 467.5,-223 559.5,-223 559.5,-223 565.5,-223 571.5,-229 571.5,-235 571.5,-235 571.5,-294 571.5,-294 571.5,-300 565.5,-306 559.5,-306"/>
<text text-anchor="start" x="481.5" y="-290.8" font-family="Helvetica,sans-Serif" font-size="14.00">age ≤ 66.0</text>
<text text-anchor="start" x="466" y="-275.8" font-family="Helvetica,sans-Serif" font-size="14.00">entropy = 0.971</text>
<text text-anchor="start" x="476" y="-260.8" font-family="Helvetica,sans-Serif" font-size="14.00">samples = 5</text>
<text text-anchor="start" x="474" y="-245.8" font-family="Helvetica,sans-Serif" font-size="14.00">value = [2, 3]</text>
<text text-anchor="start" x="463.5" y="-230.8" font-family="Helvetica,sans-Serif" font-size="14.00">class = Decease</text>
</g>
<!-- 13&#45;&gt;15 -->
<g id="edge15" class="edge">
<title>13&#45;&gt;15</title>
<path fill="none" stroke="black" d="M513.5,-341.91C513.5,-333.65 513.5,-324.86 513.5,-316.3"/>
<polygon fill="black" stroke="black" points="517,-316.02 513.5,-306.02 510,-316.02 517,-316.02"/>
</g>
<!-- 16 -->
<g id="node17" class="node">
<title>16</title>
<path fill="#399de5" stroke="black" d="M474.5,-179.5C474.5,-179.5 382.5,-179.5 382.5,-179.5 376.5,-179.5 370.5,-173.5 370.5,-167.5 370.5,-167.5 370.5,-123.5 370.5,-123.5 370.5,-117.5 376.5,-111.5 382.5,-111.5 382.5,-111.5 474.5,-111.5 474.5,-111.5 480.5,-111.5 486.5,-117.5 486.5,-123.5 486.5,-123.5 486.5,-167.5 486.5,-167.5 486.5,-173.5 480.5,-179.5 474.5,-179.5"/>
<text text-anchor="start" x="388.5" y="-164.3" font-family="Helvetica,sans-Serif" font-size="14.00">entropy = 0.0</text>
<text text-anchor="start" x="391" y="-149.3" font-family="Helvetica,sans-Serif" font-size="14.00">samples = 3</text>
<text text-anchor="start" x="389" y="-134.3" font-family="Helvetica,sans-Serif" font-size="14.00">value = [0, 3]</text>
<text text-anchor="start" x="378.5" y="-119.3" font-family="Helvetica,sans-Serif" font-size="14.00">class = Decease</text>
</g>
<!-- 15&#45;&gt;16 -->
<g id="edge16" class="edge">
<title>15&#45;&gt;16</title>
<path fill="none" stroke="black" d="M484.01,-222.91C475.75,-211.54 466.77,-199.18 458.49,-187.77"/>
<polygon fill="black" stroke="black" points="461.3,-185.7 452.6,-179.67 455.64,-189.81 461.3,-185.7"/>
</g>
<!-- 17 -->
<g id="node18" class="node">
<title>17</title>
<path fill="#e58139" stroke="black" d="M630,-179.5C630,-179.5 517,-179.5 517,-179.5 511,-179.5 505,-173.5 505,-167.5 505,-167.5 505,-123.5 505,-123.5 505,-117.5 511,-111.5 517,-111.5 517,-111.5 630,-111.5 630,-111.5 636,-111.5 642,-117.5 642,-123.5 642,-123.5 642,-167.5 642,-167.5 642,-173.5 636,-179.5 630,-179.5"/>
<text text-anchor="start" x="533.5" y="-164.3" font-family="Helvetica,sans-Serif" font-size="14.00">entropy = 0.0</text>
<text text-anchor="start" x="536" y="-149.3" font-family="Helvetica,sans-Serif" font-size="14.00">samples = 2</text>
<text text-anchor="start" x="534" y="-134.3" font-family="Helvetica,sans-Serif" font-size="14.00">value = [2, 0]</text>
<text text-anchor="start" x="513" y="-119.3" font-family="Helvetica,sans-Serif" font-size="14.00">class = No Decease</text>
</g>
<!-- 15&#45;&gt;17 -->
<g id="edge17" class="edge">
<title>15&#45;&gt;17</title>
<path fill="none" stroke="black" d="M534.32,-222.91C539.98,-211.87 546.12,-199.9 551.82,-188.77"/>
<polygon fill="black" stroke="black" points="555.04,-190.16 556.49,-179.67 548.81,-186.97 555.04,-190.16"/>
</g>
<!-- 19 -->
<g id="node20" class="node">
<title>19</title>
<path fill="#f0f7fd" stroke="black" d="M776.5,-544C776.5,-544 684.5,-544 684.5,-544 678.5,-544 672.5,-538 672.5,-532 672.5,-532 672.5,-473 672.5,-473 672.5,-467 678.5,-461 684.5,-461 684.5,-461 776.5,-461 776.5,-461 782.5,-461 788.5,-467 788.5,-473 788.5,-473 788.5,-532 788.5,-532 788.5,-538 782.5,-544 776.5,-544"/>
<text text-anchor="start" x="702.5" y="-528.8" font-family="Helvetica,sans-Serif" font-size="14.00">thal ≤ 4.5</text>
<text text-anchor="start" x="683" y="-513.8" font-family="Helvetica,sans-Serif" font-size="14.00">entropy = 0.999</text>
<text text-anchor="start" x="689.5" y="-498.8" font-family="Helvetica,sans-Serif" font-size="14.00">samples = 25</text>
<text text-anchor="start" x="683.5" y="-483.8" font-family="Helvetica,sans-Serif" font-size="14.00">value = [12, 13]</text>
<text text-anchor="start" x="680.5" y="-468.8" font-family="Helvetica,sans-Serif" font-size="14.00">class = Decease</text>
</g>
<!-- 18&#45;&gt;19 -->
<g id="edge19" class="edge">
<title>18&#45;&gt;19</title>
<path fill="none" stroke="black" d="M730.5,-579.91C730.5,-571.65 730.5,-562.86 730.5,-554.3"/>
<polygon fill="black" stroke="black" points="734,-554.02 730.5,-544.02 727,-554.02 734,-554.02"/>
</g>
<!-- 30 -->
<g id="node31" class="node">
<title>30</title>
<path fill="#399de5" stroke="black" d="M910.5,-536.5C910.5,-536.5 818.5,-536.5 818.5,-536.5 812.5,-536.5 806.5,-530.5 806.5,-524.5 806.5,-524.5 806.5,-480.5 806.5,-480.5 806.5,-474.5 812.5,-468.5 818.5,-468.5 818.5,-468.5 910.5,-468.5 910.5,-468.5 916.5,-468.5 922.5,-474.5 922.5,-480.5 922.5,-480.5 922.5,-524.5 922.5,-524.5 922.5,-530.5 916.5,-536.5 910.5,-536.5"/>
<text text-anchor="start" x="824.5" y="-521.3" font-family="Helvetica,sans-Serif" font-size="14.00">entropy = 0.0</text>
<text text-anchor="start" x="823.5" y="-506.3" font-family="Helvetica,sans-Serif" font-size="14.00">samples = 28</text>
<text text-anchor="start" x="821.5" y="-491.3" font-family="Helvetica,sans-Serif" font-size="14.00">value = [0, 28]</text>
<text text-anchor="start" x="814.5" y="-476.3" font-family="Helvetica,sans-Serif" font-size="14.00">class = Decease</text>
</g>
<!-- 18&#45;&gt;30 -->
<g id="edge30" class="edge">
<title>18&#45;&gt;30</title>
<path fill="none" stroke="black" d="M776.99,-579.91C790.51,-568.1 805.27,-555.22 818.75,-543.45"/>
<polygon fill="black" stroke="black" points="821.28,-545.88 826.51,-536.67 816.68,-540.61 821.28,-545.88"/>
</g>
<!-- 20 -->
<g id="node21" class="node">
<title>20</title>
<path fill="#eb9d65" stroke="black" d="M787,-425C787,-425 674,-425 674,-425 668,-425 662,-419 662,-413 662,-413 662,-354 662,-354 662,-348 668,-342 674,-342 674,-342 787,-342 787,-342 793,-342 799,-348 799,-354 799,-354 799,-413 799,-413 799,-419 793,-425 787,-425"/>
<text text-anchor="start" x="693.5" y="-409.8" font-family="Helvetica,sans-Serif" font-size="14.00">chol ≤ 295.5</text>
<text text-anchor="start" x="683" y="-394.8" font-family="Helvetica,sans-Serif" font-size="14.00">entropy = 0.684</text>
<text text-anchor="start" x="689.5" y="-379.8" font-family="Helvetica,sans-Serif" font-size="14.00">samples = 11</text>
<text text-anchor="start" x="691" y="-364.8" font-family="Helvetica,sans-Serif" font-size="14.00">value = [9, 2]</text>
<text text-anchor="start" x="670" y="-349.8" font-family="Helvetica,sans-Serif" font-size="14.00">class = No Decease</text>
</g>
<!-- 19&#45;&gt;20 -->
<g id="edge20" class="edge">
<title>19&#45;&gt;20</title>
<path fill="none" stroke="black" d="M730.5,-460.91C730.5,-452.65 730.5,-443.86 730.5,-435.3"/>
<polygon fill="black" stroke="black" points="734,-435.02 730.5,-425.02 727,-435.02 734,-435.02"/>
</g>
<!-- 25 -->
<g id="node26" class="node">
<title>25</title>
<path fill="#6fb8ec" stroke="black" d="M983.5,-425C983.5,-425 891.5,-425 891.5,-425 885.5,-425 879.5,-419 879.5,-413 879.5,-413 879.5,-354 879.5,-354 879.5,-348 885.5,-342 891.5,-342 891.5,-342 983.5,-342 983.5,-342 989.5,-342 995.5,-348 995.5,-354 995.5,-354 995.5,-413 995.5,-413 995.5,-419 989.5,-425 983.5,-425"/>
<text text-anchor="start" x="905.5" y="-409.8" font-family="Helvetica,sans-Serif" font-size="14.00">age ≤ 52.0</text>
<text text-anchor="start" x="893.5" y="-394.8" font-family="Helvetica,sans-Serif" font-size="14.00">entropy = 0.75</text>
<text text-anchor="start" x="896.5" y="-379.8" font-family="Helvetica,sans-Serif" font-size="14.00">samples = 14</text>
<text text-anchor="start" x="895" y="-364.8" font-family="Helvetica,sans-Serif" font-size="14.00">value = [3, 11]</text>
<text text-anchor="start" x="887.5" y="-349.8" font-family="Helvetica,sans-Serif" font-size="14.00">class = Decease</text>
</g>
<!-- 19&#45;&gt;25 -->
<g id="edge25" class="edge">
<title>19&#45;&gt;25</title>
<path fill="none" stroke="black" d="M788.51,-466.22C791.55,-464.44 794.55,-462.69 797.5,-461 821.03,-447.47 847.06,-433.09 870.22,-420.49"/>
<polygon fill="black" stroke="black" points="872.17,-423.42 879.29,-415.57 868.83,-417.27 872.17,-423.42"/>
</g>
<!-- 21 -->
<g id="node22" class="node">
<title>21</title>
<path fill="#e58139" stroke="black" d="M715,-298.5C715,-298.5 602,-298.5 602,-298.5 596,-298.5 590,-292.5 590,-286.5 590,-286.5 590,-242.5 590,-242.5 590,-236.5 596,-230.5 602,-230.5 602,-230.5 715,-230.5 715,-230.5 721,-230.5 727,-236.5 727,-242.5 727,-242.5 727,-286.5 727,-286.5 727,-292.5 721,-298.5 715,-298.5"/>
<text text-anchor="start" x="618.5" y="-283.3" font-family="Helvetica,sans-Serif" font-size="14.00">entropy = 0.0</text>
<text text-anchor="start" x="621" y="-268.3" font-family="Helvetica,sans-Serif" font-size="14.00">samples = 8</text>
<text text-anchor="start" x="619" y="-253.3" font-family="Helvetica,sans-Serif" font-size="14.00">value = [8, 0]</text>
<text text-anchor="start" x="598" y="-238.3" font-family="Helvetica,sans-Serif" font-size="14.00">class = No Decease</text>
</g>
<!-- 20&#45;&gt;21 -->
<g id="edge21" class="edge">
<title>20&#45;&gt;21</title>
<path fill="none" stroke="black" d="M705.52,-341.91C698.66,-330.76 691.21,-318.66 684.31,-307.44"/>
<polygon fill="black" stroke="black" points="687.13,-305.35 678.91,-298.67 681.17,-309.02 687.13,-305.35"/>
</g>
<!-- 22 -->
<g id="node23" class="node">
<title>22</title>
<path fill="#9ccef2" stroke="black" d="M849.5,-306C849.5,-306 757.5,-306 757.5,-306 751.5,-306 745.5,-300 745.5,-294 745.5,-294 745.5,-235 745.5,-235 745.5,-229 751.5,-223 757.5,-223 757.5,-223 849.5,-223 849.5,-223 855.5,-223 861.5,-229 861.5,-235 861.5,-235 861.5,-294 861.5,-294 861.5,-300 855.5,-306 849.5,-306"/>
<text text-anchor="start" x="766.5" y="-290.8" font-family="Helvetica,sans-Serif" font-size="14.00">chol ≤ 342.0</text>
<text text-anchor="start" x="756" y="-275.8" font-family="Helvetica,sans-Serif" font-size="14.00">entropy = 0.918</text>
<text text-anchor="start" x="766" y="-260.8" font-family="Helvetica,sans-Serif" font-size="14.00">samples = 3</text>
<text text-anchor="start" x="764" y="-245.8" font-family="Helvetica,sans-Serif" font-size="14.00">value = [1, 2]</text>
<text text-anchor="start" x="753.5" y="-230.8" font-family="Helvetica,sans-Serif" font-size="14.00">class = Decease</text>
</g>
<!-- 20&#45;&gt;22 -->
<g id="edge22" class="edge">
<title>20&#45;&gt;22</title>
<path fill="none" stroke="black" d="M755.83,-341.91C761.32,-333.1 767.19,-323.7 772.86,-314.61"/>
<polygon fill="black" stroke="black" points="775.89,-316.36 778.22,-306.02 769.95,-312.65 775.89,-316.36"/>
</g>
<!-- 23 -->
<g id="node24" class="node">
<title>23</title>
<path fill="#399de5" stroke="black" d="M793.5,-179.5C793.5,-179.5 701.5,-179.5 701.5,-179.5 695.5,-179.5 689.5,-173.5 689.5,-167.5 689.5,-167.5 689.5,-123.5 689.5,-123.5 689.5,-117.5 695.5,-111.5 701.5,-111.5 701.5,-111.5 793.5,-111.5 793.5,-111.5 799.5,-111.5 805.5,-117.5 805.5,-123.5 805.5,-123.5 805.5,-167.5 805.5,-167.5 805.5,-173.5 799.5,-179.5 793.5,-179.5"/>
<text text-anchor="start" x="707.5" y="-164.3" font-family="Helvetica,sans-Serif" font-size="14.00">entropy = 0.0</text>
<text text-anchor="start" x="710" y="-149.3" font-family="Helvetica,sans-Serif" font-size="14.00">samples = 2</text>
<text text-anchor="start" x="708" y="-134.3" font-family="Helvetica,sans-Serif" font-size="14.00">value = [0, 2]</text>
<text text-anchor="start" x="697.5" y="-119.3" font-family="Helvetica,sans-Serif" font-size="14.00">class = Decease</text>
</g>
<!-- 22&#45;&gt;23 -->
<g id="edge23" class="edge">
<title>22&#45;&gt;23</title>
<path fill="none" stroke="black" d="M784.07,-222.91C778.79,-211.87 773.06,-199.9 767.73,-188.77"/>
<polygon fill="black" stroke="black" points="770.85,-187.18 763.37,-179.67 764.54,-190.2 770.85,-187.18"/>
</g>
<!-- 24 -->
<g id="node25" class="node">
<title>24</title>
<path fill="#e58139" stroke="black" d="M949,-179.5C949,-179.5 836,-179.5 836,-179.5 830,-179.5 824,-173.5 824,-167.5 824,-167.5 824,-123.5 824,-123.5 824,-117.5 830,-111.5 836,-111.5 836,-111.5 949,-111.5 949,-111.5 955,-111.5 961,-117.5 961,-123.5 961,-123.5 961,-167.5 961,-167.5 961,-173.5 955,-179.5 949,-179.5"/>
<text text-anchor="start" x="852.5" y="-164.3" font-family="Helvetica,sans-Serif" font-size="14.00">entropy = 0.0</text>
<text text-anchor="start" x="855" y="-149.3" font-family="Helvetica,sans-Serif" font-size="14.00">samples = 1</text>
<text text-anchor="start" x="853" y="-134.3" font-family="Helvetica,sans-Serif" font-size="14.00">value = [1, 0]</text>
<text text-anchor="start" x="832" y="-119.3" font-family="Helvetica,sans-Serif" font-size="14.00">class = No Decease</text>
</g>
<!-- 22&#45;&gt;24 -->
<g id="edge24" class="edge">
<title>22&#45;&gt;24</title>
<path fill="none" stroke="black" d="M834.38,-222.91C843.02,-211.54 852.43,-199.18 861.1,-187.77"/>
<polygon fill="black" stroke="black" points="864,-189.74 867.27,-179.67 858.43,-185.51 864,-189.74"/>
</g>
<!-- 26 -->
<g id="node27" class="node">
<title>26</title>
<path fill="#399de5" stroke="black" d="M983.5,-298.5C983.5,-298.5 891.5,-298.5 891.5,-298.5 885.5,-298.5 879.5,-292.5 879.5,-286.5 879.5,-286.5 879.5,-242.5 879.5,-242.5 879.5,-236.5 885.5,-230.5 891.5,-230.5 891.5,-230.5 983.5,-230.5 983.5,-230.5 989.5,-230.5 995.5,-236.5 995.5,-242.5 995.5,-242.5 995.5,-286.5 995.5,-286.5 995.5,-292.5 989.5,-298.5 983.5,-298.5"/>
<text text-anchor="start" x="897.5" y="-283.3" font-family="Helvetica,sans-Serif" font-size="14.00">entropy = 0.0</text>
<text text-anchor="start" x="900" y="-268.3" font-family="Helvetica,sans-Serif" font-size="14.00">samples = 9</text>
<text text-anchor="start" x="898" y="-253.3" font-family="Helvetica,sans-Serif" font-size="14.00">value = [0, 9]</text>
<text text-anchor="start" x="887.5" y="-238.3" font-family="Helvetica,sans-Serif" font-size="14.00">class = Decease</text>
</g>
<!-- 25&#45;&gt;26 -->
<g id="edge26" class="edge">
<title>25&#45;&gt;26</title>
<path fill="none" stroke="black" d="M937.5,-341.91C937.5,-331.2 937.5,-319.62 937.5,-308.78"/>
<polygon fill="black" stroke="black" points="941,-308.67 937.5,-298.67 934,-308.67 941,-308.67"/>
</g>
<!-- 27 -->
<g id="node28" class="node">
<title>27</title>
<path fill="#f6d5bd" stroke="black" d="M1139,-306C1139,-306 1026,-306 1026,-306 1020,-306 1014,-300 1014,-294 1014,-294 1014,-235 1014,-235 1014,-229 1020,-223 1026,-223 1026,-223 1139,-223 1139,-223 1145,-223 1151,-229 1151,-235 1151,-235 1151,-294 1151,-294 1151,-300 1145,-306 1139,-306"/>
<text text-anchor="start" x="1041.5" y="-290.8" font-family="Helvetica,sans-Serif" font-size="14.00">oldpeak ≤ 2.3</text>
<text text-anchor="start" x="1035" y="-275.8" font-family="Helvetica,sans-Serif" font-size="14.00">entropy = 0.971</text>
<text text-anchor="start" x="1045" y="-260.8" font-family="Helvetica,sans-Serif" font-size="14.00">samples = 5</text>
<text text-anchor="start" x="1043" y="-245.8" font-family="Helvetica,sans-Serif" font-size="14.00">value = [3, 2]</text>
<text text-anchor="start" x="1022" y="-230.8" font-family="Helvetica,sans-Serif" font-size="14.00">class = No Decease</text>
</g>
<!-- 25&#45;&gt;27 -->
<g id="edge27" class="edge">
<title>25&#45;&gt;27</title>
<path fill="none" stroke="black" d="M987.81,-341.91C999.62,-332.38 1012.29,-322.15 1024.41,-312.37"/>
<polygon fill="black" stroke="black" points="1026.7,-315.02 1032.28,-306.02 1022.3,-309.58 1026.7,-315.02"/>
</g>
<!-- 28 -->
<g id="node29" class="node">
<title>28</title>
<path fill="#e58139" stroke="black" d="M1119,-179.5C1119,-179.5 1006,-179.5 1006,-179.5 1000,-179.5 994,-173.5 994,-167.5 994,-167.5 994,-123.5 994,-123.5 994,-117.5 1000,-111.5 1006,-111.5 1006,-111.5 1119,-111.5 1119,-111.5 1125,-111.5 1131,-117.5 1131,-123.5 1131,-123.5 1131,-167.5 1131,-167.5 1131,-173.5 1125,-179.5 1119,-179.5"/>
<text text-anchor="start" x="1022.5" y="-164.3" font-family="Helvetica,sans-Serif" font-size="14.00">entropy = 0.0</text>
<text text-anchor="start" x="1025" y="-149.3" font-family="Helvetica,sans-Serif" font-size="14.00">samples = 3</text>
<text text-anchor="start" x="1023" y="-134.3" font-family="Helvetica,sans-Serif" font-size="14.00">value = [3, 0]</text>
<text text-anchor="start" x="1002" y="-119.3" font-family="Helvetica,sans-Serif" font-size="14.00">class = No Decease</text>
</g>
<!-- 27&#45;&gt;28 -->
<g id="edge28" class="edge">
<title>27&#45;&gt;28</title>
<path fill="none" stroke="black" d="M1075.56,-222.91C1073.73,-212.2 1071.75,-200.62 1069.9,-189.78"/>
<polygon fill="black" stroke="black" points="1073.3,-188.93 1068.17,-179.67 1066.4,-190.11 1073.3,-188.93"/>
</g>
<!-- 29 -->
<g id="node30" class="node">
<title>29</title>
<path fill="#399de5" stroke="black" d="M1253.5,-179.5C1253.5,-179.5 1161.5,-179.5 1161.5,-179.5 1155.5,-179.5 1149.5,-173.5 1149.5,-167.5 1149.5,-167.5 1149.5,-123.5 1149.5,-123.5 1149.5,-117.5 1155.5,-111.5 1161.5,-111.5 1161.5,-111.5 1253.5,-111.5 1253.5,-111.5 1259.5,-111.5 1265.5,-117.5 1265.5,-123.5 1265.5,-123.5 1265.5,-167.5 1265.5,-167.5 1265.5,-173.5 1259.5,-179.5 1253.5,-179.5"/>
<text text-anchor="start" x="1167.5" y="-164.3" font-family="Helvetica,sans-Serif" font-size="14.00">entropy = 0.0</text>
<text text-anchor="start" x="1170" y="-149.3" font-family="Helvetica,sans-Serif" font-size="14.00">samples = 2</text>
<text text-anchor="start" x="1168" y="-134.3" font-family="Helvetica,sans-Serif" font-size="14.00">value = [0, 2]</text>
<text text-anchor="start" x="1157.5" y="-119.3" font-family="Helvetica,sans-Serif" font-size="14.00">class = Decease</text>
</g>
<!-- 27&#45;&gt;29 -->
<g id="edge29" class="edge">
<title>27&#45;&gt;29</title>
<path fill="none" stroke="black" d="M1125.87,-222.91C1138.36,-211.21 1151.99,-198.46 1164.47,-186.78"/>
<polygon fill="black" stroke="black" points="1167.16,-189.06 1172.07,-179.67 1162.37,-183.95 1167.16,-189.06"/>
</g>
</g>
</svg>
