<?xml version="1.0" encoding="UTF-8" standalone="no"?>
<!DOCTYPE svg PUBLIC "-//W3C//DTD SVG 1.1//EN"
 "http://www.w3.org/Graphics/SVG/1.1/DTD/svg11.dtd">
<!-- Generated by graphviz version 2.50.0 (0)
 -->
<!-- Title: Tree Pages: 1 -->
<svg width="1374pt" height="939pt"
 viewBox="0.00 0.00 1373.50 939.00" xmlns="http://www.w3.org/2000/svg" xmlns:xlink="http://www.w3.org/1999/xlink">
<g id="graph0" class="graph" transform="scale(1 1) rotate(0) translate(4 935)">
<title>Tree</title>
<polygon fill="white" stroke="transparent" points="-4,4 -4,-935 1369.5,-935 1369.5,4 -4,4"/>
<text text-anchor="middle" x="682.75" y="-911" font-family="Times New Roman,serif" font-size="20.00">Heart Disease Train/Test 40/60</text>
<!-- 0 -->
<g id="node1" class="node">
<title>0</title>
<path fill="#fbebe0" stroke="black" d="M891,-901C891,-901 778,-901 778,-901 772,-901 766,-895 766,-889 766,-889 766,-830 766,-830 766,-824 772,-818 778,-818 778,-818 891,-818 891,-818 897,-818 903,-824 903,-830 903,-830 903,-889 903,-889 903,-895 897,-901 891,-901"/>
<text text-anchor="start" x="806.5" y="-885.8" font-family="Helvetica,sans-Serif" font-size="14.00">thal ≤ 4.5</text>
<text text-anchor="start" x="787" y="-870.8" font-family="Helvetica,sans-Serif" font-size="14.00">entropy = 0.995</text>
<text text-anchor="start" x="790" y="-855.8" font-family="Helvetica,sans-Serif" font-size="14.00">samples = 118</text>
<text text-anchor="start" x="787.5" y="-840.8" font-family="Helvetica,sans-Serif" font-size="14.00">value = [64, 54]</text>
<text text-anchor="start" x="774" y="-825.8" font-family="Helvetica,sans-Serif" font-size="14.00">class = No Decease</text>
</g>
<!-- 1 -->
<g id="node2" class="node">
<title>1</title>
<path fill="#eba06a" stroke="black" d="M669,-782C669,-782 556,-782 556,-782 550,-782 544,-776 544,-770 544,-770 544,-711 544,-711 544,-705 550,-699 556,-699 556,-699 669,-699 669,-699 675,-699 681,-705 681,-711 681,-711 681,-770 681,-770 681,-776 675,-782 669,-782"/>
<text text-anchor="start" x="580.5" y="-766.8" font-family="Helvetica,sans-Serif" font-size="14.00">age ≤ 56.0</text>
<text text-anchor="start" x="565" y="-751.8" font-family="Helvetica,sans-Serif" font-size="14.00">entropy = 0.716</text>
<text text-anchor="start" x="571.5" y="-736.8" font-family="Helvetica,sans-Serif" font-size="14.00">samples = 71</text>
<text text-anchor="start" x="554.5" y="-721.8" font-family="Helvetica,sans-Serif" font-size="14.00">value = [57.0, 14.0]</text>
<text text-anchor="start" x="552" y="-706.8" font-family="Helvetica,sans-Serif" font-size="14.00">class = No Decease</text>
</g>
<!-- 0&#45;&gt;1 -->
<g id="edge1" class="edge">
<title>0&#45;&gt;1</title>
<path fill="none" stroke="black" d="M765.78,-822.28C741.85,-809.67 714.84,-795.43 690.23,-782.46"/>
<polygon fill="black" stroke="black" points="691.76,-779.31 681.28,-777.75 688.49,-785.51 691.76,-779.31"/>
<text text-anchor="middle" x="688.68" y="-797.93" font-family="Helvetica,sans-Serif" font-size="14.00">True</text>
</g>
<!-- 26 -->
<g id="node27" class="node">
<title>26</title>
<path fill="#5caeea" stroke="black" d="M1096.5,-782C1096.5,-782 1004.5,-782 1004.5,-782 998.5,-782 992.5,-776 992.5,-770 992.5,-770 992.5,-711 992.5,-711 992.5,-705 998.5,-699 1004.5,-699 1004.5,-699 1096.5,-699 1096.5,-699 1102.5,-699 1108.5,-705 1108.5,-711 1108.5,-711 1108.5,-770 1108.5,-770 1108.5,-776 1102.5,-782 1096.5,-782"/>
<text text-anchor="start" x="1013.5" y="-766.8" font-family="Helvetica,sans-Serif" font-size="14.00">chol ≤ 227.5</text>
<text text-anchor="start" x="1003" y="-751.8" font-family="Helvetica,sans-Serif" font-size="14.00">entropy = 0.607</text>
<text text-anchor="start" x="1009.5" y="-736.8" font-family="Helvetica,sans-Serif" font-size="14.00">samples = 47</text>
<text text-anchor="start" x="1007.5" y="-721.8" font-family="Helvetica,sans-Serif" font-size="14.00">value = [7, 40]</text>
<text text-anchor="start" x="1000.5" y="-706.8" font-family="Helvetica,sans-Serif" font-size="14.00">class = Decease</text>
</g>
<!-- 0&#45;&gt;26 -->
<g id="edge26" class="edge">
<title>0&#45;&gt;26</title>
<path fill="none" stroke="black" d="M903.14,-821.32C928.78,-807.43 957.84,-791.69 983.34,-777.88"/>
<polygon fill="black" stroke="black" points="985.08,-780.92 992.2,-773.08 981.74,-774.76 985.08,-780.92"/>
<text text-anchor="middle" x="985.08" y="-793.34" font-family="Helvetica,sans-Serif" font-size="14.00">False</text>
</g>
<!-- 2 -->
<g id="node3" class="node">
<title>2</title>
<path fill="#e78a48" stroke="black" d="M509,-663C509,-663 396,-663 396,-663 390,-663 384,-657 384,-651 384,-651 384,-592 384,-592 384,-586 390,-580 396,-580 396,-580 509,-580 509,-580 515,-580 521,-586 521,-592 521,-592 521,-651 521,-651 521,-657 515,-663 509,-663"/>
<text text-anchor="start" x="404" y="-647.8" font-family="Helvetica,sans-Serif" font-size="14.00">trestbps ≤ 146.0</text>
<text text-anchor="start" x="405" y="-632.8" font-family="Helvetica,sans-Serif" font-size="14.00">entropy = 0.365</text>
<text text-anchor="start" x="411.5" y="-617.8" font-family="Helvetica,sans-Serif" font-size="14.00">samples = 43</text>
<text text-anchor="start" x="409.5" y="-602.8" font-family="Helvetica,sans-Serif" font-size="14.00">value = [40, 3]</text>
<text text-anchor="start" x="392" y="-587.8" font-family="Helvetica,sans-Serif" font-size="14.00">class = No Decease</text>
</g>
<!-- 1&#45;&gt;2 -->
<g id="edge2" class="edge">
<title>1&#45;&gt;2</title>
<path fill="none" stroke="black" d="M556.99,-698.91C543.83,-689.29 529.7,-678.95 516.21,-669.09"/>
<polygon fill="black" stroke="black" points="518.05,-666.1 507.91,-663.02 513.92,-671.75 518.05,-666.1"/>
</g>
<!-- 9 -->
<g id="node10" class="node">
<title>9</title>
<path fill="#f6d3b9" stroke="black" d="M669,-663C669,-663 556,-663 556,-663 550,-663 544,-657 544,-651 544,-651 544,-592 544,-592 544,-586 550,-580 556,-580 556,-580 669,-580 669,-580 675,-580 681,-586 681,-592 681,-592 681,-651 681,-651 681,-657 675,-663 669,-663"/>
<text text-anchor="start" x="588" y="-647.8" font-family="Helvetica,sans-Serif" font-size="14.00">cp ≤ 3.5</text>
<text text-anchor="start" x="565" y="-632.8" font-family="Helvetica,sans-Serif" font-size="14.00">entropy = 0.967</text>
<text text-anchor="start" x="571.5" y="-617.8" font-family="Helvetica,sans-Serif" font-size="14.00">samples = 28</text>
<text text-anchor="start" x="566" y="-602.8" font-family="Helvetica,sans-Serif" font-size="14.00">value = [17, 11]</text>
<text text-anchor="start" x="552" y="-587.8" font-family="Helvetica,sans-Serif" font-size="14.00">class = No Decease</text>
</g>
<!-- 1&#45;&gt;9 -->
<g id="edge9" class="edge">
<title>1&#45;&gt;9</title>
<path fill="none" stroke="black" d="M612.5,-698.91C612.5,-690.65 612.5,-681.86 612.5,-673.3"/>
<polygon fill="black" stroke="black" points="616,-673.02 612.5,-663.02 609,-673.02 616,-673.02"/>
</g>
<!-- 3 -->
<g id="node4" class="node">
<title>3</title>
<path fill="#e68743" stroke="black" d="M352,-544C352,-544 239,-544 239,-544 233,-544 227,-538 227,-532 227,-532 227,-473 227,-473 227,-467 233,-461 239,-461 239,-461 352,-461 352,-461 358,-461 364,-467 364,-473 364,-473 364,-532 364,-532 364,-538 358,-544 352,-544"/>
<text text-anchor="start" x="247" y="-528.8" font-family="Helvetica,sans-Serif" font-size="14.00">trestbps ≤ 113.5</text>
<text text-anchor="start" x="248" y="-513.8" font-family="Helvetica,sans-Serif" font-size="14.00">entropy = 0.276</text>
<text text-anchor="start" x="254.5" y="-498.8" font-family="Helvetica,sans-Serif" font-size="14.00">samples = 42</text>
<text text-anchor="start" x="252.5" y="-483.8" font-family="Helvetica,sans-Serif" font-size="14.00">value = [40, 2]</text>
<text text-anchor="start" x="235" y="-468.8" font-family="Helvetica,sans-Serif" font-size="14.00">class = No Decease</text>
</g>
<!-- 2&#45;&gt;3 -->
<g id="edge3" class="edge">
<title>2&#45;&gt;3</title>
<path fill="none" stroke="black" d="M398.03,-579.91C385.12,-570.29 371.25,-559.95 358.02,-550.09"/>
<polygon fill="black" stroke="black" points="359.98,-547.19 349.87,-544.02 355.8,-552.8 359.98,-547.19"/>
</g>
<!-- 8 -->
<g id="node9" class="node">
<title>8</title>
<path fill="#399de5" stroke="black" d="M498.5,-536.5C498.5,-536.5 406.5,-536.5 406.5,-536.5 400.5,-536.5 394.5,-530.5 394.5,-524.5 394.5,-524.5 394.5,-480.5 394.5,-480.5 394.5,-474.5 400.5,-468.5 406.5,-468.5 406.5,-468.5 498.5,-468.5 498.5,-468.5 504.5,-468.5 510.5,-474.5 510.5,-480.5 510.5,-480.5 510.5,-524.5 510.5,-524.5 510.5,-530.5 504.5,-536.5 498.5,-536.5"/>
<text text-anchor="start" x="412.5" y="-521.3" font-family="Helvetica,sans-Serif" font-size="14.00">entropy = 0.0</text>
<text text-anchor="start" x="415" y="-506.3" font-family="Helvetica,sans-Serif" font-size="14.00">samples = 1</text>
<text text-anchor="start" x="413" y="-491.3" font-family="Helvetica,sans-Serif" font-size="14.00">value = [0, 1]</text>
<text text-anchor="start" x="402.5" y="-476.3" font-family="Helvetica,sans-Serif" font-size="14.00">class = Decease</text>
</g>
<!-- 2&#45;&gt;8 -->
<g id="edge8" class="edge">
<title>2&#45;&gt;8</title>
<path fill="none" stroke="black" d="M452.5,-579.91C452.5,-569.2 452.5,-557.62 452.5,-546.78"/>
<polygon fill="black" stroke="black" points="456,-546.67 452.5,-536.67 449,-546.67 456,-546.67"/>
</g>
<!-- 4 -->
<g id="node5" class="node">
<title>4</title>
<path fill="#eeab7b" stroke="black" d="M197,-425C197,-425 84,-425 84,-425 78,-425 72,-419 72,-413 72,-413 72,-354 72,-354 72,-348 78,-342 84,-342 84,-342 197,-342 197,-342 203,-342 209,-348 209,-354 209,-354 209,-413 209,-413 209,-419 203,-425 197,-425"/>
<text text-anchor="start" x="116" y="-409.8" font-family="Helvetica,sans-Serif" font-size="14.00">ca ≤ 0.5</text>
<text text-anchor="start" x="93.5" y="-394.8" font-family="Helvetica,sans-Serif" font-size="14.00">entropy = 0.811</text>
<text text-anchor="start" x="103" y="-379.8" font-family="Helvetica,sans-Serif" font-size="14.00">samples = 8</text>
<text text-anchor="start" x="101" y="-364.8" font-family="Helvetica,sans-Serif" font-size="14.00">value = [6, 2]</text>
<text text-anchor="start" x="80" y="-349.8" font-family="Helvetica,sans-Serif" font-size="14.00">class = No Decease</text>
</g>
<!-- 3&#45;&gt;4 -->
<g id="edge4" class="edge">
<title>3&#45;&gt;4</title>
<path fill="none" stroke="black" d="M241.72,-460.91C228.98,-451.29 215.29,-440.95 202.22,-431.09"/>
<polygon fill="black" stroke="black" points="204.27,-428.25 194.18,-425.02 200.05,-433.84 204.27,-428.25"/>
</g>
<!-- 7 -->
<g id="node8" class="node">
<title>7</title>
<path fill="#e58139" stroke="black" d="M352,-417.5C352,-417.5 239,-417.5 239,-417.5 233,-417.5 227,-411.5 227,-405.5 227,-405.5 227,-361.5 227,-361.5 227,-355.5 233,-349.5 239,-349.5 239,-349.5 352,-349.5 352,-349.5 358,-349.5 364,-355.5 364,-361.5 364,-361.5 364,-405.5 364,-405.5 364,-411.5 358,-417.5 352,-417.5"/>
<text text-anchor="start" x="255.5" y="-402.3" font-family="Helvetica,sans-Serif" font-size="14.00">entropy = 0.0</text>
<text text-anchor="start" x="254.5" y="-387.3" font-family="Helvetica,sans-Serif" font-size="14.00">samples = 34</text>
<text text-anchor="start" x="252.5" y="-372.3" font-family="Helvetica,sans-Serif" font-size="14.00">value = [34, 0]</text>
<text text-anchor="start" x="235" y="-357.3" font-family="Helvetica,sans-Serif" font-size="14.00">class = No Decease</text>
</g>
<!-- 3&#45;&gt;7 -->
<g id="edge7" class="edge">
<title>3&#45;&gt;7</title>
<path fill="none" stroke="black" d="M295.5,-460.91C295.5,-450.2 295.5,-438.62 295.5,-427.78"/>
<polygon fill="black" stroke="black" points="299,-427.67 295.5,-417.67 292,-427.67 299,-427.67"/>
</g>
<!-- 5 -->
<g id="node6" class="node">
<title>5</title>
<path fill="#e58139" stroke="black" d="M125,-298.5C125,-298.5 12,-298.5 12,-298.5 6,-298.5 0,-292.5 0,-286.5 0,-286.5 0,-242.5 0,-242.5 0,-236.5 6,-230.5 12,-230.5 12,-230.5 125,-230.5 125,-230.5 131,-230.5 137,-236.5 137,-242.5 137,-242.5 137,-286.5 137,-286.5 137,-292.5 131,-298.5 125,-298.5"/>
<text text-anchor="start" x="28.5" y="-283.3" font-family="Helvetica,sans-Serif" font-size="14.00">entropy = 0.0</text>
<text text-anchor="start" x="31" y="-268.3" font-family="Helvetica,sans-Serif" font-size="14.00">samples = 6</text>
<text text-anchor="start" x="29" y="-253.3" font-family="Helvetica,sans-Serif" font-size="14.00">value = [6, 0]</text>
<text text-anchor="start" x="8" y="-238.3" font-family="Helvetica,sans-Serif" font-size="14.00">class = No Decease</text>
</g>
<!-- 4&#45;&gt;5 -->
<g id="edge5" class="edge">
<title>4&#45;&gt;5</title>
<path fill="none" stroke="black" d="M115.52,-341.91C108.66,-330.76 101.21,-318.66 94.31,-307.44"/>
<polygon fill="black" stroke="black" points="97.13,-305.35 88.91,-298.67 91.17,-309.02 97.13,-305.35"/>
</g>
<!-- 6 -->
<g id="node7" class="node">
<title>6</title>
<path fill="#399de5" stroke="black" d="M259.5,-298.5C259.5,-298.5 167.5,-298.5 167.5,-298.5 161.5,-298.5 155.5,-292.5 155.5,-286.5 155.5,-286.5 155.5,-242.5 155.5,-242.5 155.5,-236.5 161.5,-230.5 167.5,-230.5 167.5,-230.5 259.5,-230.5 259.5,-230.5 265.5,-230.5 271.5,-236.5 271.5,-242.5 271.5,-242.5 271.5,-286.5 271.5,-286.5 271.5,-292.5 265.5,-298.5 259.5,-298.5"/>
<text text-anchor="start" x="173.5" y="-283.3" font-family="Helvetica,sans-Serif" font-size="14.00">entropy = 0.0</text>
<text text-anchor="start" x="176" y="-268.3" font-family="Helvetica,sans-Serif" font-size="14.00">samples = 2</text>
<text text-anchor="start" x="174" y="-253.3" font-family="Helvetica,sans-Serif" font-size="14.00">value = [0, 2]</text>
<text text-anchor="start" x="163.5" y="-238.3" font-family="Helvetica,sans-Serif" font-size="14.00">class = Decease</text>
</g>
<!-- 4&#45;&gt;6 -->
<g id="edge6" class="edge">
<title>4&#45;&gt;6</title>
<path fill="none" stroke="black" d="M165.83,-341.91C172.78,-330.76 180.33,-318.66 187.33,-307.44"/>
<polygon fill="black" stroke="black" points="190.48,-309 192.81,-298.67 184.54,-305.3 190.48,-309"/>
</g>
<!-- 10 -->
<g id="node11" class="node">
<title>10</title>
<path fill="#eca572" stroke="black" d="M662,-544C662,-544 549,-544 549,-544 543,-544 537,-538 537,-532 537,-532 537,-473 537,-473 537,-467 543,-461 549,-461 549,-461 662,-461 662,-461 668,-461 674,-467 674,-473 674,-473 674,-532 674,-532 674,-538 668,-544 662,-544"/>
<text text-anchor="start" x="578" y="-528.8" font-family="Helvetica,sans-Serif" font-size="14.00">sex ≤ 0.5</text>
<text text-anchor="start" x="558" y="-513.8" font-family="Helvetica,sans-Serif" font-size="14.00">entropy = 0.764</text>
<text text-anchor="start" x="564.5" y="-498.8" font-family="Helvetica,sans-Serif" font-size="14.00">samples = 18</text>
<text text-anchor="start" x="562.5" y="-483.8" font-family="Helvetica,sans-Serif" font-size="14.00">value = [14, 4]</text>
<text text-anchor="start" x="545" y="-468.8" font-family="Helvetica,sans-Serif" font-size="14.00">class = No Decease</text>
</g>
<!-- 9&#45;&gt;10 -->
<g id="edge10" class="edge">
<title>9&#45;&gt;10</title>
<path fill="none" stroke="black" d="M610.07,-579.91C609.57,-571.56 609.04,-562.67 608.52,-554.02"/>
<polygon fill="black" stroke="black" points="612.02,-553.79 607.92,-544.02 605.03,-554.21 612.02,-553.79"/>
</g>
<!-- 19 -->
<g id="node20" class="node">
<title>19</title>
<path fill="#8ec7f0" stroke="black" d="M806.5,-544C806.5,-544 714.5,-544 714.5,-544 708.5,-544 702.5,-538 702.5,-532 702.5,-532 702.5,-473 702.5,-473 702.5,-467 708.5,-461 714.5,-461 714.5,-461 806.5,-461 806.5,-461 812.5,-461 818.5,-467 818.5,-473 818.5,-473 818.5,-532 818.5,-532 818.5,-538 812.5,-544 806.5,-544"/>
<text text-anchor="start" x="725" y="-528.8" font-family="Helvetica,sans-Serif" font-size="14.00">exang ≤ 0.5</text>
<text text-anchor="start" x="713" y="-513.8" font-family="Helvetica,sans-Serif" font-size="14.00">entropy = 0.881</text>
<text text-anchor="start" x="719.5" y="-498.8" font-family="Helvetica,sans-Serif" font-size="14.00">samples = 10</text>
<text text-anchor="start" x="721" y="-483.8" font-family="Helvetica,sans-Serif" font-size="14.00">value = [3, 7]</text>
<text text-anchor="start" x="710.5" y="-468.8" font-family="Helvetica,sans-Serif" font-size="14.00">class = Decease</text>
</g>
<!-- 9&#45;&gt;19 -->
<g id="edge19" class="edge">
<title>9&#45;&gt;19</title>
<path fill="none" stroke="black" d="M663.85,-579.91C675.9,-570.38 688.84,-560.15 701.21,-550.37"/>
<polygon fill="black" stroke="black" points="703.57,-552.97 709.24,-544.02 699.23,-547.48 703.57,-552.97"/>
</g>
<!-- 11 -->
<g id="node12" class="node">
<title>11</title>
<path fill="#e58139" stroke="black" d="M507,-417.5C507,-417.5 394,-417.5 394,-417.5 388,-417.5 382,-411.5 382,-405.5 382,-405.5 382,-361.5 382,-361.5 382,-355.5 388,-349.5 394,-349.5 394,-349.5 507,-349.5 507,-349.5 513,-349.5 519,-355.5 519,-361.5 519,-361.5 519,-405.5 519,-405.5 519,-411.5 513,-417.5 507,-417.5"/>
<text text-anchor="start" x="410.5" y="-402.3" font-family="Helvetica,sans-Serif" font-size="14.00">entropy = 0.0</text>
<text text-anchor="start" x="413" y="-387.3" font-family="Helvetica,sans-Serif" font-size="14.00">samples = 8</text>
<text text-anchor="start" x="411" y="-372.3" font-family="Helvetica,sans-Serif" font-size="14.00">value = [8, 0]</text>
<text text-anchor="start" x="390" y="-357.3" font-family="Helvetica,sans-Serif" font-size="14.00">class = No Decease</text>
</g>
<!-- 10&#45;&gt;11 -->
<g id="edge11" class="edge">
<title>10&#45;&gt;11</title>
<path fill="none" stroke="black" d="M551.72,-460.91C535.79,-448.88 518.37,-435.73 502.55,-423.79"/>
<polygon fill="black" stroke="black" points="504.53,-420.9 494.44,-417.67 500.31,-426.49 504.53,-420.9"/>
</g>
<!-- 12 -->
<g id="node13" class="node">
<title>12</title>
<path fill="#f6d5bd" stroke="black" d="M662,-425C662,-425 549,-425 549,-425 543,-425 537,-419 537,-413 537,-413 537,-354 537,-354 537,-348 543,-342 549,-342 549,-342 662,-342 662,-342 668,-342 674,-348 674,-354 674,-354 674,-413 674,-413 674,-419 668,-425 662,-425"/>
<text text-anchor="start" x="579.5" y="-409.8" font-family="Helvetica,sans-Serif" font-size="14.00">fbs ≤ 0.5</text>
<text text-anchor="start" x="558" y="-394.8" font-family="Helvetica,sans-Serif" font-size="14.00">entropy = 0.971</text>
<text text-anchor="start" x="564.5" y="-379.8" font-family="Helvetica,sans-Serif" font-size="14.00">samples = 10</text>
<text text-anchor="start" x="566" y="-364.8" font-family="Helvetica,sans-Serif" font-size="14.00">value = [6, 4]</text>
<text text-anchor="start" x="545" y="-349.8" font-family="Helvetica,sans-Serif" font-size="14.00">class = No Decease</text>
</g>
<!-- 10&#45;&gt;12 -->
<g id="edge12" class="edge">
<title>10&#45;&gt;12</title>
<path fill="none" stroke="black" d="M605.5,-460.91C605.5,-452.65 605.5,-443.86 605.5,-435.3"/>
<polygon fill="black" stroke="black" points="609,-435.02 605.5,-425.02 602,-435.02 609,-435.02"/>
</g>
<!-- 13 -->
<g id="node14" class="node">
<title>13</title>
<path fill="#9ccef2" stroke="black" d="M508.5,-306C508.5,-306 416.5,-306 416.5,-306 410.5,-306 404.5,-300 404.5,-294 404.5,-294 404.5,-235 404.5,-235 404.5,-229 410.5,-223 416.5,-223 416.5,-223 508.5,-223 508.5,-223 514.5,-223 520.5,-229 520.5,-235 520.5,-235 520.5,-294 520.5,-294 520.5,-300 514.5,-306 508.5,-306"/>
<text text-anchor="start" x="438" y="-290.8" font-family="Helvetica,sans-Serif" font-size="14.00">ca ≤ 0.5</text>
<text text-anchor="start" x="415" y="-275.8" font-family="Helvetica,sans-Serif" font-size="14.00">entropy = 0.918</text>
<text text-anchor="start" x="425" y="-260.8" font-family="Helvetica,sans-Serif" font-size="14.00">samples = 6</text>
<text text-anchor="start" x="423" y="-245.8" font-family="Helvetica,sans-Serif" font-size="14.00">value = [2, 4]</text>
<text text-anchor="start" x="412.5" y="-230.8" font-family="Helvetica,sans-Serif" font-size="14.00">class = Decease</text>
</g>
<!-- 12&#45;&gt;13 -->
<g id="edge13" class="edge">
<title>12&#45;&gt;13</title>
<path fill="none" stroke="black" d="M555.89,-341.91C544.24,-332.38 531.74,-322.15 519.79,-312.37"/>
<polygon fill="black" stroke="black" points="521.98,-309.64 512.03,-306.02 517.55,-315.06 521.98,-309.64"/>
</g>
<!-- 18 -->
<g id="node19" class="node">
<title>18</title>
<path fill="#e58139" stroke="black" d="M664,-298.5C664,-298.5 551,-298.5 551,-298.5 545,-298.5 539,-292.5 539,-286.5 539,-286.5 539,-242.5 539,-242.5 539,-236.5 545,-230.5 551,-230.5 551,-230.5 664,-230.5 664,-230.5 670,-230.5 676,-236.5 676,-242.5 676,-242.5 676,-286.5 676,-286.5 676,-292.5 670,-298.5 664,-298.5"/>
<text text-anchor="start" x="567.5" y="-283.3" font-family="Helvetica,sans-Serif" font-size="14.00">entropy = 0.0</text>
<text text-anchor="start" x="570" y="-268.3" font-family="Helvetica,sans-Serif" font-size="14.00">samples = 4</text>
<text text-anchor="start" x="568" y="-253.3" font-family="Helvetica,sans-Serif" font-size="14.00">value = [4, 0]</text>
<text text-anchor="start" x="547" y="-238.3" font-family="Helvetica,sans-Serif" font-size="14.00">class = No Decease</text>
</g>
<!-- 12&#45;&gt;18 -->
<g id="edge18" class="edge">
<title>12&#45;&gt;18</title>
<path fill="none" stroke="black" d="M606.19,-341.91C606.38,-331.2 606.57,-319.62 606.76,-308.78"/>
<polygon fill="black" stroke="black" points="610.26,-308.73 606.93,-298.67 603.26,-308.61 610.26,-308.73"/>
</g>
<!-- 14 -->
<g id="node15" class="node">
<title>14</title>
<path fill="#f2c09c" stroke="black" d="M446,-187C446,-187 333,-187 333,-187 327,-187 321,-181 321,-175 321,-175 321,-116 321,-116 321,-110 327,-104 333,-104 333,-104 446,-104 446,-104 452,-104 458,-110 458,-116 458,-116 458,-175 458,-175 458,-181 452,-187 446,-187"/>
<text text-anchor="start" x="365" y="-171.8" font-family="Helvetica,sans-Serif" font-size="14.00">cp ≤ 2.5</text>
<text text-anchor="start" x="342" y="-156.8" font-family="Helvetica,sans-Serif" font-size="14.00">entropy = 0.918</text>
<text text-anchor="start" x="352" y="-141.8" font-family="Helvetica,sans-Serif" font-size="14.00">samples = 3</text>
<text text-anchor="start" x="350" y="-126.8" font-family="Helvetica,sans-Serif" font-size="14.00">value = [2, 1]</text>
<text text-anchor="start" x="329" y="-111.8" font-family="Helvetica,sans-Serif" font-size="14.00">class = No Decease</text>
</g>
<!-- 13&#45;&gt;14 -->
<g id="edge14" class="edge">
<title>13&#45;&gt;14</title>
<path fill="none" stroke="black" d="M437.17,-222.91C431.68,-214.1 425.81,-204.7 420.14,-195.61"/>
<polygon fill="black" stroke="black" points="423.05,-193.65 414.78,-187.02 417.11,-197.36 423.05,-193.65"/>
</g>
<!-- 17 -->
<g id="node18" class="node">
<title>17</title>
<path fill="#399de5" stroke="black" d="M580.5,-179.5C580.5,-179.5 488.5,-179.5 488.5,-179.5 482.5,-179.5 476.5,-173.5 476.5,-167.5 476.5,-167.5 476.5,-123.5 476.5,-123.5 476.5,-117.5 482.5,-111.5 488.5,-111.5 488.5,-111.5 580.5,-111.5 580.5,-111.5 586.5,-111.5 592.5,-117.5 592.5,-123.5 592.5,-123.5 592.5,-167.5 592.5,-167.5 592.5,-173.5 586.5,-179.5 580.5,-179.5"/>
<text text-anchor="start" x="494.5" y="-164.3" font-family="Helvetica,sans-Serif" font-size="14.00">entropy = 0.0</text>
<text text-anchor="start" x="497" y="-149.3" font-family="Helvetica,sans-Serif" font-size="14.00">samples = 3</text>
<text text-anchor="start" x="495" y="-134.3" font-family="Helvetica,sans-Serif" font-size="14.00">value = [0, 3]</text>
<text text-anchor="start" x="484.5" y="-119.3" font-family="Helvetica,sans-Serif" font-size="14.00">class = Decease</text>
</g>
<!-- 13&#45;&gt;17 -->
<g id="edge17" class="edge">
<title>13&#45;&gt;17</title>
<path fill="none" stroke="black" d="M487.48,-222.91C494.34,-211.76 501.79,-199.66 508.69,-188.44"/>
<polygon fill="black" stroke="black" points="511.83,-190.02 514.09,-179.67 505.87,-186.35 511.83,-190.02"/>
</g>
<!-- 15 -->
<g id="node16" class="node">
<title>15</title>
<path fill="#e58139" stroke="black" d="M374,-68C374,-68 261,-68 261,-68 255,-68 249,-62 249,-56 249,-56 249,-12 249,-12 249,-6 255,0 261,0 261,0 374,0 374,0 380,0 386,-6 386,-12 386,-12 386,-56 386,-56 386,-62 380,-68 374,-68"/>
<text text-anchor="start" x="277.5" y="-52.8" font-family="Helvetica,sans-Serif" font-size="14.00">entropy = 0.0</text>
<text text-anchor="start" x="280" y="-37.8" font-family="Helvetica,sans-Serif" font-size="14.00">samples = 2</text>
<text text-anchor="start" x="278" y="-22.8" font-family="Helvetica,sans-Serif" font-size="14.00">value = [2, 0]</text>
<text text-anchor="start" x="257" y="-7.8" font-family="Helvetica,sans-Serif" font-size="14.00">class = No Decease</text>
</g>
<!-- 14&#45;&gt;15 -->
<g id="edge15" class="edge">
<title>14&#45;&gt;15</title>
<path fill="none" stroke="black" d="M362.69,-103.73C356.93,-94.97 350.84,-85.7 345.05,-76.91"/>
<polygon fill="black" stroke="black" points="347.81,-74.73 339.4,-68.3 341.97,-78.58 347.81,-74.73"/>
</g>
<!-- 16 -->
<g id="node17" class="node">
<title>16</title>
<path fill="#399de5" stroke="black" d="M508.5,-68C508.5,-68 416.5,-68 416.5,-68 410.5,-68 404.5,-62 404.5,-56 404.5,-56 404.5,-12 404.5,-12 404.5,-6 410.5,0 416.5,0 416.5,0 508.5,0 508.5,0 514.5,0 520.5,-6 520.5,-12 520.5,-12 520.5,-56 520.5,-56 520.5,-62 514.5,-68 508.5,-68"/>
<text text-anchor="start" x="422.5" y="-52.8" font-family="Helvetica,sans-Serif" font-size="14.00">entropy = 0.0</text>
<text text-anchor="start" x="425" y="-37.8" font-family="Helvetica,sans-Serif" font-size="14.00">samples = 1</text>
<text text-anchor="start" x="423" y="-22.8" font-family="Helvetica,sans-Serif" font-size="14.00">value = [0, 1]</text>
<text text-anchor="start" x="412.5" y="-7.8" font-family="Helvetica,sans-Serif" font-size="14.00">class = Decease</text>
</g>
<!-- 14&#45;&gt;16 -->
<g id="edge16" class="edge">
<title>14&#45;&gt;16</title>
<path fill="none" stroke="black" d="M416.68,-103.73C422.58,-94.88 428.83,-85.51 434.75,-76.63"/>
<polygon fill="black" stroke="black" points="437.67,-78.56 440.3,-68.3 431.84,-74.68 437.67,-78.56"/>
</g>
<!-- 20 -->
<g id="node21" class="node">
<title>20</title>
<path fill="#ffffff" stroke="black" d="M817,-425C817,-425 704,-425 704,-425 698,-425 692,-419 692,-413 692,-413 692,-354 692,-354 692,-348 698,-342 704,-342 704,-342 817,-342 817,-342 823,-342 829,-348 829,-354 829,-354 829,-413 829,-413 829,-419 823,-425 817,-425"/>
<text text-anchor="start" x="728.5" y="-409.8" font-family="Helvetica,sans-Serif" font-size="14.00">age ≤ 61.5</text>
<text text-anchor="start" x="720.5" y="-394.8" font-family="Helvetica,sans-Serif" font-size="14.00">entropy = 1.0</text>
<text text-anchor="start" x="723" y="-379.8" font-family="Helvetica,sans-Serif" font-size="14.00">samples = 6</text>
<text text-anchor="start" x="721" y="-364.8" font-family="Helvetica,sans-Serif" font-size="14.00">value = [3, 3]</text>
<text text-anchor="start" x="700" y="-349.8" font-family="Helvetica,sans-Serif" font-size="14.00">class = No Decease</text>
</g>
<!-- 19&#45;&gt;20 -->
<g id="edge20" class="edge">
<title>19&#45;&gt;20</title>
<path fill="none" stroke="black" d="M760.5,-460.91C760.5,-452.65 760.5,-443.86 760.5,-435.3"/>
<polygon fill="black" stroke="black" points="764,-435.02 760.5,-425.02 757,-435.02 764,-435.02"/>
</g>
<!-- 25 -->
<g id="node26" class="node">
<title>25</title>
<path fill="#399de5" stroke="black" d="M951.5,-417.5C951.5,-417.5 859.5,-417.5 859.5,-417.5 853.5,-417.5 847.5,-411.5 847.5,-405.5 847.5,-405.5 847.5,-361.5 847.5,-361.5 847.5,-355.5 853.5,-349.5 859.5,-349.5 859.5,-349.5 951.5,-349.5 951.5,-349.5 957.5,-349.5 963.5,-355.5 963.5,-361.5 963.5,-361.5 963.5,-405.5 963.5,-405.5 963.5,-411.5 957.5,-417.5 951.5,-417.5"/>
<text text-anchor="start" x="865.5" y="-402.3" font-family="Helvetica,sans-Serif" font-size="14.00">entropy = 0.0</text>
<text text-anchor="start" x="868" y="-387.3" font-family="Helvetica,sans-Serif" font-size="14.00">samples = 4</text>
<text text-anchor="start" x="866" y="-372.3" font-family="Helvetica,sans-Serif" font-size="14.00">value = [0, 4]</text>
<text text-anchor="start" x="855.5" y="-357.3" font-family="Helvetica,sans-Serif" font-size="14.00">class = Decease</text>
</g>
<!-- 19&#45;&gt;25 -->
<g id="edge25" class="edge">
<title>19&#45;&gt;25</title>
<path fill="none" stroke="black" d="M810.81,-460.91C825.58,-448.99 841.71,-435.98 856.4,-424.12"/>
<polygon fill="black" stroke="black" points="858.81,-426.67 864.4,-417.67 854.42,-421.22 858.81,-426.67"/>
</g>
<!-- 21 -->
<g id="node22" class="node">
<title>21</title>
<path fill="#399de5" stroke="black" d="M803.5,-298.5C803.5,-298.5 711.5,-298.5 711.5,-298.5 705.5,-298.5 699.5,-292.5 699.5,-286.5 699.5,-286.5 699.5,-242.5 699.5,-242.5 699.5,-236.5 705.5,-230.5 711.5,-230.5 711.5,-230.5 803.5,-230.5 803.5,-230.5 809.5,-230.5 815.5,-236.5 815.5,-242.5 815.5,-242.5 815.5,-286.5 815.5,-286.5 815.5,-292.5 809.5,-298.5 803.5,-298.5"/>
<text text-anchor="start" x="717.5" y="-283.3" font-family="Helvetica,sans-Serif" font-size="14.00">entropy = 0.0</text>
<text text-anchor="start" x="720" y="-268.3" font-family="Helvetica,sans-Serif" font-size="14.00">samples = 2</text>
<text text-anchor="start" x="718" y="-253.3" font-family="Helvetica,sans-Serif" font-size="14.00">value = [0, 2]</text>
<text text-anchor="start" x="707.5" y="-238.3" font-family="Helvetica,sans-Serif" font-size="14.00">class = Decease</text>
</g>
<!-- 20&#45;&gt;21 -->
<g id="edge21" class="edge">
<title>20&#45;&gt;21</title>
<path fill="none" stroke="black" d="M759.46,-341.91C759.18,-331.2 758.89,-319.62 758.61,-308.78"/>
<polygon fill="black" stroke="black" points="762.11,-308.57 758.35,-298.67 755.11,-308.75 762.11,-308.57"/>
</g>
<!-- 22 -->
<g id="node23" class="node">
<title>22</title>
<path fill="#eeab7b" stroke="black" d="M959,-306C959,-306 846,-306 846,-306 840,-306 834,-300 834,-294 834,-294 834,-235 834,-235 834,-229 840,-223 846,-223 846,-223 959,-223 959,-223 965,-223 971,-229 971,-235 971,-235 971,-294 971,-294 971,-300 965,-306 959,-306"/>
<text text-anchor="start" x="860" y="-290.8" font-family="Helvetica,sans-Serif" font-size="14.00">thalach ≤ 96.5</text>
<text text-anchor="start" x="855.5" y="-275.8" font-family="Helvetica,sans-Serif" font-size="14.00">entropy = 0.811</text>
<text text-anchor="start" x="865" y="-260.8" font-family="Helvetica,sans-Serif" font-size="14.00">samples = 4</text>
<text text-anchor="start" x="863" y="-245.8" font-family="Helvetica,sans-Serif" font-size="14.00">value = [3, 1]</text>
<text text-anchor="start" x="842" y="-230.8" font-family="Helvetica,sans-Serif" font-size="14.00">class = No Decease</text>
</g>
<!-- 20&#45;&gt;22 -->
<g id="edge22" class="edge">
<title>20&#45;&gt;22</title>
<path fill="none" stroke="black" d="M809.77,-341.91C821.22,-332.47 833.51,-322.34 845.28,-312.65"/>
<polygon fill="black" stroke="black" points="847.83,-315.08 853.32,-306.02 843.38,-309.68 847.83,-315.08"/>
</g>
<!-- 23 -->
<g id="node24" class="node">
<title>23</title>
<path fill="#399de5" stroke="black" d="M836.5,-179.5C836.5,-179.5 744.5,-179.5 744.5,-179.5 738.5,-179.5 732.5,-173.5 732.5,-167.5 732.5,-167.5 732.5,-123.5 732.5,-123.5 732.5,-117.5 738.5,-111.5 744.5,-111.5 744.5,-111.5 836.5,-111.5 836.5,-111.5 842.5,-111.5 848.5,-117.5 848.5,-123.5 848.5,-123.5 848.5,-167.5 848.5,-167.5 848.5,-173.5 842.5,-179.5 836.5,-179.5"/>
<text text-anchor="start" x="750.5" y="-164.3" font-family="Helvetica,sans-Serif" font-size="14.00">entropy = 0.0</text>
<text text-anchor="start" x="753" y="-149.3" font-family="Helvetica,sans-Serif" font-size="14.00">samples = 1</text>
<text text-anchor="start" x="751" y="-134.3" font-family="Helvetica,sans-Serif" font-size="14.00">value = [0, 1]</text>
<text text-anchor="start" x="740.5" y="-119.3" font-family="Helvetica,sans-Serif" font-size="14.00">class = Decease</text>
</g>
<!-- 22&#45;&gt;23 -->
<g id="edge23" class="edge">
<title>22&#45;&gt;23</title>
<path fill="none" stroke="black" d="M863.64,-222.91C852.55,-211.32 840.47,-198.7 829.38,-187.11"/>
<polygon fill="black" stroke="black" points="831.69,-184.47 822.25,-179.67 826.64,-189.31 831.69,-184.47"/>
</g>
<!-- 24 -->
<g id="node25" class="node">
<title>24</title>
<path fill="#e58139" stroke="black" d="M992,-179.5C992,-179.5 879,-179.5 879,-179.5 873,-179.5 867,-173.5 867,-167.5 867,-167.5 867,-123.5 867,-123.5 867,-117.5 873,-111.5 879,-111.5 879,-111.5 992,-111.5 992,-111.5 998,-111.5 1004,-117.5 1004,-123.5 1004,-123.5 1004,-167.5 1004,-167.5 1004,-173.5 998,-179.5 992,-179.5"/>
<text text-anchor="start" x="895.5" y="-164.3" font-family="Helvetica,sans-Serif" font-size="14.00">entropy = 0.0</text>
<text text-anchor="start" x="898" y="-149.3" font-family="Helvetica,sans-Serif" font-size="14.00">samples = 3</text>
<text text-anchor="start" x="896" y="-134.3" font-family="Helvetica,sans-Serif" font-size="14.00">value = [3, 0]</text>
<text text-anchor="start" x="875" y="-119.3" font-family="Helvetica,sans-Serif" font-size="14.00">class = No Decease</text>
</g>
<!-- 22&#45;&gt;24 -->
<g id="edge24" class="edge">
<title>22&#45;&gt;24</title>
<path fill="none" stroke="black" d="M913.95,-222.91C917,-212.09 920.3,-200.38 923.39,-189.44"/>
<polygon fill="black" stroke="black" points="926.8,-190.24 926.15,-179.67 920.06,-188.34 926.8,-190.24"/>
</g>
<!-- 27 -->
<g id="node28" class="node">
<title>27</title>
<path fill="#b7dbf6" stroke="black" d="M1096.5,-663C1096.5,-663 1004.5,-663 1004.5,-663 998.5,-663 992.5,-657 992.5,-651 992.5,-651 992.5,-592 992.5,-592 992.5,-586 998.5,-580 1004.5,-580 1004.5,-580 1096.5,-580 1096.5,-580 1102.5,-580 1108.5,-586 1108.5,-592 1108.5,-592 1108.5,-651 1108.5,-651 1108.5,-657 1102.5,-663 1096.5,-663"/>
<text text-anchor="start" x="1006" y="-647.8" font-family="Helvetica,sans-Serif" font-size="14.00">oldpeak ≤ 1.95</text>
<text text-anchor="start" x="1003" y="-632.8" font-family="Helvetica,sans-Serif" font-size="14.00">entropy = 0.964</text>
<text text-anchor="start" x="1009.5" y="-617.8" font-family="Helvetica,sans-Serif" font-size="14.00">samples = 18</text>
<text text-anchor="start" x="1008" y="-602.8" font-family="Helvetica,sans-Serif" font-size="14.00">value = [7, 11]</text>
<text text-anchor="start" x="1000.5" y="-587.8" font-family="Helvetica,sans-Serif" font-size="14.00">class = Decease</text>
</g>
<!-- 26&#45;&gt;27 -->
<g id="edge27" class="edge">
<title>26&#45;&gt;27</title>
<path fill="none" stroke="black" d="M1050.5,-698.91C1050.5,-690.65 1050.5,-681.86 1050.5,-673.3"/>
<polygon fill="black" stroke="black" points="1054,-673.02 1050.5,-663.02 1047,-673.02 1054,-673.02"/>
</g>
<!-- 36 -->
<g id="node37" class="node">
<title>36</title>
<path fill="#399de5" stroke="black" d="M1230.5,-655.5C1230.5,-655.5 1138.5,-655.5 1138.5,-655.5 1132.5,-655.5 1126.5,-649.5 1126.5,-643.5 1126.5,-643.5 1126.5,-599.5 1126.5,-599.5 1126.5,-593.5 1132.5,-587.5 1138.5,-587.5 1138.5,-587.5 1230.5,-587.5 1230.5,-587.5 1236.5,-587.5 1242.5,-593.5 1242.5,-599.5 1242.5,-599.5 1242.5,-643.5 1242.5,-643.5 1242.5,-649.5 1236.5,-655.5 1230.5,-655.5"/>
<text text-anchor="start" x="1144.5" y="-640.3" font-family="Helvetica,sans-Serif" font-size="14.00">entropy = 0.0</text>
<text text-anchor="start" x="1143.5" y="-625.3" font-family="Helvetica,sans-Serif" font-size="14.00">samples = 29</text>
<text text-anchor="start" x="1141.5" y="-610.3" font-family="Helvetica,sans-Serif" font-size="14.00">value = [0, 29]</text>
<text text-anchor="start" x="1134.5" y="-595.3" font-family="Helvetica,sans-Serif" font-size="14.00">class = Decease</text>
</g>
<!-- 26&#45;&gt;36 -->
<g id="edge36" class="edge">
<title>26&#45;&gt;36</title>
<path fill="none" stroke="black" d="M1096.99,-698.91C1110.51,-687.1 1125.27,-674.22 1138.75,-662.45"/>
<polygon fill="black" stroke="black" points="1141.28,-664.88 1146.51,-655.67 1136.68,-659.61 1141.28,-664.88"/>
</g>
<!-- 28 -->
<g id="node29" class="node">
<title>28</title>
<path fill="#f4c9aa" stroke="black" d="M1107,-544C1107,-544 994,-544 994,-544 988,-544 982,-538 982,-532 982,-532 982,-473 982,-473 982,-467 988,-461 994,-461 994,-461 1107,-461 1107,-461 1113,-461 1119,-467 1119,-473 1119,-473 1119,-532 1119,-532 1119,-538 1113,-544 1107,-544"/>
<text text-anchor="start" x="1026" y="-528.8" font-family="Helvetica,sans-Serif" font-size="14.00">cp ≤ 3.5</text>
<text text-anchor="start" x="1003" y="-513.8" font-family="Helvetica,sans-Serif" font-size="14.00">entropy = 0.946</text>
<text text-anchor="start" x="1009.5" y="-498.8" font-family="Helvetica,sans-Serif" font-size="14.00">samples = 11</text>
<text text-anchor="start" x="1011" y="-483.8" font-family="Helvetica,sans-Serif" font-size="14.00">value = [7, 4]</text>
<text text-anchor="start" x="990" y="-468.8" font-family="Helvetica,sans-Serif" font-size="14.00">class = No Decease</text>
</g>
<!-- 27&#45;&gt;28 -->
<g id="edge28" class="edge">
<title>27&#45;&gt;28</title>
<path fill="none" stroke="black" d="M1050.5,-579.91C1050.5,-571.65 1050.5,-562.86 1050.5,-554.3"/>
<polygon fill="black" stroke="black" points="1054,-554.02 1050.5,-544.02 1047,-554.02 1054,-554.02"/>
</g>
<!-- 35 -->
<g id="node36" class="node">
<title>35</title>
<path fill="#399de5" stroke="black" d="M1241.5,-536.5C1241.5,-536.5 1149.5,-536.5 1149.5,-536.5 1143.5,-536.5 1137.5,-530.5 1137.5,-524.5 1137.5,-524.5 1137.5,-480.5 1137.5,-480.5 1137.5,-474.5 1143.5,-468.5 1149.5,-468.5 1149.5,-468.5 1241.5,-468.5 1241.5,-468.5 1247.5,-468.5 1253.5,-474.5 1253.5,-480.5 1253.5,-480.5 1253.5,-524.5 1253.5,-524.5 1253.5,-530.5 1247.5,-536.5 1241.5,-536.5"/>
<text text-anchor="start" x="1155.5" y="-521.3" font-family="Helvetica,sans-Serif" font-size="14.00">entropy = 0.0</text>
<text text-anchor="start" x="1158" y="-506.3" font-family="Helvetica,sans-Serif" font-size="14.00">samples = 7</text>
<text text-anchor="start" x="1156" y="-491.3" font-family="Helvetica,sans-Serif" font-size="14.00">value = [0, 7]</text>
<text text-anchor="start" x="1145.5" y="-476.3" font-family="Helvetica,sans-Serif" font-size="14.00">class = Decease</text>
</g>
<!-- 27&#45;&gt;35 -->
<g id="edge35" class="edge">
<title>27&#45;&gt;35</title>
<path fill="none" stroke="black" d="M1100.81,-579.91C1115.58,-567.99 1131.71,-554.98 1146.4,-543.12"/>
<polygon fill="black" stroke="black" points="1148.81,-545.67 1154.4,-536.67 1144.42,-540.22 1148.81,-545.67"/>
</g>
<!-- 29 -->
<g id="node30" class="node">
<title>29</title>
<path fill="#e58139" stroke="black" d="M1107,-417.5C1107,-417.5 994,-417.5 994,-417.5 988,-417.5 982,-411.5 982,-405.5 982,-405.5 982,-361.5 982,-361.5 982,-355.5 988,-349.5 994,-349.5 994,-349.5 1107,-349.5 1107,-349.5 1113,-349.5 1119,-355.5 1119,-361.5 1119,-361.5 1119,-405.5 1119,-405.5 1119,-411.5 1113,-417.5 1107,-417.5"/>
<text text-anchor="start" x="1010.5" y="-402.3" font-family="Helvetica,sans-Serif" font-size="14.00">entropy = 0.0</text>
<text text-anchor="start" x="1013" y="-387.3" font-family="Helvetica,sans-Serif" font-size="14.00">samples = 5</text>
<text text-anchor="start" x="1011" y="-372.3" font-family="Helvetica,sans-Serif" font-size="14.00">value = [5, 0]</text>
<text text-anchor="start" x="990" y="-357.3" font-family="Helvetica,sans-Serif" font-size="14.00">class = No Decease</text>
</g>
<!-- 28&#45;&gt;29 -->
<g id="edge29" class="edge">
<title>28&#45;&gt;29</title>
<path fill="none" stroke="black" d="M1050.5,-460.91C1050.5,-450.2 1050.5,-438.62 1050.5,-427.78"/>
<polygon fill="black" stroke="black" points="1054,-427.67 1050.5,-417.67 1047,-427.67 1054,-427.67"/>
</g>
<!-- 30 -->
<g id="node31" class="node">
<title>30</title>
<path fill="#9ccef2" stroke="black" d="M1241.5,-425C1241.5,-425 1149.5,-425 1149.5,-425 1143.5,-425 1137.5,-419 1137.5,-413 1137.5,-413 1137.5,-354 1137.5,-354 1137.5,-348 1143.5,-342 1149.5,-342 1149.5,-342 1241.5,-342 1241.5,-342 1247.5,-342 1253.5,-348 1253.5,-354 1253.5,-354 1253.5,-413 1253.5,-413 1253.5,-419 1247.5,-425 1241.5,-425"/>
<text text-anchor="start" x="1163.5" y="-409.8" font-family="Helvetica,sans-Serif" font-size="14.00">age ≤ 55.5</text>
<text text-anchor="start" x="1148" y="-394.8" font-family="Helvetica,sans-Serif" font-size="14.00">entropy = 0.918</text>
<text text-anchor="start" x="1158" y="-379.8" font-family="Helvetica,sans-Serif" font-size="14.00">samples = 6</text>
<text text-anchor="start" x="1156" y="-364.8" font-family="Helvetica,sans-Serif" font-size="14.00">value = [2, 4]</text>
<text text-anchor="start" x="1145.5" y="-349.8" font-family="Helvetica,sans-Serif" font-size="14.00">class = Decease</text>
</g>
<!-- 28&#45;&gt;30 -->
<g id="edge30" class="edge">
<title>28&#45;&gt;30</title>
<path fill="none" stroke="black" d="M1100.81,-460.91C1112.62,-451.38 1125.29,-441.15 1137.41,-431.37"/>
<polygon fill="black" stroke="black" points="1139.7,-434.02 1145.28,-425.02 1135.3,-428.58 1139.7,-434.02"/>
</g>
<!-- 31 -->
<g id="node32" class="node">
<title>31</title>
<path fill="#399de5" stroke="black" d="M1152.5,-298.5C1152.5,-298.5 1060.5,-298.5 1060.5,-298.5 1054.5,-298.5 1048.5,-292.5 1048.5,-286.5 1048.5,-286.5 1048.5,-242.5 1048.5,-242.5 1048.5,-236.5 1054.5,-230.5 1060.5,-230.5 1060.5,-230.5 1152.5,-230.5 1152.5,-230.5 1158.5,-230.5 1164.5,-236.5 1164.5,-242.5 1164.5,-242.5 1164.5,-286.5 1164.5,-286.5 1164.5,-292.5 1158.5,-298.5 1152.5,-298.5"/>
<text text-anchor="start" x="1066.5" y="-283.3" font-family="Helvetica,sans-Serif" font-size="14.00">entropy = 0.0</text>
<text text-anchor="start" x="1069" y="-268.3" font-family="Helvetica,sans-Serif" font-size="14.00">samples = 3</text>
<text text-anchor="start" x="1067" y="-253.3" font-family="Helvetica,sans-Serif" font-size="14.00">value = [0, 3]</text>
<text text-anchor="start" x="1056.5" y="-238.3" font-family="Helvetica,sans-Serif" font-size="14.00">class = Decease</text>
</g>
<!-- 30&#45;&gt;31 -->
<g id="edge31" class="edge">
<title>30&#45;&gt;31</title>
<path fill="none" stroke="black" d="M1164.62,-341.91C1155.98,-330.54 1146.57,-318.18 1137.9,-306.77"/>
<polygon fill="black" stroke="black" points="1140.57,-304.51 1131.73,-298.67 1135,-308.74 1140.57,-304.51"/>
</g>
<!-- 32 -->
<g id="node33" class="node">
<title>32</title>
<path fill="#f2c09c" stroke="black" d="M1308,-306C1308,-306 1195,-306 1195,-306 1189,-306 1183,-300 1183,-294 1183,-294 1183,-235 1183,-235 1183,-229 1189,-223 1195,-223 1195,-223 1308,-223 1308,-223 1314,-223 1320,-229 1320,-235 1320,-235 1320,-294 1320,-294 1320,-300 1314,-306 1308,-306"/>
<text text-anchor="start" x="1205" y="-290.8" font-family="Helvetica,sans-Serif" font-size="14.00">thalach ≤ 151.0</text>
<text text-anchor="start" x="1204" y="-275.8" font-family="Helvetica,sans-Serif" font-size="14.00">entropy = 0.918</text>
<text text-anchor="start" x="1214" y="-260.8" font-family="Helvetica,sans-Serif" font-size="14.00">samples = 3</text>
<text text-anchor="start" x="1212" y="-245.8" font-family="Helvetica,sans-Serif" font-size="14.00">value = [2, 1]</text>
<text text-anchor="start" x="1191" y="-230.8" font-family="Helvetica,sans-Serif" font-size="14.00">class = No Decease</text>
</g>
<!-- 30&#45;&gt;32 -->
<g id="edge32" class="edge">
<title>30&#45;&gt;32</title>
<path fill="none" stroke="black" d="M1214.93,-341.91C1219.06,-333.29 1223.46,-324.09 1227.72,-315.17"/>
<polygon fill="black" stroke="black" points="1230.95,-316.55 1232.11,-306.02 1224.63,-313.53 1230.95,-316.55"/>
</g>
<!-- 33 -->
<g id="node34" class="node">
<title>33</title>
<path fill="#e58139" stroke="black" d="M1219,-179.5C1219,-179.5 1106,-179.5 1106,-179.5 1100,-179.5 1094,-173.5 1094,-167.5 1094,-167.5 1094,-123.5 1094,-123.5 1094,-117.5 1100,-111.5 1106,-111.5 1106,-111.5 1219,-111.5 1219,-111.5 1225,-111.5 1231,-117.5 1231,-123.5 1231,-123.5 1231,-167.5 1231,-167.5 1231,-173.5 1225,-179.5 1219,-179.5"/>
<text text-anchor="start" x="1122.5" y="-164.3" font-family="Helvetica,sans-Serif" font-size="14.00">entropy = 0.0</text>
<text text-anchor="start" x="1125" y="-149.3" font-family="Helvetica,sans-Serif" font-size="14.00">samples = 2</text>
<text text-anchor="start" x="1123" y="-134.3" font-family="Helvetica,sans-Serif" font-size="14.00">value = [2, 0]</text>
<text text-anchor="start" x="1102" y="-119.3" font-family="Helvetica,sans-Serif" font-size="14.00">class = No Decease</text>
</g>
<!-- 32&#45;&gt;33 -->
<g id="edge33" class="edge">
<title>32&#45;&gt;33</title>
<path fill="none" stroke="black" d="M1220.62,-222.91C1211.98,-211.54 1202.57,-199.18 1193.9,-187.77"/>
<polygon fill="black" stroke="black" points="1196.57,-185.51 1187.73,-179.67 1191,-189.74 1196.57,-185.51"/>
</g>
<!-- 34 -->
<g id="node35" class="node">
<title>34</title>
<path fill="#399de5" stroke="black" d="M1353.5,-179.5C1353.5,-179.5 1261.5,-179.5 1261.5,-179.5 1255.5,-179.5 1249.5,-173.5 1249.5,-167.5 1249.5,-167.5 1249.5,-123.5 1249.5,-123.5 1249.5,-117.5 1255.5,-111.5 1261.5,-111.5 1261.5,-111.5 1353.5,-111.5 1353.5,-111.5 1359.5,-111.5 1365.5,-117.5 1365.5,-123.5 1365.5,-123.5 1365.5,-167.5 1365.5,-167.5 1365.5,-173.5 1359.5,-179.5 1353.5,-179.5"/>
<text text-anchor="start" x="1267.5" y="-164.3" font-family="Helvetica,sans-Serif" font-size="14.00">entropy = 0.0</text>
<text text-anchor="start" x="1270" y="-149.3" font-family="Helvetica,sans-Serif" font-size="14.00">samples = 1</text>
<text text-anchor="start" x="1268" y="-134.3" font-family="Helvetica,sans-Serif" font-size="14.00">value = [0, 1]</text>
<text text-anchor="start" x="1257.5" y="-119.3" font-family="Helvetica,sans-Serif" font-size="14.00">class = Decease</text>
</g>
<!-- 32&#45;&gt;34 -->
<g id="edge34" class="edge">
<title>32&#45;&gt;34</title>
<path fill="none" stroke="black" d="M1270.93,-222.91C1276.21,-211.87 1281.94,-199.9 1287.27,-188.77"/>
<polygon fill="black" stroke="black" points="1290.46,-190.2 1291.63,-179.67 1284.15,-187.18 1290.46,-190.2"/>
</g>
</g>
</svg>
