<?xml version="1.0" encoding="UTF-8" standalone="no"?>
<!DOCTYPE svg PUBLIC "-//W3C//DTD SVG 1.1//EN"
 "http://www.w3.org/Graphics/SVG/1.1/DTD/svg11.dtd">
<!-- Generated by graphviz version 2.50.0 (0)
 -->
<!-- Title: Tree Pages: 1 -->
<svg width="1025pt" height="939pt"
 viewBox="0.00 0.00 1024.50 939.00" xmlns="http://www.w3.org/2000/svg" xmlns:xlink="http://www.w3.org/1999/xlink">
<g id="graph0" class="graph" transform="scale(1 1) rotate(0) translate(4 935)">
<title>Tree</title>
<polygon fill="white" stroke="transparent" points="-4,4 -4,-935 1020.5,-935 1020.5,4 -4,4"/>
<text text-anchor="middle" x="508.25" y="-911" font-family="Times New Roman,serif" font-size="20.00">Heart Disease Train/Test 40/60</text>
<!-- 0 -->
<g id="node1" class="node">
<title>0</title>
<path fill="#fbebe0" stroke="black" d="M797,-901C797,-901 684,-901 684,-901 678,-901 672,-895 672,-889 672,-889 672,-830 672,-830 672,-824 678,-818 684,-818 684,-818 797,-818 797,-818 803,-818 809,-824 809,-830 809,-830 809,-889 809,-889 809,-895 803,-901 797,-901"/>
<text text-anchor="start" x="705" y="-885.8" font-family="Helvetica,sans-Serif" font-size="14.00">exang ≤ 0.5</text>
<text text-anchor="start" x="693" y="-870.8" font-family="Helvetica,sans-Serif" font-size="14.00">entropy = 0.995</text>
<text text-anchor="start" x="696" y="-855.8" font-family="Helvetica,sans-Serif" font-size="14.00">samples = 118</text>
<text text-anchor="start" x="693.5" y="-840.8" font-family="Helvetica,sans-Serif" font-size="14.00">value = [64, 54]</text>
<text text-anchor="start" x="680" y="-825.8" font-family="Helvetica,sans-Serif" font-size="14.00">class = No Decease</text>
</g>
<!-- 1 -->
<g id="node2" class="node">
<title>1</title>
<path fill="#edaa79" stroke="black" d="M652,-782C652,-782 539,-782 539,-782 533,-782 527,-776 527,-770 527,-770 527,-711 527,-711 527,-705 533,-699 539,-699 539,-699 652,-699 652,-699 658,-699 664,-705 664,-711 664,-711 664,-770 664,-770 664,-776 658,-782 652,-782"/>
<text text-anchor="start" x="567.5" y="-766.8" font-family="Helvetica,sans-Serif" font-size="14.00">thal ≤ 4.5</text>
<text text-anchor="start" x="548" y="-751.8" font-family="Helvetica,sans-Serif" font-size="14.00">entropy = 0.801</text>
<text text-anchor="start" x="554.5" y="-736.8" font-family="Helvetica,sans-Serif" font-size="14.00">samples = 78</text>
<text text-anchor="start" x="548.5" y="-721.8" font-family="Helvetica,sans-Serif" font-size="14.00">value = [59, 19]</text>
<text text-anchor="start" x="535" y="-706.8" font-family="Helvetica,sans-Serif" font-size="14.00">class = No Decease</text>
</g>
<!-- 0&#45;&gt;1 -->
<g id="edge1" class="edge">
<title>0&#45;&gt;1</title>
<path fill="none" stroke="black" d="M690.19,-817.91C678.38,-808.38 665.71,-798.15 653.59,-788.37"/>
<polygon fill="black" stroke="black" points="655.7,-785.58 645.72,-782.02 651.3,-791.02 655.7,-785.58"/>
<text text-anchor="middle" x="648.37" y="-803.18" font-family="Helvetica,sans-Serif" font-size="14.00">True</text>
</g>
<!-- 24 -->
<g id="node25" class="node">
<title>24</title>
<path fill="#55abe9" stroke="black" d="M859.5,-782C859.5,-782 767.5,-782 767.5,-782 761.5,-782 755.5,-776 755.5,-770 755.5,-770 755.5,-711 755.5,-711 755.5,-705 761.5,-699 767.5,-699 767.5,-699 859.5,-699 859.5,-699 865.5,-699 871.5,-705 871.5,-711 871.5,-711 871.5,-770 871.5,-770 871.5,-776 865.5,-782 859.5,-782"/>
<text text-anchor="start" x="789" y="-766.8" font-family="Helvetica,sans-Serif" font-size="14.00">cp ≤ 3.5</text>
<text text-anchor="start" x="766" y="-751.8" font-family="Helvetica,sans-Serif" font-size="14.00">entropy = 0.544</text>
<text text-anchor="start" x="772.5" y="-736.8" font-family="Helvetica,sans-Serif" font-size="14.00">samples = 40</text>
<text text-anchor="start" x="770.5" y="-721.8" font-family="Helvetica,sans-Serif" font-size="14.00">value = [5, 35]</text>
<text text-anchor="start" x="763.5" y="-706.8" font-family="Helvetica,sans-Serif" font-size="14.00">class = Decease</text>
</g>
<!-- 0&#45;&gt;24 -->
<g id="edge24" class="edge">
<title>0&#45;&gt;24</title>
<path fill="none" stroke="black" d="M765.83,-817.91C771.32,-809.1 777.19,-799.7 782.86,-790.61"/>
<polygon fill="black" stroke="black" points="785.89,-792.36 788.22,-782.02 779.95,-788.65 785.89,-792.36"/>
<text text-anchor="middle" x="793.86" y="-802.68" font-family="Helvetica,sans-Serif" font-size="14.00">False</text>
</g>
<!-- 2 -->
<g id="node3" class="node">
<title>2</title>
<path fill="#e88e4d" stroke="black" d="M430,-663C430,-663 317,-663 317,-663 311,-663 305,-657 305,-651 305,-651 305,-592 305,-592 305,-586 311,-580 317,-580 317,-580 430,-580 430,-580 436,-580 442,-586 442,-592 442,-592 442,-651 442,-651 442,-657 436,-663 430,-663"/>
<text text-anchor="start" x="329" y="-647.8" font-family="Helvetica,sans-Serif" font-size="14.00">oldpeak ≤ 2.25</text>
<text text-anchor="start" x="326" y="-632.8" font-family="Helvetica,sans-Serif" font-size="14.00">entropy = 0.439</text>
<text text-anchor="start" x="332.5" y="-617.8" font-family="Helvetica,sans-Serif" font-size="14.00">samples = 55</text>
<text text-anchor="start" x="330.5" y="-602.8" font-family="Helvetica,sans-Serif" font-size="14.00">value = [50, 5]</text>
<text text-anchor="start" x="313" y="-587.8" font-family="Helvetica,sans-Serif" font-size="14.00">class = No Decease</text>
</g>
<!-- 1&#45;&gt;2 -->
<g id="edge2" class="edge">
<title>1&#45;&gt;2</title>
<path fill="none" stroke="black" d="M526.78,-703.28C502.85,-690.67 475.84,-676.43 451.23,-663.46"/>
<polygon fill="black" stroke="black" points="452.76,-660.31 442.28,-658.75 449.49,-666.51 452.76,-660.31"/>
</g>
<!-- 13 -->
<g id="node14" class="node">
<title>13</title>
<path fill="#b8dcf6" stroke="black" d="M641.5,-663C641.5,-663 549.5,-663 549.5,-663 543.5,-663 537.5,-657 537.5,-651 537.5,-651 537.5,-592 537.5,-592 537.5,-586 543.5,-580 549.5,-580 549.5,-580 641.5,-580 641.5,-580 647.5,-580 653.5,-586 653.5,-592 653.5,-592 653.5,-651 653.5,-651 653.5,-657 647.5,-663 641.5,-663"/>
<text text-anchor="start" x="571" y="-647.8" font-family="Helvetica,sans-Serif" font-size="14.00">ca ≤ 0.5</text>
<text text-anchor="start" x="548" y="-632.8" font-family="Helvetica,sans-Serif" font-size="14.00">entropy = 0.966</text>
<text text-anchor="start" x="554.5" y="-617.8" font-family="Helvetica,sans-Serif" font-size="14.00">samples = 23</text>
<text text-anchor="start" x="552.5" y="-602.8" font-family="Helvetica,sans-Serif" font-size="14.00">value = [9, 14]</text>
<text text-anchor="start" x="545.5" y="-587.8" font-family="Helvetica,sans-Serif" font-size="14.00">class = Decease</text>
</g>
<!-- 1&#45;&gt;13 -->
<g id="edge13" class="edge">
<title>1&#45;&gt;13</title>
<path fill="none" stroke="black" d="M595.5,-698.91C595.5,-690.65 595.5,-681.86 595.5,-673.3"/>
<polygon fill="black" stroke="black" points="599,-673.02 595.5,-663.02 592,-673.02 599,-673.02"/>
</g>
<!-- 3 -->
<g id="node4" class="node">
<title>3</title>
<path fill="#e78945" stroke="black" d="M280,-544C280,-544 167,-544 167,-544 161,-544 155,-538 155,-532 155,-532 155,-473 155,-473 155,-467 161,-461 167,-461 167,-461 280,-461 280,-461 286,-461 292,-467 292,-473 292,-473 292,-532 292,-532 292,-538 286,-544 280,-544"/>
<text text-anchor="start" x="199" y="-528.8" font-family="Helvetica,sans-Serif" font-size="14.00">ca ≤ 0.5</text>
<text text-anchor="start" x="176" y="-513.8" font-family="Helvetica,sans-Serif" font-size="14.00">entropy = 0.314</text>
<text text-anchor="start" x="182.5" y="-498.8" font-family="Helvetica,sans-Serif" font-size="14.00">samples = 53</text>
<text text-anchor="start" x="180.5" y="-483.8" font-family="Helvetica,sans-Serif" font-size="14.00">value = [50, 3]</text>
<text text-anchor="start" x="163" y="-468.8" font-family="Helvetica,sans-Serif" font-size="14.00">class = No Decease</text>
</g>
<!-- 2&#45;&gt;3 -->
<g id="edge3" class="edge">
<title>2&#45;&gt;3</title>
<path fill="none" stroke="black" d="M321.46,-579.91C309.24,-570.38 296.13,-560.15 283.59,-550.37"/>
<polygon fill="black" stroke="black" points="285.49,-547.41 275.45,-544.02 281.18,-552.93 285.49,-547.41"/>
</g>
<!-- 12 -->
<g id="node13" class="node">
<title>12</title>
<path fill="#399de5" stroke="black" d="M419.5,-536.5C419.5,-536.5 327.5,-536.5 327.5,-536.5 321.5,-536.5 315.5,-530.5 315.5,-524.5 315.5,-524.5 315.5,-480.5 315.5,-480.5 315.5,-474.5 321.5,-468.5 327.5,-468.5 327.5,-468.5 419.5,-468.5 419.5,-468.5 425.5,-468.5 431.5,-474.5 431.5,-480.5 431.5,-480.5 431.5,-524.5 431.5,-524.5 431.5,-530.5 425.5,-536.5 419.5,-536.5"/>
<text text-anchor="start" x="333.5" y="-521.3" font-family="Helvetica,sans-Serif" font-size="14.00">entropy = 0.0</text>
<text text-anchor="start" x="336" y="-506.3" font-family="Helvetica,sans-Serif" font-size="14.00">samples = 2</text>
<text text-anchor="start" x="334" y="-491.3" font-family="Helvetica,sans-Serif" font-size="14.00">value = [0, 2]</text>
<text text-anchor="start" x="323.5" y="-476.3" font-family="Helvetica,sans-Serif" font-size="14.00">class = Decease</text>
</g>
<!-- 2&#45;&gt;12 -->
<g id="edge12" class="edge">
<title>2&#45;&gt;12</title>
<path fill="none" stroke="black" d="M373.5,-579.91C373.5,-569.2 373.5,-557.62 373.5,-546.78"/>
<polygon fill="black" stroke="black" points="377,-546.67 373.5,-536.67 370,-546.67 377,-546.67"/>
</g>
<!-- 4 -->
<g id="node5" class="node">
<title>4</title>
<path fill="#e58139" stroke="black" d="M125,-417.5C125,-417.5 12,-417.5 12,-417.5 6,-417.5 0,-411.5 0,-405.5 0,-405.5 0,-361.5 0,-361.5 0,-355.5 6,-349.5 12,-349.5 12,-349.5 125,-349.5 125,-349.5 131,-349.5 137,-355.5 137,-361.5 137,-361.5 137,-405.5 137,-405.5 137,-411.5 131,-417.5 125,-417.5"/>
<text text-anchor="start" x="28.5" y="-402.3" font-family="Helvetica,sans-Serif" font-size="14.00">entropy = 0.0</text>
<text text-anchor="start" x="27.5" y="-387.3" font-family="Helvetica,sans-Serif" font-size="14.00">samples = 39</text>
<text text-anchor="start" x="25.5" y="-372.3" font-family="Helvetica,sans-Serif" font-size="14.00">value = [39, 0]</text>
<text text-anchor="start" x="8" y="-357.3" font-family="Helvetica,sans-Serif" font-size="14.00">class = No Decease</text>
</g>
<!-- 3&#45;&gt;4 -->
<g id="edge4" class="edge">
<title>3&#45;&gt;4</title>
<path fill="none" stroke="black" d="M169.72,-460.91C153.79,-448.88 136.37,-435.73 120.55,-423.79"/>
<polygon fill="black" stroke="black" points="122.53,-420.9 112.44,-417.67 118.31,-426.49 122.53,-420.9"/>
</g>
<!-- 5 -->
<g id="node6" class="node">
<title>5</title>
<path fill="#eca36f" stroke="black" d="M280,-425C280,-425 167,-425 167,-425 161,-425 155,-419 155,-413 155,-413 155,-354 155,-354 155,-348 161,-342 167,-342 167,-342 280,-342 280,-342 286,-342 292,-348 292,-354 292,-354 292,-413 292,-413 292,-419 286,-425 280,-425"/>
<text text-anchor="start" x="184" y="-409.8" font-family="Helvetica,sans-Serif" font-size="14.00">restecg ≤ 1.0</text>
<text text-anchor="start" x="179.5" y="-394.8" font-family="Helvetica,sans-Serif" font-size="14.00">entropy = 0.75</text>
<text text-anchor="start" x="182.5" y="-379.8" font-family="Helvetica,sans-Serif" font-size="14.00">samples = 14</text>
<text text-anchor="start" x="181" y="-364.8" font-family="Helvetica,sans-Serif" font-size="14.00">value = [11, 3]</text>
<text text-anchor="start" x="163" y="-349.8" font-family="Helvetica,sans-Serif" font-size="14.00">class = No Decease</text>
</g>
<!-- 3&#45;&gt;5 -->
<g id="edge5" class="edge">
<title>3&#45;&gt;5</title>
<path fill="none" stroke="black" d="M223.5,-460.91C223.5,-452.65 223.5,-443.86 223.5,-435.3"/>
<polygon fill="black" stroke="black" points="227,-435.02 223.5,-425.02 220,-435.02 227,-435.02"/>
</g>
<!-- 6 -->
<g id="node7" class="node">
<title>6</title>
<path fill="#e58139" stroke="black" d="M125,-298.5C125,-298.5 12,-298.5 12,-298.5 6,-298.5 0,-292.5 0,-286.5 0,-286.5 0,-242.5 0,-242.5 0,-236.5 6,-230.5 12,-230.5 12,-230.5 125,-230.5 125,-230.5 131,-230.5 137,-236.5 137,-242.5 137,-242.5 137,-286.5 137,-286.5 137,-292.5 131,-298.5 125,-298.5"/>
<text text-anchor="start" x="28.5" y="-283.3" font-family="Helvetica,sans-Serif" font-size="14.00">entropy = 0.0</text>
<text text-anchor="start" x="31" y="-268.3" font-family="Helvetica,sans-Serif" font-size="14.00">samples = 7</text>
<text text-anchor="start" x="29" y="-253.3" font-family="Helvetica,sans-Serif" font-size="14.00">value = [7, 0]</text>
<text text-anchor="start" x="8" y="-238.3" font-family="Helvetica,sans-Serif" font-size="14.00">class = No Decease</text>
</g>
<!-- 5&#45;&gt;6 -->
<g id="edge6" class="edge">
<title>5&#45;&gt;6</title>
<path fill="none" stroke="black" d="M169.72,-341.91C153.79,-329.88 136.37,-316.73 120.55,-304.79"/>
<polygon fill="black" stroke="black" points="122.53,-301.9 112.44,-298.67 118.31,-307.49 122.53,-301.9"/>
</g>
<!-- 7 -->
<g id="node8" class="node">
<title>7</title>
<path fill="#f8e0ce" stroke="black" d="M280,-306C280,-306 167,-306 167,-306 161,-306 155,-300 155,-294 155,-294 155,-235 155,-235 155,-229 161,-223 167,-223 167,-223 280,-223 280,-223 286,-223 292,-229 292,-235 292,-235 292,-294 292,-294 292,-300 286,-306 280,-306"/>
<text text-anchor="start" x="186.5" y="-290.8" font-family="Helvetica,sans-Serif" font-size="14.00">chol ≤ 220.5</text>
<text text-anchor="start" x="176" y="-275.8" font-family="Helvetica,sans-Serif" font-size="14.00">entropy = 0.985</text>
<text text-anchor="start" x="186" y="-260.8" font-family="Helvetica,sans-Serif" font-size="14.00">samples = 7</text>
<text text-anchor="start" x="184" y="-245.8" font-family="Helvetica,sans-Serif" font-size="14.00">value = [4, 3]</text>
<text text-anchor="start" x="163" y="-230.8" font-family="Helvetica,sans-Serif" font-size="14.00">class = No Decease</text>
</g>
<!-- 5&#45;&gt;7 -->
<g id="edge7" class="edge">
<title>5&#45;&gt;7</title>
<path fill="none" stroke="black" d="M223.5,-341.91C223.5,-333.65 223.5,-324.86 223.5,-316.3"/>
<polygon fill="black" stroke="black" points="227,-316.02 223.5,-306.02 220,-316.02 227,-316.02"/>
</g>
<!-- 8 -->
<g id="node9" class="node">
<title>8</title>
<path fill="#399de5" stroke="black" d="M126.5,-179.5C126.5,-179.5 34.5,-179.5 34.5,-179.5 28.5,-179.5 22.5,-173.5 22.5,-167.5 22.5,-167.5 22.5,-123.5 22.5,-123.5 22.5,-117.5 28.5,-111.5 34.5,-111.5 34.5,-111.5 126.5,-111.5 126.5,-111.5 132.5,-111.5 138.5,-117.5 138.5,-123.5 138.5,-123.5 138.5,-167.5 138.5,-167.5 138.5,-173.5 132.5,-179.5 126.5,-179.5"/>
<text text-anchor="start" x="40.5" y="-164.3" font-family="Helvetica,sans-Serif" font-size="14.00">entropy = 0.0</text>
<text text-anchor="start" x="43" y="-149.3" font-family="Helvetica,sans-Serif" font-size="14.00">samples = 2</text>
<text text-anchor="start" x="41" y="-134.3" font-family="Helvetica,sans-Serif" font-size="14.00">value = [0, 2]</text>
<text text-anchor="start" x="30.5" y="-119.3" font-family="Helvetica,sans-Serif" font-size="14.00">class = Decease</text>
</g>
<!-- 7&#45;&gt;8 -->
<g id="edge8" class="edge">
<title>7&#45;&gt;8</title>
<path fill="none" stroke="black" d="M173.89,-222.91C159.32,-210.99 143.41,-197.98 128.92,-186.12"/>
<polygon fill="black" stroke="black" points="130.99,-183.29 121.04,-179.67 126.56,-188.71 130.99,-183.29"/>
</g>
<!-- 9 -->
<g id="node10" class="node">
<title>9</title>
<path fill="#eca06a" stroke="black" d="M282,-187C282,-187 169,-187 169,-187 163,-187 157,-181 157,-175 157,-175 157,-116 157,-116 157,-110 163,-104 169,-104 169,-104 282,-104 282,-104 288,-104 294,-110 294,-116 294,-116 294,-175 294,-175 294,-181 288,-187 282,-187"/>
<text text-anchor="start" x="193.5" y="-171.8" font-family="Helvetica,sans-Serif" font-size="14.00">age ≤ 57.5</text>
<text text-anchor="start" x="178" y="-156.8" font-family="Helvetica,sans-Serif" font-size="14.00">entropy = 0.722</text>
<text text-anchor="start" x="188" y="-141.8" font-family="Helvetica,sans-Serif" font-size="14.00">samples = 5</text>
<text text-anchor="start" x="186" y="-126.8" font-family="Helvetica,sans-Serif" font-size="14.00">value = [4, 1]</text>
<text text-anchor="start" x="165" y="-111.8" font-family="Helvetica,sans-Serif" font-size="14.00">class = No Decease</text>
</g>
<!-- 7&#45;&gt;9 -->
<g id="edge9" class="edge">
<title>7&#45;&gt;9</title>
<path fill="none" stroke="black" d="M224.19,-222.91C224.34,-214.56 224.49,-205.67 224.64,-197.02"/>
<polygon fill="black" stroke="black" points="228.14,-197.08 224.81,-187.02 221.14,-196.96 228.14,-197.08"/>
</g>
<!-- 10 -->
<g id="node11" class="node">
<title>10</title>
<path fill="#e58139" stroke="black" d="M210,-68C210,-68 97,-68 97,-68 91,-68 85,-62 85,-56 85,-56 85,-12 85,-12 85,-6 91,0 97,0 97,0 210,0 210,0 216,0 222,-6 222,-12 222,-12 222,-56 222,-56 222,-62 216,-68 210,-68"/>
<text text-anchor="start" x="113.5" y="-52.8" font-family="Helvetica,sans-Serif" font-size="14.00">entropy = 0.0</text>
<text text-anchor="start" x="116" y="-37.8" font-family="Helvetica,sans-Serif" font-size="14.00">samples = 4</text>
<text text-anchor="start" x="114" y="-22.8" font-family="Helvetica,sans-Serif" font-size="14.00">value = [4, 0]</text>
<text text-anchor="start" x="93" y="-7.8" font-family="Helvetica,sans-Serif" font-size="14.00">class = No Decease</text>
</g>
<!-- 9&#45;&gt;10 -->
<g id="edge10" class="edge">
<title>9&#45;&gt;10</title>
<path fill="none" stroke="black" d="M198.69,-103.73C192.93,-94.97 186.84,-85.7 181.05,-76.91"/>
<polygon fill="black" stroke="black" points="183.81,-74.73 175.4,-68.3 177.97,-78.58 183.81,-74.73"/>
</g>
<!-- 11 -->
<g id="node12" class="node">
<title>11</title>
<path fill="#399de5" stroke="black" d="M344.5,-68C344.5,-68 252.5,-68 252.5,-68 246.5,-68 240.5,-62 240.5,-56 240.5,-56 240.5,-12 240.5,-12 240.5,-6 246.5,0 252.5,0 252.5,0 344.5,0 344.5,0 350.5,0 356.5,-6 356.5,-12 356.5,-12 356.5,-56 356.5,-56 356.5,-62 350.5,-68 344.5,-68"/>
<text text-anchor="start" x="258.5" y="-52.8" font-family="Helvetica,sans-Serif" font-size="14.00">entropy = 0.0</text>
<text text-anchor="start" x="261" y="-37.8" font-family="Helvetica,sans-Serif" font-size="14.00">samples = 1</text>
<text text-anchor="start" x="259" y="-22.8" font-family="Helvetica,sans-Serif" font-size="14.00">value = [0, 1]</text>
<text text-anchor="start" x="248.5" y="-7.8" font-family="Helvetica,sans-Serif" font-size="14.00">class = Decease</text>
</g>
<!-- 9&#45;&gt;11 -->
<g id="edge11" class="edge">
<title>9&#45;&gt;11</title>
<path fill="none" stroke="black" d="M252.68,-103.73C258.58,-94.88 264.83,-85.51 270.75,-76.63"/>
<polygon fill="black" stroke="black" points="273.67,-78.56 276.3,-68.3 267.84,-74.68 273.67,-78.56"/>
</g>
<!-- 14 -->
<g id="node15" class="node">
<title>14</title>
<path fill="#efb083" stroke="black" d="M580,-544C580,-544 467,-544 467,-544 461,-544 455,-538 455,-532 455,-532 455,-473 455,-473 455,-467 461,-461 467,-461 467,-461 580,-461 580,-461 586,-461 592,-467 592,-473 592,-473 592,-532 592,-532 592,-538 586,-544 580,-544"/>
<text text-anchor="start" x="477" y="-528.8" font-family="Helvetica,sans-Serif" font-size="14.00">thalach ≤ 159.5</text>
<text text-anchor="start" x="476" y="-513.8" font-family="Helvetica,sans-Serif" font-size="14.00">entropy = 0.845</text>
<text text-anchor="start" x="482.5" y="-498.8" font-family="Helvetica,sans-Serif" font-size="14.00">samples = 11</text>
<text text-anchor="start" x="484" y="-483.8" font-family="Helvetica,sans-Serif" font-size="14.00">value = [8, 3]</text>
<text text-anchor="start" x="463" y="-468.8" font-family="Helvetica,sans-Serif" font-size="14.00">class = No Decease</text>
</g>
<!-- 13&#45;&gt;14 -->
<g id="edge14" class="edge">
<title>13&#45;&gt;14</title>
<path fill="none" stroke="black" d="M570.52,-579.91C565.1,-571.1 559.32,-561.7 553.72,-552.61"/>
<polygon fill="black" stroke="black" points="556.66,-550.7 548.44,-544.02 550.7,-554.37 556.66,-550.7"/>
</g>
<!-- 21 -->
<g id="node22" class="node">
<title>21</title>
<path fill="#4ba6e7" stroke="black" d="M714.5,-544C714.5,-544 622.5,-544 622.5,-544 616.5,-544 610.5,-538 610.5,-532 610.5,-532 610.5,-473 610.5,-473 610.5,-467 616.5,-461 622.5,-461 622.5,-461 714.5,-461 714.5,-461 720.5,-461 726.5,-467 726.5,-473 726.5,-473 726.5,-532 726.5,-532 726.5,-538 720.5,-544 714.5,-544"/>
<text text-anchor="start" x="642.5" y="-528.8" font-family="Helvetica,sans-Serif" font-size="14.00">fbs ≤ 0.5</text>
<text text-anchor="start" x="621" y="-513.8" font-family="Helvetica,sans-Serif" font-size="14.00">entropy = 0.414</text>
<text text-anchor="start" x="627.5" y="-498.8" font-family="Helvetica,sans-Serif" font-size="14.00">samples = 12</text>
<text text-anchor="start" x="626" y="-483.8" font-family="Helvetica,sans-Serif" font-size="14.00">value = [1, 11]</text>
<text text-anchor="start" x="618.5" y="-468.8" font-family="Helvetica,sans-Serif" font-size="14.00">class = Decease</text>
</g>
<!-- 13&#45;&gt;21 -->
<g id="edge21" class="edge">
<title>13&#45;&gt;21</title>
<path fill="none" stroke="black" d="M620.83,-579.91C626.32,-571.1 632.19,-561.7 637.86,-552.61"/>
<polygon fill="black" stroke="black" points="640.89,-554.36 643.22,-544.02 634.95,-550.65 640.89,-554.36"/>
</g>
<!-- 15 -->
<g id="node16" class="node">
<title>15</title>
<path fill="#bddef6" stroke="black" d="M424.5,-425C424.5,-425 332.5,-425 332.5,-425 326.5,-425 320.5,-419 320.5,-413 320.5,-413 320.5,-354 320.5,-354 320.5,-348 326.5,-342 332.5,-342 332.5,-342 424.5,-342 424.5,-342 430.5,-342 436.5,-348 436.5,-354 436.5,-354 436.5,-413 436.5,-413 436.5,-419 430.5,-425 424.5,-425"/>
<text text-anchor="start" x="337.5" y="-409.8" font-family="Helvetica,sans-Serif" font-size="14.00">oldpeak ≤ 0.7</text>
<text text-anchor="start" x="331" y="-394.8" font-family="Helvetica,sans-Serif" font-size="14.00">entropy = 0.971</text>
<text text-anchor="start" x="341" y="-379.8" font-family="Helvetica,sans-Serif" font-size="14.00">samples = 5</text>
<text text-anchor="start" x="339" y="-364.8" font-family="Helvetica,sans-Serif" font-size="14.00">value = [2, 3]</text>
<text text-anchor="start" x="328.5" y="-349.8" font-family="Helvetica,sans-Serif" font-size="14.00">class = Decease</text>
</g>
<!-- 14&#45;&gt;15 -->
<g id="edge15" class="edge">
<title>14&#45;&gt;15</title>
<path fill="none" stroke="black" d="M473.19,-460.91C461.38,-451.38 448.71,-441.15 436.59,-431.37"/>
<polygon fill="black" stroke="black" points="438.7,-428.58 428.72,-425.02 434.3,-434.02 438.7,-428.58"/>
</g>
<!-- 20 -->
<g id="node21" class="node">
<title>20</title>
<path fill="#e58139" stroke="black" d="M580,-417.5C580,-417.5 467,-417.5 467,-417.5 461,-417.5 455,-411.5 455,-405.5 455,-405.5 455,-361.5 455,-361.5 455,-355.5 461,-349.5 467,-349.5 467,-349.5 580,-349.5 580,-349.5 586,-349.5 592,-355.5 592,-361.5 592,-361.5 592,-405.5 592,-405.5 592,-411.5 586,-417.5 580,-417.5"/>
<text text-anchor="start" x="483.5" y="-402.3" font-family="Helvetica,sans-Serif" font-size="14.00">entropy = 0.0</text>
<text text-anchor="start" x="486" y="-387.3" font-family="Helvetica,sans-Serif" font-size="14.00">samples = 6</text>
<text text-anchor="start" x="484" y="-372.3" font-family="Helvetica,sans-Serif" font-size="14.00">value = [6, 0]</text>
<text text-anchor="start" x="463" y="-357.3" font-family="Helvetica,sans-Serif" font-size="14.00">class = No Decease</text>
</g>
<!-- 14&#45;&gt;20 -->
<g id="edge20" class="edge">
<title>14&#45;&gt;20</title>
<path fill="none" stroke="black" d="M523.5,-460.91C523.5,-450.2 523.5,-438.62 523.5,-427.78"/>
<polygon fill="black" stroke="black" points="527,-427.67 523.5,-417.67 520,-427.67 527,-427.67"/>
</g>
<!-- 16 -->
<g id="node17" class="node">
<title>16</title>
<path fill="#f2c09c" stroke="black" d="M435,-306C435,-306 322,-306 322,-306 316,-306 310,-300 310,-294 310,-294 310,-235 310,-235 310,-229 316,-223 322,-223 322,-223 435,-223 435,-223 441,-223 447,-229 447,-235 447,-235 447,-294 447,-294 447,-300 441,-306 435,-306"/>
<text text-anchor="start" x="346.5" y="-290.8" font-family="Helvetica,sans-Serif" font-size="14.00">age ≤ 49.0</text>
<text text-anchor="start" x="331" y="-275.8" font-family="Helvetica,sans-Serif" font-size="14.00">entropy = 0.918</text>
<text text-anchor="start" x="341" y="-260.8" font-family="Helvetica,sans-Serif" font-size="14.00">samples = 3</text>
<text text-anchor="start" x="339" y="-245.8" font-family="Helvetica,sans-Serif" font-size="14.00">value = [2, 1]</text>
<text text-anchor="start" x="318" y="-230.8" font-family="Helvetica,sans-Serif" font-size="14.00">class = No Decease</text>
</g>
<!-- 15&#45;&gt;16 -->
<g id="edge16" class="edge">
<title>15&#45;&gt;16</title>
<path fill="none" stroke="black" d="M378.5,-341.91C378.5,-333.65 378.5,-324.86 378.5,-316.3"/>
<polygon fill="black" stroke="black" points="382,-316.02 378.5,-306.02 375,-316.02 382,-316.02"/>
</g>
<!-- 19 -->
<g id="node20" class="node">
<title>19</title>
<path fill="#399de5" stroke="black" d="M569.5,-298.5C569.5,-298.5 477.5,-298.5 477.5,-298.5 471.5,-298.5 465.5,-292.5 465.5,-286.5 465.5,-286.5 465.5,-242.5 465.5,-242.5 465.5,-236.5 471.5,-230.5 477.5,-230.5 477.5,-230.5 569.5,-230.5 569.5,-230.5 575.5,-230.5 581.5,-236.5 581.5,-242.5 581.5,-242.5 581.5,-286.5 581.5,-286.5 581.5,-292.5 575.5,-298.5 569.5,-298.5"/>
<text text-anchor="start" x="483.5" y="-283.3" font-family="Helvetica,sans-Serif" font-size="14.00">entropy = 0.0</text>
<text text-anchor="start" x="486" y="-268.3" font-family="Helvetica,sans-Serif" font-size="14.00">samples = 2</text>
<text text-anchor="start" x="484" y="-253.3" font-family="Helvetica,sans-Serif" font-size="14.00">value = [0, 2]</text>
<text text-anchor="start" x="473.5" y="-238.3" font-family="Helvetica,sans-Serif" font-size="14.00">class = Decease</text>
</g>
<!-- 15&#45;&gt;19 -->
<g id="edge19" class="edge">
<title>15&#45;&gt;19</title>
<path fill="none" stroke="black" d="M428.81,-341.91C443.58,-329.99 459.71,-316.98 474.4,-305.12"/>
<polygon fill="black" stroke="black" points="476.81,-307.67 482.4,-298.67 472.42,-302.22 476.81,-307.67"/>
</g>
<!-- 17 -->
<g id="node18" class="node">
<title>17</title>
<path fill="#399de5" stroke="black" d="M421.5,-179.5C421.5,-179.5 329.5,-179.5 329.5,-179.5 323.5,-179.5 317.5,-173.5 317.5,-167.5 317.5,-167.5 317.5,-123.5 317.5,-123.5 317.5,-117.5 323.5,-111.5 329.5,-111.5 329.5,-111.5 421.5,-111.5 421.5,-111.5 427.5,-111.5 433.5,-117.5 433.5,-123.5 433.5,-123.5 433.5,-167.5 433.5,-167.5 433.5,-173.5 427.5,-179.5 421.5,-179.5"/>
<text text-anchor="start" x="335.5" y="-164.3" font-family="Helvetica,sans-Serif" font-size="14.00">entropy = 0.0</text>
<text text-anchor="start" x="338" y="-149.3" font-family="Helvetica,sans-Serif" font-size="14.00">samples = 1</text>
<text text-anchor="start" x="336" y="-134.3" font-family="Helvetica,sans-Serif" font-size="14.00">value = [0, 1]</text>
<text text-anchor="start" x="325.5" y="-119.3" font-family="Helvetica,sans-Serif" font-size="14.00">class = Decease</text>
</g>
<!-- 16&#45;&gt;17 -->
<g id="edge17" class="edge">
<title>16&#45;&gt;17</title>
<path fill="none" stroke="black" d="M377.46,-222.91C377.18,-212.2 376.89,-200.62 376.61,-189.78"/>
<polygon fill="black" stroke="black" points="380.11,-189.57 376.35,-179.67 373.11,-189.75 380.11,-189.57"/>
</g>
<!-- 18 -->
<g id="node19" class="node">
<title>18</title>
<path fill="#e58139" stroke="black" d="M577,-179.5C577,-179.5 464,-179.5 464,-179.5 458,-179.5 452,-173.5 452,-167.5 452,-167.5 452,-123.5 452,-123.5 452,-117.5 458,-111.5 464,-111.5 464,-111.5 577,-111.5 577,-111.5 583,-111.5 589,-117.5 589,-123.5 589,-123.5 589,-167.5 589,-167.5 589,-173.5 583,-179.5 577,-179.5"/>
<text text-anchor="start" x="480.5" y="-164.3" font-family="Helvetica,sans-Serif" font-size="14.00">entropy = 0.0</text>
<text text-anchor="start" x="483" y="-149.3" font-family="Helvetica,sans-Serif" font-size="14.00">samples = 2</text>
<text text-anchor="start" x="481" y="-134.3" font-family="Helvetica,sans-Serif" font-size="14.00">value = [2, 0]</text>
<text text-anchor="start" x="460" y="-119.3" font-family="Helvetica,sans-Serif" font-size="14.00">class = No Decease</text>
</g>
<!-- 16&#45;&gt;18 -->
<g id="edge18" class="edge">
<title>16&#45;&gt;18</title>
<path fill="none" stroke="black" d="M427.77,-222.91C442.23,-210.99 458.03,-197.98 472.41,-186.12"/>
<polygon fill="black" stroke="black" points="474.75,-188.73 480.25,-179.67 470.3,-183.32 474.75,-188.73"/>
</g>
<!-- 22 -->
<g id="node23" class="node">
<title>22</title>
<path fill="#399de5" stroke="black" d="M714.5,-417.5C714.5,-417.5 622.5,-417.5 622.5,-417.5 616.5,-417.5 610.5,-411.5 610.5,-405.5 610.5,-405.5 610.5,-361.5 610.5,-361.5 610.5,-355.5 616.5,-349.5 622.5,-349.5 622.5,-349.5 714.5,-349.5 714.5,-349.5 720.5,-349.5 726.5,-355.5 726.5,-361.5 726.5,-361.5 726.5,-405.5 726.5,-405.5 726.5,-411.5 720.5,-417.5 714.5,-417.5"/>
<text text-anchor="start" x="628.5" y="-402.3" font-family="Helvetica,sans-Serif" font-size="14.00">entropy = 0.0</text>
<text text-anchor="start" x="627.5" y="-387.3" font-family="Helvetica,sans-Serif" font-size="14.00">samples = 11</text>
<text text-anchor="start" x="626" y="-372.3" font-family="Helvetica,sans-Serif" font-size="14.00">value = [0, 11]</text>
<text text-anchor="start" x="618.5" y="-357.3" font-family="Helvetica,sans-Serif" font-size="14.00">class = Decease</text>
</g>
<!-- 21&#45;&gt;22 -->
<g id="edge22" class="edge">
<title>21&#45;&gt;22</title>
<path fill="none" stroke="black" d="M668.5,-460.91C668.5,-450.2 668.5,-438.62 668.5,-427.78"/>
<polygon fill="black" stroke="black" points="672,-427.67 668.5,-417.67 665,-427.67 672,-427.67"/>
</g>
<!-- 23 -->
<g id="node24" class="node">
<title>23</title>
<path fill="#e58139" stroke="black" d="M870,-417.5C870,-417.5 757,-417.5 757,-417.5 751,-417.5 745,-411.5 745,-405.5 745,-405.5 745,-361.5 745,-361.5 745,-355.5 751,-349.5 757,-349.5 757,-349.5 870,-349.5 870,-349.5 876,-349.5 882,-355.5 882,-361.5 882,-361.5 882,-405.5 882,-405.5 882,-411.5 876,-417.5 870,-417.5"/>
<text text-anchor="start" x="773.5" y="-402.3" font-family="Helvetica,sans-Serif" font-size="14.00">entropy = 0.0</text>
<text text-anchor="start" x="776" y="-387.3" font-family="Helvetica,sans-Serif" font-size="14.00">samples = 1</text>
<text text-anchor="start" x="774" y="-372.3" font-family="Helvetica,sans-Serif" font-size="14.00">value = [1, 0]</text>
<text text-anchor="start" x="753" y="-357.3" font-family="Helvetica,sans-Serif" font-size="14.00">class = No Decease</text>
</g>
<!-- 21&#45;&gt;23 -->
<g id="edge23" class="edge">
<title>21&#45;&gt;23</title>
<path fill="none" stroke="black" d="M718.81,-460.91C733.58,-448.99 749.71,-435.98 764.4,-424.12"/>
<polygon fill="black" stroke="black" points="766.81,-426.67 772.4,-417.67 762.42,-421.22 766.81,-426.67"/>
</g>
<!-- 25 -->
<g id="node26" class="node">
<title>25</title>
<path fill="#efb388" stroke="black" d="M870,-663C870,-663 757,-663 757,-663 751,-663 745,-657 745,-651 745,-651 745,-592 745,-592 745,-586 751,-580 757,-580 757,-580 870,-580 870,-580 876,-580 882,-586 882,-592 882,-592 882,-651 882,-651 882,-657 876,-663 870,-663"/>
<text text-anchor="start" x="765" y="-647.8" font-family="Helvetica,sans-Serif" font-size="14.00">trestbps ≤ 155.0</text>
<text text-anchor="start" x="766" y="-632.8" font-family="Helvetica,sans-Serif" font-size="14.00">entropy = 0.863</text>
<text text-anchor="start" x="776" y="-617.8" font-family="Helvetica,sans-Serif" font-size="14.00">samples = 7</text>
<text text-anchor="start" x="774" y="-602.8" font-family="Helvetica,sans-Serif" font-size="14.00">value = [5, 2]</text>
<text text-anchor="start" x="753" y="-587.8" font-family="Helvetica,sans-Serif" font-size="14.00">class = No Decease</text>
</g>
<!-- 24&#45;&gt;25 -->
<g id="edge25" class="edge">
<title>24&#45;&gt;25</title>
<path fill="none" stroke="black" d="M813.5,-698.91C813.5,-690.65 813.5,-681.86 813.5,-673.3"/>
<polygon fill="black" stroke="black" points="817,-673.02 813.5,-663.02 810,-673.02 817,-673.02"/>
</g>
<!-- 28 -->
<g id="node29" class="node">
<title>28</title>
<path fill="#399de5" stroke="black" d="M1004.5,-655.5C1004.5,-655.5 912.5,-655.5 912.5,-655.5 906.5,-655.5 900.5,-649.5 900.5,-643.5 900.5,-643.5 900.5,-599.5 900.5,-599.5 900.5,-593.5 906.5,-587.5 912.5,-587.5 912.5,-587.5 1004.5,-587.5 1004.5,-587.5 1010.5,-587.5 1016.5,-593.5 1016.5,-599.5 1016.5,-599.5 1016.5,-643.5 1016.5,-643.5 1016.5,-649.5 1010.5,-655.5 1004.5,-655.5"/>
<text text-anchor="start" x="918.5" y="-640.3" font-family="Helvetica,sans-Serif" font-size="14.00">entropy = 0.0</text>
<text text-anchor="start" x="917.5" y="-625.3" font-family="Helvetica,sans-Serif" font-size="14.00">samples = 33</text>
<text text-anchor="start" x="915.5" y="-610.3" font-family="Helvetica,sans-Serif" font-size="14.00">value = [0, 33]</text>
<text text-anchor="start" x="908.5" y="-595.3" font-family="Helvetica,sans-Serif" font-size="14.00">class = Decease</text>
</g>
<!-- 24&#45;&gt;28 -->
<g id="edge28" class="edge">
<title>24&#45;&gt;28</title>
<path fill="none" stroke="black" d="M863.81,-698.91C878.58,-686.99 894.71,-673.98 909.4,-662.12"/>
<polygon fill="black" stroke="black" points="911.81,-664.67 917.4,-655.67 907.42,-659.22 911.81,-664.67"/>
</g>
<!-- 26 -->
<g id="node27" class="node">
<title>26</title>
<path fill="#e58139" stroke="black" d="M870,-536.5C870,-536.5 757,-536.5 757,-536.5 751,-536.5 745,-530.5 745,-524.5 745,-524.5 745,-480.5 745,-480.5 745,-474.5 751,-468.5 757,-468.5 757,-468.5 870,-468.5 870,-468.5 876,-468.5 882,-474.5 882,-480.5 882,-480.5 882,-524.5 882,-524.5 882,-530.5 876,-536.5 870,-536.5"/>
<text text-anchor="start" x="773.5" y="-521.3" font-family="Helvetica,sans-Serif" font-size="14.00">entropy = 0.0</text>
<text text-anchor="start" x="776" y="-506.3" font-family="Helvetica,sans-Serif" font-size="14.00">samples = 5</text>
<text text-anchor="start" x="774" y="-491.3" font-family="Helvetica,sans-Serif" font-size="14.00">value = [5, 0]</text>
<text text-anchor="start" x="753" y="-476.3" font-family="Helvetica,sans-Serif" font-size="14.00">class = No Decease</text>
</g>
<!-- 25&#45;&gt;26 -->
<g id="edge26" class="edge">
<title>25&#45;&gt;26</title>
<path fill="none" stroke="black" d="M813.5,-579.91C813.5,-569.2 813.5,-557.62 813.5,-546.78"/>
<polygon fill="black" stroke="black" points="817,-546.67 813.5,-536.67 810,-546.67 817,-546.67"/>
</g>
<!-- 27 -->
<g id="node28" class="node">
<title>27</title>
<path fill="#399de5" stroke="black" d="M1004.5,-536.5C1004.5,-536.5 912.5,-536.5 912.5,-536.5 906.5,-536.5 900.5,-530.5 900.5,-524.5 900.5,-524.5 900.5,-480.5 900.5,-480.5 900.5,-474.5 906.5,-468.5 912.5,-468.5 912.5,-468.5 1004.5,-468.5 1004.5,-468.5 1010.5,-468.5 1016.5,-474.5 1016.5,-480.5 1016.5,-480.5 1016.5,-524.5 1016.5,-524.5 1016.5,-530.5 1010.5,-536.5 1004.5,-536.5"/>
<text text-anchor="start" x="918.5" y="-521.3" font-family="Helvetica,sans-Serif" font-size="14.00">entropy = 0.0</text>
<text text-anchor="start" x="921" y="-506.3" font-family="Helvetica,sans-Serif" font-size="14.00">samples = 2</text>
<text text-anchor="start" x="919" y="-491.3" font-family="Helvetica,sans-Serif" font-size="14.00">value = [0, 2]</text>
<text text-anchor="start" x="908.5" y="-476.3" font-family="Helvetica,sans-Serif" font-size="14.00">class = Decease</text>
</g>
<!-- 25&#45;&gt;27 -->
<g id="edge27" class="edge">
<title>25&#45;&gt;27</title>
<path fill="none" stroke="black" d="M863.81,-579.91C878.58,-567.99 894.71,-554.98 909.4,-543.12"/>
<polygon fill="black" stroke="black" points="911.81,-545.67 917.4,-536.67 907.42,-540.22 911.81,-545.67"/>
</g>
</g>
</svg>
