<?xml version="1.0" encoding="UTF-8" standalone="no"?>
<!DOCTYPE svg PUBLIC "-//W3C//DTD SVG 1.1//EN"
 "http://www.w3.org/Graphics/SVG/1.1/DTD/svg11.dtd">
<!-- Generated by graphviz version 2.50.0 (0)
 -->
<!-- Title: Tree Pages: 1 -->
<svg width="1453pt" height="1028pt"
 viewBox="0.00 0.00 1452.50 1028.00" xmlns="http://www.w3.org/2000/svg" xmlns:xlink="http://www.w3.org/1999/xlink">
<g id="graph0" class="graph" transform="scale(1 1) rotate(0) translate(4 1024)">
<title>Tree</title>
<polygon fill="white" stroke="transparent" points="-4,4 -4,-1024 1448.5,-1024 1448.5,4 -4,4"/>
<!-- 0 -->
<g id="node1" class="node">
<title>0</title>
<path fill="#fbebe0" stroke="black" d="M801,-1020C801,-1020 688,-1020 688,-1020 682,-1020 676,-1014 676,-1008 676,-1008 676,-949 676,-949 676,-943 682,-937 688,-937 688,-937 801,-937 801,-937 807,-937 813,-943 813,-949 813,-949 813,-1008 813,-1008 813,-1014 807,-1020 801,-1020"/>
<text text-anchor="start" x="720" y="-1004.8" font-family="Helvetica,sans-Serif" font-size="14.00">cp ≤ 3.5</text>
<text text-anchor="start" x="697" y="-989.8" font-family="Helvetica,sans-Serif" font-size="14.00">entropy = 0.995</text>
<text text-anchor="start" x="700" y="-974.8" font-family="Helvetica,sans-Serif" font-size="14.00">samples = 118</text>
<text text-anchor="start" x="697.5" y="-959.8" font-family="Helvetica,sans-Serif" font-size="14.00">value = [64, 54]</text>
<text text-anchor="start" x="684" y="-944.8" font-family="Helvetica,sans-Serif" font-size="14.00">class = No Decease</text>
</g>
<!-- 1 -->
<g id="node2" class="node">
<title>1</title>
<path fill="#eba069" stroke="black" d="M656,-901C656,-901 543,-901 543,-901 537,-901 531,-895 531,-889 531,-889 531,-830 531,-830 531,-824 537,-818 543,-818 543,-818 656,-818 656,-818 662,-818 668,-824 668,-830 668,-830 668,-889 668,-889 668,-895 662,-901 656,-901"/>
<text text-anchor="start" x="555" y="-885.8" font-family="Helvetica,sans-Serif" font-size="14.00">oldpeak ≤ 2.45</text>
<text text-anchor="start" x="552" y="-870.8" font-family="Helvetica,sans-Serif" font-size="14.00">entropy = 0.715</text>
<text text-anchor="start" x="558.5" y="-855.8" font-family="Helvetica,sans-Serif" font-size="14.00">samples = 61</text>
<text text-anchor="start" x="552.5" y="-840.8" font-family="Helvetica,sans-Serif" font-size="14.00">value = [49, 12]</text>
<text text-anchor="start" x="539" y="-825.8" font-family="Helvetica,sans-Serif" font-size="14.00">class = No Decease</text>
</g>
<!-- 0&#45;&gt;1 -->
<g id="edge1" class="edge">
<title>0&#45;&gt;1</title>
<path fill="none" stroke="black" d="M694.19,-936.91C682.38,-927.38 669.71,-917.15 657.59,-907.37"/>
<polygon fill="black" stroke="black" points="659.7,-904.58 649.72,-901.02 655.3,-910.02 659.7,-904.58"/>
<text text-anchor="middle" x="652.37" y="-922.18" font-family="Helvetica,sans-Serif" font-size="14.00">True</text>
</g>
<!-- 18 -->
<g id="node19" class="node">
<title>18</title>
<path fill="#80c0ee" stroke="black" d="M933.5,-901C933.5,-901 841.5,-901 841.5,-901 835.5,-901 829.5,-895 829.5,-889 829.5,-889 829.5,-830 829.5,-830 829.5,-824 835.5,-818 841.5,-818 841.5,-818 933.5,-818 933.5,-818 939.5,-818 945.5,-824 945.5,-830 945.5,-830 945.5,-889 945.5,-889 945.5,-895 939.5,-901 933.5,-901"/>
<text text-anchor="start" x="863" y="-885.8" font-family="Helvetica,sans-Serif" font-size="14.00">ca ≤ 0.5</text>
<text text-anchor="start" x="840" y="-870.8" font-family="Helvetica,sans-Serif" font-size="14.00">entropy = 0.831</text>
<text text-anchor="start" x="846.5" y="-855.8" font-family="Helvetica,sans-Serif" font-size="14.00">samples = 57</text>
<text text-anchor="start" x="840.5" y="-840.8" font-family="Helvetica,sans-Serif" font-size="14.00">value = [15, 42]</text>
<text text-anchor="start" x="837.5" y="-825.8" font-family="Helvetica,sans-Serif" font-size="14.00">class = Decease</text>
</g>
<!-- 0&#45;&gt;18 -->
<g id="edge18" class="edge">
<title>0&#45;&gt;18</title>
<path fill="none" stroke="black" d="M794.11,-936.91C805.76,-927.38 818.26,-917.15 830.21,-907.37"/>
<polygon fill="black" stroke="black" points="832.45,-910.06 837.97,-901.02 828.02,-904.64 832.45,-910.06"/>
<text text-anchor="middle" x="835.49" y="-922.2" font-family="Helvetica,sans-Serif" font-size="14.00">False</text>
</g>
<!-- 2 -->
<g id="node3" class="node">
<title>2</title>
<path fill="#e99356" stroke="black" d="M429,-782C429,-782 316,-782 316,-782 310,-782 304,-776 304,-770 304,-770 304,-711 304,-711 304,-705 310,-699 316,-699 316,-699 429,-699 429,-699 435,-699 441,-705 441,-711 441,-711 441,-770 441,-770 441,-776 435,-782 429,-782"/>
<text text-anchor="start" x="326" y="-766.8" font-family="Helvetica,sans-Serif" font-size="14.00">thalach ≤ 161.0</text>
<text text-anchor="start" x="328.5" y="-751.8" font-family="Helvetica,sans-Serif" font-size="14.00">entropy = 0.55</text>
<text text-anchor="start" x="331.5" y="-736.8" font-family="Helvetica,sans-Serif" font-size="14.00">samples = 55</text>
<text text-anchor="start" x="318" y="-721.8" font-family="Helvetica,sans-Serif" font-size="14.00">value = [48.0, 7.0]</text>
<text text-anchor="start" x="312" y="-706.8" font-family="Helvetica,sans-Serif" font-size="14.00">class = No Decease</text>
</g>
<!-- 1&#45;&gt;2 -->
<g id="edge2" class="edge">
<title>1&#45;&gt;2</title>
<path fill="none" stroke="black" d="M530.78,-823.08C505.45,-810.02 476.57,-795.14 450.48,-781.69"/>
<polygon fill="black" stroke="black" points="451.87,-778.47 441.38,-777 448.67,-784.7 451.87,-778.47"/>
</g>
<!-- 15 -->
<g id="node16" class="node">
<title>15</title>
<path fill="#61b1ea" stroke="black" d="M645.5,-782C645.5,-782 553.5,-782 553.5,-782 547.5,-782 541.5,-776 541.5,-770 541.5,-770 541.5,-711 541.5,-711 541.5,-705 547.5,-699 553.5,-699 553.5,-699 645.5,-699 645.5,-699 651.5,-699 657.5,-705 657.5,-711 657.5,-711 657.5,-770 657.5,-770 657.5,-776 651.5,-782 645.5,-782"/>
<text text-anchor="start" x="567.5" y="-766.8" font-family="Helvetica,sans-Serif" font-size="14.00">age ≤ 37.5</text>
<text text-anchor="start" x="555.5" y="-751.8" font-family="Helvetica,sans-Serif" font-size="14.00">entropy = 0.65</text>
<text text-anchor="start" x="562" y="-736.8" font-family="Helvetica,sans-Serif" font-size="14.00">samples = 6</text>
<text text-anchor="start" x="560" y="-721.8" font-family="Helvetica,sans-Serif" font-size="14.00">value = [1, 5]</text>
<text text-anchor="start" x="549.5" y="-706.8" font-family="Helvetica,sans-Serif" font-size="14.00">class = Decease</text>
</g>
<!-- 1&#45;&gt;15 -->
<g id="edge15" class="edge">
<title>1&#45;&gt;15</title>
<path fill="none" stroke="black" d="M599.5,-817.91C599.5,-809.65 599.5,-800.86 599.5,-792.3"/>
<polygon fill="black" stroke="black" points="603,-792.02 599.5,-782.02 596,-792.02 603,-792.02"/>
</g>
<!-- 3 -->
<g id="node4" class="node">
<title>3</title>
<path fill="#efb286" stroke="black" d="M274,-663C274,-663 161,-663 161,-663 155,-663 149,-657 149,-651 149,-651 149,-592 149,-592 149,-586 155,-580 161,-580 161,-580 274,-580 274,-580 280,-580 286,-586 286,-592 286,-592 286,-651 286,-651 286,-657 280,-663 274,-663"/>
<text text-anchor="start" x="193" y="-647.8" font-family="Helvetica,sans-Serif" font-size="14.00">ca ≤ 2.0</text>
<text text-anchor="start" x="170" y="-632.8" font-family="Helvetica,sans-Serif" font-size="14.00">entropy = 0.855</text>
<text text-anchor="start" x="176.5" y="-617.8" font-family="Helvetica,sans-Serif" font-size="14.00">samples = 25</text>
<text text-anchor="start" x="163" y="-602.8" font-family="Helvetica,sans-Serif" font-size="14.00">value = [18.0, 7.0]</text>
<text text-anchor="start" x="157" y="-587.8" font-family="Helvetica,sans-Serif" font-size="14.00">class = No Decease</text>
</g>
<!-- 2&#45;&gt;3 -->
<g id="edge3" class="edge">
<title>2&#45;&gt;3</title>
<path fill="none" stroke="black" d="M318.72,-698.91C305.98,-689.29 292.29,-678.95 279.22,-669.09"/>
<polygon fill="black" stroke="black" points="281.27,-666.25 271.18,-663.02 277.05,-671.84 281.27,-666.25"/>
</g>
<!-- 14 -->
<g id="node15" class="node">
<title>14</title>
<path fill="#e58139" stroke="black" d="M429,-655.5C429,-655.5 316,-655.5 316,-655.5 310,-655.5 304,-649.5 304,-643.5 304,-643.5 304,-599.5 304,-599.5 304,-593.5 310,-587.5 316,-587.5 316,-587.5 429,-587.5 429,-587.5 435,-587.5 441,-593.5 441,-599.5 441,-599.5 441,-643.5 441,-643.5 441,-649.5 435,-655.5 429,-655.5"/>
<text text-anchor="start" x="332.5" y="-640.3" font-family="Helvetica,sans-Serif" font-size="14.00">entropy = 0.0</text>
<text text-anchor="start" x="331.5" y="-625.3" font-family="Helvetica,sans-Serif" font-size="14.00">samples = 30</text>
<text text-anchor="start" x="329.5" y="-610.3" font-family="Helvetica,sans-Serif" font-size="14.00">value = [30, 0]</text>
<text text-anchor="start" x="312" y="-595.3" font-family="Helvetica,sans-Serif" font-size="14.00">class = No Decease</text>
</g>
<!-- 2&#45;&gt;14 -->
<g id="edge14" class="edge">
<title>2&#45;&gt;14</title>
<path fill="none" stroke="black" d="M372.5,-698.91C372.5,-688.2 372.5,-676.62 372.5,-665.78"/>
<polygon fill="black" stroke="black" points="376,-665.67 372.5,-655.67 369,-665.67 376,-665.67"/>
</g>
<!-- 4 -->
<g id="node5" class="node">
<title>4</title>
<path fill="#eca470" stroke="black" d="M202,-544C202,-544 89,-544 89,-544 83,-544 77,-538 77,-532 77,-532 77,-473 77,-473 77,-467 83,-461 89,-461 89,-461 202,-461 202,-461 208,-461 214,-467 214,-473 214,-473 214,-532 214,-532 214,-538 208,-544 202,-544"/>
<text text-anchor="start" x="113.5" y="-528.8" font-family="Helvetica,sans-Serif" font-size="14.00">age ≤ 56.0</text>
<text text-anchor="start" x="98" y="-513.8" font-family="Helvetica,sans-Serif" font-size="14.00">entropy = 0.755</text>
<text text-anchor="start" x="104.5" y="-498.8" font-family="Helvetica,sans-Serif" font-size="14.00">samples = 23</text>
<text text-anchor="start" x="102.5" y="-483.8" font-family="Helvetica,sans-Serif" font-size="14.00">value = [18, 5]</text>
<text text-anchor="start" x="85" y="-468.8" font-family="Helvetica,sans-Serif" font-size="14.00">class = No Decease</text>
</g>
<!-- 3&#45;&gt;4 -->
<g id="edge4" class="edge">
<title>3&#45;&gt;4</title>
<path fill="none" stroke="black" d="M192.52,-579.91C187.1,-571.1 181.32,-561.7 175.72,-552.61"/>
<polygon fill="black" stroke="black" points="178.66,-550.7 170.44,-544.02 172.7,-554.37 178.66,-550.7"/>
</g>
<!-- 13 -->
<g id="node14" class="node">
<title>13</title>
<path fill="#399de5" stroke="black" d="M336.5,-536.5C336.5,-536.5 244.5,-536.5 244.5,-536.5 238.5,-536.5 232.5,-530.5 232.5,-524.5 232.5,-524.5 232.5,-480.5 232.5,-480.5 232.5,-474.5 238.5,-468.5 244.5,-468.5 244.5,-468.5 336.5,-468.5 336.5,-468.5 342.5,-468.5 348.5,-474.5 348.5,-480.5 348.5,-480.5 348.5,-524.5 348.5,-524.5 348.5,-530.5 342.5,-536.5 336.5,-536.5"/>
<text text-anchor="start" x="250.5" y="-521.3" font-family="Helvetica,sans-Serif" font-size="14.00">entropy = 0.0</text>
<text text-anchor="start" x="253" y="-506.3" font-family="Helvetica,sans-Serif" font-size="14.00">samples = 2</text>
<text text-anchor="start" x="251" y="-491.3" font-family="Helvetica,sans-Serif" font-size="14.00">value = [0, 2]</text>
<text text-anchor="start" x="240.5" y="-476.3" font-family="Helvetica,sans-Serif" font-size="14.00">class = Decease</text>
</g>
<!-- 3&#45;&gt;13 -->
<g id="edge13" class="edge">
<title>3&#45;&gt;13</title>
<path fill="none" stroke="black" d="M242.83,-579.91C249.78,-568.76 257.33,-556.66 264.33,-545.44"/>
<polygon fill="black" stroke="black" points="267.48,-547 269.81,-536.67 261.54,-543.3 267.48,-547"/>
</g>
<!-- 5 -->
<g id="node6" class="node">
<title>5</title>
<path fill="#e58139" stroke="black" d="M125,-417.5C125,-417.5 12,-417.5 12,-417.5 6,-417.5 0,-411.5 0,-405.5 0,-405.5 0,-361.5 0,-361.5 0,-355.5 6,-349.5 12,-349.5 12,-349.5 125,-349.5 125,-349.5 131,-349.5 137,-355.5 137,-361.5 137,-361.5 137,-405.5 137,-405.5 137,-411.5 131,-417.5 125,-417.5"/>
<text text-anchor="start" x="28.5" y="-402.3" font-family="Helvetica,sans-Serif" font-size="14.00">entropy = 0.0</text>
<text text-anchor="start" x="31" y="-387.3" font-family="Helvetica,sans-Serif" font-size="14.00">samples = 9</text>
<text text-anchor="start" x="29" y="-372.3" font-family="Helvetica,sans-Serif" font-size="14.00">value = [9, 0]</text>
<text text-anchor="start" x="8" y="-357.3" font-family="Helvetica,sans-Serif" font-size="14.00">class = No Decease</text>
</g>
<!-- 4&#45;&gt;5 -->
<g id="edge5" class="edge">
<title>4&#45;&gt;5</title>
<path fill="none" stroke="black" d="M118.79,-460.91C111.38,-449.65 103.33,-437.42 95.88,-426.11"/>
<polygon fill="black" stroke="black" points="98.75,-424.1 90.33,-417.67 92.9,-427.94 98.75,-424.1"/>
</g>
<!-- 6 -->
<g id="node7" class="node">
<title>6</title>
<path fill="#f3c7a7" stroke="black" d="M280,-425C280,-425 167,-425 167,-425 161,-425 155,-419 155,-413 155,-413 155,-354 155,-354 155,-348 161,-342 167,-342 167,-342 280,-342 280,-342 286,-342 292,-348 292,-354 292,-354 292,-413 292,-413 292,-419 286,-425 280,-425"/>
<text text-anchor="start" x="191.5" y="-409.8" font-family="Helvetica,sans-Serif" font-size="14.00">age ≤ 60.0</text>
<text text-anchor="start" x="179.5" y="-394.8" font-family="Helvetica,sans-Serif" font-size="14.00">entropy = 0.94</text>
<text text-anchor="start" x="182.5" y="-379.8" font-family="Helvetica,sans-Serif" font-size="14.00">samples = 14</text>
<text text-anchor="start" x="184" y="-364.8" font-family="Helvetica,sans-Serif" font-size="14.00">value = [9, 5]</text>
<text text-anchor="start" x="163" y="-349.8" font-family="Helvetica,sans-Serif" font-size="14.00">class = No Decease</text>
</g>
<!-- 4&#45;&gt;6 -->
<g id="edge6" class="edge">
<title>4&#45;&gt;6</title>
<path fill="none" stroke="black" d="M172.56,-460.91C178.43,-452.1 184.7,-442.7 190.76,-433.61"/>
<polygon fill="black" stroke="black" points="193.85,-435.28 196.49,-425.02 188.03,-431.4 193.85,-435.28"/>
</g>
<!-- 7 -->
<g id="node8" class="node">
<title>7</title>
<path fill="#399de5" stroke="black" d="M197.5,-298.5C197.5,-298.5 105.5,-298.5 105.5,-298.5 99.5,-298.5 93.5,-292.5 93.5,-286.5 93.5,-286.5 93.5,-242.5 93.5,-242.5 93.5,-236.5 99.5,-230.5 105.5,-230.5 105.5,-230.5 197.5,-230.5 197.5,-230.5 203.5,-230.5 209.5,-236.5 209.5,-242.5 209.5,-242.5 209.5,-286.5 209.5,-286.5 209.5,-292.5 203.5,-298.5 197.5,-298.5"/>
<text text-anchor="start" x="111.5" y="-283.3" font-family="Helvetica,sans-Serif" font-size="14.00">entropy = 0.0</text>
<text text-anchor="start" x="114" y="-268.3" font-family="Helvetica,sans-Serif" font-size="14.00">samples = 2</text>
<text text-anchor="start" x="112" y="-253.3" font-family="Helvetica,sans-Serif" font-size="14.00">value = [0, 2]</text>
<text text-anchor="start" x="101.5" y="-238.3" font-family="Helvetica,sans-Serif" font-size="14.00">class = Decease</text>
</g>
<!-- 6&#45;&gt;7 -->
<g id="edge7" class="edge">
<title>6&#45;&gt;7</title>
<path fill="none" stroke="black" d="M198.52,-341.91C191.66,-330.76 184.21,-318.66 177.31,-307.44"/>
<polygon fill="black" stroke="black" points="180.13,-305.35 171.91,-298.67 174.17,-309.02 180.13,-305.35"/>
</g>
<!-- 8 -->
<g id="node9" class="node">
<title>8</title>
<path fill="#eeab7b" stroke="black" d="M353,-306C353,-306 240,-306 240,-306 234,-306 228,-300 228,-294 228,-294 228,-235 228,-235 228,-229 234,-223 240,-223 240,-223 353,-223 353,-223 359,-223 365,-229 365,-235 365,-235 365,-294 365,-294 365,-300 359,-306 353,-306"/>
<text text-anchor="start" x="268.5" y="-290.8" font-family="Helvetica,sans-Serif" font-size="14.00">thal ≤ 5.0</text>
<text text-anchor="start" x="249.5" y="-275.8" font-family="Helvetica,sans-Serif" font-size="14.00">entropy = 0.811</text>
<text text-anchor="start" x="255.5" y="-260.8" font-family="Helvetica,sans-Serif" font-size="14.00">samples = 12</text>
<text text-anchor="start" x="257" y="-245.8" font-family="Helvetica,sans-Serif" font-size="14.00">value = [9, 3]</text>
<text text-anchor="start" x="236" y="-230.8" font-family="Helvetica,sans-Serif" font-size="14.00">class = No Decease</text>
</g>
<!-- 6&#45;&gt;8 -->
<g id="edge8" class="edge">
<title>6&#45;&gt;8</title>
<path fill="none" stroke="black" d="M248.83,-341.91C254.32,-333.1 260.19,-323.7 265.86,-314.61"/>
<polygon fill="black" stroke="black" points="268.89,-316.36 271.22,-306.02 262.95,-312.65 268.89,-316.36"/>
</g>
<!-- 9 -->
<g id="node10" class="node">
<title>9</title>
<path fill="#e58139" stroke="black" d="M280,-179.5C280,-179.5 167,-179.5 167,-179.5 161,-179.5 155,-173.5 155,-167.5 155,-167.5 155,-123.5 155,-123.5 155,-117.5 161,-111.5 167,-111.5 167,-111.5 280,-111.5 280,-111.5 286,-111.5 292,-117.5 292,-123.5 292,-123.5 292,-167.5 292,-167.5 292,-173.5 286,-179.5 280,-179.5"/>
<text text-anchor="start" x="183.5" y="-164.3" font-family="Helvetica,sans-Serif" font-size="14.00">entropy = 0.0</text>
<text text-anchor="start" x="186" y="-149.3" font-family="Helvetica,sans-Serif" font-size="14.00">samples = 7</text>
<text text-anchor="start" x="184" y="-134.3" font-family="Helvetica,sans-Serif" font-size="14.00">value = [7, 0]</text>
<text text-anchor="start" x="163" y="-119.3" font-family="Helvetica,sans-Serif" font-size="14.00">class = No Decease</text>
</g>
<!-- 8&#45;&gt;9 -->
<g id="edge9" class="edge">
<title>8&#45;&gt;9</title>
<path fill="none" stroke="black" d="M271.17,-222.91C264.22,-211.76 256.67,-199.66 249.67,-188.44"/>
<polygon fill="black" stroke="black" points="252.46,-186.3 244.19,-179.67 246.52,-190 252.46,-186.3"/>
</g>
<!-- 10 -->
<g id="node11" class="node">
<title>10</title>
<path fill="#bddef6" stroke="black" d="M414.5,-187C414.5,-187 322.5,-187 322.5,-187 316.5,-187 310.5,-181 310.5,-175 310.5,-175 310.5,-116 310.5,-116 310.5,-110 316.5,-104 322.5,-104 322.5,-104 414.5,-104 414.5,-104 420.5,-104 426.5,-110 426.5,-116 426.5,-116 426.5,-175 426.5,-175 426.5,-181 420.5,-187 414.5,-187"/>
<text text-anchor="start" x="322" y="-171.8" font-family="Helvetica,sans-Serif" font-size="14.00">thalach ≤ 150.5</text>
<text text-anchor="start" x="321" y="-156.8" font-family="Helvetica,sans-Serif" font-size="14.00">entropy = 0.971</text>
<text text-anchor="start" x="331" y="-141.8" font-family="Helvetica,sans-Serif" font-size="14.00">samples = 5</text>
<text text-anchor="start" x="329" y="-126.8" font-family="Helvetica,sans-Serif" font-size="14.00">value = [2, 3]</text>
<text text-anchor="start" x="318.5" y="-111.8" font-family="Helvetica,sans-Serif" font-size="14.00">class = Decease</text>
</g>
<!-- 8&#45;&gt;10 -->
<g id="edge10" class="edge">
<title>8&#45;&gt;10</title>
<path fill="none" stroke="black" d="M321.48,-222.91C326.9,-214.1 332.68,-204.7 338.28,-195.61"/>
<polygon fill="black" stroke="black" points="341.3,-197.37 343.56,-187.02 335.34,-193.7 341.3,-197.37"/>
</g>
<!-- 11 -->
<g id="node12" class="node">
<title>11</title>
<path fill="#399de5" stroke="black" d="M342.5,-68C342.5,-68 250.5,-68 250.5,-68 244.5,-68 238.5,-62 238.5,-56 238.5,-56 238.5,-12 238.5,-12 238.5,-6 244.5,0 250.5,0 250.5,0 342.5,0 342.5,0 348.5,0 354.5,-6 354.5,-12 354.5,-12 354.5,-56 354.5,-56 354.5,-62 348.5,-68 342.5,-68"/>
<text text-anchor="start" x="256.5" y="-52.8" font-family="Helvetica,sans-Serif" font-size="14.00">entropy = 0.0</text>
<text text-anchor="start" x="259" y="-37.8" font-family="Helvetica,sans-Serif" font-size="14.00">samples = 3</text>
<text text-anchor="start" x="257" y="-22.8" font-family="Helvetica,sans-Serif" font-size="14.00">value = [0, 3]</text>
<text text-anchor="start" x="246.5" y="-7.8" font-family="Helvetica,sans-Serif" font-size="14.00">class = Decease</text>
</g>
<!-- 10&#45;&gt;11 -->
<g id="edge11" class="edge">
<title>10&#45;&gt;11</title>
<path fill="none" stroke="black" d="M341.69,-103.73C335.93,-94.97 329.84,-85.7 324.05,-76.91"/>
<polygon fill="black" stroke="black" points="326.81,-74.73 318.4,-68.3 320.97,-78.58 326.81,-74.73"/>
</g>
<!-- 12 -->
<g id="node13" class="node">
<title>12</title>
<path fill="#e58139" stroke="black" d="M498,-68C498,-68 385,-68 385,-68 379,-68 373,-62 373,-56 373,-56 373,-12 373,-12 373,-6 379,0 385,0 385,0 498,0 498,0 504,0 510,-6 510,-12 510,-12 510,-56 510,-56 510,-62 504,-68 498,-68"/>
<text text-anchor="start" x="401.5" y="-52.8" font-family="Helvetica,sans-Serif" font-size="14.00">entropy = 0.0</text>
<text text-anchor="start" x="404" y="-37.8" font-family="Helvetica,sans-Serif" font-size="14.00">samples = 2</text>
<text text-anchor="start" x="402" y="-22.8" font-family="Helvetica,sans-Serif" font-size="14.00">value = [2, 0]</text>
<text text-anchor="start" x="381" y="-7.8" font-family="Helvetica,sans-Serif" font-size="14.00">class = No Decease</text>
</g>
<!-- 10&#45;&gt;12 -->
<g id="edge12" class="edge">
<title>10&#45;&gt;12</title>
<path fill="none" stroke="black" d="M395.68,-103.73C401.58,-94.88 407.83,-85.51 413.75,-76.63"/>
<polygon fill="black" stroke="black" points="416.67,-78.56 419.3,-68.3 410.84,-74.68 416.67,-78.56"/>
</g>
<!-- 16 -->
<g id="node17" class="node">
<title>16</title>
<path fill="#e58139" stroke="black" d="M584,-655.5C584,-655.5 471,-655.5 471,-655.5 465,-655.5 459,-649.5 459,-643.5 459,-643.5 459,-599.5 459,-599.5 459,-593.5 465,-587.5 471,-587.5 471,-587.5 584,-587.5 584,-587.5 590,-587.5 596,-593.5 596,-599.5 596,-599.5 596,-643.5 596,-643.5 596,-649.5 590,-655.5 584,-655.5"/>
<text text-anchor="start" x="487.5" y="-640.3" font-family="Helvetica,sans-Serif" font-size="14.00">entropy = 0.0</text>
<text text-anchor="start" x="490" y="-625.3" font-family="Helvetica,sans-Serif" font-size="14.00">samples = 1</text>
<text text-anchor="start" x="488" y="-610.3" font-family="Helvetica,sans-Serif" font-size="14.00">value = [1, 0]</text>
<text text-anchor="start" x="467" y="-595.3" font-family="Helvetica,sans-Serif" font-size="14.00">class = No Decease</text>
</g>
<!-- 15&#45;&gt;16 -->
<g id="edge16" class="edge">
<title>15&#45;&gt;16</title>
<path fill="none" stroke="black" d="M574.52,-698.91C567.66,-687.76 560.21,-675.66 553.31,-664.44"/>
<polygon fill="black" stroke="black" points="556.13,-662.35 547.91,-655.67 550.17,-666.02 556.13,-662.35"/>
</g>
<!-- 17 -->
<g id="node18" class="node">
<title>17</title>
<path fill="#399de5" stroke="black" d="M718.5,-655.5C718.5,-655.5 626.5,-655.5 626.5,-655.5 620.5,-655.5 614.5,-649.5 614.5,-643.5 614.5,-643.5 614.5,-599.5 614.5,-599.5 614.5,-593.5 620.5,-587.5 626.5,-587.5 626.5,-587.5 718.5,-587.5 718.5,-587.5 724.5,-587.5 730.5,-593.5 730.5,-599.5 730.5,-599.5 730.5,-643.5 730.5,-643.5 730.5,-649.5 724.5,-655.5 718.5,-655.5"/>
<text text-anchor="start" x="632.5" y="-640.3" font-family="Helvetica,sans-Serif" font-size="14.00">entropy = 0.0</text>
<text text-anchor="start" x="635" y="-625.3" font-family="Helvetica,sans-Serif" font-size="14.00">samples = 5</text>
<text text-anchor="start" x="633" y="-610.3" font-family="Helvetica,sans-Serif" font-size="14.00">value = [0, 5]</text>
<text text-anchor="start" x="622.5" y="-595.3" font-family="Helvetica,sans-Serif" font-size="14.00">class = Decease</text>
</g>
<!-- 15&#45;&gt;17 -->
<g id="edge17" class="edge">
<title>15&#45;&gt;17</title>
<path fill="none" stroke="black" d="M624.83,-698.91C631.78,-687.76 639.33,-675.66 646.33,-664.44"/>
<polygon fill="black" stroke="black" points="649.48,-666 651.81,-655.67 643.54,-662.3 649.48,-666"/>
</g>
<!-- 19 -->
<g id="node20" class="node">
<title>19</title>
<path fill="#f9e4d5" stroke="black" d="M944,-782C944,-782 831,-782 831,-782 825,-782 819,-776 819,-770 819,-770 819,-711 819,-711 819,-705 825,-699 831,-699 831,-699 944,-699 944,-699 950,-699 956,-705 956,-711 956,-711 956,-770 956,-770 956,-776 950,-782 944,-782"/>
<text text-anchor="start" x="854" y="-766.8" font-family="Helvetica,sans-Serif" font-size="14.00">slope ≤ 1.5</text>
<text text-anchor="start" x="843.5" y="-751.8" font-family="Helvetica,sans-Serif" font-size="14.00">entropy = 0.99</text>
<text text-anchor="start" x="846.5" y="-736.8" font-family="Helvetica,sans-Serif" font-size="14.00">samples = 25</text>
<text text-anchor="start" x="830" y="-721.8" font-family="Helvetica,sans-Serif" font-size="14.00">value = [14.0, 11.0]</text>
<text text-anchor="start" x="827" y="-706.8" font-family="Helvetica,sans-Serif" font-size="14.00">class = No Decease</text>
</g>
<!-- 18&#45;&gt;19 -->
<g id="edge19" class="edge">
<title>18&#45;&gt;19</title>
<path fill="none" stroke="black" d="M887.5,-817.91C887.5,-809.65 887.5,-800.86 887.5,-792.3"/>
<polygon fill="black" stroke="black" points="891,-792.02 887.5,-782.02 884,-792.02 891,-792.02"/>
</g>
<!-- 32 -->
<g id="node33" class="node">
<title>32</title>
<path fill="#3fa0e6" stroke="black" d="M1148.5,-782C1148.5,-782 1056.5,-782 1056.5,-782 1050.5,-782 1044.5,-776 1044.5,-770 1044.5,-770 1044.5,-711 1044.5,-711 1044.5,-705 1050.5,-699 1056.5,-699 1056.5,-699 1148.5,-699 1148.5,-699 1154.5,-699 1160.5,-705 1160.5,-711 1160.5,-711 1160.5,-770 1160.5,-770 1160.5,-776 1154.5,-782 1148.5,-782"/>
<text text-anchor="start" x="1065.5" y="-766.8" font-family="Helvetica,sans-Serif" font-size="14.00">chol ≤ 298.5</text>
<text text-anchor="start" x="1055" y="-751.8" font-family="Helvetica,sans-Serif" font-size="14.00">entropy = 0.201</text>
<text text-anchor="start" x="1061.5" y="-736.8" font-family="Helvetica,sans-Serif" font-size="14.00">samples = 32</text>
<text text-anchor="start" x="1059.5" y="-721.8" font-family="Helvetica,sans-Serif" font-size="14.00">value = [1, 31]</text>
<text text-anchor="start" x="1052.5" y="-706.8" font-family="Helvetica,sans-Serif" font-size="14.00">class = Decease</text>
</g>
<!-- 18&#45;&gt;32 -->
<g id="edge32" class="edge">
<title>18&#45;&gt;32</title>
<path fill="none" stroke="black" d="M945.68,-826.84C973.29,-811.82 1006.43,-793.78 1035.12,-778.16"/>
<polygon fill="black" stroke="black" points="1037.16,-781.04 1044.27,-773.19 1033.81,-774.89 1037.16,-781.04"/>
</g>
<!-- 20 -->
<g id="node21" class="node">
<title>20</title>
<path fill="#e88e4d" stroke="black" d="M874,-663C874,-663 761,-663 761,-663 755,-663 749,-657 749,-651 749,-651 749,-592 749,-592 749,-586 755,-580 761,-580 761,-580 874,-580 874,-580 880,-580 886,-586 886,-592 886,-592 886,-651 886,-651 886,-657 880,-663 874,-663"/>
<text text-anchor="start" x="776.5" y="-647.8" font-family="Helvetica,sans-Serif" font-size="14.00">oldpeak ≤ 1.1</text>
<text text-anchor="start" x="770" y="-632.8" font-family="Helvetica,sans-Serif" font-size="14.00">entropy = 0.439</text>
<text text-anchor="start" x="776.5" y="-617.8" font-family="Helvetica,sans-Serif" font-size="14.00">samples = 11</text>
<text text-anchor="start" x="774.5" y="-602.8" font-family="Helvetica,sans-Serif" font-size="14.00">value = [10, 1]</text>
<text text-anchor="start" x="757" y="-587.8" font-family="Helvetica,sans-Serif" font-size="14.00">class = No Decease</text>
</g>
<!-- 19&#45;&gt;20 -->
<g id="edge20" class="edge">
<title>19&#45;&gt;20</title>
<path fill="none" stroke="black" d="M863.21,-698.91C857.95,-690.1 852.32,-680.7 846.88,-671.61"/>
<polygon fill="black" stroke="black" points="849.88,-669.81 841.74,-663.02 843.87,-673.4 849.88,-669.81"/>
</g>
<!-- 25 -->
<g id="node26" class="node">
<title>25</title>
<path fill="#88c4ef" stroke="black" d="M1008.5,-663C1008.5,-663 916.5,-663 916.5,-663 910.5,-663 904.5,-657 904.5,-651 904.5,-651 904.5,-592 904.5,-592 904.5,-586 910.5,-580 916.5,-580 916.5,-580 1008.5,-580 1008.5,-580 1014.5,-580 1020.5,-586 1020.5,-592 1020.5,-592 1020.5,-651 1020.5,-651 1020.5,-657 1014.5,-663 1008.5,-663"/>
<text text-anchor="start" x="930.5" y="-647.8" font-family="Helvetica,sans-Serif" font-size="14.00">age ≤ 55.0</text>
<text text-anchor="start" x="915" y="-632.8" font-family="Helvetica,sans-Serif" font-size="14.00">entropy = 0.863</text>
<text text-anchor="start" x="921.5" y="-617.8" font-family="Helvetica,sans-Serif" font-size="14.00">samples = 14</text>
<text text-anchor="start" x="919.5" y="-602.8" font-family="Helvetica,sans-Serif" font-size="14.00">value = [4, 10]</text>
<text text-anchor="start" x="912.5" y="-587.8" font-family="Helvetica,sans-Serif" font-size="14.00">class = Decease</text>
</g>
<!-- 19&#45;&gt;25 -->
<g id="edge25" class="edge">
<title>19&#45;&gt;25</title>
<path fill="none" stroke="black" d="M913.52,-698.91C919.16,-690.1 925.19,-680.7 931.02,-671.61"/>
<polygon fill="black" stroke="black" points="934.07,-673.33 936.53,-663.02 928.18,-669.55 934.07,-673.33"/>
</g>
<!-- 21 -->
<g id="node22" class="node">
<title>21</title>
<path fill="#e58139" stroke="black" d="M719,-536.5C719,-536.5 606,-536.5 606,-536.5 600,-536.5 594,-530.5 594,-524.5 594,-524.5 594,-480.5 594,-480.5 594,-474.5 600,-468.5 606,-468.5 606,-468.5 719,-468.5 719,-468.5 725,-468.5 731,-474.5 731,-480.5 731,-480.5 731,-524.5 731,-524.5 731,-530.5 725,-536.5 719,-536.5"/>
<text text-anchor="start" x="622.5" y="-521.3" font-family="Helvetica,sans-Serif" font-size="14.00">entropy = 0.0</text>
<text text-anchor="start" x="625" y="-506.3" font-family="Helvetica,sans-Serif" font-size="14.00">samples = 9</text>
<text text-anchor="start" x="623" y="-491.3" font-family="Helvetica,sans-Serif" font-size="14.00">value = [9, 0]</text>
<text text-anchor="start" x="602" y="-476.3" font-family="Helvetica,sans-Serif" font-size="14.00">class = No Decease</text>
</g>
<!-- 20&#45;&gt;21 -->
<g id="edge21" class="edge">
<title>20&#45;&gt;21</title>
<path fill="none" stroke="black" d="M763.72,-579.91C747.79,-567.88 730.37,-554.73 714.55,-542.79"/>
<polygon fill="black" stroke="black" points="716.53,-539.9 706.44,-536.67 712.31,-545.49 716.53,-539.9"/>
</g>
<!-- 22 -->
<g id="node23" class="node">
<title>22</title>
<path fill="#ffffff" stroke="black" d="M874,-544C874,-544 761,-544 761,-544 755,-544 749,-538 749,-532 749,-532 749,-473 749,-473 749,-467 755,-461 761,-461 761,-461 874,-461 874,-461 880,-461 886,-467 886,-473 886,-473 886,-532 886,-532 886,-538 880,-544 874,-544"/>
<text text-anchor="start" x="782" y="-528.8" font-family="Helvetica,sans-Serif" font-size="14.00">exang ≤ 0.5</text>
<text text-anchor="start" x="777.5" y="-513.8" font-family="Helvetica,sans-Serif" font-size="14.00">entropy = 1.0</text>
<text text-anchor="start" x="780" y="-498.8" font-family="Helvetica,sans-Serif" font-size="14.00">samples = 2</text>
<text text-anchor="start" x="778" y="-483.8" font-family="Helvetica,sans-Serif" font-size="14.00">value = [1, 1]</text>
<text text-anchor="start" x="757" y="-468.8" font-family="Helvetica,sans-Serif" font-size="14.00">class = No Decease</text>
</g>
<!-- 20&#45;&gt;22 -->
<g id="edge22" class="edge">
<title>20&#45;&gt;22</title>
<path fill="none" stroke="black" d="M817.5,-579.91C817.5,-571.65 817.5,-562.86 817.5,-554.3"/>
<polygon fill="black" stroke="black" points="821,-554.02 817.5,-544.02 814,-554.02 821,-554.02"/>
</g>
<!-- 23 -->
<g id="node24" class="node">
<title>23</title>
<path fill="#e58139" stroke="black" d="M762,-417.5C762,-417.5 649,-417.5 649,-417.5 643,-417.5 637,-411.5 637,-405.5 637,-405.5 637,-361.5 637,-361.5 637,-355.5 643,-349.5 649,-349.5 649,-349.5 762,-349.5 762,-349.5 768,-349.5 774,-355.5 774,-361.5 774,-361.5 774,-405.5 774,-405.5 774,-411.5 768,-417.5 762,-417.5"/>
<text text-anchor="start" x="665.5" y="-402.3" font-family="Helvetica,sans-Serif" font-size="14.00">entropy = 0.0</text>
<text text-anchor="start" x="668" y="-387.3" font-family="Helvetica,sans-Serif" font-size="14.00">samples = 1</text>
<text text-anchor="start" x="666" y="-372.3" font-family="Helvetica,sans-Serif" font-size="14.00">value = [1, 0]</text>
<text text-anchor="start" x="645" y="-357.3" font-family="Helvetica,sans-Serif" font-size="14.00">class = No Decease</text>
</g>
<!-- 22&#45;&gt;23 -->
<g id="edge23" class="edge">
<title>22&#45;&gt;23</title>
<path fill="none" stroke="black" d="M778.64,-460.91C767.55,-449.32 755.47,-436.7 744.38,-425.11"/>
<polygon fill="black" stroke="black" points="746.69,-422.47 737.25,-417.67 741.64,-427.31 746.69,-422.47"/>
</g>
<!-- 24 -->
<g id="node25" class="node">
<title>24</title>
<path fill="#399de5" stroke="black" d="M896.5,-417.5C896.5,-417.5 804.5,-417.5 804.5,-417.5 798.5,-417.5 792.5,-411.5 792.5,-405.5 792.5,-405.5 792.5,-361.5 792.5,-361.5 792.5,-355.5 798.5,-349.5 804.5,-349.5 804.5,-349.5 896.5,-349.5 896.5,-349.5 902.5,-349.5 908.5,-355.5 908.5,-361.5 908.5,-361.5 908.5,-405.5 908.5,-405.5 908.5,-411.5 902.5,-417.5 896.5,-417.5"/>
<text text-anchor="start" x="810.5" y="-402.3" font-family="Helvetica,sans-Serif" font-size="14.00">entropy = 0.0</text>
<text text-anchor="start" x="813" y="-387.3" font-family="Helvetica,sans-Serif" font-size="14.00">samples = 1</text>
<text text-anchor="start" x="811" y="-372.3" font-family="Helvetica,sans-Serif" font-size="14.00">value = [0, 1]</text>
<text text-anchor="start" x="800.5" y="-357.3" font-family="Helvetica,sans-Serif" font-size="14.00">class = Decease</text>
</g>
<!-- 22&#45;&gt;24 -->
<g id="edge24" class="edge">
<title>22&#45;&gt;24</title>
<path fill="none" stroke="black" d="M828.95,-460.91C832,-450.09 835.3,-438.38 838.39,-427.44"/>
<polygon fill="black" stroke="black" points="841.8,-428.24 841.15,-417.67 835.06,-426.34 841.8,-428.24"/>
</g>
<!-- 26 -->
<g id="node27" class="node">
<title>26</title>
<path fill="#399de5" stroke="black" d="M1008.5,-536.5C1008.5,-536.5 916.5,-536.5 916.5,-536.5 910.5,-536.5 904.5,-530.5 904.5,-524.5 904.5,-524.5 904.5,-480.5 904.5,-480.5 904.5,-474.5 910.5,-468.5 916.5,-468.5 916.5,-468.5 1008.5,-468.5 1008.5,-468.5 1014.5,-468.5 1020.5,-474.5 1020.5,-480.5 1020.5,-480.5 1020.5,-524.5 1020.5,-524.5 1020.5,-530.5 1014.5,-536.5 1008.5,-536.5"/>
<text text-anchor="start" x="922.5" y="-521.3" font-family="Helvetica,sans-Serif" font-size="14.00">entropy = 0.0</text>
<text text-anchor="start" x="925" y="-506.3" font-family="Helvetica,sans-Serif" font-size="14.00">samples = 5</text>
<text text-anchor="start" x="923" y="-491.3" font-family="Helvetica,sans-Serif" font-size="14.00">value = [0, 5]</text>
<text text-anchor="start" x="912.5" y="-476.3" font-family="Helvetica,sans-Serif" font-size="14.00">class = Decease</text>
</g>
<!-- 25&#45;&gt;26 -->
<g id="edge26" class="edge">
<title>25&#45;&gt;26</title>
<path fill="none" stroke="black" d="M962.5,-579.91C962.5,-569.2 962.5,-557.62 962.5,-546.78"/>
<polygon fill="black" stroke="black" points="966,-546.67 962.5,-536.67 959,-546.67 966,-546.67"/>
</g>
<!-- 27 -->
<g id="node28" class="node">
<title>27</title>
<path fill="#d7ebfa" stroke="black" d="M1142.5,-544C1142.5,-544 1050.5,-544 1050.5,-544 1044.5,-544 1038.5,-538 1038.5,-532 1038.5,-532 1038.5,-473 1038.5,-473 1038.5,-467 1044.5,-461 1050.5,-461 1050.5,-461 1142.5,-461 1142.5,-461 1148.5,-461 1154.5,-467 1154.5,-473 1154.5,-473 1154.5,-532 1154.5,-532 1154.5,-538 1148.5,-544 1142.5,-544"/>
<text text-anchor="start" x="1059.5" y="-528.8" font-family="Helvetica,sans-Serif" font-size="14.00">chol ≤ 235.5</text>
<text text-anchor="start" x="1049" y="-513.8" font-family="Helvetica,sans-Serif" font-size="14.00">entropy = 0.991</text>
<text text-anchor="start" x="1059" y="-498.8" font-family="Helvetica,sans-Serif" font-size="14.00">samples = 9</text>
<text text-anchor="start" x="1057" y="-483.8" font-family="Helvetica,sans-Serif" font-size="14.00">value = [4, 5]</text>
<text text-anchor="start" x="1046.5" y="-468.8" font-family="Helvetica,sans-Serif" font-size="14.00">class = Decease</text>
</g>
<!-- 25&#45;&gt;27 -->
<g id="edge27" class="edge">
<title>25&#45;&gt;27</title>
<path fill="none" stroke="black" d="M1008.99,-579.91C1019.8,-570.47 1031.4,-560.34 1042.5,-550.65"/>
<polygon fill="black" stroke="black" points="1044.86,-553.23 1050.09,-544.02 1040.26,-547.96 1044.86,-553.23"/>
</g>
<!-- 28 -->
<g id="node29" class="node">
<title>28</title>
<path fill="#e58139" stroke="black" d="M1119,-417.5C1119,-417.5 1006,-417.5 1006,-417.5 1000,-417.5 994,-411.5 994,-405.5 994,-405.5 994,-361.5 994,-361.5 994,-355.5 1000,-349.5 1006,-349.5 1006,-349.5 1119,-349.5 1119,-349.5 1125,-349.5 1131,-355.5 1131,-361.5 1131,-361.5 1131,-405.5 1131,-405.5 1131,-411.5 1125,-417.5 1119,-417.5"/>
<text text-anchor="start" x="1022.5" y="-402.3" font-family="Helvetica,sans-Serif" font-size="14.00">entropy = 0.0</text>
<text text-anchor="start" x="1025" y="-387.3" font-family="Helvetica,sans-Serif" font-size="14.00">samples = 3</text>
<text text-anchor="start" x="1023" y="-372.3" font-family="Helvetica,sans-Serif" font-size="14.00">value = [3, 0]</text>
<text text-anchor="start" x="1002" y="-357.3" font-family="Helvetica,sans-Serif" font-size="14.00">class = No Decease</text>
</g>
<!-- 27&#45;&gt;28 -->
<g id="edge28" class="edge">
<title>27&#45;&gt;28</title>
<path fill="none" stroke="black" d="M1084.7,-460.91C1081.56,-450.09 1078.16,-438.38 1074.98,-427.44"/>
<polygon fill="black" stroke="black" points="1078.29,-426.29 1072.14,-417.67 1071.57,-428.25 1078.29,-426.29"/>
</g>
<!-- 29 -->
<g id="node30" class="node">
<title>29</title>
<path fill="#61b1ea" stroke="black" d="M1253.5,-425C1253.5,-425 1161.5,-425 1161.5,-425 1155.5,-425 1149.5,-419 1149.5,-413 1149.5,-413 1149.5,-354 1149.5,-354 1149.5,-348 1155.5,-342 1161.5,-342 1161.5,-342 1253.5,-342 1253.5,-342 1259.5,-342 1265.5,-348 1265.5,-354 1265.5,-354 1265.5,-413 1265.5,-413 1265.5,-419 1259.5,-425 1253.5,-425"/>
<text text-anchor="start" x="1161" y="-409.8" font-family="Helvetica,sans-Serif" font-size="14.00">thalach ≤ 155.5</text>
<text text-anchor="start" x="1163.5" y="-394.8" font-family="Helvetica,sans-Serif" font-size="14.00">entropy = 0.65</text>
<text text-anchor="start" x="1170" y="-379.8" font-family="Helvetica,sans-Serif" font-size="14.00">samples = 6</text>
<text text-anchor="start" x="1168" y="-364.8" font-family="Helvetica,sans-Serif" font-size="14.00">value = [1, 5]</text>
<text text-anchor="start" x="1157.5" y="-349.8" font-family="Helvetica,sans-Serif" font-size="14.00">class = Decease</text>
</g>
<!-- 27&#45;&gt;29 -->
<g id="edge29" class="edge">
<title>27&#45;&gt;29</title>
<path fill="none" stroke="black" d="M1135.01,-460.91C1143.71,-451.74 1153.02,-441.93 1161.97,-432.49"/>
<polygon fill="black" stroke="black" points="1164.71,-434.68 1169.06,-425.02 1159.64,-429.87 1164.71,-434.68"/>
</g>
<!-- 30 -->
<g id="node31" class="node">
<title>30</title>
<path fill="#399de5" stroke="black" d="M1180.5,-298.5C1180.5,-298.5 1088.5,-298.5 1088.5,-298.5 1082.5,-298.5 1076.5,-292.5 1076.5,-286.5 1076.5,-286.5 1076.5,-242.5 1076.5,-242.5 1076.5,-236.5 1082.5,-230.5 1088.5,-230.5 1088.5,-230.5 1180.5,-230.5 1180.5,-230.5 1186.5,-230.5 1192.5,-236.5 1192.5,-242.5 1192.5,-242.5 1192.5,-286.5 1192.5,-286.5 1192.5,-292.5 1186.5,-298.5 1180.5,-298.5"/>
<text text-anchor="start" x="1094.5" y="-283.3" font-family="Helvetica,sans-Serif" font-size="14.00">entropy = 0.0</text>
<text text-anchor="start" x="1097" y="-268.3" font-family="Helvetica,sans-Serif" font-size="14.00">samples = 5</text>
<text text-anchor="start" x="1095" y="-253.3" font-family="Helvetica,sans-Serif" font-size="14.00">value = [0, 5]</text>
<text text-anchor="start" x="1084.5" y="-238.3" font-family="Helvetica,sans-Serif" font-size="14.00">class = Decease</text>
</g>
<!-- 29&#45;&gt;30 -->
<g id="edge30" class="edge">
<title>29&#45;&gt;30</title>
<path fill="none" stroke="black" d="M1182.17,-341.91C1175.22,-330.76 1167.67,-318.66 1160.67,-307.44"/>
<polygon fill="black" stroke="black" points="1163.46,-305.3 1155.19,-298.67 1157.52,-309 1163.46,-305.3"/>
</g>
<!-- 31 -->
<g id="node32" class="node">
<title>31</title>
<path fill="#e58139" stroke="black" d="M1336,-298.5C1336,-298.5 1223,-298.5 1223,-298.5 1217,-298.5 1211,-292.5 1211,-286.5 1211,-286.5 1211,-242.5 1211,-242.5 1211,-236.5 1217,-230.5 1223,-230.5 1223,-230.5 1336,-230.5 1336,-230.5 1342,-230.5 1348,-236.5 1348,-242.5 1348,-242.5 1348,-286.5 1348,-286.5 1348,-292.5 1342,-298.5 1336,-298.5"/>
<text text-anchor="start" x="1239.5" y="-283.3" font-family="Helvetica,sans-Serif" font-size="14.00">entropy = 0.0</text>
<text text-anchor="start" x="1242" y="-268.3" font-family="Helvetica,sans-Serif" font-size="14.00">samples = 1</text>
<text text-anchor="start" x="1240" y="-253.3" font-family="Helvetica,sans-Serif" font-size="14.00">value = [1, 0]</text>
<text text-anchor="start" x="1219" y="-238.3" font-family="Helvetica,sans-Serif" font-size="14.00">class = No Decease</text>
</g>
<!-- 29&#45;&gt;31 -->
<g id="edge31" class="edge">
<title>29&#45;&gt;31</title>
<path fill="none" stroke="black" d="M1232.48,-341.91C1239.34,-330.76 1246.79,-318.66 1253.69,-307.44"/>
<polygon fill="black" stroke="black" points="1256.83,-309.02 1259.09,-298.67 1250.87,-305.35 1256.83,-309.02"/>
</g>
<!-- 33 -->
<g id="node34" class="node">
<title>33</title>
<path fill="#399de5" stroke="black" d="M1148.5,-655.5C1148.5,-655.5 1056.5,-655.5 1056.5,-655.5 1050.5,-655.5 1044.5,-649.5 1044.5,-643.5 1044.5,-643.5 1044.5,-599.5 1044.5,-599.5 1044.5,-593.5 1050.5,-587.5 1056.5,-587.5 1056.5,-587.5 1148.5,-587.5 1148.5,-587.5 1154.5,-587.5 1160.5,-593.5 1160.5,-599.5 1160.5,-599.5 1160.5,-643.5 1160.5,-643.5 1160.5,-649.5 1154.5,-655.5 1148.5,-655.5"/>
<text text-anchor="start" x="1062.5" y="-640.3" font-family="Helvetica,sans-Serif" font-size="14.00">entropy = 0.0</text>
<text text-anchor="start" x="1061.5" y="-625.3" font-family="Helvetica,sans-Serif" font-size="14.00">samples = 26</text>
<text text-anchor="start" x="1059.5" y="-610.3" font-family="Helvetica,sans-Serif" font-size="14.00">value = [0, 26]</text>
<text text-anchor="start" x="1052.5" y="-595.3" font-family="Helvetica,sans-Serif" font-size="14.00">class = Decease</text>
</g>
<!-- 32&#45;&gt;33 -->
<g id="edge33" class="edge">
<title>32&#45;&gt;33</title>
<path fill="none" stroke="black" d="M1102.5,-698.91C1102.5,-688.2 1102.5,-676.62 1102.5,-665.78"/>
<polygon fill="black" stroke="black" points="1106,-665.67 1102.5,-655.67 1099,-665.67 1106,-665.67"/>
</g>
<!-- 34 -->
<g id="node35" class="node">
<title>34</title>
<path fill="#61b1ea" stroke="black" d="M1287.5,-663C1287.5,-663 1195.5,-663 1195.5,-663 1189.5,-663 1183.5,-657 1183.5,-651 1183.5,-651 1183.5,-592 1183.5,-592 1183.5,-586 1189.5,-580 1195.5,-580 1195.5,-580 1287.5,-580 1287.5,-580 1293.5,-580 1299.5,-586 1299.5,-592 1299.5,-592 1299.5,-651 1299.5,-651 1299.5,-657 1293.5,-663 1287.5,-663"/>
<text text-anchor="start" x="1202" y="-647.8" font-family="Helvetica,sans-Serif" font-size="14.00">restecg ≤ 0.5</text>
<text text-anchor="start" x="1197.5" y="-632.8" font-family="Helvetica,sans-Serif" font-size="14.00">entropy = 0.65</text>
<text text-anchor="start" x="1204" y="-617.8" font-family="Helvetica,sans-Serif" font-size="14.00">samples = 6</text>
<text text-anchor="start" x="1202" y="-602.8" font-family="Helvetica,sans-Serif" font-size="14.00">value = [1, 5]</text>
<text text-anchor="start" x="1191.5" y="-587.8" font-family="Helvetica,sans-Serif" font-size="14.00">class = Decease</text>
</g>
<!-- 32&#45;&gt;34 -->
<g id="edge34" class="edge">
<title>32&#45;&gt;34</title>
<path fill="none" stroke="black" d="M1150.73,-698.91C1161.94,-689.47 1173.97,-679.34 1185.49,-669.65"/>
<polygon fill="black" stroke="black" points="1187.96,-672.14 1193.36,-663.02 1183.46,-666.78 1187.96,-672.14"/>
</g>
<!-- 35 -->
<g id="node36" class="node">
<title>35</title>
<path fill="#e58139" stroke="black" d="M1298,-536.5C1298,-536.5 1185,-536.5 1185,-536.5 1179,-536.5 1173,-530.5 1173,-524.5 1173,-524.5 1173,-480.5 1173,-480.5 1173,-474.5 1179,-468.5 1185,-468.5 1185,-468.5 1298,-468.5 1298,-468.5 1304,-468.5 1310,-474.5 1310,-480.5 1310,-480.5 1310,-524.5 1310,-524.5 1310,-530.5 1304,-536.5 1298,-536.5"/>
<text text-anchor="start" x="1201.5" y="-521.3" font-family="Helvetica,sans-Serif" font-size="14.00">entropy = 0.0</text>
<text text-anchor="start" x="1204" y="-506.3" font-family="Helvetica,sans-Serif" font-size="14.00">samples = 1</text>
<text text-anchor="start" x="1202" y="-491.3" font-family="Helvetica,sans-Serif" font-size="14.00">value = [1, 0]</text>
<text text-anchor="start" x="1181" y="-476.3" font-family="Helvetica,sans-Serif" font-size="14.00">class = No Decease</text>
</g>
<!-- 34&#45;&gt;35 -->
<g id="edge35" class="edge">
<title>34&#45;&gt;35</title>
<path fill="none" stroke="black" d="M1241.5,-579.91C1241.5,-569.2 1241.5,-557.62 1241.5,-546.78"/>
<polygon fill="black" stroke="black" points="1245,-546.67 1241.5,-536.67 1238,-546.67 1245,-546.67"/>
</g>
<!-- 36 -->
<g id="node37" class="node">
<title>36</title>
<path fill="#399de5" stroke="black" d="M1432.5,-536.5C1432.5,-536.5 1340.5,-536.5 1340.5,-536.5 1334.5,-536.5 1328.5,-530.5 1328.5,-524.5 1328.5,-524.5 1328.5,-480.5 1328.5,-480.5 1328.5,-474.5 1334.5,-468.5 1340.5,-468.5 1340.5,-468.5 1432.5,-468.5 1432.5,-468.5 1438.5,-468.5 1444.5,-474.5 1444.5,-480.5 1444.5,-480.5 1444.5,-524.5 1444.5,-524.5 1444.5,-530.5 1438.5,-536.5 1432.5,-536.5"/>
<text text-anchor="start" x="1346.5" y="-521.3" font-family="Helvetica,sans-Serif" font-size="14.00">entropy = 0.0</text>
<text text-anchor="start" x="1349" y="-506.3" font-family="Helvetica,sans-Serif" font-size="14.00">samples = 5</text>
<text text-anchor="start" x="1347" y="-491.3" font-family="Helvetica,sans-Serif" font-size="14.00">value = [0, 5]</text>
<text text-anchor="start" x="1336.5" y="-476.3" font-family="Helvetica,sans-Serif" font-size="14.00">class = Decease</text>
</g>
<!-- 34&#45;&gt;36 -->
<g id="edge36" class="edge">
<title>34&#45;&gt;36</title>
<path fill="none" stroke="black" d="M1291.81,-579.91C1306.58,-567.99 1322.71,-554.98 1337.4,-543.12"/>
<polygon fill="black" stroke="black" points="1339.81,-545.67 1345.4,-536.67 1335.42,-540.22 1339.81,-545.67"/>
</g>
</g>
</svg>
