<?xml version="1.0" encoding="UTF-8" standalone="no"?>
<!DOCTYPE svg PUBLIC "-//W3C//DTD SVG 1.1//EN"
 "http://www.w3.org/Graphics/SVG/1.1/DTD/svg11.dtd">
<!-- Generated by graphviz version 2.50.0 (0)
 -->
<!-- Title: Tree Pages: 1 -->
<svg width="1055pt" height="1385pt"
 viewBox="0.00 0.00 1054.50 1385.00" xmlns="http://www.w3.org/2000/svg" xmlns:xlink="http://www.w3.org/1999/xlink">
<g id="graph0" class="graph" transform="scale(1 1) rotate(0) translate(4 1381)">
<title>Tree</title>
<polygon fill="white" stroke="transparent" points="-4,4 -4,-1381 1050.5,-1381 1050.5,4 -4,4"/>
<!-- 0 -->
<g id="node1" class="node">
<title>0</title>
<path fill="#fbebe0" stroke="black" d="M645,-1377C645,-1377 532,-1377 532,-1377 526,-1377 520,-1371 520,-1365 520,-1365 520,-1306 520,-1306 520,-1300 526,-1294 532,-1294 532,-1294 645,-1294 645,-1294 651,-1294 657,-1300 657,-1306 657,-1306 657,-1365 657,-1365 657,-1371 651,-1377 645,-1377"/>
<text text-anchor="start" x="564" y="-1361.8" font-family="Helvetica,sans-Serif" font-size="14.00">cp ≤ 3.5</text>
<text text-anchor="start" x="541" y="-1346.8" font-family="Helvetica,sans-Serif" font-size="14.00">entropy = 0.995</text>
<text text-anchor="start" x="544" y="-1331.8" font-family="Helvetica,sans-Serif" font-size="14.00">samples = 118</text>
<text text-anchor="start" x="541.5" y="-1316.8" font-family="Helvetica,sans-Serif" font-size="14.00">value = [64, 54]</text>
<text text-anchor="start" x="528" y="-1301.8" font-family="Helvetica,sans-Serif" font-size="14.00">class = No Decease</text>
</g>
<!-- 1 -->
<g id="node2" class="node">
<title>1</title>
<path fill="#ea9a61" stroke="black" d="M500,-1258C500,-1258 387,-1258 387,-1258 381,-1258 375,-1252 375,-1246 375,-1246 375,-1187 375,-1187 375,-1181 381,-1175 387,-1175 387,-1175 500,-1175 500,-1175 506,-1175 512,-1181 512,-1187 512,-1187 512,-1246 512,-1246 512,-1252 506,-1258 500,-1258"/>
<text text-anchor="start" x="402.5" y="-1242.8" font-family="Helvetica,sans-Serif" font-size="14.00">oldpeak ≤ 2.5</text>
<text text-anchor="start" x="399.5" y="-1227.8" font-family="Helvetica,sans-Serif" font-size="14.00">entropy = 0.65</text>
<text text-anchor="start" x="402.5" y="-1212.8" font-family="Helvetica,sans-Serif" font-size="14.00">samples = 60</text>
<text text-anchor="start" x="396.5" y="-1197.8" font-family="Helvetica,sans-Serif" font-size="14.00">value = [50, 10]</text>
<text text-anchor="start" x="383" y="-1182.8" font-family="Helvetica,sans-Serif" font-size="14.00">class = No Decease</text>
</g>
<!-- 0&#45;&gt;1 -->
<g id="edge1" class="edge">
<title>0&#45;&gt;1</title>
<path fill="none" stroke="black" d="M538.19,-1293.91C526.38,-1284.38 513.71,-1274.15 501.59,-1264.37"/>
<polygon fill="black" stroke="black" points="503.7,-1261.58 493.72,-1258.02 499.3,-1267.02 503.7,-1261.58"/>
<text text-anchor="middle" x="496.37" y="-1279.18" font-family="Helvetica,sans-Serif" font-size="14.00">True</text>
</g>
<!-- 22 -->
<g id="node23" class="node">
<title>22</title>
<path fill="#78bced" stroke="black" d="M672.5,-1258C672.5,-1258 580.5,-1258 580.5,-1258 574.5,-1258 568.5,-1252 568.5,-1246 568.5,-1246 568.5,-1187 568.5,-1187 568.5,-1181 574.5,-1175 580.5,-1175 580.5,-1175 672.5,-1175 672.5,-1175 678.5,-1175 684.5,-1181 684.5,-1187 684.5,-1187 684.5,-1246 684.5,-1246 684.5,-1252 678.5,-1258 672.5,-1258"/>
<text text-anchor="start" x="602" y="-1242.8" font-family="Helvetica,sans-Serif" font-size="14.00">ca ≤ 0.5</text>
<text text-anchor="start" x="579" y="-1227.8" font-family="Helvetica,sans-Serif" font-size="14.00">entropy = 0.797</text>
<text text-anchor="start" x="585.5" y="-1212.8" font-family="Helvetica,sans-Serif" font-size="14.00">samples = 58</text>
<text text-anchor="start" x="579.5" y="-1197.8" font-family="Helvetica,sans-Serif" font-size="14.00">value = [14, 44]</text>
<text text-anchor="start" x="576.5" y="-1182.8" font-family="Helvetica,sans-Serif" font-size="14.00">class = Decease</text>
</g>
<!-- 0&#45;&gt;22 -->
<g id="edge22" class="edge">
<title>0&#45;&gt;22</title>
<path fill="none" stroke="black" d="M601.68,-1293.91C604.43,-1285.47 607.34,-1276.48 610.18,-1267.74"/>
<polygon fill="black" stroke="black" points="613.58,-1268.61 613.34,-1258.02 606.92,-1266.45 613.58,-1268.61"/>
<text text-anchor="middle" x="624.69" y="-1276.59" font-family="Helvetica,sans-Serif" font-size="14.00">False</text>
</g>
<!-- 2 -->
<g id="node3" class="node">
<title>2</title>
<path fill="#e99355" stroke="black" d="M318,-1139C318,-1139 205,-1139 205,-1139 199,-1139 193,-1133 193,-1127 193,-1127 193,-1068 193,-1068 193,-1062 199,-1056 205,-1056 205,-1056 318,-1056 318,-1056 324,-1056 330,-1062 330,-1068 330,-1068 330,-1127 330,-1127 330,-1133 324,-1139 318,-1139"/>
<text text-anchor="start" x="229.5" y="-1123.8" font-family="Helvetica,sans-Serif" font-size="14.00">age ≤ 53.5</text>
<text text-anchor="start" x="214" y="-1108.8" font-family="Helvetica,sans-Serif" font-size="14.00">entropy = 0.537</text>
<text text-anchor="start" x="220.5" y="-1093.8" font-family="Helvetica,sans-Serif" font-size="14.00">samples = 57</text>
<text text-anchor="start" x="218.5" y="-1078.8" font-family="Helvetica,sans-Serif" font-size="14.00">value = [50, 7]</text>
<text text-anchor="start" x="201" y="-1063.8" font-family="Helvetica,sans-Serif" font-size="14.00">class = No Decease</text>
</g>
<!-- 1&#45;&gt;2 -->
<g id="edge2" class="edge">
<title>1&#45;&gt;2</title>
<path fill="none" stroke="black" d="M380.36,-1174.91C365.11,-1165.11 348.71,-1154.56 333.11,-1144.53"/>
<polygon fill="black" stroke="black" points="334.84,-1141.48 324.53,-1139.02 331.05,-1147.37 334.84,-1141.48"/>
</g>
<!-- 21 -->
<g id="node22" class="node">
<title>21</title>
<path fill="#399de5" stroke="black" d="M489.5,-1131.5C489.5,-1131.5 397.5,-1131.5 397.5,-1131.5 391.5,-1131.5 385.5,-1125.5 385.5,-1119.5 385.5,-1119.5 385.5,-1075.5 385.5,-1075.5 385.5,-1069.5 391.5,-1063.5 397.5,-1063.5 397.5,-1063.5 489.5,-1063.5 489.5,-1063.5 495.5,-1063.5 501.5,-1069.5 501.5,-1075.5 501.5,-1075.5 501.5,-1119.5 501.5,-1119.5 501.5,-1125.5 495.5,-1131.5 489.5,-1131.5"/>
<text text-anchor="start" x="403.5" y="-1116.3" font-family="Helvetica,sans-Serif" font-size="14.00">entropy = 0.0</text>
<text text-anchor="start" x="406" y="-1101.3" font-family="Helvetica,sans-Serif" font-size="14.00">samples = 3</text>
<text text-anchor="start" x="404" y="-1086.3" font-family="Helvetica,sans-Serif" font-size="14.00">value = [0, 3]</text>
<text text-anchor="start" x="393.5" y="-1071.3" font-family="Helvetica,sans-Serif" font-size="14.00">class = Decease</text>
</g>
<!-- 1&#45;&gt;21 -->
<g id="edge21" class="edge">
<title>1&#45;&gt;21</title>
<path fill="none" stroke="black" d="M443.5,-1174.91C443.5,-1164.2 443.5,-1152.62 443.5,-1141.78"/>
<polygon fill="black" stroke="black" points="447,-1141.67 443.5,-1131.67 440,-1141.67 447,-1141.67"/>
</g>
<!-- 3 -->
<g id="node4" class="node">
<title>3</title>
<path fill="#e58139" stroke="black" d="M163,-1012.5C163,-1012.5 50,-1012.5 50,-1012.5 44,-1012.5 38,-1006.5 38,-1000.5 38,-1000.5 38,-956.5 38,-956.5 38,-950.5 44,-944.5 50,-944.5 50,-944.5 163,-944.5 163,-944.5 169,-944.5 175,-950.5 175,-956.5 175,-956.5 175,-1000.5 175,-1000.5 175,-1006.5 169,-1012.5 163,-1012.5"/>
<text text-anchor="start" x="66.5" y="-997.3" font-family="Helvetica,sans-Serif" font-size="14.00">entropy = 0.0</text>
<text text-anchor="start" x="65.5" y="-982.3" font-family="Helvetica,sans-Serif" font-size="14.00">samples = 27</text>
<text text-anchor="start" x="63.5" y="-967.3" font-family="Helvetica,sans-Serif" font-size="14.00">value = [27, 0]</text>
<text text-anchor="start" x="46" y="-952.3" font-family="Helvetica,sans-Serif" font-size="14.00">class = No Decease</text>
</g>
<!-- 2&#45;&gt;3 -->
<g id="edge3" class="edge">
<title>2&#45;&gt;3</title>
<path fill="none" stroke="black" d="M207.72,-1055.91C191.79,-1043.88 174.37,-1030.73 158.55,-1018.79"/>
<polygon fill="black" stroke="black" points="160.53,-1015.9 150.44,-1012.67 156.31,-1021.49 160.53,-1015.9"/>
</g>
<!-- 4 -->
<g id="node5" class="node">
<title>4</title>
<path fill="#eda775" stroke="black" d="M318,-1020C318,-1020 205,-1020 205,-1020 199,-1020 193,-1014 193,-1008 193,-1008 193,-949 193,-949 193,-943 199,-937 205,-937 205,-937 318,-937 318,-937 324,-937 330,-943 330,-949 330,-949 330,-1008 330,-1008 330,-1014 324,-1020 318,-1020"/>
<text text-anchor="start" x="213" y="-1004.8" font-family="Helvetica,sans-Serif" font-size="14.00">trestbps ≤ 165.0</text>
<text text-anchor="start" x="214" y="-989.8" font-family="Helvetica,sans-Serif" font-size="14.00">entropy = 0.784</text>
<text text-anchor="start" x="220.5" y="-974.8" font-family="Helvetica,sans-Serif" font-size="14.00">samples = 30</text>
<text text-anchor="start" x="218.5" y="-959.8" font-family="Helvetica,sans-Serif" font-size="14.00">value = [23, 7]</text>
<text text-anchor="start" x="201" y="-944.8" font-family="Helvetica,sans-Serif" font-size="14.00">class = No Decease</text>
</g>
<!-- 2&#45;&gt;4 -->
<g id="edge4" class="edge">
<title>2&#45;&gt;4</title>
<path fill="none" stroke="black" d="M261.5,-1055.91C261.5,-1047.65 261.5,-1038.86 261.5,-1030.3"/>
<polygon fill="black" stroke="black" points="265,-1030.02 261.5,-1020.02 258,-1030.02 265,-1030.02"/>
</g>
<!-- 5 -->
<g id="node6" class="node">
<title>5</title>
<path fill="#eb9c64" stroke="black" d="M173,-901C173,-901 60,-901 60,-901 54,-901 48,-895 48,-889 48,-889 48,-830 48,-830 48,-824 54,-818 60,-818 60,-818 173,-818 173,-818 179,-818 185,-824 185,-830 185,-830 185,-889 185,-889 185,-895 179,-901 173,-901"/>
<text text-anchor="start" x="84.5" y="-885.8" font-family="Helvetica,sans-Serif" font-size="14.00">age ≤ 65.0</text>
<text text-anchor="start" x="69" y="-870.8" font-family="Helvetica,sans-Serif" font-size="14.00">entropy = 0.677</text>
<text text-anchor="start" x="75.5" y="-855.8" font-family="Helvetica,sans-Serif" font-size="14.00">samples = 28</text>
<text text-anchor="start" x="73.5" y="-840.8" font-family="Helvetica,sans-Serif" font-size="14.00">value = [23, 5]</text>
<text text-anchor="start" x="56" y="-825.8" font-family="Helvetica,sans-Serif" font-size="14.00">class = No Decease</text>
</g>
<!-- 4&#45;&gt;5 -->
<g id="edge5" class="edge">
<title>4&#45;&gt;5</title>
<path fill="none" stroke="black" d="M211.19,-936.91C199.38,-927.38 186.71,-917.15 174.59,-907.37"/>
<polygon fill="black" stroke="black" points="176.7,-904.58 166.72,-901.02 172.3,-910.02 176.7,-904.58"/>
</g>
<!-- 20 -->
<g id="node21" class="node">
<title>20</title>
<path fill="#399de5" stroke="black" d="M307.5,-893.5C307.5,-893.5 215.5,-893.5 215.5,-893.5 209.5,-893.5 203.5,-887.5 203.5,-881.5 203.5,-881.5 203.5,-837.5 203.5,-837.5 203.5,-831.5 209.5,-825.5 215.5,-825.5 215.5,-825.5 307.5,-825.5 307.5,-825.5 313.5,-825.5 319.5,-831.5 319.5,-837.5 319.5,-837.5 319.5,-881.5 319.5,-881.5 319.5,-887.5 313.5,-893.5 307.5,-893.5"/>
<text text-anchor="start" x="221.5" y="-878.3" font-family="Helvetica,sans-Serif" font-size="14.00">entropy = 0.0</text>
<text text-anchor="start" x="224" y="-863.3" font-family="Helvetica,sans-Serif" font-size="14.00">samples = 2</text>
<text text-anchor="start" x="222" y="-848.3" font-family="Helvetica,sans-Serif" font-size="14.00">value = [0, 2]</text>
<text text-anchor="start" x="211.5" y="-833.3" font-family="Helvetica,sans-Serif" font-size="14.00">class = Decease</text>
</g>
<!-- 4&#45;&gt;20 -->
<g id="edge20" class="edge">
<title>4&#45;&gt;20</title>
<path fill="none" stroke="black" d="M261.5,-936.91C261.5,-926.2 261.5,-914.62 261.5,-903.78"/>
<polygon fill="black" stroke="black" points="265,-903.67 261.5,-893.67 258,-903.67 265,-903.67"/>
</g>
<!-- 6 -->
<g id="node7" class="node">
<title>6</title>
<path fill="#eeab7b" stroke="black" d="M125,-782C125,-782 12,-782 12,-782 6,-782 0,-776 0,-770 0,-770 0,-711 0,-711 0,-705 6,-699 12,-699 12,-699 125,-699 125,-699 131,-699 137,-705 137,-711 137,-711 137,-770 137,-770 137,-776 131,-782 125,-782"/>
<text text-anchor="start" x="31.5" y="-766.8" font-family="Helvetica,sans-Serif" font-size="14.00">chol ≤ 225.0</text>
<text text-anchor="start" x="21.5" y="-751.8" font-family="Helvetica,sans-Serif" font-size="14.00">entropy = 0.811</text>
<text text-anchor="start" x="27.5" y="-736.8" font-family="Helvetica,sans-Serif" font-size="14.00">samples = 20</text>
<text text-anchor="start" x="25.5" y="-721.8" font-family="Helvetica,sans-Serif" font-size="14.00">value = [15, 5]</text>
<text text-anchor="start" x="8" y="-706.8" font-family="Helvetica,sans-Serif" font-size="14.00">class = No Decease</text>
</g>
<!-- 5&#45;&gt;6 -->
<g id="edge6" class="edge">
<title>5&#45;&gt;6</title>
<path fill="none" stroke="black" d="M99.85,-817.91C96.35,-809.38 92.62,-800.28 88.99,-791.46"/>
<polygon fill="black" stroke="black" points="92.16,-789.94 85.12,-782.02 85.68,-792.6 92.16,-789.94"/>
</g>
<!-- 19 -->
<g id="node20" class="node">
<title>19</title>
<path fill="#e58139" stroke="black" d="M280,-774.5C280,-774.5 167,-774.5 167,-774.5 161,-774.5 155,-768.5 155,-762.5 155,-762.5 155,-718.5 155,-718.5 155,-712.5 161,-706.5 167,-706.5 167,-706.5 280,-706.5 280,-706.5 286,-706.5 292,-712.5 292,-718.5 292,-718.5 292,-762.5 292,-762.5 292,-768.5 286,-774.5 280,-774.5"/>
<text text-anchor="start" x="183.5" y="-759.3" font-family="Helvetica,sans-Serif" font-size="14.00">entropy = 0.0</text>
<text text-anchor="start" x="186" y="-744.3" font-family="Helvetica,sans-Serif" font-size="14.00">samples = 8</text>
<text text-anchor="start" x="184" y="-729.3" font-family="Helvetica,sans-Serif" font-size="14.00">value = [8, 0]</text>
<text text-anchor="start" x="163" y="-714.3" font-family="Helvetica,sans-Serif" font-size="14.00">class = No Decease</text>
</g>
<!-- 5&#45;&gt;19 -->
<g id="edge19" class="edge">
<title>5&#45;&gt;19</title>
<path fill="none" stroke="black" d="M153.62,-817.91C164.22,-806.32 175.76,-793.7 186.36,-782.11"/>
<polygon fill="black" stroke="black" points="189,-784.41 193.17,-774.67 183.84,-779.68 189,-784.41"/>
</g>
<!-- 7 -->
<g id="node8" class="node">
<title>7</title>
<path fill="#e58139" stroke="black" d="M125,-655.5C125,-655.5 12,-655.5 12,-655.5 6,-655.5 0,-649.5 0,-643.5 0,-643.5 0,-599.5 0,-599.5 0,-593.5 6,-587.5 12,-587.5 12,-587.5 125,-587.5 125,-587.5 131,-587.5 137,-593.5 137,-599.5 137,-599.5 137,-643.5 137,-643.5 137,-649.5 131,-655.5 125,-655.5"/>
<text text-anchor="start" x="28.5" y="-640.3" font-family="Helvetica,sans-Serif" font-size="14.00">entropy = 0.0</text>
<text text-anchor="start" x="31" y="-625.3" font-family="Helvetica,sans-Serif" font-size="14.00">samples = 7</text>
<text text-anchor="start" x="29" y="-610.3" font-family="Helvetica,sans-Serif" font-size="14.00">value = [7, 0]</text>
<text text-anchor="start" x="8" y="-595.3" font-family="Helvetica,sans-Serif" font-size="14.00">class = No Decease</text>
</g>
<!-- 6&#45;&gt;7 -->
<g id="edge7" class="edge">
<title>6&#45;&gt;7</title>
<path fill="none" stroke="black" d="M68.5,-698.91C68.5,-688.2 68.5,-676.62 68.5,-665.78"/>
<polygon fill="black" stroke="black" points="72,-665.67 68.5,-655.67 65,-665.67 72,-665.67"/>
</g>
<!-- 8 -->
<g id="node9" class="node">
<title>8</title>
<path fill="#f5d0b5" stroke="black" d="M280,-663C280,-663 167,-663 167,-663 161,-663 155,-657 155,-651 155,-651 155,-592 155,-592 155,-586 161,-580 167,-580 167,-580 280,-580 280,-580 286,-580 292,-586 292,-592 292,-592 292,-651 292,-651 292,-657 286,-663 280,-663"/>
<text text-anchor="start" x="191.5" y="-647.8" font-family="Helvetica,sans-Serif" font-size="14.00">age ≤ 55.0</text>
<text text-anchor="start" x="176" y="-632.8" font-family="Helvetica,sans-Serif" font-size="14.00">entropy = 0.961</text>
<text text-anchor="start" x="182.5" y="-617.8" font-family="Helvetica,sans-Serif" font-size="14.00">samples = 13</text>
<text text-anchor="start" x="184" y="-602.8" font-family="Helvetica,sans-Serif" font-size="14.00">value = [8, 5]</text>
<text text-anchor="start" x="163" y="-587.8" font-family="Helvetica,sans-Serif" font-size="14.00">class = No Decease</text>
</g>
<!-- 6&#45;&gt;8 -->
<g id="edge8" class="edge">
<title>6&#45;&gt;8</title>
<path fill="none" stroke="black" d="M122.28,-698.91C135.02,-689.29 148.71,-678.95 161.78,-669.09"/>
<polygon fill="black" stroke="black" points="163.95,-671.84 169.82,-663.02 159.73,-666.25 163.95,-671.84"/>
</g>
<!-- 9 -->
<g id="node10" class="node">
<title>9</title>
<path fill="#e58139" stroke="black" d="M202,-536.5C202,-536.5 89,-536.5 89,-536.5 83,-536.5 77,-530.5 77,-524.5 77,-524.5 77,-480.5 77,-480.5 77,-474.5 83,-468.5 89,-468.5 89,-468.5 202,-468.5 202,-468.5 208,-468.5 214,-474.5 214,-480.5 214,-480.5 214,-524.5 214,-524.5 214,-530.5 208,-536.5 202,-536.5"/>
<text text-anchor="start" x="105.5" y="-521.3" font-family="Helvetica,sans-Serif" font-size="14.00">entropy = 0.0</text>
<text text-anchor="start" x="108" y="-506.3" font-family="Helvetica,sans-Serif" font-size="14.00">samples = 3</text>
<text text-anchor="start" x="106" y="-491.3" font-family="Helvetica,sans-Serif" font-size="14.00">value = [3, 0]</text>
<text text-anchor="start" x="85" y="-476.3" font-family="Helvetica,sans-Serif" font-size="14.00">class = No Decease</text>
</g>
<!-- 8&#45;&gt;9 -->
<g id="edge9" class="edge">
<title>8&#45;&gt;9</title>
<path fill="none" stroke="black" d="M196.44,-579.91C188.93,-568.65 180.78,-556.42 173.24,-545.11"/>
<polygon fill="black" stroke="black" points="176.07,-543.05 167.61,-536.67 170.25,-546.93 176.07,-543.05"/>
</g>
<!-- 10 -->
<g id="node11" class="node">
<title>10</title>
<path fill="#ffffff" stroke="black" d="M357,-544C357,-544 244,-544 244,-544 238,-544 232,-538 232,-532 232,-532 232,-473 232,-473 232,-467 238,-461 244,-461 244,-461 357,-461 357,-461 363,-461 369,-467 369,-473 369,-473 369,-532 369,-532 369,-538 363,-544 357,-544"/>
<text text-anchor="start" x="252" y="-528.8" font-family="Helvetica,sans-Serif" font-size="14.00">trestbps ≤ 112.5</text>
<text text-anchor="start" x="260.5" y="-513.8" font-family="Helvetica,sans-Serif" font-size="14.00">entropy = 1.0</text>
<text text-anchor="start" x="259.5" y="-498.8" font-family="Helvetica,sans-Serif" font-size="14.00">samples = 10</text>
<text text-anchor="start" x="261" y="-483.8" font-family="Helvetica,sans-Serif" font-size="14.00">value = [5, 5]</text>
<text text-anchor="start" x="240" y="-468.8" font-family="Helvetica,sans-Serif" font-size="14.00">class = No Decease</text>
</g>
<!-- 8&#45;&gt;10 -->
<g id="edge10" class="edge">
<title>8&#45;&gt;10</title>
<path fill="none" stroke="black" d="M250.21,-579.91C256.01,-571.1 262.2,-561.7 268.18,-552.61"/>
<polygon fill="black" stroke="black" points="271.26,-554.3 273.83,-544.02 265.41,-550.45 271.26,-554.3"/>
</g>
<!-- 11 -->
<g id="node12" class="node">
<title>11</title>
<path fill="#e58139" stroke="black" d="M285,-417.5C285,-417.5 172,-417.5 172,-417.5 166,-417.5 160,-411.5 160,-405.5 160,-405.5 160,-361.5 160,-361.5 160,-355.5 166,-349.5 172,-349.5 172,-349.5 285,-349.5 285,-349.5 291,-349.5 297,-355.5 297,-361.5 297,-361.5 297,-405.5 297,-405.5 297,-411.5 291,-417.5 285,-417.5"/>
<text text-anchor="start" x="188.5" y="-402.3" font-family="Helvetica,sans-Serif" font-size="14.00">entropy = 0.0</text>
<text text-anchor="start" x="191" y="-387.3" font-family="Helvetica,sans-Serif" font-size="14.00">samples = 2</text>
<text text-anchor="start" x="189" y="-372.3" font-family="Helvetica,sans-Serif" font-size="14.00">value = [2, 0]</text>
<text text-anchor="start" x="168" y="-357.3" font-family="Helvetica,sans-Serif" font-size="14.00">class = No Decease</text>
</g>
<!-- 10&#45;&gt;11 -->
<g id="edge11" class="edge">
<title>10&#45;&gt;11</title>
<path fill="none" stroke="black" d="M275.52,-460.91C268.66,-449.76 261.21,-437.66 254.31,-426.44"/>
<polygon fill="black" stroke="black" points="257.13,-424.35 248.91,-417.67 251.17,-428.02 257.13,-424.35"/>
</g>
<!-- 12 -->
<g id="node13" class="node">
<title>12</title>
<path fill="#b0d8f5" stroke="black" d="M419.5,-425C419.5,-425 327.5,-425 327.5,-425 321.5,-425 315.5,-419 315.5,-413 315.5,-413 315.5,-354 315.5,-354 315.5,-348 321.5,-342 327.5,-342 327.5,-342 419.5,-342 419.5,-342 425.5,-342 431.5,-348 431.5,-354 431.5,-354 431.5,-413 431.5,-413 431.5,-419 425.5,-425 419.5,-425"/>
<text text-anchor="start" x="336.5" y="-409.8" font-family="Helvetica,sans-Serif" font-size="14.00">chol ≤ 337.5</text>
<text text-anchor="start" x="326" y="-394.8" font-family="Helvetica,sans-Serif" font-size="14.00">entropy = 0.954</text>
<text text-anchor="start" x="336" y="-379.8" font-family="Helvetica,sans-Serif" font-size="14.00">samples = 8</text>
<text text-anchor="start" x="334" y="-364.8" font-family="Helvetica,sans-Serif" font-size="14.00">value = [3, 5]</text>
<text text-anchor="start" x="323.5" y="-349.8" font-family="Helvetica,sans-Serif" font-size="14.00">class = Decease</text>
</g>
<!-- 10&#45;&gt;12 -->
<g id="edge12" class="edge">
<title>10&#45;&gt;12</title>
<path fill="none" stroke="black" d="M325.83,-460.91C331.32,-452.1 337.19,-442.7 342.86,-433.61"/>
<polygon fill="black" stroke="black" points="345.89,-435.36 348.22,-425.02 339.95,-431.65 345.89,-435.36"/>
</g>
<!-- 13 -->
<g id="node14" class="node">
<title>13</title>
<path fill="#88c4ef" stroke="black" d="M347.5,-306C347.5,-306 255.5,-306 255.5,-306 249.5,-306 243.5,-300 243.5,-294 243.5,-294 243.5,-235 243.5,-235 243.5,-229 249.5,-223 255.5,-223 255.5,-223 347.5,-223 347.5,-223 353.5,-223 359.5,-229 359.5,-235 359.5,-235 359.5,-294 359.5,-294 359.5,-300 353.5,-306 347.5,-306"/>
<text text-anchor="start" x="257" y="-290.8" font-family="Helvetica,sans-Serif" font-size="14.00">oldpeak ≤ 0.95</text>
<text text-anchor="start" x="254" y="-275.8" font-family="Helvetica,sans-Serif" font-size="14.00">entropy = 0.863</text>
<text text-anchor="start" x="264" y="-260.8" font-family="Helvetica,sans-Serif" font-size="14.00">samples = 7</text>
<text text-anchor="start" x="262" y="-245.8" font-family="Helvetica,sans-Serif" font-size="14.00">value = [2, 5]</text>
<text text-anchor="start" x="251.5" y="-230.8" font-family="Helvetica,sans-Serif" font-size="14.00">class = Decease</text>
</g>
<!-- 12&#45;&gt;13 -->
<g id="edge13" class="edge">
<title>12&#45;&gt;13</title>
<path fill="none" stroke="black" d="M348.52,-341.91C343.1,-333.1 337.32,-323.7 331.72,-314.61"/>
<polygon fill="black" stroke="black" points="334.66,-312.7 326.44,-306.02 328.7,-316.37 334.66,-312.7"/>
</g>
<!-- 18 -->
<g id="node19" class="node">
<title>18</title>
<path fill="#e58139" stroke="black" d="M503,-298.5C503,-298.5 390,-298.5 390,-298.5 384,-298.5 378,-292.5 378,-286.5 378,-286.5 378,-242.5 378,-242.5 378,-236.5 384,-230.5 390,-230.5 390,-230.5 503,-230.5 503,-230.5 509,-230.5 515,-236.5 515,-242.5 515,-242.5 515,-286.5 515,-286.5 515,-292.5 509,-298.5 503,-298.5"/>
<text text-anchor="start" x="406.5" y="-283.3" font-family="Helvetica,sans-Serif" font-size="14.00">entropy = 0.0</text>
<text text-anchor="start" x="409" y="-268.3" font-family="Helvetica,sans-Serif" font-size="14.00">samples = 1</text>
<text text-anchor="start" x="407" y="-253.3" font-family="Helvetica,sans-Serif" font-size="14.00">value = [1, 0]</text>
<text text-anchor="start" x="386" y="-238.3" font-family="Helvetica,sans-Serif" font-size="14.00">class = No Decease</text>
</g>
<!-- 12&#45;&gt;18 -->
<g id="edge18" class="edge">
<title>12&#45;&gt;18</title>
<path fill="none" stroke="black" d="M398.83,-341.91C405.78,-330.76 413.33,-318.66 420.33,-307.44"/>
<polygon fill="black" stroke="black" points="423.48,-309 425.81,-298.67 417.54,-305.3 423.48,-309"/>
</g>
<!-- 14 -->
<g id="node15" class="node">
<title>14</title>
<path fill="#399de5" stroke="black" d="M275.5,-179.5C275.5,-179.5 183.5,-179.5 183.5,-179.5 177.5,-179.5 171.5,-173.5 171.5,-167.5 171.5,-167.5 171.5,-123.5 171.5,-123.5 171.5,-117.5 177.5,-111.5 183.5,-111.5 183.5,-111.5 275.5,-111.5 275.5,-111.5 281.5,-111.5 287.5,-117.5 287.5,-123.5 287.5,-123.5 287.5,-167.5 287.5,-167.5 287.5,-173.5 281.5,-179.5 275.5,-179.5"/>
<text text-anchor="start" x="189.5" y="-164.3" font-family="Helvetica,sans-Serif" font-size="14.00">entropy = 0.0</text>
<text text-anchor="start" x="192" y="-149.3" font-family="Helvetica,sans-Serif" font-size="14.00">samples = 4</text>
<text text-anchor="start" x="190" y="-134.3" font-family="Helvetica,sans-Serif" font-size="14.00">value = [0, 4]</text>
<text text-anchor="start" x="179.5" y="-119.3" font-family="Helvetica,sans-Serif" font-size="14.00">class = Decease</text>
</g>
<!-- 13&#45;&gt;14 -->
<g id="edge14" class="edge">
<title>13&#45;&gt;14</title>
<path fill="none" stroke="black" d="M276.52,-222.91C269.66,-211.76 262.21,-199.66 255.31,-188.44"/>
<polygon fill="black" stroke="black" points="258.13,-186.35 249.91,-179.67 252.17,-190.02 258.13,-186.35"/>
</g>
<!-- 15 -->
<g id="node16" class="node">
<title>15</title>
<path fill="#f2c09c" stroke="black" d="M431,-187C431,-187 318,-187 318,-187 312,-187 306,-181 306,-175 306,-175 306,-116 306,-116 306,-110 312,-104 318,-104 318,-104 431,-104 431,-104 437,-104 443,-110 443,-116 443,-116 443,-175 443,-175 443,-181 437,-187 431,-187"/>
<text text-anchor="start" x="326" y="-171.8" font-family="Helvetica,sans-Serif" font-size="14.00">trestbps ≤ 125.0</text>
<text text-anchor="start" x="327" y="-156.8" font-family="Helvetica,sans-Serif" font-size="14.00">entropy = 0.918</text>
<text text-anchor="start" x="337" y="-141.8" font-family="Helvetica,sans-Serif" font-size="14.00">samples = 3</text>
<text text-anchor="start" x="335" y="-126.8" font-family="Helvetica,sans-Serif" font-size="14.00">value = [2, 1]</text>
<text text-anchor="start" x="314" y="-111.8" font-family="Helvetica,sans-Serif" font-size="14.00">class = No Decease</text>
</g>
<!-- 13&#45;&gt;15 -->
<g id="edge15" class="edge">
<title>13&#45;&gt;15</title>
<path fill="none" stroke="black" d="M326.83,-222.91C332.32,-214.1 338.19,-204.7 343.86,-195.61"/>
<polygon fill="black" stroke="black" points="346.89,-197.36 349.22,-187.02 340.95,-193.65 346.89,-197.36"/>
</g>
<!-- 16 -->
<g id="node17" class="node">
<title>16</title>
<path fill="#399de5" stroke="black" d="M348.5,-68C348.5,-68 256.5,-68 256.5,-68 250.5,-68 244.5,-62 244.5,-56 244.5,-56 244.5,-12 244.5,-12 244.5,-6 250.5,0 256.5,0 256.5,0 348.5,0 348.5,0 354.5,0 360.5,-6 360.5,-12 360.5,-12 360.5,-56 360.5,-56 360.5,-62 354.5,-68 348.5,-68"/>
<text text-anchor="start" x="262.5" y="-52.8" font-family="Helvetica,sans-Serif" font-size="14.00">entropy = 0.0</text>
<text text-anchor="start" x="265" y="-37.8" font-family="Helvetica,sans-Serif" font-size="14.00">samples = 1</text>
<text text-anchor="start" x="263" y="-22.8" font-family="Helvetica,sans-Serif" font-size="14.00">value = [0, 1]</text>
<text text-anchor="start" x="252.5" y="-7.8" font-family="Helvetica,sans-Serif" font-size="14.00">class = Decease</text>
</g>
<!-- 15&#45;&gt;16 -->
<g id="edge16" class="edge">
<title>15&#45;&gt;16</title>
<path fill="none" stroke="black" d="M347.69,-103.73C341.93,-94.97 335.84,-85.7 330.05,-76.91"/>
<polygon fill="black" stroke="black" points="332.81,-74.73 324.4,-68.3 326.97,-78.58 332.81,-74.73"/>
</g>
<!-- 17 -->
<g id="node18" class="node">
<title>17</title>
<path fill="#e58139" stroke="black" d="M504,-68C504,-68 391,-68 391,-68 385,-68 379,-62 379,-56 379,-56 379,-12 379,-12 379,-6 385,0 391,0 391,0 504,0 504,0 510,0 516,-6 516,-12 516,-12 516,-56 516,-56 516,-62 510,-68 504,-68"/>
<text text-anchor="start" x="407.5" y="-52.8" font-family="Helvetica,sans-Serif" font-size="14.00">entropy = 0.0</text>
<text text-anchor="start" x="410" y="-37.8" font-family="Helvetica,sans-Serif" font-size="14.00">samples = 2</text>
<text text-anchor="start" x="408" y="-22.8" font-family="Helvetica,sans-Serif" font-size="14.00">value = [2, 0]</text>
<text text-anchor="start" x="387" y="-7.8" font-family="Helvetica,sans-Serif" font-size="14.00">class = No Decease</text>
</g>
<!-- 15&#45;&gt;17 -->
<g id="edge17" class="edge">
<title>15&#45;&gt;17</title>
<path fill="none" stroke="black" d="M401.68,-103.73C407.58,-94.88 413.83,-85.51 419.75,-76.63"/>
<polygon fill="black" stroke="black" points="422.67,-78.56 425.3,-68.3 416.84,-74.68 422.67,-78.56"/>
</g>
<!-- 23 -->
<g id="node24" class="node">
<title>23</title>
<path fill="#f1f8fd" stroke="black" d="M672.5,-1139C672.5,-1139 580.5,-1139 580.5,-1139 574.5,-1139 568.5,-1133 568.5,-1127 568.5,-1127 568.5,-1068 568.5,-1068 568.5,-1062 574.5,-1056 580.5,-1056 580.5,-1056 672.5,-1056 672.5,-1056 678.5,-1056 684.5,-1062 684.5,-1068 684.5,-1068 684.5,-1127 684.5,-1127 684.5,-1133 678.5,-1139 672.5,-1139"/>
<text text-anchor="start" x="598.5" y="-1123.8" font-family="Helvetica,sans-Serif" font-size="14.00">thal ≤ 6.5</text>
<text text-anchor="start" x="579" y="-1108.8" font-family="Helvetica,sans-Serif" font-size="14.00">entropy = 0.999</text>
<text text-anchor="start" x="585.5" y="-1093.8" font-family="Helvetica,sans-Serif" font-size="14.00">samples = 27</text>
<text text-anchor="start" x="579.5" y="-1078.8" font-family="Helvetica,sans-Serif" font-size="14.00">value = [13, 14]</text>
<text text-anchor="start" x="576.5" y="-1063.8" font-family="Helvetica,sans-Serif" font-size="14.00">class = Decease</text>
</g>
<!-- 22&#45;&gt;23 -->
<g id="edge23" class="edge">
<title>22&#45;&gt;23</title>
<path fill="none" stroke="black" d="M626.5,-1174.91C626.5,-1166.65 626.5,-1157.86 626.5,-1149.3"/>
<polygon fill="black" stroke="black" points="630,-1149.02 626.5,-1139.02 623,-1149.02 630,-1149.02"/>
</g>
<!-- 36 -->
<g id="node37" class="node">
<title>36</title>
<path fill="#40a0e6" stroke="black" d="M889.5,-1139C889.5,-1139 797.5,-1139 797.5,-1139 791.5,-1139 785.5,-1133 785.5,-1127 785.5,-1127 785.5,-1068 785.5,-1068 785.5,-1062 791.5,-1056 797.5,-1056 797.5,-1056 889.5,-1056 889.5,-1056 895.5,-1056 901.5,-1062 901.5,-1068 901.5,-1068 901.5,-1127 901.5,-1127 901.5,-1133 895.5,-1139 889.5,-1139"/>
<text text-anchor="start" x="795" y="-1123.8" font-family="Helvetica,sans-Serif" font-size="14.00">trestbps ≤ 108.0</text>
<text text-anchor="start" x="796" y="-1108.8" font-family="Helvetica,sans-Serif" font-size="14.00">entropy = 0.206</text>
<text text-anchor="start" x="802.5" y="-1093.8" font-family="Helvetica,sans-Serif" font-size="14.00">samples = 31</text>
<text text-anchor="start" x="800.5" y="-1078.8" font-family="Helvetica,sans-Serif" font-size="14.00">value = [1, 30]</text>
<text text-anchor="start" x="793.5" y="-1063.8" font-family="Helvetica,sans-Serif" font-size="14.00">class = Decease</text>
</g>
<!-- 22&#45;&gt;36 -->
<g id="edge36" class="edge">
<title>22&#45;&gt;36</title>
<path fill="none" stroke="black" d="M684.65,-1184.15C712.87,-1168.93 746.92,-1150.57 776.25,-1134.76"/>
<polygon fill="black" stroke="black" points="778.05,-1137.77 785.19,-1129.94 774.72,-1131.61 778.05,-1137.77"/>
</g>
<!-- 24 -->
<g id="node25" class="node">
<title>24</title>
<path fill="#eca36f" stroke="black" d="M608,-1020C608,-1020 495,-1020 495,-1020 489,-1020 483,-1014 483,-1008 483,-1008 483,-949 483,-949 483,-943 489,-937 495,-937 495,-937 608,-937 608,-937 614,-937 620,-943 620,-949 620,-949 620,-1008 620,-1008 620,-1014 614,-1020 608,-1020"/>
<text text-anchor="start" x="519.5" y="-1004.8" font-family="Helvetica,sans-Serif" font-size="14.00">age ≤ 59.0</text>
<text text-anchor="start" x="507.5" y="-989.8" font-family="Helvetica,sans-Serif" font-size="14.00">entropy = 0.75</text>
<text text-anchor="start" x="510.5" y="-974.8" font-family="Helvetica,sans-Serif" font-size="14.00">samples = 14</text>
<text text-anchor="start" x="509" y="-959.8" font-family="Helvetica,sans-Serif" font-size="14.00">value = [11, 3]</text>
<text text-anchor="start" x="491" y="-944.8" font-family="Helvetica,sans-Serif" font-size="14.00">class = No Decease</text>
</g>
<!-- 23&#45;&gt;24 -->
<g id="edge24" class="edge">
<title>23&#45;&gt;24</title>
<path fill="none" stroke="black" d="M600.48,-1055.91C594.84,-1047.1 588.81,-1037.7 582.98,-1028.61"/>
<polygon fill="black" stroke="black" points="585.82,-1026.55 577.47,-1020.02 579.93,-1030.33 585.82,-1026.55"/>
</g>
<!-- 31 -->
<g id="node32" class="node">
<title>31</title>
<path fill="#5dafea" stroke="black" d="M744.5,-1020C744.5,-1020 652.5,-1020 652.5,-1020 646.5,-1020 640.5,-1014 640.5,-1008 640.5,-1008 640.5,-949 640.5,-949 640.5,-943 646.5,-937 652.5,-937 652.5,-937 744.5,-937 744.5,-937 750.5,-937 756.5,-943 756.5,-949 756.5,-949 756.5,-1008 756.5,-1008 756.5,-1014 750.5,-1020 744.5,-1020"/>
<text text-anchor="start" x="657.5" y="-1004.8" font-family="Helvetica,sans-Serif" font-size="14.00">oldpeak ≤ 0.6</text>
<text text-anchor="start" x="651" y="-989.8" font-family="Helvetica,sans-Serif" font-size="14.00">entropy = 0.619</text>
<text text-anchor="start" x="657.5" y="-974.8" font-family="Helvetica,sans-Serif" font-size="14.00">samples = 13</text>
<text text-anchor="start" x="656" y="-959.8" font-family="Helvetica,sans-Serif" font-size="14.00">value = [2, 11]</text>
<text text-anchor="start" x="648.5" y="-944.8" font-family="Helvetica,sans-Serif" font-size="14.00">class = Decease</text>
</g>
<!-- 23&#45;&gt;31 -->
<g id="edge31" class="edge">
<title>23&#45;&gt;31</title>
<path fill="none" stroke="black" d="M651.48,-1055.91C656.9,-1047.1 662.68,-1037.7 668.28,-1028.61"/>
<polygon fill="black" stroke="black" points="671.3,-1030.37 673.56,-1020.02 665.34,-1026.7 671.3,-1030.37"/>
</g>
<!-- 25 -->
<g id="node26" class="node">
<title>25</title>
<path fill="#e58139" stroke="black" d="M463,-893.5C463,-893.5 350,-893.5 350,-893.5 344,-893.5 338,-887.5 338,-881.5 338,-881.5 338,-837.5 338,-837.5 338,-831.5 344,-825.5 350,-825.5 350,-825.5 463,-825.5 463,-825.5 469,-825.5 475,-831.5 475,-837.5 475,-837.5 475,-881.5 475,-881.5 475,-887.5 469,-893.5 463,-893.5"/>
<text text-anchor="start" x="366.5" y="-878.3" font-family="Helvetica,sans-Serif" font-size="14.00">entropy = 0.0</text>
<text text-anchor="start" x="369" y="-863.3" font-family="Helvetica,sans-Serif" font-size="14.00">samples = 9</text>
<text text-anchor="start" x="367" y="-848.3" font-family="Helvetica,sans-Serif" font-size="14.00">value = [9, 0]</text>
<text text-anchor="start" x="346" y="-833.3" font-family="Helvetica,sans-Serif" font-size="14.00">class = No Decease</text>
</g>
<!-- 24&#45;&gt;25 -->
<g id="edge25" class="edge">
<title>24&#45;&gt;25</title>
<path fill="none" stroke="black" d="M501.19,-936.91C486.42,-924.99 470.29,-911.98 455.6,-900.12"/>
<polygon fill="black" stroke="black" points="457.58,-897.22 447.6,-893.67 453.19,-902.67 457.58,-897.22"/>
</g>
<!-- 26 -->
<g id="node27" class="node">
<title>26</title>
<path fill="#bddef6" stroke="black" d="M597.5,-901C597.5,-901 505.5,-901 505.5,-901 499.5,-901 493.5,-895 493.5,-889 493.5,-889 493.5,-830 493.5,-830 493.5,-824 499.5,-818 505.5,-818 505.5,-818 597.5,-818 597.5,-818 603.5,-818 609.5,-824 609.5,-830 609.5,-830 609.5,-889 609.5,-889 609.5,-895 603.5,-901 597.5,-901"/>
<text text-anchor="start" x="514.5" y="-885.8" font-family="Helvetica,sans-Serif" font-size="14.00">chol ≤ 284.5</text>
<text text-anchor="start" x="504" y="-870.8" font-family="Helvetica,sans-Serif" font-size="14.00">entropy = 0.971</text>
<text text-anchor="start" x="514" y="-855.8" font-family="Helvetica,sans-Serif" font-size="14.00">samples = 5</text>
<text text-anchor="start" x="512" y="-840.8" font-family="Helvetica,sans-Serif" font-size="14.00">value = [2, 3]</text>
<text text-anchor="start" x="501.5" y="-825.8" font-family="Helvetica,sans-Serif" font-size="14.00">class = Decease</text>
</g>
<!-- 24&#45;&gt;26 -->
<g id="edge26" class="edge">
<title>24&#45;&gt;26</title>
<path fill="none" stroke="black" d="M551.5,-936.91C551.5,-928.65 551.5,-919.86 551.5,-911.3"/>
<polygon fill="black" stroke="black" points="555,-911.02 551.5,-901.02 548,-911.02 555,-911.02"/>
</g>
<!-- 27 -->
<g id="node28" class="node">
<title>27</title>
<path fill="#399de5" stroke="black" d="M450.5,-774.5C450.5,-774.5 358.5,-774.5 358.5,-774.5 352.5,-774.5 346.5,-768.5 346.5,-762.5 346.5,-762.5 346.5,-718.5 346.5,-718.5 346.5,-712.5 352.5,-706.5 358.5,-706.5 358.5,-706.5 450.5,-706.5 450.5,-706.5 456.5,-706.5 462.5,-712.5 462.5,-718.5 462.5,-718.5 462.5,-762.5 462.5,-762.5 462.5,-768.5 456.5,-774.5 450.5,-774.5"/>
<text text-anchor="start" x="364.5" y="-759.3" font-family="Helvetica,sans-Serif" font-size="14.00">entropy = 0.0</text>
<text text-anchor="start" x="367" y="-744.3" font-family="Helvetica,sans-Serif" font-size="14.00">samples = 2</text>
<text text-anchor="start" x="365" y="-729.3" font-family="Helvetica,sans-Serif" font-size="14.00">value = [0, 2]</text>
<text text-anchor="start" x="354.5" y="-714.3" font-family="Helvetica,sans-Serif" font-size="14.00">class = Decease</text>
</g>
<!-- 26&#45;&gt;27 -->
<g id="edge27" class="edge">
<title>26&#45;&gt;27</title>
<path fill="none" stroke="black" d="M500.5,-817.91C485.53,-805.99 469.17,-792.98 454.28,-781.12"/>
<polygon fill="black" stroke="black" points="456.18,-778.16 446.17,-774.67 451.82,-783.63 456.18,-778.16"/>
</g>
<!-- 28 -->
<g id="node29" class="node">
<title>28</title>
<path fill="#f2c09c" stroke="black" d="M606,-782C606,-782 493,-782 493,-782 487,-782 481,-776 481,-770 481,-770 481,-711 481,-711 481,-705 487,-699 493,-699 493,-699 606,-699 606,-699 612,-699 618,-705 618,-711 618,-711 618,-770 618,-770 618,-776 612,-782 606,-782"/>
<text text-anchor="start" x="517.5" y="-766.8" font-family="Helvetica,sans-Serif" font-size="14.00">age ≤ 61.5</text>
<text text-anchor="start" x="502" y="-751.8" font-family="Helvetica,sans-Serif" font-size="14.00">entropy = 0.918</text>
<text text-anchor="start" x="512" y="-736.8" font-family="Helvetica,sans-Serif" font-size="14.00">samples = 3</text>
<text text-anchor="start" x="510" y="-721.8" font-family="Helvetica,sans-Serif" font-size="14.00">value = [2, 1]</text>
<text text-anchor="start" x="489" y="-706.8" font-family="Helvetica,sans-Serif" font-size="14.00">class = No Decease</text>
</g>
<!-- 26&#45;&gt;28 -->
<g id="edge28" class="edge">
<title>26&#45;&gt;28</title>
<path fill="none" stroke="black" d="M550.81,-817.91C550.66,-809.56 550.51,-800.67 550.36,-792.02"/>
<polygon fill="black" stroke="black" points="553.86,-791.96 550.19,-782.02 546.86,-792.08 553.86,-791.96"/>
</g>
<!-- 29 -->
<g id="node30" class="node">
<title>29</title>
<path fill="#399de5" stroke="black" d="M486.5,-655.5C486.5,-655.5 394.5,-655.5 394.5,-655.5 388.5,-655.5 382.5,-649.5 382.5,-643.5 382.5,-643.5 382.5,-599.5 382.5,-599.5 382.5,-593.5 388.5,-587.5 394.5,-587.5 394.5,-587.5 486.5,-587.5 486.5,-587.5 492.5,-587.5 498.5,-593.5 498.5,-599.5 498.5,-599.5 498.5,-643.5 498.5,-643.5 498.5,-649.5 492.5,-655.5 486.5,-655.5"/>
<text text-anchor="start" x="400.5" y="-640.3" font-family="Helvetica,sans-Serif" font-size="14.00">entropy = 0.0</text>
<text text-anchor="start" x="403" y="-625.3" font-family="Helvetica,sans-Serif" font-size="14.00">samples = 1</text>
<text text-anchor="start" x="401" y="-610.3" font-family="Helvetica,sans-Serif" font-size="14.00">value = [0, 1]</text>
<text text-anchor="start" x="390.5" y="-595.3" font-family="Helvetica,sans-Serif" font-size="14.00">class = Decease</text>
</g>
<!-- 28&#45;&gt;29 -->
<g id="edge29" class="edge">
<title>28&#45;&gt;29</title>
<path fill="none" stroke="black" d="M511.68,-698.91C500.89,-687.32 489.13,-674.7 478.33,-663.11"/>
<polygon fill="black" stroke="black" points="480.78,-660.6 471.4,-655.67 475.65,-665.37 480.78,-660.6"/>
</g>
<!-- 30 -->
<g id="node31" class="node">
<title>30</title>
<path fill="#e58139" stroke="black" d="M642,-655.5C642,-655.5 529,-655.5 529,-655.5 523,-655.5 517,-649.5 517,-643.5 517,-643.5 517,-599.5 517,-599.5 517,-593.5 523,-587.5 529,-587.5 529,-587.5 642,-587.5 642,-587.5 648,-587.5 654,-593.5 654,-599.5 654,-599.5 654,-643.5 654,-643.5 654,-649.5 648,-655.5 642,-655.5"/>
<text text-anchor="start" x="545.5" y="-640.3" font-family="Helvetica,sans-Serif" font-size="14.00">entropy = 0.0</text>
<text text-anchor="start" x="548" y="-625.3" font-family="Helvetica,sans-Serif" font-size="14.00">samples = 2</text>
<text text-anchor="start" x="546" y="-610.3" font-family="Helvetica,sans-Serif" font-size="14.00">value = [2, 0]</text>
<text text-anchor="start" x="525" y="-595.3" font-family="Helvetica,sans-Serif" font-size="14.00">class = No Decease</text>
</g>
<!-- 28&#45;&gt;30 -->
<g id="edge30" class="edge">
<title>28&#45;&gt;30</title>
<path fill="none" stroke="black" d="M561.99,-698.91C565.32,-688.09 568.92,-676.38 572.29,-665.44"/>
<polygon fill="black" stroke="black" points="575.7,-666.25 575.29,-655.67 569.01,-664.2 575.7,-666.25"/>
</g>
<!-- 32 -->
<g id="node33" class="node">
<title>32</title>
<path fill="#f2c09c" stroke="black" d="M758,-901C758,-901 645,-901 645,-901 639,-901 633,-895 633,-889 633,-889 633,-830 633,-830 633,-824 639,-818 645,-818 645,-818 758,-818 758,-818 764,-818 770,-824 770,-830 770,-830 770,-889 770,-889 770,-895 764,-901 758,-901"/>
<text text-anchor="start" x="662" y="-885.8" font-family="Helvetica,sans-Serif" font-size="14.00">restecg ≤ 1.0</text>
<text text-anchor="start" x="654" y="-870.8" font-family="Helvetica,sans-Serif" font-size="14.00">entropy = 0.918</text>
<text text-anchor="start" x="664" y="-855.8" font-family="Helvetica,sans-Serif" font-size="14.00">samples = 3</text>
<text text-anchor="start" x="662" y="-840.8" font-family="Helvetica,sans-Serif" font-size="14.00">value = [2, 1]</text>
<text text-anchor="start" x="641" y="-825.8" font-family="Helvetica,sans-Serif" font-size="14.00">class = No Decease</text>
</g>
<!-- 31&#45;&gt;32 -->
<g id="edge32" class="edge">
<title>31&#45;&gt;32</title>
<path fill="none" stroke="black" d="M699.54,-936.91C699.75,-928.56 699.98,-919.67 700.2,-911.02"/>
<polygon fill="black" stroke="black" points="703.7,-911.11 700.46,-901.02 696.71,-910.93 703.7,-911.11"/>
</g>
<!-- 35 -->
<g id="node36" class="node">
<title>35</title>
<path fill="#399de5" stroke="black" d="M892.5,-893.5C892.5,-893.5 800.5,-893.5 800.5,-893.5 794.5,-893.5 788.5,-887.5 788.5,-881.5 788.5,-881.5 788.5,-837.5 788.5,-837.5 788.5,-831.5 794.5,-825.5 800.5,-825.5 800.5,-825.5 892.5,-825.5 892.5,-825.5 898.5,-825.5 904.5,-831.5 904.5,-837.5 904.5,-837.5 904.5,-881.5 904.5,-881.5 904.5,-887.5 898.5,-893.5 892.5,-893.5"/>
<text text-anchor="start" x="806.5" y="-878.3" font-family="Helvetica,sans-Serif" font-size="14.00">entropy = 0.0</text>
<text text-anchor="start" x="805.5" y="-863.3" font-family="Helvetica,sans-Serif" font-size="14.00">samples = 10</text>
<text text-anchor="start" x="803.5" y="-848.3" font-family="Helvetica,sans-Serif" font-size="14.00">value = [0, 10]</text>
<text text-anchor="start" x="796.5" y="-833.3" font-family="Helvetica,sans-Serif" font-size="14.00">class = Decease</text>
</g>
<!-- 31&#45;&gt;35 -->
<g id="edge35" class="edge">
<title>31&#45;&gt;35</title>
<path fill="none" stroke="black" d="M749.85,-936.91C764.92,-924.99 781.39,-911.98 796.38,-900.12"/>
<polygon fill="black" stroke="black" points="798.87,-902.61 804.55,-893.67 794.53,-897.12 798.87,-902.61"/>
</g>
<!-- 33 -->
<g id="node34" class="node">
<title>33</title>
<path fill="#e58139" stroke="black" d="M761,-774.5C761,-774.5 648,-774.5 648,-774.5 642,-774.5 636,-768.5 636,-762.5 636,-762.5 636,-718.5 636,-718.5 636,-712.5 642,-706.5 648,-706.5 648,-706.5 761,-706.5 761,-706.5 767,-706.5 773,-712.5 773,-718.5 773,-718.5 773,-762.5 773,-762.5 773,-768.5 767,-774.5 761,-774.5"/>
<text text-anchor="start" x="664.5" y="-759.3" font-family="Helvetica,sans-Serif" font-size="14.00">entropy = 0.0</text>
<text text-anchor="start" x="667" y="-744.3" font-family="Helvetica,sans-Serif" font-size="14.00">samples = 2</text>
<text text-anchor="start" x="665" y="-729.3" font-family="Helvetica,sans-Serif" font-size="14.00">value = [2, 0]</text>
<text text-anchor="start" x="644" y="-714.3" font-family="Helvetica,sans-Serif" font-size="14.00">class = No Decease</text>
</g>
<!-- 32&#45;&gt;33 -->
<g id="edge33" class="edge">
<title>32&#45;&gt;33</title>
<path fill="none" stroke="black" d="M702.54,-817.91C702.82,-807.2 703.11,-795.62 703.39,-784.78"/>
<polygon fill="black" stroke="black" points="706.89,-784.75 703.65,-774.67 699.89,-784.57 706.89,-784.75"/>
</g>
<!-- 34 -->
<g id="node35" class="node">
<title>34</title>
<path fill="#399de5" stroke="black" d="M895.5,-774.5C895.5,-774.5 803.5,-774.5 803.5,-774.5 797.5,-774.5 791.5,-768.5 791.5,-762.5 791.5,-762.5 791.5,-718.5 791.5,-718.5 791.5,-712.5 797.5,-706.5 803.5,-706.5 803.5,-706.5 895.5,-706.5 895.5,-706.5 901.5,-706.5 907.5,-712.5 907.5,-718.5 907.5,-718.5 907.5,-762.5 907.5,-762.5 907.5,-768.5 901.5,-774.5 895.5,-774.5"/>
<text text-anchor="start" x="809.5" y="-759.3" font-family="Helvetica,sans-Serif" font-size="14.00">entropy = 0.0</text>
<text text-anchor="start" x="812" y="-744.3" font-family="Helvetica,sans-Serif" font-size="14.00">samples = 1</text>
<text text-anchor="start" x="810" y="-729.3" font-family="Helvetica,sans-Serif" font-size="14.00">value = [0, 1]</text>
<text text-anchor="start" x="799.5" y="-714.3" font-family="Helvetica,sans-Serif" font-size="14.00">class = Decease</text>
</g>
<!-- 32&#45;&gt;34 -->
<g id="edge34" class="edge">
<title>32&#45;&gt;34</title>
<path fill="none" stroke="black" d="M752.85,-817.91C767.92,-805.99 784.39,-792.98 799.38,-781.12"/>
<polygon fill="black" stroke="black" points="801.87,-783.61 807.55,-774.67 797.53,-778.12 801.87,-783.61"/>
</g>
<!-- 37 -->
<g id="node38" class="node">
<title>37</title>
<path fill="#e58139" stroke="black" d="M900,-1012.5C900,-1012.5 787,-1012.5 787,-1012.5 781,-1012.5 775,-1006.5 775,-1000.5 775,-1000.5 775,-956.5 775,-956.5 775,-950.5 781,-944.5 787,-944.5 787,-944.5 900,-944.5 900,-944.5 906,-944.5 912,-950.5 912,-956.5 912,-956.5 912,-1000.5 912,-1000.5 912,-1006.5 906,-1012.5 900,-1012.5"/>
<text text-anchor="start" x="803.5" y="-997.3" font-family="Helvetica,sans-Serif" font-size="14.00">entropy = 0.0</text>
<text text-anchor="start" x="806" y="-982.3" font-family="Helvetica,sans-Serif" font-size="14.00">samples = 1</text>
<text text-anchor="start" x="804" y="-967.3" font-family="Helvetica,sans-Serif" font-size="14.00">value = [1, 0]</text>
<text text-anchor="start" x="783" y="-952.3" font-family="Helvetica,sans-Serif" font-size="14.00">class = No Decease</text>
</g>
<!-- 36&#45;&gt;37 -->
<g id="edge37" class="edge">
<title>36&#45;&gt;37</title>
<path fill="none" stroke="black" d="M843.5,-1055.91C843.5,-1045.2 843.5,-1033.62 843.5,-1022.78"/>
<polygon fill="black" stroke="black" points="847,-1022.67 843.5,-1012.67 840,-1022.67 847,-1022.67"/>
</g>
<!-- 38 -->
<g id="node39" class="node">
<title>38</title>
<path fill="#399de5" stroke="black" d="M1034.5,-1012.5C1034.5,-1012.5 942.5,-1012.5 942.5,-1012.5 936.5,-1012.5 930.5,-1006.5 930.5,-1000.5 930.5,-1000.5 930.5,-956.5 930.5,-956.5 930.5,-950.5 936.5,-944.5 942.5,-944.5 942.5,-944.5 1034.5,-944.5 1034.5,-944.5 1040.5,-944.5 1046.5,-950.5 1046.5,-956.5 1046.5,-956.5 1046.5,-1000.5 1046.5,-1000.5 1046.5,-1006.5 1040.5,-1012.5 1034.5,-1012.5"/>
<text text-anchor="start" x="948.5" y="-997.3" font-family="Helvetica,sans-Serif" font-size="14.00">entropy = 0.0</text>
<text text-anchor="start" x="947.5" y="-982.3" font-family="Helvetica,sans-Serif" font-size="14.00">samples = 30</text>
<text text-anchor="start" x="945.5" y="-967.3" font-family="Helvetica,sans-Serif" font-size="14.00">value = [0, 30]</text>
<text text-anchor="start" x="938.5" y="-952.3" font-family="Helvetica,sans-Serif" font-size="14.00">class = Decease</text>
</g>
<!-- 36&#45;&gt;38 -->
<g id="edge38" class="edge">
<title>36&#45;&gt;38</title>
<path fill="none" stroke="black" d="M893.81,-1055.91C908.58,-1043.99 924.71,-1030.98 939.4,-1019.12"/>
<polygon fill="black" stroke="black" points="941.81,-1021.67 947.4,-1012.67 937.42,-1016.22 941.81,-1021.67"/>
</g>
</g>
</svg>
