<?xml version="1.0" encoding="UTF-8" standalone="no"?>
<!DOCTYPE svg PUBLIC "-//W3C//DTD SVG 1.1//EN"
 "http://www.w3.org/Graphics/SVG/1.1/DTD/svg11.dtd">
<!-- Generated by graphviz version 2.50.0 (0)
 -->
<!-- Title: Tree Pages: 1 -->
<svg width="1610pt" height="790pt"
 viewBox="0.00 0.00 1609.50 790.00" xmlns="http://www.w3.org/2000/svg" xmlns:xlink="http://www.w3.org/1999/xlink">
<g id="graph0" class="graph" transform="scale(1 1) rotate(0) translate(4 786)">
<title>Tree</title>
<polygon fill="white" stroke="transparent" points="-4,4 -4,-786 1605.5,-786 1605.5,4 -4,4"/>
<!-- 0 -->
<g id="node1" class="node">
<title>0</title>
<path fill="#fbebe0" stroke="black" d="M785,-782C785,-782 672,-782 672,-782 666,-782 660,-776 660,-770 660,-770 660,-711 660,-711 660,-705 666,-699 672,-699 672,-699 785,-699 785,-699 791,-699 797,-705 797,-711 797,-711 797,-770 797,-770 797,-776 791,-782 785,-782"/>
<text text-anchor="start" x="704" y="-766.8" font-family="Helvetica,sans-Serif" font-size="14.00">cp ≤ 3.5</text>
<text text-anchor="start" x="681" y="-751.8" font-family="Helvetica,sans-Serif" font-size="14.00">entropy = 0.995</text>
<text text-anchor="start" x="684" y="-736.8" font-family="Helvetica,sans-Serif" font-size="14.00">samples = 118</text>
<text text-anchor="start" x="681.5" y="-721.8" font-family="Helvetica,sans-Serif" font-size="14.00">value = [64, 54]</text>
<text text-anchor="start" x="668" y="-706.8" font-family="Helvetica,sans-Serif" font-size="14.00">class = No Decease</text>
</g>
<!-- 1 -->
<g id="node2" class="node">
<title>1</title>
<path fill="#eca46f" stroke="black" d="M495,-663C495,-663 382,-663 382,-663 376,-663 370,-657 370,-651 370,-651 370,-592 370,-592 370,-586 376,-580 382,-580 382,-580 495,-580 495,-580 501,-580 507,-586 507,-592 507,-592 507,-651 507,-651 507,-657 501,-663 495,-663"/>
<text text-anchor="start" x="410.5" y="-647.8" font-family="Helvetica,sans-Serif" font-size="14.00">thal ≤ 4.5</text>
<text text-anchor="start" x="391" y="-632.8" font-family="Helvetica,sans-Serif" font-size="14.00">entropy = 0.752</text>
<text text-anchor="start" x="397.5" y="-617.8" font-family="Helvetica,sans-Serif" font-size="14.00">samples = 65</text>
<text text-anchor="start" x="391.5" y="-602.8" font-family="Helvetica,sans-Serif" font-size="14.00">value = [51, 14]</text>
<text text-anchor="start" x="378" y="-587.8" font-family="Helvetica,sans-Serif" font-size="14.00">class = No Decease</text>
</g>
<!-- 0&#45;&gt;1 -->
<g id="edge1" class="edge">
<title>0&#45;&gt;1</title>
<path fill="none" stroke="black" d="M659.77,-711.77C616.77,-694.42 561.26,-672.03 516.59,-654.01"/>
<polygon fill="black" stroke="black" points="517.82,-650.73 507.23,-650.23 515.2,-657.22 517.82,-650.73"/>
<text text-anchor="middle" x="517.01" y="-669.54" font-family="Helvetica,sans-Serif" font-size="14.00">True</text>
</g>
<!-- 16 -->
<g id="node17" class="node">
<title>16</title>
<path fill="#79bded" stroke="black" d="M1071.5,-663C1071.5,-663 979.5,-663 979.5,-663 973.5,-663 967.5,-657 967.5,-651 967.5,-651 967.5,-592 967.5,-592 967.5,-586 973.5,-580 979.5,-580 979.5,-580 1071.5,-580 1071.5,-580 1077.5,-580 1083.5,-586 1083.5,-592 1083.5,-592 1083.5,-651 1083.5,-651 1083.5,-657 1077.5,-663 1071.5,-663"/>
<text text-anchor="start" x="981" y="-647.8" font-family="Helvetica,sans-Serif" font-size="14.00">oldpeak ≤ 0.55</text>
<text text-anchor="start" x="978" y="-632.8" font-family="Helvetica,sans-Serif" font-size="14.00">entropy = 0.804</text>
<text text-anchor="start" x="984.5" y="-617.8" font-family="Helvetica,sans-Serif" font-size="14.00">samples = 53</text>
<text text-anchor="start" x="978.5" y="-602.8" font-family="Helvetica,sans-Serif" font-size="14.00">value = [13, 40]</text>
<text text-anchor="start" x="975.5" y="-587.8" font-family="Helvetica,sans-Serif" font-size="14.00">class = Decease</text>
</g>
<!-- 0&#45;&gt;16 -->
<g id="edge16" class="edge">
<title>0&#45;&gt;16</title>
<path fill="none" stroke="black" d="M797.01,-712.51C845.35,-693.47 909.81,-668.07 957.94,-649.11"/>
<polygon fill="black" stroke="black" points="959.32,-652.33 967.34,-645.41 956.75,-645.82 959.32,-652.33"/>
<text text-anchor="middle" x="957.37" y="-664.64" font-family="Helvetica,sans-Serif" font-size="14.00">False</text>
</g>
<!-- 2 -->
<g id="node3" class="node">
<title>2</title>
<path fill="#e6843e" stroke="black" d="M270,-544C270,-544 157,-544 157,-544 151,-544 145,-538 145,-532 145,-532 145,-473 145,-473 145,-467 151,-461 157,-461 157,-461 270,-461 270,-461 276,-461 282,-467 282,-473 282,-473 282,-532 282,-532 282,-538 276,-544 270,-544"/>
<text text-anchor="start" x="189" y="-528.8" font-family="Helvetica,sans-Serif" font-size="14.00">ca ≤ 2.5</text>
<text text-anchor="start" x="166" y="-513.8" font-family="Helvetica,sans-Serif" font-size="14.00">entropy = 0.172</text>
<text text-anchor="start" x="172.5" y="-498.8" font-family="Helvetica,sans-Serif" font-size="14.00">samples = 39</text>
<text text-anchor="start" x="170.5" y="-483.8" font-family="Helvetica,sans-Serif" font-size="14.00">value = [38, 1]</text>
<text text-anchor="start" x="153" y="-468.8" font-family="Helvetica,sans-Serif" font-size="14.00">class = No Decease</text>
</g>
<!-- 1&#45;&gt;2 -->
<g id="edge2" class="edge">
<title>1&#45;&gt;2</title>
<path fill="none" stroke="black" d="M369.77,-584.76C344.91,-571.84 316.68,-557.16 291.12,-543.86"/>
<polygon fill="black" stroke="black" points="292.68,-540.73 282.2,-539.22 289.45,-546.94 292.68,-540.73"/>
</g>
<!-- 5 -->
<g id="node6" class="node">
<title>5</title>
<path fill="#ffffff" stroke="black" d="M495,-544C495,-544 382,-544 382,-544 376,-544 370,-538 370,-532 370,-532 370,-473 370,-473 370,-467 376,-461 382,-461 382,-461 495,-461 495,-461 501,-461 507,-467 507,-473 507,-473 507,-532 507,-532 507,-538 501,-544 495,-544"/>
<text text-anchor="start" x="414" y="-528.8" font-family="Helvetica,sans-Serif" font-size="14.00">ca ≤ 0.5</text>
<text text-anchor="start" x="398.5" y="-513.8" font-family="Helvetica,sans-Serif" font-size="14.00">entropy = 1.0</text>
<text text-anchor="start" x="397.5" y="-498.8" font-family="Helvetica,sans-Serif" font-size="14.00">samples = 26</text>
<text text-anchor="start" x="391.5" y="-483.8" font-family="Helvetica,sans-Serif" font-size="14.00">value = [13, 13]</text>
<text text-anchor="start" x="378" y="-468.8" font-family="Helvetica,sans-Serif" font-size="14.00">class = No Decease</text>
</g>
<!-- 1&#45;&gt;5 -->
<g id="edge5" class="edge">
<title>1&#45;&gt;5</title>
<path fill="none" stroke="black" d="M438.5,-579.91C438.5,-571.65 438.5,-562.86 438.5,-554.3"/>
<polygon fill="black" stroke="black" points="442,-554.02 438.5,-544.02 435,-554.02 442,-554.02"/>
</g>
<!-- 3 -->
<g id="node4" class="node">
<title>3</title>
<path fill="#e58139" stroke="black" d="M125,-417.5C125,-417.5 12,-417.5 12,-417.5 6,-417.5 0,-411.5 0,-405.5 0,-405.5 0,-361.5 0,-361.5 0,-355.5 6,-349.5 12,-349.5 12,-349.5 125,-349.5 125,-349.5 131,-349.5 137,-355.5 137,-361.5 137,-361.5 137,-405.5 137,-405.5 137,-411.5 131,-417.5 125,-417.5"/>
<text text-anchor="start" x="28.5" y="-402.3" font-family="Helvetica,sans-Serif" font-size="14.00">entropy = 0.0</text>
<text text-anchor="start" x="27.5" y="-387.3" font-family="Helvetica,sans-Serif" font-size="14.00">samples = 38</text>
<text text-anchor="start" x="25.5" y="-372.3" font-family="Helvetica,sans-Serif" font-size="14.00">value = [38, 0]</text>
<text text-anchor="start" x="8" y="-357.3" font-family="Helvetica,sans-Serif" font-size="14.00">class = No Decease</text>
</g>
<!-- 2&#45;&gt;3 -->
<g id="edge3" class="edge">
<title>2&#45;&gt;3</title>
<path fill="none" stroke="black" d="M163.19,-460.91C148.42,-448.99 132.29,-435.98 117.6,-424.12"/>
<polygon fill="black" stroke="black" points="119.58,-421.22 109.6,-417.67 115.19,-426.67 119.58,-421.22"/>
</g>
<!-- 4 -->
<g id="node5" class="node">
<title>4</title>
<path fill="#399de5" stroke="black" d="M259.5,-417.5C259.5,-417.5 167.5,-417.5 167.5,-417.5 161.5,-417.5 155.5,-411.5 155.5,-405.5 155.5,-405.5 155.5,-361.5 155.5,-361.5 155.5,-355.5 161.5,-349.5 167.5,-349.5 167.5,-349.5 259.5,-349.5 259.5,-349.5 265.5,-349.5 271.5,-355.5 271.5,-361.5 271.5,-361.5 271.5,-405.5 271.5,-405.5 271.5,-411.5 265.5,-417.5 259.5,-417.5"/>
<text text-anchor="start" x="173.5" y="-402.3" font-family="Helvetica,sans-Serif" font-size="14.00">entropy = 0.0</text>
<text text-anchor="start" x="176" y="-387.3" font-family="Helvetica,sans-Serif" font-size="14.00">samples = 1</text>
<text text-anchor="start" x="174" y="-372.3" font-family="Helvetica,sans-Serif" font-size="14.00">value = [0, 1]</text>
<text text-anchor="start" x="163.5" y="-357.3" font-family="Helvetica,sans-Serif" font-size="14.00">class = Decease</text>
</g>
<!-- 2&#45;&gt;4 -->
<g id="edge4" class="edge">
<title>2&#45;&gt;4</title>
<path fill="none" stroke="black" d="M213.5,-460.91C213.5,-450.2 213.5,-438.62 213.5,-427.78"/>
<polygon fill="black" stroke="black" points="217,-427.67 213.5,-417.67 210,-427.67 217,-427.67"/>
</g>
<!-- 6 -->
<g id="node7" class="node">
<title>6</title>
<path fill="#eeab7b" stroke="black" d="M415,-425C415,-425 302,-425 302,-425 296,-425 290,-419 290,-413 290,-413 290,-354 290,-354 290,-348 296,-342 302,-342 302,-342 415,-342 415,-342 421,-342 427,-348 427,-354 427,-354 427,-413 427,-413 427,-419 421,-425 415,-425"/>
<text text-anchor="start" x="312" y="-409.8" font-family="Helvetica,sans-Serif" font-size="14.00">thalach ≤ 152.0</text>
<text text-anchor="start" x="311.5" y="-394.8" font-family="Helvetica,sans-Serif" font-size="14.00">entropy = 0.811</text>
<text text-anchor="start" x="317.5" y="-379.8" font-family="Helvetica,sans-Serif" font-size="14.00">samples = 16</text>
<text text-anchor="start" x="315.5" y="-364.8" font-family="Helvetica,sans-Serif" font-size="14.00">value = [12, 4]</text>
<text text-anchor="start" x="298" y="-349.8" font-family="Helvetica,sans-Serif" font-size="14.00">class = No Decease</text>
</g>
<!-- 5&#45;&gt;6 -->
<g id="edge6" class="edge">
<title>5&#45;&gt;6</title>
<path fill="none" stroke="black" d="M410.74,-460.91C404.66,-452.01 398.16,-442.51 391.89,-433.33"/>
<polygon fill="black" stroke="black" points="394.74,-431.3 386.21,-425.02 388.96,-435.25 394.74,-431.3"/>
</g>
<!-- 13 -->
<g id="node14" class="node">
<title>13</title>
<path fill="#4fa8e8" stroke="black" d="M554.5,-425C554.5,-425 462.5,-425 462.5,-425 456.5,-425 450.5,-419 450.5,-413 450.5,-413 450.5,-354 450.5,-354 450.5,-348 456.5,-342 462.5,-342 462.5,-342 554.5,-342 554.5,-342 560.5,-342 566.5,-348 566.5,-354 566.5,-354 566.5,-413 566.5,-413 566.5,-419 560.5,-425 554.5,-425"/>
<text text-anchor="start" x="471.5" y="-409.8" font-family="Helvetica,sans-Serif" font-size="14.00">chol ≤ 157.0</text>
<text text-anchor="start" x="461" y="-394.8" font-family="Helvetica,sans-Serif" font-size="14.00">entropy = 0.469</text>
<text text-anchor="start" x="467.5" y="-379.8" font-family="Helvetica,sans-Serif" font-size="14.00">samples = 10</text>
<text text-anchor="start" x="469" y="-364.8" font-family="Helvetica,sans-Serif" font-size="14.00">value = [1, 9]</text>
<text text-anchor="start" x="458.5" y="-349.8" font-family="Helvetica,sans-Serif" font-size="14.00">class = Decease</text>
</g>
<!-- 5&#45;&gt;13 -->
<g id="edge13" class="edge">
<title>5&#45;&gt;13</title>
<path fill="none" stroke="black" d="M462.79,-460.91C468.05,-452.1 473.68,-442.7 479.12,-433.61"/>
<polygon fill="black" stroke="black" points="482.13,-435.4 484.26,-425.02 476.12,-431.81 482.13,-435.4"/>
</g>
<!-- 7 -->
<g id="node8" class="node">
<title>7</title>
<path fill="#ffffff" stroke="black" d="M255,-306C255,-306 142,-306 142,-306 136,-306 130,-300 130,-294 130,-294 130,-235 130,-235 130,-229 136,-223 142,-223 142,-223 255,-223 255,-223 261,-223 267,-229 267,-235 267,-235 267,-294 267,-294 267,-300 261,-306 255,-306"/>
<text text-anchor="start" x="154" y="-290.8" font-family="Helvetica,sans-Serif" font-size="14.00">oldpeak ≤ 0.25</text>
<text text-anchor="start" x="158.5" y="-275.8" font-family="Helvetica,sans-Serif" font-size="14.00">entropy = 1.0</text>
<text text-anchor="start" x="161" y="-260.8" font-family="Helvetica,sans-Serif" font-size="14.00">samples = 8</text>
<text text-anchor="start" x="159" y="-245.8" font-family="Helvetica,sans-Serif" font-size="14.00">value = [4, 4]</text>
<text text-anchor="start" x="138" y="-230.8" font-family="Helvetica,sans-Serif" font-size="14.00">class = No Decease</text>
</g>
<!-- 6&#45;&gt;7 -->
<g id="edge7" class="edge">
<title>6&#45;&gt;7</title>
<path fill="none" stroke="black" d="M302.99,-341.91C289.83,-332.29 275.7,-321.95 262.21,-312.09"/>
<polygon fill="black" stroke="black" points="264.05,-309.1 253.91,-306.02 259.92,-314.75 264.05,-309.1"/>
</g>
<!-- 12 -->
<g id="node13" class="node">
<title>12</title>
<path fill="#e58139" stroke="black" d="M410,-298.5C410,-298.5 297,-298.5 297,-298.5 291,-298.5 285,-292.5 285,-286.5 285,-286.5 285,-242.5 285,-242.5 285,-236.5 291,-230.5 297,-230.5 297,-230.5 410,-230.5 410,-230.5 416,-230.5 422,-236.5 422,-242.5 422,-242.5 422,-286.5 422,-286.5 422,-292.5 416,-298.5 410,-298.5"/>
<text text-anchor="start" x="313.5" y="-283.3" font-family="Helvetica,sans-Serif" font-size="14.00">entropy = 0.0</text>
<text text-anchor="start" x="316" y="-268.3" font-family="Helvetica,sans-Serif" font-size="14.00">samples = 8</text>
<text text-anchor="start" x="314" y="-253.3" font-family="Helvetica,sans-Serif" font-size="14.00">value = [8, 0]</text>
<text text-anchor="start" x="293" y="-238.3" font-family="Helvetica,sans-Serif" font-size="14.00">class = No Decease</text>
</g>
<!-- 6&#45;&gt;12 -->
<g id="edge12" class="edge">
<title>6&#45;&gt;12</title>
<path fill="none" stroke="black" d="M356.77,-341.91C356.31,-331.2 355.81,-319.62 355.35,-308.78"/>
<polygon fill="black" stroke="black" points="358.84,-308.51 354.92,-298.67 351.85,-308.81 358.84,-308.51"/>
</g>
<!-- 8 -->
<g id="node9" class="node">
<title>8</title>
<path fill="#e58139" stroke="black" d="M183,-179.5C183,-179.5 70,-179.5 70,-179.5 64,-179.5 58,-173.5 58,-167.5 58,-167.5 58,-123.5 58,-123.5 58,-117.5 64,-111.5 70,-111.5 70,-111.5 183,-111.5 183,-111.5 189,-111.5 195,-117.5 195,-123.5 195,-123.5 195,-167.5 195,-167.5 195,-173.5 189,-179.5 183,-179.5"/>
<text text-anchor="start" x="86.5" y="-164.3" font-family="Helvetica,sans-Serif" font-size="14.00">entropy = 0.0</text>
<text text-anchor="start" x="89" y="-149.3" font-family="Helvetica,sans-Serif" font-size="14.00">samples = 2</text>
<text text-anchor="start" x="87" y="-134.3" font-family="Helvetica,sans-Serif" font-size="14.00">value = [2, 0]</text>
<text text-anchor="start" x="66" y="-119.3" font-family="Helvetica,sans-Serif" font-size="14.00">class = No Decease</text>
</g>
<!-- 7&#45;&gt;8 -->
<g id="edge8" class="edge">
<title>7&#45;&gt;8</title>
<path fill="none" stroke="black" d="M173.52,-222.91C166.66,-211.76 159.21,-199.66 152.31,-188.44"/>
<polygon fill="black" stroke="black" points="155.13,-186.35 146.91,-179.67 149.17,-190.02 155.13,-186.35"/>
</g>
<!-- 9 -->
<g id="node10" class="node">
<title>9</title>
<path fill="#9ccef2" stroke="black" d="M317.5,-187C317.5,-187 225.5,-187 225.5,-187 219.5,-187 213.5,-181 213.5,-175 213.5,-175 213.5,-116 213.5,-116 213.5,-110 219.5,-104 225.5,-104 225.5,-104 317.5,-104 317.5,-104 323.5,-104 329.5,-110 329.5,-116 329.5,-116 329.5,-175 329.5,-175 329.5,-181 323.5,-187 317.5,-187"/>
<text text-anchor="start" x="227" y="-171.8" font-family="Helvetica,sans-Serif" font-size="14.00">oldpeak ≤ 1.95</text>
<text text-anchor="start" x="224" y="-156.8" font-family="Helvetica,sans-Serif" font-size="14.00">entropy = 0.918</text>
<text text-anchor="start" x="234" y="-141.8" font-family="Helvetica,sans-Serif" font-size="14.00">samples = 6</text>
<text text-anchor="start" x="232" y="-126.8" font-family="Helvetica,sans-Serif" font-size="14.00">value = [2, 4]</text>
<text text-anchor="start" x="221.5" y="-111.8" font-family="Helvetica,sans-Serif" font-size="14.00">class = Decease</text>
</g>
<!-- 7&#45;&gt;9 -->
<g id="edge9" class="edge">
<title>7&#45;&gt;9</title>
<path fill="none" stroke="black" d="M223.83,-222.91C229.32,-214.1 235.19,-204.7 240.86,-195.61"/>
<polygon fill="black" stroke="black" points="243.89,-197.36 246.22,-187.02 237.95,-193.65 243.89,-197.36"/>
</g>
<!-- 10 -->
<g id="node11" class="node">
<title>10</title>
<path fill="#399de5" stroke="black" d="M245.5,-68C245.5,-68 153.5,-68 153.5,-68 147.5,-68 141.5,-62 141.5,-56 141.5,-56 141.5,-12 141.5,-12 141.5,-6 147.5,0 153.5,0 153.5,0 245.5,0 245.5,0 251.5,0 257.5,-6 257.5,-12 257.5,-12 257.5,-56 257.5,-56 257.5,-62 251.5,-68 245.5,-68"/>
<text text-anchor="start" x="159.5" y="-52.8" font-family="Helvetica,sans-Serif" font-size="14.00">entropy = 0.0</text>
<text text-anchor="start" x="162" y="-37.8" font-family="Helvetica,sans-Serif" font-size="14.00">samples = 4</text>
<text text-anchor="start" x="160" y="-22.8" font-family="Helvetica,sans-Serif" font-size="14.00">value = [0, 4]</text>
<text text-anchor="start" x="149.5" y="-7.8" font-family="Helvetica,sans-Serif" font-size="14.00">class = Decease</text>
</g>
<!-- 9&#45;&gt;10 -->
<g id="edge10" class="edge">
<title>9&#45;&gt;10</title>
<path fill="none" stroke="black" d="M244.69,-103.73C238.93,-94.97 232.84,-85.7 227.05,-76.91"/>
<polygon fill="black" stroke="black" points="229.81,-74.73 221.4,-68.3 223.97,-78.58 229.81,-74.73"/>
</g>
<!-- 11 -->
<g id="node12" class="node">
<title>11</title>
<path fill="#e58139" stroke="black" d="M401,-68C401,-68 288,-68 288,-68 282,-68 276,-62 276,-56 276,-56 276,-12 276,-12 276,-6 282,0 288,0 288,0 401,0 401,0 407,0 413,-6 413,-12 413,-12 413,-56 413,-56 413,-62 407,-68 401,-68"/>
<text text-anchor="start" x="304.5" y="-52.8" font-family="Helvetica,sans-Serif" font-size="14.00">entropy = 0.0</text>
<text text-anchor="start" x="307" y="-37.8" font-family="Helvetica,sans-Serif" font-size="14.00">samples = 2</text>
<text text-anchor="start" x="305" y="-22.8" font-family="Helvetica,sans-Serif" font-size="14.00">value = [2, 0]</text>
<text text-anchor="start" x="284" y="-7.8" font-family="Helvetica,sans-Serif" font-size="14.00">class = No Decease</text>
</g>
<!-- 9&#45;&gt;11 -->
<g id="edge11" class="edge">
<title>9&#45;&gt;11</title>
<path fill="none" stroke="black" d="M298.68,-103.73C304.58,-94.88 310.83,-85.51 316.75,-76.63"/>
<polygon fill="black" stroke="black" points="319.67,-78.56 322.3,-68.3 313.84,-74.68 319.67,-78.56"/>
</g>
<!-- 14 -->
<g id="node15" class="node">
<title>14</title>
<path fill="#e58139" stroke="black" d="M565,-298.5C565,-298.5 452,-298.5 452,-298.5 446,-298.5 440,-292.5 440,-286.5 440,-286.5 440,-242.5 440,-242.5 440,-236.5 446,-230.5 452,-230.5 452,-230.5 565,-230.5 565,-230.5 571,-230.5 577,-236.5 577,-242.5 577,-242.5 577,-286.5 577,-286.5 577,-292.5 571,-298.5 565,-298.5"/>
<text text-anchor="start" x="468.5" y="-283.3" font-family="Helvetica,sans-Serif" font-size="14.00">entropy = 0.0</text>
<text text-anchor="start" x="471" y="-268.3" font-family="Helvetica,sans-Serif" font-size="14.00">samples = 1</text>
<text text-anchor="start" x="469" y="-253.3" font-family="Helvetica,sans-Serif" font-size="14.00">value = [1, 0]</text>
<text text-anchor="start" x="448" y="-238.3" font-family="Helvetica,sans-Serif" font-size="14.00">class = No Decease</text>
</g>
<!-- 13&#45;&gt;14 -->
<g id="edge14" class="edge">
<title>13&#45;&gt;14</title>
<path fill="none" stroke="black" d="M508.5,-341.91C508.5,-331.2 508.5,-319.62 508.5,-308.78"/>
<polygon fill="black" stroke="black" points="512,-308.67 508.5,-298.67 505,-308.67 512,-308.67"/>
</g>
<!-- 15 -->
<g id="node16" class="node">
<title>15</title>
<path fill="#399de5" stroke="black" d="M699.5,-298.5C699.5,-298.5 607.5,-298.5 607.5,-298.5 601.5,-298.5 595.5,-292.5 595.5,-286.5 595.5,-286.5 595.5,-242.5 595.5,-242.5 595.5,-236.5 601.5,-230.5 607.5,-230.5 607.5,-230.5 699.5,-230.5 699.5,-230.5 705.5,-230.5 711.5,-236.5 711.5,-242.5 711.5,-242.5 711.5,-286.5 711.5,-286.5 711.5,-292.5 705.5,-298.5 699.5,-298.5"/>
<text text-anchor="start" x="613.5" y="-283.3" font-family="Helvetica,sans-Serif" font-size="14.00">entropy = 0.0</text>
<text text-anchor="start" x="616" y="-268.3" font-family="Helvetica,sans-Serif" font-size="14.00">samples = 9</text>
<text text-anchor="start" x="614" y="-253.3" font-family="Helvetica,sans-Serif" font-size="14.00">value = [0, 9]</text>
<text text-anchor="start" x="603.5" y="-238.3" font-family="Helvetica,sans-Serif" font-size="14.00">class = Decease</text>
</g>
<!-- 13&#45;&gt;15 -->
<g id="edge15" class="edge">
<title>13&#45;&gt;15</title>
<path fill="none" stroke="black" d="M558.81,-341.91C573.58,-329.99 589.71,-316.98 604.4,-305.12"/>
<polygon fill="black" stroke="black" points="606.81,-307.67 612.4,-298.67 602.42,-302.22 606.81,-307.67"/>
</g>
<!-- 17 -->
<g id="node18" class="node">
<title>17</title>
<path fill="#f3c6a5" stroke="black" d="M1082,-544C1082,-544 969,-544 969,-544 963,-544 957,-538 957,-532 957,-532 957,-473 957,-473 957,-467 963,-461 969,-461 969,-461 1082,-461 1082,-461 1088,-461 1094,-467 1094,-473 1094,-473 1094,-532 1094,-532 1094,-538 1088,-544 1082,-544"/>
<text text-anchor="start" x="1001" y="-528.8" font-family="Helvetica,sans-Serif" font-size="14.00">ca ≤ 0.5</text>
<text text-anchor="start" x="978" y="-513.8" font-family="Helvetica,sans-Serif" font-size="14.00">entropy = 0.937</text>
<text text-anchor="start" x="984.5" y="-498.8" font-family="Helvetica,sans-Serif" font-size="14.00">samples = 17</text>
<text text-anchor="start" x="983" y="-483.8" font-family="Helvetica,sans-Serif" font-size="14.00">value = [11, 6]</text>
<text text-anchor="start" x="965" y="-468.8" font-family="Helvetica,sans-Serif" font-size="14.00">class = No Decease</text>
</g>
<!-- 16&#45;&gt;17 -->
<g id="edge17" class="edge">
<title>16&#45;&gt;17</title>
<path fill="none" stroke="black" d="M1025.5,-579.91C1025.5,-571.65 1025.5,-562.86 1025.5,-554.3"/>
<polygon fill="black" stroke="black" points="1029,-554.02 1025.5,-544.02 1022,-554.02 1029,-554.02"/>
</g>
<!-- 26 -->
<g id="node27" class="node">
<title>26</title>
<path fill="#45a3e7" stroke="black" d="M1444.5,-544C1444.5,-544 1352.5,-544 1352.5,-544 1346.5,-544 1340.5,-538 1340.5,-532 1340.5,-532 1340.5,-473 1340.5,-473 1340.5,-467 1346.5,-461 1352.5,-461 1352.5,-461 1444.5,-461 1444.5,-461 1450.5,-461 1456.5,-467 1456.5,-473 1456.5,-473 1456.5,-532 1456.5,-532 1456.5,-538 1450.5,-544 1444.5,-544"/>
<text text-anchor="start" x="1370.5" y="-528.8" font-family="Helvetica,sans-Serif" font-size="14.00">thal ≤ 6.5</text>
<text text-anchor="start" x="1354.5" y="-513.8" font-family="Helvetica,sans-Serif" font-size="14.00">entropy = 0.31</text>
<text text-anchor="start" x="1357.5" y="-498.8" font-family="Helvetica,sans-Serif" font-size="14.00">samples = 36</text>
<text text-anchor="start" x="1355.5" y="-483.8" font-family="Helvetica,sans-Serif" font-size="14.00">value = [2, 34]</text>
<text text-anchor="start" x="1348.5" y="-468.8" font-family="Helvetica,sans-Serif" font-size="14.00">class = Decease</text>
</g>
<!-- 16&#45;&gt;26 -->
<g id="edge26" class="edge">
<title>16&#45;&gt;26</title>
<path fill="none" stroke="black" d="M1083.78,-602.22C1150.61,-581.26 1260.01,-546.94 1330.62,-524.79"/>
<polygon fill="black" stroke="black" points="1331.83,-528.08 1340.32,-521.75 1329.73,-521.4 1331.83,-528.08"/>
</g>
<!-- 18 -->
<g id="node19" class="node">
<title>18</title>
<path fill="#ea9a61" stroke="black" d="M1010,-425C1010,-425 897,-425 897,-425 891,-425 885,-419 885,-413 885,-413 885,-354 885,-354 885,-348 891,-342 897,-342 897,-342 1010,-342 1010,-342 1016,-342 1022,-348 1022,-354 1022,-354 1022,-413 1022,-413 1022,-419 1016,-425 1010,-425"/>
<text text-anchor="start" x="907" y="-409.8" font-family="Helvetica,sans-Serif" font-size="14.00">thalach ≤ 158.5</text>
<text text-anchor="start" x="909.5" y="-394.8" font-family="Helvetica,sans-Serif" font-size="14.00">entropy = 0.65</text>
<text text-anchor="start" x="912.5" y="-379.8" font-family="Helvetica,sans-Serif" font-size="14.00">samples = 12</text>
<text text-anchor="start" x="910.5" y="-364.8" font-family="Helvetica,sans-Serif" font-size="14.00">value = [10, 2]</text>
<text text-anchor="start" x="893" y="-349.8" font-family="Helvetica,sans-Serif" font-size="14.00">class = No Decease</text>
</g>
<!-- 17&#45;&gt;18 -->
<g id="edge18" class="edge">
<title>17&#45;&gt;18</title>
<path fill="none" stroke="black" d="M1000.52,-460.91C995.1,-452.1 989.32,-442.7 983.72,-433.61"/>
<polygon fill="black" stroke="black" points="986.66,-431.7 978.44,-425.02 980.7,-435.37 986.66,-431.7"/>
</g>
<!-- 23 -->
<g id="node24" class="node">
<title>23</title>
<path fill="#6ab6ec" stroke="black" d="M1144.5,-425C1144.5,-425 1052.5,-425 1052.5,-425 1046.5,-425 1040.5,-419 1040.5,-413 1040.5,-413 1040.5,-354 1040.5,-354 1040.5,-348 1046.5,-342 1052.5,-342 1052.5,-342 1144.5,-342 1144.5,-342 1150.5,-342 1156.5,-348 1156.5,-354 1156.5,-354 1156.5,-413 1156.5,-413 1156.5,-419 1150.5,-425 1144.5,-425"/>
<text text-anchor="start" x="1050" y="-409.8" font-family="Helvetica,sans-Serif" font-size="14.00">trestbps ≤ 126.5</text>
<text text-anchor="start" x="1051" y="-394.8" font-family="Helvetica,sans-Serif" font-size="14.00">entropy = 0.722</text>
<text text-anchor="start" x="1061" y="-379.8" font-family="Helvetica,sans-Serif" font-size="14.00">samples = 5</text>
<text text-anchor="start" x="1059" y="-364.8" font-family="Helvetica,sans-Serif" font-size="14.00">value = [1, 4]</text>
<text text-anchor="start" x="1048.5" y="-349.8" font-family="Helvetica,sans-Serif" font-size="14.00">class = Decease</text>
</g>
<!-- 17&#45;&gt;23 -->
<g id="edge23" class="edge">
<title>17&#45;&gt;23</title>
<path fill="none" stroke="black" d="M1050.83,-460.91C1056.32,-452.1 1062.19,-442.7 1067.86,-433.61"/>
<polygon fill="black" stroke="black" points="1070.89,-435.36 1073.22,-425.02 1064.95,-431.65 1070.89,-435.36"/>
</g>
<!-- 19 -->
<g id="node20" class="node">
<title>19</title>
<path fill="#ffffff" stroke="black" d="M855,-306C855,-306 742,-306 742,-306 736,-306 730,-300 730,-294 730,-294 730,-235 730,-235 730,-229 736,-223 742,-223 742,-223 855,-223 855,-223 861,-223 867,-229 867,-235 867,-235 867,-294 867,-294 867,-300 861,-306 855,-306"/>
<text text-anchor="start" x="770.5" y="-290.8" font-family="Helvetica,sans-Serif" font-size="14.00">thal ≤ 6.5</text>
<text text-anchor="start" x="758.5" y="-275.8" font-family="Helvetica,sans-Serif" font-size="14.00">entropy = 1.0</text>
<text text-anchor="start" x="761" y="-260.8" font-family="Helvetica,sans-Serif" font-size="14.00">samples = 4</text>
<text text-anchor="start" x="759" y="-245.8" font-family="Helvetica,sans-Serif" font-size="14.00">value = [2, 2]</text>
<text text-anchor="start" x="738" y="-230.8" font-family="Helvetica,sans-Serif" font-size="14.00">class = No Decease</text>
</g>
<!-- 18&#45;&gt;19 -->
<g id="edge19" class="edge">
<title>18&#45;&gt;19</title>
<path fill="none" stroke="black" d="M899.72,-341.91C886.98,-332.29 873.29,-321.95 860.22,-312.09"/>
<polygon fill="black" stroke="black" points="862.27,-309.25 852.18,-306.02 858.05,-314.84 862.27,-309.25"/>
</g>
<!-- 22 -->
<g id="node23" class="node">
<title>22</title>
<path fill="#e58139" stroke="black" d="M1010,-298.5C1010,-298.5 897,-298.5 897,-298.5 891,-298.5 885,-292.5 885,-286.5 885,-286.5 885,-242.5 885,-242.5 885,-236.5 891,-230.5 897,-230.5 897,-230.5 1010,-230.5 1010,-230.5 1016,-230.5 1022,-236.5 1022,-242.5 1022,-242.5 1022,-286.5 1022,-286.5 1022,-292.5 1016,-298.5 1010,-298.5"/>
<text text-anchor="start" x="913.5" y="-283.3" font-family="Helvetica,sans-Serif" font-size="14.00">entropy = 0.0</text>
<text text-anchor="start" x="916" y="-268.3" font-family="Helvetica,sans-Serif" font-size="14.00">samples = 8</text>
<text text-anchor="start" x="914" y="-253.3" font-family="Helvetica,sans-Serif" font-size="14.00">value = [8, 0]</text>
<text text-anchor="start" x="893" y="-238.3" font-family="Helvetica,sans-Serif" font-size="14.00">class = No Decease</text>
</g>
<!-- 18&#45;&gt;22 -->
<g id="edge22" class="edge">
<title>18&#45;&gt;22</title>
<path fill="none" stroke="black" d="M953.5,-341.91C953.5,-331.2 953.5,-319.62 953.5,-308.78"/>
<polygon fill="black" stroke="black" points="957,-308.67 953.5,-298.67 950,-308.67 957,-308.67"/>
</g>
<!-- 20 -->
<g id="node21" class="node">
<title>20</title>
<path fill="#e58139" stroke="black" d="M782,-179.5C782,-179.5 669,-179.5 669,-179.5 663,-179.5 657,-173.5 657,-167.5 657,-167.5 657,-123.5 657,-123.5 657,-117.5 663,-111.5 669,-111.5 669,-111.5 782,-111.5 782,-111.5 788,-111.5 794,-117.5 794,-123.5 794,-123.5 794,-167.5 794,-167.5 794,-173.5 788,-179.5 782,-179.5"/>
<text text-anchor="start" x="685.5" y="-164.3" font-family="Helvetica,sans-Serif" font-size="14.00">entropy = 0.0</text>
<text text-anchor="start" x="688" y="-149.3" font-family="Helvetica,sans-Serif" font-size="14.00">samples = 2</text>
<text text-anchor="start" x="686" y="-134.3" font-family="Helvetica,sans-Serif" font-size="14.00">value = [2, 0]</text>
<text text-anchor="start" x="665" y="-119.3" font-family="Helvetica,sans-Serif" font-size="14.00">class = No Decease</text>
</g>
<!-- 19&#45;&gt;20 -->
<g id="edge20" class="edge">
<title>19&#45;&gt;20</title>
<path fill="none" stroke="black" d="M773.17,-222.91C766.22,-211.76 758.67,-199.66 751.67,-188.44"/>
<polygon fill="black" stroke="black" points="754.46,-186.3 746.19,-179.67 748.52,-190 754.46,-186.3"/>
</g>
<!-- 21 -->
<g id="node22" class="node">
<title>21</title>
<path fill="#399de5" stroke="black" d="M916.5,-179.5C916.5,-179.5 824.5,-179.5 824.5,-179.5 818.5,-179.5 812.5,-173.5 812.5,-167.5 812.5,-167.5 812.5,-123.5 812.5,-123.5 812.5,-117.5 818.5,-111.5 824.5,-111.5 824.5,-111.5 916.5,-111.5 916.5,-111.5 922.5,-111.5 928.5,-117.5 928.5,-123.5 928.5,-123.5 928.5,-167.5 928.5,-167.5 928.5,-173.5 922.5,-179.5 916.5,-179.5"/>
<text text-anchor="start" x="830.5" y="-164.3" font-family="Helvetica,sans-Serif" font-size="14.00">entropy = 0.0</text>
<text text-anchor="start" x="833" y="-149.3" font-family="Helvetica,sans-Serif" font-size="14.00">samples = 2</text>
<text text-anchor="start" x="831" y="-134.3" font-family="Helvetica,sans-Serif" font-size="14.00">value = [0, 2]</text>
<text text-anchor="start" x="820.5" y="-119.3" font-family="Helvetica,sans-Serif" font-size="14.00">class = Decease</text>
</g>
<!-- 19&#45;&gt;21 -->
<g id="edge21" class="edge">
<title>19&#45;&gt;21</title>
<path fill="none" stroke="black" d="M823.48,-222.91C830.34,-211.76 837.79,-199.66 844.69,-188.44"/>
<polygon fill="black" stroke="black" points="847.83,-190.02 850.09,-179.67 841.87,-186.35 847.83,-190.02"/>
</g>
<!-- 24 -->
<g id="node25" class="node">
<title>24</title>
<path fill="#399de5" stroke="black" d="M1144.5,-298.5C1144.5,-298.5 1052.5,-298.5 1052.5,-298.5 1046.5,-298.5 1040.5,-292.5 1040.5,-286.5 1040.5,-286.5 1040.5,-242.5 1040.5,-242.5 1040.5,-236.5 1046.5,-230.5 1052.5,-230.5 1052.5,-230.5 1144.5,-230.5 1144.5,-230.5 1150.5,-230.5 1156.5,-236.5 1156.5,-242.5 1156.5,-242.5 1156.5,-286.5 1156.5,-286.5 1156.5,-292.5 1150.5,-298.5 1144.5,-298.5"/>
<text text-anchor="start" x="1058.5" y="-283.3" font-family="Helvetica,sans-Serif" font-size="14.00">entropy = 0.0</text>
<text text-anchor="start" x="1061" y="-268.3" font-family="Helvetica,sans-Serif" font-size="14.00">samples = 4</text>
<text text-anchor="start" x="1059" y="-253.3" font-family="Helvetica,sans-Serif" font-size="14.00">value = [0, 4]</text>
<text text-anchor="start" x="1048.5" y="-238.3" font-family="Helvetica,sans-Serif" font-size="14.00">class = Decease</text>
</g>
<!-- 23&#45;&gt;24 -->
<g id="edge24" class="edge">
<title>23&#45;&gt;24</title>
<path fill="none" stroke="black" d="M1098.5,-341.91C1098.5,-331.2 1098.5,-319.62 1098.5,-308.78"/>
<polygon fill="black" stroke="black" points="1102,-308.67 1098.5,-298.67 1095,-308.67 1102,-308.67"/>
</g>
<!-- 25 -->
<g id="node26" class="node">
<title>25</title>
<path fill="#e58139" stroke="black" d="M1300,-298.5C1300,-298.5 1187,-298.5 1187,-298.5 1181,-298.5 1175,-292.5 1175,-286.5 1175,-286.5 1175,-242.5 1175,-242.5 1175,-236.5 1181,-230.5 1187,-230.5 1187,-230.5 1300,-230.5 1300,-230.5 1306,-230.5 1312,-236.5 1312,-242.5 1312,-242.5 1312,-286.5 1312,-286.5 1312,-292.5 1306,-298.5 1300,-298.5"/>
<text text-anchor="start" x="1203.5" y="-283.3" font-family="Helvetica,sans-Serif" font-size="14.00">entropy = 0.0</text>
<text text-anchor="start" x="1206" y="-268.3" font-family="Helvetica,sans-Serif" font-size="14.00">samples = 1</text>
<text text-anchor="start" x="1204" y="-253.3" font-family="Helvetica,sans-Serif" font-size="14.00">value = [1, 0]</text>
<text text-anchor="start" x="1183" y="-238.3" font-family="Helvetica,sans-Serif" font-size="14.00">class = No Decease</text>
</g>
<!-- 23&#45;&gt;25 -->
<g id="edge25" class="edge">
<title>23&#45;&gt;25</title>
<path fill="none" stroke="black" d="M1148.81,-341.91C1163.58,-329.99 1179.71,-316.98 1194.4,-305.12"/>
<polygon fill="black" stroke="black" points="1196.81,-307.67 1202.4,-298.67 1192.42,-302.22 1196.81,-307.67"/>
</g>
<!-- 27 -->
<g id="node28" class="node">
<title>27</title>
<path fill="#61b1ea" stroke="black" d="M1444.5,-425C1444.5,-425 1352.5,-425 1352.5,-425 1346.5,-425 1340.5,-419 1340.5,-413 1340.5,-413 1340.5,-354 1340.5,-354 1340.5,-348 1346.5,-342 1352.5,-342 1352.5,-342 1444.5,-342 1444.5,-342 1450.5,-342 1456.5,-348 1456.5,-354 1456.5,-354 1456.5,-413 1456.5,-413 1456.5,-419 1450.5,-425 1444.5,-425"/>
<text text-anchor="start" x="1359" y="-409.8" font-family="Helvetica,sans-Serif" font-size="14.00">restecg ≤ 0.5</text>
<text text-anchor="start" x="1354.5" y="-394.8" font-family="Helvetica,sans-Serif" font-size="14.00">entropy = 0.65</text>
<text text-anchor="start" x="1357.5" y="-379.8" font-family="Helvetica,sans-Serif" font-size="14.00">samples = 12</text>
<text text-anchor="start" x="1355.5" y="-364.8" font-family="Helvetica,sans-Serif" font-size="14.00">value = [2, 10]</text>
<text text-anchor="start" x="1348.5" y="-349.8" font-family="Helvetica,sans-Serif" font-size="14.00">class = Decease</text>
</g>
<!-- 26&#45;&gt;27 -->
<g id="edge27" class="edge">
<title>26&#45;&gt;27</title>
<path fill="none" stroke="black" d="M1398.5,-460.91C1398.5,-452.65 1398.5,-443.86 1398.5,-435.3"/>
<polygon fill="black" stroke="black" points="1402,-435.02 1398.5,-425.02 1395,-435.02 1402,-435.02"/>
</g>
<!-- 32 -->
<g id="node33" class="node">
<title>32</title>
<path fill="#399de5" stroke="black" d="M1578.5,-417.5C1578.5,-417.5 1486.5,-417.5 1486.5,-417.5 1480.5,-417.5 1474.5,-411.5 1474.5,-405.5 1474.5,-405.5 1474.5,-361.5 1474.5,-361.5 1474.5,-355.5 1480.5,-349.5 1486.5,-349.5 1486.5,-349.5 1578.5,-349.5 1578.5,-349.5 1584.5,-349.5 1590.5,-355.5 1590.5,-361.5 1590.5,-361.5 1590.5,-405.5 1590.5,-405.5 1590.5,-411.5 1584.5,-417.5 1578.5,-417.5"/>
<text text-anchor="start" x="1492.5" y="-402.3" font-family="Helvetica,sans-Serif" font-size="14.00">entropy = 0.0</text>
<text text-anchor="start" x="1491.5" y="-387.3" font-family="Helvetica,sans-Serif" font-size="14.00">samples = 24</text>
<text text-anchor="start" x="1489.5" y="-372.3" font-family="Helvetica,sans-Serif" font-size="14.00">value = [0, 24]</text>
<text text-anchor="start" x="1482.5" y="-357.3" font-family="Helvetica,sans-Serif" font-size="14.00">class = Decease</text>
</g>
<!-- 26&#45;&gt;32 -->
<g id="edge32" class="edge">
<title>26&#45;&gt;32</title>
<path fill="none" stroke="black" d="M1444.99,-460.91C1458.51,-449.1 1473.27,-436.22 1486.75,-424.45"/>
<polygon fill="black" stroke="black" points="1489.28,-426.88 1494.51,-417.67 1484.68,-421.61 1489.28,-426.88"/>
</g>
<!-- 28 -->
<g id="node29" class="node">
<title>28</title>
<path fill="#f2c09c" stroke="black" d="M1455,-306C1455,-306 1342,-306 1342,-306 1336,-306 1330,-300 1330,-294 1330,-294 1330,-235 1330,-235 1330,-229 1336,-223 1342,-223 1342,-223 1455,-223 1455,-223 1461,-223 1467,-229 1467,-235 1467,-235 1467,-294 1467,-294 1467,-300 1461,-306 1455,-306"/>
<text text-anchor="start" x="1352.5" y="-290.8" font-family="Helvetica,sans-Serif" font-size="14.00">thalach ≤ 116.0</text>
<text text-anchor="start" x="1351" y="-275.8" font-family="Helvetica,sans-Serif" font-size="14.00">entropy = 0.918</text>
<text text-anchor="start" x="1361" y="-260.8" font-family="Helvetica,sans-Serif" font-size="14.00">samples = 3</text>
<text text-anchor="start" x="1359" y="-245.8" font-family="Helvetica,sans-Serif" font-size="14.00">value = [2, 1]</text>
<text text-anchor="start" x="1338" y="-230.8" font-family="Helvetica,sans-Serif" font-size="14.00">class = No Decease</text>
</g>
<!-- 27&#45;&gt;28 -->
<g id="edge28" class="edge">
<title>27&#45;&gt;28</title>
<path fill="none" stroke="black" d="M1398.5,-341.91C1398.5,-333.65 1398.5,-324.86 1398.5,-316.3"/>
<polygon fill="black" stroke="black" points="1402,-316.02 1398.5,-306.02 1395,-316.02 1402,-316.02"/>
</g>
<!-- 31 -->
<g id="node32" class="node">
<title>31</title>
<path fill="#399de5" stroke="black" d="M1589.5,-298.5C1589.5,-298.5 1497.5,-298.5 1497.5,-298.5 1491.5,-298.5 1485.5,-292.5 1485.5,-286.5 1485.5,-286.5 1485.5,-242.5 1485.5,-242.5 1485.5,-236.5 1491.5,-230.5 1497.5,-230.5 1497.5,-230.5 1589.5,-230.5 1589.5,-230.5 1595.5,-230.5 1601.5,-236.5 1601.5,-242.5 1601.5,-242.5 1601.5,-286.5 1601.5,-286.5 1601.5,-292.5 1595.5,-298.5 1589.5,-298.5"/>
<text text-anchor="start" x="1503.5" y="-283.3" font-family="Helvetica,sans-Serif" font-size="14.00">entropy = 0.0</text>
<text text-anchor="start" x="1506" y="-268.3" font-family="Helvetica,sans-Serif" font-size="14.00">samples = 9</text>
<text text-anchor="start" x="1504" y="-253.3" font-family="Helvetica,sans-Serif" font-size="14.00">value = [0, 9]</text>
<text text-anchor="start" x="1493.5" y="-238.3" font-family="Helvetica,sans-Serif" font-size="14.00">class = Decease</text>
</g>
<!-- 27&#45;&gt;31 -->
<g id="edge31" class="edge">
<title>27&#45;&gt;31</title>
<path fill="none" stroke="black" d="M1448.81,-341.91C1463.58,-329.99 1479.71,-316.98 1494.4,-305.12"/>
<polygon fill="black" stroke="black" points="1496.81,-307.67 1502.4,-298.67 1492.42,-302.22 1496.81,-307.67"/>
</g>
<!-- 29 -->
<g id="node30" class="node">
<title>29</title>
<path fill="#399de5" stroke="black" d="M1371.5,-179.5C1371.5,-179.5 1279.5,-179.5 1279.5,-179.5 1273.5,-179.5 1267.5,-173.5 1267.5,-167.5 1267.5,-167.5 1267.5,-123.5 1267.5,-123.5 1267.5,-117.5 1273.5,-111.5 1279.5,-111.5 1279.5,-111.5 1371.5,-111.5 1371.5,-111.5 1377.5,-111.5 1383.5,-117.5 1383.5,-123.5 1383.5,-123.5 1383.5,-167.5 1383.5,-167.5 1383.5,-173.5 1377.5,-179.5 1371.5,-179.5"/>
<text text-anchor="start" x="1285.5" y="-164.3" font-family="Helvetica,sans-Serif" font-size="14.00">entropy = 0.0</text>
<text text-anchor="start" x="1288" y="-149.3" font-family="Helvetica,sans-Serif" font-size="14.00">samples = 1</text>
<text text-anchor="start" x="1286" y="-134.3" font-family="Helvetica,sans-Serif" font-size="14.00">value = [0, 1]</text>
<text text-anchor="start" x="1275.5" y="-119.3" font-family="Helvetica,sans-Serif" font-size="14.00">class = Decease</text>
</g>
<!-- 28&#45;&gt;29 -->
<g id="edge29" class="edge">
<title>28&#45;&gt;29</title>
<path fill="none" stroke="black" d="M1373.17,-222.91C1366.22,-211.76 1358.67,-199.66 1351.67,-188.44"/>
<polygon fill="black" stroke="black" points="1354.46,-186.3 1346.19,-179.67 1348.52,-190 1354.46,-186.3"/>
</g>
<!-- 30 -->
<g id="node31" class="node">
<title>30</title>
<path fill="#e58139" stroke="black" d="M1527,-179.5C1527,-179.5 1414,-179.5 1414,-179.5 1408,-179.5 1402,-173.5 1402,-167.5 1402,-167.5 1402,-123.5 1402,-123.5 1402,-117.5 1408,-111.5 1414,-111.5 1414,-111.5 1527,-111.5 1527,-111.5 1533,-111.5 1539,-117.5 1539,-123.5 1539,-123.5 1539,-167.5 1539,-167.5 1539,-173.5 1533,-179.5 1527,-179.5"/>
<text text-anchor="start" x="1430.5" y="-164.3" font-family="Helvetica,sans-Serif" font-size="14.00">entropy = 0.0</text>
<text text-anchor="start" x="1433" y="-149.3" font-family="Helvetica,sans-Serif" font-size="14.00">samples = 2</text>
<text text-anchor="start" x="1431" y="-134.3" font-family="Helvetica,sans-Serif" font-size="14.00">value = [2, 0]</text>
<text text-anchor="start" x="1410" y="-119.3" font-family="Helvetica,sans-Serif" font-size="14.00">class = No Decease</text>
</g>
<!-- 28&#45;&gt;30 -->
<g id="edge30" class="edge">
<title>28&#45;&gt;30</title>
<path fill="none" stroke="black" d="M1423.48,-222.91C1430.34,-211.76 1437.79,-199.66 1444.69,-188.44"/>
<polygon fill="black" stroke="black" points="1447.83,-190.02 1450.09,-179.67 1441.87,-186.35 1447.83,-190.02"/>
</g>
</g>
</svg>
