<?xml version="1.0" encoding="UTF-8" standalone="no"?>
<!DOCTYPE svg PUBLIC "-//W3C//DTD SVG 1.1//EN"
 "http://www.w3.org/Graphics/SVG/1.1/DTD/svg11.dtd">
<!-- Generated by graphviz version 2.50.0 (0)
 -->
<!-- Title: Tree Pages: 1 -->
<svg width="2017pt" height="552pt"
 viewBox="0.00 0.00 2016.50 552.00" xmlns="http://www.w3.org/2000/svg" xmlns:xlink="http://www.w3.org/1999/xlink">
<g id="graph0" class="graph" transform="scale(1 1) rotate(0) translate(4 548)">
<title>Tree</title>
<polygon fill="white" stroke="transparent" points="-4,4 -4,-548 2012.5,-548 2012.5,4 -4,4"/>
<!-- 0 -->
<g id="node1" class="node">
<title>0</title>
<path fill="#fbece2" stroke="black" d="M1242,-544C1242,-544 1119,-544 1119,-544 1113,-544 1107,-538 1107,-532 1107,-532 1107,-473 1107,-473 1107,-467 1113,-461 1119,-461 1119,-461 1242,-461 1242,-461 1248,-461 1254,-467 1254,-473 1254,-473 1254,-532 1254,-532 1254,-538 1248,-544 1242,-544"/>
<text text-anchor="start" x="1152.5" y="-528.8" font-family="Helvetica,sans-Serif" font-size="14.00">thal ≤ 4.5</text>
<text text-anchor="start" x="1133" y="-513.8" font-family="Helvetica,sans-Serif" font-size="14.00">entropy = 0.995</text>
<text text-anchor="start" x="1135.5" y="-498.8" font-family="Helvetica,sans-Serif" font-size="14.00">samples = 237</text>
<text text-anchor="start" x="1115" y="-483.8" font-family="Helvetica,sans-Serif" font-size="14.00">value = [128.0, 109.0]</text>
<text text-anchor="start" x="1120" y="-468.8" font-family="Helvetica,sans-Serif" font-size="14.00">class = No Decease</text>
</g>
<!-- 1 -->
<g id="node2" class="node">
<title>1</title>
<path fill="#eba06a" stroke="black" d="M942,-425C942,-425 829,-425 829,-425 823,-425 817,-419 817,-413 817,-413 817,-354 817,-354 817,-348 823,-342 829,-342 829,-342 942,-342 942,-342 948,-342 954,-348 954,-354 954,-354 954,-413 954,-413 954,-419 948,-425 942,-425"/>
<text text-anchor="start" x="861" y="-409.8" font-family="Helvetica,sans-Serif" font-size="14.00">ca ≤ 0.5</text>
<text text-anchor="start" x="838" y="-394.8" font-family="Helvetica,sans-Serif" font-size="14.00">entropy = 0.716</text>
<text text-anchor="start" x="840.5" y="-379.8" font-family="Helvetica,sans-Serif" font-size="14.00">samples = 132</text>
<text text-anchor="start" x="835" y="-364.8" font-family="Helvetica,sans-Serif" font-size="14.00">value = [106, 26]</text>
<text text-anchor="start" x="825" y="-349.8" font-family="Helvetica,sans-Serif" font-size="14.00">class = No Decease</text>
</g>
<!-- 0&#45;&gt;1 -->
<g id="edge1" class="edge">
<title>0&#45;&gt;1</title>
<path fill="none" stroke="black" d="M1106.82,-472.28C1063.16,-454.96 1007.89,-433.04 963.5,-415.43"/>
<polygon fill="black" stroke="black" points="964.78,-412.18 954.2,-411.75 962.2,-418.69 964.78,-412.18"/>
<text text-anchor="middle" x="964.11" y="-431" font-family="Helvetica,sans-Serif" font-size="14.00">True</text>
</g>
<!-- 16 -->
<g id="node17" class="node">
<title>16</title>
<path fill="#6db7ec" stroke="black" d="M1521.5,-425C1521.5,-425 1429.5,-425 1429.5,-425 1423.5,-425 1417.5,-419 1417.5,-413 1417.5,-413 1417.5,-354 1417.5,-354 1417.5,-348 1423.5,-342 1429.5,-342 1429.5,-342 1521.5,-342 1521.5,-342 1527.5,-342 1533.5,-348 1533.5,-354 1533.5,-354 1533.5,-413 1533.5,-413 1533.5,-419 1527.5,-425 1521.5,-425"/>
<text text-anchor="start" x="1451" y="-409.8" font-family="Helvetica,sans-Serif" font-size="14.00">ca ≤ 0.5</text>
<text text-anchor="start" x="1428" y="-394.8" font-family="Helvetica,sans-Serif" font-size="14.00">entropy = 0.741</text>
<text text-anchor="start" x="1430.5" y="-379.8" font-family="Helvetica,sans-Serif" font-size="14.00">samples = 105</text>
<text text-anchor="start" x="1428.5" y="-364.8" font-family="Helvetica,sans-Serif" font-size="14.00">value = [22, 83]</text>
<text text-anchor="start" x="1425.5" y="-349.8" font-family="Helvetica,sans-Serif" font-size="14.00">class = Decease</text>
</g>
<!-- 0&#45;&gt;16 -->
<g id="edge16" class="edge">
<title>0&#45;&gt;16</title>
<path fill="none" stroke="black" d="M1254.18,-472.28C1301.18,-453.64 1361.66,-429.65 1407.51,-411.47"/>
<polygon fill="black" stroke="black" points="1409.06,-414.62 1417.06,-407.68 1406.48,-408.11 1409.06,-414.62"/>
<text text-anchor="middle" x="1407.15" y="-426.93" font-family="Helvetica,sans-Serif" font-size="14.00">False</text>
</g>
<!-- 2 -->
<g id="node3" class="node">
<title>2</title>
<path fill="#e89050" stroke="black" d="M508,-306C508,-306 395,-306 395,-306 389,-306 383,-300 383,-294 383,-294 383,-235 383,-235 383,-229 389,-223 395,-223 395,-223 508,-223 508,-223 514,-223 520,-229 520,-235 520,-235 520,-294 520,-294 520,-300 514,-306 508,-306"/>
<text text-anchor="start" x="419.5" y="-290.8" font-family="Helvetica,sans-Serif" font-size="14.00">age ≤ 54.5</text>
<text text-anchor="start" x="404" y="-275.8" font-family="Helvetica,sans-Serif" font-size="14.00">entropy = 0.485</text>
<text text-anchor="start" x="410.5" y="-260.8" font-family="Helvetica,sans-Serif" font-size="14.00">samples = 95</text>
<text text-anchor="start" x="404.5" y="-245.8" font-family="Helvetica,sans-Serif" font-size="14.00">value = [85, 10]</text>
<text text-anchor="start" x="391" y="-230.8" font-family="Helvetica,sans-Serif" font-size="14.00">class = No Decease</text>
</g>
<!-- 1&#45;&gt;2 -->
<g id="edge2" class="edge">
<title>1&#45;&gt;2</title>
<path fill="none" stroke="black" d="M816.73,-363.96C738.76,-342.94 611.86,-308.73 530.05,-286.68"/>
<polygon fill="black" stroke="black" points="530.87,-283.27 520.31,-284.05 529.05,-290.03 530.87,-283.27"/>
</g>
<!-- 9 -->
<g id="node10" class="node">
<title>9</title>
<path fill="#f9e1d0" stroke="black" d="M942,-306C942,-306 829,-306 829,-306 823,-306 817,-300 817,-294 817,-294 817,-235 817,-235 817,-229 823,-223 829,-223 829,-223 942,-223 942,-223 948,-223 954,-229 954,-235 954,-235 954,-294 954,-294 954,-300 948,-306 942,-306"/>
<text text-anchor="start" x="858" y="-290.8" font-family="Helvetica,sans-Serif" font-size="14.00">sex ≤ 0.5</text>
<text text-anchor="start" x="838" y="-275.8" font-family="Helvetica,sans-Serif" font-size="14.00">entropy = 0.987</text>
<text text-anchor="start" x="844.5" y="-260.8" font-family="Helvetica,sans-Serif" font-size="14.00">samples = 37</text>
<text text-anchor="start" x="838.5" y="-245.8" font-family="Helvetica,sans-Serif" font-size="14.00">value = [21, 16]</text>
<text text-anchor="start" x="825" y="-230.8" font-family="Helvetica,sans-Serif" font-size="14.00">class = No Decease</text>
</g>
<!-- 1&#45;&gt;9 -->
<g id="edge9" class="edge">
<title>1&#45;&gt;9</title>
<path fill="none" stroke="black" d="M885.5,-341.91C885.5,-333.65 885.5,-324.86 885.5,-316.3"/>
<polygon fill="black" stroke="black" points="889,-316.02 885.5,-306.02 882,-316.02 889,-316.02"/>
</g>
<!-- 3 -->
<g id="node4" class="node">
<title>3</title>
<path fill="#e5833c" stroke="black" d="M280,-187C280,-187 167,-187 167,-187 161,-187 155,-181 155,-175 155,-175 155,-116 155,-116 155,-110 161,-104 167,-104 167,-104 280,-104 280,-104 286,-104 292,-110 292,-116 292,-116 292,-175 292,-175 292,-181 286,-187 280,-187"/>
<text text-anchor="start" x="175" y="-171.8" font-family="Helvetica,sans-Serif" font-size="14.00">trestbps ≤ 109.0</text>
<text text-anchor="start" x="176" y="-156.8" font-family="Helvetica,sans-Serif" font-size="14.00">entropy = 0.124</text>
<text text-anchor="start" x="182.5" y="-141.8" font-family="Helvetica,sans-Serif" font-size="14.00">samples = 59</text>
<text text-anchor="start" x="180.5" y="-126.8" font-family="Helvetica,sans-Serif" font-size="14.00">value = [58, 1]</text>
<text text-anchor="start" x="163" y="-111.8" font-family="Helvetica,sans-Serif" font-size="14.00">class = No Decease</text>
</g>
<!-- 2&#45;&gt;3 -->
<g id="edge3" class="edge">
<title>2&#45;&gt;3</title>
<path fill="none" stroke="black" d="M382.78,-228.24C357.1,-215.06 327.75,-200 301.3,-186.42"/>
<polygon fill="black" stroke="black" points="302.57,-183.14 292.08,-181.69 299.37,-189.37 302.57,-183.14"/>
</g>
<!-- 6 -->
<g id="node7" class="node">
<title>6</title>
<path fill="#eeab7b" stroke="black" d="M508,-187C508,-187 395,-187 395,-187 389,-187 383,-181 383,-175 383,-175 383,-116 383,-116 383,-110 389,-104 395,-104 395,-104 508,-104 508,-104 514,-104 520,-110 520,-116 520,-116 520,-175 520,-175 520,-181 514,-187 508,-187"/>
<text text-anchor="start" x="403" y="-171.8" font-family="Helvetica,sans-Serif" font-size="14.00">trestbps ≤ 167.0</text>
<text text-anchor="start" x="404.5" y="-156.8" font-family="Helvetica,sans-Serif" font-size="14.00">entropy = 0.811</text>
<text text-anchor="start" x="410.5" y="-141.8" font-family="Helvetica,sans-Serif" font-size="14.00">samples = 36</text>
<text text-anchor="start" x="408.5" y="-126.8" font-family="Helvetica,sans-Serif" font-size="14.00">value = [27, 9]</text>
<text text-anchor="start" x="391" y="-111.8" font-family="Helvetica,sans-Serif" font-size="14.00">class = No Decease</text>
</g>
<!-- 2&#45;&gt;6 -->
<g id="edge6" class="edge">
<title>2&#45;&gt;6</title>
<path fill="none" stroke="black" d="M451.5,-222.91C451.5,-214.65 451.5,-205.86 451.5,-197.3"/>
<polygon fill="black" stroke="black" points="455,-197.02 451.5,-187.02 448,-197.02 455,-197.02"/>
</g>
<!-- 4 -->
<g id="node5" class="node">
<title>4</title>
<path fill="#ea9a61" stroke="black" d="M125,-68C125,-68 12,-68 12,-68 6,-68 0,-62 0,-56 0,-56 0,-12 0,-12 0,-6 6,0 12,0 12,0 125,0 125,0 131,0 137,-6 137,-12 137,-12 137,-56 137,-56 137,-62 131,-68 125,-68"/>
<text text-anchor="start" x="24.5" y="-52.8" font-family="Helvetica,sans-Serif" font-size="14.00">entropy = 0.65</text>
<text text-anchor="start" x="31" y="-37.8" font-family="Helvetica,sans-Serif" font-size="14.00">samples = 6</text>
<text text-anchor="start" x="29" y="-22.8" font-family="Helvetica,sans-Serif" font-size="14.00">value = [5, 1]</text>
<text text-anchor="start" x="8" y="-7.8" font-family="Helvetica,sans-Serif" font-size="14.00">class = No Decease</text>
</g>
<!-- 3&#45;&gt;4 -->
<g id="edge4" class="edge">
<title>3&#45;&gt;4</title>
<path fill="none" stroke="black" d="M165.78,-103.73C152.1,-94.06 137.53,-83.77 123.95,-74.17"/>
<polygon fill="black" stroke="black" points="125.82,-71.21 115.64,-68.3 121.78,-76.93 125.82,-71.21"/>
</g>
<!-- 5 -->
<g id="node6" class="node">
<title>5</title>
<path fill="#e58139" stroke="black" d="M280,-68C280,-68 167,-68 167,-68 161,-68 155,-62 155,-56 155,-56 155,-12 155,-12 155,-6 161,0 167,0 167,0 280,0 280,0 286,0 292,-6 292,-12 292,-12 292,-56 292,-56 292,-62 286,-68 280,-68"/>
<text text-anchor="start" x="183.5" y="-52.8" font-family="Helvetica,sans-Serif" font-size="14.00">entropy = 0.0</text>
<text text-anchor="start" x="182.5" y="-37.8" font-family="Helvetica,sans-Serif" font-size="14.00">samples = 53</text>
<text text-anchor="start" x="180.5" y="-22.8" font-family="Helvetica,sans-Serif" font-size="14.00">value = [53, 0]</text>
<text text-anchor="start" x="163" y="-7.8" font-family="Helvetica,sans-Serif" font-size="14.00">class = No Decease</text>
</g>
<!-- 3&#45;&gt;5 -->
<g id="edge5" class="edge">
<title>3&#45;&gt;5</title>
<path fill="none" stroke="black" d="M223.5,-103.73C223.5,-95.52 223.5,-86.86 223.5,-78.56"/>
<polygon fill="black" stroke="black" points="227,-78.3 223.5,-68.3 220,-78.3 227,-78.3"/>
</g>
<!-- 7 -->
<g id="node8" class="node">
<title>7</title>
<path fill="#eca26c" stroke="black" d="M435,-68C435,-68 322,-68 322,-68 316,-68 310,-62 310,-56 310,-56 310,-12 310,-12 310,-6 316,0 322,0 322,0 435,0 435,0 441,0 447,-6 447,-12 447,-12 447,-56 447,-56 447,-62 441,-68 435,-68"/>
<text text-anchor="start" x="331" y="-52.8" font-family="Helvetica,sans-Serif" font-size="14.00">entropy = 0.734</text>
<text text-anchor="start" x="337.5" y="-37.8" font-family="Helvetica,sans-Serif" font-size="14.00">samples = 34</text>
<text text-anchor="start" x="335.5" y="-22.8" font-family="Helvetica,sans-Serif" font-size="14.00">value = [27, 7]</text>
<text text-anchor="start" x="318" y="-7.8" font-family="Helvetica,sans-Serif" font-size="14.00">class = No Decease</text>
</g>
<!-- 6&#45;&gt;7 -->
<g id="edge7" class="edge">
<title>6&#45;&gt;7</title>
<path fill="none" stroke="black" d="M424.32,-103.73C418.42,-94.88 412.17,-85.51 406.25,-76.63"/>
<polygon fill="black" stroke="black" points="409.16,-74.68 400.7,-68.3 403.33,-78.56 409.16,-74.68"/>
</g>
<!-- 8 -->
<g id="node9" class="node">
<title>8</title>
<path fill="#399de5" stroke="black" d="M569.5,-68C569.5,-68 477.5,-68 477.5,-68 471.5,-68 465.5,-62 465.5,-56 465.5,-56 465.5,-12 465.5,-12 465.5,-6 471.5,0 477.5,0 477.5,0 569.5,0 569.5,0 575.5,0 581.5,-6 581.5,-12 581.5,-12 581.5,-56 581.5,-56 581.5,-62 575.5,-68 569.5,-68"/>
<text text-anchor="start" x="483.5" y="-52.8" font-family="Helvetica,sans-Serif" font-size="14.00">entropy = 0.0</text>
<text text-anchor="start" x="486" y="-37.8" font-family="Helvetica,sans-Serif" font-size="14.00">samples = 2</text>
<text text-anchor="start" x="484" y="-22.8" font-family="Helvetica,sans-Serif" font-size="14.00">value = [0, 2]</text>
<text text-anchor="start" x="473.5" y="-7.8" font-family="Helvetica,sans-Serif" font-size="14.00">class = Decease</text>
</g>
<!-- 6&#45;&gt;8 -->
<g id="edge8" class="edge">
<title>6&#45;&gt;8</title>
<path fill="none" stroke="black" d="M478.31,-103.73C484.07,-94.97 490.16,-85.7 495.95,-76.91"/>
<polygon fill="black" stroke="black" points="499.03,-78.58 501.6,-68.3 493.19,-74.73 499.03,-78.58"/>
</g>
<!-- 10 -->
<g id="node11" class="node">
<title>10</title>
<path fill="#e99355" stroke="black" d="M870,-187C870,-187 757,-187 757,-187 751,-187 745,-181 745,-175 745,-175 745,-116 745,-116 745,-110 751,-104 757,-104 757,-104 870,-104 870,-104 876,-104 882,-110 882,-116 882,-116 882,-175 882,-175 882,-181 876,-187 870,-187"/>
<text text-anchor="start" x="776.5" y="-171.8" font-family="Helvetica,sans-Serif" font-size="14.00">chol ≤ 318.5</text>
<text text-anchor="start" x="766" y="-156.8" font-family="Helvetica,sans-Serif" font-size="14.00">entropy = 0.544</text>
<text text-anchor="start" x="772.5" y="-141.8" font-family="Helvetica,sans-Serif" font-size="14.00">samples = 16</text>
<text text-anchor="start" x="770.5" y="-126.8" font-family="Helvetica,sans-Serif" font-size="14.00">value = [14, 2]</text>
<text text-anchor="start" x="753" y="-111.8" font-family="Helvetica,sans-Serif" font-size="14.00">class = No Decease</text>
</g>
<!-- 9&#45;&gt;10 -->
<g id="edge10" class="edge">
<title>9&#45;&gt;10</title>
<path fill="none" stroke="black" d="M860.52,-222.91C855.1,-214.1 849.32,-204.7 843.72,-195.61"/>
<polygon fill="black" stroke="black" points="846.66,-193.7 838.44,-187.02 840.7,-197.37 846.66,-193.7"/>
</g>
<!-- 13 -->
<g id="node14" class="node">
<title>13</title>
<path fill="#9ccef2" stroke="black" d="M1004.5,-187C1004.5,-187 912.5,-187 912.5,-187 906.5,-187 900.5,-181 900.5,-175 900.5,-175 900.5,-116 900.5,-116 900.5,-110 906.5,-104 912.5,-104 912.5,-104 1004.5,-104 1004.5,-104 1010.5,-104 1016.5,-110 1016.5,-116 1016.5,-116 1016.5,-175 1016.5,-175 1016.5,-181 1010.5,-187 1004.5,-187"/>
<text text-anchor="start" x="934" y="-171.8" font-family="Helvetica,sans-Serif" font-size="14.00">cp ≤ 3.5</text>
<text text-anchor="start" x="911" y="-156.8" font-family="Helvetica,sans-Serif" font-size="14.00">entropy = 0.918</text>
<text text-anchor="start" x="917.5" y="-141.8" font-family="Helvetica,sans-Serif" font-size="14.00">samples = 21</text>
<text text-anchor="start" x="915.5" y="-126.8" font-family="Helvetica,sans-Serif" font-size="14.00">value = [7, 14]</text>
<text text-anchor="start" x="908.5" y="-111.8" font-family="Helvetica,sans-Serif" font-size="14.00">class = Decease</text>
</g>
<!-- 9&#45;&gt;13 -->
<g id="edge13" class="edge">
<title>9&#45;&gt;13</title>
<path fill="none" stroke="black" d="M910.83,-222.91C916.32,-214.1 922.19,-204.7 927.86,-195.61"/>
<polygon fill="black" stroke="black" points="930.89,-197.36 933.22,-187.02 924.95,-193.65 930.89,-197.36"/>
</g>
<!-- 11 -->
<g id="node12" class="node">
<title>11</title>
<path fill="#e78a47" stroke="black" d="M725,-68C725,-68 612,-68 612,-68 606,-68 600,-62 600,-56 600,-56 600,-12 600,-12 600,-6 606,0 612,0 612,0 725,0 725,0 731,0 737,-6 737,-12 737,-12 737,-56 737,-56 737,-62 731,-68 725,-68"/>
<text text-anchor="start" x="621" y="-52.8" font-family="Helvetica,sans-Serif" font-size="14.00">entropy = 0.353</text>
<text text-anchor="start" x="627.5" y="-37.8" font-family="Helvetica,sans-Serif" font-size="14.00">samples = 15</text>
<text text-anchor="start" x="625.5" y="-22.8" font-family="Helvetica,sans-Serif" font-size="14.00">value = [14, 1]</text>
<text text-anchor="start" x="608" y="-7.8" font-family="Helvetica,sans-Serif" font-size="14.00">class = No Decease</text>
</g>
<!-- 10&#45;&gt;11 -->
<g id="edge11" class="edge">
<title>10&#45;&gt;11</title>
<path fill="none" stroke="black" d="M759.51,-103.73C746.83,-94.15 733.33,-83.96 720.73,-74.44"/>
<polygon fill="black" stroke="black" points="722.68,-71.53 712.6,-68.3 718.47,-77.12 722.68,-71.53"/>
</g>
<!-- 12 -->
<g id="node13" class="node">
<title>12</title>
<path fill="#399de5" stroke="black" d="M859.5,-68C859.5,-68 767.5,-68 767.5,-68 761.5,-68 755.5,-62 755.5,-56 755.5,-56 755.5,-12 755.5,-12 755.5,-6 761.5,0 767.5,0 767.5,0 859.5,0 859.5,0 865.5,0 871.5,-6 871.5,-12 871.5,-12 871.5,-56 871.5,-56 871.5,-62 865.5,-68 859.5,-68"/>
<text text-anchor="start" x="773.5" y="-52.8" font-family="Helvetica,sans-Serif" font-size="14.00">entropy = 0.0</text>
<text text-anchor="start" x="776" y="-37.8" font-family="Helvetica,sans-Serif" font-size="14.00">samples = 1</text>
<text text-anchor="start" x="774" y="-22.8" font-family="Helvetica,sans-Serif" font-size="14.00">value = [0, 1]</text>
<text text-anchor="start" x="763.5" y="-7.8" font-family="Helvetica,sans-Serif" font-size="14.00">class = Decease</text>
</g>
<!-- 10&#45;&gt;12 -->
<g id="edge12" class="edge">
<title>10&#45;&gt;12</title>
<path fill="none" stroke="black" d="M813.5,-103.73C813.5,-95.52 813.5,-86.86 813.5,-78.56"/>
<polygon fill="black" stroke="black" points="817,-78.3 813.5,-68.3 810,-78.3 817,-78.3"/>
</g>
<!-- 14 -->
<g id="node15" class="node">
<title>14</title>
<path fill="#f8dbc6" stroke="black" d="M1015,-68C1015,-68 902,-68 902,-68 896,-68 890,-62 890,-56 890,-56 890,-12 890,-12 890,-6 896,0 902,0 902,0 1015,0 1015,0 1021,0 1027,-6 1027,-12 1027,-12 1027,-56 1027,-56 1027,-62 1021,-68 1015,-68"/>
<text text-anchor="start" x="914.5" y="-52.8" font-family="Helvetica,sans-Serif" font-size="14.00">entropy = 0.98</text>
<text text-anchor="start" x="917.5" y="-37.8" font-family="Helvetica,sans-Serif" font-size="14.00">samples = 12</text>
<text text-anchor="start" x="919" y="-22.8" font-family="Helvetica,sans-Serif" font-size="14.00">value = [7, 5]</text>
<text text-anchor="start" x="898" y="-7.8" font-family="Helvetica,sans-Serif" font-size="14.00">class = No Decease</text>
</g>
<!-- 13&#45;&gt;14 -->
<g id="edge14" class="edge">
<title>13&#45;&gt;14</title>
<path fill="none" stroke="black" d="M958.5,-103.73C958.5,-95.52 958.5,-86.86 958.5,-78.56"/>
<polygon fill="black" stroke="black" points="962,-78.3 958.5,-68.3 955,-78.3 962,-78.3"/>
</g>
<!-- 15 -->
<g id="node16" class="node">
<title>15</title>
<path fill="#399de5" stroke="black" d="M1149.5,-68C1149.5,-68 1057.5,-68 1057.5,-68 1051.5,-68 1045.5,-62 1045.5,-56 1045.5,-56 1045.5,-12 1045.5,-12 1045.5,-6 1051.5,0 1057.5,0 1057.5,0 1149.5,0 1149.5,0 1155.5,0 1161.5,-6 1161.5,-12 1161.5,-12 1161.5,-56 1161.5,-56 1161.5,-62 1155.5,-68 1149.5,-68"/>
<text text-anchor="start" x="1063.5" y="-52.8" font-family="Helvetica,sans-Serif" font-size="14.00">entropy = 0.0</text>
<text text-anchor="start" x="1066" y="-37.8" font-family="Helvetica,sans-Serif" font-size="14.00">samples = 9</text>
<text text-anchor="start" x="1064" y="-22.8" font-family="Helvetica,sans-Serif" font-size="14.00">value = [0, 9]</text>
<text text-anchor="start" x="1053.5" y="-7.8" font-family="Helvetica,sans-Serif" font-size="14.00">class = Decease</text>
</g>
<!-- 13&#45;&gt;15 -->
<g id="edge15" class="edge">
<title>13&#45;&gt;15</title>
<path fill="none" stroke="black" d="M1012.49,-103.73C1025.17,-94.15 1038.67,-83.96 1051.27,-74.44"/>
<polygon fill="black" stroke="black" points="1053.53,-77.12 1059.4,-68.3 1049.32,-71.53 1053.53,-77.12"/>
</g>
<!-- 17 -->
<g id="node18" class="node">
<title>17</title>
<path fill="#e4f2fb" stroke="black" d="M1521.5,-306C1521.5,-306 1429.5,-306 1429.5,-306 1423.5,-306 1417.5,-300 1417.5,-294 1417.5,-294 1417.5,-235 1417.5,-235 1417.5,-229 1423.5,-223 1429.5,-223 1429.5,-223 1521.5,-223 1521.5,-223 1527.5,-223 1533.5,-229 1533.5,-235 1533.5,-235 1533.5,-294 1533.5,-294 1533.5,-300 1527.5,-306 1521.5,-306"/>
<text text-anchor="start" x="1451" y="-290.8" font-family="Helvetica,sans-Serif" font-size="14.00">cp ≤ 3.5</text>
<text text-anchor="start" x="1428" y="-275.8" font-family="Helvetica,sans-Serif" font-size="14.00">entropy = 0.996</text>
<text text-anchor="start" x="1434.5" y="-260.8" font-family="Helvetica,sans-Serif" font-size="14.00">samples = 41</text>
<text text-anchor="start" x="1428.5" y="-245.8" font-family="Helvetica,sans-Serif" font-size="14.00">value = [19, 22]</text>
<text text-anchor="start" x="1425.5" y="-230.8" font-family="Helvetica,sans-Serif" font-size="14.00">class = Decease</text>
</g>
<!-- 16&#45;&gt;17 -->
<g id="edge17" class="edge">
<title>16&#45;&gt;17</title>
<path fill="none" stroke="black" d="M1475.5,-341.91C1475.5,-333.65 1475.5,-324.86 1475.5,-316.3"/>
<polygon fill="black" stroke="black" points="1479,-316.02 1475.5,-306.02 1472,-316.02 1479,-316.02"/>
</g>
<!-- 24 -->
<g id="node25" class="node">
<title>24</title>
<path fill="#43a2e6" stroke="black" d="M1862.5,-306C1862.5,-306 1770.5,-306 1770.5,-306 1764.5,-306 1758.5,-300 1758.5,-294 1758.5,-294 1758.5,-235 1758.5,-235 1758.5,-229 1764.5,-223 1770.5,-223 1770.5,-223 1862.5,-223 1862.5,-223 1868.5,-223 1874.5,-229 1874.5,-235 1874.5,-235 1874.5,-294 1874.5,-294 1874.5,-300 1868.5,-306 1862.5,-306"/>
<text text-anchor="start" x="1777" y="-290.8" font-family="Helvetica,sans-Serif" font-size="14.00">restecg ≤ 0.5</text>
<text text-anchor="start" x="1769" y="-275.8" font-family="Helvetica,sans-Serif" font-size="14.00">entropy = 0.273</text>
<text text-anchor="start" x="1775.5" y="-260.8" font-family="Helvetica,sans-Serif" font-size="14.00">samples = 64</text>
<text text-anchor="start" x="1773.5" y="-245.8" font-family="Helvetica,sans-Serif" font-size="14.00">value = [3, 61]</text>
<text text-anchor="start" x="1766.5" y="-230.8" font-family="Helvetica,sans-Serif" font-size="14.00">class = Decease</text>
</g>
<!-- 16&#45;&gt;24 -->
<g id="edge24" class="edge">
<title>16&#45;&gt;24</title>
<path fill="none" stroke="black" d="M1533.73,-362.52C1593.23,-342.11 1685.55,-310.43 1748.4,-288.87"/>
<polygon fill="black" stroke="black" points="1749.9,-292.05 1758.22,-285.5 1747.63,-285.43 1749.9,-292.05"/>
</g>
<!-- 18 -->
<g id="node19" class="node">
<title>18</title>
<path fill="#efb185" stroke="black" d="M1460,-187C1460,-187 1347,-187 1347,-187 1341,-187 1335,-181 1335,-175 1335,-175 1335,-116 1335,-116 1335,-110 1341,-104 1347,-104 1347,-104 1460,-104 1460,-104 1466,-104 1472,-110 1472,-116 1472,-116 1472,-175 1472,-175 1472,-181 1466,-187 1460,-187"/>
<text text-anchor="start" x="1370" y="-171.8" font-family="Helvetica,sans-Serif" font-size="14.00">slope ≤ 1.5</text>
<text text-anchor="start" x="1356" y="-156.8" font-family="Helvetica,sans-Serif" font-size="14.00">entropy = 0.852</text>
<text text-anchor="start" x="1362.5" y="-141.8" font-family="Helvetica,sans-Serif" font-size="14.00">samples = 18</text>
<text text-anchor="start" x="1360.5" y="-126.8" font-family="Helvetica,sans-Serif" font-size="14.00">value = [13, 5]</text>
<text text-anchor="start" x="1343" y="-111.8" font-family="Helvetica,sans-Serif" font-size="14.00">class = No Decease</text>
</g>
<!-- 17&#45;&gt;18 -->
<g id="edge18" class="edge">
<title>17&#45;&gt;18</title>
<path fill="none" stroke="black" d="M1450.52,-222.91C1445.1,-214.1 1439.32,-204.7 1433.72,-195.61"/>
<polygon fill="black" stroke="black" points="1436.66,-193.7 1428.44,-187.02 1430.7,-197.37 1436.66,-193.7"/>
</g>
<!-- 21 -->
<g id="node22" class="node">
<title>21</title>
<path fill="#7fc0ee" stroke="black" d="M1594.5,-187C1594.5,-187 1502.5,-187 1502.5,-187 1496.5,-187 1490.5,-181 1490.5,-175 1490.5,-175 1490.5,-116 1490.5,-116 1490.5,-110 1496.5,-104 1502.5,-104 1502.5,-104 1594.5,-104 1594.5,-104 1600.5,-104 1606.5,-110 1606.5,-116 1606.5,-116 1606.5,-175 1606.5,-175 1606.5,-181 1600.5,-187 1594.5,-187"/>
<text text-anchor="start" x="1511.5" y="-171.8" font-family="Helvetica,sans-Serif" font-size="14.00">chol ≤ 237.5</text>
<text text-anchor="start" x="1501" y="-156.8" font-family="Helvetica,sans-Serif" font-size="14.00">entropy = 0.828</text>
<text text-anchor="start" x="1507.5" y="-141.8" font-family="Helvetica,sans-Serif" font-size="14.00">samples = 23</text>
<text text-anchor="start" x="1505.5" y="-126.8" font-family="Helvetica,sans-Serif" font-size="14.00">value = [6, 17]</text>
<text text-anchor="start" x="1498.5" y="-111.8" font-family="Helvetica,sans-Serif" font-size="14.00">class = Decease</text>
</g>
<!-- 17&#45;&gt;21 -->
<g id="edge21" class="edge">
<title>17&#45;&gt;21</title>
<path fill="none" stroke="black" d="M1500.83,-222.91C1506.32,-214.1 1512.19,-204.7 1517.86,-195.61"/>
<polygon fill="black" stroke="black" points="1520.89,-197.36 1523.22,-187.02 1514.95,-193.65 1520.89,-197.36"/>
</g>
<!-- 19 -->
<g id="node20" class="node">
<title>19</title>
<path fill="#e58139" stroke="black" d="M1305,-68C1305,-68 1192,-68 1192,-68 1186,-68 1180,-62 1180,-56 1180,-56 1180,-12 1180,-12 1180,-6 1186,0 1192,0 1192,0 1305,0 1305,0 1311,0 1317,-6 1317,-12 1317,-12 1317,-56 1317,-56 1317,-62 1311,-68 1305,-68"/>
<text text-anchor="start" x="1208.5" y="-52.8" font-family="Helvetica,sans-Serif" font-size="14.00">entropy = 0.0</text>
<text text-anchor="start" x="1211" y="-37.8" font-family="Helvetica,sans-Serif" font-size="14.00">samples = 6</text>
<text text-anchor="start" x="1209" y="-22.8" font-family="Helvetica,sans-Serif" font-size="14.00">value = [6, 0]</text>
<text text-anchor="start" x="1188" y="-7.8" font-family="Helvetica,sans-Serif" font-size="14.00">class = No Decease</text>
</g>
<!-- 18&#45;&gt;19 -->
<g id="edge19" class="edge">
<title>18&#45;&gt;19</title>
<path fill="none" stroke="black" d="M1345.78,-103.73C1332.1,-94.06 1317.53,-83.77 1303.95,-74.17"/>
<polygon fill="black" stroke="black" points="1305.82,-71.21 1295.64,-68.3 1301.78,-76.93 1305.82,-71.21"/>
</g>
<!-- 20 -->
<g id="node21" class="node">
<title>20</title>
<path fill="#f8dbc6" stroke="black" d="M1460,-68C1460,-68 1347,-68 1347,-68 1341,-68 1335,-62 1335,-56 1335,-56 1335,-12 1335,-12 1335,-6 1341,0 1347,0 1347,0 1460,0 1460,0 1466,0 1472,-6 1472,-12 1472,-12 1472,-56 1472,-56 1472,-62 1466,-68 1460,-68"/>
<text text-anchor="start" x="1359.5" y="-52.8" font-family="Helvetica,sans-Serif" font-size="14.00">entropy = 0.98</text>
<text text-anchor="start" x="1362.5" y="-37.8" font-family="Helvetica,sans-Serif" font-size="14.00">samples = 12</text>
<text text-anchor="start" x="1364" y="-22.8" font-family="Helvetica,sans-Serif" font-size="14.00">value = [7, 5]</text>
<text text-anchor="start" x="1343" y="-7.8" font-family="Helvetica,sans-Serif" font-size="14.00">class = No Decease</text>
</g>
<!-- 18&#45;&gt;20 -->
<g id="edge20" class="edge">
<title>18&#45;&gt;20</title>
<path fill="none" stroke="black" d="M1403.5,-103.73C1403.5,-95.52 1403.5,-86.86 1403.5,-78.56"/>
<polygon fill="black" stroke="black" points="1407,-78.3 1403.5,-68.3 1400,-78.3 1407,-78.3"/>
</g>
<!-- 22 -->
<g id="node23" class="node">
<title>22</title>
<path fill="#e3f1fb" stroke="black" d="M1594.5,-68C1594.5,-68 1502.5,-68 1502.5,-68 1496.5,-68 1490.5,-62 1490.5,-56 1490.5,-56 1490.5,-12 1490.5,-12 1490.5,-6 1496.5,0 1502.5,0 1502.5,0 1594.5,0 1594.5,0 1600.5,0 1606.5,-6 1606.5,-12 1606.5,-12 1606.5,-56 1606.5,-56 1606.5,-62 1600.5,-68 1594.5,-68"/>
<text text-anchor="start" x="1501" y="-52.8" font-family="Helvetica,sans-Serif" font-size="14.00">entropy = 0.996</text>
<text text-anchor="start" x="1507.5" y="-37.8" font-family="Helvetica,sans-Serif" font-size="14.00">samples = 13</text>
<text text-anchor="start" x="1509" y="-22.8" font-family="Helvetica,sans-Serif" font-size="14.00">value = [6, 7]</text>
<text text-anchor="start" x="1498.5" y="-7.8" font-family="Helvetica,sans-Serif" font-size="14.00">class = Decease</text>
</g>
<!-- 21&#45;&gt;22 -->
<g id="edge22" class="edge">
<title>21&#45;&gt;22</title>
<path fill="none" stroke="black" d="M1548.5,-103.73C1548.5,-95.52 1548.5,-86.86 1548.5,-78.56"/>
<polygon fill="black" stroke="black" points="1552,-78.3 1548.5,-68.3 1545,-78.3 1552,-78.3"/>
</g>
<!-- 23 -->
<g id="node24" class="node">
<title>23</title>
<path fill="#399de5" stroke="black" d="M1728.5,-68C1728.5,-68 1636.5,-68 1636.5,-68 1630.5,-68 1624.5,-62 1624.5,-56 1624.5,-56 1624.5,-12 1624.5,-12 1624.5,-6 1630.5,0 1636.5,0 1636.5,0 1728.5,0 1728.5,0 1734.5,0 1740.5,-6 1740.5,-12 1740.5,-12 1740.5,-56 1740.5,-56 1740.5,-62 1734.5,-68 1728.5,-68"/>
<text text-anchor="start" x="1642.5" y="-52.8" font-family="Helvetica,sans-Serif" font-size="14.00">entropy = 0.0</text>
<text text-anchor="start" x="1641.5" y="-37.8" font-family="Helvetica,sans-Serif" font-size="14.00">samples = 10</text>
<text text-anchor="start" x="1639.5" y="-22.8" font-family="Helvetica,sans-Serif" font-size="14.00">value = [0, 10]</text>
<text text-anchor="start" x="1632.5" y="-7.8" font-family="Helvetica,sans-Serif" font-size="14.00">class = Decease</text>
</g>
<!-- 21&#45;&gt;23 -->
<g id="edge23" class="edge">
<title>21&#45;&gt;23</title>
<path fill="none" stroke="black" d="M1598.4,-103.73C1610,-94.24 1622.35,-84.16 1633.9,-74.72"/>
<polygon fill="black" stroke="black" points="1636.22,-77.34 1641.75,-68.3 1631.79,-71.92 1636.22,-77.34"/>
</g>
<!-- 25 -->
<g id="node26" class="node">
<title>25</title>
<path fill="#51a9e8" stroke="black" d="M1862.5,-187C1862.5,-187 1770.5,-187 1770.5,-187 1764.5,-187 1758.5,-181 1758.5,-175 1758.5,-175 1758.5,-116 1758.5,-116 1758.5,-110 1764.5,-104 1770.5,-104 1770.5,-104 1862.5,-104 1862.5,-104 1868.5,-104 1874.5,-110 1874.5,-116 1874.5,-116 1874.5,-175 1874.5,-175 1874.5,-181 1868.5,-187 1862.5,-187"/>
<text text-anchor="start" x="1792" y="-171.8" font-family="Helvetica,sans-Serif" font-size="14.00">ca ≤ 2.5</text>
<text text-anchor="start" x="1769" y="-156.8" font-family="Helvetica,sans-Serif" font-size="14.00">entropy = 0.491</text>
<text text-anchor="start" x="1775.5" y="-141.8" font-family="Helvetica,sans-Serif" font-size="14.00">samples = 28</text>
<text text-anchor="start" x="1773.5" y="-126.8" font-family="Helvetica,sans-Serif" font-size="14.00">value = [3, 25]</text>
<text text-anchor="start" x="1766.5" y="-111.8" font-family="Helvetica,sans-Serif" font-size="14.00">class = Decease</text>
</g>
<!-- 24&#45;&gt;25 -->
<g id="edge25" class="edge">
<title>24&#45;&gt;25</title>
<path fill="none" stroke="black" d="M1816.5,-222.91C1816.5,-214.65 1816.5,-205.86 1816.5,-197.3"/>
<polygon fill="black" stroke="black" points="1820,-197.02 1816.5,-187.02 1813,-197.02 1820,-197.02"/>
</g>
<!-- 28 -->
<g id="node29" class="node">
<title>28</title>
<path fill="#399de5" stroke="black" d="M1996.5,-179.5C1996.5,-179.5 1904.5,-179.5 1904.5,-179.5 1898.5,-179.5 1892.5,-173.5 1892.5,-167.5 1892.5,-167.5 1892.5,-123.5 1892.5,-123.5 1892.5,-117.5 1898.5,-111.5 1904.5,-111.5 1904.5,-111.5 1996.5,-111.5 1996.5,-111.5 2002.5,-111.5 2008.5,-117.5 2008.5,-123.5 2008.5,-123.5 2008.5,-167.5 2008.5,-167.5 2008.5,-173.5 2002.5,-179.5 1996.5,-179.5"/>
<text text-anchor="start" x="1910.5" y="-164.3" font-family="Helvetica,sans-Serif" font-size="14.00">entropy = 0.0</text>
<text text-anchor="start" x="1909.5" y="-149.3" font-family="Helvetica,sans-Serif" font-size="14.00">samples = 36</text>
<text text-anchor="start" x="1907.5" y="-134.3" font-family="Helvetica,sans-Serif" font-size="14.00">value = [0, 36]</text>
<text text-anchor="start" x="1900.5" y="-119.3" font-family="Helvetica,sans-Serif" font-size="14.00">class = Decease</text>
</g>
<!-- 24&#45;&gt;28 -->
<g id="edge28" class="edge">
<title>24&#45;&gt;28</title>
<path fill="none" stroke="black" d="M1862.99,-222.91C1876.51,-211.1 1891.27,-198.22 1904.75,-186.45"/>
<polygon fill="black" stroke="black" points="1907.28,-188.88 1912.51,-179.67 1902.68,-183.61 1907.28,-188.88"/>
</g>
<!-- 26 -->
<g id="node27" class="node">
<title>26</title>
<path fill="#42a1e6" stroke="black" d="M1862.5,-68C1862.5,-68 1770.5,-68 1770.5,-68 1764.5,-68 1758.5,-62 1758.5,-56 1758.5,-56 1758.5,-12 1758.5,-12 1758.5,-6 1764.5,0 1770.5,0 1770.5,0 1862.5,0 1862.5,0 1868.5,0 1874.5,-6 1874.5,-12 1874.5,-12 1874.5,-56 1874.5,-56 1874.5,-62 1868.5,-68 1862.5,-68"/>
<text text-anchor="start" x="1769" y="-52.8" font-family="Helvetica,sans-Serif" font-size="14.00">entropy = 0.258</text>
<text text-anchor="start" x="1775.5" y="-37.8" font-family="Helvetica,sans-Serif" font-size="14.00">samples = 23</text>
<text text-anchor="start" x="1773.5" y="-22.8" font-family="Helvetica,sans-Serif" font-size="14.00">value = [1, 22]</text>
<text text-anchor="start" x="1766.5" y="-7.8" font-family="Helvetica,sans-Serif" font-size="14.00">class = Decease</text>
</g>
<!-- 25&#45;&gt;26 -->
<g id="edge26" class="edge">
<title>25&#45;&gt;26</title>
<path fill="none" stroke="black" d="M1816.5,-103.73C1816.5,-95.52 1816.5,-86.86 1816.5,-78.56"/>
<polygon fill="black" stroke="black" points="1820,-78.3 1816.5,-68.3 1813,-78.3 1820,-78.3"/>
</g>
<!-- 27 -->
<g id="node28" class="node">
<title>27</title>
<path fill="#bddef6" stroke="black" d="M1996.5,-68C1996.5,-68 1904.5,-68 1904.5,-68 1898.5,-68 1892.5,-62 1892.5,-56 1892.5,-56 1892.5,-12 1892.5,-12 1892.5,-6 1898.5,0 1904.5,0 1904.5,0 1996.5,0 1996.5,0 2002.5,0 2008.5,-6 2008.5,-12 2008.5,-12 2008.5,-56 2008.5,-56 2008.5,-62 2002.5,-68 1996.5,-68"/>
<text text-anchor="start" x="1903" y="-52.8" font-family="Helvetica,sans-Serif" font-size="14.00">entropy = 0.971</text>
<text text-anchor="start" x="1913" y="-37.8" font-family="Helvetica,sans-Serif" font-size="14.00">samples = 5</text>
<text text-anchor="start" x="1911" y="-22.8" font-family="Helvetica,sans-Serif" font-size="14.00">value = [2, 3]</text>
<text text-anchor="start" x="1900.5" y="-7.8" font-family="Helvetica,sans-Serif" font-size="14.00">class = Decease</text>
</g>
<!-- 25&#45;&gt;27 -->
<g id="edge27" class="edge">
<title>25&#45;&gt;27</title>
<path fill="none" stroke="black" d="M1866.4,-103.73C1878,-94.24 1890.35,-84.16 1901.9,-74.72"/>
<polygon fill="black" stroke="black" points="1904.22,-77.34 1909.75,-68.3 1899.79,-71.92 1904.22,-77.34"/>
</g>
</g>
</svg>
