<?xml version="1.0" encoding="UTF-8" standalone="no"?>
<!DOCTYPE svg PUBLIC "-//W3C//DTD SVG 1.1//EN"
 "http://www.w3.org/Graphics/SVG/1.1/DTD/svg11.dtd">
<!-- Generated by graphviz version 2.50.0 (0)
 -->
<!-- Title: Tree Pages: 1 -->
<svg width="1733pt" height="552pt"
 viewBox="0.00 0.00 1732.50 552.00" xmlns="http://www.w3.org/2000/svg" xmlns:xlink="http://www.w3.org/1999/xlink">
<g id="graph0" class="graph" transform="scale(1 1) rotate(0) translate(4 548)">
<title>Tree</title>
<polygon fill="white" stroke="transparent" points="-4,4 -4,-548 1728.5,-548 1728.5,4 -4,4"/>
<!-- 0 -->
<g id="node1" class="node">
<title>0</title>
<path fill="#fbece2" stroke="black" d="M875,-544C875,-544 752,-544 752,-544 746,-544 740,-538 740,-532 740,-532 740,-473 740,-473 740,-467 746,-461 752,-461 752,-461 875,-461 875,-461 881,-461 887,-467 887,-473 887,-473 887,-532 887,-532 887,-538 881,-544 875,-544"/>
<text text-anchor="start" x="785.5" y="-528.8" font-family="Helvetica,sans-Serif" font-size="14.00">thal ≤ 4.5</text>
<text text-anchor="start" x="766" y="-513.8" font-family="Helvetica,sans-Serif" font-size="14.00">entropy = 0.995</text>
<text text-anchor="start" x="768.5" y="-498.8" font-family="Helvetica,sans-Serif" font-size="14.00">samples = 237</text>
<text text-anchor="start" x="748" y="-483.8" font-family="Helvetica,sans-Serif" font-size="14.00">value = [128.0, 109.0]</text>
<text text-anchor="start" x="753" y="-468.8" font-family="Helvetica,sans-Serif" font-size="14.00">class = No Decease</text>
</g>
<!-- 1 -->
<g id="node2" class="node">
<title>1</title>
<path fill="#eca16b" stroke="black" d="M658,-425C658,-425 545,-425 545,-425 539,-425 533,-419 533,-413 533,-413 533,-354 533,-354 533,-348 539,-342 545,-342 545,-342 658,-342 658,-342 664,-342 670,-348 670,-354 670,-354 670,-413 670,-413 670,-419 664,-425 658,-425"/>
<text text-anchor="start" x="568" y="-409.8" font-family="Helvetica,sans-Serif" font-size="14.00">slope ≤ 1.5</text>
<text text-anchor="start" x="554" y="-394.8" font-family="Helvetica,sans-Serif" font-size="14.00">entropy = 0.728</text>
<text text-anchor="start" x="556.5" y="-379.8" font-family="Helvetica,sans-Serif" font-size="14.00">samples = 128</text>
<text text-anchor="start" x="551" y="-364.8" font-family="Helvetica,sans-Serif" font-size="14.00">value = [102, 26]</text>
<text text-anchor="start" x="541" y="-349.8" font-family="Helvetica,sans-Serif" font-size="14.00">class = No Decease</text>
</g>
<!-- 0&#45;&gt;1 -->
<g id="edge1" class="edge">
<title>0&#45;&gt;1</title>
<path fill="none" stroke="black" d="M739.95,-460.91C720.35,-450.09 699.11,-438.37 679.29,-427.43"/>
<polygon fill="black" stroke="black" points="680.74,-424.23 670.29,-422.47 677.36,-430.36 680.74,-424.23"/>
<text text-anchor="middle" x="677.23" y="-442.78" font-family="Helvetica,sans-Serif" font-size="14.00">True</text>
</g>
<!-- 14 -->
<g id="node15" class="node">
<title>14</title>
<path fill="#77bced" stroke="black" d="M1215.5,-425C1215.5,-425 1123.5,-425 1123.5,-425 1117.5,-425 1111.5,-419 1111.5,-413 1111.5,-413 1111.5,-354 1111.5,-354 1111.5,-348 1117.5,-342 1123.5,-342 1123.5,-342 1215.5,-342 1215.5,-342 1221.5,-342 1227.5,-348 1227.5,-354 1227.5,-354 1227.5,-413 1227.5,-413 1227.5,-419 1221.5,-425 1215.5,-425"/>
<text text-anchor="start" x="1145" y="-409.8" font-family="Helvetica,sans-Serif" font-size="14.00">ca ≤ 0.5</text>
<text text-anchor="start" x="1122" y="-394.8" font-family="Helvetica,sans-Serif" font-size="14.00">entropy = 0.793</text>
<text text-anchor="start" x="1124.5" y="-379.8" font-family="Helvetica,sans-Serif" font-size="14.00">samples = 109</text>
<text text-anchor="start" x="1122.5" y="-364.8" font-family="Helvetica,sans-Serif" font-size="14.00">value = [26, 83]</text>
<text text-anchor="start" x="1119.5" y="-349.8" font-family="Helvetica,sans-Serif" font-size="14.00">class = Decease</text>
</g>
<!-- 0&#45;&gt;14 -->
<g id="edge14" class="edge">
<title>0&#45;&gt;14</title>
<path fill="none" stroke="black" d="M887.26,-477.26C950.38,-456.51 1040.5,-426.9 1101.8,-406.75"/>
<polygon fill="black" stroke="black" points="1102.98,-410.05 1111.39,-403.6 1100.79,-403.4 1102.98,-410.05"/>
<text text-anchor="middle" x="1100.11" y="-422.21" font-family="Helvetica,sans-Serif" font-size="14.00">False</text>
</g>
<!-- 2 -->
<g id="node3" class="node">
<title>2</title>
<path fill="#e78b49" stroke="black" d="M430,-306C430,-306 317,-306 317,-306 311,-306 305,-300 305,-294 305,-294 305,-235 305,-235 305,-229 311,-223 317,-223 317,-223 430,-223 430,-223 436,-223 442,-229 442,-235 442,-235 442,-294 442,-294 442,-300 436,-306 430,-306"/>
<text text-anchor="start" x="327" y="-290.8" font-family="Helvetica,sans-Serif" font-size="14.00">thalach ≤ 162.5</text>
<text text-anchor="start" x="326" y="-275.8" font-family="Helvetica,sans-Serif" font-size="14.00">entropy = 0.388</text>
<text text-anchor="start" x="332.5" y="-260.8" font-family="Helvetica,sans-Serif" font-size="14.00">samples = 79</text>
<text text-anchor="start" x="330.5" y="-245.8" font-family="Helvetica,sans-Serif" font-size="14.00">value = [73, 6]</text>
<text text-anchor="start" x="313" y="-230.8" font-family="Helvetica,sans-Serif" font-size="14.00">class = No Decease</text>
</g>
<!-- 1&#45;&gt;2 -->
<g id="edge2" class="edge">
<title>1&#45;&gt;2</title>
<path fill="none" stroke="black" d="M532.78,-347.24C507.1,-334.06 477.75,-319 451.3,-305.42"/>
<polygon fill="black" stroke="black" points="452.57,-302.14 442.08,-300.69 449.37,-308.37 452.57,-302.14"/>
</g>
<!-- 7 -->
<g id="node8" class="node">
<title>7</title>
<path fill="#f7d8c2" stroke="black" d="M658,-306C658,-306 545,-306 545,-306 539,-306 533,-300 533,-294 533,-294 533,-235 533,-235 533,-229 539,-223 545,-223 545,-223 658,-223 658,-223 664,-223 670,-229 670,-235 670,-235 670,-294 670,-294 670,-300 664,-306 658,-306"/>
<text text-anchor="start" x="577" y="-290.8" font-family="Helvetica,sans-Serif" font-size="14.00">ca ≤ 0.5</text>
<text text-anchor="start" x="554" y="-275.8" font-family="Helvetica,sans-Serif" font-size="14.00">entropy = 0.976</text>
<text text-anchor="start" x="560.5" y="-260.8" font-family="Helvetica,sans-Serif" font-size="14.00">samples = 49</text>
<text text-anchor="start" x="554.5" y="-245.8" font-family="Helvetica,sans-Serif" font-size="14.00">value = [29, 20]</text>
<text text-anchor="start" x="541" y="-230.8" font-family="Helvetica,sans-Serif" font-size="14.00">class = No Decease</text>
</g>
<!-- 1&#45;&gt;7 -->
<g id="edge7" class="edge">
<title>1&#45;&gt;7</title>
<path fill="none" stroke="black" d="M601.5,-341.91C601.5,-333.65 601.5,-324.86 601.5,-316.3"/>
<polygon fill="black" stroke="black" points="605,-316.02 601.5,-306.02 598,-316.02 605,-316.02"/>
</g>
<!-- 3 -->
<g id="node4" class="node">
<title>3</title>
<path fill="#ea9b62" stroke="black" d="M275,-187C275,-187 162,-187 162,-187 156,-187 150,-181 150,-175 150,-175 150,-116 150,-116 150,-110 156,-104 162,-104 162,-104 275,-104 275,-104 281,-104 287,-110 287,-116 287,-116 287,-175 287,-175 287,-181 281,-187 275,-187"/>
<text text-anchor="start" x="194" y="-171.8" font-family="Helvetica,sans-Serif" font-size="14.00">ca ≤ 1.5</text>
<text text-anchor="start" x="171" y="-156.8" font-family="Helvetica,sans-Serif" font-size="14.00">entropy = 0.661</text>
<text text-anchor="start" x="177.5" y="-141.8" font-family="Helvetica,sans-Serif" font-size="14.00">samples = 35</text>
<text text-anchor="start" x="164" y="-126.8" font-family="Helvetica,sans-Serif" font-size="14.00">value = [29.0, 6.0]</text>
<text text-anchor="start" x="158" y="-111.8" font-family="Helvetica,sans-Serif" font-size="14.00">class = No Decease</text>
</g>
<!-- 2&#45;&gt;3 -->
<g id="edge3" class="edge">
<title>2&#45;&gt;3</title>
<path fill="none" stroke="black" d="M319.72,-222.91C306.98,-213.29 293.29,-202.95 280.22,-193.09"/>
<polygon fill="black" stroke="black" points="282.27,-190.25 272.18,-187.02 278.05,-195.84 282.27,-190.25"/>
</g>
<!-- 6 -->
<g id="node7" class="node">
<title>6</title>
<path fill="#e58139" stroke="black" d="M430,-179.5C430,-179.5 317,-179.5 317,-179.5 311,-179.5 305,-173.5 305,-167.5 305,-167.5 305,-123.5 305,-123.5 305,-117.5 311,-111.5 317,-111.5 317,-111.5 430,-111.5 430,-111.5 436,-111.5 442,-117.5 442,-123.5 442,-123.5 442,-167.5 442,-167.5 442,-173.5 436,-179.5 430,-179.5"/>
<text text-anchor="start" x="333.5" y="-164.3" font-family="Helvetica,sans-Serif" font-size="14.00">entropy = 0.0</text>
<text text-anchor="start" x="332.5" y="-149.3" font-family="Helvetica,sans-Serif" font-size="14.00">samples = 44</text>
<text text-anchor="start" x="330.5" y="-134.3" font-family="Helvetica,sans-Serif" font-size="14.00">value = [44, 0]</text>
<text text-anchor="start" x="313" y="-119.3" font-family="Helvetica,sans-Serif" font-size="14.00">class = No Decease</text>
</g>
<!-- 2&#45;&gt;6 -->
<g id="edge6" class="edge">
<title>2&#45;&gt;6</title>
<path fill="none" stroke="black" d="M373.5,-222.91C373.5,-212.2 373.5,-200.62 373.5,-189.78"/>
<polygon fill="black" stroke="black" points="377,-189.67 373.5,-179.67 370,-189.67 377,-189.67"/>
</g>
<!-- 4 -->
<g id="node5" class="node">
<title>4</title>
<path fill="#e89050" stroke="black" d="M125,-68C125,-68 12,-68 12,-68 6,-68 0,-62 0,-56 0,-56 0,-12 0,-12 0,-6 6,0 12,0 12,0 125,0 125,0 131,0 137,-6 137,-12 137,-12 137,-56 137,-56 137,-62 131,-68 125,-68"/>
<text text-anchor="start" x="24.5" y="-52.8" font-family="Helvetica,sans-Serif" font-size="14.00">entropy = 0.48</text>
<text text-anchor="start" x="27.5" y="-37.8" font-family="Helvetica,sans-Serif" font-size="14.00">samples = 29</text>
<text text-anchor="start" x="25.5" y="-22.8" font-family="Helvetica,sans-Serif" font-size="14.00">value = [26, 3]</text>
<text text-anchor="start" x="8" y="-7.8" font-family="Helvetica,sans-Serif" font-size="14.00">class = No Decease</text>
</g>
<!-- 3&#45;&gt;4 -->
<g id="edge4" class="edge">
<title>3&#45;&gt;4</title>
<path fill="none" stroke="black" d="M162.65,-103.73C149.53,-94.15 135.57,-83.96 122.53,-74.44"/>
<polygon fill="black" stroke="black" points="124.26,-71.37 114.12,-68.3 120.13,-77.02 124.26,-71.37"/>
</g>
<!-- 5 -->
<g id="node6" class="node">
<title>5</title>
<path fill="#ffffff" stroke="black" d="M280,-68C280,-68 167,-68 167,-68 161,-68 155,-62 155,-56 155,-56 155,-12 155,-12 155,-6 161,0 167,0 167,0 280,0 280,0 286,0 292,-6 292,-12 292,-12 292,-56 292,-56 292,-62 286,-68 280,-68"/>
<text text-anchor="start" x="183.5" y="-52.8" font-family="Helvetica,sans-Serif" font-size="14.00">entropy = 1.0</text>
<text text-anchor="start" x="186" y="-37.8" font-family="Helvetica,sans-Serif" font-size="14.00">samples = 6</text>
<text text-anchor="start" x="184" y="-22.8" font-family="Helvetica,sans-Serif" font-size="14.00">value = [3, 3]</text>
<text text-anchor="start" x="163" y="-7.8" font-family="Helvetica,sans-Serif" font-size="14.00">class = No Decease</text>
</g>
<!-- 3&#45;&gt;5 -->
<g id="edge5" class="edge">
<title>3&#45;&gt;5</title>
<path fill="none" stroke="black" d="M220.36,-103.73C220.74,-95.52 221.13,-86.86 221.51,-78.56"/>
<polygon fill="black" stroke="black" points="225.02,-78.45 221.98,-68.3 218.03,-78.13 225.02,-78.45"/>
</g>
<!-- 8 -->
<g id="node9" class="node">
<title>8</title>
<path fill="#eca36e" stroke="black" d="M585,-187C585,-187 472,-187 472,-187 466,-187 460,-181 460,-175 460,-175 460,-116 460,-116 460,-110 466,-104 472,-104 472,-104 585,-104 585,-104 591,-104 597,-110 597,-116 597,-116 597,-175 597,-175 597,-181 591,-187 585,-187"/>
<text text-anchor="start" x="480" y="-171.8" font-family="Helvetica,sans-Serif" font-size="14.00">trestbps ≤ 146.0</text>
<text text-anchor="start" x="481" y="-156.8" font-family="Helvetica,sans-Serif" font-size="14.00">entropy = 0.746</text>
<text text-anchor="start" x="487.5" y="-141.8" font-family="Helvetica,sans-Serif" font-size="14.00">samples = 33</text>
<text text-anchor="start" x="485.5" y="-126.8" font-family="Helvetica,sans-Serif" font-size="14.00">value = [26, 7]</text>
<text text-anchor="start" x="468" y="-111.8" font-family="Helvetica,sans-Serif" font-size="14.00">class = No Decease</text>
</g>
<!-- 7&#45;&gt;8 -->
<g id="edge8" class="edge">
<title>7&#45;&gt;8</title>
<path fill="none" stroke="black" d="M576.17,-222.91C570.68,-214.1 564.81,-204.7 559.14,-195.61"/>
<polygon fill="black" stroke="black" points="562.05,-193.65 553.78,-187.02 556.11,-197.36 562.05,-193.65"/>
</g>
<!-- 11 -->
<g id="node12" class="node">
<title>11</title>
<path fill="#67b4eb" stroke="black" d="M719.5,-187C719.5,-187 627.5,-187 627.5,-187 621.5,-187 615.5,-181 615.5,-175 615.5,-175 615.5,-116 615.5,-116 615.5,-110 621.5,-104 627.5,-104 627.5,-104 719.5,-104 719.5,-104 725.5,-104 731.5,-110 731.5,-116 731.5,-116 731.5,-175 731.5,-175 731.5,-181 725.5,-187 719.5,-187"/>
<text text-anchor="start" x="632.5" y="-171.8" font-family="Helvetica,sans-Serif" font-size="14.00">oldpeak ≤ 0.7</text>
<text text-anchor="start" x="626" y="-156.8" font-family="Helvetica,sans-Serif" font-size="14.00">entropy = 0.696</text>
<text text-anchor="start" x="632.5" y="-141.8" font-family="Helvetica,sans-Serif" font-size="14.00">samples = 16</text>
<text text-anchor="start" x="630.5" y="-126.8" font-family="Helvetica,sans-Serif" font-size="14.00">value = [3, 13]</text>
<text text-anchor="start" x="623.5" y="-111.8" font-family="Helvetica,sans-Serif" font-size="14.00">class = Decease</text>
</g>
<!-- 7&#45;&gt;11 -->
<g id="edge11" class="edge">
<title>7&#45;&gt;11</title>
<path fill="none" stroke="black" d="M626.48,-222.91C631.9,-214.1 637.68,-204.7 643.28,-195.61"/>
<polygon fill="black" stroke="black" points="646.3,-197.37 648.56,-187.02 640.34,-193.7 646.3,-197.37"/>
</g>
<!-- 9 -->
<g id="node10" class="node">
<title>9</title>
<path fill="#e89152" stroke="black" d="M440,-68C440,-68 327,-68 327,-68 321,-68 315,-62 315,-56 315,-56 315,-12 315,-12 315,-6 321,0 327,0 327,0 440,0 440,0 446,0 452,-6 452,-12 452,-12 452,-56 452,-56 452,-62 446,-68 440,-68"/>
<text text-anchor="start" x="336" y="-52.8" font-family="Helvetica,sans-Serif" font-size="14.00">entropy = 0.503</text>
<text text-anchor="start" x="342.5" y="-37.8" font-family="Helvetica,sans-Serif" font-size="14.00">samples = 27</text>
<text text-anchor="start" x="340.5" y="-22.8" font-family="Helvetica,sans-Serif" font-size="14.00">value = [24, 3]</text>
<text text-anchor="start" x="323" y="-7.8" font-family="Helvetica,sans-Serif" font-size="14.00">class = No Decease</text>
</g>
<!-- 8&#45;&gt;9 -->
<g id="edge9" class="edge">
<title>8&#45;&gt;9</title>
<path fill="none" stroke="black" d="M474.51,-103.73C461.83,-94.15 448.33,-83.96 435.73,-74.44"/>
<polygon fill="black" stroke="black" points="437.68,-71.53 427.6,-68.3 433.47,-77.12 437.68,-71.53"/>
</g>
<!-- 10 -->
<g id="node11" class="node">
<title>10</title>
<path fill="#9ccef2" stroke="black" d="M574.5,-68C574.5,-68 482.5,-68 482.5,-68 476.5,-68 470.5,-62 470.5,-56 470.5,-56 470.5,-12 470.5,-12 470.5,-6 476.5,0 482.5,0 482.5,0 574.5,0 574.5,0 580.5,0 586.5,-6 586.5,-12 586.5,-12 586.5,-56 586.5,-56 586.5,-62 580.5,-68 574.5,-68"/>
<text text-anchor="start" x="481" y="-52.8" font-family="Helvetica,sans-Serif" font-size="14.00">entropy = 0.918</text>
<text text-anchor="start" x="491" y="-37.8" font-family="Helvetica,sans-Serif" font-size="14.00">samples = 6</text>
<text text-anchor="start" x="489" y="-22.8" font-family="Helvetica,sans-Serif" font-size="14.00">value = [2, 4]</text>
<text text-anchor="start" x="478.5" y="-7.8" font-family="Helvetica,sans-Serif" font-size="14.00">class = Decease</text>
</g>
<!-- 8&#45;&gt;10 -->
<g id="edge10" class="edge">
<title>8&#45;&gt;10</title>
<path fill="none" stroke="black" d="M528.5,-103.73C528.5,-95.52 528.5,-86.86 528.5,-78.56"/>
<polygon fill="black" stroke="black" points="532,-78.3 528.5,-68.3 525,-78.3 532,-78.3"/>
</g>
<!-- 12 -->
<g id="node13" class="node">
<title>12</title>
<path fill="#f6d5bd" stroke="black" d="M730,-68C730,-68 617,-68 617,-68 611,-68 605,-62 605,-56 605,-56 605,-12 605,-12 605,-6 611,0 617,0 617,0 730,0 730,0 736,0 742,-6 742,-12 742,-12 742,-56 742,-56 742,-62 736,-68 730,-68"/>
<text text-anchor="start" x="626" y="-52.8" font-family="Helvetica,sans-Serif" font-size="14.00">entropy = 0.971</text>
<text text-anchor="start" x="636" y="-37.8" font-family="Helvetica,sans-Serif" font-size="14.00">samples = 5</text>
<text text-anchor="start" x="634" y="-22.8" font-family="Helvetica,sans-Serif" font-size="14.00">value = [3, 2]</text>
<text text-anchor="start" x="613" y="-7.8" font-family="Helvetica,sans-Serif" font-size="14.00">class = No Decease</text>
</g>
<!-- 11&#45;&gt;12 -->
<g id="edge12" class="edge">
<title>11&#45;&gt;12</title>
<path fill="none" stroke="black" d="M673.5,-103.73C673.5,-95.52 673.5,-86.86 673.5,-78.56"/>
<polygon fill="black" stroke="black" points="677,-78.3 673.5,-68.3 670,-78.3 677,-78.3"/>
</g>
<!-- 13 -->
<g id="node14" class="node">
<title>13</title>
<path fill="#399de5" stroke="black" d="M864.5,-68C864.5,-68 772.5,-68 772.5,-68 766.5,-68 760.5,-62 760.5,-56 760.5,-56 760.5,-12 760.5,-12 760.5,-6 766.5,0 772.5,0 772.5,0 864.5,0 864.5,0 870.5,0 876.5,-6 876.5,-12 876.5,-12 876.5,-56 876.5,-56 876.5,-62 870.5,-68 864.5,-68"/>
<text text-anchor="start" x="778.5" y="-52.8" font-family="Helvetica,sans-Serif" font-size="14.00">entropy = 0.0</text>
<text text-anchor="start" x="777.5" y="-37.8" font-family="Helvetica,sans-Serif" font-size="14.00">samples = 11</text>
<text text-anchor="start" x="776" y="-22.8" font-family="Helvetica,sans-Serif" font-size="14.00">value = [0, 11]</text>
<text text-anchor="start" x="768.5" y="-7.8" font-family="Helvetica,sans-Serif" font-size="14.00">class = Decease</text>
</g>
<!-- 11&#45;&gt;13 -->
<g id="edge13" class="edge">
<title>11&#45;&gt;13</title>
<path fill="none" stroke="black" d="M727.49,-103.73C740.17,-94.15 753.67,-83.96 766.27,-74.44"/>
<polygon fill="black" stroke="black" points="768.53,-77.12 774.4,-68.3 764.32,-71.53 768.53,-77.12"/>
</g>
<!-- 15 -->
<g id="node16" class="node">
<title>15</title>
<path fill="#daedfa" stroke="black" d="M1223.5,-306C1223.5,-306 1115.5,-306 1115.5,-306 1109.5,-306 1103.5,-300 1103.5,-294 1103.5,-294 1103.5,-235 1103.5,-235 1103.5,-229 1109.5,-223 1115.5,-223 1115.5,-223 1223.5,-223 1223.5,-223 1229.5,-223 1235.5,-229 1235.5,-235 1235.5,-235 1235.5,-294 1235.5,-294 1235.5,-300 1229.5,-306 1223.5,-306"/>
<text text-anchor="start" x="1134" y="-290.8" font-family="Helvetica,sans-Serif" font-size="14.00">exang ≤ 0.5</text>
<text text-anchor="start" x="1122" y="-275.8" font-family="Helvetica,sans-Serif" font-size="14.00">entropy = 0.992</text>
<text text-anchor="start" x="1128.5" y="-260.8" font-family="Helvetica,sans-Serif" font-size="14.00">samples = 49</text>
<text text-anchor="start" x="1111.5" y="-245.8" font-family="Helvetica,sans-Serif" font-size="14.00">value = [22.0, 27.0]</text>
<text text-anchor="start" x="1119.5" y="-230.8" font-family="Helvetica,sans-Serif" font-size="14.00">class = Decease</text>
</g>
<!-- 14&#45;&gt;15 -->
<g id="edge15" class="edge">
<title>14&#45;&gt;15</title>
<path fill="none" stroke="black" d="M1169.5,-341.91C1169.5,-333.65 1169.5,-324.86 1169.5,-316.3"/>
<polygon fill="black" stroke="black" points="1173,-316.02 1169.5,-306.02 1166,-316.02 1173,-316.02"/>
</g>
<!-- 22 -->
<g id="node23" class="node">
<title>22</title>
<path fill="#47a4e7" stroke="black" d="M1567.5,-306C1567.5,-306 1475.5,-306 1475.5,-306 1469.5,-306 1463.5,-300 1463.5,-294 1463.5,-294 1463.5,-235 1463.5,-235 1463.5,-229 1469.5,-223 1475.5,-223 1475.5,-223 1567.5,-223 1567.5,-223 1573.5,-223 1579.5,-229 1579.5,-235 1579.5,-235 1579.5,-294 1579.5,-294 1579.5,-300 1573.5,-306 1567.5,-306"/>
<text text-anchor="start" x="1480.5" y="-290.8" font-family="Helvetica,sans-Serif" font-size="14.00">oldpeak ≤ 1.1</text>
<text text-anchor="start" x="1474" y="-275.8" font-family="Helvetica,sans-Serif" font-size="14.00">entropy = 0.353</text>
<text text-anchor="start" x="1480.5" y="-260.8" font-family="Helvetica,sans-Serif" font-size="14.00">samples = 60</text>
<text text-anchor="start" x="1478.5" y="-245.8" font-family="Helvetica,sans-Serif" font-size="14.00">value = [4, 56]</text>
<text text-anchor="start" x="1471.5" y="-230.8" font-family="Helvetica,sans-Serif" font-size="14.00">class = Decease</text>
</g>
<!-- 14&#45;&gt;22 -->
<g id="edge22" class="edge">
<title>14&#45;&gt;22</title>
<path fill="none" stroke="black" d="M1227.63,-363.18C1289.66,-342.56 1387.86,-309.92 1453.45,-288.12"/>
<polygon fill="black" stroke="black" points="1454.9,-291.32 1463.29,-284.85 1452.69,-284.68 1454.9,-291.32"/>
</g>
<!-- 16 -->
<g id="node17" class="node">
<title>16</title>
<path fill="#f1b991" stroke="black" d="M1154,-187C1154,-187 1041,-187 1041,-187 1035,-187 1029,-181 1029,-175 1029,-175 1029,-116 1029,-116 1029,-110 1035,-104 1041,-104 1041,-104 1154,-104 1154,-104 1160,-104 1166,-110 1166,-116 1166,-116 1166,-175 1166,-175 1166,-181 1160,-187 1154,-187"/>
<text text-anchor="start" x="1065.5" y="-171.8" font-family="Helvetica,sans-Serif" font-size="14.00">age ≤ 51.0</text>
<text text-anchor="start" x="1053.5" y="-156.8" font-family="Helvetica,sans-Serif" font-size="14.00">entropy = 0.89</text>
<text text-anchor="start" x="1056.5" y="-141.8" font-family="Helvetica,sans-Serif" font-size="14.00">samples = 26</text>
<text text-anchor="start" x="1054.5" y="-126.8" font-family="Helvetica,sans-Serif" font-size="14.00">value = [18, 8]</text>
<text text-anchor="start" x="1037" y="-111.8" font-family="Helvetica,sans-Serif" font-size="14.00">class = No Decease</text>
</g>
<!-- 15&#45;&gt;16 -->
<g id="edge16" class="edge">
<title>15&#45;&gt;16</title>
<path fill="none" stroke="black" d="M1144.52,-222.91C1139.1,-214.1 1133.32,-204.7 1127.72,-195.61"/>
<polygon fill="black" stroke="black" points="1130.66,-193.7 1122.44,-187.02 1124.7,-197.37 1130.66,-193.7"/>
</g>
<!-- 19 -->
<g id="node20" class="node">
<title>19</title>
<path fill="#63b2ea" stroke="black" d="M1288.5,-187C1288.5,-187 1196.5,-187 1196.5,-187 1190.5,-187 1184.5,-181 1184.5,-175 1184.5,-175 1184.5,-116 1184.5,-116 1184.5,-110 1190.5,-104 1196.5,-104 1196.5,-104 1288.5,-104 1288.5,-104 1294.5,-104 1300.5,-110 1300.5,-116 1300.5,-116 1300.5,-175 1300.5,-175 1300.5,-181 1294.5,-187 1288.5,-187"/>
<text text-anchor="start" x="1198" y="-171.8" font-family="Helvetica,sans-Serif" font-size="14.00">oldpeak ≤ 1.55</text>
<text text-anchor="start" x="1195" y="-156.8" font-family="Helvetica,sans-Serif" font-size="14.00">entropy = 0.667</text>
<text text-anchor="start" x="1201.5" y="-141.8" font-family="Helvetica,sans-Serif" font-size="14.00">samples = 23</text>
<text text-anchor="start" x="1199.5" y="-126.8" font-family="Helvetica,sans-Serif" font-size="14.00">value = [4, 19]</text>
<text text-anchor="start" x="1192.5" y="-111.8" font-family="Helvetica,sans-Serif" font-size="14.00">class = Decease</text>
</g>
<!-- 15&#45;&gt;19 -->
<g id="edge19" class="edge">
<title>15&#45;&gt;19</title>
<path fill="none" stroke="black" d="M1194.83,-222.91C1200.32,-214.1 1206.19,-204.7 1211.86,-195.61"/>
<polygon fill="black" stroke="black" points="1214.89,-197.36 1217.22,-187.02 1208.95,-193.65 1214.89,-197.36"/>
</g>
<!-- 17 -->
<g id="node18" class="node">
<title>17</title>
<path fill="#b0d8f5" stroke="black" d="M998.5,-68C998.5,-68 906.5,-68 906.5,-68 900.5,-68 894.5,-62 894.5,-56 894.5,-56 894.5,-12 894.5,-12 894.5,-6 900.5,0 906.5,0 906.5,0 998.5,0 998.5,0 1004.5,0 1010.5,-6 1010.5,-12 1010.5,-12 1010.5,-56 1010.5,-56 1010.5,-62 1004.5,-68 998.5,-68"/>
<text text-anchor="start" x="905" y="-52.8" font-family="Helvetica,sans-Serif" font-size="14.00">entropy = 0.954</text>
<text text-anchor="start" x="915" y="-37.8" font-family="Helvetica,sans-Serif" font-size="14.00">samples = 8</text>
<text text-anchor="start" x="913" y="-22.8" font-family="Helvetica,sans-Serif" font-size="14.00">value = [3, 5]</text>
<text text-anchor="start" x="902.5" y="-7.8" font-family="Helvetica,sans-Serif" font-size="14.00">class = Decease</text>
</g>
<!-- 16&#45;&gt;17 -->
<g id="edge17" class="edge">
<title>16&#45;&gt;17</title>
<path fill="none" stroke="black" d="M1043.51,-103.73C1030.83,-94.15 1017.33,-83.96 1004.73,-74.44"/>
<polygon fill="black" stroke="black" points="1006.68,-71.53 996.6,-68.3 1002.47,-77.12 1006.68,-71.53"/>
</g>
<!-- 18 -->
<g id="node19" class="node">
<title>18</title>
<path fill="#ea9a61" stroke="black" d="M1154,-68C1154,-68 1041,-68 1041,-68 1035,-68 1029,-62 1029,-56 1029,-56 1029,-12 1029,-12 1029,-6 1035,0 1041,0 1041,0 1154,0 1154,0 1160,0 1166,-6 1166,-12 1166,-12 1166,-56 1166,-56 1166,-62 1160,-68 1154,-68"/>
<text text-anchor="start" x="1053.5" y="-52.8" font-family="Helvetica,sans-Serif" font-size="14.00">entropy = 0.65</text>
<text text-anchor="start" x="1056.5" y="-37.8" font-family="Helvetica,sans-Serif" font-size="14.00">samples = 18</text>
<text text-anchor="start" x="1054.5" y="-22.8" font-family="Helvetica,sans-Serif" font-size="14.00">value = [15, 3]</text>
<text text-anchor="start" x="1037" y="-7.8" font-family="Helvetica,sans-Serif" font-size="14.00">class = No Decease</text>
</g>
<!-- 16&#45;&gt;18 -->
<g id="edge18" class="edge">
<title>16&#45;&gt;18</title>
<path fill="none" stroke="black" d="M1097.5,-103.73C1097.5,-95.52 1097.5,-86.86 1097.5,-78.56"/>
<polygon fill="black" stroke="black" points="1101,-78.3 1097.5,-68.3 1094,-78.3 1101,-78.3"/>
</g>
<!-- 20 -->
<g id="node21" class="node">
<title>20</title>
<path fill="#bddef6" stroke="black" d="M1288.5,-68C1288.5,-68 1196.5,-68 1196.5,-68 1190.5,-68 1184.5,-62 1184.5,-56 1184.5,-56 1184.5,-12 1184.5,-12 1184.5,-6 1190.5,0 1196.5,0 1196.5,0 1288.5,0 1288.5,0 1294.5,0 1300.5,-6 1300.5,-12 1300.5,-12 1300.5,-56 1300.5,-56 1300.5,-62 1294.5,-68 1288.5,-68"/>
<text text-anchor="start" x="1195" y="-52.8" font-family="Helvetica,sans-Serif" font-size="14.00">entropy = 0.971</text>
<text text-anchor="start" x="1201.5" y="-37.8" font-family="Helvetica,sans-Serif" font-size="14.00">samples = 10</text>
<text text-anchor="start" x="1203" y="-22.8" font-family="Helvetica,sans-Serif" font-size="14.00">value = [4, 6]</text>
<text text-anchor="start" x="1192.5" y="-7.8" font-family="Helvetica,sans-Serif" font-size="14.00">class = Decease</text>
</g>
<!-- 19&#45;&gt;20 -->
<g id="edge20" class="edge">
<title>19&#45;&gt;20</title>
<path fill="none" stroke="black" d="M1242.5,-103.73C1242.5,-95.52 1242.5,-86.86 1242.5,-78.56"/>
<polygon fill="black" stroke="black" points="1246,-78.3 1242.5,-68.3 1239,-78.3 1246,-78.3"/>
</g>
<!-- 21 -->
<g id="node22" class="node">
<title>21</title>
<path fill="#399de5" stroke="black" d="M1422.5,-68C1422.5,-68 1330.5,-68 1330.5,-68 1324.5,-68 1318.5,-62 1318.5,-56 1318.5,-56 1318.5,-12 1318.5,-12 1318.5,-6 1324.5,0 1330.5,0 1330.5,0 1422.5,0 1422.5,0 1428.5,0 1434.5,-6 1434.5,-12 1434.5,-12 1434.5,-56 1434.5,-56 1434.5,-62 1428.5,-68 1422.5,-68"/>
<text text-anchor="start" x="1336.5" y="-52.8" font-family="Helvetica,sans-Serif" font-size="14.00">entropy = 0.0</text>
<text text-anchor="start" x="1335.5" y="-37.8" font-family="Helvetica,sans-Serif" font-size="14.00">samples = 13</text>
<text text-anchor="start" x="1333.5" y="-22.8" font-family="Helvetica,sans-Serif" font-size="14.00">value = [0, 13]</text>
<text text-anchor="start" x="1326.5" y="-7.8" font-family="Helvetica,sans-Serif" font-size="14.00">class = Decease</text>
</g>
<!-- 19&#45;&gt;21 -->
<g id="edge21" class="edge">
<title>19&#45;&gt;21</title>
<path fill="none" stroke="black" d="M1292.4,-103.73C1304,-94.24 1316.35,-84.16 1327.9,-74.72"/>
<polygon fill="black" stroke="black" points="1330.22,-77.34 1335.75,-68.3 1325.79,-71.92 1330.22,-77.34"/>
</g>
<!-- 23 -->
<g id="node24" class="node">
<title>23</title>
<path fill="#6ab6ec" stroke="black" d="M1567.5,-187C1567.5,-187 1475.5,-187 1475.5,-187 1469.5,-187 1463.5,-181 1463.5,-175 1463.5,-175 1463.5,-116 1463.5,-116 1463.5,-110 1469.5,-104 1475.5,-104 1475.5,-104 1567.5,-104 1567.5,-104 1573.5,-104 1579.5,-110 1579.5,-116 1579.5,-116 1579.5,-175 1579.5,-175 1579.5,-181 1573.5,-187 1567.5,-187"/>
<text text-anchor="start" x="1473" y="-171.8" font-family="Helvetica,sans-Serif" font-size="14.00">trestbps ≤ 121.5</text>
<text text-anchor="start" x="1474" y="-156.8" font-family="Helvetica,sans-Serif" font-size="14.00">entropy = 0.722</text>
<text text-anchor="start" x="1480.5" y="-141.8" font-family="Helvetica,sans-Serif" font-size="14.00">samples = 20</text>
<text text-anchor="start" x="1478.5" y="-126.8" font-family="Helvetica,sans-Serif" font-size="14.00">value = [4, 16]</text>
<text text-anchor="start" x="1471.5" y="-111.8" font-family="Helvetica,sans-Serif" font-size="14.00">class = Decease</text>
</g>
<!-- 22&#45;&gt;23 -->
<g id="edge23" class="edge">
<title>22&#45;&gt;23</title>
<path fill="none" stroke="black" d="M1521.5,-222.91C1521.5,-214.65 1521.5,-205.86 1521.5,-197.3"/>
<polygon fill="black" stroke="black" points="1525,-197.02 1521.5,-187.02 1518,-197.02 1525,-197.02"/>
</g>
<!-- 26 -->
<g id="node27" class="node">
<title>26</title>
<path fill="#399de5" stroke="black" d="M1701.5,-179.5C1701.5,-179.5 1609.5,-179.5 1609.5,-179.5 1603.5,-179.5 1597.5,-173.5 1597.5,-167.5 1597.5,-167.5 1597.5,-123.5 1597.5,-123.5 1597.5,-117.5 1603.5,-111.5 1609.5,-111.5 1609.5,-111.5 1701.5,-111.5 1701.5,-111.5 1707.5,-111.5 1713.5,-117.5 1713.5,-123.5 1713.5,-123.5 1713.5,-167.5 1713.5,-167.5 1713.5,-173.5 1707.5,-179.5 1701.5,-179.5"/>
<text text-anchor="start" x="1615.5" y="-164.3" font-family="Helvetica,sans-Serif" font-size="14.00">entropy = 0.0</text>
<text text-anchor="start" x="1614.5" y="-149.3" font-family="Helvetica,sans-Serif" font-size="14.00">samples = 40</text>
<text text-anchor="start" x="1612.5" y="-134.3" font-family="Helvetica,sans-Serif" font-size="14.00">value = [0, 40]</text>
<text text-anchor="start" x="1605.5" y="-119.3" font-family="Helvetica,sans-Serif" font-size="14.00">class = Decease</text>
</g>
<!-- 22&#45;&gt;26 -->
<g id="edge26" class="edge">
<title>22&#45;&gt;26</title>
<path fill="none" stroke="black" d="M1567.99,-222.91C1581.51,-211.1 1596.27,-198.22 1609.75,-186.45"/>
<polygon fill="black" stroke="black" points="1612.28,-188.88 1617.51,-179.67 1607.68,-183.61 1612.28,-188.88"/>
</g>
<!-- 24 -->
<g id="node25" class="node">
<title>24</title>
<path fill="#eeab7b" stroke="black" d="M1578,-68C1578,-68 1465,-68 1465,-68 1459,-68 1453,-62 1453,-56 1453,-56 1453,-12 1453,-12 1453,-6 1459,0 1465,0 1465,0 1578,0 1578,0 1584,0 1590,-6 1590,-12 1590,-12 1590,-56 1590,-56 1590,-62 1584,-68 1578,-68"/>
<text text-anchor="start" x="1474.5" y="-52.8" font-family="Helvetica,sans-Serif" font-size="14.00">entropy = 0.811</text>
<text text-anchor="start" x="1484" y="-37.8" font-family="Helvetica,sans-Serif" font-size="14.00">samples = 4</text>
<text text-anchor="start" x="1482" y="-22.8" font-family="Helvetica,sans-Serif" font-size="14.00">value = [3, 1]</text>
<text text-anchor="start" x="1461" y="-7.8" font-family="Helvetica,sans-Serif" font-size="14.00">class = No Decease</text>
</g>
<!-- 23&#45;&gt;24 -->
<g id="edge24" class="edge">
<title>23&#45;&gt;24</title>
<path fill="none" stroke="black" d="M1521.5,-103.73C1521.5,-95.52 1521.5,-86.86 1521.5,-78.56"/>
<polygon fill="black" stroke="black" points="1525,-78.3 1521.5,-68.3 1518,-78.3 1525,-78.3"/>
</g>
<!-- 25 -->
<g id="node26" class="node">
<title>25</title>
<path fill="#46a4e7" stroke="black" d="M1712.5,-68C1712.5,-68 1620.5,-68 1620.5,-68 1614.5,-68 1608.5,-62 1608.5,-56 1608.5,-56 1608.5,-12 1608.5,-12 1608.5,-6 1614.5,0 1620.5,0 1620.5,0 1712.5,0 1712.5,0 1718.5,0 1724.5,-6 1724.5,-12 1724.5,-12 1724.5,-56 1724.5,-56 1724.5,-62 1718.5,-68 1712.5,-68"/>
<text text-anchor="start" x="1619" y="-52.8" font-family="Helvetica,sans-Serif" font-size="14.00">entropy = 0.337</text>
<text text-anchor="start" x="1625.5" y="-37.8" font-family="Helvetica,sans-Serif" font-size="14.00">samples = 16</text>
<text text-anchor="start" x="1623.5" y="-22.8" font-family="Helvetica,sans-Serif" font-size="14.00">value = [1, 15]</text>
<text text-anchor="start" x="1616.5" y="-7.8" font-family="Helvetica,sans-Serif" font-size="14.00">class = Decease</text>
</g>
<!-- 23&#45;&gt;25 -->
<g id="edge25" class="edge">
<title>23&#45;&gt;25</title>
<path fill="none" stroke="black" d="M1575.49,-103.73C1588.17,-94.15 1601.67,-83.96 1614.27,-74.44"/>
<polygon fill="black" stroke="black" points="1616.53,-77.12 1622.4,-68.3 1612.32,-71.53 1616.53,-77.12"/>
</g>
</g>
</svg>
