<?xml version="1.0" encoding="UTF-8" standalone="no"?>
<!DOCTYPE svg PUBLIC "-//W3C//DTD SVG 1.1//EN"
 "http://www.w3.org/Graphics/SVG/1.1/DTD/svg11.dtd">
<!-- Generated by graphviz version 2.50.0 (0)
 -->
<!-- Title: Tree Pages: 1 -->
<svg width="585pt" height="314pt"
 viewBox="0.00 0.00 584.50 314.00" xmlns="http://www.w3.org/2000/svg" xmlns:xlink="http://www.w3.org/1999/xlink">
<g id="graph0" class="graph" transform="scale(1 1) rotate(0) translate(4 310)">
<title>Tree</title>
<polygon fill="white" stroke="transparent" points="-4,4 -4,-310 580.5,-310 580.5,4 -4,4"/>
<!-- 0 -->
<g id="node1" class="node">
<title>0</title>
<path fill="#fbece2" stroke="black" d="M361,-306C361,-306 238,-306 238,-306 232,-306 226,-300 226,-294 226,-294 226,-235 226,-235 226,-229 232,-223 238,-223 238,-223 361,-223 361,-223 367,-223 373,-229 373,-235 373,-235 373,-294 373,-294 373,-300 367,-306 361,-306"/>
<text text-anchor="start" x="271.5" y="-290.8" font-family="Helvetica,sans-Serif" font-size="14.00">thal ≤ 4.5</text>
<text text-anchor="start" x="252" y="-275.8" font-family="Helvetica,sans-Serif" font-size="14.00">entropy = 0.995</text>
<text text-anchor="start" x="254.5" y="-260.8" font-family="Helvetica,sans-Serif" font-size="14.00">samples = 237</text>
<text text-anchor="start" x="234" y="-245.8" font-family="Helvetica,sans-Serif" font-size="14.00">value = [128.0, 109.0]</text>
<text text-anchor="start" x="239" y="-230.8" font-family="Helvetica,sans-Serif" font-size="14.00">class = No Decease</text>
</g>
<!-- 1 -->
<g id="node2" class="node">
<title>1</title>
<path fill="#eca16b" stroke="black" d="M280,-187C280,-187 167,-187 167,-187 161,-187 155,-181 155,-175 155,-175 155,-116 155,-116 155,-110 161,-104 167,-104 167,-104 280,-104 280,-104 286,-104 292,-110 292,-116 292,-116 292,-175 292,-175 292,-181 286,-187 280,-187"/>
<text text-anchor="start" x="190" y="-171.8" font-family="Helvetica,sans-Serif" font-size="14.00">slope ≤ 1.5</text>
<text text-anchor="start" x="176" y="-156.8" font-family="Helvetica,sans-Serif" font-size="14.00">entropy = 0.728</text>
<text text-anchor="start" x="178.5" y="-141.8" font-family="Helvetica,sans-Serif" font-size="14.00">samples = 128</text>
<text text-anchor="start" x="173" y="-126.8" font-family="Helvetica,sans-Serif" font-size="14.00">value = [102, 26]</text>
<text text-anchor="start" x="163" y="-111.8" font-family="Helvetica,sans-Serif" font-size="14.00">class = No Decease</text>
</g>
<!-- 0&#45;&gt;1 -->
<g id="edge1" class="edge">
<title>0&#45;&gt;1</title>
<path fill="none" stroke="black" d="M273.13,-222.91C267.41,-214.1 261.31,-204.7 255.4,-195.61"/>
<polygon fill="black" stroke="black" points="258.2,-193.5 249.82,-187.02 252.33,-197.31 258.2,-193.5"/>
<text text-anchor="middle" x="244.63" y="-207.78" font-family="Helvetica,sans-Serif" font-size="14.00">True</text>
</g>
<!-- 4 -->
<g id="node5" class="node">
<title>4</title>
<path fill="#77bced" stroke="black" d="M422.5,-187C422.5,-187 330.5,-187 330.5,-187 324.5,-187 318.5,-181 318.5,-175 318.5,-175 318.5,-116 318.5,-116 318.5,-110 324.5,-104 330.5,-104 330.5,-104 422.5,-104 422.5,-104 428.5,-104 434.5,-110 434.5,-116 434.5,-116 434.5,-175 434.5,-175 434.5,-181 428.5,-187 422.5,-187"/>
<text text-anchor="start" x="352" y="-171.8" font-family="Helvetica,sans-Serif" font-size="14.00">ca ≤ 0.5</text>
<text text-anchor="start" x="329" y="-156.8" font-family="Helvetica,sans-Serif" font-size="14.00">entropy = 0.793</text>
<text text-anchor="start" x="331.5" y="-141.8" font-family="Helvetica,sans-Serif" font-size="14.00">samples = 109</text>
<text text-anchor="start" x="329.5" y="-126.8" font-family="Helvetica,sans-Serif" font-size="14.00">value = [26, 83]</text>
<text text-anchor="start" x="326.5" y="-111.8" font-family="Helvetica,sans-Serif" font-size="14.00">class = Decease</text>
</g>
<!-- 0&#45;&gt;4 -->
<g id="edge4" class="edge">
<title>0&#45;&gt;4</title>
<path fill="none" stroke="black" d="M326.21,-222.91C332.01,-214.1 338.2,-204.7 344.18,-195.61"/>
<polygon fill="black" stroke="black" points="347.26,-197.3 349.83,-187.02 341.41,-193.45 347.26,-197.3"/>
<text text-anchor="middle" x="354.88" y="-207.81" font-family="Helvetica,sans-Serif" font-size="14.00">False</text>
</g>
<!-- 2 -->
<g id="node3" class="node">
<title>2</title>
<path fill="#e78b49" stroke="black" d="M125,-68C125,-68 12,-68 12,-68 6,-68 0,-62 0,-56 0,-56 0,-12 0,-12 0,-6 6,0 12,0 12,0 125,0 125,0 131,0 137,-6 137,-12 137,-12 137,-56 137,-56 137,-62 131,-68 125,-68"/>
<text text-anchor="start" x="21" y="-52.8" font-family="Helvetica,sans-Serif" font-size="14.00">entropy = 0.388</text>
<text text-anchor="start" x="27.5" y="-37.8" font-family="Helvetica,sans-Serif" font-size="14.00">samples = 79</text>
<text text-anchor="start" x="25.5" y="-22.8" font-family="Helvetica,sans-Serif" font-size="14.00">value = [73, 6]</text>
<text text-anchor="start" x="8" y="-7.8" font-family="Helvetica,sans-Serif" font-size="14.00">class = No Decease</text>
</g>
<!-- 1&#45;&gt;2 -->
<g id="edge2" class="edge">
<title>1&#45;&gt;2</title>
<path fill="none" stroke="black" d="M165.78,-103.73C152.1,-94.06 137.53,-83.77 123.95,-74.17"/>
<polygon fill="black" stroke="black" points="125.82,-71.21 115.64,-68.3 121.78,-76.93 125.82,-71.21"/>
</g>
<!-- 3 -->
<g id="node4" class="node">
<title>3</title>
<path fill="#f7d8c2" stroke="black" d="M280,-68C280,-68 167,-68 167,-68 161,-68 155,-62 155,-56 155,-56 155,-12 155,-12 155,-6 161,0 167,0 167,0 280,0 280,0 286,0 292,-6 292,-12 292,-12 292,-56 292,-56 292,-62 286,-68 280,-68"/>
<text text-anchor="start" x="176" y="-52.8" font-family="Helvetica,sans-Serif" font-size="14.00">entropy = 0.976</text>
<text text-anchor="start" x="182.5" y="-37.8" font-family="Helvetica,sans-Serif" font-size="14.00">samples = 49</text>
<text text-anchor="start" x="176.5" y="-22.8" font-family="Helvetica,sans-Serif" font-size="14.00">value = [29, 20]</text>
<text text-anchor="start" x="163" y="-7.8" font-family="Helvetica,sans-Serif" font-size="14.00">class = No Decease</text>
</g>
<!-- 1&#45;&gt;3 -->
<g id="edge3" class="edge">
<title>1&#45;&gt;3</title>
<path fill="none" stroke="black" d="M223.5,-103.73C223.5,-95.52 223.5,-86.86 223.5,-78.56"/>
<polygon fill="black" stroke="black" points="227,-78.3 223.5,-68.3 220,-78.3 227,-78.3"/>
</g>
<!-- 5 -->
<g id="node6" class="node">
<title>5</title>
<path fill="#daedfa" stroke="black" d="M430.5,-68C430.5,-68 322.5,-68 322.5,-68 316.5,-68 310.5,-62 310.5,-56 310.5,-56 310.5,-12 310.5,-12 310.5,-6 316.5,0 322.5,0 322.5,0 430.5,0 430.5,0 436.5,0 442.5,-6 442.5,-12 442.5,-12 442.5,-56 442.5,-56 442.5,-62 436.5,-68 430.5,-68"/>
<text text-anchor="start" x="329" y="-52.8" font-family="Helvetica,sans-Serif" font-size="14.00">entropy = 0.992</text>
<text text-anchor="start" x="335.5" y="-37.8" font-family="Helvetica,sans-Serif" font-size="14.00">samples = 49</text>
<text text-anchor="start" x="318.5" y="-22.8" font-family="Helvetica,sans-Serif" font-size="14.00">value = [22.0, 27.0]</text>
<text text-anchor="start" x="326.5" y="-7.8" font-family="Helvetica,sans-Serif" font-size="14.00">class = Decease</text>
</g>
<!-- 4&#45;&gt;5 -->
<g id="edge5" class="edge">
<title>4&#45;&gt;5</title>
<path fill="none" stroke="black" d="M376.5,-103.73C376.5,-95.52 376.5,-86.86 376.5,-78.56"/>
<polygon fill="black" stroke="black" points="380,-78.3 376.5,-68.3 373,-78.3 380,-78.3"/>
</g>
<!-- 6 -->
<g id="node7" class="node">
<title>6</title>
<path fill="#47a4e7" stroke="black" d="M564.5,-68C564.5,-68 472.5,-68 472.5,-68 466.5,-68 460.5,-62 460.5,-56 460.5,-56 460.5,-12 460.5,-12 460.5,-6 466.5,0 472.5,0 472.5,0 564.5,0 564.5,0 570.5,0 576.5,-6 576.5,-12 576.5,-12 576.5,-56 576.5,-56 576.5,-62 570.5,-68 564.5,-68"/>
<text text-anchor="start" x="471" y="-52.8" font-family="Helvetica,sans-Serif" font-size="14.00">entropy = 0.353</text>
<text text-anchor="start" x="477.5" y="-37.8" font-family="Helvetica,sans-Serif" font-size="14.00">samples = 60</text>
<text text-anchor="start" x="475.5" y="-22.8" font-family="Helvetica,sans-Serif" font-size="14.00">value = [4, 56]</text>
<text text-anchor="start" x="468.5" y="-7.8" font-family="Helvetica,sans-Serif" font-size="14.00">class = Decease</text>
</g>
<!-- 4&#45;&gt;6 -->
<g id="edge6" class="edge">
<title>4&#45;&gt;6</title>
<path fill="none" stroke="black" d="M429.38,-103.73C441.79,-94.15 455.01,-83.96 467.35,-74.44"/>
<polygon fill="black" stroke="black" points="469.54,-77.18 475.32,-68.3 465.26,-71.63 469.54,-77.18"/>
</g>
</g>
</svg>
