<?xml version="1.0" encoding="UTF-8" standalone="no"?>
<!DOCTYPE svg PUBLIC "-//W3C//DTD SVG 1.1//EN"
 "http://www.w3.org/Graphics/SVG/1.1/DTD/svg11.dtd">
<!-- Generated by graphviz version 2.50.0 (0)
 -->
<!-- Title: Tree Pages: 1 -->
<svg width="2348pt" height="582pt"
 viewBox="0.00 0.00 2347.50 582.00" xmlns="http://www.w3.org/2000/svg" xmlns:xlink="http://www.w3.org/1999/xlink">
<g id="graph0" class="graph" transform="scale(1 1) rotate(0) translate(4 578)">
<title>Tree</title>
<polygon fill="white" stroke="transparent" points="-4,4 -4,-578 2343.5,-578 2343.5,4 -4,4"/>
<text text-anchor="middle" x="1169.75" y="-554" font-family="Times New Roman,serif" font-size="20.00">Max Depth: 4 &#45; Accuracy: 0.7833</text>
<!-- 0 -->
<g id="node1" class="node">
<title>0</title>
<path fill="#fbece2" stroke="black" d="M1200,-544C1200,-544 1077,-544 1077,-544 1071,-544 1065,-538 1065,-532 1065,-532 1065,-473 1065,-473 1065,-467 1071,-461 1077,-461 1077,-461 1200,-461 1200,-461 1206,-461 1212,-467 1212,-473 1212,-473 1212,-532 1212,-532 1212,-538 1206,-544 1200,-544"/>
<text text-anchor="start" x="1114" y="-528.8" font-family="Helvetica,sans-Serif" font-size="14.00">cp ≤ 3.5</text>
<text text-anchor="start" x="1091" y="-513.8" font-family="Helvetica,sans-Serif" font-size="14.00">entropy = 0.995</text>
<text text-anchor="start" x="1093.5" y="-498.8" font-family="Helvetica,sans-Serif" font-size="14.00">samples = 237</text>
<text text-anchor="start" x="1073" y="-483.8" font-family="Helvetica,sans-Serif" font-size="14.00">value = [128.0, 109.0]</text>
<text text-anchor="start" x="1078" y="-468.8" font-family="Helvetica,sans-Serif" font-size="14.00">class = No Decease</text>
</g>
<!-- 1 -->
<g id="node2" class="node">
<title>1</title>
<path fill="#eca36f" stroke="black" d="M978,-425C978,-425 865,-425 865,-425 859,-425 853,-419 853,-413 853,-413 853,-354 853,-354 853,-348 859,-342 865,-342 865,-342 978,-342 978,-342 984,-342 990,-348 990,-354 990,-354 990,-413 990,-413 990,-419 984,-425 978,-425"/>
<text text-anchor="start" x="889.5" y="-409.8" font-family="Helvetica,sans-Serif" font-size="14.00">age ≤ 56.5</text>
<text text-anchor="start" x="877.5" y="-394.8" font-family="Helvetica,sans-Serif" font-size="14.00">entropy = 0.75</text>
<text text-anchor="start" x="876.5" y="-379.8" font-family="Helvetica,sans-Serif" font-size="14.00">samples = 126</text>
<text text-anchor="start" x="874.5" y="-364.8" font-family="Helvetica,sans-Serif" font-size="14.00">value = [99, 27]</text>
<text text-anchor="start" x="861" y="-349.8" font-family="Helvetica,sans-Serif" font-size="14.00">class = No Decease</text>
</g>
<!-- 0&#45;&gt;1 -->
<g id="edge1" class="edge">
<title>0&#45;&gt;1</title>
<path fill="none" stroke="black" d="M1064.73,-461.73C1043.66,-450.36 1020.63,-437.95 999.33,-426.46"/>
<polygon fill="black" stroke="black" points="1000.77,-423.27 990.31,-421.6 997.45,-429.43 1000.77,-423.27"/>
<text text-anchor="middle" x="997.48" y="-441.85" font-family="Helvetica,sans-Serif" font-size="14.00">True</text>
</g>
<!-- 16 -->
<g id="node17" class="node">
<title>16</title>
<path fill="#7fc0ee" stroke="black" d="M1551.5,-425C1551.5,-425 1459.5,-425 1459.5,-425 1453.5,-425 1447.5,-419 1447.5,-413 1447.5,-413 1447.5,-354 1447.5,-354 1447.5,-348 1453.5,-342 1459.5,-342 1459.5,-342 1551.5,-342 1551.5,-342 1557.5,-342 1563.5,-348 1563.5,-354 1563.5,-354 1563.5,-413 1563.5,-413 1563.5,-419 1557.5,-425 1551.5,-425"/>
<text text-anchor="start" x="1477.5" y="-409.8" font-family="Helvetica,sans-Serif" font-size="14.00">thal ≤ 4.5</text>
<text text-anchor="start" x="1458" y="-394.8" font-family="Helvetica,sans-Serif" font-size="14.00">entropy = 0.829</text>
<text text-anchor="start" x="1461.5" y="-379.8" font-family="Helvetica,sans-Serif" font-size="14.00">samples = 111</text>
<text text-anchor="start" x="1458.5" y="-364.8" font-family="Helvetica,sans-Serif" font-size="14.00">value = [29, 82]</text>
<text text-anchor="start" x="1455.5" y="-349.8" font-family="Helvetica,sans-Serif" font-size="14.00">class = Decease</text>
</g>
<!-- 0&#45;&gt;16 -->
<g id="edge16" class="edge">
<title>0&#45;&gt;16</title>
<path fill="none" stroke="black" d="M1212.33,-477.96C1278.23,-456.95 1373.94,-426.44 1437.88,-406.06"/>
<polygon fill="black" stroke="black" points="1439,-409.37 1447.46,-403 1436.87,-402.7 1439,-409.37"/>
<text text-anchor="middle" x="1435.99" y="-421.51" font-family="Helvetica,sans-Serif" font-size="14.00">False</text>
</g>
<!-- 2 -->
<g id="node3" class="node">
<title>2</title>
<path fill="#e88d4c" stroke="black" d="M513,-306C513,-306 400,-306 400,-306 394,-306 388,-300 388,-294 388,-294 388,-235 388,-235 388,-229 394,-223 400,-223 400,-223 513,-223 513,-223 519,-223 525,-229 525,-235 525,-235 525,-294 525,-294 525,-300 519,-306 513,-306"/>
<text text-anchor="start" x="410" y="-290.8" font-family="Helvetica,sans-Serif" font-size="14.00">thalach ≤ 152.5</text>
<text text-anchor="start" x="409" y="-275.8" font-family="Helvetica,sans-Serif" font-size="14.00">entropy = 0.432</text>
<text text-anchor="start" x="415.5" y="-260.8" font-family="Helvetica,sans-Serif" font-size="14.00">samples = 79</text>
<text text-anchor="start" x="413.5" y="-245.8" font-family="Helvetica,sans-Serif" font-size="14.00">value = [72, 7]</text>
<text text-anchor="start" x="396" y="-230.8" font-family="Helvetica,sans-Serif" font-size="14.00">class = No Decease</text>
</g>
<!-- 1&#45;&gt;2 -->
<g id="edge2" class="edge">
<title>1&#45;&gt;2</title>
<path fill="none" stroke="black" d="M852.89,-365.24C768.03,-343.88 623.9,-307.62 534.8,-285.2"/>
<polygon fill="black" stroke="black" points="535.57,-281.79 525.01,-282.74 533.86,-288.57 535.57,-281.79"/>
</g>
<!-- 9 -->
<g id="node10" class="node">
<title>9</title>
<path fill="#f8decc" stroke="black" d="M978,-306C978,-306 865,-306 865,-306 859,-306 853,-300 853,-294 853,-294 853,-235 853,-235 853,-229 859,-223 865,-223 865,-223 978,-223 978,-223 984,-223 990,-229 990,-235 990,-235 990,-294 990,-294 990,-300 984,-306 978,-306"/>
<text text-anchor="start" x="894" y="-290.8" font-family="Helvetica,sans-Serif" font-size="14.00">sex ≤ 0.5</text>
<text text-anchor="start" x="874" y="-275.8" font-family="Helvetica,sans-Serif" font-size="14.00">entropy = 0.984</text>
<text text-anchor="start" x="880.5" y="-260.8" font-family="Helvetica,sans-Serif" font-size="14.00">samples = 47</text>
<text text-anchor="start" x="863.5" y="-245.8" font-family="Helvetica,sans-Serif" font-size="14.00">value = [27.0, 20.0]</text>
<text text-anchor="start" x="861" y="-230.8" font-family="Helvetica,sans-Serif" font-size="14.00">class = No Decease</text>
</g>
<!-- 1&#45;&gt;9 -->
<g id="edge9" class="edge">
<title>1&#45;&gt;9</title>
<path fill="none" stroke="black" d="M921.5,-341.91C921.5,-333.65 921.5,-324.86 921.5,-316.3"/>
<polygon fill="black" stroke="black" points="925,-316.02 921.5,-306.02 918,-316.02 925,-316.02"/>
</g>
<!-- 3 -->
<g id="node4" class="node">
<title>3</title>
<path fill="#efb185" stroke="black" d="M280,-187C280,-187 167,-187 167,-187 161,-187 155,-181 155,-175 155,-175 155,-116 155,-116 155,-110 161,-104 167,-104 167,-104 280,-104 280,-104 286,-104 292,-110 292,-116 292,-116 292,-175 292,-175 292,-181 286,-187 280,-187"/>
<text text-anchor="start" x="191.5" y="-171.8" font-family="Helvetica,sans-Serif" font-size="14.00">age ≤ 50.0</text>
<text text-anchor="start" x="176" y="-156.8" font-family="Helvetica,sans-Serif" font-size="14.00">entropy = 0.852</text>
<text text-anchor="start" x="182.5" y="-141.8" font-family="Helvetica,sans-Serif" font-size="14.00">samples = 18</text>
<text text-anchor="start" x="180.5" y="-126.8" font-family="Helvetica,sans-Serif" font-size="14.00">value = [13, 5]</text>
<text text-anchor="start" x="163" y="-111.8" font-family="Helvetica,sans-Serif" font-size="14.00">class = No Decease</text>
</g>
<!-- 2&#45;&gt;3 -->
<g id="edge3" class="edge">
<title>2&#45;&gt;3</title>
<path fill="none" stroke="black" d="M387.85,-229.03C360.6,-215.34 329.12,-199.53 301.04,-185.44"/>
<polygon fill="black" stroke="black" points="302.57,-182.29 292.06,-180.93 299.43,-188.54 302.57,-182.29"/>
</g>
<!-- 6 -->
<g id="node7" class="node">
<title>6</title>
<path fill="#e68540" stroke="black" d="M513,-187C513,-187 400,-187 400,-187 394,-187 388,-181 388,-175 388,-175 388,-116 388,-116 388,-110 394,-104 400,-104 400,-104 513,-104 513,-104 519,-104 525,-110 525,-116 525,-116 525,-175 525,-175 525,-181 519,-187 513,-187"/>
<text text-anchor="start" x="428.5" y="-171.8" font-family="Helvetica,sans-Serif" font-size="14.00">thal ≤ 6.5</text>
<text text-anchor="start" x="409" y="-156.8" font-family="Helvetica,sans-Serif" font-size="14.00">entropy = 0.208</text>
<text text-anchor="start" x="415.5" y="-141.8" font-family="Helvetica,sans-Serif" font-size="14.00">samples = 61</text>
<text text-anchor="start" x="413.5" y="-126.8" font-family="Helvetica,sans-Serif" font-size="14.00">value = [59, 2]</text>
<text text-anchor="start" x="396" y="-111.8" font-family="Helvetica,sans-Serif" font-size="14.00">class = No Decease</text>
</g>
<!-- 2&#45;&gt;6 -->
<g id="edge6" class="edge">
<title>2&#45;&gt;6</title>
<path fill="none" stroke="black" d="M456.5,-222.91C456.5,-214.65 456.5,-205.86 456.5,-197.3"/>
<polygon fill="black" stroke="black" points="460,-197.02 456.5,-187.02 453,-197.02 460,-197.02"/>
</g>
<!-- 4 -->
<g id="node5" class="node">
<title>4</title>
<path fill="#ffffff" stroke="black" d="M125,-68C125,-68 12,-68 12,-68 6,-68 0,-62 0,-56 0,-56 0,-12 0,-12 0,-6 6,0 12,0 12,0 125,0 125,0 131,0 137,-6 137,-12 137,-12 137,-56 137,-56 137,-62 131,-68 125,-68"/>
<text text-anchor="start" x="28.5" y="-52.8" font-family="Helvetica,sans-Serif" font-size="14.00">entropy = 1.0</text>
<text text-anchor="start" x="27.5" y="-37.8" font-family="Helvetica,sans-Serif" font-size="14.00">samples = 10</text>
<text text-anchor="start" x="29" y="-22.8" font-family="Helvetica,sans-Serif" font-size="14.00">value = [5, 5]</text>
<text text-anchor="start" x="8" y="-7.8" font-family="Helvetica,sans-Serif" font-size="14.00">class = No Decease</text>
</g>
<!-- 3&#45;&gt;4 -->
<g id="edge4" class="edge">
<title>3&#45;&gt;4</title>
<path fill="none" stroke="black" d="M165.78,-103.73C152.1,-94.06 137.53,-83.77 123.95,-74.17"/>
<polygon fill="black" stroke="black" points="125.82,-71.21 115.64,-68.3 121.78,-76.93 125.82,-71.21"/>
</g>
<!-- 5 -->
<g id="node6" class="node">
<title>5</title>
<path fill="#e58139" stroke="black" d="M280,-68C280,-68 167,-68 167,-68 161,-68 155,-62 155,-56 155,-56 155,-12 155,-12 155,-6 161,0 167,0 167,0 280,0 280,0 286,0 292,-6 292,-12 292,-12 292,-56 292,-56 292,-62 286,-68 280,-68"/>
<text text-anchor="start" x="183.5" y="-52.8" font-family="Helvetica,sans-Serif" font-size="14.00">entropy = 0.0</text>
<text text-anchor="start" x="186" y="-37.8" font-family="Helvetica,sans-Serif" font-size="14.00">samples = 8</text>
<text text-anchor="start" x="184" y="-22.8" font-family="Helvetica,sans-Serif" font-size="14.00">value = [8, 0]</text>
<text text-anchor="start" x="163" y="-7.8" font-family="Helvetica,sans-Serif" font-size="14.00">class = No Decease</text>
</g>
<!-- 3&#45;&gt;5 -->
<g id="edge5" class="edge">
<title>3&#45;&gt;5</title>
<path fill="none" stroke="black" d="M223.5,-103.73C223.5,-95.52 223.5,-86.86 223.5,-78.56"/>
<polygon fill="black" stroke="black" points="227,-78.3 223.5,-68.3 220,-78.3 227,-78.3"/>
</g>
<!-- 7 -->
<g id="node8" class="node">
<title>7</title>
<path fill="#e58139" stroke="black" d="M435,-68C435,-68 322,-68 322,-68 316,-68 310,-62 310,-56 310,-56 310,-12 310,-12 310,-6 316,0 322,0 322,0 435,0 435,0 441,0 447,-6 447,-12 447,-12 447,-56 447,-56 447,-62 441,-68 435,-68"/>
<text text-anchor="start" x="338.5" y="-52.8" font-family="Helvetica,sans-Serif" font-size="14.00">entropy = 0.0</text>
<text text-anchor="start" x="337.5" y="-37.8" font-family="Helvetica,sans-Serif" font-size="14.00">samples = 50</text>
<text text-anchor="start" x="335.5" y="-22.8" font-family="Helvetica,sans-Serif" font-size="14.00">value = [50, 0]</text>
<text text-anchor="start" x="318" y="-7.8" font-family="Helvetica,sans-Serif" font-size="14.00">class = No Decease</text>
</g>
<!-- 6&#45;&gt;7 -->
<g id="edge7" class="edge">
<title>6&#45;&gt;7</title>
<path fill="none" stroke="black" d="M427.46,-103.73C421.15,-94.88 414.48,-85.51 408.15,-76.63"/>
<polygon fill="black" stroke="black" points="410.87,-74.41 402.22,-68.3 405.17,-78.48 410.87,-74.41"/>
</g>
<!-- 8 -->
<g id="node9" class="node">
<title>8</title>
<path fill="#eb9d65" stroke="black" d="M590,-68C590,-68 477,-68 477,-68 471,-68 465,-62 465,-56 465,-56 465,-12 465,-12 465,-6 471,0 477,0 477,0 590,0 590,0 596,0 602,-6 602,-12 602,-12 602,-56 602,-56 602,-62 596,-68 590,-68"/>
<text text-anchor="start" x="486" y="-52.8" font-family="Helvetica,sans-Serif" font-size="14.00">entropy = 0.684</text>
<text text-anchor="start" x="492.5" y="-37.8" font-family="Helvetica,sans-Serif" font-size="14.00">samples = 11</text>
<text text-anchor="start" x="494" y="-22.8" font-family="Helvetica,sans-Serif" font-size="14.00">value = [9, 2]</text>
<text text-anchor="start" x="473" y="-7.8" font-family="Helvetica,sans-Serif" font-size="14.00">class = No Decease</text>
</g>
<!-- 6&#45;&gt;8 -->
<g id="edge8" class="edge">
<title>6&#45;&gt;8</title>
<path fill="none" stroke="black" d="M485.17,-103.73C491.39,-94.88 497.98,-85.51 504.23,-76.63"/>
<polygon fill="black" stroke="black" points="507.19,-78.49 510.08,-68.3 501.47,-74.47 507.19,-78.49"/>
</g>
<!-- 10 -->
<g id="node11" class="node">
<title>10</title>
<path fill="#ea9a61" stroke="black" d="M900,-187C900,-187 787,-187 787,-187 781,-187 775,-181 775,-175 775,-175 775,-116 775,-116 775,-110 781,-104 787,-104 787,-104 900,-104 900,-104 906,-104 912,-110 912,-116 912,-116 912,-175 912,-175 912,-181 906,-187 900,-187"/>
<text text-anchor="start" x="811.5" y="-171.8" font-family="Helvetica,sans-Serif" font-size="14.00">age ≤ 62.5</text>
<text text-anchor="start" x="799.5" y="-156.8" font-family="Helvetica,sans-Serif" font-size="14.00">entropy = 0.65</text>
<text text-anchor="start" x="802.5" y="-141.8" font-family="Helvetica,sans-Serif" font-size="14.00">samples = 18</text>
<text text-anchor="start" x="800.5" y="-126.8" font-family="Helvetica,sans-Serif" font-size="14.00">value = [15, 3]</text>
<text text-anchor="start" x="783" y="-111.8" font-family="Helvetica,sans-Serif" font-size="14.00">class = No Decease</text>
</g>
<!-- 9&#45;&gt;10 -->
<g id="edge10" class="edge">
<title>9&#45;&gt;10</title>
<path fill="none" stroke="black" d="M894.44,-222.91C888.57,-214.1 882.3,-204.7 876.24,-195.61"/>
<polygon fill="black" stroke="black" points="878.97,-193.4 870.51,-187.02 873.15,-197.28 878.97,-193.4"/>
</g>
<!-- 13 -->
<g id="node14" class="node">
<title>13</title>
<path fill="#c5e2f7" stroke="black" d="M1044.5,-187C1044.5,-187 952.5,-187 952.5,-187 946.5,-187 940.5,-181 940.5,-175 940.5,-175 940.5,-116 940.5,-116 940.5,-110 946.5,-104 952.5,-104 952.5,-104 1044.5,-104 1044.5,-104 1050.5,-104 1056.5,-110 1056.5,-116 1056.5,-116 1056.5,-175 1056.5,-175 1056.5,-181 1050.5,-187 1044.5,-187"/>
<text text-anchor="start" x="961.5" y="-171.8" font-family="Helvetica,sans-Serif" font-size="14.00">chol ≤ 271.5</text>
<text text-anchor="start" x="951" y="-156.8" font-family="Helvetica,sans-Serif" font-size="14.00">entropy = 0.978</text>
<text text-anchor="start" x="957.5" y="-141.8" font-family="Helvetica,sans-Serif" font-size="14.00">samples = 29</text>
<text text-anchor="start" x="951.5" y="-126.8" font-family="Helvetica,sans-Serif" font-size="14.00">value = [12, 17]</text>
<text text-anchor="start" x="948.5" y="-111.8" font-family="Helvetica,sans-Serif" font-size="14.00">class = Decease</text>
</g>
<!-- 9&#45;&gt;13 -->
<g id="edge13" class="edge">
<title>9&#45;&gt;13</title>
<path fill="none" stroke="black" d="M948.21,-222.91C954.01,-214.1 960.2,-204.7 966.18,-195.61"/>
<polygon fill="black" stroke="black" points="969.26,-197.3 971.83,-187.02 963.41,-193.45 969.26,-197.3"/>
</g>
<!-- 11 -->
<g id="node12" class="node">
<title>11</title>
<path fill="#f8e0ce" stroke="black" d="M745,-68C745,-68 632,-68 632,-68 626,-68 620,-62 620,-56 620,-56 620,-12 620,-12 620,-6 626,0 632,0 632,0 745,0 745,0 751,0 757,-6 757,-12 757,-12 757,-56 757,-56 757,-62 751,-68 745,-68"/>
<text text-anchor="start" x="641" y="-52.8" font-family="Helvetica,sans-Serif" font-size="14.00">entropy = 0.985</text>
<text text-anchor="start" x="651" y="-37.8" font-family="Helvetica,sans-Serif" font-size="14.00">samples = 7</text>
<text text-anchor="start" x="649" y="-22.8" font-family="Helvetica,sans-Serif" font-size="14.00">value = [4, 3]</text>
<text text-anchor="start" x="628" y="-7.8" font-family="Helvetica,sans-Serif" font-size="14.00">class = No Decease</text>
</g>
<!-- 10&#45;&gt;11 -->
<g id="edge11" class="edge">
<title>10&#45;&gt;11</title>
<path fill="none" stroke="black" d="M785.78,-103.73C772.1,-94.06 757.53,-83.77 743.95,-74.17"/>
<polygon fill="black" stroke="black" points="745.82,-71.21 735.64,-68.3 741.78,-76.93 745.82,-71.21"/>
</g>
<!-- 12 -->
<g id="node13" class="node">
<title>12</title>
<path fill="#e58139" stroke="black" d="M900,-68C900,-68 787,-68 787,-68 781,-68 775,-62 775,-56 775,-56 775,-12 775,-12 775,-6 781,0 787,0 787,0 900,0 900,0 906,0 912,-6 912,-12 912,-12 912,-56 912,-56 912,-62 906,-68 900,-68"/>
<text text-anchor="start" x="803.5" y="-52.8" font-family="Helvetica,sans-Serif" font-size="14.00">entropy = 0.0</text>
<text text-anchor="start" x="802.5" y="-37.8" font-family="Helvetica,sans-Serif" font-size="14.00">samples = 11</text>
<text text-anchor="start" x="801" y="-22.8" font-family="Helvetica,sans-Serif" font-size="14.00">value = [11, 0]</text>
<text text-anchor="start" x="783" y="-7.8" font-family="Helvetica,sans-Serif" font-size="14.00">class = No Decease</text>
</g>
<!-- 10&#45;&gt;12 -->
<g id="edge12" class="edge">
<title>10&#45;&gt;12</title>
<path fill="none" stroke="black" d="M843.5,-103.73C843.5,-95.52 843.5,-86.86 843.5,-78.56"/>
<polygon fill="black" stroke="black" points="847,-78.3 843.5,-68.3 840,-78.3 847,-78.3"/>
</g>
<!-- 14 -->
<g id="node15" class="node">
<title>14</title>
<path fill="#fdf5ef" stroke="black" d="M1055,-68C1055,-68 942,-68 942,-68 936,-68 930,-62 930,-56 930,-56 930,-12 930,-12 930,-6 936,0 942,0 942,0 1055,0 1055,0 1061,0 1067,-6 1067,-12 1067,-12 1067,-56 1067,-56 1067,-62 1061,-68 1055,-68"/>
<text text-anchor="start" x="951" y="-52.8" font-family="Helvetica,sans-Serif" font-size="14.00">entropy = 0.999</text>
<text text-anchor="start" x="957.5" y="-37.8" font-family="Helvetica,sans-Serif" font-size="14.00">samples = 23</text>
<text text-anchor="start" x="952" y="-22.8" font-family="Helvetica,sans-Serif" font-size="14.00">value = [12, 11]</text>
<text text-anchor="start" x="938" y="-7.8" font-family="Helvetica,sans-Serif" font-size="14.00">class = No Decease</text>
</g>
<!-- 13&#45;&gt;14 -->
<g id="edge14" class="edge">
<title>13&#45;&gt;14</title>
<path fill="none" stroke="black" d="M998.5,-103.73C998.5,-95.52 998.5,-86.86 998.5,-78.56"/>
<polygon fill="black" stroke="black" points="1002,-78.3 998.5,-68.3 995,-78.3 1002,-78.3"/>
</g>
<!-- 15 -->
<g id="node16" class="node">
<title>15</title>
<path fill="#399de5" stroke="black" d="M1189.5,-68C1189.5,-68 1097.5,-68 1097.5,-68 1091.5,-68 1085.5,-62 1085.5,-56 1085.5,-56 1085.5,-12 1085.5,-12 1085.5,-6 1091.5,0 1097.5,0 1097.5,0 1189.5,0 1189.5,0 1195.5,0 1201.5,-6 1201.5,-12 1201.5,-12 1201.5,-56 1201.5,-56 1201.5,-62 1195.5,-68 1189.5,-68"/>
<text text-anchor="start" x="1103.5" y="-52.8" font-family="Helvetica,sans-Serif" font-size="14.00">entropy = 0.0</text>
<text text-anchor="start" x="1106" y="-37.8" font-family="Helvetica,sans-Serif" font-size="14.00">samples = 6</text>
<text text-anchor="start" x="1104" y="-22.8" font-family="Helvetica,sans-Serif" font-size="14.00">value = [0, 6]</text>
<text text-anchor="start" x="1093.5" y="-7.8" font-family="Helvetica,sans-Serif" font-size="14.00">class = Decease</text>
</g>
<!-- 13&#45;&gt;15 -->
<g id="edge15" class="edge">
<title>13&#45;&gt;15</title>
<path fill="none" stroke="black" d="M1052.49,-103.73C1065.17,-94.15 1078.67,-83.96 1091.27,-74.44"/>
<polygon fill="black" stroke="black" points="1093.53,-77.12 1099.4,-68.3 1089.32,-71.53 1093.53,-77.12"/>
</g>
<!-- 17 -->
<g id="node18" class="node">
<title>17</title>
<path fill="#fbeee4" stroke="black" d="M1562,-306C1562,-306 1449,-306 1449,-306 1443,-306 1437,-300 1437,-294 1437,-294 1437,-235 1437,-235 1437,-229 1443,-223 1449,-223 1449,-223 1562,-223 1562,-223 1568,-223 1574,-229 1574,-235 1574,-235 1574,-294 1574,-294 1574,-300 1568,-306 1562,-306"/>
<text text-anchor="start" x="1481" y="-290.8" font-family="Helvetica,sans-Serif" font-size="14.00">ca ≤ 0.5</text>
<text text-anchor="start" x="1458" y="-275.8" font-family="Helvetica,sans-Serif" font-size="14.00">entropy = 0.996</text>
<text text-anchor="start" x="1464.5" y="-260.8" font-family="Helvetica,sans-Serif" font-size="14.00">samples = 41</text>
<text text-anchor="start" x="1458.5" y="-245.8" font-family="Helvetica,sans-Serif" font-size="14.00">value = [22, 19]</text>
<text text-anchor="start" x="1445" y="-230.8" font-family="Helvetica,sans-Serif" font-size="14.00">class = No Decease</text>
</g>
<!-- 16&#45;&gt;17 -->
<g id="edge17" class="edge">
<title>16&#45;&gt;17</title>
<path fill="none" stroke="black" d="M1505.5,-341.91C1505.5,-333.65 1505.5,-324.86 1505.5,-316.3"/>
<polygon fill="black" stroke="black" points="1509,-316.02 1505.5,-306.02 1502,-316.02 1509,-316.02"/>
</g>
<!-- 24 -->
<g id="node25" class="node">
<title>24</title>
<path fill="#4fa8e8" stroke="black" d="M1986.5,-306C1986.5,-306 1894.5,-306 1894.5,-306 1888.5,-306 1882.5,-300 1882.5,-294 1882.5,-294 1882.5,-235 1882.5,-235 1882.5,-229 1888.5,-223 1894.5,-223 1894.5,-223 1986.5,-223 1986.5,-223 1992.5,-223 1998.5,-229 1998.5,-235 1998.5,-235 1998.5,-294 1998.5,-294 1998.5,-300 1992.5,-306 1986.5,-306"/>
<text text-anchor="start" x="1896" y="-290.8" font-family="Helvetica,sans-Serif" font-size="14.00">oldpeak ≤ 0.55</text>
<text text-anchor="start" x="1893" y="-275.8" font-family="Helvetica,sans-Serif" font-size="14.00">entropy = 0.469</text>
<text text-anchor="start" x="1899.5" y="-260.8" font-family="Helvetica,sans-Serif" font-size="14.00">samples = 70</text>
<text text-anchor="start" x="1897.5" y="-245.8" font-family="Helvetica,sans-Serif" font-size="14.00">value = [7, 63]</text>
<text text-anchor="start" x="1890.5" y="-230.8" font-family="Helvetica,sans-Serif" font-size="14.00">class = Decease</text>
</g>
<!-- 16&#45;&gt;24 -->
<g id="edge24" class="edge">
<title>16&#45;&gt;24</title>
<path fill="none" stroke="black" d="M1563.71,-366.84C1643.77,-345.31 1787.57,-306.63 1872.48,-283.79"/>
<polygon fill="black" stroke="black" points="1873.54,-287.14 1882.28,-281.16 1871.72,-280.38 1873.54,-287.14"/>
</g>
<!-- 18 -->
<g id="node19" class="node">
<title>18</title>
<path fill="#eca26d" stroke="black" d="M1490,-187C1490,-187 1377,-187 1377,-187 1371,-187 1365,-181 1365,-175 1365,-175 1365,-116 1365,-116 1365,-110 1371,-104 1377,-104 1377,-104 1490,-104 1490,-104 1496,-104 1502,-110 1502,-116 1502,-116 1502,-175 1502,-175 1502,-181 1496,-187 1490,-187"/>
<text text-anchor="start" x="1401.5" y="-171.8" font-family="Helvetica,sans-Serif" font-size="14.00">age ≤ 59.5</text>
<text text-anchor="start" x="1386" y="-156.8" font-family="Helvetica,sans-Serif" font-size="14.00">entropy = 0.738</text>
<text text-anchor="start" x="1392.5" y="-141.8" font-family="Helvetica,sans-Serif" font-size="14.00">samples = 24</text>
<text text-anchor="start" x="1390.5" y="-126.8" font-family="Helvetica,sans-Serif" font-size="14.00">value = [19, 5]</text>
<text text-anchor="start" x="1373" y="-111.8" font-family="Helvetica,sans-Serif" font-size="14.00">class = No Decease</text>
</g>
<!-- 17&#45;&gt;18 -->
<g id="edge18" class="edge">
<title>17&#45;&gt;18</title>
<path fill="none" stroke="black" d="M1480.52,-222.91C1475.1,-214.1 1469.32,-204.7 1463.72,-195.61"/>
<polygon fill="black" stroke="black" points="1466.66,-193.7 1458.44,-187.02 1460.7,-197.37 1466.66,-193.7"/>
</g>
<!-- 21 -->
<g id="node22" class="node">
<title>21</title>
<path fill="#63b2eb" stroke="black" d="M1624.5,-187C1624.5,-187 1532.5,-187 1532.5,-187 1526.5,-187 1520.5,-181 1520.5,-175 1520.5,-175 1520.5,-116 1520.5,-116 1520.5,-110 1526.5,-104 1532.5,-104 1532.5,-104 1624.5,-104 1624.5,-104 1630.5,-104 1636.5,-110 1636.5,-116 1636.5,-116 1636.5,-175 1636.5,-175 1636.5,-181 1630.5,-187 1624.5,-187"/>
<text text-anchor="start" x="1551" y="-171.8" font-family="Helvetica,sans-Serif" font-size="14.00">sex ≤ 0.5</text>
<text text-anchor="start" x="1531" y="-156.8" font-family="Helvetica,sans-Serif" font-size="14.00">entropy = 0.672</text>
<text text-anchor="start" x="1537.5" y="-141.8" font-family="Helvetica,sans-Serif" font-size="14.00">samples = 17</text>
<text text-anchor="start" x="1535.5" y="-126.8" font-family="Helvetica,sans-Serif" font-size="14.00">value = [3, 14]</text>
<text text-anchor="start" x="1528.5" y="-111.8" font-family="Helvetica,sans-Serif" font-size="14.00">class = Decease</text>
</g>
<!-- 17&#45;&gt;21 -->
<g id="edge21" class="edge">
<title>17&#45;&gt;21</title>
<path fill="none" stroke="black" d="M1530.83,-222.91C1536.32,-214.1 1542.19,-204.7 1547.86,-195.61"/>
<polygon fill="black" stroke="black" points="1550.89,-197.36 1553.22,-187.02 1544.95,-193.65 1550.89,-197.36"/>
</g>
<!-- 19 -->
<g id="node20" class="node">
<title>19</title>
<path fill="#e58139" stroke="black" d="M1345,-68C1345,-68 1232,-68 1232,-68 1226,-68 1220,-62 1220,-56 1220,-56 1220,-12 1220,-12 1220,-6 1226,0 1232,0 1232,0 1345,0 1345,0 1351,0 1357,-6 1357,-12 1357,-12 1357,-56 1357,-56 1357,-62 1351,-68 1345,-68"/>
<text text-anchor="start" x="1248.5" y="-52.8" font-family="Helvetica,sans-Serif" font-size="14.00">entropy = 0.0</text>
<text text-anchor="start" x="1247.5" y="-37.8" font-family="Helvetica,sans-Serif" font-size="14.00">samples = 15</text>
<text text-anchor="start" x="1245.5" y="-22.8" font-family="Helvetica,sans-Serif" font-size="14.00">value = [15, 0]</text>
<text text-anchor="start" x="1228" y="-7.8" font-family="Helvetica,sans-Serif" font-size="14.00">class = No Decease</text>
</g>
<!-- 18&#45;&gt;19 -->
<g id="edge19" class="edge">
<title>18&#45;&gt;19</title>
<path fill="none" stroke="black" d="M1379.51,-103.73C1366.83,-94.15 1353.33,-83.96 1340.73,-74.44"/>
<polygon fill="black" stroke="black" points="1342.68,-71.53 1332.6,-68.3 1338.47,-77.12 1342.68,-71.53"/>
</g>
<!-- 20 -->
<g id="node21" class="node">
<title>20</title>
<path fill="#d7ebfa" stroke="black" d="M1479.5,-68C1479.5,-68 1387.5,-68 1387.5,-68 1381.5,-68 1375.5,-62 1375.5,-56 1375.5,-56 1375.5,-12 1375.5,-12 1375.5,-6 1381.5,0 1387.5,0 1387.5,0 1479.5,0 1479.5,0 1485.5,0 1491.5,-6 1491.5,-12 1491.5,-12 1491.5,-56 1491.5,-56 1491.5,-62 1485.5,-68 1479.5,-68"/>
<text text-anchor="start" x="1386" y="-52.8" font-family="Helvetica,sans-Serif" font-size="14.00">entropy = 0.991</text>
<text text-anchor="start" x="1396" y="-37.8" font-family="Helvetica,sans-Serif" font-size="14.00">samples = 9</text>
<text text-anchor="start" x="1394" y="-22.8" font-family="Helvetica,sans-Serif" font-size="14.00">value = [4, 5]</text>
<text text-anchor="start" x="1383.5" y="-7.8" font-family="Helvetica,sans-Serif" font-size="14.00">class = Decease</text>
</g>
<!-- 18&#45;&gt;20 -->
<g id="edge20" class="edge">
<title>18&#45;&gt;20</title>
<path fill="none" stroke="black" d="M1433.5,-103.73C1433.5,-95.52 1433.5,-86.86 1433.5,-78.56"/>
<polygon fill="black" stroke="black" points="1437,-78.3 1433.5,-68.3 1430,-78.3 1437,-78.3"/>
</g>
<!-- 22 -->
<g id="node23" class="node">
<title>22</title>
<path fill="#ffffff" stroke="black" d="M1635,-68C1635,-68 1522,-68 1522,-68 1516,-68 1510,-62 1510,-56 1510,-56 1510,-12 1510,-12 1510,-6 1516,0 1522,0 1522,0 1635,0 1635,0 1641,0 1647,-6 1647,-12 1647,-12 1647,-56 1647,-56 1647,-62 1641,-68 1635,-68"/>
<text text-anchor="start" x="1538.5" y="-52.8" font-family="Helvetica,sans-Serif" font-size="14.00">entropy = 1.0</text>
<text text-anchor="start" x="1541" y="-37.8" font-family="Helvetica,sans-Serif" font-size="14.00">samples = 6</text>
<text text-anchor="start" x="1539" y="-22.8" font-family="Helvetica,sans-Serif" font-size="14.00">value = [3, 3]</text>
<text text-anchor="start" x="1518" y="-7.8" font-family="Helvetica,sans-Serif" font-size="14.00">class = No Decease</text>
</g>
<!-- 21&#45;&gt;22 -->
<g id="edge22" class="edge">
<title>21&#45;&gt;22</title>
<path fill="none" stroke="black" d="M1578.5,-103.73C1578.5,-95.52 1578.5,-86.86 1578.5,-78.56"/>
<polygon fill="black" stroke="black" points="1582,-78.3 1578.5,-68.3 1575,-78.3 1582,-78.3"/>
</g>
<!-- 23 -->
<g id="node24" class="node">
<title>23</title>
<path fill="#399de5" stroke="black" d="M1769.5,-68C1769.5,-68 1677.5,-68 1677.5,-68 1671.5,-68 1665.5,-62 1665.5,-56 1665.5,-56 1665.5,-12 1665.5,-12 1665.5,-6 1671.5,0 1677.5,0 1677.5,0 1769.5,0 1769.5,0 1775.5,0 1781.5,-6 1781.5,-12 1781.5,-12 1781.5,-56 1781.5,-56 1781.5,-62 1775.5,-68 1769.5,-68"/>
<text text-anchor="start" x="1683.5" y="-52.8" font-family="Helvetica,sans-Serif" font-size="14.00">entropy = 0.0</text>
<text text-anchor="start" x="1682.5" y="-37.8" font-family="Helvetica,sans-Serif" font-size="14.00">samples = 11</text>
<text text-anchor="start" x="1681" y="-22.8" font-family="Helvetica,sans-Serif" font-size="14.00">value = [0, 11]</text>
<text text-anchor="start" x="1673.5" y="-7.8" font-family="Helvetica,sans-Serif" font-size="14.00">class = Decease</text>
</g>
<!-- 21&#45;&gt;23 -->
<g id="edge23" class="edge">
<title>21&#45;&gt;23</title>
<path fill="none" stroke="black" d="M1632.49,-103.73C1645.17,-94.15 1658.67,-83.96 1671.27,-74.44"/>
<polygon fill="black" stroke="black" points="1673.53,-77.12 1679.4,-68.3 1669.32,-71.53 1673.53,-77.12"/>
</g>
<!-- 25 -->
<g id="node26" class="node">
<title>25</title>
<path fill="#b0d8f5" stroke="black" d="M1986.5,-187C1986.5,-187 1894.5,-187 1894.5,-187 1888.5,-187 1882.5,-181 1882.5,-175 1882.5,-175 1882.5,-116 1882.5,-116 1882.5,-110 1888.5,-104 1894.5,-104 1894.5,-104 1986.5,-104 1986.5,-104 1992.5,-104 1998.5,-110 1998.5,-116 1998.5,-116 1998.5,-175 1998.5,-175 1998.5,-181 1992.5,-187 1986.5,-187"/>
<text text-anchor="start" x="1903.5" y="-171.8" font-family="Helvetica,sans-Serif" font-size="14.00">chol ≤ 268.5</text>
<text text-anchor="start" x="1893" y="-156.8" font-family="Helvetica,sans-Serif" font-size="14.00">entropy = 0.954</text>
<text text-anchor="start" x="1899.5" y="-141.8" font-family="Helvetica,sans-Serif" font-size="14.00">samples = 16</text>
<text text-anchor="start" x="1897.5" y="-126.8" font-family="Helvetica,sans-Serif" font-size="14.00">value = [6, 10]</text>
<text text-anchor="start" x="1890.5" y="-111.8" font-family="Helvetica,sans-Serif" font-size="14.00">class = Decease</text>
</g>
<!-- 24&#45;&gt;25 -->
<g id="edge25" class="edge">
<title>24&#45;&gt;25</title>
<path fill="none" stroke="black" d="M1940.5,-222.91C1940.5,-214.65 1940.5,-205.86 1940.5,-197.3"/>
<polygon fill="black" stroke="black" points="1944,-197.02 1940.5,-187.02 1937,-197.02 1944,-197.02"/>
</g>
<!-- 28 -->
<g id="node29" class="node">
<title>28</title>
<path fill="#3d9fe5" stroke="black" d="M2193.5,-187C2193.5,-187 2101.5,-187 2101.5,-187 2095.5,-187 2089.5,-181 2089.5,-175 2089.5,-175 2089.5,-116 2089.5,-116 2089.5,-110 2095.5,-104 2101.5,-104 2101.5,-104 2193.5,-104 2193.5,-104 2199.5,-104 2205.5,-110 2205.5,-116 2205.5,-116 2205.5,-175 2205.5,-175 2205.5,-181 2199.5,-187 2193.5,-187"/>
<text text-anchor="start" x="2115.5" y="-171.8" font-family="Helvetica,sans-Serif" font-size="14.00">age ≤ 65.5</text>
<text text-anchor="start" x="2100" y="-156.8" font-family="Helvetica,sans-Serif" font-size="14.00">entropy = 0.133</text>
<text text-anchor="start" x="2106.5" y="-141.8" font-family="Helvetica,sans-Serif" font-size="14.00">samples = 54</text>
<text text-anchor="start" x="2104.5" y="-126.8" font-family="Helvetica,sans-Serif" font-size="14.00">value = [1, 53]</text>
<text text-anchor="start" x="2097.5" y="-111.8" font-family="Helvetica,sans-Serif" font-size="14.00">class = Decease</text>
</g>
<!-- 24&#45;&gt;28 -->
<g id="edge28" class="edge">
<title>24&#45;&gt;28</title>
<path fill="none" stroke="black" d="M1998.71,-230.6C2024.17,-216.21 2054.19,-199.24 2080.57,-184.33"/>
<polygon fill="black" stroke="black" points="2082.38,-187.33 2089.37,-179.36 2078.94,-181.23 2082.38,-187.33"/>
</g>
<!-- 26 -->
<g id="node27" class="node">
<title>26</title>
<path fill="#ffffff" stroke="black" d="M1925,-68C1925,-68 1812,-68 1812,-68 1806,-68 1800,-62 1800,-56 1800,-56 1800,-12 1800,-12 1800,-6 1806,0 1812,0 1812,0 1925,0 1925,0 1931,0 1937,-6 1937,-12 1937,-12 1937,-56 1937,-56 1937,-62 1931,-68 1925,-68"/>
<text text-anchor="start" x="1828.5" y="-52.8" font-family="Helvetica,sans-Serif" font-size="14.00">entropy = 1.0</text>
<text text-anchor="start" x="1827.5" y="-37.8" font-family="Helvetica,sans-Serif" font-size="14.00">samples = 12</text>
<text text-anchor="start" x="1829" y="-22.8" font-family="Helvetica,sans-Serif" font-size="14.00">value = [6, 6]</text>
<text text-anchor="start" x="1808" y="-7.8" font-family="Helvetica,sans-Serif" font-size="14.00">class = No Decease</text>
</g>
<!-- 25&#45;&gt;26 -->
<g id="edge26" class="edge">
<title>25&#45;&gt;26</title>
<path fill="none" stroke="black" d="M1913.69,-103.73C1907.93,-94.97 1901.84,-85.7 1896.05,-76.91"/>
<polygon fill="black" stroke="black" points="1898.81,-74.73 1890.4,-68.3 1892.97,-78.58 1898.81,-74.73"/>
</g>
<!-- 27 -->
<g id="node28" class="node">
<title>27</title>
<path fill="#399de5" stroke="black" d="M2059.5,-68C2059.5,-68 1967.5,-68 1967.5,-68 1961.5,-68 1955.5,-62 1955.5,-56 1955.5,-56 1955.5,-12 1955.5,-12 1955.5,-6 1961.5,0 1967.5,0 1967.5,0 2059.5,0 2059.5,0 2065.5,0 2071.5,-6 2071.5,-12 2071.5,-12 2071.5,-56 2071.5,-56 2071.5,-62 2065.5,-68 2059.5,-68"/>
<text text-anchor="start" x="1973.5" y="-52.8" font-family="Helvetica,sans-Serif" font-size="14.00">entropy = 0.0</text>
<text text-anchor="start" x="1976" y="-37.8" font-family="Helvetica,sans-Serif" font-size="14.00">samples = 4</text>
<text text-anchor="start" x="1974" y="-22.8" font-family="Helvetica,sans-Serif" font-size="14.00">value = [0, 4]</text>
<text text-anchor="start" x="1963.5" y="-7.8" font-family="Helvetica,sans-Serif" font-size="14.00">class = Decease</text>
</g>
<!-- 25&#45;&gt;27 -->
<g id="edge27" class="edge">
<title>25&#45;&gt;27</title>
<path fill="none" stroke="black" d="M1967.68,-103.73C1973.58,-94.88 1979.83,-85.51 1985.75,-76.63"/>
<polygon fill="black" stroke="black" points="1988.67,-78.56 1991.3,-68.3 1982.84,-74.68 1988.67,-78.56"/>
</g>
<!-- 29 -->
<g id="node30" class="node">
<title>29</title>
<path fill="#399de5" stroke="black" d="M2193.5,-68C2193.5,-68 2101.5,-68 2101.5,-68 2095.5,-68 2089.5,-62 2089.5,-56 2089.5,-56 2089.5,-12 2089.5,-12 2089.5,-6 2095.5,0 2101.5,0 2101.5,0 2193.5,0 2193.5,0 2199.5,0 2205.5,-6 2205.5,-12 2205.5,-12 2205.5,-56 2205.5,-56 2205.5,-62 2199.5,-68 2193.5,-68"/>
<text text-anchor="start" x="2107.5" y="-52.8" font-family="Helvetica,sans-Serif" font-size="14.00">entropy = 0.0</text>
<text text-anchor="start" x="2106.5" y="-37.8" font-family="Helvetica,sans-Serif" font-size="14.00">samples = 49</text>
<text text-anchor="start" x="2104.5" y="-22.8" font-family="Helvetica,sans-Serif" font-size="14.00">value = [0, 49]</text>
<text text-anchor="start" x="2097.5" y="-7.8" font-family="Helvetica,sans-Serif" font-size="14.00">class = Decease</text>
</g>
<!-- 28&#45;&gt;29 -->
<g id="edge29" class="edge">
<title>28&#45;&gt;29</title>
<path fill="none" stroke="black" d="M2147.5,-103.73C2147.5,-95.52 2147.5,-86.86 2147.5,-78.56"/>
<polygon fill="black" stroke="black" points="2151,-78.3 2147.5,-68.3 2144,-78.3 2151,-78.3"/>
</g>
<!-- 30 -->
<g id="node31" class="node">
<title>30</title>
<path fill="#6ab6ec" stroke="black" d="M2327.5,-68C2327.5,-68 2235.5,-68 2235.5,-68 2229.5,-68 2223.5,-62 2223.5,-56 2223.5,-56 2223.5,-12 2223.5,-12 2223.5,-6 2229.5,0 2235.5,0 2235.5,0 2327.5,0 2327.5,0 2333.5,0 2339.5,-6 2339.5,-12 2339.5,-12 2339.5,-56 2339.5,-56 2339.5,-62 2333.5,-68 2327.5,-68"/>
<text text-anchor="start" x="2234" y="-52.8" font-family="Helvetica,sans-Serif" font-size="14.00">entropy = 0.722</text>
<text text-anchor="start" x="2244" y="-37.8" font-family="Helvetica,sans-Serif" font-size="14.00">samples = 5</text>
<text text-anchor="start" x="2242" y="-22.8" font-family="Helvetica,sans-Serif" font-size="14.00">value = [1, 4]</text>
<text text-anchor="start" x="2231.5" y="-7.8" font-family="Helvetica,sans-Serif" font-size="14.00">class = Decease</text>
</g>
<!-- 28&#45;&gt;30 -->
<g id="edge30" class="edge">
<title>28&#45;&gt;30</title>
<path fill="none" stroke="black" d="M2197.4,-103.73C2209,-94.24 2221.35,-84.16 2232.9,-74.72"/>
<polygon fill="black" stroke="black" points="2235.22,-77.34 2240.75,-68.3 2230.79,-71.92 2235.22,-77.34"/>
</g>
</g>
</svg>
