<?xml version="1.0" encoding="UTF-8" standalone="no"?>
<!DOCTYPE svg PUBLIC "-//W3C//DTD SVG 1.1//EN"
 "http://www.w3.org/Graphics/SVG/1.1/DTD/svg11.dtd">
<!-- Generated by graphviz version 2.50.0 (0)
 -->
<!-- Title: Tree Pages: 1 -->
<svg width="1737pt" height="582pt"
 viewBox="0.00 0.00 1736.50 582.00" xmlns="http://www.w3.org/2000/svg" xmlns:xlink="http://www.w3.org/1999/xlink">
<g id="graph0" class="graph" transform="scale(1 1) rotate(0) translate(4 578)">
<title>Tree</title>
<polygon fill="white" stroke="transparent" points="-4,4 -4,-578 1732.5,-578 1732.5,4 -4,4"/>
<text text-anchor="middle" x="864.25" y="-554" font-family="Times New Roman,serif" font-size="20.00">Max Depth: 4 &#45; Accuracy: 0.8167</text>
<!-- 0 -->
<g id="node1" class="node">
<title>0</title>
<path fill="#fbece2" stroke="black" d="M951,-544C951,-544 828,-544 828,-544 822,-544 816,-538 816,-532 816,-532 816,-473 816,-473 816,-467 822,-461 828,-461 828,-461 951,-461 951,-461 957,-461 963,-467 963,-473 963,-473 963,-532 963,-532 963,-538 957,-544 951,-544"/>
<text text-anchor="start" x="861.5" y="-528.8" font-family="Helvetica,sans-Serif" font-size="14.00">thal ≤ 4.5</text>
<text text-anchor="start" x="842" y="-513.8" font-family="Helvetica,sans-Serif" font-size="14.00">entropy = 0.995</text>
<text text-anchor="start" x="844.5" y="-498.8" font-family="Helvetica,sans-Serif" font-size="14.00">samples = 237</text>
<text text-anchor="start" x="824" y="-483.8" font-family="Helvetica,sans-Serif" font-size="14.00">value = [128.0, 109.0]</text>
<text text-anchor="start" x="829" y="-468.8" font-family="Helvetica,sans-Serif" font-size="14.00">class = No Decease</text>
</g>
<!-- 1 -->
<g id="node2" class="node">
<title>1</title>
<path fill="#eca470" stroke="black" d="M657,-425C657,-425 544,-425 544,-425 538,-425 532,-419 532,-413 532,-413 532,-354 532,-354 532,-348 538,-342 544,-342 544,-342 657,-342 657,-342 663,-342 669,-348 669,-354 669,-354 669,-413 669,-413 669,-419 663,-425 657,-425"/>
<text text-anchor="start" x="568.5" y="-409.8" font-family="Helvetica,sans-Serif" font-size="14.00">age ≤ 54.5</text>
<text text-anchor="start" x="553" y="-394.8" font-family="Helvetica,sans-Serif" font-size="14.00">entropy = 0.753</text>
<text text-anchor="start" x="555.5" y="-379.8" font-family="Helvetica,sans-Serif" font-size="14.00">samples = 125</text>
<text text-anchor="start" x="553.5" y="-364.8" font-family="Helvetica,sans-Serif" font-size="14.00">value = [98, 27]</text>
<text text-anchor="start" x="540" y="-349.8" font-family="Helvetica,sans-Serif" font-size="14.00">class = No Decease</text>
</g>
<!-- 0&#45;&gt;1 -->
<g id="edge1" class="edge">
<title>0&#45;&gt;1</title>
<path fill="none" stroke="black" d="M815.83,-471.67C773.85,-454.68 721.27,-433.39 678.59,-416.11"/>
<polygon fill="black" stroke="black" points="679.66,-412.77 669.08,-412.26 677.03,-419.26 679.66,-412.77"/>
<text text-anchor="middle" x="678.83" y="-431.58" font-family="Helvetica,sans-Serif" font-size="14.00">True</text>
</g>
<!-- 14 -->
<g id="node15" class="node">
<title>14</title>
<path fill="#81c1ef" stroke="black" d="M1225.5,-425C1225.5,-425 1133.5,-425 1133.5,-425 1127.5,-425 1121.5,-419 1121.5,-413 1121.5,-413 1121.5,-354 1121.5,-354 1121.5,-348 1127.5,-342 1133.5,-342 1133.5,-342 1225.5,-342 1225.5,-342 1231.5,-342 1237.5,-348 1237.5,-354 1237.5,-354 1237.5,-413 1237.5,-413 1237.5,-419 1231.5,-425 1225.5,-425"/>
<text text-anchor="start" x="1155" y="-409.8" font-family="Helvetica,sans-Serif" font-size="14.00">ca ≤ 0.5</text>
<text text-anchor="start" x="1132" y="-394.8" font-family="Helvetica,sans-Serif" font-size="14.00">entropy = 0.838</text>
<text text-anchor="start" x="1135" y="-379.8" font-family="Helvetica,sans-Serif" font-size="14.00">samples = 112</text>
<text text-anchor="start" x="1132.5" y="-364.8" font-family="Helvetica,sans-Serif" font-size="14.00">value = [30, 82]</text>
<text text-anchor="start" x="1129.5" y="-349.8" font-family="Helvetica,sans-Serif" font-size="14.00">class = Decease</text>
</g>
<!-- 0&#45;&gt;14 -->
<g id="edge14" class="edge">
<title>0&#45;&gt;14</title>
<path fill="none" stroke="black" d="M963.05,-471.82C1008.8,-453.37 1067.19,-429.81 1111.8,-411.82"/>
<polygon fill="black" stroke="black" points="1113.13,-415.05 1121.09,-408.06 1110.51,-408.56 1113.13,-415.05"/>
<text text-anchor="middle" x="1111.32" y="-427.37" font-family="Helvetica,sans-Serif" font-size="14.00">False</text>
</g>
<!-- 2 -->
<g id="node3" class="node">
<title>2</title>
<path fill="#e78946" stroke="black" d="M280,-306C280,-306 167,-306 167,-306 161,-306 155,-300 155,-294 155,-294 155,-235 155,-235 155,-229 161,-223 167,-223 167,-223 280,-223 280,-223 286,-223 292,-229 292,-235 292,-235 292,-294 292,-294 292,-300 286,-306 280,-306"/>
<text text-anchor="start" x="199" y="-290.8" font-family="Helvetica,sans-Serif" font-size="14.00">ca ≤ 0.5</text>
<text text-anchor="start" x="176" y="-275.8" font-family="Helvetica,sans-Serif" font-size="14.00">entropy = 0.326</text>
<text text-anchor="start" x="182.5" y="-260.8" font-family="Helvetica,sans-Serif" font-size="14.00">samples = 67</text>
<text text-anchor="start" x="180.5" y="-245.8" font-family="Helvetica,sans-Serif" font-size="14.00">value = [63, 4]</text>
<text text-anchor="start" x="163" y="-230.8" font-family="Helvetica,sans-Serif" font-size="14.00">class = No Decease</text>
</g>
<!-- 1&#45;&gt;2 -->
<g id="edge2" class="edge">
<title>1&#45;&gt;2</title>
<path fill="none" stroke="black" d="M531.79,-361.18C466.91,-341.04 369.71,-310.88 301.85,-289.81"/>
<polygon fill="black" stroke="black" points="302.64,-286.4 292.05,-286.78 300.57,-293.08 302.64,-286.4"/>
</g>
<!-- 7 -->
<g id="node8" class="node">
<title>7</title>
<path fill="#f6d4bb" stroke="black" d="M657,-306C657,-306 544,-306 544,-306 538,-306 532,-300 532,-294 532,-294 532,-235 532,-235 532,-229 538,-223 544,-223 544,-223 657,-223 657,-223 663,-223 669,-229 669,-235 669,-235 669,-294 669,-294 669,-300 663,-306 657,-306"/>
<text text-anchor="start" x="576" y="-290.8" font-family="Helvetica,sans-Serif" font-size="14.00">cp ≤ 3.5</text>
<text text-anchor="start" x="553" y="-275.8" font-family="Helvetica,sans-Serif" font-size="14.00">entropy = 0.969</text>
<text text-anchor="start" x="559.5" y="-260.8" font-family="Helvetica,sans-Serif" font-size="14.00">samples = 58</text>
<text text-anchor="start" x="553.5" y="-245.8" font-family="Helvetica,sans-Serif" font-size="14.00">value = [35, 23]</text>
<text text-anchor="start" x="540" y="-230.8" font-family="Helvetica,sans-Serif" font-size="14.00">class = No Decease</text>
</g>
<!-- 1&#45;&gt;7 -->
<g id="edge7" class="edge">
<title>1&#45;&gt;7</title>
<path fill="none" stroke="black" d="M600.5,-341.91C600.5,-333.65 600.5,-324.86 600.5,-316.3"/>
<polygon fill="black" stroke="black" points="604,-316.02 600.5,-306.02 597,-316.02 604,-316.02"/>
</g>
<!-- 3 -->
<g id="node4" class="node">
<title>3</title>
<path fill="#e58139" stroke="black" d="M125,-179.5C125,-179.5 12,-179.5 12,-179.5 6,-179.5 0,-173.5 0,-167.5 0,-167.5 0,-123.5 0,-123.5 0,-117.5 6,-111.5 12,-111.5 12,-111.5 125,-111.5 125,-111.5 131,-111.5 137,-117.5 137,-123.5 137,-123.5 137,-167.5 137,-167.5 137,-173.5 131,-179.5 125,-179.5"/>
<text text-anchor="start" x="28.5" y="-164.3" font-family="Helvetica,sans-Serif" font-size="14.00">entropy = 0.0</text>
<text text-anchor="start" x="27.5" y="-149.3" font-family="Helvetica,sans-Serif" font-size="14.00">samples = 55</text>
<text text-anchor="start" x="25.5" y="-134.3" font-family="Helvetica,sans-Serif" font-size="14.00">value = [55, 0]</text>
<text text-anchor="start" x="8" y="-119.3" font-family="Helvetica,sans-Serif" font-size="14.00">class = No Decease</text>
</g>
<!-- 2&#45;&gt;3 -->
<g id="edge3" class="edge">
<title>2&#45;&gt;3</title>
<path fill="none" stroke="black" d="M169.72,-222.91C153.79,-210.88 136.37,-197.73 120.55,-185.79"/>
<polygon fill="black" stroke="black" points="122.53,-182.9 112.44,-179.67 118.31,-188.49 122.53,-182.9"/>
</g>
<!-- 4 -->
<g id="node5" class="node">
<title>4</title>
<path fill="#f2c09c" stroke="black" d="M280,-187C280,-187 167,-187 167,-187 161,-187 155,-181 155,-175 155,-175 155,-116 155,-116 155,-110 161,-104 167,-104 167,-104 280,-104 280,-104 286,-104 292,-110 292,-116 292,-116 292,-175 292,-175 292,-181 286,-187 280,-187"/>
<text text-anchor="start" x="199" y="-171.8" font-family="Helvetica,sans-Serif" font-size="14.00">cp ≤ 3.5</text>
<text text-anchor="start" x="176" y="-156.8" font-family="Helvetica,sans-Serif" font-size="14.00">entropy = 0.918</text>
<text text-anchor="start" x="182.5" y="-141.8" font-family="Helvetica,sans-Serif" font-size="14.00">samples = 12</text>
<text text-anchor="start" x="184" y="-126.8" font-family="Helvetica,sans-Serif" font-size="14.00">value = [8, 4]</text>
<text text-anchor="start" x="163" y="-111.8" font-family="Helvetica,sans-Serif" font-size="14.00">class = No Decease</text>
</g>
<!-- 2&#45;&gt;4 -->
<g id="edge4" class="edge">
<title>2&#45;&gt;4</title>
<path fill="none" stroke="black" d="M223.5,-222.91C223.5,-214.65 223.5,-205.86 223.5,-197.3"/>
<polygon fill="black" stroke="black" points="227,-197.02 223.5,-187.02 220,-197.02 227,-197.02"/>
</g>
<!-- 5 -->
<g id="node6" class="node">
<title>5</title>
<path fill="#e58139" stroke="black" d="M135,-68C135,-68 22,-68 22,-68 16,-68 10,-62 10,-56 10,-56 10,-12 10,-12 10,-6 16,0 22,0 22,0 135,0 135,0 141,0 147,-6 147,-12 147,-12 147,-56 147,-56 147,-62 141,-68 135,-68"/>
<text text-anchor="start" x="38.5" y="-52.8" font-family="Helvetica,sans-Serif" font-size="14.00">entropy = 0.0</text>
<text text-anchor="start" x="41" y="-37.8" font-family="Helvetica,sans-Serif" font-size="14.00">samples = 8</text>
<text text-anchor="start" x="39" y="-22.8" font-family="Helvetica,sans-Serif" font-size="14.00">value = [8, 0]</text>
<text text-anchor="start" x="18" y="-7.8" font-family="Helvetica,sans-Serif" font-size="14.00">class = No Decease</text>
</g>
<!-- 4&#45;&gt;5 -->
<g id="edge5" class="edge">
<title>4&#45;&gt;5</title>
<path fill="none" stroke="black" d="M169.51,-103.73C156.83,-94.15 143.33,-83.96 130.73,-74.44"/>
<polygon fill="black" stroke="black" points="132.68,-71.53 122.6,-68.3 128.47,-77.12 132.68,-71.53"/>
</g>
<!-- 6 -->
<g id="node7" class="node">
<title>6</title>
<path fill="#399de5" stroke="black" d="M269.5,-68C269.5,-68 177.5,-68 177.5,-68 171.5,-68 165.5,-62 165.5,-56 165.5,-56 165.5,-12 165.5,-12 165.5,-6 171.5,0 177.5,0 177.5,0 269.5,0 269.5,0 275.5,0 281.5,-6 281.5,-12 281.5,-12 281.5,-56 281.5,-56 281.5,-62 275.5,-68 269.5,-68"/>
<text text-anchor="start" x="183.5" y="-52.8" font-family="Helvetica,sans-Serif" font-size="14.00">entropy = 0.0</text>
<text text-anchor="start" x="186" y="-37.8" font-family="Helvetica,sans-Serif" font-size="14.00">samples = 4</text>
<text text-anchor="start" x="184" y="-22.8" font-family="Helvetica,sans-Serif" font-size="14.00">value = [0, 4]</text>
<text text-anchor="start" x="173.5" y="-7.8" font-family="Helvetica,sans-Serif" font-size="14.00">class = Decease</text>
</g>
<!-- 4&#45;&gt;6 -->
<g id="edge6" class="edge">
<title>4&#45;&gt;6</title>
<path fill="none" stroke="black" d="M223.5,-103.73C223.5,-95.52 223.5,-86.86 223.5,-78.56"/>
<polygon fill="black" stroke="black" points="227,-78.3 223.5,-68.3 220,-78.3 227,-78.3"/>
</g>
<!-- 8 -->
<g id="node9" class="node">
<title>8</title>
<path fill="#eda876" stroke="black" d="M580,-187C580,-187 467,-187 467,-187 461,-187 455,-181 455,-175 455,-175 455,-116 455,-116 455,-110 461,-104 467,-104 467,-104 580,-104 580,-104 586,-104 592,-110 592,-116 592,-116 592,-175 592,-175 592,-181 586,-187 580,-187"/>
<text text-anchor="start" x="491.5" y="-171.8" font-family="Helvetica,sans-Serif" font-size="14.00">age ≤ 64.5</text>
<text text-anchor="start" x="476" y="-156.8" font-family="Helvetica,sans-Serif" font-size="14.00">entropy = 0.787</text>
<text text-anchor="start" x="482.5" y="-141.8" font-family="Helvetica,sans-Serif" font-size="14.00">samples = 34</text>
<text text-anchor="start" x="480.5" y="-126.8" font-family="Helvetica,sans-Serif" font-size="14.00">value = [26, 8]</text>
<text text-anchor="start" x="463" y="-111.8" font-family="Helvetica,sans-Serif" font-size="14.00">class = No Decease</text>
</g>
<!-- 7&#45;&gt;8 -->
<g id="edge8" class="edge">
<title>7&#45;&gt;8</title>
<path fill="none" stroke="black" d="M573.79,-222.91C567.99,-214.1 561.8,-204.7 555.82,-195.61"/>
<polygon fill="black" stroke="black" points="558.59,-193.45 550.17,-187.02 552.74,-197.3 558.59,-193.45"/>
</g>
<!-- 11 -->
<g id="node12" class="node">
<title>11</title>
<path fill="#b0d8f5" stroke="black" d="M724.5,-187C724.5,-187 632.5,-187 632.5,-187 626.5,-187 620.5,-181 620.5,-175 620.5,-175 620.5,-116 620.5,-116 620.5,-110 626.5,-104 632.5,-104 632.5,-104 724.5,-104 724.5,-104 730.5,-104 736.5,-110 736.5,-116 736.5,-116 736.5,-175 736.5,-175 736.5,-181 730.5,-187 724.5,-187"/>
<text text-anchor="start" x="643" y="-171.8" font-family="Helvetica,sans-Serif" font-size="14.00">exang ≤ 0.5</text>
<text text-anchor="start" x="631" y="-156.8" font-family="Helvetica,sans-Serif" font-size="14.00">entropy = 0.954</text>
<text text-anchor="start" x="637.5" y="-141.8" font-family="Helvetica,sans-Serif" font-size="14.00">samples = 24</text>
<text text-anchor="start" x="635.5" y="-126.8" font-family="Helvetica,sans-Serif" font-size="14.00">value = [9, 15]</text>
<text text-anchor="start" x="628.5" y="-111.8" font-family="Helvetica,sans-Serif" font-size="14.00">class = Decease</text>
</g>
<!-- 7&#45;&gt;11 -->
<g id="edge11" class="edge">
<title>7&#45;&gt;11</title>
<path fill="none" stroke="black" d="M627.56,-222.91C633.43,-214.1 639.7,-204.7 645.76,-195.61"/>
<polygon fill="black" stroke="black" points="648.85,-197.28 651.49,-187.02 643.03,-193.4 648.85,-197.28"/>
</g>
<!-- 9 -->
<g id="node10" class="node">
<title>9</title>
<path fill="#f4c9aa" stroke="black" d="M425,-68C425,-68 312,-68 312,-68 306,-68 300,-62 300,-56 300,-56 300,-12 300,-12 300,-6 306,0 312,0 312,0 425,0 425,0 431,0 437,-6 437,-12 437,-12 437,-56 437,-56 437,-62 431,-68 425,-68"/>
<text text-anchor="start" x="321" y="-52.8" font-family="Helvetica,sans-Serif" font-size="14.00">entropy = 0.946</text>
<text text-anchor="start" x="327.5" y="-37.8" font-family="Helvetica,sans-Serif" font-size="14.00">samples = 22</text>
<text text-anchor="start" x="325.5" y="-22.8" font-family="Helvetica,sans-Serif" font-size="14.00">value = [14, 8]</text>
<text text-anchor="start" x="308" y="-7.8" font-family="Helvetica,sans-Serif" font-size="14.00">class = No Decease</text>
</g>
<!-- 8&#45;&gt;9 -->
<g id="edge9" class="edge">
<title>8&#45;&gt;9</title>
<path fill="none" stroke="black" d="M465.78,-103.73C452.1,-94.06 437.53,-83.77 423.95,-74.17"/>
<polygon fill="black" stroke="black" points="425.82,-71.21 415.64,-68.3 421.78,-76.93 425.82,-71.21"/>
</g>
<!-- 10 -->
<g id="node11" class="node">
<title>10</title>
<path fill="#e58139" stroke="black" d="M580,-68C580,-68 467,-68 467,-68 461,-68 455,-62 455,-56 455,-56 455,-12 455,-12 455,-6 461,0 467,0 467,0 580,0 580,0 586,0 592,-6 592,-12 592,-12 592,-56 592,-56 592,-62 586,-68 580,-68"/>
<text text-anchor="start" x="483.5" y="-52.8" font-family="Helvetica,sans-Serif" font-size="14.00">entropy = 0.0</text>
<text text-anchor="start" x="482.5" y="-37.8" font-family="Helvetica,sans-Serif" font-size="14.00">samples = 12</text>
<text text-anchor="start" x="480.5" y="-22.8" font-family="Helvetica,sans-Serif" font-size="14.00">value = [12, 0]</text>
<text text-anchor="start" x="463" y="-7.8" font-family="Helvetica,sans-Serif" font-size="14.00">class = No Decease</text>
</g>
<!-- 8&#45;&gt;10 -->
<g id="edge10" class="edge">
<title>8&#45;&gt;10</title>
<path fill="none" stroke="black" d="M523.5,-103.73C523.5,-95.52 523.5,-86.86 523.5,-78.56"/>
<polygon fill="black" stroke="black" points="527,-78.3 523.5,-68.3 520,-78.3 527,-78.3"/>
</g>
<!-- 12 -->
<g id="node13" class="node">
<title>12</title>
<path fill="#f8dbc6" stroke="black" d="M735,-68C735,-68 622,-68 622,-68 616,-68 610,-62 610,-56 610,-56 610,-12 610,-12 610,-6 616,0 622,0 622,0 735,0 735,0 741,0 747,-6 747,-12 747,-12 747,-56 747,-56 747,-62 741,-68 735,-68"/>
<text text-anchor="start" x="634.5" y="-52.8" font-family="Helvetica,sans-Serif" font-size="14.00">entropy = 0.98</text>
<text text-anchor="start" x="637.5" y="-37.8" font-family="Helvetica,sans-Serif" font-size="14.00">samples = 12</text>
<text text-anchor="start" x="639" y="-22.8" font-family="Helvetica,sans-Serif" font-size="14.00">value = [7, 5]</text>
<text text-anchor="start" x="618" y="-7.8" font-family="Helvetica,sans-Serif" font-size="14.00">class = No Decease</text>
</g>
<!-- 11&#45;&gt;12 -->
<g id="edge12" class="edge">
<title>11&#45;&gt;12</title>
<path fill="none" stroke="black" d="M678.5,-103.73C678.5,-95.52 678.5,-86.86 678.5,-78.56"/>
<polygon fill="black" stroke="black" points="682,-78.3 678.5,-68.3 675,-78.3 682,-78.3"/>
</g>
<!-- 13 -->
<g id="node14" class="node">
<title>13</title>
<path fill="#61b1ea" stroke="black" d="M869.5,-68C869.5,-68 777.5,-68 777.5,-68 771.5,-68 765.5,-62 765.5,-56 765.5,-56 765.5,-12 765.5,-12 765.5,-6 771.5,0 777.5,0 777.5,0 869.5,0 869.5,0 875.5,0 881.5,-6 881.5,-12 881.5,-12 881.5,-56 881.5,-56 881.5,-62 875.5,-68 869.5,-68"/>
<text text-anchor="start" x="779.5" y="-52.8" font-family="Helvetica,sans-Serif" font-size="14.00">entropy = 0.65</text>
<text text-anchor="start" x="782.5" y="-37.8" font-family="Helvetica,sans-Serif" font-size="14.00">samples = 12</text>
<text text-anchor="start" x="780.5" y="-22.8" font-family="Helvetica,sans-Serif" font-size="14.00">value = [2, 10]</text>
<text text-anchor="start" x="773.5" y="-7.8" font-family="Helvetica,sans-Serif" font-size="14.00">class = Decease</text>
</g>
<!-- 11&#45;&gt;13 -->
<g id="edge13" class="edge">
<title>11&#45;&gt;13</title>
<path fill="none" stroke="black" d="M732.49,-103.73C745.17,-94.15 758.67,-83.96 771.27,-74.44"/>
<polygon fill="black" stroke="black" points="773.53,-77.12 779.4,-68.3 769.32,-71.53 773.53,-77.12"/>
</g>
<!-- 15 -->
<g id="node16" class="node">
<title>15</title>
<path fill="#f0f7fd" stroke="black" d="M1225.5,-306C1225.5,-306 1133.5,-306 1133.5,-306 1127.5,-306 1121.5,-300 1121.5,-294 1121.5,-294 1121.5,-235 1121.5,-235 1121.5,-229 1127.5,-223 1133.5,-223 1133.5,-223 1225.5,-223 1225.5,-223 1231.5,-223 1237.5,-229 1237.5,-235 1237.5,-235 1237.5,-294 1237.5,-294 1237.5,-300 1231.5,-306 1225.5,-306"/>
<text text-anchor="start" x="1144" y="-290.8" font-family="Helvetica,sans-Serif" font-size="14.00">exang ≤ 0.5</text>
<text text-anchor="start" x="1132" y="-275.8" font-family="Helvetica,sans-Serif" font-size="14.00">entropy = 0.999</text>
<text text-anchor="start" x="1138.5" y="-260.8" font-family="Helvetica,sans-Serif" font-size="14.00">samples = 50</text>
<text text-anchor="start" x="1132.5" y="-245.8" font-family="Helvetica,sans-Serif" font-size="14.00">value = [24, 26]</text>
<text text-anchor="start" x="1129.5" y="-230.8" font-family="Helvetica,sans-Serif" font-size="14.00">class = Decease</text>
</g>
<!-- 14&#45;&gt;15 -->
<g id="edge15" class="edge">
<title>14&#45;&gt;15</title>
<path fill="none" stroke="black" d="M1179.5,-341.91C1179.5,-333.65 1179.5,-324.86 1179.5,-316.3"/>
<polygon fill="black" stroke="black" points="1183,-316.02 1179.5,-306.02 1176,-316.02 1183,-316.02"/>
</g>
<!-- 22 -->
<g id="node23" class="node">
<title>22</title>
<path fill="#4ea8e8" stroke="black" d="M1582.5,-306C1582.5,-306 1490.5,-306 1490.5,-306 1484.5,-306 1478.5,-300 1478.5,-294 1478.5,-294 1478.5,-235 1478.5,-235 1478.5,-229 1484.5,-223 1490.5,-223 1490.5,-223 1582.5,-223 1582.5,-223 1588.5,-223 1594.5,-229 1594.5,-235 1594.5,-235 1594.5,-294 1594.5,-294 1594.5,-300 1588.5,-306 1582.5,-306"/>
<text text-anchor="start" x="1497" y="-290.8" font-family="Helvetica,sans-Serif" font-size="14.00">restecg ≤ 0.5</text>
<text text-anchor="start" x="1489" y="-275.8" font-family="Helvetica,sans-Serif" font-size="14.00">entropy = 0.459</text>
<text text-anchor="start" x="1495.5" y="-260.8" font-family="Helvetica,sans-Serif" font-size="14.00">samples = 62</text>
<text text-anchor="start" x="1493.5" y="-245.8" font-family="Helvetica,sans-Serif" font-size="14.00">value = [6, 56]</text>
<text text-anchor="start" x="1486.5" y="-230.8" font-family="Helvetica,sans-Serif" font-size="14.00">class = Decease</text>
</g>
<!-- 14&#45;&gt;22 -->
<g id="edge22" class="edge">
<title>14&#45;&gt;22</title>
<path fill="none" stroke="black" d="M1237.65,-363.44C1300.93,-342.7 1401.97,-309.59 1468.77,-287.7"/>
<polygon fill="black" stroke="black" points="1469.96,-290.99 1478.37,-284.55 1467.78,-284.34 1469.96,-290.99"/>
</g>
<!-- 16 -->
<g id="node17" class="node">
<title>16</title>
<path fill="#f1ba92" stroke="black" d="M1159,-187C1159,-187 1046,-187 1046,-187 1040,-187 1034,-181 1034,-175 1034,-175 1034,-116 1034,-116 1034,-110 1040,-104 1046,-104 1046,-104 1159,-104 1159,-104 1165,-104 1171,-110 1171,-116 1171,-116 1171,-175 1171,-175 1171,-181 1165,-187 1159,-187"/>
<text text-anchor="start" x="1070.5" y="-171.8" font-family="Helvetica,sans-Serif" font-size="14.00">age ≤ 40.5</text>
<text text-anchor="start" x="1055" y="-156.8" font-family="Helvetica,sans-Serif" font-size="14.00">entropy = 0.894</text>
<text text-anchor="start" x="1061.5" y="-141.8" font-family="Helvetica,sans-Serif" font-size="14.00">samples = 29</text>
<text text-anchor="start" x="1059.5" y="-126.8" font-family="Helvetica,sans-Serif" font-size="14.00">value = [20, 9]</text>
<text text-anchor="start" x="1042" y="-111.8" font-family="Helvetica,sans-Serif" font-size="14.00">class = No Decease</text>
</g>
<!-- 15&#45;&gt;16 -->
<g id="edge16" class="edge">
<title>15&#45;&gt;16</title>
<path fill="none" stroke="black" d="M1152.79,-222.91C1146.99,-214.1 1140.8,-204.7 1134.82,-195.61"/>
<polygon fill="black" stroke="black" points="1137.59,-193.45 1129.17,-187.02 1131.74,-197.3 1137.59,-193.45"/>
</g>
<!-- 19 -->
<g id="node20" class="node">
<title>19</title>
<path fill="#68b4eb" stroke="black" d="M1303.5,-187C1303.5,-187 1211.5,-187 1211.5,-187 1205.5,-187 1199.5,-181 1199.5,-175 1199.5,-175 1199.5,-116 1199.5,-116 1199.5,-110 1205.5,-104 1211.5,-104 1211.5,-104 1303.5,-104 1303.5,-104 1309.5,-104 1315.5,-110 1315.5,-116 1315.5,-116 1315.5,-175 1315.5,-175 1315.5,-181 1309.5,-187 1303.5,-187"/>
<text text-anchor="start" x="1213" y="-171.8" font-family="Helvetica,sans-Serif" font-size="14.00">oldpeak ≤ 1.55</text>
<text text-anchor="start" x="1210" y="-156.8" font-family="Helvetica,sans-Serif" font-size="14.00">entropy = 0.702</text>
<text text-anchor="start" x="1216.5" y="-141.8" font-family="Helvetica,sans-Serif" font-size="14.00">samples = 21</text>
<text text-anchor="start" x="1214.5" y="-126.8" font-family="Helvetica,sans-Serif" font-size="14.00">value = [4, 17]</text>
<text text-anchor="start" x="1207.5" y="-111.8" font-family="Helvetica,sans-Serif" font-size="14.00">class = Decease</text>
</g>
<!-- 15&#45;&gt;19 -->
<g id="edge19" class="edge">
<title>15&#45;&gt;19</title>
<path fill="none" stroke="black" d="M1206.56,-222.91C1212.43,-214.1 1218.7,-204.7 1224.76,-195.61"/>
<polygon fill="black" stroke="black" points="1227.85,-197.28 1230.49,-187.02 1222.03,-193.4 1227.85,-197.28"/>
</g>
<!-- 17 -->
<g id="node18" class="node">
<title>17</title>
<path fill="#399de5" stroke="black" d="M1003.5,-68C1003.5,-68 911.5,-68 911.5,-68 905.5,-68 899.5,-62 899.5,-56 899.5,-56 899.5,-12 899.5,-12 899.5,-6 905.5,0 911.5,0 911.5,0 1003.5,0 1003.5,0 1009.5,0 1015.5,-6 1015.5,-12 1015.5,-12 1015.5,-56 1015.5,-56 1015.5,-62 1009.5,-68 1003.5,-68"/>
<text text-anchor="start" x="917.5" y="-52.8" font-family="Helvetica,sans-Serif" font-size="14.00">entropy = 0.0</text>
<text text-anchor="start" x="920" y="-37.8" font-family="Helvetica,sans-Serif" font-size="14.00">samples = 2</text>
<text text-anchor="start" x="918" y="-22.8" font-family="Helvetica,sans-Serif" font-size="14.00">value = [0, 2]</text>
<text text-anchor="start" x="907.5" y="-7.8" font-family="Helvetica,sans-Serif" font-size="14.00">class = Decease</text>
</g>
<!-- 16&#45;&gt;17 -->
<g id="edge17" class="edge">
<title>16&#45;&gt;17</title>
<path fill="none" stroke="black" d="M1048.51,-103.73C1035.83,-94.15 1022.33,-83.96 1009.73,-74.44"/>
<polygon fill="black" stroke="black" points="1011.68,-71.53 1001.6,-68.3 1007.47,-77.12 1011.68,-71.53"/>
</g>
<!-- 18 -->
<g id="node19" class="node">
<title>18</title>
<path fill="#eead7e" stroke="black" d="M1159,-68C1159,-68 1046,-68 1046,-68 1040,-68 1034,-62 1034,-56 1034,-56 1034,-12 1034,-12 1034,-6 1040,0 1046,0 1046,0 1159,0 1159,0 1165,0 1171,-6 1171,-12 1171,-12 1171,-56 1171,-56 1171,-62 1165,-68 1159,-68"/>
<text text-anchor="start" x="1055" y="-52.8" font-family="Helvetica,sans-Serif" font-size="14.00">entropy = 0.826</text>
<text text-anchor="start" x="1061.5" y="-37.8" font-family="Helvetica,sans-Serif" font-size="14.00">samples = 27</text>
<text text-anchor="start" x="1059.5" y="-22.8" font-family="Helvetica,sans-Serif" font-size="14.00">value = [20, 7]</text>
<text text-anchor="start" x="1042" y="-7.8" font-family="Helvetica,sans-Serif" font-size="14.00">class = No Decease</text>
</g>
<!-- 16&#45;&gt;18 -->
<g id="edge18" class="edge">
<title>16&#45;&gt;18</title>
<path fill="none" stroke="black" d="M1102.5,-103.73C1102.5,-95.52 1102.5,-86.86 1102.5,-78.56"/>
<polygon fill="black" stroke="black" points="1106,-78.3 1102.5,-68.3 1099,-78.3 1106,-78.3"/>
</g>
<!-- 20 -->
<g id="node21" class="node">
<title>20</title>
<path fill="#f8e0ce" stroke="black" d="M1314,-68C1314,-68 1201,-68 1201,-68 1195,-68 1189,-62 1189,-56 1189,-56 1189,-12 1189,-12 1189,-6 1195,0 1201,0 1201,0 1314,0 1314,0 1320,0 1326,-6 1326,-12 1326,-12 1326,-56 1326,-56 1326,-62 1320,-68 1314,-68"/>
<text text-anchor="start" x="1210" y="-52.8" font-family="Helvetica,sans-Serif" font-size="14.00">entropy = 0.985</text>
<text text-anchor="start" x="1220" y="-37.8" font-family="Helvetica,sans-Serif" font-size="14.00">samples = 7</text>
<text text-anchor="start" x="1218" y="-22.8" font-family="Helvetica,sans-Serif" font-size="14.00">value = [4, 3]</text>
<text text-anchor="start" x="1197" y="-7.8" font-family="Helvetica,sans-Serif" font-size="14.00">class = No Decease</text>
</g>
<!-- 19&#45;&gt;20 -->
<g id="edge20" class="edge">
<title>19&#45;&gt;20</title>
<path fill="none" stroke="black" d="M1257.5,-103.73C1257.5,-95.52 1257.5,-86.86 1257.5,-78.56"/>
<polygon fill="black" stroke="black" points="1261,-78.3 1257.5,-68.3 1254,-78.3 1261,-78.3"/>
</g>
<!-- 21 -->
<g id="node22" class="node">
<title>21</title>
<path fill="#399de5" stroke="black" d="M1448.5,-68C1448.5,-68 1356.5,-68 1356.5,-68 1350.5,-68 1344.5,-62 1344.5,-56 1344.5,-56 1344.5,-12 1344.5,-12 1344.5,-6 1350.5,0 1356.5,0 1356.5,0 1448.5,0 1448.5,0 1454.5,0 1460.5,-6 1460.5,-12 1460.5,-12 1460.5,-56 1460.5,-56 1460.5,-62 1454.5,-68 1448.5,-68"/>
<text text-anchor="start" x="1362.5" y="-52.8" font-family="Helvetica,sans-Serif" font-size="14.00">entropy = 0.0</text>
<text text-anchor="start" x="1361.5" y="-37.8" font-family="Helvetica,sans-Serif" font-size="14.00">samples = 14</text>
<text text-anchor="start" x="1359.5" y="-22.8" font-family="Helvetica,sans-Serif" font-size="14.00">value = [0, 14]</text>
<text text-anchor="start" x="1352.5" y="-7.8" font-family="Helvetica,sans-Serif" font-size="14.00">class = Decease</text>
</g>
<!-- 19&#45;&gt;21 -->
<g id="edge21" class="edge">
<title>19&#45;&gt;21</title>
<path fill="none" stroke="black" d="M1311.49,-103.73C1324.17,-94.15 1337.67,-83.96 1350.27,-74.44"/>
<polygon fill="black" stroke="black" points="1352.53,-77.12 1358.4,-68.3 1348.32,-71.53 1352.53,-77.12"/>
</g>
<!-- 23 -->
<g id="node24" class="node">
<title>23</title>
<path fill="#6db7ec" stroke="black" d="M1582.5,-187C1582.5,-187 1490.5,-187 1490.5,-187 1484.5,-187 1478.5,-181 1478.5,-175 1478.5,-175 1478.5,-116 1478.5,-116 1478.5,-110 1484.5,-104 1490.5,-104 1490.5,-104 1582.5,-104 1582.5,-104 1588.5,-104 1594.5,-110 1594.5,-116 1594.5,-116 1594.5,-175 1594.5,-175 1594.5,-181 1588.5,-187 1582.5,-187"/>
<text text-anchor="start" x="1495.5" y="-171.8" font-family="Helvetica,sans-Serif" font-size="14.00">oldpeak ≤ 1.1</text>
<text text-anchor="start" x="1489" y="-156.8" font-family="Helvetica,sans-Serif" font-size="14.00">entropy = 0.736</text>
<text text-anchor="start" x="1495.5" y="-141.8" font-family="Helvetica,sans-Serif" font-size="14.00">samples = 29</text>
<text text-anchor="start" x="1493.5" y="-126.8" font-family="Helvetica,sans-Serif" font-size="14.00">value = [6, 23]</text>
<text text-anchor="start" x="1486.5" y="-111.8" font-family="Helvetica,sans-Serif" font-size="14.00">class = Decease</text>
</g>
<!-- 22&#45;&gt;23 -->
<g id="edge23" class="edge">
<title>22&#45;&gt;23</title>
<path fill="none" stroke="black" d="M1536.5,-222.91C1536.5,-214.65 1536.5,-205.86 1536.5,-197.3"/>
<polygon fill="black" stroke="black" points="1540,-197.02 1536.5,-187.02 1533,-197.02 1540,-197.02"/>
</g>
<!-- 26 -->
<g id="node27" class="node">
<title>26</title>
<path fill="#399de5" stroke="black" d="M1716.5,-179.5C1716.5,-179.5 1624.5,-179.5 1624.5,-179.5 1618.5,-179.5 1612.5,-173.5 1612.5,-167.5 1612.5,-167.5 1612.5,-123.5 1612.5,-123.5 1612.5,-117.5 1618.5,-111.5 1624.5,-111.5 1624.5,-111.5 1716.5,-111.5 1716.5,-111.5 1722.5,-111.5 1728.5,-117.5 1728.5,-123.5 1728.5,-123.5 1728.5,-167.5 1728.5,-167.5 1728.5,-173.5 1722.5,-179.5 1716.5,-179.5"/>
<text text-anchor="start" x="1630.5" y="-164.3" font-family="Helvetica,sans-Serif" font-size="14.00">entropy = 0.0</text>
<text text-anchor="start" x="1629.5" y="-149.3" font-family="Helvetica,sans-Serif" font-size="14.00">samples = 33</text>
<text text-anchor="start" x="1627.5" y="-134.3" font-family="Helvetica,sans-Serif" font-size="14.00">value = [0, 33]</text>
<text text-anchor="start" x="1620.5" y="-119.3" font-family="Helvetica,sans-Serif" font-size="14.00">class = Decease</text>
</g>
<!-- 22&#45;&gt;26 -->
<g id="edge26" class="edge">
<title>22&#45;&gt;26</title>
<path fill="none" stroke="black" d="M1582.99,-222.91C1596.51,-211.1 1611.27,-198.22 1624.75,-186.45"/>
<polygon fill="black" stroke="black" points="1627.28,-188.88 1632.51,-179.67 1622.68,-183.61 1627.28,-188.88"/>
</g>
<!-- 24 -->
<g id="node25" class="node">
<title>24</title>
<path fill="#b5daf5" stroke="black" d="M1582.5,-68C1582.5,-68 1490.5,-68 1490.5,-68 1484.5,-68 1478.5,-62 1478.5,-56 1478.5,-56 1478.5,-12 1478.5,-12 1478.5,-6 1484.5,0 1490.5,0 1490.5,0 1582.5,0 1582.5,0 1588.5,0 1594.5,-6 1594.5,-12 1594.5,-12 1594.5,-56 1594.5,-56 1594.5,-62 1588.5,-68 1582.5,-68"/>
<text text-anchor="start" x="1489" y="-52.8" font-family="Helvetica,sans-Serif" font-size="14.00">entropy = 0.961</text>
<text text-anchor="start" x="1495.5" y="-37.8" font-family="Helvetica,sans-Serif" font-size="14.00">samples = 13</text>
<text text-anchor="start" x="1497" y="-22.8" font-family="Helvetica,sans-Serif" font-size="14.00">value = [5, 8]</text>
<text text-anchor="start" x="1486.5" y="-7.8" font-family="Helvetica,sans-Serif" font-size="14.00">class = Decease</text>
</g>
<!-- 23&#45;&gt;24 -->
<g id="edge24" class="edge">
<title>23&#45;&gt;24</title>
<path fill="none" stroke="black" d="M1536.5,-103.73C1536.5,-95.52 1536.5,-86.86 1536.5,-78.56"/>
<polygon fill="black" stroke="black" points="1540,-78.3 1536.5,-68.3 1533,-78.3 1540,-78.3"/>
</g>
<!-- 25 -->
<g id="node26" class="node">
<title>25</title>
<path fill="#46a4e7" stroke="black" d="M1716.5,-68C1716.5,-68 1624.5,-68 1624.5,-68 1618.5,-68 1612.5,-62 1612.5,-56 1612.5,-56 1612.5,-12 1612.5,-12 1612.5,-6 1618.5,0 1624.5,0 1624.5,0 1716.5,0 1716.5,0 1722.5,0 1728.5,-6 1728.5,-12 1728.5,-12 1728.5,-56 1728.5,-56 1728.5,-62 1722.5,-68 1716.5,-68"/>
<text text-anchor="start" x="1623" y="-52.8" font-family="Helvetica,sans-Serif" font-size="14.00">entropy = 0.337</text>
<text text-anchor="start" x="1629.5" y="-37.8" font-family="Helvetica,sans-Serif" font-size="14.00">samples = 16</text>
<text text-anchor="start" x="1627.5" y="-22.8" font-family="Helvetica,sans-Serif" font-size="14.00">value = [1, 15]</text>
<text text-anchor="start" x="1620.5" y="-7.8" font-family="Helvetica,sans-Serif" font-size="14.00">class = Decease</text>
</g>
<!-- 23&#45;&gt;25 -->
<g id="edge25" class="edge">
<title>23&#45;&gt;25</title>
<path fill="none" stroke="black" d="M1586.4,-103.73C1598,-94.24 1610.35,-84.16 1621.9,-74.72"/>
<polygon fill="black" stroke="black" points="1624.22,-77.34 1629.75,-68.3 1619.79,-71.92 1624.22,-77.34"/>
</g>
</g>
</svg>
