<?xml version="1.0" encoding="UTF-8" standalone="no"?>
<!DOCTYPE svg PUBLIC "-//W3C//DTD SVG 1.1//EN"
 "http://www.w3.org/Graphics/SVG/1.1/DTD/svg11.dtd">
<!-- Generated by graphviz version 2.50.0 (0)
 -->
<!-- Title: Tree Pages: 1 -->
<svg width="590pt" height="344pt"
 viewBox="0.00 0.00 589.50 344.00" xmlns="http://www.w3.org/2000/svg" xmlns:xlink="http://www.w3.org/1999/xlink">
<g id="graph0" class="graph" transform="scale(1 1) rotate(0) translate(4 340)">
<title>Tree</title>
<polygon fill="white" stroke="transparent" points="-4,4 -4,-340 585.5,-340 585.5,4 -4,4"/>
<text text-anchor="middle" x="290.75" y="-316" font-family="Times New Roman,serif" font-size="20.00">Max Depth: 2 &#45; Accuracy: 0.7500</text>
<!-- 0 -->
<g id="node1" class="node">
<title>0</title>
<path fill="#fbece2" stroke="black" d="M362,-306C362,-306 239,-306 239,-306 233,-306 227,-300 227,-294 227,-294 227,-235 227,-235 227,-229 233,-223 239,-223 239,-223 362,-223 362,-223 368,-223 374,-229 374,-235 374,-235 374,-294 374,-294 374,-300 368,-306 362,-306"/>
<text text-anchor="start" x="276" y="-290.8" font-family="Helvetica,sans-Serif" font-size="14.00">cp ≤ 3.5</text>
<text text-anchor="start" x="253" y="-275.8" font-family="Helvetica,sans-Serif" font-size="14.00">entropy = 0.995</text>
<text text-anchor="start" x="255.5" y="-260.8" font-family="Helvetica,sans-Serif" font-size="14.00">samples = 237</text>
<text text-anchor="start" x="235" y="-245.8" font-family="Helvetica,sans-Serif" font-size="14.00">value = [128.0, 109.0]</text>
<text text-anchor="start" x="240" y="-230.8" font-family="Helvetica,sans-Serif" font-size="14.00">class = No Decease</text>
</g>
<!-- 1 -->
<g id="node2" class="node">
<title>1</title>
<path fill="#eca36f" stroke="black" d="M280,-187C280,-187 167,-187 167,-187 161,-187 155,-181 155,-175 155,-175 155,-116 155,-116 155,-110 161,-104 167,-104 167,-104 280,-104 280,-104 286,-104 292,-110 292,-116 292,-116 292,-175 292,-175 292,-181 286,-187 280,-187"/>
<text text-anchor="start" x="191.5" y="-171.8" font-family="Helvetica,sans-Serif" font-size="14.00">age ≤ 56.5</text>
<text text-anchor="start" x="179.5" y="-156.8" font-family="Helvetica,sans-Serif" font-size="14.00">entropy = 0.75</text>
<text text-anchor="start" x="178.5" y="-141.8" font-family="Helvetica,sans-Serif" font-size="14.00">samples = 126</text>
<text text-anchor="start" x="176.5" y="-126.8" font-family="Helvetica,sans-Serif" font-size="14.00">value = [99, 27]</text>
<text text-anchor="start" x="163" y="-111.8" font-family="Helvetica,sans-Serif" font-size="14.00">class = No Decease</text>
</g>
<!-- 0&#45;&gt;1 -->
<g id="edge1" class="edge">
<title>0&#45;&gt;1</title>
<path fill="none" stroke="black" d="M273.79,-222.91C267.99,-214.1 261.8,-204.7 255.82,-195.61"/>
<polygon fill="black" stroke="black" points="258.59,-193.45 250.17,-187.02 252.74,-197.3 258.59,-193.45"/>
<text text-anchor="middle" x="245.12" y="-207.81" font-family="Helvetica,sans-Serif" font-size="14.00">True</text>
</g>
<!-- 4 -->
<g id="node5" class="node">
<title>4</title>
<path fill="#7fc0ee" stroke="black" d="M424.5,-187C424.5,-187 332.5,-187 332.5,-187 326.5,-187 320.5,-181 320.5,-175 320.5,-175 320.5,-116 320.5,-116 320.5,-110 326.5,-104 332.5,-104 332.5,-104 424.5,-104 424.5,-104 430.5,-104 436.5,-110 436.5,-116 436.5,-116 436.5,-175 436.5,-175 436.5,-181 430.5,-187 424.5,-187"/>
<text text-anchor="start" x="350.5" y="-171.8" font-family="Helvetica,sans-Serif" font-size="14.00">thal ≤ 4.5</text>
<text text-anchor="start" x="331" y="-156.8" font-family="Helvetica,sans-Serif" font-size="14.00">entropy = 0.829</text>
<text text-anchor="start" x="334.5" y="-141.8" font-family="Helvetica,sans-Serif" font-size="14.00">samples = 111</text>
<text text-anchor="start" x="331.5" y="-126.8" font-family="Helvetica,sans-Serif" font-size="14.00">value = [29, 82]</text>
<text text-anchor="start" x="328.5" y="-111.8" font-family="Helvetica,sans-Serif" font-size="14.00">class = Decease</text>
</g>
<!-- 0&#45;&gt;4 -->
<g id="edge4" class="edge">
<title>0&#45;&gt;4</title>
<path fill="none" stroke="black" d="M327.56,-222.91C333.43,-214.1 339.7,-204.7 345.76,-195.61"/>
<polygon fill="black" stroke="black" points="348.85,-197.28 351.49,-187.02 343.03,-193.4 348.85,-197.28"/>
<text text-anchor="middle" x="356.39" y="-207.84" font-family="Helvetica,sans-Serif" font-size="14.00">False</text>
</g>
<!-- 2 -->
<g id="node3" class="node">
<title>2</title>
<path fill="#e88d4c" stroke="black" d="M125,-68C125,-68 12,-68 12,-68 6,-68 0,-62 0,-56 0,-56 0,-12 0,-12 0,-6 6,0 12,0 12,0 125,0 125,0 131,0 137,-6 137,-12 137,-12 137,-56 137,-56 137,-62 131,-68 125,-68"/>
<text text-anchor="start" x="21" y="-52.8" font-family="Helvetica,sans-Serif" font-size="14.00">entropy = 0.432</text>
<text text-anchor="start" x="27.5" y="-37.8" font-family="Helvetica,sans-Serif" font-size="14.00">samples = 79</text>
<text text-anchor="start" x="25.5" y="-22.8" font-family="Helvetica,sans-Serif" font-size="14.00">value = [72, 7]</text>
<text text-anchor="start" x="8" y="-7.8" font-family="Helvetica,sans-Serif" font-size="14.00">class = No Decease</text>
</g>
<!-- 1&#45;&gt;2 -->
<g id="edge2" class="edge">
<title>1&#45;&gt;2</title>
<path fill="none" stroke="black" d="M165.78,-103.73C152.1,-94.06 137.53,-83.77 123.95,-74.17"/>
<polygon fill="black" stroke="black" points="125.82,-71.21 115.64,-68.3 121.78,-76.93 125.82,-71.21"/>
</g>
<!-- 3 -->
<g id="node4" class="node">
<title>3</title>
<path fill="#f8decc" stroke="black" d="M280,-68C280,-68 167,-68 167,-68 161,-68 155,-62 155,-56 155,-56 155,-12 155,-12 155,-6 161,0 167,0 167,0 280,0 280,0 286,0 292,-6 292,-12 292,-12 292,-56 292,-56 292,-62 286,-68 280,-68"/>
<text text-anchor="start" x="176" y="-52.8" font-family="Helvetica,sans-Serif" font-size="14.00">entropy = 0.984</text>
<text text-anchor="start" x="182.5" y="-37.8" font-family="Helvetica,sans-Serif" font-size="14.00">samples = 47</text>
<text text-anchor="start" x="165.5" y="-22.8" font-family="Helvetica,sans-Serif" font-size="14.00">value = [27.0, 20.0]</text>
<text text-anchor="start" x="163" y="-7.8" font-family="Helvetica,sans-Serif" font-size="14.00">class = No Decease</text>
</g>
<!-- 1&#45;&gt;3 -->
<g id="edge3" class="edge">
<title>1&#45;&gt;3</title>
<path fill="none" stroke="black" d="M223.5,-103.73C223.5,-95.52 223.5,-86.86 223.5,-78.56"/>
<polygon fill="black" stroke="black" points="227,-78.3 223.5,-68.3 220,-78.3 227,-78.3"/>
</g>
<!-- 5 -->
<g id="node6" class="node">
<title>5</title>
<path fill="#fbeee4" stroke="black" d="M435,-68C435,-68 322,-68 322,-68 316,-68 310,-62 310,-56 310,-56 310,-12 310,-12 310,-6 316,0 322,0 322,0 435,0 435,0 441,0 447,-6 447,-12 447,-12 447,-56 447,-56 447,-62 441,-68 435,-68"/>
<text text-anchor="start" x="331" y="-52.8" font-family="Helvetica,sans-Serif" font-size="14.00">entropy = 0.996</text>
<text text-anchor="start" x="337.5" y="-37.8" font-family="Helvetica,sans-Serif" font-size="14.00">samples = 41</text>
<text text-anchor="start" x="331.5" y="-22.8" font-family="Helvetica,sans-Serif" font-size="14.00">value = [22, 19]</text>
<text text-anchor="start" x="318" y="-7.8" font-family="Helvetica,sans-Serif" font-size="14.00">class = No Decease</text>
</g>
<!-- 4&#45;&gt;5 -->
<g id="edge5" class="edge">
<title>4&#45;&gt;5</title>
<path fill="none" stroke="black" d="M378.5,-103.73C378.5,-95.52 378.5,-86.86 378.5,-78.56"/>
<polygon fill="black" stroke="black" points="382,-78.3 378.5,-68.3 375,-78.3 382,-78.3"/>
</g>
<!-- 6 -->
<g id="node7" class="node">
<title>6</title>
<path fill="#4fa8e8" stroke="black" d="M569.5,-68C569.5,-68 477.5,-68 477.5,-68 471.5,-68 465.5,-62 465.5,-56 465.5,-56 465.5,-12 465.5,-12 465.5,-6 471.5,0 477.5,0 477.5,0 569.5,0 569.5,0 575.5,0 581.5,-6 581.5,-12 581.5,-12 581.5,-56 581.5,-56 581.5,-62 575.5,-68 569.5,-68"/>
<text text-anchor="start" x="476" y="-52.8" font-family="Helvetica,sans-Serif" font-size="14.00">entropy = 0.469</text>
<text text-anchor="start" x="482.5" y="-37.8" font-family="Helvetica,sans-Serif" font-size="14.00">samples = 70</text>
<text text-anchor="start" x="480.5" y="-22.8" font-family="Helvetica,sans-Serif" font-size="14.00">value = [7, 63]</text>
<text text-anchor="start" x="473.5" y="-7.8" font-family="Helvetica,sans-Serif" font-size="14.00">class = Decease</text>
</g>
<!-- 4&#45;&gt;6 -->
<g id="edge6" class="edge">
<title>4&#45;&gt;6</title>
<path fill="none" stroke="black" d="M432.49,-103.73C445.17,-94.15 458.67,-83.96 471.27,-74.44"/>
<polygon fill="black" stroke="black" points="473.53,-77.12 479.4,-68.3 469.32,-71.53 473.53,-77.12"/>
</g>
</g>
</svg>
