<?xml version="1.0" encoding="UTF-8" standalone="no"?>
<!DOCTYPE svg PUBLIC "-//W3C//DTD SVG 1.1//EN"
 "http://www.w3.org/Graphics/SVG/1.1/DTD/svg11.dtd">
<!-- Generated by graphviz version 2.50.0 (0)
 -->
<!-- Title: Tree Pages: 1 -->
<svg width="2047pt" height="671pt"
 viewBox="0.00 0.00 2046.50 671.00" xmlns="http://www.w3.org/2000/svg" xmlns:xlink="http://www.w3.org/1999/xlink">
<g id="graph0" class="graph" transform="scale(1 1) rotate(0) translate(4 667)">
<title>Tree</title>
<polygon fill="white" stroke="transparent" points="-4,4 -4,-667 2042.5,-667 2042.5,4 -4,4"/>
<!-- 0 -->
<g id="node1" class="node">
<title>0</title>
<path fill="#fbece2" stroke="black" d="M1184,-663C1184,-663 1061,-663 1061,-663 1055,-663 1049,-657 1049,-651 1049,-651 1049,-592 1049,-592 1049,-586 1055,-580 1061,-580 1061,-580 1184,-580 1184,-580 1190,-580 1196,-586 1196,-592 1196,-592 1196,-651 1196,-651 1196,-657 1190,-663 1184,-663"/>
<text text-anchor="start" x="1094.5" y="-647.8" font-family="Helvetica,sans-Serif" font-size="14.00">thal ≤ 4.5</text>
<text text-anchor="start" x="1075" y="-632.8" font-family="Helvetica,sans-Serif" font-size="14.00">entropy = 0.995</text>
<text text-anchor="start" x="1077.5" y="-617.8" font-family="Helvetica,sans-Serif" font-size="14.00">samples = 237</text>
<text text-anchor="start" x="1057" y="-602.8" font-family="Helvetica,sans-Serif" font-size="14.00">value = [128.0, 109.0]</text>
<text text-anchor="start" x="1062" y="-587.8" font-family="Helvetica,sans-Serif" font-size="14.00">class = No Decease</text>
</g>
<!-- 1 -->
<g id="node2" class="node">
<title>1</title>
<path fill="#eca16b" stroke="black" d="M962,-544C962,-544 849,-544 849,-544 843,-544 837,-538 837,-532 837,-532 837,-473 837,-473 837,-467 843,-461 849,-461 849,-461 962,-461 962,-461 968,-461 974,-467 974,-473 974,-473 974,-532 974,-532 974,-538 968,-544 962,-544"/>
<text text-anchor="start" x="881" y="-528.8" font-family="Helvetica,sans-Serif" font-size="14.00">cp ≤ 3.5</text>
<text text-anchor="start" x="858" y="-513.8" font-family="Helvetica,sans-Serif" font-size="14.00">entropy = 0.728</text>
<text text-anchor="start" x="860.5" y="-498.8" font-family="Helvetica,sans-Serif" font-size="14.00">samples = 128</text>
<text text-anchor="start" x="855" y="-483.8" font-family="Helvetica,sans-Serif" font-size="14.00">value = [102, 26]</text>
<text text-anchor="start" x="845" y="-468.8" font-family="Helvetica,sans-Serif" font-size="14.00">class = No Decease</text>
</g>
<!-- 0&#45;&gt;1 -->
<g id="edge1" class="edge">
<title>0&#45;&gt;1</title>
<path fill="none" stroke="black" d="M1048.73,-580.73C1027.66,-569.36 1004.63,-556.95 983.33,-545.46"/>
<polygon fill="black" stroke="black" points="984.77,-542.27 974.31,-540.6 981.45,-548.43 984.77,-542.27"/>
<text text-anchor="middle" x="981.48" y="-560.85" font-family="Helvetica,sans-Serif" font-size="14.00">True</text>
</g>
<!-- 24 -->
<g id="node25" class="node">
<title>24</title>
<path fill="#77bced" stroke="black" d="M1380.5,-544C1380.5,-544 1288.5,-544 1288.5,-544 1282.5,-544 1276.5,-538 1276.5,-532 1276.5,-532 1276.5,-473 1276.5,-473 1276.5,-467 1282.5,-461 1288.5,-461 1288.5,-461 1380.5,-461 1380.5,-461 1386.5,-461 1392.5,-467 1392.5,-473 1392.5,-473 1392.5,-532 1392.5,-532 1392.5,-538 1386.5,-544 1380.5,-544"/>
<text text-anchor="start" x="1290" y="-528.8" font-family="Helvetica,sans-Serif" font-size="14.00">oldpeak ≤ 1.95</text>
<text text-anchor="start" x="1287" y="-513.8" font-family="Helvetica,sans-Serif" font-size="14.00">entropy = 0.793</text>
<text text-anchor="start" x="1289.5" y="-498.8" font-family="Helvetica,sans-Serif" font-size="14.00">samples = 109</text>
<text text-anchor="start" x="1287.5" y="-483.8" font-family="Helvetica,sans-Serif" font-size="14.00">value = [26, 83]</text>
<text text-anchor="start" x="1284.5" y="-468.8" font-family="Helvetica,sans-Serif" font-size="14.00">class = Decease</text>
</g>
<!-- 0&#45;&gt;24 -->
<g id="edge24" class="edge">
<title>0&#45;&gt;24</title>
<path fill="none" stroke="black" d="M1196.05,-579.91C1219.28,-567.09 1244.81,-553 1267.55,-540.45"/>
<polygon fill="black" stroke="black" points="1269.38,-543.44 1276.44,-535.54 1266,-537.31 1269.38,-543.44"/>
<text text-anchor="middle" x="1269.51" y="-555.86" font-family="Helvetica,sans-Serif" font-size="14.00">False</text>
</g>
<!-- 2 -->
<g id="node3" class="node">
<title>2</title>
<path fill="#e88d4c" stroke="black" d="M503,-425C503,-425 390,-425 390,-425 384,-425 378,-419 378,-413 378,-413 378,-354 378,-354 378,-348 384,-342 390,-342 390,-342 503,-342 503,-342 509,-342 515,-348 515,-354 515,-354 515,-413 515,-413 515,-419 509,-425 503,-425"/>
<text text-anchor="start" x="422" y="-409.8" font-family="Helvetica,sans-Serif" font-size="14.00">cp ≤ 1.5</text>
<text text-anchor="start" x="399" y="-394.8" font-family="Helvetica,sans-Serif" font-size="14.00">entropy = 0.433</text>
<text text-anchor="start" x="405.5" y="-379.8" font-family="Helvetica,sans-Serif" font-size="14.00">samples = 90</text>
<text text-anchor="start" x="403.5" y="-364.8" font-family="Helvetica,sans-Serif" font-size="14.00">value = [82, 8]</text>
<text text-anchor="start" x="386" y="-349.8" font-family="Helvetica,sans-Serif" font-size="14.00">class = No Decease</text>
</g>
<!-- 1&#45;&gt;2 -->
<g id="edge2" class="edge">
<title>1&#45;&gt;2</title>
<path fill="none" stroke="black" d="M836.78,-483.98C753.34,-462.71 612.92,-426.92 525.21,-404.56"/>
<polygon fill="black" stroke="black" points="525.87,-401.12 515.31,-402.04 524.14,-407.9 525.87,-401.12"/>
</g>
<!-- 13 -->
<g id="node14" class="node">
<title>13</title>
<path fill="#fcf2eb" stroke="black" d="M962,-425C962,-425 849,-425 849,-425 843,-425 837,-419 837,-413 837,-413 837,-354 837,-354 837,-348 843,-342 849,-342 849,-342 962,-342 962,-342 968,-342 974,-348 974,-354 974,-354 974,-413 974,-413 974,-419 968,-425 962,-425"/>
<text text-anchor="start" x="881" y="-409.8" font-family="Helvetica,sans-Serif" font-size="14.00">ca ≤ 0.5</text>
<text text-anchor="start" x="858" y="-394.8" font-family="Helvetica,sans-Serif" font-size="14.00">entropy = 0.998</text>
<text text-anchor="start" x="864.5" y="-379.8" font-family="Helvetica,sans-Serif" font-size="14.00">samples = 38</text>
<text text-anchor="start" x="858.5" y="-364.8" font-family="Helvetica,sans-Serif" font-size="14.00">value = [20, 18]</text>
<text text-anchor="start" x="845" y="-349.8" font-family="Helvetica,sans-Serif" font-size="14.00">class = No Decease</text>
</g>
<!-- 1&#45;&gt;13 -->
<g id="edge13" class="edge">
<title>1&#45;&gt;13</title>
<path fill="none" stroke="black" d="M905.5,-460.91C905.5,-452.65 905.5,-443.86 905.5,-435.3"/>
<polygon fill="black" stroke="black" points="909,-435.02 905.5,-425.02 902,-435.02 909,-435.02"/>
</g>
<!-- 3 -->
<g id="node4" class="node">
<title>3</title>
<path fill="#f4c9aa" stroke="black" d="M270,-306C270,-306 157,-306 157,-306 151,-306 145,-300 145,-294 145,-294 145,-235 145,-235 145,-229 151,-223 157,-223 157,-223 270,-223 270,-223 276,-223 282,-229 282,-235 282,-235 282,-294 282,-294 282,-300 276,-306 270,-306"/>
<text text-anchor="start" x="181.5" y="-290.8" font-family="Helvetica,sans-Serif" font-size="14.00">age ≤ 58.5</text>
<text text-anchor="start" x="166" y="-275.8" font-family="Helvetica,sans-Serif" font-size="14.00">entropy = 0.946</text>
<text text-anchor="start" x="172.5" y="-260.8" font-family="Helvetica,sans-Serif" font-size="14.00">samples = 11</text>
<text text-anchor="start" x="174" y="-245.8" font-family="Helvetica,sans-Serif" font-size="14.00">value = [7, 4]</text>
<text text-anchor="start" x="153" y="-230.8" font-family="Helvetica,sans-Serif" font-size="14.00">class = No Decease</text>
</g>
<!-- 2&#45;&gt;3 -->
<g id="edge3" class="edge">
<title>2&#45;&gt;3</title>
<path fill="none" stroke="black" d="M377.85,-348.03C350.6,-334.34 319.12,-318.53 291.04,-304.44"/>
<polygon fill="black" stroke="black" points="292.57,-301.29 282.06,-299.93 289.43,-307.54 292.57,-301.29"/>
</g>
<!-- 8 -->
<g id="node9" class="node">
<title>8</title>
<path fill="#e68844" stroke="black" d="M503,-306C503,-306 390,-306 390,-306 384,-306 378,-300 378,-294 378,-294 378,-235 378,-235 378,-229 384,-223 390,-223 390,-223 503,-223 503,-223 509,-223 515,-229 515,-235 515,-235 515,-294 515,-294 515,-300 509,-306 503,-306"/>
<text text-anchor="start" x="400" y="-290.8" font-family="Helvetica,sans-Serif" font-size="14.00">thalach ≤ 160.5</text>
<text text-anchor="start" x="399" y="-275.8" font-family="Helvetica,sans-Serif" font-size="14.00">entropy = 0.289</text>
<text text-anchor="start" x="405.5" y="-260.8" font-family="Helvetica,sans-Serif" font-size="14.00">samples = 79</text>
<text text-anchor="start" x="403.5" y="-245.8" font-family="Helvetica,sans-Serif" font-size="14.00">value = [75, 4]</text>
<text text-anchor="start" x="386" y="-230.8" font-family="Helvetica,sans-Serif" font-size="14.00">class = No Decease</text>
</g>
<!-- 2&#45;&gt;8 -->
<g id="edge8" class="edge">
<title>2&#45;&gt;8</title>
<path fill="none" stroke="black" d="M446.5,-341.91C446.5,-333.65 446.5,-324.86 446.5,-316.3"/>
<polygon fill="black" stroke="black" points="450,-316.02 446.5,-306.02 443,-316.02 450,-316.02"/>
</g>
<!-- 4 -->
<g id="node5" class="node">
<title>4</title>
<path fill="#e58139" stroke="black" d="M125,-179.5C125,-179.5 12,-179.5 12,-179.5 6,-179.5 0,-173.5 0,-167.5 0,-167.5 0,-123.5 0,-123.5 0,-117.5 6,-111.5 12,-111.5 12,-111.5 125,-111.5 125,-111.5 131,-111.5 137,-117.5 137,-123.5 137,-123.5 137,-167.5 137,-167.5 137,-173.5 131,-179.5 125,-179.5"/>
<text text-anchor="start" x="28.5" y="-164.3" font-family="Helvetica,sans-Serif" font-size="14.00">entropy = 0.0</text>
<text text-anchor="start" x="31" y="-149.3" font-family="Helvetica,sans-Serif" font-size="14.00">samples = 4</text>
<text text-anchor="start" x="29" y="-134.3" font-family="Helvetica,sans-Serif" font-size="14.00">value = [4, 0]</text>
<text text-anchor="start" x="8" y="-119.3" font-family="Helvetica,sans-Serif" font-size="14.00">class = No Decease</text>
</g>
<!-- 3&#45;&gt;4 -->
<g id="edge4" class="edge">
<title>3&#45;&gt;4</title>
<path fill="none" stroke="black" d="M163.19,-222.91C148.42,-210.99 132.29,-197.98 117.6,-186.12"/>
<polygon fill="black" stroke="black" points="119.58,-183.22 109.6,-179.67 115.19,-188.67 119.58,-183.22"/>
</g>
<!-- 5 -->
<g id="node6" class="node">
<title>5</title>
<path fill="#cee6f8" stroke="black" d="M259.5,-187C259.5,-187 167.5,-187 167.5,-187 161.5,-187 155.5,-181 155.5,-175 155.5,-175 155.5,-116 155.5,-116 155.5,-110 161.5,-104 167.5,-104 167.5,-104 259.5,-104 259.5,-104 265.5,-104 271.5,-110 271.5,-116 271.5,-116 271.5,-175 271.5,-175 271.5,-181 265.5,-187 259.5,-187"/>
<text text-anchor="start" x="165" y="-171.8" font-family="Helvetica,sans-Serif" font-size="14.00">trestbps ≤ 139.0</text>
<text text-anchor="start" x="166" y="-156.8" font-family="Helvetica,sans-Serif" font-size="14.00">entropy = 0.985</text>
<text text-anchor="start" x="176" y="-141.8" font-family="Helvetica,sans-Serif" font-size="14.00">samples = 7</text>
<text text-anchor="start" x="174" y="-126.8" font-family="Helvetica,sans-Serif" font-size="14.00">value = [3, 4]</text>
<text text-anchor="start" x="163.5" y="-111.8" font-family="Helvetica,sans-Serif" font-size="14.00">class = Decease</text>
</g>
<!-- 3&#45;&gt;5 -->
<g id="edge5" class="edge">
<title>3&#45;&gt;5</title>
<path fill="none" stroke="black" d="M213.5,-222.91C213.5,-214.65 213.5,-205.86 213.5,-197.3"/>
<polygon fill="black" stroke="black" points="217,-197.02 213.5,-187.02 210,-197.02 217,-197.02"/>
</g>
<!-- 6 -->
<g id="node7" class="node">
<title>6</title>
<path fill="#399de5" stroke="black" d="M114.5,-68C114.5,-68 22.5,-68 22.5,-68 16.5,-68 10.5,-62 10.5,-56 10.5,-56 10.5,-12 10.5,-12 10.5,-6 16.5,0 22.5,0 22.5,0 114.5,0 114.5,0 120.5,0 126.5,-6 126.5,-12 126.5,-12 126.5,-56 126.5,-56 126.5,-62 120.5,-68 114.5,-68"/>
<text text-anchor="start" x="28.5" y="-52.8" font-family="Helvetica,sans-Serif" font-size="14.00">entropy = 0.0</text>
<text text-anchor="start" x="31" y="-37.8" font-family="Helvetica,sans-Serif" font-size="14.00">samples = 3</text>
<text text-anchor="start" x="29" y="-22.8" font-family="Helvetica,sans-Serif" font-size="14.00">value = [0, 3]</text>
<text text-anchor="start" x="18.5" y="-7.8" font-family="Helvetica,sans-Serif" font-size="14.00">class = Decease</text>
</g>
<!-- 5&#45;&gt;6 -->
<g id="edge6" class="edge">
<title>5&#45;&gt;6</title>
<path fill="none" stroke="black" d="M159.51,-103.73C146.83,-94.15 133.33,-83.96 120.73,-74.44"/>
<polygon fill="black" stroke="black" points="122.68,-71.53 112.6,-68.3 118.47,-77.12 122.68,-71.53"/>
</g>
<!-- 7 -->
<g id="node8" class="node">
<title>7</title>
<path fill="#eeab7b" stroke="black" d="M270,-68C270,-68 157,-68 157,-68 151,-68 145,-62 145,-56 145,-56 145,-12 145,-12 145,-6 151,0 157,0 157,0 270,0 270,0 276,0 282,-6 282,-12 282,-12 282,-56 282,-56 282,-62 276,-68 270,-68"/>
<text text-anchor="start" x="166.5" y="-52.8" font-family="Helvetica,sans-Serif" font-size="14.00">entropy = 0.811</text>
<text text-anchor="start" x="176" y="-37.8" font-family="Helvetica,sans-Serif" font-size="14.00">samples = 4</text>
<text text-anchor="start" x="174" y="-22.8" font-family="Helvetica,sans-Serif" font-size="14.00">value = [3, 1]</text>
<text text-anchor="start" x="153" y="-7.8" font-family="Helvetica,sans-Serif" font-size="14.00">class = No Decease</text>
</g>
<!-- 5&#45;&gt;7 -->
<g id="edge7" class="edge">
<title>5&#45;&gt;7</title>
<path fill="none" stroke="black" d="M213.5,-103.73C213.5,-95.52 213.5,-86.86 213.5,-78.56"/>
<polygon fill="black" stroke="black" points="217,-78.3 213.5,-68.3 210,-78.3 217,-78.3"/>
</g>
<!-- 9 -->
<g id="node10" class="node">
<title>9</title>
<path fill="#e89253" stroke="black" d="M425,-187C425,-187 312,-187 312,-187 306,-187 300,-181 300,-175 300,-175 300,-116 300,-116 300,-110 306,-104 312,-104 312,-104 425,-104 425,-104 431,-104 437,-110 437,-116 437,-116 437,-175 437,-175 437,-181 431,-187 425,-187"/>
<text text-anchor="start" x="327.5" y="-171.8" font-family="Helvetica,sans-Serif" font-size="14.00">oldpeak ≤ 1.7</text>
<text text-anchor="start" x="321" y="-156.8" font-family="Helvetica,sans-Serif" font-size="14.00">entropy = 0.523</text>
<text text-anchor="start" x="327.5" y="-141.8" font-family="Helvetica,sans-Serif" font-size="14.00">samples = 34</text>
<text text-anchor="start" x="325.5" y="-126.8" font-family="Helvetica,sans-Serif" font-size="14.00">value = [30, 4]</text>
<text text-anchor="start" x="308" y="-111.8" font-family="Helvetica,sans-Serif" font-size="14.00">class = No Decease</text>
</g>
<!-- 8&#45;&gt;9 -->
<g id="edge9" class="edge">
<title>8&#45;&gt;9</title>
<path fill="none" stroke="black" d="M419.44,-222.91C413.57,-214.1 407.3,-204.7 401.24,-195.61"/>
<polygon fill="black" stroke="black" points="403.97,-193.4 395.51,-187.02 398.15,-197.28 403.97,-193.4"/>
</g>
<!-- 12 -->
<g id="node13" class="node">
<title>12</title>
<path fill="#e58139" stroke="black" d="M580,-179.5C580,-179.5 467,-179.5 467,-179.5 461,-179.5 455,-173.5 455,-167.5 455,-167.5 455,-123.5 455,-123.5 455,-117.5 461,-111.5 467,-111.5 467,-111.5 580,-111.5 580,-111.5 586,-111.5 592,-117.5 592,-123.5 592,-123.5 592,-167.5 592,-167.5 592,-173.5 586,-179.5 580,-179.5"/>
<text text-anchor="start" x="483.5" y="-164.3" font-family="Helvetica,sans-Serif" font-size="14.00">entropy = 0.0</text>
<text text-anchor="start" x="482.5" y="-149.3" font-family="Helvetica,sans-Serif" font-size="14.00">samples = 45</text>
<text text-anchor="start" x="480.5" y="-134.3" font-family="Helvetica,sans-Serif" font-size="14.00">value = [45, 0]</text>
<text text-anchor="start" x="463" y="-119.3" font-family="Helvetica,sans-Serif" font-size="14.00">class = No Decease</text>
</g>
<!-- 8&#45;&gt;12 -->
<g id="edge12" class="edge">
<title>8&#45;&gt;12</title>
<path fill="none" stroke="black" d="M473.21,-222.91C480.62,-211.65 488.67,-199.42 496.12,-188.11"/>
<polygon fill="black" stroke="black" points="499.1,-189.94 501.67,-179.67 493.25,-186.1 499.1,-189.94"/>
</g>
<!-- 10 -->
<g id="node11" class="node">
<title>10</title>
<path fill="#e78946" stroke="black" d="M425,-68C425,-68 312,-68 312,-68 306,-68 300,-62 300,-56 300,-56 300,-12 300,-12 300,-6 306,0 312,0 312,0 425,0 425,0 431,0 437,-6 437,-12 437,-12 437,-56 437,-56 437,-62 431,-68 425,-68"/>
<text text-anchor="start" x="321" y="-52.8" font-family="Helvetica,sans-Serif" font-size="14.00">entropy = 0.337</text>
<text text-anchor="start" x="327.5" y="-37.8" font-family="Helvetica,sans-Serif" font-size="14.00">samples = 32</text>
<text text-anchor="start" x="325.5" y="-22.8" font-family="Helvetica,sans-Serif" font-size="14.00">value = [30, 2]</text>
<text text-anchor="start" x="308" y="-7.8" font-family="Helvetica,sans-Serif" font-size="14.00">class = No Decease</text>
</g>
<!-- 9&#45;&gt;10 -->
<g id="edge10" class="edge">
<title>9&#45;&gt;10</title>
<path fill="none" stroke="black" d="M368.5,-103.73C368.5,-95.52 368.5,-86.86 368.5,-78.56"/>
<polygon fill="black" stroke="black" points="372,-78.3 368.5,-68.3 365,-78.3 372,-78.3"/>
</g>
<!-- 11 -->
<g id="node12" class="node">
<title>11</title>
<path fill="#399de5" stroke="black" d="M559.5,-68C559.5,-68 467.5,-68 467.5,-68 461.5,-68 455.5,-62 455.5,-56 455.5,-56 455.5,-12 455.5,-12 455.5,-6 461.5,0 467.5,0 467.5,0 559.5,0 559.5,0 565.5,0 571.5,-6 571.5,-12 571.5,-12 571.5,-56 571.5,-56 571.5,-62 565.5,-68 559.5,-68"/>
<text text-anchor="start" x="473.5" y="-52.8" font-family="Helvetica,sans-Serif" font-size="14.00">entropy = 0.0</text>
<text text-anchor="start" x="476" y="-37.8" font-family="Helvetica,sans-Serif" font-size="14.00">samples = 2</text>
<text text-anchor="start" x="474" y="-22.8" font-family="Helvetica,sans-Serif" font-size="14.00">value = [0, 2]</text>
<text text-anchor="start" x="463.5" y="-7.8" font-family="Helvetica,sans-Serif" font-size="14.00">class = Decease</text>
</g>
<!-- 9&#45;&gt;11 -->
<g id="edge11" class="edge">
<title>9&#45;&gt;11</title>
<path fill="none" stroke="black" d="M422.49,-103.73C435.17,-94.15 448.67,-83.96 461.27,-74.44"/>
<polygon fill="black" stroke="black" points="463.53,-77.12 469.4,-68.3 459.32,-71.53 463.53,-77.12"/>
</g>
<!-- 14 -->
<g id="node15" class="node">
<title>14</title>
<path fill="#eca470" stroke="black" d="M890,-306C890,-306 777,-306 777,-306 771,-306 765,-300 765,-294 765,-294 765,-235 765,-235 765,-229 771,-223 777,-223 777,-223 890,-223 890,-223 896,-223 902,-229 902,-235 902,-235 902,-294 902,-294 902,-300 896,-306 890,-306"/>
<text text-anchor="start" x="801.5" y="-290.8" font-family="Helvetica,sans-Serif" font-size="14.00">age ≤ 54.0</text>
<text text-anchor="start" x="786" y="-275.8" font-family="Helvetica,sans-Serif" font-size="14.00">entropy = 0.755</text>
<text text-anchor="start" x="792.5" y="-260.8" font-family="Helvetica,sans-Serif" font-size="14.00">samples = 23</text>
<text text-anchor="start" x="790.5" y="-245.8" font-family="Helvetica,sans-Serif" font-size="14.00">value = [18, 5]</text>
<text text-anchor="start" x="773" y="-230.8" font-family="Helvetica,sans-Serif" font-size="14.00">class = No Decease</text>
</g>
<!-- 13&#45;&gt;14 -->
<g id="edge14" class="edge">
<title>13&#45;&gt;14</title>
<path fill="none" stroke="black" d="M880.52,-341.91C875.1,-333.1 869.32,-323.7 863.72,-314.61"/>
<polygon fill="black" stroke="black" points="866.66,-312.7 858.44,-306.02 860.7,-316.37 866.66,-312.7"/>
</g>
<!-- 19 -->
<g id="node20" class="node">
<title>19</title>
<path fill="#57ace9" stroke="black" d="M1024.5,-306C1024.5,-306 932.5,-306 932.5,-306 926.5,-306 920.5,-300 920.5,-294 920.5,-294 920.5,-235 920.5,-235 920.5,-229 926.5,-223 932.5,-223 932.5,-223 1024.5,-223 1024.5,-223 1030.5,-223 1036.5,-229 1036.5,-235 1036.5,-235 1036.5,-294 1036.5,-294 1036.5,-300 1030.5,-306 1024.5,-306"/>
<text text-anchor="start" x="946.5" y="-290.8" font-family="Helvetica,sans-Serif" font-size="14.00">age ≤ 63.5</text>
<text text-anchor="start" x="931" y="-275.8" font-family="Helvetica,sans-Serif" font-size="14.00">entropy = 0.567</text>
<text text-anchor="start" x="937.5" y="-260.8" font-family="Helvetica,sans-Serif" font-size="14.00">samples = 15</text>
<text text-anchor="start" x="935.5" y="-245.8" font-family="Helvetica,sans-Serif" font-size="14.00">value = [2, 13]</text>
<text text-anchor="start" x="928.5" y="-230.8" font-family="Helvetica,sans-Serif" font-size="14.00">class = Decease</text>
</g>
<!-- 13&#45;&gt;19 -->
<g id="edge19" class="edge">
<title>13&#45;&gt;19</title>
<path fill="none" stroke="black" d="M930.83,-341.91C936.32,-333.1 942.19,-323.7 947.86,-314.61"/>
<polygon fill="black" stroke="black" points="950.89,-316.36 953.22,-306.02 944.95,-312.65 950.89,-316.36"/>
</g>
<!-- 15 -->
<g id="node16" class="node">
<title>15</title>
<path fill="#e58139" stroke="black" d="M735,-179.5C735,-179.5 622,-179.5 622,-179.5 616,-179.5 610,-173.5 610,-167.5 610,-167.5 610,-123.5 610,-123.5 610,-117.5 616,-111.5 622,-111.5 622,-111.5 735,-111.5 735,-111.5 741,-111.5 747,-117.5 747,-123.5 747,-123.5 747,-167.5 747,-167.5 747,-173.5 741,-179.5 735,-179.5"/>
<text text-anchor="start" x="638.5" y="-164.3" font-family="Helvetica,sans-Serif" font-size="14.00">entropy = 0.0</text>
<text text-anchor="start" x="637.5" y="-149.3" font-family="Helvetica,sans-Serif" font-size="14.00">samples = 12</text>
<text text-anchor="start" x="635.5" y="-134.3" font-family="Helvetica,sans-Serif" font-size="14.00">value = [12, 0]</text>
<text text-anchor="start" x="618" y="-119.3" font-family="Helvetica,sans-Serif" font-size="14.00">class = No Decease</text>
</g>
<!-- 14&#45;&gt;15 -->
<g id="edge15" class="edge">
<title>14&#45;&gt;15</title>
<path fill="none" stroke="black" d="M779.72,-222.91C763.79,-210.88 746.37,-197.73 730.55,-185.79"/>
<polygon fill="black" stroke="black" points="732.53,-182.9 722.44,-179.67 728.31,-188.49 732.53,-182.9"/>
</g>
<!-- 16 -->
<g id="node17" class="node">
<title>16</title>
<path fill="#fbeade" stroke="black" d="M890,-187C890,-187 777,-187 777,-187 771,-187 765,-181 765,-175 765,-175 765,-116 765,-116 765,-110 771,-104 777,-104 777,-104 890,-104 890,-104 896,-104 902,-110 902,-116 902,-116 902,-175 902,-175 902,-181 896,-187 890,-187"/>
<text text-anchor="start" x="787.5" y="-171.8" font-family="Helvetica,sans-Serif" font-size="14.00">thalach ≤ 119.5</text>
<text text-anchor="start" x="786" y="-156.8" font-family="Helvetica,sans-Serif" font-size="14.00">entropy = 0.994</text>
<text text-anchor="start" x="792.5" y="-141.8" font-family="Helvetica,sans-Serif" font-size="14.00">samples = 11</text>
<text text-anchor="start" x="794" y="-126.8" font-family="Helvetica,sans-Serif" font-size="14.00">value = [6, 5]</text>
<text text-anchor="start" x="773" y="-111.8" font-family="Helvetica,sans-Serif" font-size="14.00">class = No Decease</text>
</g>
<!-- 14&#45;&gt;16 -->
<g id="edge16" class="edge">
<title>14&#45;&gt;16</title>
<path fill="none" stroke="black" d="M833.5,-222.91C833.5,-214.65 833.5,-205.86 833.5,-197.3"/>
<polygon fill="black" stroke="black" points="837,-197.02 833.5,-187.02 830,-197.02 837,-197.02"/>
</g>
<!-- 17 -->
<g id="node18" class="node">
<title>17</title>
<path fill="#399de5" stroke="black" d="M734.5,-68C734.5,-68 642.5,-68 642.5,-68 636.5,-68 630.5,-62 630.5,-56 630.5,-56 630.5,-12 630.5,-12 630.5,-6 636.5,0 642.5,0 642.5,0 734.5,0 734.5,0 740.5,0 746.5,-6 746.5,-12 746.5,-12 746.5,-56 746.5,-56 746.5,-62 740.5,-68 734.5,-68"/>
<text text-anchor="start" x="648.5" y="-52.8" font-family="Helvetica,sans-Serif" font-size="14.00">entropy = 0.0</text>
<text text-anchor="start" x="651" y="-37.8" font-family="Helvetica,sans-Serif" font-size="14.00">samples = 2</text>
<text text-anchor="start" x="649" y="-22.8" font-family="Helvetica,sans-Serif" font-size="14.00">value = [0, 2]</text>
<text text-anchor="start" x="638.5" y="-7.8" font-family="Helvetica,sans-Serif" font-size="14.00">class = Decease</text>
</g>
<!-- 16&#45;&gt;17 -->
<g id="edge17" class="edge">
<title>16&#45;&gt;17</title>
<path fill="none" stroke="black" d="M779.51,-103.73C766.83,-94.15 753.33,-83.96 740.73,-74.44"/>
<polygon fill="black" stroke="black" points="742.68,-71.53 732.6,-68.3 738.47,-77.12 742.68,-71.53"/>
</g>
<!-- 18 -->
<g id="node19" class="node">
<title>18</title>
<path fill="#f2c09c" stroke="black" d="M890,-68C890,-68 777,-68 777,-68 771,-68 765,-62 765,-56 765,-56 765,-12 765,-12 765,-6 771,0 777,0 777,0 890,0 890,0 896,0 902,-6 902,-12 902,-12 902,-56 902,-56 902,-62 896,-68 890,-68"/>
<text text-anchor="start" x="786" y="-52.8" font-family="Helvetica,sans-Serif" font-size="14.00">entropy = 0.918</text>
<text text-anchor="start" x="796" y="-37.8" font-family="Helvetica,sans-Serif" font-size="14.00">samples = 9</text>
<text text-anchor="start" x="794" y="-22.8" font-family="Helvetica,sans-Serif" font-size="14.00">value = [6, 3]</text>
<text text-anchor="start" x="773" y="-7.8" font-family="Helvetica,sans-Serif" font-size="14.00">class = No Decease</text>
</g>
<!-- 16&#45;&gt;18 -->
<g id="edge18" class="edge">
<title>16&#45;&gt;18</title>
<path fill="none" stroke="black" d="M833.5,-103.73C833.5,-95.52 833.5,-86.86 833.5,-78.56"/>
<polygon fill="black" stroke="black" points="837,-78.3 833.5,-68.3 830,-78.3 837,-78.3"/>
</g>
<!-- 20 -->
<g id="node21" class="node">
<title>20</title>
<path fill="#399de5" stroke="black" d="M1024.5,-179.5C1024.5,-179.5 932.5,-179.5 932.5,-179.5 926.5,-179.5 920.5,-173.5 920.5,-167.5 920.5,-167.5 920.5,-123.5 920.5,-123.5 920.5,-117.5 926.5,-111.5 932.5,-111.5 932.5,-111.5 1024.5,-111.5 1024.5,-111.5 1030.5,-111.5 1036.5,-117.5 1036.5,-123.5 1036.5,-123.5 1036.5,-167.5 1036.5,-167.5 1036.5,-173.5 1030.5,-179.5 1024.5,-179.5"/>
<text text-anchor="start" x="938.5" y="-164.3" font-family="Helvetica,sans-Serif" font-size="14.00">entropy = 0.0</text>
<text text-anchor="start" x="937.5" y="-149.3" font-family="Helvetica,sans-Serif" font-size="14.00">samples = 10</text>
<text text-anchor="start" x="935.5" y="-134.3" font-family="Helvetica,sans-Serif" font-size="14.00">value = [0, 10]</text>
<text text-anchor="start" x="928.5" y="-119.3" font-family="Helvetica,sans-Serif" font-size="14.00">class = Decease</text>
</g>
<!-- 19&#45;&gt;20 -->
<g id="edge20" class="edge">
<title>19&#45;&gt;20</title>
<path fill="none" stroke="black" d="M978.5,-222.91C978.5,-212.2 978.5,-200.62 978.5,-189.78"/>
<polygon fill="black" stroke="black" points="982,-189.67 978.5,-179.67 975,-189.67 982,-189.67"/>
</g>
<!-- 21 -->
<g id="node22" class="node">
<title>21</title>
<path fill="#bddef6" stroke="black" d="M1158.5,-187C1158.5,-187 1066.5,-187 1066.5,-187 1060.5,-187 1054.5,-181 1054.5,-175 1054.5,-175 1054.5,-116 1054.5,-116 1054.5,-110 1060.5,-104 1066.5,-104 1066.5,-104 1158.5,-104 1158.5,-104 1164.5,-104 1170.5,-110 1170.5,-116 1170.5,-116 1170.5,-175 1170.5,-175 1170.5,-181 1164.5,-187 1158.5,-187"/>
<text text-anchor="start" x="1085" y="-171.8" font-family="Helvetica,sans-Serif" font-size="14.00">sex ≤ 0.5</text>
<text text-anchor="start" x="1065" y="-156.8" font-family="Helvetica,sans-Serif" font-size="14.00">entropy = 0.971</text>
<text text-anchor="start" x="1075" y="-141.8" font-family="Helvetica,sans-Serif" font-size="14.00">samples = 5</text>
<text text-anchor="start" x="1073" y="-126.8" font-family="Helvetica,sans-Serif" font-size="14.00">value = [2, 3]</text>
<text text-anchor="start" x="1062.5" y="-111.8" font-family="Helvetica,sans-Serif" font-size="14.00">class = Decease</text>
</g>
<!-- 19&#45;&gt;21 -->
<g id="edge21" class="edge">
<title>19&#45;&gt;21</title>
<path fill="none" stroke="black" d="M1024.99,-222.91C1035.8,-213.47 1047.4,-203.34 1058.5,-193.65"/>
<polygon fill="black" stroke="black" points="1060.86,-196.23 1066.09,-187.02 1056.26,-190.96 1060.86,-196.23"/>
</g>
<!-- 22 -->
<g id="node23" class="node">
<title>22</title>
<path fill="#e58139" stroke="black" d="M1045,-68C1045,-68 932,-68 932,-68 926,-68 920,-62 920,-56 920,-56 920,-12 920,-12 920,-6 926,0 932,0 932,0 1045,0 1045,0 1051,0 1057,-6 1057,-12 1057,-12 1057,-56 1057,-56 1057,-62 1051,-68 1045,-68"/>
<text text-anchor="start" x="948.5" y="-52.8" font-family="Helvetica,sans-Serif" font-size="14.00">entropy = 0.0</text>
<text text-anchor="start" x="951" y="-37.8" font-family="Helvetica,sans-Serif" font-size="14.00">samples = 2</text>
<text text-anchor="start" x="949" y="-22.8" font-family="Helvetica,sans-Serif" font-size="14.00">value = [2, 0]</text>
<text text-anchor="start" x="928" y="-7.8" font-family="Helvetica,sans-Serif" font-size="14.00">class = No Decease</text>
</g>
<!-- 21&#45;&gt;22 -->
<g id="edge22" class="edge">
<title>21&#45;&gt;22</title>
<path fill="none" stroke="black" d="M1066.33,-103.73C1055.69,-94.33 1044.38,-84.35 1033.78,-74.99"/>
<polygon fill="black" stroke="black" points="1036.02,-72.3 1026.21,-68.3 1031.39,-77.54 1036.02,-72.3"/>
</g>
<!-- 23 -->
<g id="node24" class="node">
<title>23</title>
<path fill="#399de5" stroke="black" d="M1179.5,-68C1179.5,-68 1087.5,-68 1087.5,-68 1081.5,-68 1075.5,-62 1075.5,-56 1075.5,-56 1075.5,-12 1075.5,-12 1075.5,-6 1081.5,0 1087.5,0 1087.5,0 1179.5,0 1179.5,0 1185.5,0 1191.5,-6 1191.5,-12 1191.5,-12 1191.5,-56 1191.5,-56 1191.5,-62 1185.5,-68 1179.5,-68"/>
<text text-anchor="start" x="1093.5" y="-52.8" font-family="Helvetica,sans-Serif" font-size="14.00">entropy = 0.0</text>
<text text-anchor="start" x="1096" y="-37.8" font-family="Helvetica,sans-Serif" font-size="14.00">samples = 3</text>
<text text-anchor="start" x="1094" y="-22.8" font-family="Helvetica,sans-Serif" font-size="14.00">value = [0, 3]</text>
<text text-anchor="start" x="1083.5" y="-7.8" font-family="Helvetica,sans-Serif" font-size="14.00">class = Decease</text>
</g>
<!-- 21&#45;&gt;23 -->
<g id="edge23" class="edge">
<title>21&#45;&gt;23</title>
<path fill="none" stroke="black" d="M1120.32,-103.73C1121.91,-95.43 1123.59,-86.67 1125.2,-78.28"/>
<polygon fill="black" stroke="black" points="1128.67,-78.78 1127.11,-68.3 1121.79,-77.46 1128.67,-78.78"/>
</g>
<!-- 25 -->
<g id="node26" class="node">
<title>25</title>
<path fill="#a2d1f3" stroke="black" d="M1380.5,-425C1380.5,-425 1288.5,-425 1288.5,-425 1282.5,-425 1276.5,-419 1276.5,-413 1276.5,-413 1276.5,-354 1276.5,-354 1276.5,-348 1282.5,-342 1288.5,-342 1288.5,-342 1380.5,-342 1380.5,-342 1386.5,-342 1392.5,-348 1392.5,-354 1392.5,-354 1392.5,-413 1392.5,-413 1392.5,-419 1386.5,-425 1380.5,-425"/>
<text text-anchor="start" x="1310" y="-409.8" font-family="Helvetica,sans-Serif" font-size="14.00">cp ≤ 3.5</text>
<text text-anchor="start" x="1287" y="-394.8" font-family="Helvetica,sans-Serif" font-size="14.00">entropy = 0.931</text>
<text text-anchor="start" x="1293.5" y="-379.8" font-family="Helvetica,sans-Serif" font-size="14.00">samples = 75</text>
<text text-anchor="start" x="1287.5" y="-364.8" font-family="Helvetica,sans-Serif" font-size="14.00">value = [26, 49]</text>
<text text-anchor="start" x="1284.5" y="-349.8" font-family="Helvetica,sans-Serif" font-size="14.00">class = Decease</text>
</g>
<!-- 24&#45;&gt;25 -->
<g id="edge25" class="edge">
<title>24&#45;&gt;25</title>
<path fill="none" stroke="black" d="M1334.5,-460.91C1334.5,-452.65 1334.5,-443.86 1334.5,-435.3"/>
<polygon fill="black" stroke="black" points="1338,-435.02 1334.5,-425.02 1331,-435.02 1338,-435.02"/>
</g>
<!-- 38 -->
<g id="node39" class="node">
<title>38</title>
<path fill="#399de5" stroke="black" d="M1514.5,-417.5C1514.5,-417.5 1422.5,-417.5 1422.5,-417.5 1416.5,-417.5 1410.5,-411.5 1410.5,-405.5 1410.5,-405.5 1410.5,-361.5 1410.5,-361.5 1410.5,-355.5 1416.5,-349.5 1422.5,-349.5 1422.5,-349.5 1514.5,-349.5 1514.5,-349.5 1520.5,-349.5 1526.5,-355.5 1526.5,-361.5 1526.5,-361.5 1526.5,-405.5 1526.5,-405.5 1526.5,-411.5 1520.5,-417.5 1514.5,-417.5"/>
<text text-anchor="start" x="1428.5" y="-402.3" font-family="Helvetica,sans-Serif" font-size="14.00">entropy = 0.0</text>
<text text-anchor="start" x="1427.5" y="-387.3" font-family="Helvetica,sans-Serif" font-size="14.00">samples = 34</text>
<text text-anchor="start" x="1425.5" y="-372.3" font-family="Helvetica,sans-Serif" font-size="14.00">value = [0, 34]</text>
<text text-anchor="start" x="1418.5" y="-357.3" font-family="Helvetica,sans-Serif" font-size="14.00">class = Decease</text>
</g>
<!-- 24&#45;&gt;38 -->
<g id="edge38" class="edge">
<title>24&#45;&gt;38</title>
<path fill="none" stroke="black" d="M1380.99,-460.91C1394.51,-449.1 1409.27,-436.22 1422.75,-424.45"/>
<polygon fill="black" stroke="black" points="1425.28,-426.88 1430.51,-417.67 1420.68,-421.61 1425.28,-426.88"/>
</g>
<!-- 26 -->
<g id="node27" class="node">
<title>26</title>
<path fill="#f7d7c0" stroke="black" d="M1391,-306C1391,-306 1278,-306 1278,-306 1272,-306 1266,-300 1266,-294 1266,-294 1266,-235 1266,-235 1266,-229 1272,-223 1278,-223 1278,-223 1391,-223 1391,-223 1397,-223 1403,-229 1403,-235 1403,-235 1403,-294 1403,-294 1403,-300 1397,-306 1391,-306"/>
<text text-anchor="start" x="1297.5" y="-290.8" font-family="Helvetica,sans-Serif" font-size="14.00">chol ≤ 207.5</text>
<text text-anchor="start" x="1287" y="-275.8" font-family="Helvetica,sans-Serif" font-size="14.00">entropy = 0.974</text>
<text text-anchor="start" x="1293.5" y="-260.8" font-family="Helvetica,sans-Serif" font-size="14.00">samples = 32</text>
<text text-anchor="start" x="1287.5" y="-245.8" font-family="Helvetica,sans-Serif" font-size="14.00">value = [19, 13]</text>
<text text-anchor="start" x="1274" y="-230.8" font-family="Helvetica,sans-Serif" font-size="14.00">class = No Decease</text>
</g>
<!-- 25&#45;&gt;26 -->
<g id="edge26" class="edge">
<title>25&#45;&gt;26</title>
<path fill="none" stroke="black" d="M1334.5,-341.91C1334.5,-333.65 1334.5,-324.86 1334.5,-316.3"/>
<polygon fill="black" stroke="black" points="1338,-316.02 1334.5,-306.02 1331,-316.02 1338,-316.02"/>
</g>
<!-- 31 -->
<g id="node32" class="node">
<title>31</title>
<path fill="#5fb0ea" stroke="black" d="M1690,-306C1690,-306 1589,-306 1589,-306 1583,-306 1577,-300 1577,-294 1577,-294 1577,-235 1577,-235 1577,-229 1583,-223 1589,-223 1589,-223 1690,-223 1690,-223 1696,-223 1702,-229 1702,-235 1702,-235 1702,-294 1702,-294 1702,-300 1696,-306 1690,-306"/>
<text text-anchor="start" x="1595" y="-290.8" font-family="Helvetica,sans-Serif" font-size="14.00">oldpeak ≤ 0.55</text>
<text text-anchor="start" x="1592" y="-275.8" font-family="Helvetica,sans-Serif" font-size="14.00">entropy = 0.641</text>
<text text-anchor="start" x="1598.5" y="-260.8" font-family="Helvetica,sans-Serif" font-size="14.00">samples = 43</text>
<text text-anchor="start" x="1585" y="-245.8" font-family="Helvetica,sans-Serif" font-size="14.00">value = [7.0, 36.0]</text>
<text text-anchor="start" x="1589.5" y="-230.8" font-family="Helvetica,sans-Serif" font-size="14.00">class = Decease</text>
</g>
<!-- 25&#45;&gt;31 -->
<g id="edge31" class="edge">
<title>25&#45;&gt;31</title>
<path fill="none" stroke="black" d="M1392.53,-346.33C1395.53,-344.81 1398.53,-343.35 1401.5,-342 1455.27,-317.51 1519.14,-297.44 1567.18,-284.01"/>
<polygon fill="black" stroke="black" points="1568.17,-287.36 1576.87,-281.33 1566.3,-280.62 1568.17,-287.36"/>
</g>
<!-- 27 -->
<g id="node28" class="node">
<title>27</title>
<path fill="#e58139" stroke="black" d="M1319,-179.5C1319,-179.5 1206,-179.5 1206,-179.5 1200,-179.5 1194,-173.5 1194,-167.5 1194,-167.5 1194,-123.5 1194,-123.5 1194,-117.5 1200,-111.5 1206,-111.5 1206,-111.5 1319,-111.5 1319,-111.5 1325,-111.5 1331,-117.5 1331,-123.5 1331,-123.5 1331,-167.5 1331,-167.5 1331,-173.5 1325,-179.5 1319,-179.5"/>
<text text-anchor="start" x="1222.5" y="-164.3" font-family="Helvetica,sans-Serif" font-size="14.00">entropy = 0.0</text>
<text text-anchor="start" x="1225" y="-149.3" font-family="Helvetica,sans-Serif" font-size="14.00">samples = 7</text>
<text text-anchor="start" x="1223" y="-134.3" font-family="Helvetica,sans-Serif" font-size="14.00">value = [7, 0]</text>
<text text-anchor="start" x="1202" y="-119.3" font-family="Helvetica,sans-Serif" font-size="14.00">class = No Decease</text>
</g>
<!-- 26&#45;&gt;27 -->
<g id="edge27" class="edge">
<title>26&#45;&gt;27</title>
<path fill="none" stroke="black" d="M1309.52,-222.91C1302.66,-211.76 1295.21,-199.66 1288.31,-188.44"/>
<polygon fill="black" stroke="black" points="1291.13,-186.35 1282.91,-179.67 1285.17,-190.02 1291.13,-186.35"/>
</g>
<!-- 28 -->
<g id="node29" class="node">
<title>28</title>
<path fill="#f0f7fd" stroke="black" d="M1453.5,-187C1453.5,-187 1361.5,-187 1361.5,-187 1355.5,-187 1349.5,-181 1349.5,-175 1349.5,-175 1349.5,-116 1349.5,-116 1349.5,-110 1355.5,-104 1361.5,-104 1361.5,-104 1453.5,-104 1453.5,-104 1459.5,-104 1465.5,-110 1465.5,-116 1465.5,-116 1465.5,-175 1465.5,-175 1465.5,-181 1459.5,-187 1453.5,-187"/>
<text text-anchor="start" x="1361" y="-171.8" font-family="Helvetica,sans-Serif" font-size="14.00">thalach ≤ 132.5</text>
<text text-anchor="start" x="1360" y="-156.8" font-family="Helvetica,sans-Serif" font-size="14.00">entropy = 0.999</text>
<text text-anchor="start" x="1366.5" y="-141.8" font-family="Helvetica,sans-Serif" font-size="14.00">samples = 25</text>
<text text-anchor="start" x="1360.5" y="-126.8" font-family="Helvetica,sans-Serif" font-size="14.00">value = [12, 13]</text>
<text text-anchor="start" x="1357.5" y="-111.8" font-family="Helvetica,sans-Serif" font-size="14.00">class = Decease</text>
</g>
<!-- 26&#45;&gt;28 -->
<g id="edge28" class="edge">
<title>26&#45;&gt;28</title>
<path fill="none" stroke="black" d="M1359.83,-222.91C1365.32,-214.1 1371.19,-204.7 1376.86,-195.61"/>
<polygon fill="black" stroke="black" points="1379.89,-197.36 1382.22,-187.02 1373.95,-193.65 1379.89,-197.36"/>
</g>
<!-- 29 -->
<g id="node30" class="node">
<title>29</title>
<path fill="#399de5" stroke="black" d="M1313.5,-68C1313.5,-68 1221.5,-68 1221.5,-68 1215.5,-68 1209.5,-62 1209.5,-56 1209.5,-56 1209.5,-12 1209.5,-12 1209.5,-6 1215.5,0 1221.5,0 1221.5,0 1313.5,0 1313.5,0 1319.5,0 1325.5,-6 1325.5,-12 1325.5,-12 1325.5,-56 1325.5,-56 1325.5,-62 1319.5,-68 1313.5,-68"/>
<text text-anchor="start" x="1227.5" y="-52.8" font-family="Helvetica,sans-Serif" font-size="14.00">entropy = 0.0</text>
<text text-anchor="start" x="1230" y="-37.8" font-family="Helvetica,sans-Serif" font-size="14.00">samples = 5</text>
<text text-anchor="start" x="1228" y="-22.8" font-family="Helvetica,sans-Serif" font-size="14.00">value = [0, 5]</text>
<text text-anchor="start" x="1217.5" y="-7.8" font-family="Helvetica,sans-Serif" font-size="14.00">class = Decease</text>
</g>
<!-- 28&#45;&gt;29 -->
<g id="edge29" class="edge">
<title>28&#45;&gt;29</title>
<path fill="none" stroke="black" d="M1355.37,-103.73C1343.24,-94.24 1330.35,-84.16 1318.28,-74.72"/>
<polygon fill="black" stroke="black" points="1320.11,-71.7 1310.07,-68.3 1315.8,-77.22 1320.11,-71.7"/>
</g>
<!-- 30 -->
<g id="node31" class="node">
<title>30</title>
<path fill="#f6d5bd" stroke="black" d="M1469,-68C1469,-68 1356,-68 1356,-68 1350,-68 1344,-62 1344,-56 1344,-56 1344,-12 1344,-12 1344,-6 1350,0 1356,0 1356,0 1469,0 1469,0 1475,0 1481,-6 1481,-12 1481,-12 1481,-56 1481,-56 1481,-62 1475,-68 1469,-68"/>
<text text-anchor="start" x="1365" y="-52.8" font-family="Helvetica,sans-Serif" font-size="14.00">entropy = 0.971</text>
<text text-anchor="start" x="1371.5" y="-37.8" font-family="Helvetica,sans-Serif" font-size="14.00">samples = 20</text>
<text text-anchor="start" x="1369.5" y="-22.8" font-family="Helvetica,sans-Serif" font-size="14.00">value = [12, 8]</text>
<text text-anchor="start" x="1352" y="-7.8" font-family="Helvetica,sans-Serif" font-size="14.00">class = No Decease</text>
</g>
<!-- 28&#45;&gt;30 -->
<g id="edge30" class="edge">
<title>28&#45;&gt;30</title>
<path fill="none" stroke="black" d="M1409.36,-103.73C1409.74,-95.52 1410.13,-86.86 1410.51,-78.56"/>
<polygon fill="black" stroke="black" points="1414.02,-78.45 1410.98,-68.3 1407.03,-78.13 1414.02,-78.45"/>
</g>
<!-- 32 -->
<g id="node33" class="node">
<title>32</title>
<path fill="#cee6f8" stroke="black" d="M1685.5,-187C1685.5,-187 1593.5,-187 1593.5,-187 1587.5,-187 1581.5,-181 1581.5,-175 1581.5,-175 1581.5,-116 1581.5,-116 1581.5,-110 1587.5,-104 1593.5,-104 1593.5,-104 1685.5,-104 1685.5,-104 1691.5,-104 1697.5,-110 1697.5,-116 1697.5,-116 1697.5,-175 1697.5,-175 1697.5,-181 1691.5,-187 1685.5,-187"/>
<text text-anchor="start" x="1593" y="-171.8" font-family="Helvetica,sans-Serif" font-size="14.00">thalach ≤ 152.0</text>
<text text-anchor="start" x="1592" y="-156.8" font-family="Helvetica,sans-Serif" font-size="14.00">entropy = 0.985</text>
<text text-anchor="start" x="1598.5" y="-141.8" font-family="Helvetica,sans-Serif" font-size="14.00">samples = 14</text>
<text text-anchor="start" x="1600" y="-126.8" font-family="Helvetica,sans-Serif" font-size="14.00">value = [6, 8]</text>
<text text-anchor="start" x="1589.5" y="-111.8" font-family="Helvetica,sans-Serif" font-size="14.00">class = Decease</text>
</g>
<!-- 31&#45;&gt;32 -->
<g id="edge32" class="edge">
<title>31&#45;&gt;32</title>
<path fill="none" stroke="black" d="M1639.5,-222.91C1639.5,-214.65 1639.5,-205.86 1639.5,-197.3"/>
<polygon fill="black" stroke="black" points="1643,-197.02 1639.5,-187.02 1636,-197.02 1643,-197.02"/>
</g>
<!-- 35 -->
<g id="node36" class="node">
<title>35</title>
<path fill="#40a0e6" stroke="black" d="M1892.5,-187C1892.5,-187 1800.5,-187 1800.5,-187 1794.5,-187 1788.5,-181 1788.5,-175 1788.5,-175 1788.5,-116 1788.5,-116 1788.5,-110 1794.5,-104 1800.5,-104 1800.5,-104 1892.5,-104 1892.5,-104 1898.5,-104 1904.5,-110 1904.5,-116 1904.5,-116 1904.5,-175 1904.5,-175 1904.5,-181 1898.5,-187 1892.5,-187"/>
<text text-anchor="start" x="1798" y="-171.8" font-family="Helvetica,sans-Serif" font-size="14.00">trestbps ≤ 113.5</text>
<text text-anchor="start" x="1799" y="-156.8" font-family="Helvetica,sans-Serif" font-size="14.00">entropy = 0.216</text>
<text text-anchor="start" x="1805.5" y="-141.8" font-family="Helvetica,sans-Serif" font-size="14.00">samples = 29</text>
<text text-anchor="start" x="1803.5" y="-126.8" font-family="Helvetica,sans-Serif" font-size="14.00">value = [1, 28]</text>
<text text-anchor="start" x="1796.5" y="-111.8" font-family="Helvetica,sans-Serif" font-size="14.00">class = Decease</text>
</g>
<!-- 31&#45;&gt;35 -->
<g id="edge35" class="edge">
<title>31&#45;&gt;35</title>
<path fill="none" stroke="black" d="M1702.17,-228.08C1726.54,-214.3 1754.52,-198.49 1779.31,-184.48"/>
<polygon fill="black" stroke="black" points="1781.3,-187.37 1788.29,-179.4 1777.86,-181.28 1781.3,-187.37"/>
</g>
<!-- 33 -->
<g id="node34" class="node">
<title>33</title>
<path fill="#eca06a" stroke="black" d="M1624,-68C1624,-68 1511,-68 1511,-68 1505,-68 1499,-62 1499,-56 1499,-56 1499,-12 1499,-12 1499,-6 1505,0 1511,0 1511,0 1624,0 1624,0 1630,0 1636,-6 1636,-12 1636,-12 1636,-56 1636,-56 1636,-62 1630,-68 1624,-68"/>
<text text-anchor="start" x="1520" y="-52.8" font-family="Helvetica,sans-Serif" font-size="14.00">entropy = 0.722</text>
<text text-anchor="start" x="1530" y="-37.8" font-family="Helvetica,sans-Serif" font-size="14.00">samples = 5</text>
<text text-anchor="start" x="1528" y="-22.8" font-family="Helvetica,sans-Serif" font-size="14.00">value = [4, 1]</text>
<text text-anchor="start" x="1507" y="-7.8" font-family="Helvetica,sans-Serif" font-size="14.00">class = No Decease</text>
</g>
<!-- 32&#45;&gt;33 -->
<g id="edge33" class="edge">
<title>32&#45;&gt;33</title>
<path fill="none" stroke="black" d="M1612.69,-103.73C1606.93,-94.97 1600.84,-85.7 1595.05,-76.91"/>
<polygon fill="black" stroke="black" points="1597.81,-74.73 1589.4,-68.3 1591.97,-78.58 1597.81,-74.73"/>
</g>
<!-- 34 -->
<g id="node35" class="node">
<title>34</title>
<path fill="#72b9ec" stroke="black" d="M1758.5,-68C1758.5,-68 1666.5,-68 1666.5,-68 1660.5,-68 1654.5,-62 1654.5,-56 1654.5,-56 1654.5,-12 1654.5,-12 1654.5,-6 1660.5,0 1666.5,0 1666.5,0 1758.5,0 1758.5,0 1764.5,0 1770.5,-6 1770.5,-12 1770.5,-12 1770.5,-56 1770.5,-56 1770.5,-62 1764.5,-68 1758.5,-68"/>
<text text-anchor="start" x="1665" y="-52.8" font-family="Helvetica,sans-Serif" font-size="14.00">entropy = 0.764</text>
<text text-anchor="start" x="1675" y="-37.8" font-family="Helvetica,sans-Serif" font-size="14.00">samples = 9</text>
<text text-anchor="start" x="1673" y="-22.8" font-family="Helvetica,sans-Serif" font-size="14.00">value = [2, 7]</text>
<text text-anchor="start" x="1662.5" y="-7.8" font-family="Helvetica,sans-Serif" font-size="14.00">class = Decease</text>
</g>
<!-- 32&#45;&gt;34 -->
<g id="edge34" class="edge">
<title>32&#45;&gt;34</title>
<path fill="none" stroke="black" d="M1666.68,-103.73C1672.58,-94.88 1678.83,-85.51 1684.75,-76.63"/>
<polygon fill="black" stroke="black" points="1687.67,-78.56 1690.3,-68.3 1681.84,-74.68 1687.67,-78.56"/>
</g>
<!-- 36 -->
<g id="node37" class="node">
<title>36</title>
<path fill="#9ccef2" stroke="black" d="M1892.5,-68C1892.5,-68 1800.5,-68 1800.5,-68 1794.5,-68 1788.5,-62 1788.5,-56 1788.5,-56 1788.5,-12 1788.5,-12 1788.5,-6 1794.5,0 1800.5,0 1800.5,0 1892.5,0 1892.5,0 1898.5,0 1904.5,-6 1904.5,-12 1904.5,-12 1904.5,-56 1904.5,-56 1904.5,-62 1898.5,-68 1892.5,-68"/>
<text text-anchor="start" x="1799" y="-52.8" font-family="Helvetica,sans-Serif" font-size="14.00">entropy = 0.918</text>
<text text-anchor="start" x="1809" y="-37.8" font-family="Helvetica,sans-Serif" font-size="14.00">samples = 3</text>
<text text-anchor="start" x="1807" y="-22.8" font-family="Helvetica,sans-Serif" font-size="14.00">value = [1, 2]</text>
<text text-anchor="start" x="1796.5" y="-7.8" font-family="Helvetica,sans-Serif" font-size="14.00">class = Decease</text>
</g>
<!-- 35&#45;&gt;36 -->
<g id="edge36" class="edge">
<title>35&#45;&gt;36</title>
<path fill="none" stroke="black" d="M1846.5,-103.73C1846.5,-95.52 1846.5,-86.86 1846.5,-78.56"/>
<polygon fill="black" stroke="black" points="1850,-78.3 1846.5,-68.3 1843,-78.3 1850,-78.3"/>
</g>
<!-- 37 -->
<g id="node38" class="node">
<title>37</title>
<path fill="#399de5" stroke="black" d="M2026.5,-68C2026.5,-68 1934.5,-68 1934.5,-68 1928.5,-68 1922.5,-62 1922.5,-56 1922.5,-56 1922.5,-12 1922.5,-12 1922.5,-6 1928.5,0 1934.5,0 1934.5,0 2026.5,0 2026.5,0 2032.5,0 2038.5,-6 2038.5,-12 2038.5,-12 2038.5,-56 2038.5,-56 2038.5,-62 2032.5,-68 2026.5,-68"/>
<text text-anchor="start" x="1940.5" y="-52.8" font-family="Helvetica,sans-Serif" font-size="14.00">entropy = 0.0</text>
<text text-anchor="start" x="1939.5" y="-37.8" font-family="Helvetica,sans-Serif" font-size="14.00">samples = 26</text>
<text text-anchor="start" x="1937.5" y="-22.8" font-family="Helvetica,sans-Serif" font-size="14.00">value = [0, 26]</text>
<text text-anchor="start" x="1930.5" y="-7.8" font-family="Helvetica,sans-Serif" font-size="14.00">class = Decease</text>
</g>
<!-- 35&#45;&gt;37 -->
<g id="edge37" class="edge">
<title>35&#45;&gt;37</title>
<path fill="none" stroke="black" d="M1896.4,-103.73C1908,-94.24 1920.35,-84.16 1931.9,-74.72"/>
<polygon fill="black" stroke="black" points="1934.22,-77.34 1939.75,-68.3 1929.79,-71.92 1934.22,-77.34"/>
</g>
</g>
</svg>
