<?xml version="1.0" encoding="UTF-8" standalone="no"?>
<!DOCTYPE svg PUBLIC "-//W3C//DTD SVG 1.1//EN"
 "http://www.w3.org/Graphics/SVG/1.1/DTD/svg11.dtd">
<!-- Generated by graphviz version 2.50.0 (0)
 -->
<!-- Title: Tree Pages: 1 -->
<svg width="1148pt" height="433pt"
 viewBox="0.00 0.00 1147.50 433.00" xmlns="http://www.w3.org/2000/svg" xmlns:xlink="http://www.w3.org/1999/xlink">
<g id="graph0" class="graph" transform="scale(1 1) rotate(0) translate(4 429)">
<title>Tree</title>
<polygon fill="white" stroke="transparent" points="-4,4 -4,-429 1143.5,-429 1143.5,4 -4,4"/>
<!-- 0 -->
<g id="node1" class="node">
<title>0</title>
<path fill="#fbece2" stroke="black" d="M653,-425C653,-425 530,-425 530,-425 524,-425 518,-419 518,-413 518,-413 518,-354 518,-354 518,-348 524,-342 530,-342 530,-342 653,-342 653,-342 659,-342 665,-348 665,-354 665,-354 665,-413 665,-413 665,-419 659,-425 653,-425"/>
<text text-anchor="start" x="563.5" y="-409.8" font-family="Helvetica,sans-Serif" font-size="14.00">thal ≤ 4.5</text>
<text text-anchor="start" x="544" y="-394.8" font-family="Helvetica,sans-Serif" font-size="14.00">entropy = 0.995</text>
<text text-anchor="start" x="546.5" y="-379.8" font-family="Helvetica,sans-Serif" font-size="14.00">samples = 237</text>
<text text-anchor="start" x="526" y="-364.8" font-family="Helvetica,sans-Serif" font-size="14.00">value = [128.0, 109.0]</text>
<text text-anchor="start" x="531" y="-349.8" font-family="Helvetica,sans-Serif" font-size="14.00">class = No Decease</text>
</g>
<!-- 1 -->
<g id="node2" class="node">
<title>1</title>
<path fill="#eca16b" stroke="black" d="M503,-306C503,-306 390,-306 390,-306 384,-306 378,-300 378,-294 378,-294 378,-235 378,-235 378,-229 384,-223 390,-223 390,-223 503,-223 503,-223 509,-223 515,-229 515,-235 515,-235 515,-294 515,-294 515,-300 509,-306 503,-306"/>
<text text-anchor="start" x="413" y="-290.8" font-family="Helvetica,sans-Serif" font-size="14.00">slope ≤ 1.5</text>
<text text-anchor="start" x="399" y="-275.8" font-family="Helvetica,sans-Serif" font-size="14.00">entropy = 0.728</text>
<text text-anchor="start" x="401.5" y="-260.8" font-family="Helvetica,sans-Serif" font-size="14.00">samples = 128</text>
<text text-anchor="start" x="396" y="-245.8" font-family="Helvetica,sans-Serif" font-size="14.00">value = [102, 26]</text>
<text text-anchor="start" x="386" y="-230.8" font-family="Helvetica,sans-Serif" font-size="14.00">class = No Decease</text>
</g>
<!-- 0&#45;&gt;1 -->
<g id="edge1" class="edge">
<title>0&#45;&gt;1</title>
<path fill="none" stroke="black" d="M541.19,-341.91C529.38,-332.38 516.71,-322.15 504.59,-312.37"/>
<polygon fill="black" stroke="black" points="506.7,-309.58 496.72,-306.02 502.3,-315.02 506.7,-309.58"/>
<text text-anchor="middle" x="499.37" y="-327.18" font-family="Helvetica,sans-Serif" font-size="14.00">True</text>
</g>
<!-- 8 -->
<g id="node9" class="node">
<title>8</title>
<path fill="#77bced" stroke="black" d="M782.5,-306C782.5,-306 690.5,-306 690.5,-306 684.5,-306 678.5,-300 678.5,-294 678.5,-294 678.5,-235 678.5,-235 678.5,-229 684.5,-223 690.5,-223 690.5,-223 782.5,-223 782.5,-223 788.5,-223 794.5,-229 794.5,-235 794.5,-235 794.5,-294 794.5,-294 794.5,-300 788.5,-306 782.5,-306"/>
<text text-anchor="start" x="712" y="-290.8" font-family="Helvetica,sans-Serif" font-size="14.00">ca ≤ 0.5</text>
<text text-anchor="start" x="689" y="-275.8" font-family="Helvetica,sans-Serif" font-size="14.00">entropy = 0.793</text>
<text text-anchor="start" x="691.5" y="-260.8" font-family="Helvetica,sans-Serif" font-size="14.00">samples = 109</text>
<text text-anchor="start" x="689.5" y="-245.8" font-family="Helvetica,sans-Serif" font-size="14.00">value = [26, 83]</text>
<text text-anchor="start" x="686.5" y="-230.8" font-family="Helvetica,sans-Serif" font-size="14.00">class = Decease</text>
</g>
<!-- 0&#45;&gt;8 -->
<g id="edge8" class="edge">
<title>0&#45;&gt;8</title>
<path fill="none" stroke="black" d="M641.81,-341.91C653.62,-332.38 666.29,-322.15 678.41,-312.37"/>
<polygon fill="black" stroke="black" points="680.7,-315.02 686.28,-306.02 676.3,-309.58 680.7,-315.02"/>
<text text-anchor="middle" x="683.63" y="-327.18" font-family="Helvetica,sans-Serif" font-size="14.00">False</text>
</g>
<!-- 2 -->
<g id="node3" class="node">
<title>2</title>
<path fill="#e78b49" stroke="black" d="M280,-187C280,-187 167,-187 167,-187 161,-187 155,-181 155,-175 155,-175 155,-116 155,-116 155,-110 161,-104 167,-104 167,-104 280,-104 280,-104 286,-104 292,-110 292,-116 292,-116 292,-175 292,-175 292,-181 286,-187 280,-187"/>
<text text-anchor="start" x="177" y="-171.8" font-family="Helvetica,sans-Serif" font-size="14.00">thalach ≤ 162.5</text>
<text text-anchor="start" x="176" y="-156.8" font-family="Helvetica,sans-Serif" font-size="14.00">entropy = 0.388</text>
<text text-anchor="start" x="182.5" y="-141.8" font-family="Helvetica,sans-Serif" font-size="14.00">samples = 79</text>
<text text-anchor="start" x="180.5" y="-126.8" font-family="Helvetica,sans-Serif" font-size="14.00">value = [73, 6]</text>
<text text-anchor="start" x="163" y="-111.8" font-family="Helvetica,sans-Serif" font-size="14.00">class = No Decease</text>
</g>
<!-- 1&#45;&gt;2 -->
<g id="edge2" class="edge">
<title>1&#45;&gt;2</title>
<path fill="none" stroke="black" d="M377.77,-227.44C353.5,-214.7 326.03,-200.29 301.07,-187.2"/>
<polygon fill="black" stroke="black" points="302.48,-183.99 292,-182.44 299.23,-190.18 302.48,-183.99"/>
</g>
<!-- 5 -->
<g id="node6" class="node">
<title>5</title>
<path fill="#f7d8c2" stroke="black" d="M503,-187C503,-187 390,-187 390,-187 384,-187 378,-181 378,-175 378,-175 378,-116 378,-116 378,-110 384,-104 390,-104 390,-104 503,-104 503,-104 509,-104 515,-110 515,-116 515,-116 515,-175 515,-175 515,-181 509,-187 503,-187"/>
<text text-anchor="start" x="422" y="-171.8" font-family="Helvetica,sans-Serif" font-size="14.00">ca ≤ 0.5</text>
<text text-anchor="start" x="399" y="-156.8" font-family="Helvetica,sans-Serif" font-size="14.00">entropy = 0.976</text>
<text text-anchor="start" x="405.5" y="-141.8" font-family="Helvetica,sans-Serif" font-size="14.00">samples = 49</text>
<text text-anchor="start" x="399.5" y="-126.8" font-family="Helvetica,sans-Serif" font-size="14.00">value = [29, 20]</text>
<text text-anchor="start" x="386" y="-111.8" font-family="Helvetica,sans-Serif" font-size="14.00">class = No Decease</text>
</g>
<!-- 1&#45;&gt;5 -->
<g id="edge5" class="edge">
<title>1&#45;&gt;5</title>
<path fill="none" stroke="black" d="M446.5,-222.91C446.5,-214.65 446.5,-205.86 446.5,-197.3"/>
<polygon fill="black" stroke="black" points="450,-197.02 446.5,-187.02 443,-197.02 450,-197.02"/>
</g>
<!-- 3 -->
<g id="node4" class="node">
<title>3</title>
<path fill="#ea9b62" stroke="black" d="M125,-68C125,-68 12,-68 12,-68 6,-68 0,-62 0,-56 0,-56 0,-12 0,-12 0,-6 6,0 12,0 12,0 125,0 125,0 131,0 137,-6 137,-12 137,-12 137,-56 137,-56 137,-62 131,-68 125,-68"/>
<text text-anchor="start" x="21" y="-52.8" font-family="Helvetica,sans-Serif" font-size="14.00">entropy = 0.661</text>
<text text-anchor="start" x="27.5" y="-37.8" font-family="Helvetica,sans-Serif" font-size="14.00">samples = 35</text>
<text text-anchor="start" x="14" y="-22.8" font-family="Helvetica,sans-Serif" font-size="14.00">value = [29.0, 6.0]</text>
<text text-anchor="start" x="8" y="-7.8" font-family="Helvetica,sans-Serif" font-size="14.00">class = No Decease</text>
</g>
<!-- 2&#45;&gt;3 -->
<g id="edge3" class="edge">
<title>2&#45;&gt;3</title>
<path fill="none" stroke="black" d="M165.78,-103.73C152.1,-94.06 137.53,-83.77 123.95,-74.17"/>
<polygon fill="black" stroke="black" points="125.82,-71.21 115.64,-68.3 121.78,-76.93 125.82,-71.21"/>
</g>
<!-- 4 -->
<g id="node5" class="node">
<title>4</title>
<path fill="#e58139" stroke="black" d="M280,-68C280,-68 167,-68 167,-68 161,-68 155,-62 155,-56 155,-56 155,-12 155,-12 155,-6 161,0 167,0 167,0 280,0 280,0 286,0 292,-6 292,-12 292,-12 292,-56 292,-56 292,-62 286,-68 280,-68"/>
<text text-anchor="start" x="183.5" y="-52.8" font-family="Helvetica,sans-Serif" font-size="14.00">entropy = 0.0</text>
<text text-anchor="start" x="182.5" y="-37.8" font-family="Helvetica,sans-Serif" font-size="14.00">samples = 44</text>
<text text-anchor="start" x="180.5" y="-22.8" font-family="Helvetica,sans-Serif" font-size="14.00">value = [44, 0]</text>
<text text-anchor="start" x="163" y="-7.8" font-family="Helvetica,sans-Serif" font-size="14.00">class = No Decease</text>
</g>
<!-- 2&#45;&gt;4 -->
<g id="edge4" class="edge">
<title>2&#45;&gt;4</title>
<path fill="none" stroke="black" d="M223.5,-103.73C223.5,-95.52 223.5,-86.86 223.5,-78.56"/>
<polygon fill="black" stroke="black" points="227,-78.3 223.5,-68.3 220,-78.3 227,-78.3"/>
</g>
<!-- 6 -->
<g id="node7" class="node">
<title>6</title>
<path fill="#eca36e" stroke="black" d="M435,-68C435,-68 322,-68 322,-68 316,-68 310,-62 310,-56 310,-56 310,-12 310,-12 310,-6 316,0 322,0 322,0 435,0 435,0 441,0 447,-6 447,-12 447,-12 447,-56 447,-56 447,-62 441,-68 435,-68"/>
<text text-anchor="start" x="331" y="-52.8" font-family="Helvetica,sans-Serif" font-size="14.00">entropy = 0.746</text>
<text text-anchor="start" x="337.5" y="-37.8" font-family="Helvetica,sans-Serif" font-size="14.00">samples = 33</text>
<text text-anchor="start" x="335.5" y="-22.8" font-family="Helvetica,sans-Serif" font-size="14.00">value = [26, 7]</text>
<text text-anchor="start" x="318" y="-7.8" font-family="Helvetica,sans-Serif" font-size="14.00">class = No Decease</text>
</g>
<!-- 5&#45;&gt;6 -->
<g id="edge6" class="edge">
<title>5&#45;&gt;6</title>
<path fill="none" stroke="black" d="M421.18,-103.73C415.74,-94.97 409.99,-85.7 404.52,-76.91"/>
<polygon fill="black" stroke="black" points="407.43,-74.95 399.18,-68.3 401.48,-78.64 407.43,-74.95"/>
</g>
<!-- 7 -->
<g id="node8" class="node">
<title>7</title>
<path fill="#67b4eb" stroke="black" d="M569.5,-68C569.5,-68 477.5,-68 477.5,-68 471.5,-68 465.5,-62 465.5,-56 465.5,-56 465.5,-12 465.5,-12 465.5,-6 471.5,0 477.5,0 477.5,0 569.5,0 569.5,0 575.5,0 581.5,-6 581.5,-12 581.5,-12 581.5,-56 581.5,-56 581.5,-62 575.5,-68 569.5,-68"/>
<text text-anchor="start" x="476" y="-52.8" font-family="Helvetica,sans-Serif" font-size="14.00">entropy = 0.696</text>
<text text-anchor="start" x="482.5" y="-37.8" font-family="Helvetica,sans-Serif" font-size="14.00">samples = 16</text>
<text text-anchor="start" x="480.5" y="-22.8" font-family="Helvetica,sans-Serif" font-size="14.00">value = [3, 13]</text>
<text text-anchor="start" x="473.5" y="-7.8" font-family="Helvetica,sans-Serif" font-size="14.00">class = Decease</text>
</g>
<!-- 5&#45;&gt;7 -->
<g id="edge7" class="edge">
<title>5&#45;&gt;7</title>
<path fill="none" stroke="black" d="M475.17,-103.73C481.39,-94.88 487.98,-85.51 494.23,-76.63"/>
<polygon fill="black" stroke="black" points="497.19,-78.49 500.08,-68.3 491.47,-74.47 497.19,-78.49"/>
</g>
<!-- 9 -->
<g id="node10" class="node">
<title>9</title>
<path fill="#daedfa" stroke="black" d="M790.5,-187C790.5,-187 682.5,-187 682.5,-187 676.5,-187 670.5,-181 670.5,-175 670.5,-175 670.5,-116 670.5,-116 670.5,-110 676.5,-104 682.5,-104 682.5,-104 790.5,-104 790.5,-104 796.5,-104 802.5,-110 802.5,-116 802.5,-116 802.5,-175 802.5,-175 802.5,-181 796.5,-187 790.5,-187"/>
<text text-anchor="start" x="701" y="-171.8" font-family="Helvetica,sans-Serif" font-size="14.00">exang ≤ 0.5</text>
<text text-anchor="start" x="689" y="-156.8" font-family="Helvetica,sans-Serif" font-size="14.00">entropy = 0.992</text>
<text text-anchor="start" x="695.5" y="-141.8" font-family="Helvetica,sans-Serif" font-size="14.00">samples = 49</text>
<text text-anchor="start" x="678.5" y="-126.8" font-family="Helvetica,sans-Serif" font-size="14.00">value = [22.0, 27.0]</text>
<text text-anchor="start" x="686.5" y="-111.8" font-family="Helvetica,sans-Serif" font-size="14.00">class = Decease</text>
</g>
<!-- 8&#45;&gt;9 -->
<g id="edge9" class="edge">
<title>8&#45;&gt;9</title>
<path fill="none" stroke="black" d="M736.5,-222.91C736.5,-214.65 736.5,-205.86 736.5,-197.3"/>
<polygon fill="black" stroke="black" points="740,-197.02 736.5,-187.02 733,-197.02 740,-197.02"/>
</g>
<!-- 12 -->
<g id="node13" class="node">
<title>12</title>
<path fill="#47a4e7" stroke="black" d="M993.5,-187C993.5,-187 901.5,-187 901.5,-187 895.5,-187 889.5,-181 889.5,-175 889.5,-175 889.5,-116 889.5,-116 889.5,-110 895.5,-104 901.5,-104 901.5,-104 993.5,-104 993.5,-104 999.5,-104 1005.5,-110 1005.5,-116 1005.5,-116 1005.5,-175 1005.5,-175 1005.5,-181 999.5,-187 993.5,-187"/>
<text text-anchor="start" x="906.5" y="-171.8" font-family="Helvetica,sans-Serif" font-size="14.00">oldpeak ≤ 1.1</text>
<text text-anchor="start" x="900" y="-156.8" font-family="Helvetica,sans-Serif" font-size="14.00">entropy = 0.353</text>
<text text-anchor="start" x="906.5" y="-141.8" font-family="Helvetica,sans-Serif" font-size="14.00">samples = 60</text>
<text text-anchor="start" x="904.5" y="-126.8" font-family="Helvetica,sans-Serif" font-size="14.00">value = [4, 56]</text>
<text text-anchor="start" x="897.5" y="-111.8" font-family="Helvetica,sans-Serif" font-size="14.00">class = Decease</text>
</g>
<!-- 8&#45;&gt;12 -->
<g id="edge12" class="edge">
<title>8&#45;&gt;12</title>
<path fill="none" stroke="black" d="M794.72,-231.22C821.35,-216.45 853.06,-198.87 880.67,-183.56"/>
<polygon fill="black" stroke="black" points="882.43,-186.59 889.47,-178.68 879.03,-180.46 882.43,-186.59"/>
</g>
<!-- 10 -->
<g id="node11" class="node">
<title>10</title>
<path fill="#f1b991" stroke="black" d="M725,-68C725,-68 612,-68 612,-68 606,-68 600,-62 600,-56 600,-56 600,-12 600,-12 600,-6 606,0 612,0 612,0 725,0 725,0 731,0 737,-6 737,-12 737,-12 737,-56 737,-56 737,-62 731,-68 725,-68"/>
<text text-anchor="start" x="624.5" y="-52.8" font-family="Helvetica,sans-Serif" font-size="14.00">entropy = 0.89</text>
<text text-anchor="start" x="627.5" y="-37.8" font-family="Helvetica,sans-Serif" font-size="14.00">samples = 26</text>
<text text-anchor="start" x="625.5" y="-22.8" font-family="Helvetica,sans-Serif" font-size="14.00">value = [18, 8]</text>
<text text-anchor="start" x="608" y="-7.8" font-family="Helvetica,sans-Serif" font-size="14.00">class = No Decease</text>
</g>
<!-- 9&#45;&gt;10 -->
<g id="edge10" class="edge">
<title>9&#45;&gt;10</title>
<path fill="none" stroke="black" d="M711.18,-103.73C705.74,-94.97 699.99,-85.7 694.52,-76.91"/>
<polygon fill="black" stroke="black" points="697.43,-74.95 689.18,-68.3 691.48,-78.64 697.43,-74.95"/>
</g>
<!-- 11 -->
<g id="node12" class="node">
<title>11</title>
<path fill="#63b2ea" stroke="black" d="M859.5,-68C859.5,-68 767.5,-68 767.5,-68 761.5,-68 755.5,-62 755.5,-56 755.5,-56 755.5,-12 755.5,-12 755.5,-6 761.5,0 767.5,0 767.5,0 859.5,0 859.5,0 865.5,0 871.5,-6 871.5,-12 871.5,-12 871.5,-56 871.5,-56 871.5,-62 865.5,-68 859.5,-68"/>
<text text-anchor="start" x="766" y="-52.8" font-family="Helvetica,sans-Serif" font-size="14.00">entropy = 0.667</text>
<text text-anchor="start" x="772.5" y="-37.8" font-family="Helvetica,sans-Serif" font-size="14.00">samples = 23</text>
<text text-anchor="start" x="770.5" y="-22.8" font-family="Helvetica,sans-Serif" font-size="14.00">value = [4, 19]</text>
<text text-anchor="start" x="763.5" y="-7.8" font-family="Helvetica,sans-Serif" font-size="14.00">class = Decease</text>
</g>
<!-- 9&#45;&gt;11 -->
<g id="edge11" class="edge">
<title>9&#45;&gt;11</title>
<path fill="none" stroke="black" d="M765.17,-103.73C771.39,-94.88 777.98,-85.51 784.23,-76.63"/>
<polygon fill="black" stroke="black" points="787.19,-78.49 790.08,-68.3 781.47,-74.47 787.19,-78.49"/>
</g>
<!-- 13 -->
<g id="node14" class="node">
<title>13</title>
<path fill="#6ab6ec" stroke="black" d="M993.5,-68C993.5,-68 901.5,-68 901.5,-68 895.5,-68 889.5,-62 889.5,-56 889.5,-56 889.5,-12 889.5,-12 889.5,-6 895.5,0 901.5,0 901.5,0 993.5,0 993.5,0 999.5,0 1005.5,-6 1005.5,-12 1005.5,-12 1005.5,-56 1005.5,-56 1005.5,-62 999.5,-68 993.5,-68"/>
<text text-anchor="start" x="900" y="-52.8" font-family="Helvetica,sans-Serif" font-size="14.00">entropy = 0.722</text>
<text text-anchor="start" x="906.5" y="-37.8" font-family="Helvetica,sans-Serif" font-size="14.00">samples = 20</text>
<text text-anchor="start" x="904.5" y="-22.8" font-family="Helvetica,sans-Serif" font-size="14.00">value = [4, 16]</text>
<text text-anchor="start" x="897.5" y="-7.8" font-family="Helvetica,sans-Serif" font-size="14.00">class = Decease</text>
</g>
<!-- 12&#45;&gt;13 -->
<g id="edge13" class="edge">
<title>12&#45;&gt;13</title>
<path fill="none" stroke="black" d="M947.5,-103.73C947.5,-95.52 947.5,-86.86 947.5,-78.56"/>
<polygon fill="black" stroke="black" points="951,-78.3 947.5,-68.3 944,-78.3 951,-78.3"/>
</g>
<!-- 14 -->
<g id="node15" class="node">
<title>14</title>
<path fill="#399de5" stroke="black" d="M1127.5,-68C1127.5,-68 1035.5,-68 1035.5,-68 1029.5,-68 1023.5,-62 1023.5,-56 1023.5,-56 1023.5,-12 1023.5,-12 1023.5,-6 1029.5,0 1035.5,0 1035.5,0 1127.5,0 1127.5,0 1133.5,0 1139.5,-6 1139.5,-12 1139.5,-12 1139.5,-56 1139.5,-56 1139.5,-62 1133.5,-68 1127.5,-68"/>
<text text-anchor="start" x="1041.5" y="-52.8" font-family="Helvetica,sans-Serif" font-size="14.00">entropy = 0.0</text>
<text text-anchor="start" x="1040.5" y="-37.8" font-family="Helvetica,sans-Serif" font-size="14.00">samples = 40</text>
<text text-anchor="start" x="1038.5" y="-22.8" font-family="Helvetica,sans-Serif" font-size="14.00">value = [0, 40]</text>
<text text-anchor="start" x="1031.5" y="-7.8" font-family="Helvetica,sans-Serif" font-size="14.00">class = Decease</text>
</g>
<!-- 12&#45;&gt;14 -->
<g id="edge14" class="edge">
<title>12&#45;&gt;14</title>
<path fill="none" stroke="black" d="M997.4,-103.73C1009,-94.24 1021.35,-84.16 1032.9,-74.72"/>
<polygon fill="black" stroke="black" points="1035.22,-77.34 1040.75,-68.3 1030.79,-71.92 1035.22,-77.34"/>
</g>
</g>
</svg>
