<?xml version="1.0" encoding="UTF-8" standalone="no"?>
<!DOCTYPE svg PUBLIC "-//W3C//DTD SVG 1.1//EN"
 "http://www.w3.org/Graphics/SVG/1.1/DTD/svg11.dtd">
<!-- Generated by graphviz version 2.50.0 (0)
 -->
<!-- Title: Tree Pages: 1 -->
<svg width="1733pt" height="552pt"
 viewBox="0.00 0.00 1732.50 552.00" xmlns="http://www.w3.org/2000/svg" xmlns:xlink="http://www.w3.org/1999/xlink">
<g id="graph0" class="graph" transform="scale(1 1) rotate(0) translate(4 548)">
<title>Tree</title>
<polygon fill="white" stroke="transparent" points="-4,4 -4,-548 1728.5,-548 1728.5,4 -4,4"/>
<!-- 0 -->
<g id="node1" class="node">
<title>0</title>
<path fill="#fbece2" stroke="black" d="M804,-544C804,-544 681,-544 681,-544 675,-544 669,-538 669,-532 669,-532 669,-473 669,-473 669,-467 675,-461 681,-461 681,-461 804,-461 804,-461 810,-461 816,-467 816,-473 816,-473 816,-532 816,-532 816,-538 810,-544 804,-544"/>
<text text-anchor="start" x="714.5" y="-528.8" font-family="Helvetica,sans-Serif" font-size="14.00">thal ≤ 4.5</text>
<text text-anchor="start" x="695" y="-513.8" font-family="Helvetica,sans-Serif" font-size="14.00">entropy = 0.995</text>
<text text-anchor="start" x="697.5" y="-498.8" font-family="Helvetica,sans-Serif" font-size="14.00">samples = 237</text>
<text text-anchor="start" x="677" y="-483.8" font-family="Helvetica,sans-Serif" font-size="14.00">value = [128.0, 109.0]</text>
<text text-anchor="start" x="682" y="-468.8" font-family="Helvetica,sans-Serif" font-size="14.00">class = No Decease</text>
</g>
<!-- 1 -->
<g id="node2" class="node">
<title>1</title>
<path fill="#eca36f" stroke="black" d="M654,-425C654,-425 541,-425 541,-425 535,-425 529,-419 529,-413 529,-413 529,-354 529,-354 529,-348 535,-342 541,-342 541,-342 654,-342 654,-342 660,-342 666,-348 666,-354 666,-354 666,-413 666,-413 666,-419 660,-425 654,-425"/>
<text text-anchor="start" x="573" y="-409.8" font-family="Helvetica,sans-Serif" font-size="14.00">ca ≤ 0.5</text>
<text text-anchor="start" x="553.5" y="-394.8" font-family="Helvetica,sans-Serif" font-size="14.00">entropy = 0.75</text>
<text text-anchor="start" x="552.5" y="-379.8" font-family="Helvetica,sans-Serif" font-size="14.00">samples = 126</text>
<text text-anchor="start" x="550.5" y="-364.8" font-family="Helvetica,sans-Serif" font-size="14.00">value = [99, 27]</text>
<text text-anchor="start" x="537" y="-349.8" font-family="Helvetica,sans-Serif" font-size="14.00">class = No Decease</text>
</g>
<!-- 0&#45;&gt;1 -->
<g id="edge1" class="edge">
<title>0&#45;&gt;1</title>
<path fill="none" stroke="black" d="M692.19,-460.91C680.38,-451.38 667.71,-441.15 655.59,-431.37"/>
<polygon fill="black" stroke="black" points="657.7,-428.58 647.72,-425.02 653.3,-434.02 657.7,-428.58"/>
<text text-anchor="middle" x="650.37" y="-446.18" font-family="Helvetica,sans-Serif" font-size="14.00">True</text>
</g>
<!-- 14 -->
<g id="node15" class="node">
<title>14</title>
<path fill="#7fc0ee" stroke="black" d="M1014.5,-425C1014.5,-425 922.5,-425 922.5,-425 916.5,-425 910.5,-419 910.5,-413 910.5,-413 910.5,-354 910.5,-354 910.5,-348 916.5,-342 922.5,-342 922.5,-342 1014.5,-342 1014.5,-342 1020.5,-342 1026.5,-348 1026.5,-354 1026.5,-354 1026.5,-413 1026.5,-413 1026.5,-419 1020.5,-425 1014.5,-425"/>
<text text-anchor="start" x="944" y="-409.8" font-family="Helvetica,sans-Serif" font-size="14.00">cp ≤ 3.5</text>
<text text-anchor="start" x="921" y="-394.8" font-family="Helvetica,sans-Serif" font-size="14.00">entropy = 0.829</text>
<text text-anchor="start" x="924.5" y="-379.8" font-family="Helvetica,sans-Serif" font-size="14.00">samples = 111</text>
<text text-anchor="start" x="921.5" y="-364.8" font-family="Helvetica,sans-Serif" font-size="14.00">value = [29, 82]</text>
<text text-anchor="start" x="918.5" y="-349.8" font-family="Helvetica,sans-Serif" font-size="14.00">class = Decease</text>
</g>
<!-- 0&#45;&gt;14 -->
<g id="edge14" class="edge">
<title>0&#45;&gt;14</title>
<path fill="none" stroke="black" d="M816.19,-463.35C843.62,-449.15 874.57,-433.13 901.38,-419.25"/>
<polygon fill="black" stroke="black" points="903.03,-422.33 910.3,-414.63 899.81,-416.12 903.03,-422.33"/>
<text text-anchor="middle" x="902.73" y="-434.75" font-family="Helvetica,sans-Serif" font-size="14.00">False</text>
</g>
<!-- 2 -->
<g id="node3" class="node">
<title>2</title>
<path fill="#e89253" stroke="black" d="M423,-306C423,-306 310,-306 310,-306 304,-306 298,-300 298,-294 298,-294 298,-235 298,-235 298,-229 304,-223 310,-223 310,-223 423,-223 423,-223 429,-223 435,-229 435,-235 435,-235 435,-294 435,-294 435,-300 429,-306 423,-306"/>
<text text-anchor="start" x="320" y="-290.8" font-family="Helvetica,sans-Serif" font-size="14.00">thalach ≤ 169.5</text>
<text text-anchor="start" x="319" y="-275.8" font-family="Helvetica,sans-Serif" font-size="14.00">entropy = 0.519</text>
<text text-anchor="start" x="325.5" y="-260.8" font-family="Helvetica,sans-Serif" font-size="14.00">samples = 86</text>
<text text-anchor="start" x="319.5" y="-245.8" font-family="Helvetica,sans-Serif" font-size="14.00">value = [76, 10]</text>
<text text-anchor="start" x="306" y="-230.8" font-family="Helvetica,sans-Serif" font-size="14.00">class = No Decease</text>
</g>
<!-- 1&#45;&gt;2 -->
<g id="edge2" class="edge">
<title>1&#45;&gt;2</title>
<path fill="none" stroke="black" d="M528.82,-347.71C502.29,-334.28 471.8,-318.83 444.46,-304.99"/>
<polygon fill="black" stroke="black" points="445.82,-301.75 435.32,-300.36 442.66,-308 445.82,-301.75"/>
</g>
<!-- 7 -->
<g id="node8" class="node">
<title>7</title>
<path fill="#f8decb" stroke="black" d="M654,-306C654,-306 541,-306 541,-306 535,-306 529,-300 529,-294 529,-294 529,-235 529,-235 529,-229 535,-223 541,-223 541,-223 654,-223 654,-223 660,-223 666,-229 666,-235 666,-235 666,-294 666,-294 666,-300 660,-306 654,-306"/>
<text text-anchor="start" x="573" y="-290.8" font-family="Helvetica,sans-Serif" font-size="14.00">cp ≤ 3.5</text>
<text text-anchor="start" x="550" y="-275.8" font-family="Helvetica,sans-Serif" font-size="14.00">entropy = 0.984</text>
<text text-anchor="start" x="556.5" y="-260.8" font-family="Helvetica,sans-Serif" font-size="14.00">samples = 40</text>
<text text-anchor="start" x="550.5" y="-245.8" font-family="Helvetica,sans-Serif" font-size="14.00">value = [23, 17]</text>
<text text-anchor="start" x="537" y="-230.8" font-family="Helvetica,sans-Serif" font-size="14.00">class = No Decease</text>
</g>
<!-- 1&#45;&gt;7 -->
<g id="edge7" class="edge">
<title>1&#45;&gt;7</title>
<path fill="none" stroke="black" d="M597.5,-341.91C597.5,-333.65 597.5,-324.86 597.5,-316.3"/>
<polygon fill="black" stroke="black" points="601,-316.02 597.5,-306.02 594,-316.02 601,-316.02"/>
</g>
<!-- 3 -->
<g id="node4" class="node">
<title>3</title>
<path fill="#eb9d65" stroke="black" d="M268,-187C268,-187 155,-187 155,-187 149,-187 143,-181 143,-175 143,-175 143,-116 143,-116 143,-110 149,-104 155,-104 155,-104 268,-104 268,-104 274,-104 280,-110 280,-116 280,-116 280,-175 280,-175 280,-181 274,-187 268,-187"/>
<text text-anchor="start" x="170.5" y="-171.8" font-family="Helvetica,sans-Serif" font-size="14.00">oldpeak ≤ 3.2</text>
<text text-anchor="start" x="164" y="-156.8" font-family="Helvetica,sans-Serif" font-size="14.00">entropy = 0.684</text>
<text text-anchor="start" x="170.5" y="-141.8" font-family="Helvetica,sans-Serif" font-size="14.00">samples = 55</text>
<text text-anchor="start" x="164.5" y="-126.8" font-family="Helvetica,sans-Serif" font-size="14.00">value = [45, 10]</text>
<text text-anchor="start" x="151" y="-111.8" font-family="Helvetica,sans-Serif" font-size="14.00">class = No Decease</text>
</g>
<!-- 2&#45;&gt;3 -->
<g id="edge3" class="edge">
<title>2&#45;&gt;3</title>
<path fill="none" stroke="black" d="M312.72,-222.91C299.98,-213.29 286.29,-202.95 273.22,-193.09"/>
<polygon fill="black" stroke="black" points="275.27,-190.25 265.18,-187.02 271.05,-195.84 275.27,-190.25"/>
</g>
<!-- 6 -->
<g id="node7" class="node">
<title>6</title>
<path fill="#e58139" stroke="black" d="M423,-179.5C423,-179.5 310,-179.5 310,-179.5 304,-179.5 298,-173.5 298,-167.5 298,-167.5 298,-123.5 298,-123.5 298,-117.5 304,-111.5 310,-111.5 310,-111.5 423,-111.5 423,-111.5 429,-111.5 435,-117.5 435,-123.5 435,-123.5 435,-167.5 435,-167.5 435,-173.5 429,-179.5 423,-179.5"/>
<text text-anchor="start" x="326.5" y="-164.3" font-family="Helvetica,sans-Serif" font-size="14.00">entropy = 0.0</text>
<text text-anchor="start" x="325.5" y="-149.3" font-family="Helvetica,sans-Serif" font-size="14.00">samples = 31</text>
<text text-anchor="start" x="323.5" y="-134.3" font-family="Helvetica,sans-Serif" font-size="14.00">value = [31, 0]</text>
<text text-anchor="start" x="306" y="-119.3" font-family="Helvetica,sans-Serif" font-size="14.00">class = No Decease</text>
</g>
<!-- 2&#45;&gt;6 -->
<g id="edge6" class="edge">
<title>2&#45;&gt;6</title>
<path fill="none" stroke="black" d="M366.5,-222.91C366.5,-212.2 366.5,-200.62 366.5,-189.78"/>
<polygon fill="black" stroke="black" points="370,-189.67 366.5,-179.67 363,-189.67 370,-189.67"/>
</g>
<!-- 4 -->
<g id="node5" class="node">
<title>4</title>
<path fill="#ea975c" stroke="black" d="M125,-68C125,-68 12,-68 12,-68 6,-68 0,-62 0,-56 0,-56 0,-12 0,-12 0,-6 6,0 12,0 12,0 125,0 125,0 131,0 137,-6 137,-12 137,-12 137,-56 137,-56 137,-62 131,-68 125,-68"/>
<text text-anchor="start" x="21" y="-52.8" font-family="Helvetica,sans-Serif" font-size="14.00">entropy = 0.612</text>
<text text-anchor="start" x="27.5" y="-37.8" font-family="Helvetica,sans-Serif" font-size="14.00">samples = 53</text>
<text text-anchor="start" x="25.5" y="-22.8" font-family="Helvetica,sans-Serif" font-size="14.00">value = [45, 8]</text>
<text text-anchor="start" x="8" y="-7.8" font-family="Helvetica,sans-Serif" font-size="14.00">class = No Decease</text>
</g>
<!-- 3&#45;&gt;4 -->
<g id="edge4" class="edge">
<title>3&#45;&gt;4</title>
<path fill="none" stroke="black" d="M158.25,-103.73C145.75,-94.15 132.44,-83.96 120.01,-74.44"/>
<polygon fill="black" stroke="black" points="122.05,-71.6 111.99,-68.3 117.8,-77.16 122.05,-71.6"/>
</g>
<!-- 5 -->
<g id="node6" class="node">
<title>5</title>
<path fill="#399de5" stroke="black" d="M259.5,-68C259.5,-68 167.5,-68 167.5,-68 161.5,-68 155.5,-62 155.5,-56 155.5,-56 155.5,-12 155.5,-12 155.5,-6 161.5,0 167.5,0 167.5,0 259.5,0 259.5,0 265.5,0 271.5,-6 271.5,-12 271.5,-12 271.5,-56 271.5,-56 271.5,-62 265.5,-68 259.5,-68"/>
<text text-anchor="start" x="173.5" y="-52.8" font-family="Helvetica,sans-Serif" font-size="14.00">entropy = 0.0</text>
<text text-anchor="start" x="176" y="-37.8" font-family="Helvetica,sans-Serif" font-size="14.00">samples = 2</text>
<text text-anchor="start" x="174" y="-22.8" font-family="Helvetica,sans-Serif" font-size="14.00">value = [0, 2]</text>
<text text-anchor="start" x="163.5" y="-7.8" font-family="Helvetica,sans-Serif" font-size="14.00">class = Decease</text>
</g>
<!-- 3&#45;&gt;5 -->
<g id="edge5" class="edge">
<title>3&#45;&gt;5</title>
<path fill="none" stroke="black" d="M212.24,-103.73C212.39,-95.52 212.55,-86.86 212.7,-78.56"/>
<polygon fill="black" stroke="black" points="216.21,-78.36 212.89,-68.3 209.21,-78.23 216.21,-78.36"/>
</g>
<!-- 8 -->
<g id="node9" class="node">
<title>8</title>
<path fill="#eb9f68" stroke="black" d="M578,-187C578,-187 465,-187 465,-187 459,-187 453,-181 453,-175 453,-175 453,-116 453,-116 453,-110 459,-104 465,-104 465,-104 578,-104 578,-104 584,-104 590,-110 590,-116 590,-116 590,-175 590,-175 590,-181 584,-187 578,-187"/>
<text text-anchor="start" x="497" y="-171.8" font-family="Helvetica,sans-Serif" font-size="14.00">cp ≤ 2.5</text>
<text text-anchor="start" x="474" y="-156.8" font-family="Helvetica,sans-Serif" font-size="14.00">entropy = 0.706</text>
<text text-anchor="start" x="480.5" y="-141.8" font-family="Helvetica,sans-Serif" font-size="14.00">samples = 26</text>
<text text-anchor="start" x="478.5" y="-126.8" font-family="Helvetica,sans-Serif" font-size="14.00">value = [21, 5]</text>
<text text-anchor="start" x="461" y="-111.8" font-family="Helvetica,sans-Serif" font-size="14.00">class = No Decease</text>
</g>
<!-- 7&#45;&gt;8 -->
<g id="edge8" class="edge">
<title>7&#45;&gt;8</title>
<path fill="none" stroke="black" d="M571.13,-222.91C565.41,-214.1 559.31,-204.7 553.4,-195.61"/>
<polygon fill="black" stroke="black" points="556.2,-193.5 547.82,-187.02 550.33,-197.31 556.2,-193.5"/>
</g>
<!-- 11 -->
<g id="node12" class="node">
<title>11</title>
<path fill="#5aade9" stroke="black" d="M719.5,-187C719.5,-187 627.5,-187 627.5,-187 621.5,-187 615.5,-181 615.5,-175 615.5,-175 615.5,-116 615.5,-116 615.5,-110 621.5,-104 627.5,-104 627.5,-104 719.5,-104 719.5,-104 725.5,-104 731.5,-110 731.5,-116 731.5,-116 731.5,-175 731.5,-175 731.5,-181 725.5,-187 719.5,-187"/>
<text text-anchor="start" x="646" y="-171.8" font-family="Helvetica,sans-Serif" font-size="14.00">sex ≤ 0.5</text>
<text text-anchor="start" x="626" y="-156.8" font-family="Helvetica,sans-Serif" font-size="14.00">entropy = 0.592</text>
<text text-anchor="start" x="632.5" y="-141.8" font-family="Helvetica,sans-Serif" font-size="14.00">samples = 14</text>
<text text-anchor="start" x="630.5" y="-126.8" font-family="Helvetica,sans-Serif" font-size="14.00">value = [2, 12]</text>
<text text-anchor="start" x="623.5" y="-111.8" font-family="Helvetica,sans-Serif" font-size="14.00">class = Decease</text>
</g>
<!-- 7&#45;&gt;11 -->
<g id="edge11" class="edge">
<title>7&#45;&gt;11</title>
<path fill="none" stroke="black" d="M623.87,-222.91C629.59,-214.1 635.69,-204.7 641.6,-195.61"/>
<polygon fill="black" stroke="black" points="644.67,-197.31 647.18,-187.02 638.8,-193.5 644.67,-197.31"/>
</g>
<!-- 9 -->
<g id="node10" class="node">
<title>9</title>
<path fill="#f3c7a7" stroke="black" d="M420,-68C420,-68 307,-68 307,-68 301,-68 295,-62 295,-56 295,-56 295,-12 295,-12 295,-6 301,0 307,0 307,0 420,0 420,0 426,0 432,-6 432,-12 432,-12 432,-56 432,-56 432,-62 426,-68 420,-68"/>
<text text-anchor="start" x="319.5" y="-52.8" font-family="Helvetica,sans-Serif" font-size="14.00">entropy = 0.94</text>
<text text-anchor="start" x="322.5" y="-37.8" font-family="Helvetica,sans-Serif" font-size="14.00">samples = 14</text>
<text text-anchor="start" x="324" y="-22.8" font-family="Helvetica,sans-Serif" font-size="14.00">value = [9, 5]</text>
<text text-anchor="start" x="303" y="-7.8" font-family="Helvetica,sans-Serif" font-size="14.00">class = No Decease</text>
</g>
<!-- 8&#45;&gt;9 -->
<g id="edge9" class="edge">
<title>8&#45;&gt;9</title>
<path fill="none" stroke="black" d="M462.67,-103.73C448.64,-94.01 433.71,-83.66 419.81,-74.02"/>
<polygon fill="black" stroke="black" points="421.51,-70.94 411.3,-68.13 417.52,-76.7 421.51,-70.94"/>
</g>
<!-- 10 -->
<g id="node11" class="node">
<title>10</title>
<path fill="#e58139" stroke="black" d="M575,-68C575,-68 462,-68 462,-68 456,-68 450,-62 450,-56 450,-56 450,-12 450,-12 450,-6 456,0 462,0 462,0 575,0 575,0 581,0 587,-6 587,-12 587,-12 587,-56 587,-56 587,-62 581,-68 575,-68"/>
<text text-anchor="start" x="478.5" y="-52.8" font-family="Helvetica,sans-Serif" font-size="14.00">entropy = 0.0</text>
<text text-anchor="start" x="477.5" y="-37.8" font-family="Helvetica,sans-Serif" font-size="14.00">samples = 12</text>
<text text-anchor="start" x="475.5" y="-22.8" font-family="Helvetica,sans-Serif" font-size="14.00">value = [12, 0]</text>
<text text-anchor="start" x="458" y="-7.8" font-family="Helvetica,sans-Serif" font-size="14.00">class = No Decease</text>
</g>
<!-- 8&#45;&gt;10 -->
<g id="edge10" class="edge">
<title>8&#45;&gt;10</title>
<path fill="none" stroke="black" d="M520.38,-103.73C520.16,-95.52 519.92,-86.86 519.69,-78.56"/>
<polygon fill="black" stroke="black" points="523.18,-78.2 519.41,-68.3 516.19,-78.39 523.18,-78.2"/>
</g>
<!-- 12 -->
<g id="node13" class="node">
<title>12</title>
<path fill="#ffffff" stroke="black" d="M730,-68C730,-68 617,-68 617,-68 611,-68 605,-62 605,-56 605,-56 605,-12 605,-12 605,-6 611,0 617,0 617,0 730,0 730,0 736,0 742,-6 742,-12 742,-12 742,-56 742,-56 742,-62 736,-68 730,-68"/>
<text text-anchor="start" x="633.5" y="-52.8" font-family="Helvetica,sans-Serif" font-size="14.00">entropy = 1.0</text>
<text text-anchor="start" x="636" y="-37.8" font-family="Helvetica,sans-Serif" font-size="14.00">samples = 4</text>
<text text-anchor="start" x="634" y="-22.8" font-family="Helvetica,sans-Serif" font-size="14.00">value = [2, 2]</text>
<text text-anchor="start" x="613" y="-7.8" font-family="Helvetica,sans-Serif" font-size="14.00">class = No Decease</text>
</g>
<!-- 11&#45;&gt;12 -->
<g id="edge12" class="edge">
<title>11&#45;&gt;12</title>
<path fill="none" stroke="black" d="M673.5,-103.73C673.5,-95.52 673.5,-86.86 673.5,-78.56"/>
<polygon fill="black" stroke="black" points="677,-78.3 673.5,-68.3 670,-78.3 677,-78.3"/>
</g>
<!-- 13 -->
<g id="node14" class="node">
<title>13</title>
<path fill="#399de5" stroke="black" d="M864.5,-68C864.5,-68 772.5,-68 772.5,-68 766.5,-68 760.5,-62 760.5,-56 760.5,-56 760.5,-12 760.5,-12 760.5,-6 766.5,0 772.5,0 772.5,0 864.5,0 864.5,0 870.5,0 876.5,-6 876.5,-12 876.5,-12 876.5,-56 876.5,-56 876.5,-62 870.5,-68 864.5,-68"/>
<text text-anchor="start" x="778.5" y="-52.8" font-family="Helvetica,sans-Serif" font-size="14.00">entropy = 0.0</text>
<text text-anchor="start" x="777.5" y="-37.8" font-family="Helvetica,sans-Serif" font-size="14.00">samples = 10</text>
<text text-anchor="start" x="775.5" y="-22.8" font-family="Helvetica,sans-Serif" font-size="14.00">value = [0, 10]</text>
<text text-anchor="start" x="768.5" y="-7.8" font-family="Helvetica,sans-Serif" font-size="14.00">class = Decease</text>
</g>
<!-- 11&#45;&gt;13 -->
<g id="edge13" class="edge">
<title>11&#45;&gt;13</title>
<path fill="none" stroke="black" d="M727.49,-103.73C740.17,-94.15 753.67,-83.96 766.27,-74.44"/>
<polygon fill="black" stroke="black" points="768.53,-77.12 774.4,-68.3 764.32,-71.53 768.53,-77.12"/>
</g>
<!-- 15 -->
<g id="node16" class="node">
<title>15</title>
<path fill="#f8e0ce" stroke="black" d="M1025,-306C1025,-306 912,-306 912,-306 906,-306 900,-300 900,-294 900,-294 900,-235 900,-235 900,-229 906,-223 912,-223 912,-223 1025,-223 1025,-223 1031,-223 1037,-229 1037,-235 1037,-235 1037,-294 1037,-294 1037,-300 1031,-306 1025,-306"/>
<text text-anchor="start" x="931.5" y="-290.8" font-family="Helvetica,sans-Serif" font-size="14.00">chol ≤ 210.5</text>
<text text-anchor="start" x="921" y="-275.8" font-family="Helvetica,sans-Serif" font-size="14.00">entropy = 0.985</text>
<text text-anchor="start" x="927.5" y="-260.8" font-family="Helvetica,sans-Serif" font-size="14.00">samples = 35</text>
<text text-anchor="start" x="921.5" y="-245.8" font-family="Helvetica,sans-Serif" font-size="14.00">value = [20, 15]</text>
<text text-anchor="start" x="908" y="-230.8" font-family="Helvetica,sans-Serif" font-size="14.00">class = No Decease</text>
</g>
<!-- 14&#45;&gt;15 -->
<g id="edge15" class="edge">
<title>14&#45;&gt;15</title>
<path fill="none" stroke="black" d="M968.5,-341.91C968.5,-333.65 968.5,-324.86 968.5,-316.3"/>
<polygon fill="black" stroke="black" points="972,-316.02 968.5,-306.02 965,-316.02 972,-316.02"/>
</g>
<!-- 20 -->
<g id="node21" class="node">
<title>20</title>
<path fill="#54aae8" stroke="black" d="M1371.5,-306C1371.5,-306 1279.5,-306 1279.5,-306 1273.5,-306 1267.5,-300 1267.5,-294 1267.5,-294 1267.5,-235 1267.5,-235 1267.5,-229 1273.5,-223 1279.5,-223 1279.5,-223 1371.5,-223 1371.5,-223 1377.5,-223 1383.5,-229 1383.5,-235 1383.5,-235 1383.5,-294 1383.5,-294 1383.5,-300 1377.5,-306 1371.5,-306"/>
<text text-anchor="start" x="1281" y="-290.8" font-family="Helvetica,sans-Serif" font-size="14.00">oldpeak ≤ 0.45</text>
<text text-anchor="start" x="1278" y="-275.8" font-family="Helvetica,sans-Serif" font-size="14.00">entropy = 0.525</text>
<text text-anchor="start" x="1284.5" y="-260.8" font-family="Helvetica,sans-Serif" font-size="14.00">samples = 76</text>
<text text-anchor="start" x="1282.5" y="-245.8" font-family="Helvetica,sans-Serif" font-size="14.00">value = [9, 67]</text>
<text text-anchor="start" x="1275.5" y="-230.8" font-family="Helvetica,sans-Serif" font-size="14.00">class = Decease</text>
</g>
<!-- 14&#45;&gt;20 -->
<g id="edge20" class="edge">
<title>14&#45;&gt;20</title>
<path fill="none" stroke="black" d="M1026.65,-363.44C1089.93,-342.7 1190.97,-309.59 1257.77,-287.7"/>
<polygon fill="black" stroke="black" points="1258.96,-290.99 1267.37,-284.55 1256.78,-284.34 1258.96,-290.99"/>
</g>
<!-- 16 -->
<g id="node17" class="node">
<title>16</title>
<path fill="#e58139" stroke="black" d="M953,-179.5C953,-179.5 840,-179.5 840,-179.5 834,-179.5 828,-173.5 828,-167.5 828,-167.5 828,-123.5 828,-123.5 828,-117.5 834,-111.5 840,-111.5 840,-111.5 953,-111.5 953,-111.5 959,-111.5 965,-117.5 965,-123.5 965,-123.5 965,-167.5 965,-167.5 965,-173.5 959,-179.5 953,-179.5"/>
<text text-anchor="start" x="856.5" y="-164.3" font-family="Helvetica,sans-Serif" font-size="14.00">entropy = 0.0</text>
<text text-anchor="start" x="859" y="-149.3" font-family="Helvetica,sans-Serif" font-size="14.00">samples = 7</text>
<text text-anchor="start" x="857" y="-134.3" font-family="Helvetica,sans-Serif" font-size="14.00">value = [7, 0]</text>
<text text-anchor="start" x="836" y="-119.3" font-family="Helvetica,sans-Serif" font-size="14.00">class = No Decease</text>
</g>
<!-- 15&#45;&gt;16 -->
<g id="edge16" class="edge">
<title>15&#45;&gt;16</title>
<path fill="none" stroke="black" d="M943.52,-222.91C936.66,-211.76 929.21,-199.66 922.31,-188.44"/>
<polygon fill="black" stroke="black" points="925.13,-186.35 916.91,-179.67 919.17,-190.02 925.13,-186.35"/>
</g>
<!-- 17 -->
<g id="node18" class="node">
<title>17</title>
<path fill="#e5f2fc" stroke="black" d="M1087.5,-187C1087.5,-187 995.5,-187 995.5,-187 989.5,-187 983.5,-181 983.5,-175 983.5,-175 983.5,-116 983.5,-116 983.5,-110 989.5,-104 995.5,-104 995.5,-104 1087.5,-104 1087.5,-104 1093.5,-104 1099.5,-110 1099.5,-116 1099.5,-116 1099.5,-175 1099.5,-175 1099.5,-181 1093.5,-187 1087.5,-187"/>
<text text-anchor="start" x="993" y="-171.8" font-family="Helvetica,sans-Serif" font-size="14.00">trestbps ≤ 156.0</text>
<text text-anchor="start" x="994" y="-156.8" font-family="Helvetica,sans-Serif" font-size="14.00">entropy = 0.996</text>
<text text-anchor="start" x="1000.5" y="-141.8" font-family="Helvetica,sans-Serif" font-size="14.00">samples = 28</text>
<text text-anchor="start" x="994.5" y="-126.8" font-family="Helvetica,sans-Serif" font-size="14.00">value = [13, 15]</text>
<text text-anchor="start" x="991.5" y="-111.8" font-family="Helvetica,sans-Serif" font-size="14.00">class = Decease</text>
</g>
<!-- 15&#45;&gt;17 -->
<g id="edge17" class="edge">
<title>15&#45;&gt;17</title>
<path fill="none" stroke="black" d="M993.83,-222.91C999.32,-214.1 1005.19,-204.7 1010.86,-195.61"/>
<polygon fill="black" stroke="black" points="1013.89,-197.36 1016.22,-187.02 1007.95,-193.65 1013.89,-197.36"/>
</g>
<!-- 18 -->
<g id="node19" class="node">
<title>18</title>
<path fill="#fbece1" stroke="black" d="M1020,-68C1020,-68 907,-68 907,-68 901,-68 895,-62 895,-56 895,-56 895,-12 895,-12 895,-6 901,0 907,0 907,0 1020,0 1020,0 1026,0 1032,-6 1032,-12 1032,-12 1032,-56 1032,-56 1032,-62 1026,-68 1020,-68"/>
<text text-anchor="start" x="916" y="-52.8" font-family="Helvetica,sans-Serif" font-size="14.00">entropy = 0.995</text>
<text text-anchor="start" x="922.5" y="-37.8" font-family="Helvetica,sans-Serif" font-size="14.00">samples = 24</text>
<text text-anchor="start" x="917" y="-22.8" font-family="Helvetica,sans-Serif" font-size="14.00">value = [13, 11]</text>
<text text-anchor="start" x="903" y="-7.8" font-family="Helvetica,sans-Serif" font-size="14.00">class = No Decease</text>
</g>
<!-- 17&#45;&gt;18 -->
<g id="edge18" class="edge">
<title>17&#45;&gt;18</title>
<path fill="none" stroke="black" d="M1012.46,-103.73C1006.15,-94.88 999.48,-85.51 993.15,-76.63"/>
<polygon fill="black" stroke="black" points="995.87,-74.41 987.22,-68.3 990.17,-78.48 995.87,-74.41"/>
</g>
<!-- 19 -->
<g id="node20" class="node">
<title>19</title>
<path fill="#399de5" stroke="black" d="M1154.5,-68C1154.5,-68 1062.5,-68 1062.5,-68 1056.5,-68 1050.5,-62 1050.5,-56 1050.5,-56 1050.5,-12 1050.5,-12 1050.5,-6 1056.5,0 1062.5,0 1062.5,0 1154.5,0 1154.5,0 1160.5,0 1166.5,-6 1166.5,-12 1166.5,-12 1166.5,-56 1166.5,-56 1166.5,-62 1160.5,-68 1154.5,-68"/>
<text text-anchor="start" x="1068.5" y="-52.8" font-family="Helvetica,sans-Serif" font-size="14.00">entropy = 0.0</text>
<text text-anchor="start" x="1071" y="-37.8" font-family="Helvetica,sans-Serif" font-size="14.00">samples = 4</text>
<text text-anchor="start" x="1069" y="-22.8" font-family="Helvetica,sans-Serif" font-size="14.00">value = [0, 4]</text>
<text text-anchor="start" x="1058.5" y="-7.8" font-family="Helvetica,sans-Serif" font-size="14.00">class = Decease</text>
</g>
<!-- 17&#45;&gt;19 -->
<g id="edge19" class="edge">
<title>17&#45;&gt;19</title>
<path fill="none" stroke="black" d="M1066.45,-103.73C1071.81,-94.97 1077.48,-85.7 1082.86,-76.91"/>
<polygon fill="black" stroke="black" points="1085.89,-78.66 1088.12,-68.3 1079.92,-75 1085.89,-78.66"/>
</g>
<!-- 21 -->
<g id="node22" class="node">
<title>21</title>
<path fill="#c4e2f7" stroke="black" d="M1371.5,-187C1371.5,-187 1279.5,-187 1279.5,-187 1273.5,-187 1267.5,-181 1267.5,-175 1267.5,-175 1267.5,-116 1267.5,-116 1267.5,-110 1273.5,-104 1279.5,-104 1279.5,-104 1371.5,-104 1371.5,-104 1377.5,-104 1383.5,-110 1383.5,-116 1383.5,-116 1383.5,-175 1383.5,-175 1383.5,-181 1377.5,-187 1371.5,-187"/>
<text text-anchor="start" x="1279" y="-171.8" font-family="Helvetica,sans-Serif" font-size="14.00">thalach ≤ 149.0</text>
<text text-anchor="start" x="1278" y="-156.8" font-family="Helvetica,sans-Serif" font-size="14.00">entropy = 0.977</text>
<text text-anchor="start" x="1284.5" y="-141.8" font-family="Helvetica,sans-Serif" font-size="14.00">samples = 17</text>
<text text-anchor="start" x="1282.5" y="-126.8" font-family="Helvetica,sans-Serif" font-size="14.00">value = [7, 10]</text>
<text text-anchor="start" x="1275.5" y="-111.8" font-family="Helvetica,sans-Serif" font-size="14.00">class = Decease</text>
</g>
<!-- 20&#45;&gt;21 -->
<g id="edge21" class="edge">
<title>20&#45;&gt;21</title>
<path fill="none" stroke="black" d="M1325.5,-222.91C1325.5,-214.65 1325.5,-205.86 1325.5,-197.3"/>
<polygon fill="black" stroke="black" points="1329,-197.02 1325.5,-187.02 1322,-197.02 1329,-197.02"/>
</g>
<!-- 24 -->
<g id="node25" class="node">
<title>24</title>
<path fill="#40a0e6" stroke="black" d="M1578.5,-187C1578.5,-187 1486.5,-187 1486.5,-187 1480.5,-187 1474.5,-181 1474.5,-175 1474.5,-175 1474.5,-116 1474.5,-116 1474.5,-110 1480.5,-104 1486.5,-104 1486.5,-104 1578.5,-104 1578.5,-104 1584.5,-104 1590.5,-110 1590.5,-116 1590.5,-116 1590.5,-175 1590.5,-175 1590.5,-181 1584.5,-187 1578.5,-187"/>
<text text-anchor="start" x="1504.5" y="-171.8" font-family="Helvetica,sans-Serif" font-size="14.00">thal ≤ 6.5</text>
<text text-anchor="start" x="1485" y="-156.8" font-family="Helvetica,sans-Serif" font-size="14.00">entropy = 0.214</text>
<text text-anchor="start" x="1491.5" y="-141.8" font-family="Helvetica,sans-Serif" font-size="14.00">samples = 59</text>
<text text-anchor="start" x="1489.5" y="-126.8" font-family="Helvetica,sans-Serif" font-size="14.00">value = [2, 57]</text>
<text text-anchor="start" x="1482.5" y="-111.8" font-family="Helvetica,sans-Serif" font-size="14.00">class = Decease</text>
</g>
<!-- 20&#45;&gt;24 -->
<g id="edge24" class="edge">
<title>20&#45;&gt;24</title>
<path fill="none" stroke="black" d="M1383.71,-230.6C1409.17,-216.21 1439.19,-199.24 1465.57,-184.33"/>
<polygon fill="black" stroke="black" points="1467.38,-187.33 1474.37,-179.36 1463.94,-181.23 1467.38,-187.33"/>
</g>
<!-- 22 -->
<g id="node23" class="node">
<title>22</title>
<path fill="#efb388" stroke="black" d="M1310,-68C1310,-68 1197,-68 1197,-68 1191,-68 1185,-62 1185,-56 1185,-56 1185,-12 1185,-12 1185,-6 1191,0 1197,0 1197,0 1310,0 1310,0 1316,0 1322,-6 1322,-12 1322,-12 1322,-56 1322,-56 1322,-62 1316,-68 1310,-68"/>
<text text-anchor="start" x="1206" y="-52.8" font-family="Helvetica,sans-Serif" font-size="14.00">entropy = 0.863</text>
<text text-anchor="start" x="1216" y="-37.8" font-family="Helvetica,sans-Serif" font-size="14.00">samples = 7</text>
<text text-anchor="start" x="1214" y="-22.8" font-family="Helvetica,sans-Serif" font-size="14.00">value = [5, 2]</text>
<text text-anchor="start" x="1193" y="-7.8" font-family="Helvetica,sans-Serif" font-size="14.00">class = No Decease</text>
</g>
<!-- 21&#45;&gt;22 -->
<g id="edge22" class="edge">
<title>21&#45;&gt;22</title>
<path fill="none" stroke="black" d="M1298.69,-103.73C1292.93,-94.97 1286.84,-85.7 1281.05,-76.91"/>
<polygon fill="black" stroke="black" points="1283.81,-74.73 1275.4,-68.3 1277.97,-78.58 1283.81,-74.73"/>
</g>
<!-- 23 -->
<g id="node24" class="node">
<title>23</title>
<path fill="#6ab6ec" stroke="black" d="M1444.5,-68C1444.5,-68 1352.5,-68 1352.5,-68 1346.5,-68 1340.5,-62 1340.5,-56 1340.5,-56 1340.5,-12 1340.5,-12 1340.5,-6 1346.5,0 1352.5,0 1352.5,0 1444.5,0 1444.5,0 1450.5,0 1456.5,-6 1456.5,-12 1456.5,-12 1456.5,-56 1456.5,-56 1456.5,-62 1450.5,-68 1444.5,-68"/>
<text text-anchor="start" x="1351" y="-52.8" font-family="Helvetica,sans-Serif" font-size="14.00">entropy = 0.722</text>
<text text-anchor="start" x="1357.5" y="-37.8" font-family="Helvetica,sans-Serif" font-size="14.00">samples = 10</text>
<text text-anchor="start" x="1359" y="-22.8" font-family="Helvetica,sans-Serif" font-size="14.00">value = [2, 8]</text>
<text text-anchor="start" x="1348.5" y="-7.8" font-family="Helvetica,sans-Serif" font-size="14.00">class = Decease</text>
</g>
<!-- 21&#45;&gt;23 -->
<g id="edge23" class="edge">
<title>21&#45;&gt;23</title>
<path fill="none" stroke="black" d="M1352.68,-103.73C1358.58,-94.88 1364.83,-85.51 1370.75,-76.63"/>
<polygon fill="black" stroke="black" points="1373.67,-78.56 1376.3,-68.3 1367.84,-74.68 1373.67,-78.56"/>
</g>
<!-- 25 -->
<g id="node26" class="node">
<title>25</title>
<path fill="#6ab6ec" stroke="black" d="M1578.5,-68C1578.5,-68 1486.5,-68 1486.5,-68 1480.5,-68 1474.5,-62 1474.5,-56 1474.5,-56 1474.5,-12 1474.5,-12 1474.5,-6 1480.5,0 1486.5,0 1486.5,0 1578.5,0 1578.5,0 1584.5,0 1590.5,-6 1590.5,-12 1590.5,-12 1590.5,-56 1590.5,-56 1590.5,-62 1584.5,-68 1578.5,-68"/>
<text text-anchor="start" x="1485" y="-52.8" font-family="Helvetica,sans-Serif" font-size="14.00">entropy = 0.722</text>
<text text-anchor="start" x="1491.5" y="-37.8" font-family="Helvetica,sans-Serif" font-size="14.00">samples = 10</text>
<text text-anchor="start" x="1493" y="-22.8" font-family="Helvetica,sans-Serif" font-size="14.00">value = [2, 8]</text>
<text text-anchor="start" x="1482.5" y="-7.8" font-family="Helvetica,sans-Serif" font-size="14.00">class = Decease</text>
</g>
<!-- 24&#45;&gt;25 -->
<g id="edge25" class="edge">
<title>24&#45;&gt;25</title>
<path fill="none" stroke="black" d="M1532.5,-103.73C1532.5,-95.52 1532.5,-86.86 1532.5,-78.56"/>
<polygon fill="black" stroke="black" points="1536,-78.3 1532.5,-68.3 1529,-78.3 1536,-78.3"/>
</g>
<!-- 26 -->
<g id="node27" class="node">
<title>26</title>
<path fill="#399de5" stroke="black" d="M1712.5,-68C1712.5,-68 1620.5,-68 1620.5,-68 1614.5,-68 1608.5,-62 1608.5,-56 1608.5,-56 1608.5,-12 1608.5,-12 1608.5,-6 1614.5,0 1620.5,0 1620.5,0 1712.5,0 1712.5,0 1718.5,0 1724.5,-6 1724.5,-12 1724.5,-12 1724.5,-56 1724.5,-56 1724.5,-62 1718.5,-68 1712.5,-68"/>
<text text-anchor="start" x="1626.5" y="-52.8" font-family="Helvetica,sans-Serif" font-size="14.00">entropy = 0.0</text>
<text text-anchor="start" x="1625.5" y="-37.8" font-family="Helvetica,sans-Serif" font-size="14.00">samples = 49</text>
<text text-anchor="start" x="1623.5" y="-22.8" font-family="Helvetica,sans-Serif" font-size="14.00">value = [0, 49]</text>
<text text-anchor="start" x="1616.5" y="-7.8" font-family="Helvetica,sans-Serif" font-size="14.00">class = Decease</text>
</g>
<!-- 24&#45;&gt;26 -->
<g id="edge26" class="edge">
<title>24&#45;&gt;26</title>
<path fill="none" stroke="black" d="M1582.4,-103.73C1594,-94.24 1606.35,-84.16 1617.9,-74.72"/>
<polygon fill="black" stroke="black" points="1620.22,-77.34 1625.75,-68.3 1615.79,-71.92 1620.22,-77.34"/>
</g>
</g>
</svg>
