<?xml version="1.0" encoding="UTF-8" standalone="no"?>
<!DOCTYPE svg PUBLIC "-//W3C//DTD SVG 1.1//EN"
 "http://www.w3.org/Graphics/SVG/1.1/DTD/svg11.dtd">
<!-- Generated by graphviz version 2.50.0 (0)
 -->
<!-- Title: Tree Pages: 1 -->
<svg width="888pt" height="433pt"
 viewBox="0.00 0.00 888.00 433.00" xmlns="http://www.w3.org/2000/svg" xmlns:xlink="http://www.w3.org/1999/xlink">
<g id="graph0" class="graph" transform="scale(1 1) rotate(0) translate(4 429)">
<title>Tree</title>
<polygon fill="white" stroke="transparent" points="-4,4 -4,-429 884,-429 884,4 -4,4"/>
<!-- 0 -->
<g id="node1" class="node">
<title>0</title>
<path fill="#fbece2" stroke="black" d="M657,-425C657,-425 534,-425 534,-425 528,-425 522,-419 522,-413 522,-413 522,-354 522,-354 522,-348 528,-342 534,-342 534,-342 657,-342 657,-342 663,-342 669,-348 669,-354 669,-354 669,-413 669,-413 669,-419 663,-425 657,-425"/>
<text text-anchor="start" x="567.5" y="-409.8" font-family="Helvetica,sans-Serif" font-size="14.00">thal ≤ 4.5</text>
<text text-anchor="start" x="548" y="-394.8" font-family="Helvetica,sans-Serif" font-size="14.00">entropy = 0.995</text>
<text text-anchor="start" x="550.5" y="-379.8" font-family="Helvetica,sans-Serif" font-size="14.00">samples = 237</text>
<text text-anchor="start" x="530" y="-364.8" font-family="Helvetica,sans-Serif" font-size="14.00">value = [128.0, 109.0]</text>
<text text-anchor="start" x="535" y="-349.8" font-family="Helvetica,sans-Serif" font-size="14.00">class = No Decease</text>
</g>
<!-- 1 -->
<g id="node2" class="node">
<title>1</title>
<path fill="#eca16b" stroke="black" d="M507,-306C507,-306 394,-306 394,-306 388,-306 382,-300 382,-294 382,-294 382,-235 382,-235 382,-229 388,-223 394,-223 394,-223 507,-223 507,-223 513,-223 519,-229 519,-235 519,-235 519,-294 519,-294 519,-300 513,-306 507,-306"/>
<text text-anchor="start" x="426" y="-290.8" font-family="Helvetica,sans-Serif" font-size="14.00">cp ≤ 3.5</text>
<text text-anchor="start" x="403" y="-275.8" font-family="Helvetica,sans-Serif" font-size="14.00">entropy = 0.728</text>
<text text-anchor="start" x="405.5" y="-260.8" font-family="Helvetica,sans-Serif" font-size="14.00">samples = 128</text>
<text text-anchor="start" x="400" y="-245.8" font-family="Helvetica,sans-Serif" font-size="14.00">value = [102, 26]</text>
<text text-anchor="start" x="390" y="-230.8" font-family="Helvetica,sans-Serif" font-size="14.00">class = No Decease</text>
</g>
<!-- 0&#45;&gt;1 -->
<g id="edge1" class="edge">
<title>0&#45;&gt;1</title>
<path fill="none" stroke="black" d="M545.19,-341.91C533.38,-332.38 520.71,-322.15 508.59,-312.37"/>
<polygon fill="black" stroke="black" points="510.7,-309.58 500.72,-306.02 506.3,-315.02 510.7,-309.58"/>
<text text-anchor="middle" x="503.37" y="-327.18" font-family="Helvetica,sans-Serif" font-size="14.00">True</text>
</g>
<!-- 8 -->
<g id="node9" class="node">
<title>8</title>
<path fill="#77bced" stroke="black" d="M714.5,-306C714.5,-306 622.5,-306 622.5,-306 616.5,-306 610.5,-300 610.5,-294 610.5,-294 610.5,-235 610.5,-235 610.5,-229 616.5,-223 622.5,-223 622.5,-223 714.5,-223 714.5,-223 720.5,-223 726.5,-229 726.5,-235 726.5,-235 726.5,-294 726.5,-294 726.5,-300 720.5,-306 714.5,-306"/>
<text text-anchor="start" x="624" y="-290.8" font-family="Helvetica,sans-Serif" font-size="14.00">oldpeak ≤ 1.95</text>
<text text-anchor="start" x="621" y="-275.8" font-family="Helvetica,sans-Serif" font-size="14.00">entropy = 0.793</text>
<text text-anchor="start" x="623.5" y="-260.8" font-family="Helvetica,sans-Serif" font-size="14.00">samples = 109</text>
<text text-anchor="start" x="621.5" y="-245.8" font-family="Helvetica,sans-Serif" font-size="14.00">value = [26, 83]</text>
<text text-anchor="start" x="618.5" y="-230.8" font-family="Helvetica,sans-Serif" font-size="14.00">class = Decease</text>
</g>
<!-- 0&#45;&gt;8 -->
<g id="edge8" class="edge">
<title>0&#45;&gt;8</title>
<path fill="none" stroke="black" d="M620.83,-341.91C626.32,-333.1 632.19,-323.7 637.86,-314.61"/>
<polygon fill="black" stroke="black" points="640.89,-316.36 643.22,-306.02 634.95,-312.65 640.89,-316.36"/>
<text text-anchor="middle" x="648.86" y="-326.68" font-family="Helvetica,sans-Serif" font-size="14.00">False</text>
</g>
<!-- 2 -->
<g id="node3" class="node">
<title>2</title>
<path fill="#e88d4c" stroke="black" d="M280,-187C280,-187 167,-187 167,-187 161,-187 155,-181 155,-175 155,-175 155,-116 155,-116 155,-110 161,-104 167,-104 167,-104 280,-104 280,-104 286,-104 292,-110 292,-116 292,-116 292,-175 292,-175 292,-181 286,-187 280,-187"/>
<text text-anchor="start" x="199" y="-171.8" font-family="Helvetica,sans-Serif" font-size="14.00">cp ≤ 1.5</text>
<text text-anchor="start" x="176" y="-156.8" font-family="Helvetica,sans-Serif" font-size="14.00">entropy = 0.433</text>
<text text-anchor="start" x="182.5" y="-141.8" font-family="Helvetica,sans-Serif" font-size="14.00">samples = 90</text>
<text text-anchor="start" x="180.5" y="-126.8" font-family="Helvetica,sans-Serif" font-size="14.00">value = [82, 8]</text>
<text text-anchor="start" x="163" y="-111.8" font-family="Helvetica,sans-Serif" font-size="14.00">class = No Decease</text>
</g>
<!-- 1&#45;&gt;2 -->
<g id="edge2" class="edge">
<title>1&#45;&gt;2</title>
<path fill="none" stroke="black" d="M381.78,-228.08C356.45,-215.02 327.57,-200.14 301.48,-186.69"/>
<polygon fill="black" stroke="black" points="302.87,-183.47 292.38,-182 299.67,-189.7 302.87,-183.47"/>
</g>
<!-- 5 -->
<g id="node6" class="node">
<title>5</title>
<path fill="#fcf2eb" stroke="black" d="M507,-187C507,-187 394,-187 394,-187 388,-187 382,-181 382,-175 382,-175 382,-116 382,-116 382,-110 388,-104 394,-104 394,-104 507,-104 507,-104 513,-104 519,-110 519,-116 519,-116 519,-175 519,-175 519,-181 513,-187 507,-187"/>
<text text-anchor="start" x="426" y="-171.8" font-family="Helvetica,sans-Serif" font-size="14.00">ca ≤ 0.5</text>
<text text-anchor="start" x="403" y="-156.8" font-family="Helvetica,sans-Serif" font-size="14.00">entropy = 0.998</text>
<text text-anchor="start" x="409.5" y="-141.8" font-family="Helvetica,sans-Serif" font-size="14.00">samples = 38</text>
<text text-anchor="start" x="403.5" y="-126.8" font-family="Helvetica,sans-Serif" font-size="14.00">value = [20, 18]</text>
<text text-anchor="start" x="390" y="-111.8" font-family="Helvetica,sans-Serif" font-size="14.00">class = No Decease</text>
</g>
<!-- 1&#45;&gt;5 -->
<g id="edge5" class="edge">
<title>1&#45;&gt;5</title>
<path fill="none" stroke="black" d="M450.5,-222.91C450.5,-214.65 450.5,-205.86 450.5,-197.3"/>
<polygon fill="black" stroke="black" points="454,-197.02 450.5,-187.02 447,-197.02 454,-197.02"/>
</g>
<!-- 3 -->
<g id="node4" class="node">
<title>3</title>
<path fill="#f4c9aa" stroke="black" d="M125,-68C125,-68 12,-68 12,-68 6,-68 0,-62 0,-56 0,-56 0,-12 0,-12 0,-6 6,0 12,0 12,0 125,0 125,0 131,0 137,-6 137,-12 137,-12 137,-56 137,-56 137,-62 131,-68 125,-68"/>
<text text-anchor="start" x="21" y="-52.8" font-family="Helvetica,sans-Serif" font-size="14.00">entropy = 0.946</text>
<text text-anchor="start" x="27.5" y="-37.8" font-family="Helvetica,sans-Serif" font-size="14.00">samples = 11</text>
<text text-anchor="start" x="29" y="-22.8" font-family="Helvetica,sans-Serif" font-size="14.00">value = [7, 4]</text>
<text text-anchor="start" x="8" y="-7.8" font-family="Helvetica,sans-Serif" font-size="14.00">class = No Decease</text>
</g>
<!-- 2&#45;&gt;3 -->
<g id="edge3" class="edge">
<title>2&#45;&gt;3</title>
<path fill="none" stroke="black" d="M165.78,-103.73C152.1,-94.06 137.53,-83.77 123.95,-74.17"/>
<polygon fill="black" stroke="black" points="125.82,-71.21 115.64,-68.3 121.78,-76.93 125.82,-71.21"/>
</g>
<!-- 4 -->
<g id="node5" class="node">
<title>4</title>
<path fill="#e68844" stroke="black" d="M280,-68C280,-68 167,-68 167,-68 161,-68 155,-62 155,-56 155,-56 155,-12 155,-12 155,-6 161,0 167,0 167,0 280,0 280,0 286,0 292,-6 292,-12 292,-12 292,-56 292,-56 292,-62 286,-68 280,-68"/>
<text text-anchor="start" x="176" y="-52.8" font-family="Helvetica,sans-Serif" font-size="14.00">entropy = 0.289</text>
<text text-anchor="start" x="182.5" y="-37.8" font-family="Helvetica,sans-Serif" font-size="14.00">samples = 79</text>
<text text-anchor="start" x="180.5" y="-22.8" font-family="Helvetica,sans-Serif" font-size="14.00">value = [75, 4]</text>
<text text-anchor="start" x="163" y="-7.8" font-family="Helvetica,sans-Serif" font-size="14.00">class = No Decease</text>
</g>
<!-- 2&#45;&gt;4 -->
<g id="edge4" class="edge">
<title>2&#45;&gt;4</title>
<path fill="none" stroke="black" d="M223.5,-103.73C223.5,-95.52 223.5,-86.86 223.5,-78.56"/>
<polygon fill="black" stroke="black" points="227,-78.3 223.5,-68.3 220,-78.3 227,-78.3"/>
</g>
<!-- 6 -->
<g id="node7" class="node">
<title>6</title>
<path fill="#eca470" stroke="black" d="M435,-68C435,-68 322,-68 322,-68 316,-68 310,-62 310,-56 310,-56 310,-12 310,-12 310,-6 316,0 322,0 322,0 435,0 435,0 441,0 447,-6 447,-12 447,-12 447,-56 447,-56 447,-62 441,-68 435,-68"/>
<text text-anchor="start" x="331" y="-52.8" font-family="Helvetica,sans-Serif" font-size="14.00">entropy = 0.755</text>
<text text-anchor="start" x="337.5" y="-37.8" font-family="Helvetica,sans-Serif" font-size="14.00">samples = 23</text>
<text text-anchor="start" x="335.5" y="-22.8" font-family="Helvetica,sans-Serif" font-size="14.00">value = [18, 5]</text>
<text text-anchor="start" x="318" y="-7.8" font-family="Helvetica,sans-Serif" font-size="14.00">class = No Decease</text>
</g>
<!-- 5&#45;&gt;6 -->
<g id="edge6" class="edge">
<title>5&#45;&gt;6</title>
<path fill="none" stroke="black" d="M423.69,-103.73C417.93,-94.97 411.84,-85.7 406.05,-76.91"/>
<polygon fill="black" stroke="black" points="408.81,-74.73 400.4,-68.3 402.97,-78.58 408.81,-74.73"/>
</g>
<!-- 7 -->
<g id="node8" class="node">
<title>7</title>
<path fill="#57ace9" stroke="black" d="M569.5,-68C569.5,-68 477.5,-68 477.5,-68 471.5,-68 465.5,-62 465.5,-56 465.5,-56 465.5,-12 465.5,-12 465.5,-6 471.5,0 477.5,0 477.5,0 569.5,0 569.5,0 575.5,0 581.5,-6 581.5,-12 581.5,-12 581.5,-56 581.5,-56 581.5,-62 575.5,-68 569.5,-68"/>
<text text-anchor="start" x="476" y="-52.8" font-family="Helvetica,sans-Serif" font-size="14.00">entropy = 0.567</text>
<text text-anchor="start" x="482.5" y="-37.8" font-family="Helvetica,sans-Serif" font-size="14.00">samples = 15</text>
<text text-anchor="start" x="480.5" y="-22.8" font-family="Helvetica,sans-Serif" font-size="14.00">value = [2, 13]</text>
<text text-anchor="start" x="473.5" y="-7.8" font-family="Helvetica,sans-Serif" font-size="14.00">class = Decease</text>
</g>
<!-- 5&#45;&gt;7 -->
<g id="edge7" class="edge">
<title>5&#45;&gt;7</title>
<path fill="none" stroke="black" d="M477.68,-103.73C483.58,-94.88 489.83,-85.51 495.75,-76.63"/>
<polygon fill="black" stroke="black" points="498.67,-78.56 501.3,-68.3 492.84,-74.68 498.67,-78.56"/>
</g>
<!-- 9 -->
<g id="node10" class="node">
<title>9</title>
<path fill="#a2d1f3" stroke="black" d="M714.5,-187C714.5,-187 622.5,-187 622.5,-187 616.5,-187 610.5,-181 610.5,-175 610.5,-175 610.5,-116 610.5,-116 610.5,-110 616.5,-104 622.5,-104 622.5,-104 714.5,-104 714.5,-104 720.5,-104 726.5,-110 726.5,-116 726.5,-116 726.5,-175 726.5,-175 726.5,-181 720.5,-187 714.5,-187"/>
<text text-anchor="start" x="644" y="-171.8" font-family="Helvetica,sans-Serif" font-size="14.00">cp ≤ 3.5</text>
<text text-anchor="start" x="621" y="-156.8" font-family="Helvetica,sans-Serif" font-size="14.00">entropy = 0.931</text>
<text text-anchor="start" x="627.5" y="-141.8" font-family="Helvetica,sans-Serif" font-size="14.00">samples = 75</text>
<text text-anchor="start" x="621.5" y="-126.8" font-family="Helvetica,sans-Serif" font-size="14.00">value = [26, 49]</text>
<text text-anchor="start" x="618.5" y="-111.8" font-family="Helvetica,sans-Serif" font-size="14.00">class = Decease</text>
</g>
<!-- 8&#45;&gt;9 -->
<g id="edge9" class="edge">
<title>8&#45;&gt;9</title>
<path fill="none" stroke="black" d="M668.5,-222.91C668.5,-214.65 668.5,-205.86 668.5,-197.3"/>
<polygon fill="black" stroke="black" points="672,-197.02 668.5,-187.02 665,-197.02 672,-197.02"/>
</g>
<!-- 12 -->
<g id="node13" class="node">
<title>12</title>
<path fill="#399de5" stroke="black" d="M848.5,-179.5C848.5,-179.5 756.5,-179.5 756.5,-179.5 750.5,-179.5 744.5,-173.5 744.5,-167.5 744.5,-167.5 744.5,-123.5 744.5,-123.5 744.5,-117.5 750.5,-111.5 756.5,-111.5 756.5,-111.5 848.5,-111.5 848.5,-111.5 854.5,-111.5 860.5,-117.5 860.5,-123.5 860.5,-123.5 860.5,-167.5 860.5,-167.5 860.5,-173.5 854.5,-179.5 848.5,-179.5"/>
<text text-anchor="start" x="762.5" y="-164.3" font-family="Helvetica,sans-Serif" font-size="14.00">entropy = 0.0</text>
<text text-anchor="start" x="761.5" y="-149.3" font-family="Helvetica,sans-Serif" font-size="14.00">samples = 34</text>
<text text-anchor="start" x="759.5" y="-134.3" font-family="Helvetica,sans-Serif" font-size="14.00">value = [0, 34]</text>
<text text-anchor="start" x="752.5" y="-119.3" font-family="Helvetica,sans-Serif" font-size="14.00">class = Decease</text>
</g>
<!-- 8&#45;&gt;12 -->
<g id="edge12" class="edge">
<title>8&#45;&gt;12</title>
<path fill="none" stroke="black" d="M714.99,-222.91C728.51,-211.1 743.27,-198.22 756.75,-186.45"/>
<polygon fill="black" stroke="black" points="759.28,-188.88 764.51,-179.67 754.68,-183.61 759.28,-188.88"/>
</g>
<!-- 10 -->
<g id="node11" class="node">
<title>10</title>
<path fill="#f7d7c0" stroke="black" d="M725,-68C725,-68 612,-68 612,-68 606,-68 600,-62 600,-56 600,-56 600,-12 600,-12 600,-6 606,0 612,0 612,0 725,0 725,0 731,0 737,-6 737,-12 737,-12 737,-56 737,-56 737,-62 731,-68 725,-68"/>
<text text-anchor="start" x="621" y="-52.8" font-family="Helvetica,sans-Serif" font-size="14.00">entropy = 0.974</text>
<text text-anchor="start" x="627.5" y="-37.8" font-family="Helvetica,sans-Serif" font-size="14.00">samples = 32</text>
<text text-anchor="start" x="621.5" y="-22.8" font-family="Helvetica,sans-Serif" font-size="14.00">value = [19, 13]</text>
<text text-anchor="start" x="608" y="-7.8" font-family="Helvetica,sans-Serif" font-size="14.00">class = No Decease</text>
</g>
<!-- 9&#45;&gt;10 -->
<g id="edge10" class="edge">
<title>9&#45;&gt;10</title>
<path fill="none" stroke="black" d="M668.5,-103.73C668.5,-95.52 668.5,-86.86 668.5,-78.56"/>
<polygon fill="black" stroke="black" points="672,-78.3 668.5,-68.3 665,-78.3 672,-78.3"/>
</g>
<!-- 11 -->
<g id="node12" class="node">
<title>11</title>
<path fill="#5fb0ea" stroke="black" d="M868,-68C868,-68 767,-68 767,-68 761,-68 755,-62 755,-56 755,-56 755,-12 755,-12 755,-6 761,0 767,0 767,0 868,0 868,0 874,0 880,-6 880,-12 880,-12 880,-56 880,-56 880,-62 874,-68 868,-68"/>
<text text-anchor="start" x="770" y="-52.8" font-family="Helvetica,sans-Serif" font-size="14.00">entropy = 0.641</text>
<text text-anchor="start" x="776.5" y="-37.8" font-family="Helvetica,sans-Serif" font-size="14.00">samples = 43</text>
<text text-anchor="start" x="763" y="-22.8" font-family="Helvetica,sans-Serif" font-size="14.00">value = [7.0, 36.0]</text>
<text text-anchor="start" x="767.5" y="-7.8" font-family="Helvetica,sans-Serif" font-size="14.00">class = Decease</text>
</g>
<!-- 9&#45;&gt;11 -->
<g id="edge11" class="edge">
<title>9&#45;&gt;11</title>
<path fill="none" stroke="black" d="M723.98,-103.73C737.01,-94.15 750.88,-83.96 763.83,-74.44"/>
<polygon fill="black" stroke="black" points="766.2,-77.04 772.19,-68.3 762.06,-71.4 766.2,-77.04"/>
</g>
</g>
</svg>
