<?xml version="1.0" encoding="UTF-8" standalone="no"?>
<!DOCTYPE svg PUBLIC "-//W3C//DTD SVG 1.1//EN"
 "http://www.w3.org/Graphics/SVG/1.1/DTD/svg11.dtd">
<!-- Generated by graphviz version 2.50.0 (0)
 -->
<!-- Title: Tree Pages: 1 -->
<svg width="1727pt" height="552pt"
 viewBox="0.00 0.00 1726.50 552.00" xmlns="http://www.w3.org/2000/svg" xmlns:xlink="http://www.w3.org/1999/xlink">
<g id="graph0" class="graph" transform="scale(1 1) rotate(0) translate(4 548)">
<title>Tree</title>
<polygon fill="white" stroke="transparent" points="-4,4 -4,-548 1722.5,-548 1722.5,4 -4,4"/>
<!-- 0 -->
<g id="node1" class="node">
<title>0</title>
<path fill="#fbece2" stroke="black" d="M1169,-544C1169,-544 1046,-544 1046,-544 1040,-544 1034,-538 1034,-532 1034,-532 1034,-473 1034,-473 1034,-467 1040,-461 1046,-461 1046,-461 1169,-461 1169,-461 1175,-461 1181,-467 1181,-473 1181,-473 1181,-532 1181,-532 1181,-538 1175,-544 1169,-544"/>
<text text-anchor="start" x="1079.5" y="-528.8" font-family="Helvetica,sans-Serif" font-size="14.00">thal ≤ 4.5</text>
<text text-anchor="start" x="1060" y="-513.8" font-family="Helvetica,sans-Serif" font-size="14.00">entropy = 0.995</text>
<text text-anchor="start" x="1062.5" y="-498.8" font-family="Helvetica,sans-Serif" font-size="14.00">samples = 237</text>
<text text-anchor="start" x="1042" y="-483.8" font-family="Helvetica,sans-Serif" font-size="14.00">value = [128.0, 109.0]</text>
<text text-anchor="start" x="1047" y="-468.8" font-family="Helvetica,sans-Serif" font-size="14.00">class = No Decease</text>
</g>
<!-- 1 -->
<g id="node2" class="node">
<title>1</title>
<path fill="#eca16b" stroke="black" d="M952,-425C952,-425 839,-425 839,-425 833,-425 827,-419 827,-413 827,-413 827,-354 827,-354 827,-348 833,-342 839,-342 839,-342 952,-342 952,-342 958,-342 964,-348 964,-354 964,-354 964,-413 964,-413 964,-419 958,-425 952,-425"/>
<text text-anchor="start" x="871" y="-409.8" font-family="Helvetica,sans-Serif" font-size="14.00">cp ≤ 3.5</text>
<text text-anchor="start" x="848" y="-394.8" font-family="Helvetica,sans-Serif" font-size="14.00">entropy = 0.728</text>
<text text-anchor="start" x="850.5" y="-379.8" font-family="Helvetica,sans-Serif" font-size="14.00">samples = 128</text>
<text text-anchor="start" x="845" y="-364.8" font-family="Helvetica,sans-Serif" font-size="14.00">value = [102, 26]</text>
<text text-anchor="start" x="835" y="-349.8" font-family="Helvetica,sans-Serif" font-size="14.00">class = No Decease</text>
</g>
<!-- 0&#45;&gt;1 -->
<g id="edge1" class="edge">
<title>0&#45;&gt;1</title>
<path fill="none" stroke="black" d="M1033.95,-460.91C1014.35,-450.09 993.11,-438.37 973.29,-427.43"/>
<polygon fill="black" stroke="black" points="974.74,-424.23 964.29,-422.47 971.36,-430.36 974.74,-424.23"/>
<text text-anchor="middle" x="971.23" y="-442.78" font-family="Helvetica,sans-Serif" font-size="14.00">True</text>
</g>
<!-- 16 -->
<g id="node17" class="node">
<title>16</title>
<path fill="#77bced" stroke="black" d="M1358.5,-425C1358.5,-425 1266.5,-425 1266.5,-425 1260.5,-425 1254.5,-419 1254.5,-413 1254.5,-413 1254.5,-354 1254.5,-354 1254.5,-348 1260.5,-342 1266.5,-342 1266.5,-342 1358.5,-342 1358.5,-342 1364.5,-342 1370.5,-348 1370.5,-354 1370.5,-354 1370.5,-413 1370.5,-413 1370.5,-419 1364.5,-425 1358.5,-425"/>
<text text-anchor="start" x="1268" y="-409.8" font-family="Helvetica,sans-Serif" font-size="14.00">oldpeak ≤ 1.95</text>
<text text-anchor="start" x="1265" y="-394.8" font-family="Helvetica,sans-Serif" font-size="14.00">entropy = 0.793</text>
<text text-anchor="start" x="1267.5" y="-379.8" font-family="Helvetica,sans-Serif" font-size="14.00">samples = 109</text>
<text text-anchor="start" x="1265.5" y="-364.8" font-family="Helvetica,sans-Serif" font-size="14.00">value = [26, 83]</text>
<text text-anchor="start" x="1262.5" y="-349.8" font-family="Helvetica,sans-Serif" font-size="14.00">class = Decease</text>
</g>
<!-- 0&#45;&gt;16 -->
<g id="edge16" class="edge">
<title>0&#45;&gt;16</title>
<path fill="none" stroke="black" d="M1178.62,-460.91C1200.37,-448.49 1224.21,-434.89 1245.67,-422.64"/>
<polygon fill="black" stroke="black" points="1247.44,-425.66 1254.39,-417.67 1243.97,-419.58 1247.44,-425.66"/>
<text text-anchor="middle" x="1247.8" y="-438.08" font-family="Helvetica,sans-Serif" font-size="14.00">False</text>
</g>
<!-- 2 -->
<g id="node3" class="node">
<title>2</title>
<path fill="#e88d4c" stroke="black" d="M497,-306C497,-306 384,-306 384,-306 378,-306 372,-300 372,-294 372,-294 372,-235 372,-235 372,-229 378,-223 384,-223 384,-223 497,-223 497,-223 503,-223 509,-229 509,-235 509,-235 509,-294 509,-294 509,-300 503,-306 497,-306"/>
<text text-anchor="start" x="416" y="-290.8" font-family="Helvetica,sans-Serif" font-size="14.00">cp ≤ 1.5</text>
<text text-anchor="start" x="393" y="-275.8" font-family="Helvetica,sans-Serif" font-size="14.00">entropy = 0.433</text>
<text text-anchor="start" x="399.5" y="-260.8" font-family="Helvetica,sans-Serif" font-size="14.00">samples = 90</text>
<text text-anchor="start" x="397.5" y="-245.8" font-family="Helvetica,sans-Serif" font-size="14.00">value = [82, 8]</text>
<text text-anchor="start" x="380" y="-230.8" font-family="Helvetica,sans-Serif" font-size="14.00">class = No Decease</text>
</g>
<!-- 1&#45;&gt;2 -->
<g id="edge2" class="edge">
<title>1&#45;&gt;2</title>
<path fill="none" stroke="black" d="M826.89,-364.86C744.3,-343.62 605.91,-308.03 519.1,-285.71"/>
<polygon fill="black" stroke="black" points="519.85,-282.29 509.3,-283.19 518.11,-289.07 519.85,-282.29"/>
</g>
<!-- 9 -->
<g id="node10" class="node">
<title>9</title>
<path fill="#fcf2eb" stroke="black" d="M952,-306C952,-306 839,-306 839,-306 833,-306 827,-300 827,-294 827,-294 827,-235 827,-235 827,-229 833,-223 839,-223 839,-223 952,-223 952,-223 958,-223 964,-229 964,-235 964,-235 964,-294 964,-294 964,-300 958,-306 952,-306"/>
<text text-anchor="start" x="871" y="-290.8" font-family="Helvetica,sans-Serif" font-size="14.00">ca ≤ 0.5</text>
<text text-anchor="start" x="848" y="-275.8" font-family="Helvetica,sans-Serif" font-size="14.00">entropy = 0.998</text>
<text text-anchor="start" x="854.5" y="-260.8" font-family="Helvetica,sans-Serif" font-size="14.00">samples = 38</text>
<text text-anchor="start" x="848.5" y="-245.8" font-family="Helvetica,sans-Serif" font-size="14.00">value = [20, 18]</text>
<text text-anchor="start" x="835" y="-230.8" font-family="Helvetica,sans-Serif" font-size="14.00">class = No Decease</text>
</g>
<!-- 1&#45;&gt;9 -->
<g id="edge9" class="edge">
<title>1&#45;&gt;9</title>
<path fill="none" stroke="black" d="M895.5,-341.91C895.5,-333.65 895.5,-324.86 895.5,-316.3"/>
<polygon fill="black" stroke="black" points="899,-316.02 895.5,-306.02 892,-316.02 899,-316.02"/>
</g>
<!-- 3 -->
<g id="node4" class="node">
<title>3</title>
<path fill="#f4c9aa" stroke="black" d="M270,-187C270,-187 157,-187 157,-187 151,-187 145,-181 145,-175 145,-175 145,-116 145,-116 145,-110 151,-104 157,-104 157,-104 270,-104 270,-104 276,-104 282,-110 282,-116 282,-116 282,-175 282,-175 282,-181 276,-187 270,-187"/>
<text text-anchor="start" x="181.5" y="-171.8" font-family="Helvetica,sans-Serif" font-size="14.00">age ≤ 58.5</text>
<text text-anchor="start" x="166" y="-156.8" font-family="Helvetica,sans-Serif" font-size="14.00">entropy = 0.946</text>
<text text-anchor="start" x="172.5" y="-141.8" font-family="Helvetica,sans-Serif" font-size="14.00">samples = 11</text>
<text text-anchor="start" x="174" y="-126.8" font-family="Helvetica,sans-Serif" font-size="14.00">value = [7, 4]</text>
<text text-anchor="start" x="153" y="-111.8" font-family="Helvetica,sans-Serif" font-size="14.00">class = No Decease</text>
</g>
<!-- 2&#45;&gt;3 -->
<g id="edge3" class="edge">
<title>2&#45;&gt;3</title>
<path fill="none" stroke="black" d="M371.78,-228.08C346.45,-215.02 317.57,-200.14 291.48,-186.69"/>
<polygon fill="black" stroke="black" points="292.87,-183.47 282.38,-182 289.67,-189.7 292.87,-183.47"/>
</g>
<!-- 6 -->
<g id="node7" class="node">
<title>6</title>
<path fill="#e68844" stroke="black" d="M497,-187C497,-187 384,-187 384,-187 378,-187 372,-181 372,-175 372,-175 372,-116 372,-116 372,-110 378,-104 384,-104 384,-104 497,-104 497,-104 503,-104 509,-110 509,-116 509,-116 509,-175 509,-175 509,-181 503,-187 497,-187"/>
<text text-anchor="start" x="394" y="-171.8" font-family="Helvetica,sans-Serif" font-size="14.00">thalach ≤ 160.5</text>
<text text-anchor="start" x="393" y="-156.8" font-family="Helvetica,sans-Serif" font-size="14.00">entropy = 0.289</text>
<text text-anchor="start" x="399.5" y="-141.8" font-family="Helvetica,sans-Serif" font-size="14.00">samples = 79</text>
<text text-anchor="start" x="397.5" y="-126.8" font-family="Helvetica,sans-Serif" font-size="14.00">value = [75, 4]</text>
<text text-anchor="start" x="380" y="-111.8" font-family="Helvetica,sans-Serif" font-size="14.00">class = No Decease</text>
</g>
<!-- 2&#45;&gt;6 -->
<g id="edge6" class="edge">
<title>2&#45;&gt;6</title>
<path fill="none" stroke="black" d="M440.5,-222.91C440.5,-214.65 440.5,-205.86 440.5,-197.3"/>
<polygon fill="black" stroke="black" points="444,-197.02 440.5,-187.02 437,-197.02 444,-197.02"/>
</g>
<!-- 4 -->
<g id="node5" class="node">
<title>4</title>
<path fill="#e58139" stroke="black" d="M125,-68C125,-68 12,-68 12,-68 6,-68 0,-62 0,-56 0,-56 0,-12 0,-12 0,-6 6,0 12,0 12,0 125,0 125,0 131,0 137,-6 137,-12 137,-12 137,-56 137,-56 137,-62 131,-68 125,-68"/>
<text text-anchor="start" x="28.5" y="-52.8" font-family="Helvetica,sans-Serif" font-size="14.00">entropy = 0.0</text>
<text text-anchor="start" x="31" y="-37.8" font-family="Helvetica,sans-Serif" font-size="14.00">samples = 4</text>
<text text-anchor="start" x="29" y="-22.8" font-family="Helvetica,sans-Serif" font-size="14.00">value = [4, 0]</text>
<text text-anchor="start" x="8" y="-7.8" font-family="Helvetica,sans-Serif" font-size="14.00">class = No Decease</text>
</g>
<!-- 3&#45;&gt;4 -->
<g id="edge4" class="edge">
<title>3&#45;&gt;4</title>
<path fill="none" stroke="black" d="M159.51,-103.73C146.83,-94.15 133.33,-83.96 120.73,-74.44"/>
<polygon fill="black" stroke="black" points="122.68,-71.53 112.6,-68.3 118.47,-77.12 122.68,-71.53"/>
</g>
<!-- 5 -->
<g id="node6" class="node">
<title>5</title>
<path fill="#cee6f8" stroke="black" d="M259.5,-68C259.5,-68 167.5,-68 167.5,-68 161.5,-68 155.5,-62 155.5,-56 155.5,-56 155.5,-12 155.5,-12 155.5,-6 161.5,0 167.5,0 167.5,0 259.5,0 259.5,0 265.5,0 271.5,-6 271.5,-12 271.5,-12 271.5,-56 271.5,-56 271.5,-62 265.5,-68 259.5,-68"/>
<text text-anchor="start" x="166" y="-52.8" font-family="Helvetica,sans-Serif" font-size="14.00">entropy = 0.985</text>
<text text-anchor="start" x="176" y="-37.8" font-family="Helvetica,sans-Serif" font-size="14.00">samples = 7</text>
<text text-anchor="start" x="174" y="-22.8" font-family="Helvetica,sans-Serif" font-size="14.00">value = [3, 4]</text>
<text text-anchor="start" x="163.5" y="-7.8" font-family="Helvetica,sans-Serif" font-size="14.00">class = Decease</text>
</g>
<!-- 3&#45;&gt;5 -->
<g id="edge5" class="edge">
<title>3&#45;&gt;5</title>
<path fill="none" stroke="black" d="M213.5,-103.73C213.5,-95.52 213.5,-86.86 213.5,-78.56"/>
<polygon fill="black" stroke="black" points="217,-78.3 213.5,-68.3 210,-78.3 217,-78.3"/>
</g>
<!-- 7 -->
<g id="node8" class="node">
<title>7</title>
<path fill="#e89253" stroke="black" d="M415,-68C415,-68 302,-68 302,-68 296,-68 290,-62 290,-56 290,-56 290,-12 290,-12 290,-6 296,0 302,0 302,0 415,0 415,0 421,0 427,-6 427,-12 427,-12 427,-56 427,-56 427,-62 421,-68 415,-68"/>
<text text-anchor="start" x="311" y="-52.8" font-family="Helvetica,sans-Serif" font-size="14.00">entropy = 0.523</text>
<text text-anchor="start" x="317.5" y="-37.8" font-family="Helvetica,sans-Serif" font-size="14.00">samples = 34</text>
<text text-anchor="start" x="315.5" y="-22.8" font-family="Helvetica,sans-Serif" font-size="14.00">value = [30, 4]</text>
<text text-anchor="start" x="298" y="-7.8" font-family="Helvetica,sans-Serif" font-size="14.00">class = No Decease</text>
</g>
<!-- 6&#45;&gt;7 -->
<g id="edge7" class="edge">
<title>6&#45;&gt;7</title>
<path fill="none" stroke="black" d="M409.97,-103.73C403.27,-94.79 396.18,-85.32 389.47,-76.36"/>
<polygon fill="black" stroke="black" points="392.23,-74.21 383.44,-68.3 386.63,-78.4 392.23,-74.21"/>
</g>
<!-- 8 -->
<g id="node9" class="node">
<title>8</title>
<path fill="#e58139" stroke="black" d="M570,-68C570,-68 457,-68 457,-68 451,-68 445,-62 445,-56 445,-56 445,-12 445,-12 445,-6 451,0 457,0 457,0 570,0 570,0 576,0 582,-6 582,-12 582,-12 582,-56 582,-56 582,-62 576,-68 570,-68"/>
<text text-anchor="start" x="473.5" y="-52.8" font-family="Helvetica,sans-Serif" font-size="14.00">entropy = 0.0</text>
<text text-anchor="start" x="472.5" y="-37.8" font-family="Helvetica,sans-Serif" font-size="14.00">samples = 45</text>
<text text-anchor="start" x="470.5" y="-22.8" font-family="Helvetica,sans-Serif" font-size="14.00">value = [45, 0]</text>
<text text-anchor="start" x="453" y="-7.8" font-family="Helvetica,sans-Serif" font-size="14.00">class = No Decease</text>
</g>
<!-- 6&#45;&gt;8 -->
<g id="edge8" class="edge">
<title>6&#45;&gt;8</title>
<path fill="none" stroke="black" d="M467.68,-103.73C473.58,-94.88 479.83,-85.51 485.75,-76.63"/>
<polygon fill="black" stroke="black" points="488.67,-78.56 491.3,-68.3 482.84,-74.68 488.67,-78.56"/>
</g>
<!-- 10 -->
<g id="node11" class="node">
<title>10</title>
<path fill="#eca470" stroke="black" d="M880,-187C880,-187 767,-187 767,-187 761,-187 755,-181 755,-175 755,-175 755,-116 755,-116 755,-110 761,-104 767,-104 767,-104 880,-104 880,-104 886,-104 892,-110 892,-116 892,-116 892,-175 892,-175 892,-181 886,-187 880,-187"/>
<text text-anchor="start" x="791.5" y="-171.8" font-family="Helvetica,sans-Serif" font-size="14.00">age ≤ 54.0</text>
<text text-anchor="start" x="776" y="-156.8" font-family="Helvetica,sans-Serif" font-size="14.00">entropy = 0.755</text>
<text text-anchor="start" x="782.5" y="-141.8" font-family="Helvetica,sans-Serif" font-size="14.00">samples = 23</text>
<text text-anchor="start" x="780.5" y="-126.8" font-family="Helvetica,sans-Serif" font-size="14.00">value = [18, 5]</text>
<text text-anchor="start" x="763" y="-111.8" font-family="Helvetica,sans-Serif" font-size="14.00">class = No Decease</text>
</g>
<!-- 9&#45;&gt;10 -->
<g id="edge10" class="edge">
<title>9&#45;&gt;10</title>
<path fill="none" stroke="black" d="M870.52,-222.91C865.1,-214.1 859.32,-204.7 853.72,-195.61"/>
<polygon fill="black" stroke="black" points="856.66,-193.7 848.44,-187.02 850.7,-197.37 856.66,-193.7"/>
</g>
<!-- 13 -->
<g id="node14" class="node">
<title>13</title>
<path fill="#57ace9" stroke="black" d="M1014.5,-187C1014.5,-187 922.5,-187 922.5,-187 916.5,-187 910.5,-181 910.5,-175 910.5,-175 910.5,-116 910.5,-116 910.5,-110 916.5,-104 922.5,-104 922.5,-104 1014.5,-104 1014.5,-104 1020.5,-104 1026.5,-110 1026.5,-116 1026.5,-116 1026.5,-175 1026.5,-175 1026.5,-181 1020.5,-187 1014.5,-187"/>
<text text-anchor="start" x="941" y="-171.8" font-family="Helvetica,sans-Serif" font-size="14.00">sex ≤ 0.5</text>
<text text-anchor="start" x="921" y="-156.8" font-family="Helvetica,sans-Serif" font-size="14.00">entropy = 0.567</text>
<text text-anchor="start" x="927.5" y="-141.8" font-family="Helvetica,sans-Serif" font-size="14.00">samples = 15</text>
<text text-anchor="start" x="925.5" y="-126.8" font-family="Helvetica,sans-Serif" font-size="14.00">value = [2, 13]</text>
<text text-anchor="start" x="918.5" y="-111.8" font-family="Helvetica,sans-Serif" font-size="14.00">class = Decease</text>
</g>
<!-- 9&#45;&gt;13 -->
<g id="edge13" class="edge">
<title>9&#45;&gt;13</title>
<path fill="none" stroke="black" d="M920.83,-222.91C926.32,-214.1 932.19,-204.7 937.86,-195.61"/>
<polygon fill="black" stroke="black" points="940.89,-197.36 943.22,-187.02 934.95,-193.65 940.89,-197.36"/>
</g>
<!-- 11 -->
<g id="node12" class="node">
<title>11</title>
<path fill="#e58139" stroke="black" d="M725,-68C725,-68 612,-68 612,-68 606,-68 600,-62 600,-56 600,-56 600,-12 600,-12 600,-6 606,0 612,0 612,0 725,0 725,0 731,0 737,-6 737,-12 737,-12 737,-56 737,-56 737,-62 731,-68 725,-68"/>
<text text-anchor="start" x="628.5" y="-52.8" font-family="Helvetica,sans-Serif" font-size="14.00">entropy = 0.0</text>
<text text-anchor="start" x="627.5" y="-37.8" font-family="Helvetica,sans-Serif" font-size="14.00">samples = 12</text>
<text text-anchor="start" x="625.5" y="-22.8" font-family="Helvetica,sans-Serif" font-size="14.00">value = [12, 0]</text>
<text text-anchor="start" x="608" y="-7.8" font-family="Helvetica,sans-Serif" font-size="14.00">class = No Decease</text>
</g>
<!-- 10&#45;&gt;11 -->
<g id="edge11" class="edge">
<title>10&#45;&gt;11</title>
<path fill="none" stroke="black" d="M765.78,-103.73C752.1,-94.06 737.53,-83.77 723.95,-74.17"/>
<polygon fill="black" stroke="black" points="725.82,-71.21 715.64,-68.3 721.78,-76.93 725.82,-71.21"/>
</g>
<!-- 12 -->
<g id="node13" class="node">
<title>12</title>
<path fill="#fbeade" stroke="black" d="M880,-68C880,-68 767,-68 767,-68 761,-68 755,-62 755,-56 755,-56 755,-12 755,-12 755,-6 761,0 767,0 767,0 880,0 880,0 886,0 892,-6 892,-12 892,-12 892,-56 892,-56 892,-62 886,-68 880,-68"/>
<text text-anchor="start" x="776" y="-52.8" font-family="Helvetica,sans-Serif" font-size="14.00">entropy = 0.994</text>
<text text-anchor="start" x="782.5" y="-37.8" font-family="Helvetica,sans-Serif" font-size="14.00">samples = 11</text>
<text text-anchor="start" x="784" y="-22.8" font-family="Helvetica,sans-Serif" font-size="14.00">value = [6, 5]</text>
<text text-anchor="start" x="763" y="-7.8" font-family="Helvetica,sans-Serif" font-size="14.00">class = No Decease</text>
</g>
<!-- 10&#45;&gt;12 -->
<g id="edge12" class="edge">
<title>10&#45;&gt;12</title>
<path fill="none" stroke="black" d="M823.5,-103.73C823.5,-95.52 823.5,-86.86 823.5,-78.56"/>
<polygon fill="black" stroke="black" points="827,-78.3 823.5,-68.3 820,-78.3 827,-78.3"/>
</g>
<!-- 14 -->
<g id="node15" class="node">
<title>14</title>
<path fill="#bddef6" stroke="black" d="M1014.5,-68C1014.5,-68 922.5,-68 922.5,-68 916.5,-68 910.5,-62 910.5,-56 910.5,-56 910.5,-12 910.5,-12 910.5,-6 916.5,0 922.5,0 922.5,0 1014.5,0 1014.5,0 1020.5,0 1026.5,-6 1026.5,-12 1026.5,-12 1026.5,-56 1026.5,-56 1026.5,-62 1020.5,-68 1014.5,-68"/>
<text text-anchor="start" x="921" y="-52.8" font-family="Helvetica,sans-Serif" font-size="14.00">entropy = 0.971</text>
<text text-anchor="start" x="931" y="-37.8" font-family="Helvetica,sans-Serif" font-size="14.00">samples = 5</text>
<text text-anchor="start" x="929" y="-22.8" font-family="Helvetica,sans-Serif" font-size="14.00">value = [2, 3]</text>
<text text-anchor="start" x="918.5" y="-7.8" font-family="Helvetica,sans-Serif" font-size="14.00">class = Decease</text>
</g>
<!-- 13&#45;&gt;14 -->
<g id="edge14" class="edge">
<title>13&#45;&gt;14</title>
<path fill="none" stroke="black" d="M968.5,-103.73C968.5,-95.52 968.5,-86.86 968.5,-78.56"/>
<polygon fill="black" stroke="black" points="972,-78.3 968.5,-68.3 965,-78.3 972,-78.3"/>
</g>
<!-- 15 -->
<g id="node16" class="node">
<title>15</title>
<path fill="#399de5" stroke="black" d="M1148.5,-68C1148.5,-68 1056.5,-68 1056.5,-68 1050.5,-68 1044.5,-62 1044.5,-56 1044.5,-56 1044.5,-12 1044.5,-12 1044.5,-6 1050.5,0 1056.5,0 1056.5,0 1148.5,0 1148.5,0 1154.5,0 1160.5,-6 1160.5,-12 1160.5,-12 1160.5,-56 1160.5,-56 1160.5,-62 1154.5,-68 1148.5,-68"/>
<text text-anchor="start" x="1062.5" y="-52.8" font-family="Helvetica,sans-Serif" font-size="14.00">entropy = 0.0</text>
<text text-anchor="start" x="1061.5" y="-37.8" font-family="Helvetica,sans-Serif" font-size="14.00">samples = 10</text>
<text text-anchor="start" x="1059.5" y="-22.8" font-family="Helvetica,sans-Serif" font-size="14.00">value = [0, 10]</text>
<text text-anchor="start" x="1052.5" y="-7.8" font-family="Helvetica,sans-Serif" font-size="14.00">class = Decease</text>
</g>
<!-- 13&#45;&gt;15 -->
<g id="edge15" class="edge">
<title>13&#45;&gt;15</title>
<path fill="none" stroke="black" d="M1018.4,-103.73C1030,-94.24 1042.35,-84.16 1053.9,-74.72"/>
<polygon fill="black" stroke="black" points="1056.22,-77.34 1061.75,-68.3 1051.79,-71.92 1056.22,-77.34"/>
</g>
<!-- 17 -->
<g id="node18" class="node">
<title>17</title>
<path fill="#a2d1f3" stroke="black" d="M1358.5,-306C1358.5,-306 1266.5,-306 1266.5,-306 1260.5,-306 1254.5,-300 1254.5,-294 1254.5,-294 1254.5,-235 1254.5,-235 1254.5,-229 1260.5,-223 1266.5,-223 1266.5,-223 1358.5,-223 1358.5,-223 1364.5,-223 1370.5,-229 1370.5,-235 1370.5,-235 1370.5,-294 1370.5,-294 1370.5,-300 1364.5,-306 1358.5,-306"/>
<text text-anchor="start" x="1288" y="-290.8" font-family="Helvetica,sans-Serif" font-size="14.00">cp ≤ 3.5</text>
<text text-anchor="start" x="1265" y="-275.8" font-family="Helvetica,sans-Serif" font-size="14.00">entropy = 0.931</text>
<text text-anchor="start" x="1271.5" y="-260.8" font-family="Helvetica,sans-Serif" font-size="14.00">samples = 75</text>
<text text-anchor="start" x="1265.5" y="-245.8" font-family="Helvetica,sans-Serif" font-size="14.00">value = [26, 49]</text>
<text text-anchor="start" x="1262.5" y="-230.8" font-family="Helvetica,sans-Serif" font-size="14.00">class = Decease</text>
</g>
<!-- 16&#45;&gt;17 -->
<g id="edge17" class="edge">
<title>16&#45;&gt;17</title>
<path fill="none" stroke="black" d="M1312.5,-341.91C1312.5,-333.65 1312.5,-324.86 1312.5,-316.3"/>
<polygon fill="black" stroke="black" points="1316,-316.02 1312.5,-306.02 1309,-316.02 1316,-316.02"/>
</g>
<!-- 24 -->
<g id="node25" class="node">
<title>24</title>
<path fill="#399de5" stroke="black" d="M1492.5,-298.5C1492.5,-298.5 1400.5,-298.5 1400.5,-298.5 1394.5,-298.5 1388.5,-292.5 1388.5,-286.5 1388.5,-286.5 1388.5,-242.5 1388.5,-242.5 1388.5,-236.5 1394.5,-230.5 1400.5,-230.5 1400.5,-230.5 1492.5,-230.5 1492.5,-230.5 1498.5,-230.5 1504.5,-236.5 1504.5,-242.5 1504.5,-242.5 1504.5,-286.5 1504.5,-286.5 1504.5,-292.5 1498.5,-298.5 1492.5,-298.5"/>
<text text-anchor="start" x="1406.5" y="-283.3" font-family="Helvetica,sans-Serif" font-size="14.00">entropy = 0.0</text>
<text text-anchor="start" x="1405.5" y="-268.3" font-family="Helvetica,sans-Serif" font-size="14.00">samples = 34</text>
<text text-anchor="start" x="1403.5" y="-253.3" font-family="Helvetica,sans-Serif" font-size="14.00">value = [0, 34]</text>
<text text-anchor="start" x="1396.5" y="-238.3" font-family="Helvetica,sans-Serif" font-size="14.00">class = Decease</text>
</g>
<!-- 16&#45;&gt;24 -->
<g id="edge24" class="edge">
<title>16&#45;&gt;24</title>
<path fill="none" stroke="black" d="M1358.99,-341.91C1372.51,-330.1 1387.27,-317.22 1400.75,-305.45"/>
<polygon fill="black" stroke="black" points="1403.28,-307.88 1408.51,-298.67 1398.68,-302.61 1403.28,-307.88"/>
</g>
<!-- 18 -->
<g id="node19" class="node">
<title>18</title>
<path fill="#f7d7c0" stroke="black" d="M1369,-187C1369,-187 1256,-187 1256,-187 1250,-187 1244,-181 1244,-175 1244,-175 1244,-116 1244,-116 1244,-110 1250,-104 1256,-104 1256,-104 1369,-104 1369,-104 1375,-104 1381,-110 1381,-116 1381,-116 1381,-175 1381,-175 1381,-181 1375,-187 1369,-187"/>
<text text-anchor="start" x="1275.5" y="-171.8" font-family="Helvetica,sans-Serif" font-size="14.00">chol ≤ 207.5</text>
<text text-anchor="start" x="1265" y="-156.8" font-family="Helvetica,sans-Serif" font-size="14.00">entropy = 0.974</text>
<text text-anchor="start" x="1271.5" y="-141.8" font-family="Helvetica,sans-Serif" font-size="14.00">samples = 32</text>
<text text-anchor="start" x="1265.5" y="-126.8" font-family="Helvetica,sans-Serif" font-size="14.00">value = [19, 13]</text>
<text text-anchor="start" x="1252" y="-111.8" font-family="Helvetica,sans-Serif" font-size="14.00">class = No Decease</text>
</g>
<!-- 17&#45;&gt;18 -->
<g id="edge18" class="edge">
<title>17&#45;&gt;18</title>
<path fill="none" stroke="black" d="M1312.5,-222.91C1312.5,-214.65 1312.5,-205.86 1312.5,-197.3"/>
<polygon fill="black" stroke="black" points="1316,-197.02 1312.5,-187.02 1309,-197.02 1316,-197.02"/>
</g>
<!-- 21 -->
<g id="node22" class="node">
<title>21</title>
<path fill="#5fb0ea" stroke="black" d="M1577,-187C1577,-187 1476,-187 1476,-187 1470,-187 1464,-181 1464,-175 1464,-175 1464,-116 1464,-116 1464,-110 1470,-104 1476,-104 1476,-104 1577,-104 1577,-104 1583,-104 1589,-110 1589,-116 1589,-116 1589,-175 1589,-175 1589,-181 1583,-187 1577,-187"/>
<text text-anchor="start" x="1482" y="-171.8" font-family="Helvetica,sans-Serif" font-size="14.00">oldpeak ≤ 0.55</text>
<text text-anchor="start" x="1479" y="-156.8" font-family="Helvetica,sans-Serif" font-size="14.00">entropy = 0.641</text>
<text text-anchor="start" x="1485.5" y="-141.8" font-family="Helvetica,sans-Serif" font-size="14.00">samples = 43</text>
<text text-anchor="start" x="1472" y="-126.8" font-family="Helvetica,sans-Serif" font-size="14.00">value = [7.0, 36.0]</text>
<text text-anchor="start" x="1476.5" y="-111.8" font-family="Helvetica,sans-Serif" font-size="14.00">class = Decease</text>
</g>
<!-- 17&#45;&gt;21 -->
<g id="edge21" class="edge">
<title>17&#45;&gt;21</title>
<path fill="none" stroke="black" d="M1370.84,-227.94C1373.76,-226.25 1376.66,-224.6 1379.5,-223 1403.74,-209.38 1430.64,-195.14 1454.72,-182.69"/>
<polygon fill="black" stroke="black" points="1456.51,-185.7 1463.8,-178.01 1453.31,-179.48 1456.51,-185.7"/>
</g>
<!-- 19 -->
<g id="node20" class="node">
<title>19</title>
<path fill="#e58139" stroke="black" d="M1304,-68C1304,-68 1191,-68 1191,-68 1185,-68 1179,-62 1179,-56 1179,-56 1179,-12 1179,-12 1179,-6 1185,0 1191,0 1191,0 1304,0 1304,0 1310,0 1316,-6 1316,-12 1316,-12 1316,-56 1316,-56 1316,-62 1310,-68 1304,-68"/>
<text text-anchor="start" x="1207.5" y="-52.8" font-family="Helvetica,sans-Serif" font-size="14.00">entropy = 0.0</text>
<text text-anchor="start" x="1210" y="-37.8" font-family="Helvetica,sans-Serif" font-size="14.00">samples = 7</text>
<text text-anchor="start" x="1208" y="-22.8" font-family="Helvetica,sans-Serif" font-size="14.00">value = [7, 0]</text>
<text text-anchor="start" x="1187" y="-7.8" font-family="Helvetica,sans-Serif" font-size="14.00">class = No Decease</text>
</g>
<!-- 18&#45;&gt;19 -->
<g id="edge19" class="edge">
<title>18&#45;&gt;19</title>
<path fill="none" stroke="black" d="M1288.3,-103.73C1283.1,-94.97 1277.6,-85.7 1272.38,-76.91"/>
<polygon fill="black" stroke="black" points="1275.38,-75.11 1267.27,-68.3 1269.36,-78.69 1275.38,-75.11"/>
</g>
<!-- 20 -->
<g id="node21" class="node">
<title>20</title>
<path fill="#f0f7fd" stroke="black" d="M1438.5,-68C1438.5,-68 1346.5,-68 1346.5,-68 1340.5,-68 1334.5,-62 1334.5,-56 1334.5,-56 1334.5,-12 1334.5,-12 1334.5,-6 1340.5,0 1346.5,0 1346.5,0 1438.5,0 1438.5,0 1444.5,0 1450.5,-6 1450.5,-12 1450.5,-12 1450.5,-56 1450.5,-56 1450.5,-62 1444.5,-68 1438.5,-68"/>
<text text-anchor="start" x="1345" y="-52.8" font-family="Helvetica,sans-Serif" font-size="14.00">entropy = 0.999</text>
<text text-anchor="start" x="1351.5" y="-37.8" font-family="Helvetica,sans-Serif" font-size="14.00">samples = 25</text>
<text text-anchor="start" x="1345.5" y="-22.8" font-family="Helvetica,sans-Serif" font-size="14.00">value = [12, 13]</text>
<text text-anchor="start" x="1342.5" y="-7.8" font-family="Helvetica,sans-Serif" font-size="14.00">class = Decease</text>
</g>
<!-- 18&#45;&gt;20 -->
<g id="edge20" class="edge">
<title>18&#45;&gt;20</title>
<path fill="none" stroke="black" d="M1342.29,-103.73C1348.75,-94.88 1355.6,-85.51 1362.09,-76.63"/>
<polygon fill="black" stroke="black" points="1365.1,-78.44 1368.17,-68.3 1359.45,-74.31 1365.1,-78.44"/>
</g>
<!-- 22 -->
<g id="node23" class="node">
<title>22</title>
<path fill="#cee6f8" stroke="black" d="M1572.5,-68C1572.5,-68 1480.5,-68 1480.5,-68 1474.5,-68 1468.5,-62 1468.5,-56 1468.5,-56 1468.5,-12 1468.5,-12 1468.5,-6 1474.5,0 1480.5,0 1480.5,0 1572.5,0 1572.5,0 1578.5,0 1584.5,-6 1584.5,-12 1584.5,-12 1584.5,-56 1584.5,-56 1584.5,-62 1578.5,-68 1572.5,-68"/>
<text text-anchor="start" x="1479" y="-52.8" font-family="Helvetica,sans-Serif" font-size="14.00">entropy = 0.985</text>
<text text-anchor="start" x="1485.5" y="-37.8" font-family="Helvetica,sans-Serif" font-size="14.00">samples = 14</text>
<text text-anchor="start" x="1487" y="-22.8" font-family="Helvetica,sans-Serif" font-size="14.00">value = [6, 8]</text>
<text text-anchor="start" x="1476.5" y="-7.8" font-family="Helvetica,sans-Serif" font-size="14.00">class = Decease</text>
</g>
<!-- 21&#45;&gt;22 -->
<g id="edge22" class="edge">
<title>21&#45;&gt;22</title>
<path fill="none" stroke="black" d="M1526.5,-103.73C1526.5,-95.52 1526.5,-86.86 1526.5,-78.56"/>
<polygon fill="black" stroke="black" points="1530,-78.3 1526.5,-68.3 1523,-78.3 1530,-78.3"/>
</g>
<!-- 23 -->
<g id="node24" class="node">
<title>23</title>
<path fill="#40a0e6" stroke="black" d="M1706.5,-68C1706.5,-68 1614.5,-68 1614.5,-68 1608.5,-68 1602.5,-62 1602.5,-56 1602.5,-56 1602.5,-12 1602.5,-12 1602.5,-6 1608.5,0 1614.5,0 1614.5,0 1706.5,0 1706.5,0 1712.5,0 1718.5,-6 1718.5,-12 1718.5,-12 1718.5,-56 1718.5,-56 1718.5,-62 1712.5,-68 1706.5,-68"/>
<text text-anchor="start" x="1613" y="-52.8" font-family="Helvetica,sans-Serif" font-size="14.00">entropy = 0.216</text>
<text text-anchor="start" x="1619.5" y="-37.8" font-family="Helvetica,sans-Serif" font-size="14.00">samples = 29</text>
<text text-anchor="start" x="1617.5" y="-22.8" font-family="Helvetica,sans-Serif" font-size="14.00">value = [1, 28]</text>
<text text-anchor="start" x="1610.5" y="-7.8" font-family="Helvetica,sans-Serif" font-size="14.00">class = Decease</text>
</g>
<!-- 21&#45;&gt;23 -->
<g id="edge23" class="edge">
<title>21&#45;&gt;23</title>
<path fill="none" stroke="black" d="M1576.4,-103.73C1588,-94.24 1600.35,-84.16 1611.9,-74.72"/>
<polygon fill="black" stroke="black" points="1614.22,-77.34 1619.75,-68.3 1609.79,-71.92 1614.22,-77.34"/>
</g>
</g>
</svg>
