<?xml version="1.0" encoding="UTF-8" standalone="no"?>
<!DOCTYPE svg PUBLIC "-//W3C//DTD SVG 1.1//EN"
 "http://www.w3.org/Graphics/SVG/1.1/DTD/svg11.dtd">
<!-- Generated by graphviz version 2.50.0 (0)
 -->
<!-- Title: Tree Pages: 1 -->
<svg width="2055pt" height="671pt"
 viewBox="0.00 0.00 2054.50 671.00" xmlns="http://www.w3.org/2000/svg" xmlns:xlink="http://www.w3.org/1999/xlink">
<g id="graph0" class="graph" transform="scale(1 1) rotate(0) translate(4 667)">
<title>Tree</title>
<polygon fill="white" stroke="transparent" points="-4,4 -4,-667 2050.5,-667 2050.5,4 -4,4"/>
<!-- 0 -->
<g id="node1" class="node">
<title>0</title>
<path fill="#fbece2" stroke="black" d="M885,-663C885,-663 762,-663 762,-663 756,-663 750,-657 750,-651 750,-651 750,-592 750,-592 750,-586 756,-580 762,-580 762,-580 885,-580 885,-580 891,-580 897,-586 897,-592 897,-592 897,-651 897,-651 897,-657 891,-663 885,-663"/>
<text text-anchor="start" x="795.5" y="-647.8" font-family="Helvetica,sans-Serif" font-size="14.00">thal ≤ 4.5</text>
<text text-anchor="start" x="776" y="-632.8" font-family="Helvetica,sans-Serif" font-size="14.00">entropy = 0.995</text>
<text text-anchor="start" x="778.5" y="-617.8" font-family="Helvetica,sans-Serif" font-size="14.00">samples = 237</text>
<text text-anchor="start" x="758" y="-602.8" font-family="Helvetica,sans-Serif" font-size="14.00">value = [128.0, 109.0]</text>
<text text-anchor="start" x="763" y="-587.8" font-family="Helvetica,sans-Serif" font-size="14.00">class = No Decease</text>
</g>
<!-- 1 -->
<g id="node2" class="node">
<title>1</title>
<path fill="#eca36f" stroke="black" d="M803,-544C803,-544 690,-544 690,-544 684,-544 678,-538 678,-532 678,-532 678,-473 678,-473 678,-467 684,-461 690,-461 690,-461 803,-461 803,-461 809,-461 815,-467 815,-473 815,-473 815,-532 815,-532 815,-538 809,-544 803,-544"/>
<text text-anchor="start" x="722" y="-528.8" font-family="Helvetica,sans-Serif" font-size="14.00">ca ≤ 0.5</text>
<text text-anchor="start" x="702.5" y="-513.8" font-family="Helvetica,sans-Serif" font-size="14.00">entropy = 0.75</text>
<text text-anchor="start" x="701.5" y="-498.8" font-family="Helvetica,sans-Serif" font-size="14.00">samples = 126</text>
<text text-anchor="start" x="699.5" y="-483.8" font-family="Helvetica,sans-Serif" font-size="14.00">value = [99, 27]</text>
<text text-anchor="start" x="686" y="-468.8" font-family="Helvetica,sans-Serif" font-size="14.00">class = No Decease</text>
</g>
<!-- 0&#45;&gt;1 -->
<g id="edge1" class="edge">
<title>0&#45;&gt;1</title>
<path fill="none" stroke="black" d="M796.79,-579.91C790.99,-571.1 784.8,-561.7 778.82,-552.61"/>
<polygon fill="black" stroke="black" points="781.59,-550.45 773.17,-544.02 775.74,-554.3 781.59,-550.45"/>
<text text-anchor="middle" x="768.12" y="-564.81" font-family="Helvetica,sans-Serif" font-size="14.00">True</text>
</g>
<!-- 20 -->
<g id="node21" class="node">
<title>20</title>
<path fill="#7fc0ee" stroke="black" d="M1163.5,-544C1163.5,-544 1071.5,-544 1071.5,-544 1065.5,-544 1059.5,-538 1059.5,-532 1059.5,-532 1059.5,-473 1059.5,-473 1059.5,-467 1065.5,-461 1071.5,-461 1071.5,-461 1163.5,-461 1163.5,-461 1169.5,-461 1175.5,-467 1175.5,-473 1175.5,-473 1175.5,-532 1175.5,-532 1175.5,-538 1169.5,-544 1163.5,-544"/>
<text text-anchor="start" x="1093" y="-528.8" font-family="Helvetica,sans-Serif" font-size="14.00">cp ≤ 3.5</text>
<text text-anchor="start" x="1070" y="-513.8" font-family="Helvetica,sans-Serif" font-size="14.00">entropy = 0.829</text>
<text text-anchor="start" x="1073.5" y="-498.8" font-family="Helvetica,sans-Serif" font-size="14.00">samples = 111</text>
<text text-anchor="start" x="1070.5" y="-483.8" font-family="Helvetica,sans-Serif" font-size="14.00">value = [29, 82]</text>
<text text-anchor="start" x="1067.5" y="-468.8" font-family="Helvetica,sans-Serif" font-size="14.00">class = Decease</text>
</g>
<!-- 0&#45;&gt;20 -->
<g id="edge20" class="edge">
<title>0&#45;&gt;20</title>
<path fill="none" stroke="black" d="M897.31,-591.13C944.15,-572.48 1004.31,-548.54 1049.91,-530.4"/>
<polygon fill="black" stroke="black" points="1051.41,-533.57 1059.41,-526.62 1048.82,-527.06 1051.41,-533.57"/>
<text text-anchor="middle" x="1049.52" y="-545.88" font-family="Helvetica,sans-Serif" font-size="14.00">False</text>
</g>
<!-- 2 -->
<g id="node3" class="node">
<title>2</title>
<path fill="#e89253" stroke="black" d="M568,-425C568,-425 455,-425 455,-425 449,-425 443,-419 443,-413 443,-413 443,-354 443,-354 443,-348 449,-342 455,-342 455,-342 568,-342 568,-342 574,-342 580,-348 580,-354 580,-354 580,-413 580,-413 580,-419 574,-425 568,-425"/>
<text text-anchor="start" x="465" y="-409.8" font-family="Helvetica,sans-Serif" font-size="14.00">thalach ≤ 169.5</text>
<text text-anchor="start" x="464" y="-394.8" font-family="Helvetica,sans-Serif" font-size="14.00">entropy = 0.519</text>
<text text-anchor="start" x="470.5" y="-379.8" font-family="Helvetica,sans-Serif" font-size="14.00">samples = 86</text>
<text text-anchor="start" x="464.5" y="-364.8" font-family="Helvetica,sans-Serif" font-size="14.00">value = [76, 10]</text>
<text text-anchor="start" x="451" y="-349.8" font-family="Helvetica,sans-Serif" font-size="14.00">class = No Decease</text>
</g>
<!-- 1&#45;&gt;2 -->
<g id="edge2" class="edge">
<title>1&#45;&gt;2</title>
<path fill="none" stroke="black" d="M677.9,-467.34C650.15,-453.53 617.97,-437.51 589.35,-423.26"/>
<polygon fill="black" stroke="black" points="590.7,-420.02 580.19,-418.7 587.58,-426.29 590.7,-420.02"/>
</g>
<!-- 9 -->
<g id="node10" class="node">
<title>9</title>
<path fill="#f8decb" stroke="black" d="M803,-425C803,-425 690,-425 690,-425 684,-425 678,-419 678,-413 678,-413 678,-354 678,-354 678,-348 684,-342 690,-342 690,-342 803,-342 803,-342 809,-342 815,-348 815,-354 815,-354 815,-413 815,-413 815,-419 809,-425 803,-425"/>
<text text-anchor="start" x="722" y="-409.8" font-family="Helvetica,sans-Serif" font-size="14.00">cp ≤ 3.5</text>
<text text-anchor="start" x="699" y="-394.8" font-family="Helvetica,sans-Serif" font-size="14.00">entropy = 0.984</text>
<text text-anchor="start" x="705.5" y="-379.8" font-family="Helvetica,sans-Serif" font-size="14.00">samples = 40</text>
<text text-anchor="start" x="699.5" y="-364.8" font-family="Helvetica,sans-Serif" font-size="14.00">value = [23, 17]</text>
<text text-anchor="start" x="686" y="-349.8" font-family="Helvetica,sans-Serif" font-size="14.00">class = No Decease</text>
</g>
<!-- 1&#45;&gt;9 -->
<g id="edge9" class="edge">
<title>1&#45;&gt;9</title>
<path fill="none" stroke="black" d="M746.5,-460.91C746.5,-452.65 746.5,-443.86 746.5,-435.3"/>
<polygon fill="black" stroke="black" points="750,-435.02 746.5,-425.02 743,-435.02 750,-435.02"/>
</g>
<!-- 3 -->
<g id="node4" class="node">
<title>3</title>
<path fill="#eb9d65" stroke="black" d="M413,-306C413,-306 300,-306 300,-306 294,-306 288,-300 288,-294 288,-294 288,-235 288,-235 288,-229 294,-223 300,-223 300,-223 413,-223 413,-223 419,-223 425,-229 425,-235 425,-235 425,-294 425,-294 425,-300 419,-306 413,-306"/>
<text text-anchor="start" x="315.5" y="-290.8" font-family="Helvetica,sans-Serif" font-size="14.00">oldpeak ≤ 3.2</text>
<text text-anchor="start" x="309" y="-275.8" font-family="Helvetica,sans-Serif" font-size="14.00">entropy = 0.684</text>
<text text-anchor="start" x="315.5" y="-260.8" font-family="Helvetica,sans-Serif" font-size="14.00">samples = 55</text>
<text text-anchor="start" x="309.5" y="-245.8" font-family="Helvetica,sans-Serif" font-size="14.00">value = [45, 10]</text>
<text text-anchor="start" x="296" y="-230.8" font-family="Helvetica,sans-Serif" font-size="14.00">class = No Decease</text>
</g>
<!-- 2&#45;&gt;3 -->
<g id="edge3" class="edge">
<title>2&#45;&gt;3</title>
<path fill="none" stroke="black" d="M457.72,-341.91C444.98,-332.29 431.29,-321.95 418.22,-312.09"/>
<polygon fill="black" stroke="black" points="420.27,-309.25 410.18,-306.02 416.05,-314.84 420.27,-309.25"/>
</g>
<!-- 8 -->
<g id="node9" class="node">
<title>8</title>
<path fill="#e58139" stroke="black" d="M568,-298.5C568,-298.5 455,-298.5 455,-298.5 449,-298.5 443,-292.5 443,-286.5 443,-286.5 443,-242.5 443,-242.5 443,-236.5 449,-230.5 455,-230.5 455,-230.5 568,-230.5 568,-230.5 574,-230.5 580,-236.5 580,-242.5 580,-242.5 580,-286.5 580,-286.5 580,-292.5 574,-298.5 568,-298.5"/>
<text text-anchor="start" x="471.5" y="-283.3" font-family="Helvetica,sans-Serif" font-size="14.00">entropy = 0.0</text>
<text text-anchor="start" x="470.5" y="-268.3" font-family="Helvetica,sans-Serif" font-size="14.00">samples = 31</text>
<text text-anchor="start" x="468.5" y="-253.3" font-family="Helvetica,sans-Serif" font-size="14.00">value = [31, 0]</text>
<text text-anchor="start" x="451" y="-238.3" font-family="Helvetica,sans-Serif" font-size="14.00">class = No Decease</text>
</g>
<!-- 2&#45;&gt;8 -->
<g id="edge8" class="edge">
<title>2&#45;&gt;8</title>
<path fill="none" stroke="black" d="M511.5,-341.91C511.5,-331.2 511.5,-319.62 511.5,-308.78"/>
<polygon fill="black" stroke="black" points="515,-308.67 511.5,-298.67 508,-308.67 515,-308.67"/>
</g>
<!-- 4 -->
<g id="node5" class="node">
<title>4</title>
<path fill="#ea975c" stroke="black" d="M270,-187C270,-187 157,-187 157,-187 151,-187 145,-181 145,-175 145,-175 145,-116 145,-116 145,-110 151,-104 157,-104 157,-104 270,-104 270,-104 276,-104 282,-110 282,-116 282,-116 282,-175 282,-175 282,-181 276,-187 270,-187"/>
<text text-anchor="start" x="181.5" y="-171.8" font-family="Helvetica,sans-Serif" font-size="14.00">age ≤ 57.5</text>
<text text-anchor="start" x="166" y="-156.8" font-family="Helvetica,sans-Serif" font-size="14.00">entropy = 0.612</text>
<text text-anchor="start" x="172.5" y="-141.8" font-family="Helvetica,sans-Serif" font-size="14.00">samples = 53</text>
<text text-anchor="start" x="170.5" y="-126.8" font-family="Helvetica,sans-Serif" font-size="14.00">value = [45, 8]</text>
<text text-anchor="start" x="153" y="-111.8" font-family="Helvetica,sans-Serif" font-size="14.00">class = No Decease</text>
</g>
<!-- 3&#45;&gt;4 -->
<g id="edge4" class="edge">
<title>3&#45;&gt;4</title>
<path fill="none" stroke="black" d="M306.89,-222.91C295.24,-213.38 282.74,-203.15 270.79,-193.37"/>
<polygon fill="black" stroke="black" points="272.98,-190.64 263.03,-187.02 268.55,-196.06 272.98,-190.64"/>
</g>
<!-- 7 -->
<g id="node8" class="node">
<title>7</title>
<path fill="#399de5" stroke="black" d="M404.5,-179.5C404.5,-179.5 312.5,-179.5 312.5,-179.5 306.5,-179.5 300.5,-173.5 300.5,-167.5 300.5,-167.5 300.5,-123.5 300.5,-123.5 300.5,-117.5 306.5,-111.5 312.5,-111.5 312.5,-111.5 404.5,-111.5 404.5,-111.5 410.5,-111.5 416.5,-117.5 416.5,-123.5 416.5,-123.5 416.5,-167.5 416.5,-167.5 416.5,-173.5 410.5,-179.5 404.5,-179.5"/>
<text text-anchor="start" x="318.5" y="-164.3" font-family="Helvetica,sans-Serif" font-size="14.00">entropy = 0.0</text>
<text text-anchor="start" x="321" y="-149.3" font-family="Helvetica,sans-Serif" font-size="14.00">samples = 2</text>
<text text-anchor="start" x="319" y="-134.3" font-family="Helvetica,sans-Serif" font-size="14.00">value = [0, 2]</text>
<text text-anchor="start" x="308.5" y="-119.3" font-family="Helvetica,sans-Serif" font-size="14.00">class = Decease</text>
</g>
<!-- 3&#45;&gt;7 -->
<g id="edge7" class="edge">
<title>3&#45;&gt;7</title>
<path fill="none" stroke="black" d="M357.19,-222.91C357.38,-212.2 357.57,-200.62 357.76,-189.78"/>
<polygon fill="black" stroke="black" points="361.26,-189.73 357.93,-179.67 354.26,-189.61 361.26,-189.73"/>
</g>
<!-- 5 -->
<g id="node6" class="node">
<title>5</title>
<path fill="#e68540" stroke="black" d="M125,-68C125,-68 12,-68 12,-68 6,-68 0,-62 0,-56 0,-56 0,-12 0,-12 0,-6 6,0 12,0 12,0 125,0 125,0 131,0 137,-6 137,-12 137,-12 137,-56 137,-56 137,-62 131,-68 125,-68"/>
<text text-anchor="start" x="21.5" y="-52.8" font-family="Helvetica,sans-Serif" font-size="14.00">entropy = 0.211</text>
<text text-anchor="start" x="27.5" y="-37.8" font-family="Helvetica,sans-Serif" font-size="14.00">samples = 30</text>
<text text-anchor="start" x="25.5" y="-22.8" font-family="Helvetica,sans-Serif" font-size="14.00">value = [29, 1]</text>
<text text-anchor="start" x="8" y="-7.8" font-family="Helvetica,sans-Serif" font-size="14.00">class = No Decease</text>
</g>
<!-- 4&#45;&gt;5 -->
<g id="edge5" class="edge">
<title>4&#45;&gt;5</title>
<path fill="none" stroke="black" d="M159.51,-103.73C146.83,-94.15 133.33,-83.96 120.73,-74.44"/>
<polygon fill="black" stroke="black" points="122.68,-71.53 112.6,-68.3 118.47,-77.12 122.68,-71.53"/>
</g>
<!-- 6 -->
<g id="node7" class="node">
<title>6</title>
<path fill="#f0b890" stroke="black" d="M280,-68C280,-68 167,-68 167,-68 161,-68 155,-62 155,-56 155,-56 155,-12 155,-12 155,-6 161,0 167,0 167,0 280,0 280,0 286,0 292,-6 292,-12 292,-12 292,-56 292,-56 292,-62 286,-68 280,-68"/>
<text text-anchor="start" x="176" y="-52.8" font-family="Helvetica,sans-Serif" font-size="14.00">entropy = 0.887</text>
<text text-anchor="start" x="182.5" y="-37.8" font-family="Helvetica,sans-Serif" font-size="14.00">samples = 23</text>
<text text-anchor="start" x="180.5" y="-22.8" font-family="Helvetica,sans-Serif" font-size="14.00">value = [16, 7]</text>
<text text-anchor="start" x="163" y="-7.8" font-family="Helvetica,sans-Serif" font-size="14.00">class = No Decease</text>
</g>
<!-- 4&#45;&gt;6 -->
<g id="edge6" class="edge">
<title>4&#45;&gt;6</title>
<path fill="none" stroke="black" d="M217.22,-103.73C217.98,-95.43 218.78,-86.67 219.55,-78.28"/>
<polygon fill="black" stroke="black" points="223.03,-78.58 220.46,-68.3 216.06,-77.94 223.03,-78.58"/>
</g>
<!-- 10 -->
<g id="node11" class="node">
<title>10</title>
<path fill="#eb9f68" stroke="black" d="M723,-306C723,-306 610,-306 610,-306 604,-306 598,-300 598,-294 598,-294 598,-235 598,-235 598,-229 604,-223 610,-223 610,-223 723,-223 723,-223 729,-223 735,-229 735,-235 735,-235 735,-294 735,-294 735,-300 729,-306 723,-306"/>
<text text-anchor="start" x="642" y="-290.8" font-family="Helvetica,sans-Serif" font-size="14.00">cp ≤ 2.5</text>
<text text-anchor="start" x="619" y="-275.8" font-family="Helvetica,sans-Serif" font-size="14.00">entropy = 0.706</text>
<text text-anchor="start" x="625.5" y="-260.8" font-family="Helvetica,sans-Serif" font-size="14.00">samples = 26</text>
<text text-anchor="start" x="623.5" y="-245.8" font-family="Helvetica,sans-Serif" font-size="14.00">value = [21, 5]</text>
<text text-anchor="start" x="606" y="-230.8" font-family="Helvetica,sans-Serif" font-size="14.00">class = No Decease</text>
</g>
<!-- 9&#45;&gt;10 -->
<g id="edge10" class="edge">
<title>9&#45;&gt;10</title>
<path fill="none" stroke="black" d="M718.74,-341.91C712.66,-333.01 706.16,-323.51 699.89,-314.33"/>
<polygon fill="black" stroke="black" points="702.74,-312.3 694.21,-306.02 696.96,-316.25 702.74,-312.3"/>
</g>
<!-- 15 -->
<g id="node16" class="node">
<title>15</title>
<path fill="#5aade9" stroke="black" d="M864.5,-306C864.5,-306 772.5,-306 772.5,-306 766.5,-306 760.5,-300 760.5,-294 760.5,-294 760.5,-235 760.5,-235 760.5,-229 766.5,-223 772.5,-223 772.5,-223 864.5,-223 864.5,-223 870.5,-223 876.5,-229 876.5,-235 876.5,-235 876.5,-294 876.5,-294 876.5,-300 870.5,-306 864.5,-306"/>
<text text-anchor="start" x="791" y="-290.8" font-family="Helvetica,sans-Serif" font-size="14.00">sex ≤ 0.5</text>
<text text-anchor="start" x="771" y="-275.8" font-family="Helvetica,sans-Serif" font-size="14.00">entropy = 0.592</text>
<text text-anchor="start" x="777.5" y="-260.8" font-family="Helvetica,sans-Serif" font-size="14.00">samples = 14</text>
<text text-anchor="start" x="775.5" y="-245.8" font-family="Helvetica,sans-Serif" font-size="14.00">value = [2, 12]</text>
<text text-anchor="start" x="768.5" y="-230.8" font-family="Helvetica,sans-Serif" font-size="14.00">class = Decease</text>
</g>
<!-- 9&#45;&gt;15 -->
<g id="edge15" class="edge">
<title>9&#45;&gt;15</title>
<path fill="none" stroke="black" d="M771.48,-341.91C776.9,-333.1 782.68,-323.7 788.28,-314.61"/>
<polygon fill="black" stroke="black" points="791.3,-316.37 793.56,-306.02 785.34,-312.7 791.3,-316.37"/>
</g>
<!-- 11 -->
<g id="node12" class="node">
<title>11</title>
<path fill="#f3c7a7" stroke="black" d="M565,-187C565,-187 452,-187 452,-187 446,-187 440,-181 440,-175 440,-175 440,-116 440,-116 440,-110 446,-104 452,-104 452,-104 565,-104 565,-104 571,-104 577,-110 577,-116 577,-116 577,-175 577,-175 577,-181 571,-187 565,-187"/>
<text text-anchor="start" x="460" y="-171.8" font-family="Helvetica,sans-Serif" font-size="14.00">trestbps ≤ 139.0</text>
<text text-anchor="start" x="464.5" y="-156.8" font-family="Helvetica,sans-Serif" font-size="14.00">entropy = 0.94</text>
<text text-anchor="start" x="467.5" y="-141.8" font-family="Helvetica,sans-Serif" font-size="14.00">samples = 14</text>
<text text-anchor="start" x="469" y="-126.8" font-family="Helvetica,sans-Serif" font-size="14.00">value = [9, 5]</text>
<text text-anchor="start" x="448" y="-111.8" font-family="Helvetica,sans-Serif" font-size="14.00">class = No Decease</text>
</g>
<!-- 10&#45;&gt;11 -->
<g id="edge11" class="edge">
<title>10&#45;&gt;11</title>
<path fill="none" stroke="black" d="M611.68,-222.91C598.69,-213.29 584.74,-202.95 571.42,-193.09"/>
<polygon fill="black" stroke="black" points="573.34,-190.16 563.22,-187.02 569.17,-195.78 573.34,-190.16"/>
</g>
<!-- 14 -->
<g id="node15" class="node">
<title>14</title>
<path fill="#e58139" stroke="black" d="M720,-179.5C720,-179.5 607,-179.5 607,-179.5 601,-179.5 595,-173.5 595,-167.5 595,-167.5 595,-123.5 595,-123.5 595,-117.5 601,-111.5 607,-111.5 607,-111.5 720,-111.5 720,-111.5 726,-111.5 732,-117.5 732,-123.5 732,-123.5 732,-167.5 732,-167.5 732,-173.5 726,-179.5 720,-179.5"/>
<text text-anchor="start" x="623.5" y="-164.3" font-family="Helvetica,sans-Serif" font-size="14.00">entropy = 0.0</text>
<text text-anchor="start" x="622.5" y="-149.3" font-family="Helvetica,sans-Serif" font-size="14.00">samples = 12</text>
<text text-anchor="start" x="620.5" y="-134.3" font-family="Helvetica,sans-Serif" font-size="14.00">value = [12, 0]</text>
<text text-anchor="start" x="603" y="-119.3" font-family="Helvetica,sans-Serif" font-size="14.00">class = No Decease</text>
</g>
<!-- 10&#45;&gt;14 -->
<g id="edge14" class="edge">
<title>10&#45;&gt;14</title>
<path fill="none" stroke="black" d="M665.46,-222.91C665.18,-212.2 664.89,-200.62 664.61,-189.78"/>
<polygon fill="black" stroke="black" points="668.11,-189.57 664.35,-179.67 661.11,-189.75 668.11,-189.57"/>
</g>
<!-- 12 -->
<g id="node13" class="node">
<title>12</title>
<path fill="#d7ebfa" stroke="black" d="M424.5,-68C424.5,-68 332.5,-68 332.5,-68 326.5,-68 320.5,-62 320.5,-56 320.5,-56 320.5,-12 320.5,-12 320.5,-6 326.5,0 332.5,0 332.5,0 424.5,0 424.5,0 430.5,0 436.5,-6 436.5,-12 436.5,-12 436.5,-56 436.5,-56 436.5,-62 430.5,-68 424.5,-68"/>
<text text-anchor="start" x="331" y="-52.8" font-family="Helvetica,sans-Serif" font-size="14.00">entropy = 0.991</text>
<text text-anchor="start" x="341" y="-37.8" font-family="Helvetica,sans-Serif" font-size="14.00">samples = 9</text>
<text text-anchor="start" x="339" y="-22.8" font-family="Helvetica,sans-Serif" font-size="14.00">value = [4, 5]</text>
<text text-anchor="start" x="328.5" y="-7.8" font-family="Helvetica,sans-Serif" font-size="14.00">class = Decease</text>
</g>
<!-- 11&#45;&gt;12 -->
<g id="edge12" class="edge">
<title>11&#45;&gt;12</title>
<path fill="none" stroke="black" d="M460.09,-103.73C448.94,-94.33 437.09,-84.35 425.97,-74.99"/>
<polygon fill="black" stroke="black" points="427.94,-72.06 418.03,-68.3 423.43,-77.42 427.94,-72.06"/>
</g>
<!-- 13 -->
<g id="node14" class="node">
<title>13</title>
<path fill="#e58139" stroke="black" d="M580,-68C580,-68 467,-68 467,-68 461,-68 455,-62 455,-56 455,-56 455,-12 455,-12 455,-6 461,0 467,0 467,0 580,0 580,0 586,0 592,-6 592,-12 592,-12 592,-56 592,-56 592,-62 586,-68 580,-68"/>
<text text-anchor="start" x="483.5" y="-52.8" font-family="Helvetica,sans-Serif" font-size="14.00">entropy = 0.0</text>
<text text-anchor="start" x="486" y="-37.8" font-family="Helvetica,sans-Serif" font-size="14.00">samples = 5</text>
<text text-anchor="start" x="484" y="-22.8" font-family="Helvetica,sans-Serif" font-size="14.00">value = [5, 0]</text>
<text text-anchor="start" x="463" y="-7.8" font-family="Helvetica,sans-Serif" font-size="14.00">class = No Decease</text>
</g>
<!-- 11&#45;&gt;13 -->
<g id="edge13" class="edge">
<title>11&#45;&gt;13</title>
<path fill="none" stroke="black" d="M514.09,-103.73C515.22,-95.43 516.42,-86.67 517.57,-78.28"/>
<polygon fill="black" stroke="black" points="521.05,-78.68 518.94,-68.3 514.11,-77.73 521.05,-78.68"/>
</g>
<!-- 16 -->
<g id="node17" class="node">
<title>16</title>
<path fill="#ffffff" stroke="black" d="M875,-187C875,-187 762,-187 762,-187 756,-187 750,-181 750,-175 750,-175 750,-116 750,-116 750,-110 756,-104 762,-104 762,-104 875,-104 875,-104 881,-104 887,-110 887,-116 887,-116 887,-175 887,-175 887,-181 881,-187 875,-187"/>
<text text-anchor="start" x="786.5" y="-171.8" font-family="Helvetica,sans-Serif" font-size="14.00">age ≤ 63.5</text>
<text text-anchor="start" x="778.5" y="-156.8" font-family="Helvetica,sans-Serif" font-size="14.00">entropy = 1.0</text>
<text text-anchor="start" x="781" y="-141.8" font-family="Helvetica,sans-Serif" font-size="14.00">samples = 4</text>
<text text-anchor="start" x="779" y="-126.8" font-family="Helvetica,sans-Serif" font-size="14.00">value = [2, 2]</text>
<text text-anchor="start" x="758" y="-111.8" font-family="Helvetica,sans-Serif" font-size="14.00">class = No Decease</text>
</g>
<!-- 15&#45;&gt;16 -->
<g id="edge16" class="edge">
<title>15&#45;&gt;16</title>
<path fill="none" stroke="black" d="M818.5,-222.91C818.5,-214.65 818.5,-205.86 818.5,-197.3"/>
<polygon fill="black" stroke="black" points="822,-197.02 818.5,-187.02 815,-197.02 822,-197.02"/>
</g>
<!-- 19 -->
<g id="node20" class="node">
<title>19</title>
<path fill="#399de5" stroke="black" d="M1009.5,-179.5C1009.5,-179.5 917.5,-179.5 917.5,-179.5 911.5,-179.5 905.5,-173.5 905.5,-167.5 905.5,-167.5 905.5,-123.5 905.5,-123.5 905.5,-117.5 911.5,-111.5 917.5,-111.5 917.5,-111.5 1009.5,-111.5 1009.5,-111.5 1015.5,-111.5 1021.5,-117.5 1021.5,-123.5 1021.5,-123.5 1021.5,-167.5 1021.5,-167.5 1021.5,-173.5 1015.5,-179.5 1009.5,-179.5"/>
<text text-anchor="start" x="923.5" y="-164.3" font-family="Helvetica,sans-Serif" font-size="14.00">entropy = 0.0</text>
<text text-anchor="start" x="922.5" y="-149.3" font-family="Helvetica,sans-Serif" font-size="14.00">samples = 10</text>
<text text-anchor="start" x="920.5" y="-134.3" font-family="Helvetica,sans-Serif" font-size="14.00">value = [0, 10]</text>
<text text-anchor="start" x="913.5" y="-119.3" font-family="Helvetica,sans-Serif" font-size="14.00">class = Decease</text>
</g>
<!-- 15&#45;&gt;19 -->
<g id="edge19" class="edge">
<title>15&#45;&gt;19</title>
<path fill="none" stroke="black" d="M868.81,-222.91C883.58,-210.99 899.71,-197.98 914.4,-186.12"/>
<polygon fill="black" stroke="black" points="916.81,-188.67 922.4,-179.67 912.42,-183.22 916.81,-188.67"/>
</g>
<!-- 17 -->
<g id="node18" class="node">
<title>17</title>
<path fill="#399de5" stroke="black" d="M719.5,-68C719.5,-68 627.5,-68 627.5,-68 621.5,-68 615.5,-62 615.5,-56 615.5,-56 615.5,-12 615.5,-12 615.5,-6 621.5,0 627.5,0 627.5,0 719.5,0 719.5,0 725.5,0 731.5,-6 731.5,-12 731.5,-12 731.5,-56 731.5,-56 731.5,-62 725.5,-68 719.5,-68"/>
<text text-anchor="start" x="633.5" y="-52.8" font-family="Helvetica,sans-Serif" font-size="14.00">entropy = 0.0</text>
<text text-anchor="start" x="636" y="-37.8" font-family="Helvetica,sans-Serif" font-size="14.00">samples = 2</text>
<text text-anchor="start" x="634" y="-22.8" font-family="Helvetica,sans-Serif" font-size="14.00">value = [0, 2]</text>
<text text-anchor="start" x="623.5" y="-7.8" font-family="Helvetica,sans-Serif" font-size="14.00">class = Decease</text>
</g>
<!-- 16&#45;&gt;17 -->
<g id="edge17" class="edge">
<title>16&#45;&gt;17</title>
<path fill="none" stroke="black" d="M764.51,-103.73C751.83,-94.15 738.33,-83.96 725.73,-74.44"/>
<polygon fill="black" stroke="black" points="727.68,-71.53 717.6,-68.3 723.47,-77.12 727.68,-71.53"/>
</g>
<!-- 18 -->
<g id="node19" class="node">
<title>18</title>
<path fill="#e58139" stroke="black" d="M875,-68C875,-68 762,-68 762,-68 756,-68 750,-62 750,-56 750,-56 750,-12 750,-12 750,-6 756,0 762,0 762,0 875,0 875,0 881,0 887,-6 887,-12 887,-12 887,-56 887,-56 887,-62 881,-68 875,-68"/>
<text text-anchor="start" x="778.5" y="-52.8" font-family="Helvetica,sans-Serif" font-size="14.00">entropy = 0.0</text>
<text text-anchor="start" x="781" y="-37.8" font-family="Helvetica,sans-Serif" font-size="14.00">samples = 2</text>
<text text-anchor="start" x="779" y="-22.8" font-family="Helvetica,sans-Serif" font-size="14.00">value = [2, 0]</text>
<text text-anchor="start" x="758" y="-7.8" font-family="Helvetica,sans-Serif" font-size="14.00">class = No Decease</text>
</g>
<!-- 16&#45;&gt;18 -->
<g id="edge18" class="edge">
<title>16&#45;&gt;18</title>
<path fill="none" stroke="black" d="M818.5,-103.73C818.5,-95.52 818.5,-86.86 818.5,-78.56"/>
<polygon fill="black" stroke="black" points="822,-78.3 818.5,-68.3 815,-78.3 822,-78.3"/>
</g>
<!-- 21 -->
<g id="node22" class="node">
<title>21</title>
<path fill="#f8e0ce" stroke="black" d="M1174,-425C1174,-425 1061,-425 1061,-425 1055,-425 1049,-419 1049,-413 1049,-413 1049,-354 1049,-354 1049,-348 1055,-342 1061,-342 1061,-342 1174,-342 1174,-342 1180,-342 1186,-348 1186,-354 1186,-354 1186,-413 1186,-413 1186,-419 1180,-425 1174,-425"/>
<text text-anchor="start" x="1080.5" y="-409.8" font-family="Helvetica,sans-Serif" font-size="14.00">chol ≤ 210.5</text>
<text text-anchor="start" x="1070" y="-394.8" font-family="Helvetica,sans-Serif" font-size="14.00">entropy = 0.985</text>
<text text-anchor="start" x="1076.5" y="-379.8" font-family="Helvetica,sans-Serif" font-size="14.00">samples = 35</text>
<text text-anchor="start" x="1070.5" y="-364.8" font-family="Helvetica,sans-Serif" font-size="14.00">value = [20, 15]</text>
<text text-anchor="start" x="1057" y="-349.8" font-family="Helvetica,sans-Serif" font-size="14.00">class = No Decease</text>
</g>
<!-- 20&#45;&gt;21 -->
<g id="edge21" class="edge">
<title>20&#45;&gt;21</title>
<path fill="none" stroke="black" d="M1117.5,-460.91C1117.5,-452.65 1117.5,-443.86 1117.5,-435.3"/>
<polygon fill="black" stroke="black" points="1121,-435.02 1117.5,-425.02 1114,-435.02 1121,-435.02"/>
</g>
<!-- 28 -->
<g id="node29" class="node">
<title>28</title>
<path fill="#54aae8" stroke="black" d="M1526.5,-425C1526.5,-425 1434.5,-425 1434.5,-425 1428.5,-425 1422.5,-419 1422.5,-413 1422.5,-413 1422.5,-354 1422.5,-354 1422.5,-348 1428.5,-342 1434.5,-342 1434.5,-342 1526.5,-342 1526.5,-342 1532.5,-342 1538.5,-348 1538.5,-354 1538.5,-354 1538.5,-413 1538.5,-413 1538.5,-419 1532.5,-425 1526.5,-425"/>
<text text-anchor="start" x="1436" y="-409.8" font-family="Helvetica,sans-Serif" font-size="14.00">oldpeak ≤ 0.45</text>
<text text-anchor="start" x="1433" y="-394.8" font-family="Helvetica,sans-Serif" font-size="14.00">entropy = 0.525</text>
<text text-anchor="start" x="1439.5" y="-379.8" font-family="Helvetica,sans-Serif" font-size="14.00">samples = 76</text>
<text text-anchor="start" x="1437.5" y="-364.8" font-family="Helvetica,sans-Serif" font-size="14.00">value = [9, 67]</text>
<text text-anchor="start" x="1430.5" y="-349.8" font-family="Helvetica,sans-Serif" font-size="14.00">class = Decease</text>
</g>
<!-- 20&#45;&gt;28 -->
<g id="edge28" class="edge">
<title>20&#45;&gt;28</title>
<path fill="none" stroke="black" d="M1175.82,-482.7C1240.39,-461.89 1344.33,-428.39 1412.53,-406.41"/>
<polygon fill="black" stroke="black" points="1413.88,-409.65 1422.32,-403.25 1411.73,-402.99 1413.88,-409.65"/>
</g>
<!-- 22 -->
<g id="node23" class="node">
<title>22</title>
<path fill="#e58139" stroke="black" d="M1102,-298.5C1102,-298.5 989,-298.5 989,-298.5 983,-298.5 977,-292.5 977,-286.5 977,-286.5 977,-242.5 977,-242.5 977,-236.5 983,-230.5 989,-230.5 989,-230.5 1102,-230.5 1102,-230.5 1108,-230.5 1114,-236.5 1114,-242.5 1114,-242.5 1114,-286.5 1114,-286.5 1114,-292.5 1108,-298.5 1102,-298.5"/>
<text text-anchor="start" x="1005.5" y="-283.3" font-family="Helvetica,sans-Serif" font-size="14.00">entropy = 0.0</text>
<text text-anchor="start" x="1008" y="-268.3" font-family="Helvetica,sans-Serif" font-size="14.00">samples = 7</text>
<text text-anchor="start" x="1006" y="-253.3" font-family="Helvetica,sans-Serif" font-size="14.00">value = [7, 0]</text>
<text text-anchor="start" x="985" y="-238.3" font-family="Helvetica,sans-Serif" font-size="14.00">class = No Decease</text>
</g>
<!-- 21&#45;&gt;22 -->
<g id="edge22" class="edge">
<title>21&#45;&gt;22</title>
<path fill="none" stroke="black" d="M1092.52,-341.91C1085.66,-330.76 1078.21,-318.66 1071.31,-307.44"/>
<polygon fill="black" stroke="black" points="1074.13,-305.35 1065.91,-298.67 1068.17,-309.02 1074.13,-305.35"/>
</g>
<!-- 23 -->
<g id="node24" class="node">
<title>23</title>
<path fill="#e5f2fc" stroke="black" d="M1236.5,-306C1236.5,-306 1144.5,-306 1144.5,-306 1138.5,-306 1132.5,-300 1132.5,-294 1132.5,-294 1132.5,-235 1132.5,-235 1132.5,-229 1138.5,-223 1144.5,-223 1144.5,-223 1236.5,-223 1236.5,-223 1242.5,-223 1248.5,-229 1248.5,-235 1248.5,-235 1248.5,-294 1248.5,-294 1248.5,-300 1242.5,-306 1236.5,-306"/>
<text text-anchor="start" x="1142" y="-290.8" font-family="Helvetica,sans-Serif" font-size="14.00">trestbps ≤ 156.0</text>
<text text-anchor="start" x="1143" y="-275.8" font-family="Helvetica,sans-Serif" font-size="14.00">entropy = 0.996</text>
<text text-anchor="start" x="1149.5" y="-260.8" font-family="Helvetica,sans-Serif" font-size="14.00">samples = 28</text>
<text text-anchor="start" x="1143.5" y="-245.8" font-family="Helvetica,sans-Serif" font-size="14.00">value = [13, 15]</text>
<text text-anchor="start" x="1140.5" y="-230.8" font-family="Helvetica,sans-Serif" font-size="14.00">class = Decease</text>
</g>
<!-- 21&#45;&gt;23 -->
<g id="edge23" class="edge">
<title>21&#45;&gt;23</title>
<path fill="none" stroke="black" d="M1142.83,-341.91C1148.32,-333.1 1154.19,-323.7 1159.86,-314.61"/>
<polygon fill="black" stroke="black" points="1162.89,-316.36 1165.22,-306.02 1156.95,-312.65 1162.89,-316.36"/>
</g>
<!-- 24 -->
<g id="node25" class="node">
<title>24</title>
<path fill="#fbece1" stroke="black" d="M1175,-187C1175,-187 1062,-187 1062,-187 1056,-187 1050,-181 1050,-175 1050,-175 1050,-116 1050,-116 1050,-110 1056,-104 1062,-104 1062,-104 1175,-104 1175,-104 1181,-104 1187,-110 1187,-116 1187,-116 1187,-175 1187,-175 1187,-181 1181,-187 1175,-187"/>
<text text-anchor="start" x="1074" y="-171.8" font-family="Helvetica,sans-Serif" font-size="14.00">oldpeak ≤ 0.25</text>
<text text-anchor="start" x="1071" y="-156.8" font-family="Helvetica,sans-Serif" font-size="14.00">entropy = 0.995</text>
<text text-anchor="start" x="1077.5" y="-141.8" font-family="Helvetica,sans-Serif" font-size="14.00">samples = 24</text>
<text text-anchor="start" x="1072" y="-126.8" font-family="Helvetica,sans-Serif" font-size="14.00">value = [13, 11]</text>
<text text-anchor="start" x="1058" y="-111.8" font-family="Helvetica,sans-Serif" font-size="14.00">class = No Decease</text>
</g>
<!-- 23&#45;&gt;24 -->
<g id="edge24" class="edge">
<title>23&#45;&gt;24</title>
<path fill="none" stroke="black" d="M1165.52,-222.91C1160.1,-214.1 1154.32,-204.7 1148.72,-195.61"/>
<polygon fill="black" stroke="black" points="1151.66,-193.7 1143.44,-187.02 1145.7,-197.37 1151.66,-193.7"/>
</g>
<!-- 27 -->
<g id="node28" class="node">
<title>27</title>
<path fill="#399de5" stroke="black" d="M1309.5,-179.5C1309.5,-179.5 1217.5,-179.5 1217.5,-179.5 1211.5,-179.5 1205.5,-173.5 1205.5,-167.5 1205.5,-167.5 1205.5,-123.5 1205.5,-123.5 1205.5,-117.5 1211.5,-111.5 1217.5,-111.5 1217.5,-111.5 1309.5,-111.5 1309.5,-111.5 1315.5,-111.5 1321.5,-117.5 1321.5,-123.5 1321.5,-123.5 1321.5,-167.5 1321.5,-167.5 1321.5,-173.5 1315.5,-179.5 1309.5,-179.5"/>
<text text-anchor="start" x="1223.5" y="-164.3" font-family="Helvetica,sans-Serif" font-size="14.00">entropy = 0.0</text>
<text text-anchor="start" x="1226" y="-149.3" font-family="Helvetica,sans-Serif" font-size="14.00">samples = 4</text>
<text text-anchor="start" x="1224" y="-134.3" font-family="Helvetica,sans-Serif" font-size="14.00">value = [0, 4]</text>
<text text-anchor="start" x="1213.5" y="-119.3" font-family="Helvetica,sans-Serif" font-size="14.00">class = Decease</text>
</g>
<!-- 23&#45;&gt;27 -->
<g id="edge27" class="edge">
<title>23&#45;&gt;27</title>
<path fill="none" stroke="black" d="M1215.83,-222.91C1222.78,-211.76 1230.33,-199.66 1237.33,-188.44"/>
<polygon fill="black" stroke="black" points="1240.48,-190 1242.81,-179.67 1234.54,-186.3 1240.48,-190"/>
</g>
<!-- 25 -->
<g id="node26" class="node">
<title>25</title>
<path fill="#e58139" stroke="black" d="M1030,-68C1030,-68 917,-68 917,-68 911,-68 905,-62 905,-56 905,-56 905,-12 905,-12 905,-6 911,0 917,0 917,0 1030,0 1030,0 1036,0 1042,-6 1042,-12 1042,-12 1042,-56 1042,-56 1042,-62 1036,-68 1030,-68"/>
<text text-anchor="start" x="933.5" y="-52.8" font-family="Helvetica,sans-Serif" font-size="14.00">entropy = 0.0</text>
<text text-anchor="start" x="936" y="-37.8" font-family="Helvetica,sans-Serif" font-size="14.00">samples = 5</text>
<text text-anchor="start" x="934" y="-22.8" font-family="Helvetica,sans-Serif" font-size="14.00">value = [5, 0]</text>
<text text-anchor="start" x="913" y="-7.8" font-family="Helvetica,sans-Serif" font-size="14.00">class = No Decease</text>
</g>
<!-- 24&#45;&gt;25 -->
<g id="edge25" class="edge">
<title>24&#45;&gt;25</title>
<path fill="none" stroke="black" d="M1064.51,-103.73C1051.83,-94.15 1038.33,-83.96 1025.73,-74.44"/>
<polygon fill="black" stroke="black" points="1027.68,-71.53 1017.6,-68.3 1023.47,-77.12 1027.68,-71.53"/>
</g>
<!-- 26 -->
<g id="node27" class="node">
<title>26</title>
<path fill="#c9e4f8" stroke="black" d="M1164.5,-68C1164.5,-68 1072.5,-68 1072.5,-68 1066.5,-68 1060.5,-62 1060.5,-56 1060.5,-56 1060.5,-12 1060.5,-12 1060.5,-6 1066.5,0 1072.5,0 1072.5,0 1164.5,0 1164.5,0 1170.5,0 1176.5,-6 1176.5,-12 1176.5,-12 1176.5,-56 1176.5,-56 1176.5,-62 1170.5,-68 1164.5,-68"/>
<text text-anchor="start" x="1071" y="-52.8" font-family="Helvetica,sans-Serif" font-size="14.00">entropy = 0.982</text>
<text text-anchor="start" x="1077.5" y="-37.8" font-family="Helvetica,sans-Serif" font-size="14.00">samples = 19</text>
<text text-anchor="start" x="1076" y="-22.8" font-family="Helvetica,sans-Serif" font-size="14.00">value = [8, 11]</text>
<text text-anchor="start" x="1068.5" y="-7.8" font-family="Helvetica,sans-Serif" font-size="14.00">class = Decease</text>
</g>
<!-- 24&#45;&gt;26 -->
<g id="edge26" class="edge">
<title>24&#45;&gt;26</title>
<path fill="none" stroke="black" d="M1118.5,-103.73C1118.5,-95.52 1118.5,-86.86 1118.5,-78.56"/>
<polygon fill="black" stroke="black" points="1122,-78.3 1118.5,-68.3 1115,-78.3 1122,-78.3"/>
</g>
<!-- 29 -->
<g id="node30" class="node">
<title>29</title>
<path fill="#c4e2f7" stroke="black" d="M1526.5,-306C1526.5,-306 1434.5,-306 1434.5,-306 1428.5,-306 1422.5,-300 1422.5,-294 1422.5,-294 1422.5,-235 1422.5,-235 1422.5,-229 1428.5,-223 1434.5,-223 1434.5,-223 1526.5,-223 1526.5,-223 1532.5,-223 1538.5,-229 1538.5,-235 1538.5,-235 1538.5,-294 1538.5,-294 1538.5,-300 1532.5,-306 1526.5,-306"/>
<text text-anchor="start" x="1434" y="-290.8" font-family="Helvetica,sans-Serif" font-size="14.00">thalach ≤ 149.0</text>
<text text-anchor="start" x="1433" y="-275.8" font-family="Helvetica,sans-Serif" font-size="14.00">entropy = 0.977</text>
<text text-anchor="start" x="1439.5" y="-260.8" font-family="Helvetica,sans-Serif" font-size="14.00">samples = 17</text>
<text text-anchor="start" x="1437.5" y="-245.8" font-family="Helvetica,sans-Serif" font-size="14.00">value = [7, 10]</text>
<text text-anchor="start" x="1430.5" y="-230.8" font-family="Helvetica,sans-Serif" font-size="14.00">class = Decease</text>
</g>
<!-- 28&#45;&gt;29 -->
<g id="edge29" class="edge">
<title>28&#45;&gt;29</title>
<path fill="none" stroke="black" d="M1480.5,-341.91C1480.5,-333.65 1480.5,-324.86 1480.5,-316.3"/>
<polygon fill="black" stroke="black" points="1484,-316.02 1480.5,-306.02 1477,-316.02 1484,-316.02"/>
</g>
<!-- 36 -->
<g id="node37" class="node">
<title>36</title>
<path fill="#40a0e6" stroke="black" d="M1889.5,-306C1889.5,-306 1797.5,-306 1797.5,-306 1791.5,-306 1785.5,-300 1785.5,-294 1785.5,-294 1785.5,-235 1785.5,-235 1785.5,-229 1791.5,-223 1797.5,-223 1797.5,-223 1889.5,-223 1889.5,-223 1895.5,-223 1901.5,-229 1901.5,-235 1901.5,-235 1901.5,-294 1901.5,-294 1901.5,-300 1895.5,-306 1889.5,-306"/>
<text text-anchor="start" x="1815.5" y="-290.8" font-family="Helvetica,sans-Serif" font-size="14.00">thal ≤ 6.5</text>
<text text-anchor="start" x="1796" y="-275.8" font-family="Helvetica,sans-Serif" font-size="14.00">entropy = 0.214</text>
<text text-anchor="start" x="1802.5" y="-260.8" font-family="Helvetica,sans-Serif" font-size="14.00">samples = 59</text>
<text text-anchor="start" x="1800.5" y="-245.8" font-family="Helvetica,sans-Serif" font-size="14.00">value = [2, 57]</text>
<text text-anchor="start" x="1793.5" y="-230.8" font-family="Helvetica,sans-Serif" font-size="14.00">class = Decease</text>
</g>
<!-- 28&#45;&gt;36 -->
<g id="edge36" class="edge">
<title>28&#45;&gt;36</title>
<path fill="none" stroke="black" d="M1538.82,-363.7C1603.39,-342.89 1707.33,-309.39 1775.53,-287.41"/>
<polygon fill="black" stroke="black" points="1776.88,-290.65 1785.32,-284.25 1774.73,-283.99 1776.88,-290.65"/>
</g>
<!-- 30 -->
<g id="node31" class="node">
<title>30</title>
<path fill="#efb388" stroke="black" d="M1465,-187C1465,-187 1352,-187 1352,-187 1346,-187 1340,-181 1340,-175 1340,-175 1340,-116 1340,-116 1340,-110 1346,-104 1352,-104 1352,-104 1465,-104 1465,-104 1471,-104 1477,-110 1477,-116 1477,-116 1477,-175 1477,-175 1477,-181 1471,-187 1465,-187"/>
<text text-anchor="start" x="1371.5" y="-171.8" font-family="Helvetica,sans-Serif" font-size="14.00">chol ≤ 237.0</text>
<text text-anchor="start" x="1361" y="-156.8" font-family="Helvetica,sans-Serif" font-size="14.00">entropy = 0.863</text>
<text text-anchor="start" x="1371" y="-141.8" font-family="Helvetica,sans-Serif" font-size="14.00">samples = 7</text>
<text text-anchor="start" x="1369" y="-126.8" font-family="Helvetica,sans-Serif" font-size="14.00">value = [5, 2]</text>
<text text-anchor="start" x="1348" y="-111.8" font-family="Helvetica,sans-Serif" font-size="14.00">class = No Decease</text>
</g>
<!-- 29&#45;&gt;30 -->
<g id="edge30" class="edge">
<title>29&#45;&gt;30</title>
<path fill="none" stroke="black" d="M1455.52,-222.91C1450.1,-214.1 1444.32,-204.7 1438.72,-195.61"/>
<polygon fill="black" stroke="black" points="1441.66,-193.7 1433.44,-187.02 1435.7,-197.37 1441.66,-193.7"/>
</g>
<!-- 33 -->
<g id="node34" class="node">
<title>33</title>
<path fill="#6ab6ec" stroke="black" d="M1599.5,-187C1599.5,-187 1507.5,-187 1507.5,-187 1501.5,-187 1495.5,-181 1495.5,-175 1495.5,-175 1495.5,-116 1495.5,-116 1495.5,-110 1501.5,-104 1507.5,-104 1507.5,-104 1599.5,-104 1599.5,-104 1605.5,-104 1611.5,-110 1611.5,-116 1611.5,-116 1611.5,-175 1611.5,-175 1611.5,-181 1605.5,-187 1599.5,-187"/>
<text text-anchor="start" x="1529" y="-171.8" font-family="Helvetica,sans-Serif" font-size="14.00">ca ≤ 0.5</text>
<text text-anchor="start" x="1506" y="-156.8" font-family="Helvetica,sans-Serif" font-size="14.00">entropy = 0.722</text>
<text text-anchor="start" x="1512.5" y="-141.8" font-family="Helvetica,sans-Serif" font-size="14.00">samples = 10</text>
<text text-anchor="start" x="1514" y="-126.8" font-family="Helvetica,sans-Serif" font-size="14.00">value = [2, 8]</text>
<text text-anchor="start" x="1503.5" y="-111.8" font-family="Helvetica,sans-Serif" font-size="14.00">class = Decease</text>
</g>
<!-- 29&#45;&gt;33 -->
<g id="edge33" class="edge">
<title>29&#45;&gt;33</title>
<path fill="none" stroke="black" d="M1505.83,-222.91C1511.32,-214.1 1517.19,-204.7 1522.86,-195.61"/>
<polygon fill="black" stroke="black" points="1525.89,-197.36 1528.22,-187.02 1519.95,-193.65 1525.89,-197.36"/>
</g>
<!-- 31 -->
<g id="node32" class="node">
<title>31</title>
<path fill="#e58139" stroke="black" d="M1320,-68C1320,-68 1207,-68 1207,-68 1201,-68 1195,-62 1195,-56 1195,-56 1195,-12 1195,-12 1195,-6 1201,0 1207,0 1207,0 1320,0 1320,0 1326,0 1332,-6 1332,-12 1332,-12 1332,-56 1332,-56 1332,-62 1326,-68 1320,-68"/>
<text text-anchor="start" x="1223.5" y="-52.8" font-family="Helvetica,sans-Serif" font-size="14.00">entropy = 0.0</text>
<text text-anchor="start" x="1226" y="-37.8" font-family="Helvetica,sans-Serif" font-size="14.00">samples = 4</text>
<text text-anchor="start" x="1224" y="-22.8" font-family="Helvetica,sans-Serif" font-size="14.00">value = [4, 0]</text>
<text text-anchor="start" x="1203" y="-7.8" font-family="Helvetica,sans-Serif" font-size="14.00">class = No Decease</text>
</g>
<!-- 30&#45;&gt;31 -->
<g id="edge31" class="edge">
<title>30&#45;&gt;31</title>
<path fill="none" stroke="black" d="M1354.51,-103.73C1341.83,-94.15 1328.33,-83.96 1315.73,-74.44"/>
<polygon fill="black" stroke="black" points="1317.68,-71.53 1307.6,-68.3 1313.47,-77.12 1317.68,-71.53"/>
</g>
<!-- 32 -->
<g id="node33" class="node">
<title>32</title>
<path fill="#9ccef2" stroke="black" d="M1454.5,-68C1454.5,-68 1362.5,-68 1362.5,-68 1356.5,-68 1350.5,-62 1350.5,-56 1350.5,-56 1350.5,-12 1350.5,-12 1350.5,-6 1356.5,0 1362.5,0 1362.5,0 1454.5,0 1454.5,0 1460.5,0 1466.5,-6 1466.5,-12 1466.5,-12 1466.5,-56 1466.5,-56 1466.5,-62 1460.5,-68 1454.5,-68"/>
<text text-anchor="start" x="1361" y="-52.8" font-family="Helvetica,sans-Serif" font-size="14.00">entropy = 0.918</text>
<text text-anchor="start" x="1371" y="-37.8" font-family="Helvetica,sans-Serif" font-size="14.00">samples = 3</text>
<text text-anchor="start" x="1369" y="-22.8" font-family="Helvetica,sans-Serif" font-size="14.00">value = [1, 2]</text>
<text text-anchor="start" x="1358.5" y="-7.8" font-family="Helvetica,sans-Serif" font-size="14.00">class = Decease</text>
</g>
<!-- 30&#45;&gt;32 -->
<g id="edge32" class="edge">
<title>30&#45;&gt;32</title>
<path fill="none" stroke="black" d="M1408.5,-103.73C1408.5,-95.52 1408.5,-86.86 1408.5,-78.56"/>
<polygon fill="black" stroke="black" points="1412,-78.3 1408.5,-68.3 1405,-78.3 1412,-78.3"/>
</g>
<!-- 34 -->
<g id="node35" class="node">
<title>34</title>
<path fill="#ffffff" stroke="black" d="M1610,-68C1610,-68 1497,-68 1497,-68 1491,-68 1485,-62 1485,-56 1485,-56 1485,-12 1485,-12 1485,-6 1491,0 1497,0 1497,0 1610,0 1610,0 1616,0 1622,-6 1622,-12 1622,-12 1622,-56 1622,-56 1622,-62 1616,-68 1610,-68"/>
<text text-anchor="start" x="1513.5" y="-52.8" font-family="Helvetica,sans-Serif" font-size="14.00">entropy = 1.0</text>
<text text-anchor="start" x="1516" y="-37.8" font-family="Helvetica,sans-Serif" font-size="14.00">samples = 4</text>
<text text-anchor="start" x="1514" y="-22.8" font-family="Helvetica,sans-Serif" font-size="14.00">value = [2, 2]</text>
<text text-anchor="start" x="1493" y="-7.8" font-family="Helvetica,sans-Serif" font-size="14.00">class = No Decease</text>
</g>
<!-- 33&#45;&gt;34 -->
<g id="edge34" class="edge">
<title>33&#45;&gt;34</title>
<path fill="none" stroke="black" d="M1553.5,-103.73C1553.5,-95.52 1553.5,-86.86 1553.5,-78.56"/>
<polygon fill="black" stroke="black" points="1557,-78.3 1553.5,-68.3 1550,-78.3 1557,-78.3"/>
</g>
<!-- 35 -->
<g id="node36" class="node">
<title>35</title>
<path fill="#399de5" stroke="black" d="M1744.5,-68C1744.5,-68 1652.5,-68 1652.5,-68 1646.5,-68 1640.5,-62 1640.5,-56 1640.5,-56 1640.5,-12 1640.5,-12 1640.5,-6 1646.5,0 1652.5,0 1652.5,0 1744.5,0 1744.5,0 1750.5,0 1756.5,-6 1756.5,-12 1756.5,-12 1756.5,-56 1756.5,-56 1756.5,-62 1750.5,-68 1744.5,-68"/>
<text text-anchor="start" x="1658.5" y="-52.8" font-family="Helvetica,sans-Serif" font-size="14.00">entropy = 0.0</text>
<text text-anchor="start" x="1661" y="-37.8" font-family="Helvetica,sans-Serif" font-size="14.00">samples = 6</text>
<text text-anchor="start" x="1659" y="-22.8" font-family="Helvetica,sans-Serif" font-size="14.00">value = [0, 6]</text>
<text text-anchor="start" x="1648.5" y="-7.8" font-family="Helvetica,sans-Serif" font-size="14.00">class = Decease</text>
</g>
<!-- 33&#45;&gt;35 -->
<g id="edge35" class="edge">
<title>33&#45;&gt;35</title>
<path fill="none" stroke="black" d="M1607.49,-103.73C1620.17,-94.15 1633.67,-83.96 1646.27,-74.44"/>
<polygon fill="black" stroke="black" points="1648.53,-77.12 1654.4,-68.3 1644.32,-71.53 1648.53,-77.12"/>
</g>
<!-- 37 -->
<g id="node38" class="node">
<title>37</title>
<path fill="#6ab6ec" stroke="black" d="M1889.5,-187C1889.5,-187 1797.5,-187 1797.5,-187 1791.5,-187 1785.5,-181 1785.5,-175 1785.5,-175 1785.5,-116 1785.5,-116 1785.5,-110 1791.5,-104 1797.5,-104 1797.5,-104 1889.5,-104 1889.5,-104 1895.5,-104 1901.5,-110 1901.5,-116 1901.5,-116 1901.5,-175 1901.5,-175 1901.5,-181 1895.5,-187 1889.5,-187"/>
<text text-anchor="start" x="1819" y="-171.8" font-family="Helvetica,sans-Serif" font-size="14.00">ca ≤ 0.5</text>
<text text-anchor="start" x="1796" y="-156.8" font-family="Helvetica,sans-Serif" font-size="14.00">entropy = 0.722</text>
<text text-anchor="start" x="1802.5" y="-141.8" font-family="Helvetica,sans-Serif" font-size="14.00">samples = 10</text>
<text text-anchor="start" x="1804" y="-126.8" font-family="Helvetica,sans-Serif" font-size="14.00">value = [2, 8]</text>
<text text-anchor="start" x="1793.5" y="-111.8" font-family="Helvetica,sans-Serif" font-size="14.00">class = Decease</text>
</g>
<!-- 36&#45;&gt;37 -->
<g id="edge37" class="edge">
<title>36&#45;&gt;37</title>
<path fill="none" stroke="black" d="M1843.5,-222.91C1843.5,-214.65 1843.5,-205.86 1843.5,-197.3"/>
<polygon fill="black" stroke="black" points="1847,-197.02 1843.5,-187.02 1840,-197.02 1847,-197.02"/>
</g>
<!-- 40 -->
<g id="node41" class="node">
<title>40</title>
<path fill="#399de5" stroke="black" d="M2023.5,-179.5C2023.5,-179.5 1931.5,-179.5 1931.5,-179.5 1925.5,-179.5 1919.5,-173.5 1919.5,-167.5 1919.5,-167.5 1919.5,-123.5 1919.5,-123.5 1919.5,-117.5 1925.5,-111.5 1931.5,-111.5 1931.5,-111.5 2023.5,-111.5 2023.5,-111.5 2029.5,-111.5 2035.5,-117.5 2035.5,-123.5 2035.5,-123.5 2035.5,-167.5 2035.5,-167.5 2035.5,-173.5 2029.5,-179.5 2023.5,-179.5"/>
<text text-anchor="start" x="1937.5" y="-164.3" font-family="Helvetica,sans-Serif" font-size="14.00">entropy = 0.0</text>
<text text-anchor="start" x="1936.5" y="-149.3" font-family="Helvetica,sans-Serif" font-size="14.00">samples = 49</text>
<text text-anchor="start" x="1934.5" y="-134.3" font-family="Helvetica,sans-Serif" font-size="14.00">value = [0, 49]</text>
<text text-anchor="start" x="1927.5" y="-119.3" font-family="Helvetica,sans-Serif" font-size="14.00">class = Decease</text>
</g>
<!-- 36&#45;&gt;40 -->
<g id="edge40" class="edge">
<title>36&#45;&gt;40</title>
<path fill="none" stroke="black" d="M1889.99,-222.91C1903.51,-211.1 1918.27,-198.22 1931.75,-186.45"/>
<polygon fill="black" stroke="black" points="1934.28,-188.88 1939.51,-179.67 1929.68,-183.61 1934.28,-188.88"/>
</g>
<!-- 38 -->
<g id="node39" class="node">
<title>38</title>
<path fill="#f2c09c" stroke="black" d="M1900,-68C1900,-68 1787,-68 1787,-68 1781,-68 1775,-62 1775,-56 1775,-56 1775,-12 1775,-12 1775,-6 1781,0 1787,0 1787,0 1900,0 1900,0 1906,0 1912,-6 1912,-12 1912,-12 1912,-56 1912,-56 1912,-62 1906,-68 1900,-68"/>
<text text-anchor="start" x="1796" y="-52.8" font-family="Helvetica,sans-Serif" font-size="14.00">entropy = 0.918</text>
<text text-anchor="start" x="1806" y="-37.8" font-family="Helvetica,sans-Serif" font-size="14.00">samples = 3</text>
<text text-anchor="start" x="1804" y="-22.8" font-family="Helvetica,sans-Serif" font-size="14.00">value = [2, 1]</text>
<text text-anchor="start" x="1783" y="-7.8" font-family="Helvetica,sans-Serif" font-size="14.00">class = No Decease</text>
</g>
<!-- 37&#45;&gt;38 -->
<g id="edge38" class="edge">
<title>37&#45;&gt;38</title>
<path fill="none" stroke="black" d="M1843.5,-103.73C1843.5,-95.52 1843.5,-86.86 1843.5,-78.56"/>
<polygon fill="black" stroke="black" points="1847,-78.3 1843.5,-68.3 1840,-78.3 1847,-78.3"/>
</g>
<!-- 39 -->
<g id="node40" class="node">
<title>39</title>
<path fill="#399de5" stroke="black" d="M2034.5,-68C2034.5,-68 1942.5,-68 1942.5,-68 1936.5,-68 1930.5,-62 1930.5,-56 1930.5,-56 1930.5,-12 1930.5,-12 1930.5,-6 1936.5,0 1942.5,0 1942.5,0 2034.5,0 2034.5,0 2040.5,0 2046.5,-6 2046.5,-12 2046.5,-12 2046.5,-56 2046.5,-56 2046.5,-62 2040.5,-68 2034.5,-68"/>
<text text-anchor="start" x="1948.5" y="-52.8" font-family="Helvetica,sans-Serif" font-size="14.00">entropy = 0.0</text>
<text text-anchor="start" x="1951" y="-37.8" font-family="Helvetica,sans-Serif" font-size="14.00">samples = 7</text>
<text text-anchor="start" x="1949" y="-22.8" font-family="Helvetica,sans-Serif" font-size="14.00">value = [0, 7]</text>
<text text-anchor="start" x="1938.5" y="-7.8" font-family="Helvetica,sans-Serif" font-size="14.00">class = Decease</text>
</g>
<!-- 37&#45;&gt;39 -->
<g id="edge39" class="edge">
<title>37&#45;&gt;39</title>
<path fill="none" stroke="black" d="M1897.49,-103.73C1910.17,-94.15 1923.67,-83.96 1936.27,-74.44"/>
<polygon fill="black" stroke="black" points="1938.53,-77.12 1944.4,-68.3 1934.32,-71.53 1938.53,-77.12"/>
</g>
</g>
</svg>
