<?xml version="1.0" encoding="UTF-8" standalone="no"?>
<!DOCTYPE svg PUBLIC "-//W3C//DTD SVG 1.1//EN"
 "http://www.w3.org/Graphics/SVG/1.1/DTD/svg11.dtd">
<!-- Generated by graphviz version 2.50.0 (0)
 -->
<!-- Title: Tree Pages: 1 -->
<svg width="2223pt" height="701pt"
 viewBox="0.00 0.00 2223.00 701.00" xmlns="http://www.w3.org/2000/svg" xmlns:xlink="http://www.w3.org/1999/xlink">
<g id="graph0" class="graph" transform="scale(1 1) rotate(0) translate(4 697)">
<title>Tree</title>
<polygon fill="white" stroke="transparent" points="-4,4 -4,-697 2219,-697 2219,4 -4,4"/>
<text text-anchor="middle" x="1107.5" y="-673" font-family="Times New Roman,serif" font-size="20.00">Max Depth: 5 &#45; Accuracy: 0.7333</text>
<!-- 0 -->
<g id="node1" class="node">
<title>0</title>
<path fill="#fbece2" stroke="black" d="M1044,-663C1044,-663 921,-663 921,-663 915,-663 909,-657 909,-651 909,-651 909,-592 909,-592 909,-586 915,-580 921,-580 921,-580 1044,-580 1044,-580 1050,-580 1056,-586 1056,-592 1056,-592 1056,-651 1056,-651 1056,-657 1050,-663 1044,-663"/>
<text text-anchor="start" x="954.5" y="-647.8" font-family="Helvetica,sans-Serif" font-size="14.00">thal ≤ 4.5</text>
<text text-anchor="start" x="935" y="-632.8" font-family="Helvetica,sans-Serif" font-size="14.00">entropy = 0.995</text>
<text text-anchor="start" x="937.5" y="-617.8" font-family="Helvetica,sans-Serif" font-size="14.00">samples = 237</text>
<text text-anchor="start" x="917" y="-602.8" font-family="Helvetica,sans-Serif" font-size="14.00">value = [128.0, 109.0]</text>
<text text-anchor="start" x="922" y="-587.8" font-family="Helvetica,sans-Serif" font-size="14.00">class = No Decease</text>
</g>
<!-- 1 -->
<g id="node2" class="node">
<title>1</title>
<path fill="#eca470" stroke="black" d="M667,-544C667,-544 554,-544 554,-544 548,-544 542,-538 542,-532 542,-532 542,-473 542,-473 542,-467 548,-461 554,-461 554,-461 667,-461 667,-461 673,-461 679,-467 679,-473 679,-473 679,-532 679,-532 679,-538 673,-544 667,-544"/>
<text text-anchor="start" x="578.5" y="-528.8" font-family="Helvetica,sans-Serif" font-size="14.00">age ≤ 54.5</text>
<text text-anchor="start" x="563" y="-513.8" font-family="Helvetica,sans-Serif" font-size="14.00">entropy = 0.753</text>
<text text-anchor="start" x="565.5" y="-498.8" font-family="Helvetica,sans-Serif" font-size="14.00">samples = 125</text>
<text text-anchor="start" x="563.5" y="-483.8" font-family="Helvetica,sans-Serif" font-size="14.00">value = [98, 27]</text>
<text text-anchor="start" x="550" y="-468.8" font-family="Helvetica,sans-Serif" font-size="14.00">class = No Decease</text>
</g>
<!-- 0&#45;&gt;1 -->
<g id="edge1" class="edge">
<title>0&#45;&gt;1</title>
<path fill="none" stroke="black" d="M908.56,-597.24C845.07,-577.28 753.82,-548.58 689.04,-528.2"/>
<polygon fill="black" stroke="black" points="689.87,-524.79 679.28,-525.13 687.77,-531.47 689.87,-524.79"/>
<text text-anchor="middle" x="690.84" y="-543.6" font-family="Helvetica,sans-Serif" font-size="14.00">True</text>
</g>
<!-- 20 -->
<g id="node21" class="node">
<title>20</title>
<path fill="#81c1ef" stroke="black" d="M1400.5,-544C1400.5,-544 1308.5,-544 1308.5,-544 1302.5,-544 1296.5,-538 1296.5,-532 1296.5,-532 1296.5,-473 1296.5,-473 1296.5,-467 1302.5,-461 1308.5,-461 1308.5,-461 1400.5,-461 1400.5,-461 1406.5,-461 1412.5,-467 1412.5,-473 1412.5,-473 1412.5,-532 1412.5,-532 1412.5,-538 1406.5,-544 1400.5,-544"/>
<text text-anchor="start" x="1330" y="-528.8" font-family="Helvetica,sans-Serif" font-size="14.00">ca ≤ 0.5</text>
<text text-anchor="start" x="1307" y="-513.8" font-family="Helvetica,sans-Serif" font-size="14.00">entropy = 0.838</text>
<text text-anchor="start" x="1310" y="-498.8" font-family="Helvetica,sans-Serif" font-size="14.00">samples = 112</text>
<text text-anchor="start" x="1307.5" y="-483.8" font-family="Helvetica,sans-Serif" font-size="14.00">value = [30, 82]</text>
<text text-anchor="start" x="1304.5" y="-468.8" font-family="Helvetica,sans-Serif" font-size="14.00">class = Decease</text>
</g>
<!-- 0&#45;&gt;20 -->
<g id="edge20" class="edge">
<title>0&#45;&gt;20</title>
<path fill="none" stroke="black" d="M1056.44,-597.24C1123.45,-576.17 1221.4,-545.36 1286.5,-524.89"/>
<polygon fill="black" stroke="black" points="1287.77,-528.16 1296.26,-521.82 1285.67,-521.48 1287.77,-528.16"/>
<text text-anchor="middle" x="1284.7" y="-540.28" font-family="Helvetica,sans-Serif" font-size="14.00">False</text>
</g>
<!-- 2 -->
<g id="node3" class="node">
<title>2</title>
<path fill="#e78946" stroke="black" d="M280,-425C280,-425 167,-425 167,-425 161,-425 155,-419 155,-413 155,-413 155,-354 155,-354 155,-348 161,-342 167,-342 167,-342 280,-342 280,-342 286,-342 292,-348 292,-354 292,-354 292,-413 292,-413 292,-419 286,-425 280,-425"/>
<text text-anchor="start" x="199" y="-409.8" font-family="Helvetica,sans-Serif" font-size="14.00">ca ≤ 0.5</text>
<text text-anchor="start" x="176" y="-394.8" font-family="Helvetica,sans-Serif" font-size="14.00">entropy = 0.326</text>
<text text-anchor="start" x="182.5" y="-379.8" font-family="Helvetica,sans-Serif" font-size="14.00">samples = 67</text>
<text text-anchor="start" x="180.5" y="-364.8" font-family="Helvetica,sans-Serif" font-size="14.00">value = [63, 4]</text>
<text text-anchor="start" x="163" y="-349.8" font-family="Helvetica,sans-Serif" font-size="14.00">class = No Decease</text>
</g>
<!-- 1&#45;&gt;2 -->
<g id="edge2" class="edge">
<title>1&#45;&gt;2</title>
<path fill="none" stroke="black" d="M541.76,-480.72C474.55,-460.4 372.32,-429.49 301.96,-408.22"/>
<polygon fill="black" stroke="black" points="302.84,-404.83 292.25,-405.29 300.81,-411.53 302.84,-404.83"/>
</g>
<!-- 7 -->
<g id="node8" class="node">
<title>7</title>
<path fill="#f6d4bb" stroke="black" d="M667,-425C667,-425 554,-425 554,-425 548,-425 542,-419 542,-413 542,-413 542,-354 542,-354 542,-348 548,-342 554,-342 554,-342 667,-342 667,-342 673,-342 679,-348 679,-354 679,-354 679,-413 679,-413 679,-419 673,-425 667,-425"/>
<text text-anchor="start" x="586" y="-409.8" font-family="Helvetica,sans-Serif" font-size="14.00">cp ≤ 3.5</text>
<text text-anchor="start" x="563" y="-394.8" font-family="Helvetica,sans-Serif" font-size="14.00">entropy = 0.969</text>
<text text-anchor="start" x="569.5" y="-379.8" font-family="Helvetica,sans-Serif" font-size="14.00">samples = 58</text>
<text text-anchor="start" x="563.5" y="-364.8" font-family="Helvetica,sans-Serif" font-size="14.00">value = [35, 23]</text>
<text text-anchor="start" x="550" y="-349.8" font-family="Helvetica,sans-Serif" font-size="14.00">class = No Decease</text>
</g>
<!-- 1&#45;&gt;7 -->
<g id="edge7" class="edge">
<title>1&#45;&gt;7</title>
<path fill="none" stroke="black" d="M610.5,-460.91C610.5,-452.65 610.5,-443.86 610.5,-435.3"/>
<polygon fill="black" stroke="black" points="614,-435.02 610.5,-425.02 607,-435.02 614,-435.02"/>
</g>
<!-- 3 -->
<g id="node4" class="node">
<title>3</title>
<path fill="#e58139" stroke="black" d="M125,-298.5C125,-298.5 12,-298.5 12,-298.5 6,-298.5 0,-292.5 0,-286.5 0,-286.5 0,-242.5 0,-242.5 0,-236.5 6,-230.5 12,-230.5 12,-230.5 125,-230.5 125,-230.5 131,-230.5 137,-236.5 137,-242.5 137,-242.5 137,-286.5 137,-286.5 137,-292.5 131,-298.5 125,-298.5"/>
<text text-anchor="start" x="28.5" y="-283.3" font-family="Helvetica,sans-Serif" font-size="14.00">entropy = 0.0</text>
<text text-anchor="start" x="27.5" y="-268.3" font-family="Helvetica,sans-Serif" font-size="14.00">samples = 55</text>
<text text-anchor="start" x="25.5" y="-253.3" font-family="Helvetica,sans-Serif" font-size="14.00">value = [55, 0]</text>
<text text-anchor="start" x="8" y="-238.3" font-family="Helvetica,sans-Serif" font-size="14.00">class = No Decease</text>
</g>
<!-- 2&#45;&gt;3 -->
<g id="edge3" class="edge">
<title>2&#45;&gt;3</title>
<path fill="none" stroke="black" d="M169.72,-341.91C153.79,-329.88 136.37,-316.73 120.55,-304.79"/>
<polygon fill="black" stroke="black" points="122.53,-301.9 112.44,-298.67 118.31,-307.49 122.53,-301.9"/>
</g>
<!-- 4 -->
<g id="node5" class="node">
<title>4</title>
<path fill="#f2c09c" stroke="black" d="M280,-306C280,-306 167,-306 167,-306 161,-306 155,-300 155,-294 155,-294 155,-235 155,-235 155,-229 161,-223 167,-223 167,-223 280,-223 280,-223 286,-223 292,-229 292,-235 292,-235 292,-294 292,-294 292,-300 286,-306 280,-306"/>
<text text-anchor="start" x="175" y="-290.8" font-family="Helvetica,sans-Serif" font-size="14.00">trestbps ≤ 115.0</text>
<text text-anchor="start" x="176" y="-275.8" font-family="Helvetica,sans-Serif" font-size="14.00">entropy = 0.918</text>
<text text-anchor="start" x="182.5" y="-260.8" font-family="Helvetica,sans-Serif" font-size="14.00">samples = 12</text>
<text text-anchor="start" x="184" y="-245.8" font-family="Helvetica,sans-Serif" font-size="14.00">value = [8, 4]</text>
<text text-anchor="start" x="163" y="-230.8" font-family="Helvetica,sans-Serif" font-size="14.00">class = No Decease</text>
</g>
<!-- 2&#45;&gt;4 -->
<g id="edge4" class="edge">
<title>2&#45;&gt;4</title>
<path fill="none" stroke="black" d="M223.5,-341.91C223.5,-333.65 223.5,-324.86 223.5,-316.3"/>
<polygon fill="black" stroke="black" points="227,-316.02 223.5,-306.02 220,-316.02 227,-316.02"/>
</g>
<!-- 5 -->
<g id="node6" class="node">
<title>5</title>
<path fill="#399de5" stroke="black" d="M124.5,-179.5C124.5,-179.5 32.5,-179.5 32.5,-179.5 26.5,-179.5 20.5,-173.5 20.5,-167.5 20.5,-167.5 20.5,-123.5 20.5,-123.5 20.5,-117.5 26.5,-111.5 32.5,-111.5 32.5,-111.5 124.5,-111.5 124.5,-111.5 130.5,-111.5 136.5,-117.5 136.5,-123.5 136.5,-123.5 136.5,-167.5 136.5,-167.5 136.5,-173.5 130.5,-179.5 124.5,-179.5"/>
<text text-anchor="start" x="38.5" y="-164.3" font-family="Helvetica,sans-Serif" font-size="14.00">entropy = 0.0</text>
<text text-anchor="start" x="41" y="-149.3" font-family="Helvetica,sans-Serif" font-size="14.00">samples = 4</text>
<text text-anchor="start" x="39" y="-134.3" font-family="Helvetica,sans-Serif" font-size="14.00">value = [0, 4]</text>
<text text-anchor="start" x="28.5" y="-119.3" font-family="Helvetica,sans-Serif" font-size="14.00">class = Decease</text>
</g>
<!-- 4&#45;&gt;5 -->
<g id="edge5" class="edge">
<title>4&#45;&gt;5</title>
<path fill="none" stroke="black" d="M173.19,-222.91C158.42,-210.99 142.29,-197.98 127.6,-186.12"/>
<polygon fill="black" stroke="black" points="129.58,-183.22 119.6,-179.67 125.19,-188.67 129.58,-183.22"/>
</g>
<!-- 6 -->
<g id="node7" class="node">
<title>6</title>
<path fill="#e58139" stroke="black" d="M280,-179.5C280,-179.5 167,-179.5 167,-179.5 161,-179.5 155,-173.5 155,-167.5 155,-167.5 155,-123.5 155,-123.5 155,-117.5 161,-111.5 167,-111.5 167,-111.5 280,-111.5 280,-111.5 286,-111.5 292,-117.5 292,-123.5 292,-123.5 292,-167.5 292,-167.5 292,-173.5 286,-179.5 280,-179.5"/>
<text text-anchor="start" x="183.5" y="-164.3" font-family="Helvetica,sans-Serif" font-size="14.00">entropy = 0.0</text>
<text text-anchor="start" x="186" y="-149.3" font-family="Helvetica,sans-Serif" font-size="14.00">samples = 8</text>
<text text-anchor="start" x="184" y="-134.3" font-family="Helvetica,sans-Serif" font-size="14.00">value = [8, 0]</text>
<text text-anchor="start" x="163" y="-119.3" font-family="Helvetica,sans-Serif" font-size="14.00">class = No Decease</text>
</g>
<!-- 4&#45;&gt;6 -->
<g id="edge6" class="edge">
<title>4&#45;&gt;6</title>
<path fill="none" stroke="black" d="M223.5,-222.91C223.5,-212.2 223.5,-200.62 223.5,-189.78"/>
<polygon fill="black" stroke="black" points="227,-189.67 223.5,-179.67 220,-189.67 227,-189.67"/>
</g>
<!-- 8 -->
<g id="node9" class="node">
<title>8</title>
<path fill="#eda876" stroke="black" d="M590,-306C590,-306 477,-306 477,-306 471,-306 465,-300 465,-294 465,-294 465,-235 465,-235 465,-229 471,-223 477,-223 477,-223 590,-223 590,-223 596,-223 602,-229 602,-235 602,-235 602,-294 602,-294 602,-300 596,-306 590,-306"/>
<text text-anchor="start" x="501.5" y="-290.8" font-family="Helvetica,sans-Serif" font-size="14.00">age ≤ 64.5</text>
<text text-anchor="start" x="486" y="-275.8" font-family="Helvetica,sans-Serif" font-size="14.00">entropy = 0.787</text>
<text text-anchor="start" x="492.5" y="-260.8" font-family="Helvetica,sans-Serif" font-size="14.00">samples = 34</text>
<text text-anchor="start" x="490.5" y="-245.8" font-family="Helvetica,sans-Serif" font-size="14.00">value = [26, 8]</text>
<text text-anchor="start" x="473" y="-230.8" font-family="Helvetica,sans-Serif" font-size="14.00">class = No Decease</text>
</g>
<!-- 7&#45;&gt;8 -->
<g id="edge8" class="edge">
<title>7&#45;&gt;8</title>
<path fill="none" stroke="black" d="M583.79,-341.91C577.99,-333.1 571.8,-323.7 565.82,-314.61"/>
<polygon fill="black" stroke="black" points="568.59,-312.45 560.17,-306.02 562.74,-316.3 568.59,-312.45"/>
</g>
<!-- 13 -->
<g id="node14" class="node">
<title>13</title>
<path fill="#b0d8f5" stroke="black" d="M734.5,-306C734.5,-306 642.5,-306 642.5,-306 636.5,-306 630.5,-300 630.5,-294 630.5,-294 630.5,-235 630.5,-235 630.5,-229 636.5,-223 642.5,-223 642.5,-223 734.5,-223 734.5,-223 740.5,-223 746.5,-229 746.5,-235 746.5,-235 746.5,-294 746.5,-294 746.5,-300 740.5,-306 734.5,-306"/>
<text text-anchor="start" x="653" y="-290.8" font-family="Helvetica,sans-Serif" font-size="14.00">exang ≤ 0.5</text>
<text text-anchor="start" x="641" y="-275.8" font-family="Helvetica,sans-Serif" font-size="14.00">entropy = 0.954</text>
<text text-anchor="start" x="647.5" y="-260.8" font-family="Helvetica,sans-Serif" font-size="14.00">samples = 24</text>
<text text-anchor="start" x="645.5" y="-245.8" font-family="Helvetica,sans-Serif" font-size="14.00">value = [9, 15]</text>
<text text-anchor="start" x="638.5" y="-230.8" font-family="Helvetica,sans-Serif" font-size="14.00">class = Decease</text>
</g>
<!-- 7&#45;&gt;13 -->
<g id="edge13" class="edge">
<title>7&#45;&gt;13</title>
<path fill="none" stroke="black" d="M637.56,-341.91C643.43,-333.1 649.7,-323.7 655.76,-314.61"/>
<polygon fill="black" stroke="black" points="658.85,-316.28 661.49,-306.02 653.03,-312.4 658.85,-316.28"/>
</g>
<!-- 9 -->
<g id="node10" class="node">
<title>9</title>
<path fill="#f4c9aa" stroke="black" d="M435,-187C435,-187 322,-187 322,-187 316,-187 310,-181 310,-175 310,-175 310,-116 310,-116 310,-110 316,-104 322,-104 322,-104 435,-104 435,-104 441,-104 447,-110 447,-116 447,-116 447,-175 447,-175 447,-181 441,-187 435,-187"/>
<text text-anchor="start" x="354" y="-171.8" font-family="Helvetica,sans-Serif" font-size="14.00">ca ≤ 0.5</text>
<text text-anchor="start" x="331" y="-156.8" font-family="Helvetica,sans-Serif" font-size="14.00">entropy = 0.946</text>
<text text-anchor="start" x="337.5" y="-141.8" font-family="Helvetica,sans-Serif" font-size="14.00">samples = 22</text>
<text text-anchor="start" x="335.5" y="-126.8" font-family="Helvetica,sans-Serif" font-size="14.00">value = [14, 8]</text>
<text text-anchor="start" x="318" y="-111.8" font-family="Helvetica,sans-Serif" font-size="14.00">class = No Decease</text>
</g>
<!-- 8&#45;&gt;9 -->
<g id="edge9" class="edge">
<title>8&#45;&gt;9</title>
<path fill="none" stroke="black" d="M479.72,-222.91C466.98,-213.29 453.29,-202.95 440.22,-193.09"/>
<polygon fill="black" stroke="black" points="442.27,-190.25 432.18,-187.02 438.05,-195.84 442.27,-190.25"/>
</g>
<!-- 12 -->
<g id="node13" class="node">
<title>12</title>
<path fill="#e58139" stroke="black" d="M590,-179.5C590,-179.5 477,-179.5 477,-179.5 471,-179.5 465,-173.5 465,-167.5 465,-167.5 465,-123.5 465,-123.5 465,-117.5 471,-111.5 477,-111.5 477,-111.5 590,-111.5 590,-111.5 596,-111.5 602,-117.5 602,-123.5 602,-123.5 602,-167.5 602,-167.5 602,-173.5 596,-179.5 590,-179.5"/>
<text text-anchor="start" x="493.5" y="-164.3" font-family="Helvetica,sans-Serif" font-size="14.00">entropy = 0.0</text>
<text text-anchor="start" x="492.5" y="-149.3" font-family="Helvetica,sans-Serif" font-size="14.00">samples = 12</text>
<text text-anchor="start" x="490.5" y="-134.3" font-family="Helvetica,sans-Serif" font-size="14.00">value = [12, 0]</text>
<text text-anchor="start" x="473" y="-119.3" font-family="Helvetica,sans-Serif" font-size="14.00">class = No Decease</text>
</g>
<!-- 8&#45;&gt;12 -->
<g id="edge12" class="edge">
<title>8&#45;&gt;12</title>
<path fill="none" stroke="black" d="M533.5,-222.91C533.5,-212.2 533.5,-200.62 533.5,-189.78"/>
<polygon fill="black" stroke="black" points="537,-189.67 533.5,-179.67 530,-189.67 537,-189.67"/>
</g>
<!-- 10 -->
<g id="node11" class="node">
<title>10</title>
<path fill="#eb9e67" stroke="black" d="M300,-68C300,-68 187,-68 187,-68 181,-68 175,-62 175,-56 175,-56 175,-12 175,-12 175,-6 181,0 187,0 187,0 300,0 300,0 306,0 312,-6 312,-12 312,-12 312,-56 312,-56 312,-62 306,-68 300,-68"/>
<text text-anchor="start" x="196" y="-52.8" font-family="Helvetica,sans-Serif" font-size="14.00">entropy = 0.696</text>
<text text-anchor="start" x="202.5" y="-37.8" font-family="Helvetica,sans-Serif" font-size="14.00">samples = 16</text>
<text text-anchor="start" x="200.5" y="-22.8" font-family="Helvetica,sans-Serif" font-size="14.00">value = [13, 3]</text>
<text text-anchor="start" x="183" y="-7.8" font-family="Helvetica,sans-Serif" font-size="14.00">class = No Decease</text>
</g>
<!-- 9&#45;&gt;10 -->
<g id="edge10" class="edge">
<title>9&#45;&gt;10</title>
<path fill="none" stroke="black" d="M328.23,-103.73C316.54,-94.24 304.1,-84.16 292.46,-74.72"/>
<polygon fill="black" stroke="black" points="294.53,-71.88 284.55,-68.3 290.12,-77.32 294.53,-71.88"/>
</g>
<!-- 11 -->
<g id="node12" class="node">
<title>11</title>
<path fill="#61b1ea" stroke="black" d="M434.5,-68C434.5,-68 342.5,-68 342.5,-68 336.5,-68 330.5,-62 330.5,-56 330.5,-56 330.5,-12 330.5,-12 330.5,-6 336.5,0 342.5,0 342.5,0 434.5,0 434.5,0 440.5,0 446.5,-6 446.5,-12 446.5,-12 446.5,-56 446.5,-56 446.5,-62 440.5,-68 434.5,-68"/>
<text text-anchor="start" x="344.5" y="-52.8" font-family="Helvetica,sans-Serif" font-size="14.00">entropy = 0.65</text>
<text text-anchor="start" x="351" y="-37.8" font-family="Helvetica,sans-Serif" font-size="14.00">samples = 6</text>
<text text-anchor="start" x="349" y="-22.8" font-family="Helvetica,sans-Serif" font-size="14.00">value = [1, 5]</text>
<text text-anchor="start" x="338.5" y="-7.8" font-family="Helvetica,sans-Serif" font-size="14.00">class = Decease</text>
</g>
<!-- 9&#45;&gt;11 -->
<g id="edge11" class="edge">
<title>9&#45;&gt;11</title>
<path fill="none" stroke="black" d="M382.22,-103.73C382.98,-95.43 383.78,-86.67 384.55,-78.28"/>
<polygon fill="black" stroke="black" points="388.03,-78.58 385.46,-68.3 381.06,-77.94 388.03,-78.58"/>
</g>
<!-- 14 -->
<g id="node15" class="node">
<title>14</title>
<path fill="#f8dbc6" stroke="black" d="M745,-187C745,-187 632,-187 632,-187 626,-187 620,-181 620,-175 620,-175 620,-116 620,-116 620,-110 626,-104 632,-104 632,-104 745,-104 745,-104 751,-104 757,-110 757,-116 757,-116 757,-175 757,-175 757,-181 751,-187 745,-187"/>
<text text-anchor="start" x="651.5" y="-171.8" font-family="Helvetica,sans-Serif" font-size="14.00">chol ≤ 304.0</text>
<text text-anchor="start" x="644.5" y="-156.8" font-family="Helvetica,sans-Serif" font-size="14.00">entropy = 0.98</text>
<text text-anchor="start" x="647.5" y="-141.8" font-family="Helvetica,sans-Serif" font-size="14.00">samples = 12</text>
<text text-anchor="start" x="649" y="-126.8" font-family="Helvetica,sans-Serif" font-size="14.00">value = [7, 5]</text>
<text text-anchor="start" x="628" y="-111.8" font-family="Helvetica,sans-Serif" font-size="14.00">class = No Decease</text>
</g>
<!-- 13&#45;&gt;14 -->
<g id="edge14" class="edge">
<title>13&#45;&gt;14</title>
<path fill="none" stroke="black" d="M688.5,-222.91C688.5,-214.65 688.5,-205.86 688.5,-197.3"/>
<polygon fill="black" stroke="black" points="692,-197.02 688.5,-187.02 685,-197.02 692,-197.02"/>
</g>
<!-- 17 -->
<g id="node18" class="node">
<title>17</title>
<path fill="#61b1ea" stroke="black" d="M879.5,-187C879.5,-187 787.5,-187 787.5,-187 781.5,-187 775.5,-181 775.5,-175 775.5,-175 775.5,-116 775.5,-116 775.5,-110 781.5,-104 787.5,-104 787.5,-104 879.5,-104 879.5,-104 885.5,-104 891.5,-110 891.5,-116 891.5,-116 891.5,-175 891.5,-175 891.5,-181 885.5,-187 879.5,-187"/>
<text text-anchor="start" x="796.5" y="-171.8" font-family="Helvetica,sans-Serif" font-size="14.00">chol ≤ 314.5</text>
<text text-anchor="start" x="789.5" y="-156.8" font-family="Helvetica,sans-Serif" font-size="14.00">entropy = 0.65</text>
<text text-anchor="start" x="792.5" y="-141.8" font-family="Helvetica,sans-Serif" font-size="14.00">samples = 12</text>
<text text-anchor="start" x="790.5" y="-126.8" font-family="Helvetica,sans-Serif" font-size="14.00">value = [2, 10]</text>
<text text-anchor="start" x="783.5" y="-111.8" font-family="Helvetica,sans-Serif" font-size="14.00">class = Decease</text>
</g>
<!-- 13&#45;&gt;17 -->
<g id="edge17" class="edge">
<title>13&#45;&gt;17</title>
<path fill="none" stroke="black" d="M738.81,-222.91C750.62,-213.38 763.29,-203.15 775.41,-193.37"/>
<polygon fill="black" stroke="black" points="777.7,-196.02 783.28,-187.02 773.3,-190.58 777.7,-196.02"/>
</g>
<!-- 15 -->
<g id="node16" class="node">
<title>15</title>
<path fill="#eca572" stroke="black" d="M600,-68C600,-68 487,-68 487,-68 481,-68 475,-62 475,-56 475,-56 475,-12 475,-12 475,-6 481,0 487,0 487,0 600,0 600,0 606,0 612,-6 612,-12 612,-12 612,-56 612,-56 612,-62 606,-68 600,-68"/>
<text text-anchor="start" x="496" y="-52.8" font-family="Helvetica,sans-Serif" font-size="14.00">entropy = 0.764</text>
<text text-anchor="start" x="506" y="-37.8" font-family="Helvetica,sans-Serif" font-size="14.00">samples = 9</text>
<text text-anchor="start" x="504" y="-22.8" font-family="Helvetica,sans-Serif" font-size="14.00">value = [7, 2]</text>
<text text-anchor="start" x="483" y="-7.8" font-family="Helvetica,sans-Serif" font-size="14.00">class = No Decease</text>
</g>
<!-- 14&#45;&gt;15 -->
<g id="edge15" class="edge">
<title>14&#45;&gt;15</title>
<path fill="none" stroke="black" d="M634.51,-103.73C621.83,-94.15 608.33,-83.96 595.73,-74.44"/>
<polygon fill="black" stroke="black" points="597.68,-71.53 587.6,-68.3 593.47,-77.12 597.68,-71.53"/>
</g>
<!-- 16 -->
<g id="node17" class="node">
<title>16</title>
<path fill="#399de5" stroke="black" d="M734.5,-68C734.5,-68 642.5,-68 642.5,-68 636.5,-68 630.5,-62 630.5,-56 630.5,-56 630.5,-12 630.5,-12 630.5,-6 636.5,0 642.5,0 642.5,0 734.5,0 734.5,0 740.5,0 746.5,-6 746.5,-12 746.5,-12 746.5,-56 746.5,-56 746.5,-62 740.5,-68 734.5,-68"/>
<text text-anchor="start" x="648.5" y="-52.8" font-family="Helvetica,sans-Serif" font-size="14.00">entropy = 0.0</text>
<text text-anchor="start" x="651" y="-37.8" font-family="Helvetica,sans-Serif" font-size="14.00">samples = 3</text>
<text text-anchor="start" x="649" y="-22.8" font-family="Helvetica,sans-Serif" font-size="14.00">value = [0, 3]</text>
<text text-anchor="start" x="638.5" y="-7.8" font-family="Helvetica,sans-Serif" font-size="14.00">class = Decease</text>
</g>
<!-- 14&#45;&gt;16 -->
<g id="edge16" class="edge">
<title>14&#45;&gt;16</title>
<path fill="none" stroke="black" d="M688.5,-103.73C688.5,-95.52 688.5,-86.86 688.5,-78.56"/>
<polygon fill="black" stroke="black" points="692,-78.3 688.5,-68.3 685,-78.3 692,-78.3"/>
</g>
<!-- 18 -->
<g id="node19" class="node">
<title>18</title>
<path fill="#399de5" stroke="black" d="M868.5,-68C868.5,-68 776.5,-68 776.5,-68 770.5,-68 764.5,-62 764.5,-56 764.5,-56 764.5,-12 764.5,-12 764.5,-6 770.5,0 776.5,0 776.5,0 868.5,0 868.5,0 874.5,0 880.5,-6 880.5,-12 880.5,-12 880.5,-56 880.5,-56 880.5,-62 874.5,-68 868.5,-68"/>
<text text-anchor="start" x="782.5" y="-52.8" font-family="Helvetica,sans-Serif" font-size="14.00">entropy = 0.0</text>
<text text-anchor="start" x="785" y="-37.8" font-family="Helvetica,sans-Serif" font-size="14.00">samples = 9</text>
<text text-anchor="start" x="783" y="-22.8" font-family="Helvetica,sans-Serif" font-size="14.00">value = [0, 9]</text>
<text text-anchor="start" x="772.5" y="-7.8" font-family="Helvetica,sans-Serif" font-size="14.00">class = Decease</text>
</g>
<!-- 17&#45;&gt;18 -->
<g id="edge18" class="edge">
<title>17&#45;&gt;18</title>
<path fill="none" stroke="black" d="M829.4,-103.73C828.57,-95.43 827.69,-86.67 826.85,-78.28"/>
<polygon fill="black" stroke="black" points="830.33,-77.9 825.85,-68.3 823.36,-78.6 830.33,-77.9"/>
</g>
<!-- 19 -->
<g id="node20" class="node">
<title>19</title>
<path fill="#f2c09c" stroke="black" d="M1024,-68C1024,-68 911,-68 911,-68 905,-68 899,-62 899,-56 899,-56 899,-12 899,-12 899,-6 905,0 911,0 911,0 1024,0 1024,0 1030,0 1036,-6 1036,-12 1036,-12 1036,-56 1036,-56 1036,-62 1030,-68 1024,-68"/>
<text text-anchor="start" x="920" y="-52.8" font-family="Helvetica,sans-Serif" font-size="14.00">entropy = 0.918</text>
<text text-anchor="start" x="930" y="-37.8" font-family="Helvetica,sans-Serif" font-size="14.00">samples = 3</text>
<text text-anchor="start" x="928" y="-22.8" font-family="Helvetica,sans-Serif" font-size="14.00">value = [2, 1]</text>
<text text-anchor="start" x="907" y="-7.8" font-family="Helvetica,sans-Serif" font-size="14.00">class = No Decease</text>
</g>
<!-- 17&#45;&gt;19 -->
<g id="edge19" class="edge">
<title>17&#45;&gt;19</title>
<path fill="none" stroke="black" d="M883.4,-103.73C895,-94.24 907.35,-84.16 918.9,-74.72"/>
<polygon fill="black" stroke="black" points="921.22,-77.34 926.75,-68.3 916.79,-71.92 921.22,-77.34"/>
</g>
<!-- 21 -->
<g id="node22" class="node">
<title>21</title>
<path fill="#f0f7fd" stroke="black" d="M1400.5,-425C1400.5,-425 1308.5,-425 1308.5,-425 1302.5,-425 1296.5,-419 1296.5,-413 1296.5,-413 1296.5,-354 1296.5,-354 1296.5,-348 1302.5,-342 1308.5,-342 1308.5,-342 1400.5,-342 1400.5,-342 1406.5,-342 1412.5,-348 1412.5,-354 1412.5,-354 1412.5,-413 1412.5,-413 1412.5,-419 1406.5,-425 1400.5,-425"/>
<text text-anchor="start" x="1319" y="-409.8" font-family="Helvetica,sans-Serif" font-size="14.00">exang ≤ 0.5</text>
<text text-anchor="start" x="1307" y="-394.8" font-family="Helvetica,sans-Serif" font-size="14.00">entropy = 0.999</text>
<text text-anchor="start" x="1313.5" y="-379.8" font-family="Helvetica,sans-Serif" font-size="14.00">samples = 50</text>
<text text-anchor="start" x="1307.5" y="-364.8" font-family="Helvetica,sans-Serif" font-size="14.00">value = [24, 26]</text>
<text text-anchor="start" x="1304.5" y="-349.8" font-family="Helvetica,sans-Serif" font-size="14.00">class = Decease</text>
</g>
<!-- 20&#45;&gt;21 -->
<g id="edge21" class="edge">
<title>20&#45;&gt;21</title>
<path fill="none" stroke="black" d="M1354.5,-460.91C1354.5,-452.65 1354.5,-443.86 1354.5,-435.3"/>
<polygon fill="black" stroke="black" points="1358,-435.02 1354.5,-425.02 1351,-435.02 1358,-435.02"/>
</g>
<!-- 32 -->
<g id="node33" class="node">
<title>32</title>
<path fill="#4ea8e8" stroke="black" d="M1840.5,-425C1840.5,-425 1748.5,-425 1748.5,-425 1742.5,-425 1736.5,-419 1736.5,-413 1736.5,-413 1736.5,-354 1736.5,-354 1736.5,-348 1742.5,-342 1748.5,-342 1748.5,-342 1840.5,-342 1840.5,-342 1846.5,-342 1852.5,-348 1852.5,-354 1852.5,-354 1852.5,-413 1852.5,-413 1852.5,-419 1846.5,-425 1840.5,-425"/>
<text text-anchor="start" x="1755" y="-409.8" font-family="Helvetica,sans-Serif" font-size="14.00">restecg ≤ 0.5</text>
<text text-anchor="start" x="1747" y="-394.8" font-family="Helvetica,sans-Serif" font-size="14.00">entropy = 0.459</text>
<text text-anchor="start" x="1753.5" y="-379.8" font-family="Helvetica,sans-Serif" font-size="14.00">samples = 62</text>
<text text-anchor="start" x="1751.5" y="-364.8" font-family="Helvetica,sans-Serif" font-size="14.00">value = [6, 56]</text>
<text text-anchor="start" x="1744.5" y="-349.8" font-family="Helvetica,sans-Serif" font-size="14.00">class = Decease</text>
</g>
<!-- 20&#45;&gt;32 -->
<g id="edge32" class="edge">
<title>20&#45;&gt;32</title>
<path fill="none" stroke="black" d="M1412.93,-485.96C1493.99,-464.41 1640.28,-425.51 1726.26,-402.65"/>
<polygon fill="black" stroke="black" points="1727.42,-405.96 1736.18,-400.01 1725.62,-399.2 1727.42,-405.96"/>
</g>
<!-- 22 -->
<g id="node23" class="node">
<title>22</title>
<path fill="#f1ba92" stroke="black" d="M1334,-306C1334,-306 1221,-306 1221,-306 1215,-306 1209,-300 1209,-294 1209,-294 1209,-235 1209,-235 1209,-229 1215,-223 1221,-223 1221,-223 1334,-223 1334,-223 1340,-223 1346,-229 1346,-235 1346,-235 1346,-294 1346,-294 1346,-300 1340,-306 1334,-306"/>
<text text-anchor="start" x="1245.5" y="-290.8" font-family="Helvetica,sans-Serif" font-size="14.00">age ≤ 40.5</text>
<text text-anchor="start" x="1230" y="-275.8" font-family="Helvetica,sans-Serif" font-size="14.00">entropy = 0.894</text>
<text text-anchor="start" x="1236.5" y="-260.8" font-family="Helvetica,sans-Serif" font-size="14.00">samples = 29</text>
<text text-anchor="start" x="1234.5" y="-245.8" font-family="Helvetica,sans-Serif" font-size="14.00">value = [20, 9]</text>
<text text-anchor="start" x="1217" y="-230.8" font-family="Helvetica,sans-Serif" font-size="14.00">class = No Decease</text>
</g>
<!-- 21&#45;&gt;22 -->
<g id="edge22" class="edge">
<title>21&#45;&gt;22</title>
<path fill="none" stroke="black" d="M1327.79,-341.91C1321.99,-333.1 1315.8,-323.7 1309.82,-314.61"/>
<polygon fill="black" stroke="black" points="1312.59,-312.45 1304.17,-306.02 1306.74,-316.3 1312.59,-312.45"/>
</g>
<!-- 27 -->
<g id="node28" class="node">
<title>27</title>
<path fill="#68b4eb" stroke="black" d="M1478.5,-306C1478.5,-306 1386.5,-306 1386.5,-306 1380.5,-306 1374.5,-300 1374.5,-294 1374.5,-294 1374.5,-235 1374.5,-235 1374.5,-229 1380.5,-223 1386.5,-223 1386.5,-223 1478.5,-223 1478.5,-223 1484.5,-223 1490.5,-229 1490.5,-235 1490.5,-235 1490.5,-294 1490.5,-294 1490.5,-300 1484.5,-306 1478.5,-306"/>
<text text-anchor="start" x="1388" y="-290.8" font-family="Helvetica,sans-Serif" font-size="14.00">oldpeak ≤ 1.55</text>
<text text-anchor="start" x="1385" y="-275.8" font-family="Helvetica,sans-Serif" font-size="14.00">entropy = 0.702</text>
<text text-anchor="start" x="1391.5" y="-260.8" font-family="Helvetica,sans-Serif" font-size="14.00">samples = 21</text>
<text text-anchor="start" x="1389.5" y="-245.8" font-family="Helvetica,sans-Serif" font-size="14.00">value = [4, 17]</text>
<text text-anchor="start" x="1382.5" y="-230.8" font-family="Helvetica,sans-Serif" font-size="14.00">class = Decease</text>
</g>
<!-- 21&#45;&gt;27 -->
<g id="edge27" class="edge">
<title>21&#45;&gt;27</title>
<path fill="none" stroke="black" d="M1381.56,-341.91C1387.43,-333.1 1393.7,-323.7 1399.76,-314.61"/>
<polygon fill="black" stroke="black" points="1402.85,-316.28 1405.49,-306.02 1397.03,-312.4 1402.85,-316.28"/>
</g>
<!-- 23 -->
<g id="node24" class="node">
<title>23</title>
<path fill="#399de5" stroke="black" d="M1178.5,-179.5C1178.5,-179.5 1086.5,-179.5 1086.5,-179.5 1080.5,-179.5 1074.5,-173.5 1074.5,-167.5 1074.5,-167.5 1074.5,-123.5 1074.5,-123.5 1074.5,-117.5 1080.5,-111.5 1086.5,-111.5 1086.5,-111.5 1178.5,-111.5 1178.5,-111.5 1184.5,-111.5 1190.5,-117.5 1190.5,-123.5 1190.5,-123.5 1190.5,-167.5 1190.5,-167.5 1190.5,-173.5 1184.5,-179.5 1178.5,-179.5"/>
<text text-anchor="start" x="1092.5" y="-164.3" font-family="Helvetica,sans-Serif" font-size="14.00">entropy = 0.0</text>
<text text-anchor="start" x="1095" y="-149.3" font-family="Helvetica,sans-Serif" font-size="14.00">samples = 2</text>
<text text-anchor="start" x="1093" y="-134.3" font-family="Helvetica,sans-Serif" font-size="14.00">value = [0, 2]</text>
<text text-anchor="start" x="1082.5" y="-119.3" font-family="Helvetica,sans-Serif" font-size="14.00">class = Decease</text>
</g>
<!-- 22&#45;&gt;23 -->
<g id="edge23" class="edge">
<title>22&#45;&gt;23</title>
<path fill="none" stroke="black" d="M1227.19,-222.91C1212.42,-210.99 1196.29,-197.98 1181.6,-186.12"/>
<polygon fill="black" stroke="black" points="1183.58,-183.22 1173.6,-179.67 1179.19,-188.67 1183.58,-183.22"/>
</g>
<!-- 24 -->
<g id="node25" class="node">
<title>24</title>
<path fill="#eead7e" stroke="black" d="M1334,-187C1334,-187 1221,-187 1221,-187 1215,-187 1209,-181 1209,-175 1209,-175 1209,-116 1209,-116 1209,-110 1215,-104 1221,-104 1221,-104 1334,-104 1334,-104 1340,-104 1346,-110 1346,-116 1346,-116 1346,-175 1346,-175 1346,-181 1340,-187 1334,-187"/>
<text text-anchor="start" x="1249.5" y="-171.8" font-family="Helvetica,sans-Serif" font-size="14.00">thal ≤ 6.5</text>
<text text-anchor="start" x="1230" y="-156.8" font-family="Helvetica,sans-Serif" font-size="14.00">entropy = 0.826</text>
<text text-anchor="start" x="1236.5" y="-141.8" font-family="Helvetica,sans-Serif" font-size="14.00">samples = 27</text>
<text text-anchor="start" x="1234.5" y="-126.8" font-family="Helvetica,sans-Serif" font-size="14.00">value = [20, 7]</text>
<text text-anchor="start" x="1217" y="-111.8" font-family="Helvetica,sans-Serif" font-size="14.00">class = No Decease</text>
</g>
<!-- 22&#45;&gt;24 -->
<g id="edge24" class="edge">
<title>22&#45;&gt;24</title>
<path fill="none" stroke="black" d="M1277.5,-222.91C1277.5,-214.65 1277.5,-205.86 1277.5,-197.3"/>
<polygon fill="black" stroke="black" points="1281,-197.02 1277.5,-187.02 1274,-197.02 1281,-197.02"/>
</g>
<!-- 25 -->
<g id="node26" class="node">
<title>25</title>
<path fill="#e58139" stroke="black" d="M1179,-68C1179,-68 1066,-68 1066,-68 1060,-68 1054,-62 1054,-56 1054,-56 1054,-12 1054,-12 1054,-6 1060,0 1066,0 1066,0 1179,0 1179,0 1185,0 1191,-6 1191,-12 1191,-12 1191,-56 1191,-56 1191,-62 1185,-68 1179,-68"/>
<text text-anchor="start" x="1082.5" y="-52.8" font-family="Helvetica,sans-Serif" font-size="14.00">entropy = 0.0</text>
<text text-anchor="start" x="1085" y="-37.8" font-family="Helvetica,sans-Serif" font-size="14.00">samples = 5</text>
<text text-anchor="start" x="1083" y="-22.8" font-family="Helvetica,sans-Serif" font-size="14.00">value = [5, 0]</text>
<text text-anchor="start" x="1062" y="-7.8" font-family="Helvetica,sans-Serif" font-size="14.00">class = No Decease</text>
</g>
<!-- 24&#45;&gt;25 -->
<g id="edge25" class="edge">
<title>24&#45;&gt;25</title>
<path fill="none" stroke="black" d="M1219.78,-103.73C1206.1,-94.06 1191.53,-83.77 1177.95,-74.17"/>
<polygon fill="black" stroke="black" points="1179.82,-71.21 1169.64,-68.3 1175.78,-76.93 1179.82,-71.21"/>
</g>
<!-- 26 -->
<g id="node27" class="node">
<title>26</title>
<path fill="#f1bc95" stroke="black" d="M1334,-68C1334,-68 1221,-68 1221,-68 1215,-68 1209,-62 1209,-56 1209,-56 1209,-12 1209,-12 1209,-6 1215,0 1221,0 1221,0 1334,0 1334,0 1340,0 1346,-6 1346,-12 1346,-12 1346,-56 1346,-56 1346,-62 1340,-68 1334,-68"/>
<text text-anchor="start" x="1230" y="-52.8" font-family="Helvetica,sans-Serif" font-size="14.00">entropy = 0.902</text>
<text text-anchor="start" x="1236.5" y="-37.8" font-family="Helvetica,sans-Serif" font-size="14.00">samples = 22</text>
<text text-anchor="start" x="1223" y="-22.8" font-family="Helvetica,sans-Serif" font-size="14.00">value = [15.0, 7.0]</text>
<text text-anchor="start" x="1217" y="-7.8" font-family="Helvetica,sans-Serif" font-size="14.00">class = No Decease</text>
</g>
<!-- 24&#45;&gt;26 -->
<g id="edge26" class="edge">
<title>24&#45;&gt;26</title>
<path fill="none" stroke="black" d="M1277.5,-103.73C1277.5,-95.52 1277.5,-86.86 1277.5,-78.56"/>
<polygon fill="black" stroke="black" points="1281,-78.3 1277.5,-68.3 1274,-78.3 1281,-78.3"/>
</g>
<!-- 28 -->
<g id="node29" class="node">
<title>28</title>
<path fill="#f8e0ce" stroke="black" d="M1489,-187C1489,-187 1376,-187 1376,-187 1370,-187 1364,-181 1364,-175 1364,-175 1364,-116 1364,-116 1364,-110 1370,-104 1376,-104 1376,-104 1489,-104 1489,-104 1495,-104 1501,-110 1501,-116 1501,-116 1501,-175 1501,-175 1501,-181 1495,-187 1489,-187"/>
<text text-anchor="start" x="1395.5" y="-171.8" font-family="Helvetica,sans-Serif" font-size="14.00">chol ≤ 255.0</text>
<text text-anchor="start" x="1385" y="-156.8" font-family="Helvetica,sans-Serif" font-size="14.00">entropy = 0.985</text>
<text text-anchor="start" x="1395" y="-141.8" font-family="Helvetica,sans-Serif" font-size="14.00">samples = 7</text>
<text text-anchor="start" x="1393" y="-126.8" font-family="Helvetica,sans-Serif" font-size="14.00">value = [4, 3]</text>
<text text-anchor="start" x="1372" y="-111.8" font-family="Helvetica,sans-Serif" font-size="14.00">class = No Decease</text>
</g>
<!-- 27&#45;&gt;28 -->
<g id="edge28" class="edge">
<title>27&#45;&gt;28</title>
<path fill="none" stroke="black" d="M1432.5,-222.91C1432.5,-214.65 1432.5,-205.86 1432.5,-197.3"/>
<polygon fill="black" stroke="black" points="1436,-197.02 1432.5,-187.02 1429,-197.02 1436,-197.02"/>
</g>
<!-- 31 -->
<g id="node32" class="node">
<title>31</title>
<path fill="#399de5" stroke="black" d="M1623.5,-179.5C1623.5,-179.5 1531.5,-179.5 1531.5,-179.5 1525.5,-179.5 1519.5,-173.5 1519.5,-167.5 1519.5,-167.5 1519.5,-123.5 1519.5,-123.5 1519.5,-117.5 1525.5,-111.5 1531.5,-111.5 1531.5,-111.5 1623.5,-111.5 1623.5,-111.5 1629.5,-111.5 1635.5,-117.5 1635.5,-123.5 1635.5,-123.5 1635.5,-167.5 1635.5,-167.5 1635.5,-173.5 1629.5,-179.5 1623.5,-179.5"/>
<text text-anchor="start" x="1537.5" y="-164.3" font-family="Helvetica,sans-Serif" font-size="14.00">entropy = 0.0</text>
<text text-anchor="start" x="1536.5" y="-149.3" font-family="Helvetica,sans-Serif" font-size="14.00">samples = 14</text>
<text text-anchor="start" x="1534.5" y="-134.3" font-family="Helvetica,sans-Serif" font-size="14.00">value = [0, 14]</text>
<text text-anchor="start" x="1527.5" y="-119.3" font-family="Helvetica,sans-Serif" font-size="14.00">class = Decease</text>
</g>
<!-- 27&#45;&gt;31 -->
<g id="edge31" class="edge">
<title>27&#45;&gt;31</title>
<path fill="none" stroke="black" d="M1482.81,-222.91C1497.58,-210.99 1513.71,-197.98 1528.4,-186.12"/>
<polygon fill="black" stroke="black" points="1530.81,-188.67 1536.4,-179.67 1526.42,-183.22 1530.81,-188.67"/>
</g>
<!-- 29 -->
<g id="node30" class="node">
<title>29</title>
<path fill="#e58139" stroke="black" d="M1489,-68C1489,-68 1376,-68 1376,-68 1370,-68 1364,-62 1364,-56 1364,-56 1364,-12 1364,-12 1364,-6 1370,0 1376,0 1376,0 1489,0 1489,0 1495,0 1501,-6 1501,-12 1501,-12 1501,-56 1501,-56 1501,-62 1495,-68 1489,-68"/>
<text text-anchor="start" x="1392.5" y="-52.8" font-family="Helvetica,sans-Serif" font-size="14.00">entropy = 0.0</text>
<text text-anchor="start" x="1395" y="-37.8" font-family="Helvetica,sans-Serif" font-size="14.00">samples = 4</text>
<text text-anchor="start" x="1393" y="-22.8" font-family="Helvetica,sans-Serif" font-size="14.00">value = [4, 0]</text>
<text text-anchor="start" x="1372" y="-7.8" font-family="Helvetica,sans-Serif" font-size="14.00">class = No Decease</text>
</g>
<!-- 28&#45;&gt;29 -->
<g id="edge29" class="edge">
<title>28&#45;&gt;29</title>
<path fill="none" stroke="black" d="M1432.5,-103.73C1432.5,-95.52 1432.5,-86.86 1432.5,-78.56"/>
<polygon fill="black" stroke="black" points="1436,-78.3 1432.5,-68.3 1429,-78.3 1436,-78.3"/>
</g>
<!-- 30 -->
<g id="node31" class="node">
<title>30</title>
<path fill="#399de5" stroke="black" d="M1623.5,-68C1623.5,-68 1531.5,-68 1531.5,-68 1525.5,-68 1519.5,-62 1519.5,-56 1519.5,-56 1519.5,-12 1519.5,-12 1519.5,-6 1525.5,0 1531.5,0 1531.5,0 1623.5,0 1623.5,0 1629.5,0 1635.5,-6 1635.5,-12 1635.5,-12 1635.5,-56 1635.5,-56 1635.5,-62 1629.5,-68 1623.5,-68"/>
<text text-anchor="start" x="1537.5" y="-52.8" font-family="Helvetica,sans-Serif" font-size="14.00">entropy = 0.0</text>
<text text-anchor="start" x="1540" y="-37.8" font-family="Helvetica,sans-Serif" font-size="14.00">samples = 3</text>
<text text-anchor="start" x="1538" y="-22.8" font-family="Helvetica,sans-Serif" font-size="14.00">value = [0, 3]</text>
<text text-anchor="start" x="1527.5" y="-7.8" font-family="Helvetica,sans-Serif" font-size="14.00">class = Decease</text>
</g>
<!-- 28&#45;&gt;30 -->
<g id="edge30" class="edge">
<title>28&#45;&gt;30</title>
<path fill="none" stroke="black" d="M1486.49,-103.73C1499.17,-94.15 1512.67,-83.96 1525.27,-74.44"/>
<polygon fill="black" stroke="black" points="1527.53,-77.12 1533.4,-68.3 1523.32,-71.53 1527.53,-77.12"/>
</g>
<!-- 33 -->
<g id="node34" class="node">
<title>33</title>
<path fill="#6db7ec" stroke="black" d="M1840.5,-306C1840.5,-306 1748.5,-306 1748.5,-306 1742.5,-306 1736.5,-300 1736.5,-294 1736.5,-294 1736.5,-235 1736.5,-235 1736.5,-229 1742.5,-223 1748.5,-223 1748.5,-223 1840.5,-223 1840.5,-223 1846.5,-223 1852.5,-229 1852.5,-235 1852.5,-235 1852.5,-294 1852.5,-294 1852.5,-300 1846.5,-306 1840.5,-306"/>
<text text-anchor="start" x="1753.5" y="-290.8" font-family="Helvetica,sans-Serif" font-size="14.00">oldpeak ≤ 1.1</text>
<text text-anchor="start" x="1747" y="-275.8" font-family="Helvetica,sans-Serif" font-size="14.00">entropy = 0.736</text>
<text text-anchor="start" x="1753.5" y="-260.8" font-family="Helvetica,sans-Serif" font-size="14.00">samples = 29</text>
<text text-anchor="start" x="1751.5" y="-245.8" font-family="Helvetica,sans-Serif" font-size="14.00">value = [6, 23]</text>
<text text-anchor="start" x="1744.5" y="-230.8" font-family="Helvetica,sans-Serif" font-size="14.00">class = Decease</text>
</g>
<!-- 32&#45;&gt;33 -->
<g id="edge33" class="edge">
<title>32&#45;&gt;33</title>
<path fill="none" stroke="black" d="M1794.5,-341.91C1794.5,-333.65 1794.5,-324.86 1794.5,-316.3"/>
<polygon fill="black" stroke="black" points="1798,-316.02 1794.5,-306.02 1791,-316.02 1798,-316.02"/>
</g>
<!-- 40 -->
<g id="node41" class="node">
<title>40</title>
<path fill="#399de5" stroke="black" d="M1974.5,-298.5C1974.5,-298.5 1882.5,-298.5 1882.5,-298.5 1876.5,-298.5 1870.5,-292.5 1870.5,-286.5 1870.5,-286.5 1870.5,-242.5 1870.5,-242.5 1870.5,-236.5 1876.5,-230.5 1882.5,-230.5 1882.5,-230.5 1974.5,-230.5 1974.5,-230.5 1980.5,-230.5 1986.5,-236.5 1986.5,-242.5 1986.5,-242.5 1986.5,-286.5 1986.5,-286.5 1986.5,-292.5 1980.5,-298.5 1974.5,-298.5"/>
<text text-anchor="start" x="1888.5" y="-283.3" font-family="Helvetica,sans-Serif" font-size="14.00">entropy = 0.0</text>
<text text-anchor="start" x="1887.5" y="-268.3" font-family="Helvetica,sans-Serif" font-size="14.00">samples = 33</text>
<text text-anchor="start" x="1885.5" y="-253.3" font-family="Helvetica,sans-Serif" font-size="14.00">value = [0, 33]</text>
<text text-anchor="start" x="1878.5" y="-238.3" font-family="Helvetica,sans-Serif" font-size="14.00">class = Decease</text>
</g>
<!-- 32&#45;&gt;40 -->
<g id="edge40" class="edge">
<title>32&#45;&gt;40</title>
<path fill="none" stroke="black" d="M1840.99,-341.91C1854.51,-330.1 1869.27,-317.22 1882.75,-305.45"/>
<polygon fill="black" stroke="black" points="1885.28,-307.88 1890.51,-298.67 1880.68,-302.61 1885.28,-307.88"/>
</g>
<!-- 34 -->
<g id="node35" class="node">
<title>34</title>
<path fill="#b5daf5" stroke="black" d="M1840.5,-187C1840.5,-187 1748.5,-187 1748.5,-187 1742.5,-187 1736.5,-181 1736.5,-175 1736.5,-175 1736.5,-116 1736.5,-116 1736.5,-110 1742.5,-104 1748.5,-104 1748.5,-104 1840.5,-104 1840.5,-104 1846.5,-104 1852.5,-110 1852.5,-116 1852.5,-116 1852.5,-175 1852.5,-175 1852.5,-181 1846.5,-187 1840.5,-187"/>
<text text-anchor="start" x="1748" y="-171.8" font-family="Helvetica,sans-Serif" font-size="14.00">thalach ≤ 155.0</text>
<text text-anchor="start" x="1747" y="-156.8" font-family="Helvetica,sans-Serif" font-size="14.00">entropy = 0.961</text>
<text text-anchor="start" x="1753.5" y="-141.8" font-family="Helvetica,sans-Serif" font-size="14.00">samples = 13</text>
<text text-anchor="start" x="1755" y="-126.8" font-family="Helvetica,sans-Serif" font-size="14.00">value = [5, 8]</text>
<text text-anchor="start" x="1744.5" y="-111.8" font-family="Helvetica,sans-Serif" font-size="14.00">class = Decease</text>
</g>
<!-- 33&#45;&gt;34 -->
<g id="edge34" class="edge">
<title>33&#45;&gt;34</title>
<path fill="none" stroke="black" d="M1794.5,-222.91C1794.5,-214.65 1794.5,-205.86 1794.5,-197.3"/>
<polygon fill="black" stroke="black" points="1798,-197.02 1794.5,-187.02 1791,-197.02 1798,-197.02"/>
</g>
<!-- 37 -->
<g id="node38" class="node">
<title>37</title>
<path fill="#46a4e7" stroke="black" d="M2047.5,-187C2047.5,-187 1955.5,-187 1955.5,-187 1949.5,-187 1943.5,-181 1943.5,-175 1943.5,-175 1943.5,-116 1943.5,-116 1943.5,-110 1949.5,-104 1955.5,-104 1955.5,-104 2047.5,-104 2047.5,-104 2053.5,-104 2059.5,-110 2059.5,-116 2059.5,-116 2059.5,-175 2059.5,-175 2059.5,-181 2053.5,-187 2047.5,-187"/>
<text text-anchor="start" x="1955" y="-171.8" font-family="Helvetica,sans-Serif" font-size="14.00">thalach ≤ 145.0</text>
<text text-anchor="start" x="1954" y="-156.8" font-family="Helvetica,sans-Serif" font-size="14.00">entropy = 0.337</text>
<text text-anchor="start" x="1960.5" y="-141.8" font-family="Helvetica,sans-Serif" font-size="14.00">samples = 16</text>
<text text-anchor="start" x="1958.5" y="-126.8" font-family="Helvetica,sans-Serif" font-size="14.00">value = [1, 15]</text>
<text text-anchor="start" x="1951.5" y="-111.8" font-family="Helvetica,sans-Serif" font-size="14.00">class = Decease</text>
</g>
<!-- 33&#45;&gt;37 -->
<g id="edge37" class="edge">
<title>33&#45;&gt;37</title>
<path fill="none" stroke="black" d="M1852.51,-228.22C1855.55,-226.44 1858.55,-224.69 1861.5,-223 1885.03,-209.47 1911.06,-195.09 1934.22,-182.49"/>
<polygon fill="black" stroke="black" points="1936.17,-185.42 1943.29,-177.57 1932.83,-179.27 1936.17,-185.42"/>
</g>
<!-- 35 -->
<g id="node36" class="node">
<title>35</title>
<path fill="#e58139" stroke="black" d="M1779,-68C1779,-68 1666,-68 1666,-68 1660,-68 1654,-62 1654,-56 1654,-56 1654,-12 1654,-12 1654,-6 1660,0 1666,0 1666,0 1779,0 1779,0 1785,0 1791,-6 1791,-12 1791,-12 1791,-56 1791,-56 1791,-62 1785,-68 1779,-68"/>
<text text-anchor="start" x="1682.5" y="-52.8" font-family="Helvetica,sans-Serif" font-size="14.00">entropy = 0.0</text>
<text text-anchor="start" x="1685" y="-37.8" font-family="Helvetica,sans-Serif" font-size="14.00">samples = 4</text>
<text text-anchor="start" x="1683" y="-22.8" font-family="Helvetica,sans-Serif" font-size="14.00">value = [4, 0]</text>
<text text-anchor="start" x="1662" y="-7.8" font-family="Helvetica,sans-Serif" font-size="14.00">class = No Decease</text>
</g>
<!-- 34&#45;&gt;35 -->
<g id="edge35" class="edge">
<title>34&#45;&gt;35</title>
<path fill="none" stroke="black" d="M1767.69,-103.73C1761.93,-94.97 1755.84,-85.7 1750.05,-76.91"/>
<polygon fill="black" stroke="black" points="1752.81,-74.73 1744.4,-68.3 1746.97,-78.58 1752.81,-74.73"/>
</g>
<!-- 36 -->
<g id="node37" class="node">
<title>36</title>
<path fill="#52a9e8" stroke="black" d="M1913.5,-68C1913.5,-68 1821.5,-68 1821.5,-68 1815.5,-68 1809.5,-62 1809.5,-56 1809.5,-56 1809.5,-12 1809.5,-12 1809.5,-6 1815.5,0 1821.5,0 1821.5,0 1913.5,0 1913.5,0 1919.5,0 1925.5,-6 1925.5,-12 1925.5,-12 1925.5,-56 1925.5,-56 1925.5,-62 1919.5,-68 1913.5,-68"/>
<text text-anchor="start" x="1820" y="-52.8" font-family="Helvetica,sans-Serif" font-size="14.00">entropy = 0.503</text>
<text text-anchor="start" x="1830" y="-37.8" font-family="Helvetica,sans-Serif" font-size="14.00">samples = 9</text>
<text text-anchor="start" x="1828" y="-22.8" font-family="Helvetica,sans-Serif" font-size="14.00">value = [1, 8]</text>
<text text-anchor="start" x="1817.5" y="-7.8" font-family="Helvetica,sans-Serif" font-size="14.00">class = Decease</text>
</g>
<!-- 34&#45;&gt;36 -->
<g id="edge36" class="edge">
<title>34&#45;&gt;36</title>
<path fill="none" stroke="black" d="M1821.68,-103.73C1827.58,-94.88 1833.83,-85.51 1839.75,-76.63"/>
<polygon fill="black" stroke="black" points="1842.67,-78.56 1845.3,-68.3 1836.84,-74.68 1842.67,-78.56"/>
</g>
<!-- 38 -->
<g id="node39" class="node">
<title>38</title>
<path fill="#399de5" stroke="black" d="M2047.5,-68C2047.5,-68 1955.5,-68 1955.5,-68 1949.5,-68 1943.5,-62 1943.5,-56 1943.5,-56 1943.5,-12 1943.5,-12 1943.5,-6 1949.5,0 1955.5,0 1955.5,0 2047.5,0 2047.5,0 2053.5,0 2059.5,-6 2059.5,-12 2059.5,-12 2059.5,-56 2059.5,-56 2059.5,-62 2053.5,-68 2047.5,-68"/>
<text text-anchor="start" x="1961.5" y="-52.8" font-family="Helvetica,sans-Serif" font-size="14.00">entropy = 0.0</text>
<text text-anchor="start" x="1960.5" y="-37.8" font-family="Helvetica,sans-Serif" font-size="14.00">samples = 15</text>
<text text-anchor="start" x="1958.5" y="-22.8" font-family="Helvetica,sans-Serif" font-size="14.00">value = [0, 15]</text>
<text text-anchor="start" x="1951.5" y="-7.8" font-family="Helvetica,sans-Serif" font-size="14.00">class = Decease</text>
</g>
<!-- 37&#45;&gt;38 -->
<g id="edge38" class="edge">
<title>37&#45;&gt;38</title>
<path fill="none" stroke="black" d="M2001.5,-103.73C2001.5,-95.52 2001.5,-86.86 2001.5,-78.56"/>
<polygon fill="black" stroke="black" points="2005,-78.3 2001.5,-68.3 1998,-78.3 2005,-78.3"/>
</g>
<!-- 39 -->
<g id="node40" class="node">
<title>39</title>
<path fill="#e58139" stroke="black" d="M2203,-68C2203,-68 2090,-68 2090,-68 2084,-68 2078,-62 2078,-56 2078,-56 2078,-12 2078,-12 2078,-6 2084,0 2090,0 2090,0 2203,0 2203,0 2209,0 2215,-6 2215,-12 2215,-12 2215,-56 2215,-56 2215,-62 2209,-68 2203,-68"/>
<text text-anchor="start" x="2106.5" y="-52.8" font-family="Helvetica,sans-Serif" font-size="14.00">entropy = 0.0</text>
<text text-anchor="start" x="2109" y="-37.8" font-family="Helvetica,sans-Serif" font-size="14.00">samples = 1</text>
<text text-anchor="start" x="2107" y="-22.8" font-family="Helvetica,sans-Serif" font-size="14.00">value = [1, 0]</text>
<text text-anchor="start" x="2086" y="-7.8" font-family="Helvetica,sans-Serif" font-size="14.00">class = No Decease</text>
</g>
<!-- 37&#45;&gt;39 -->
<g id="edge39" class="edge">
<title>37&#45;&gt;39</title>
<path fill="none" stroke="black" d="M2055.49,-103.73C2068.17,-94.15 2081.67,-83.96 2094.27,-74.44"/>
<polygon fill="black" stroke="black" points="2096.53,-77.12 2102.4,-68.3 2092.32,-71.53 2096.53,-77.12"/>
</g>
</g>
</svg>
