<?xml version="1.0" encoding="UTF-8" standalone="no"?>
<!DOCTYPE svg PUBLIC "-//W3C//DTD SVG 1.1//EN"
 "http://www.w3.org/Graphics/SVG/1.1/DTD/svg11.dtd">
<!-- Generated by graphviz version 2.50.0 (0)
 -->
<!-- Title: Tree Pages: 1 -->
<svg width="569pt" height="344pt"
 viewBox="0.00 0.00 568.50 344.00" xmlns="http://www.w3.org/2000/svg" xmlns:xlink="http://www.w3.org/1999/xlink">
<g id="graph0" class="graph" transform="scale(1 1) rotate(0) translate(4 340)">
<title>Tree</title>
<polygon fill="white" stroke="transparent" points="-4,4 -4,-340 564.5,-340 564.5,4 -4,4"/>
<text text-anchor="middle" x="280.25" y="-316" font-family="Times New Roman,serif" font-size="20.00">Max Depth: 2 &#45; Accuracy: 0.7833</text>
<!-- 0 -->
<g id="node1" class="node">
<title>0</title>
<path fill="#fbece2" stroke="black" d="M357,-306C357,-306 234,-306 234,-306 228,-306 222,-300 222,-294 222,-294 222,-235 222,-235 222,-229 228,-223 234,-223 234,-223 357,-223 357,-223 363,-223 369,-229 369,-235 369,-235 369,-294 369,-294 369,-300 363,-306 357,-306"/>
<text text-anchor="start" x="267.5" y="-290.8" font-family="Helvetica,sans-Serif" font-size="14.00">thal ≤ 4.5</text>
<text text-anchor="start" x="248" y="-275.8" font-family="Helvetica,sans-Serif" font-size="14.00">entropy = 0.995</text>
<text text-anchor="start" x="250.5" y="-260.8" font-family="Helvetica,sans-Serif" font-size="14.00">samples = 237</text>
<text text-anchor="start" x="230" y="-245.8" font-family="Helvetica,sans-Serif" font-size="14.00">value = [128.0, 109.0]</text>
<text text-anchor="start" x="235" y="-230.8" font-family="Helvetica,sans-Serif" font-size="14.00">class = No Decease</text>
</g>
<!-- 1 -->
<g id="node2" class="node">
<title>1</title>
<path fill="#eca470" stroke="black" d="M280,-187C280,-187 167,-187 167,-187 161,-187 155,-181 155,-175 155,-175 155,-116 155,-116 155,-110 161,-104 167,-104 167,-104 280,-104 280,-104 286,-104 292,-110 292,-116 292,-116 292,-175 292,-175 292,-181 286,-187 280,-187"/>
<text text-anchor="start" x="191.5" y="-171.8" font-family="Helvetica,sans-Serif" font-size="14.00">age ≤ 54.5</text>
<text text-anchor="start" x="176" y="-156.8" font-family="Helvetica,sans-Serif" font-size="14.00">entropy = 0.753</text>
<text text-anchor="start" x="178.5" y="-141.8" font-family="Helvetica,sans-Serif" font-size="14.00">samples = 125</text>
<text text-anchor="start" x="176.5" y="-126.8" font-family="Helvetica,sans-Serif" font-size="14.00">value = [98, 27]</text>
<text text-anchor="start" x="163" y="-111.8" font-family="Helvetica,sans-Serif" font-size="14.00">class = No Decease</text>
</g>
<!-- 0&#45;&gt;1 -->
<g id="edge1" class="edge">
<title>0&#45;&gt;1</title>
<path fill="none" stroke="black" d="M270.52,-222.91C265.1,-214.1 259.32,-204.7 253.72,-195.61"/>
<polygon fill="black" stroke="black" points="256.66,-193.7 248.44,-187.02 250.7,-197.37 256.66,-193.7"/>
<text text-anchor="middle" x="242.65" y="-207.64" font-family="Helvetica,sans-Serif" font-size="14.00">True</text>
</g>
<!-- 4 -->
<g id="node5" class="node">
<title>4</title>
<path fill="#81c1ef" stroke="black" d="M414.5,-187C414.5,-187 322.5,-187 322.5,-187 316.5,-187 310.5,-181 310.5,-175 310.5,-175 310.5,-116 310.5,-116 310.5,-110 316.5,-104 322.5,-104 322.5,-104 414.5,-104 414.5,-104 420.5,-104 426.5,-110 426.5,-116 426.5,-116 426.5,-175 426.5,-175 426.5,-181 420.5,-187 414.5,-187"/>
<text text-anchor="start" x="344" y="-171.8" font-family="Helvetica,sans-Serif" font-size="14.00">ca ≤ 0.5</text>
<text text-anchor="start" x="321" y="-156.8" font-family="Helvetica,sans-Serif" font-size="14.00">entropy = 0.838</text>
<text text-anchor="start" x="324" y="-141.8" font-family="Helvetica,sans-Serif" font-size="14.00">samples = 112</text>
<text text-anchor="start" x="321.5" y="-126.8" font-family="Helvetica,sans-Serif" font-size="14.00">value = [30, 82]</text>
<text text-anchor="start" x="318.5" y="-111.8" font-family="Helvetica,sans-Serif" font-size="14.00">class = Decease</text>
</g>
<!-- 0&#45;&gt;4 -->
<g id="edge4" class="edge">
<title>0&#45;&gt;4</title>
<path fill="none" stroke="black" d="M320.83,-222.91C326.32,-214.1 332.19,-204.7 337.86,-195.61"/>
<polygon fill="black" stroke="black" points="340.89,-197.36 343.22,-187.02 334.95,-193.65 340.89,-197.36"/>
<text text-anchor="middle" x="348.86" y="-207.68" font-family="Helvetica,sans-Serif" font-size="14.00">False</text>
</g>
<!-- 2 -->
<g id="node3" class="node">
<title>2</title>
<path fill="#e78946" stroke="black" d="M125,-68C125,-68 12,-68 12,-68 6,-68 0,-62 0,-56 0,-56 0,-12 0,-12 0,-6 6,0 12,0 12,0 125,0 125,0 131,0 137,-6 137,-12 137,-12 137,-56 137,-56 137,-62 131,-68 125,-68"/>
<text text-anchor="start" x="21" y="-52.8" font-family="Helvetica,sans-Serif" font-size="14.00">entropy = 0.326</text>
<text text-anchor="start" x="27.5" y="-37.8" font-family="Helvetica,sans-Serif" font-size="14.00">samples = 67</text>
<text text-anchor="start" x="25.5" y="-22.8" font-family="Helvetica,sans-Serif" font-size="14.00">value = [63, 4]</text>
<text text-anchor="start" x="8" y="-7.8" font-family="Helvetica,sans-Serif" font-size="14.00">class = No Decease</text>
</g>
<!-- 1&#45;&gt;2 -->
<g id="edge2" class="edge">
<title>1&#45;&gt;2</title>
<path fill="none" stroke="black" d="M165.78,-103.73C152.1,-94.06 137.53,-83.77 123.95,-74.17"/>
<polygon fill="black" stroke="black" points="125.82,-71.21 115.64,-68.3 121.78,-76.93 125.82,-71.21"/>
</g>
<!-- 3 -->
<g id="node4" class="node">
<title>3</title>
<path fill="#f6d4bb" stroke="black" d="M280,-68C280,-68 167,-68 167,-68 161,-68 155,-62 155,-56 155,-56 155,-12 155,-12 155,-6 161,0 167,0 167,0 280,0 280,0 286,0 292,-6 292,-12 292,-12 292,-56 292,-56 292,-62 286,-68 280,-68"/>
<text text-anchor="start" x="176" y="-52.8" font-family="Helvetica,sans-Serif" font-size="14.00">entropy = 0.969</text>
<text text-anchor="start" x="182.5" y="-37.8" font-family="Helvetica,sans-Serif" font-size="14.00">samples = 58</text>
<text text-anchor="start" x="176.5" y="-22.8" font-family="Helvetica,sans-Serif" font-size="14.00">value = [35, 23]</text>
<text text-anchor="start" x="163" y="-7.8" font-family="Helvetica,sans-Serif" font-size="14.00">class = No Decease</text>
</g>
<!-- 1&#45;&gt;3 -->
<g id="edge3" class="edge">
<title>1&#45;&gt;3</title>
<path fill="none" stroke="black" d="M223.5,-103.73C223.5,-95.52 223.5,-86.86 223.5,-78.56"/>
<polygon fill="black" stroke="black" points="227,-78.3 223.5,-68.3 220,-78.3 227,-78.3"/>
</g>
<!-- 5 -->
<g id="node6" class="node">
<title>5</title>
<path fill="#f0f7fd" stroke="black" d="M414.5,-68C414.5,-68 322.5,-68 322.5,-68 316.5,-68 310.5,-62 310.5,-56 310.5,-56 310.5,-12 310.5,-12 310.5,-6 316.5,0 322.5,0 322.5,0 414.5,0 414.5,0 420.5,0 426.5,-6 426.5,-12 426.5,-12 426.5,-56 426.5,-56 426.5,-62 420.5,-68 414.5,-68"/>
<text text-anchor="start" x="321" y="-52.8" font-family="Helvetica,sans-Serif" font-size="14.00">entropy = 0.999</text>
<text text-anchor="start" x="327.5" y="-37.8" font-family="Helvetica,sans-Serif" font-size="14.00">samples = 50</text>
<text text-anchor="start" x="321.5" y="-22.8" font-family="Helvetica,sans-Serif" font-size="14.00">value = [24, 26]</text>
<text text-anchor="start" x="318.5" y="-7.8" font-family="Helvetica,sans-Serif" font-size="14.00">class = Decease</text>
</g>
<!-- 4&#45;&gt;5 -->
<g id="edge5" class="edge">
<title>4&#45;&gt;5</title>
<path fill="none" stroke="black" d="M368.5,-103.73C368.5,-95.52 368.5,-86.86 368.5,-78.56"/>
<polygon fill="black" stroke="black" points="372,-78.3 368.5,-68.3 365,-78.3 372,-78.3"/>
</g>
<!-- 6 -->
<g id="node7" class="node">
<title>6</title>
<path fill="#4ea8e8" stroke="black" d="M548.5,-68C548.5,-68 456.5,-68 456.5,-68 450.5,-68 444.5,-62 444.5,-56 444.5,-56 444.5,-12 444.5,-12 444.5,-6 450.5,0 456.5,0 456.5,0 548.5,0 548.5,0 554.5,0 560.5,-6 560.5,-12 560.5,-12 560.5,-56 560.5,-56 560.5,-62 554.5,-68 548.5,-68"/>
<text text-anchor="start" x="455" y="-52.8" font-family="Helvetica,sans-Serif" font-size="14.00">entropy = 0.459</text>
<text text-anchor="start" x="461.5" y="-37.8" font-family="Helvetica,sans-Serif" font-size="14.00">samples = 62</text>
<text text-anchor="start" x="459.5" y="-22.8" font-family="Helvetica,sans-Serif" font-size="14.00">value = [6, 56]</text>
<text text-anchor="start" x="452.5" y="-7.8" font-family="Helvetica,sans-Serif" font-size="14.00">class = Decease</text>
</g>
<!-- 4&#45;&gt;6 -->
<g id="edge6" class="edge">
<title>4&#45;&gt;6</title>
<path fill="none" stroke="black" d="M418.4,-103.73C430,-94.24 442.35,-84.16 453.9,-74.72"/>
<polygon fill="black" stroke="black" points="456.22,-77.34 461.75,-68.3 451.79,-71.92 456.22,-77.34"/>
</g>
</g>
</svg>
